%TF.GenerationSoftware,KiCad,Pcbnew,9.0.4*%
%TF.CreationDate,2025-09-05T15:19:02+01:00*%
%TF.ProjectId,MicroPython,4d696372-6f50-4797-9468-6f6e2e6b6963,rev?*%
%TF.SameCoordinates,Original*%
%TF.FileFunction,Copper,L4,Bot*%
%TF.FilePolarity,Positive*%
%FSLAX46Y46*%
G04 Gerber Fmt 4.6, Leading zero omitted, Abs format (unit mm)*
G04 Created by KiCad (PCBNEW 9.0.4) date 2025-09-05 15:19:02*
%MOMM*%
%LPD*%
G01*
G04 APERTURE LIST*
%TA.AperFunction,HeatsinkPad*%
%ADD10O,1.000000X2.100000*%
%TD*%
%TA.AperFunction,HeatsinkPad*%
%ADD11O,1.000000X1.800000*%
%TD*%
%TA.AperFunction,ComponentPad*%
%ADD12R,1.700000X1.700000*%
%TD*%
%TA.AperFunction,ComponentPad*%
%ADD13C,1.700000*%
%TD*%
%TA.AperFunction,ViaPad*%
%ADD14C,0.550000*%
%TD*%
%TA.AperFunction,Conductor*%
%ADD15C,0.250000*%
%TD*%
%TA.AperFunction,Conductor*%
%ADD16C,0.220000*%
%TD*%
%TA.AperFunction,Conductor*%
%ADD17C,0.230000*%
%TD*%
%TA.AperFunction,Conductor*%
%ADD18C,0.300000*%
%TD*%
%TA.AperFunction,Conductor*%
%ADD19C,0.210000*%
%TD*%
G04 APERTURE END LIST*
D10*
%TO.P,J10,S1,SHIELD*%
%TO.N,Net-(J10-SHIELD)*%
X147068000Y-101111000D03*
D11*
X147068000Y-96931000D03*
D10*
X138428000Y-101111000D03*
D11*
X138428000Y-96931000D03*
%TD*%
D12*
%TO.P,J2,1,Pin_1*%
%TO.N,/PB6-SCL-X9*%
X128270000Y-116330000D03*
D13*
%TO.P,J2,2,Pin_2*%
%TO.N,/PB7-SDA-X10*%
X128270000Y-118870000D03*
%TO.P,J2,3,Pin_3*%
%TO.N,/PC4-X11*%
X128270000Y-121410000D03*
%TO.P,J2,4,Pin_4*%
%TO.N,/PC5-X12*%
X128270000Y-123950000D03*
%TO.P,J2,5,Pin_5*%
%TO.N,/RST-SW*%
X128270000Y-126490000D03*
%TO.P,J2,6,Pin_6*%
%TO.N,GND*%
X128270000Y-129030000D03*
%TO.P,J2,7,Pin_7*%
%TO.N,+3V3*%
X128270000Y-131570000D03*
%TO.P,J2,8,Pin_8*%
%TO.N,VIN*%
X128270000Y-134110000D03*
%TD*%
D12*
%TO.P,J8,1,Pin_1*%
%TO.N,+3V3*%
X152258000Y-111018000D03*
D13*
%TO.P,J8,2,Pin_2*%
%TO.N,/PA13-SWDIO*%
X152258000Y-108478000D03*
%TO.P,J8,3,Pin_3*%
%TO.N,unconnected-(J8-Pin_3-Pad3)*%
X149718000Y-111018000D03*
%TO.P,J8,4,Pin_4*%
%TO.N,/RST-SW*%
X149718000Y-108478000D03*
%TO.P,J8,5,Pin_5*%
%TO.N,GND*%
X147178000Y-111018000D03*
%TO.P,J8,6,Pin_6*%
%TO.N,/PA14-SWCLCK*%
X147178000Y-108478000D03*
%TD*%
D12*
%TO.P,J7,1,Pin_1*%
%TO.N,VIN*%
X156210000Y-96010000D03*
D13*
%TO.P,J7,2,Pin_2*%
%TO.N,+3V3*%
X156210000Y-98550000D03*
%TO.P,J7,3,Pin_3*%
%TO.N,GND*%
X156210000Y-101090000D03*
%TO.P,J7,4,Pin_4*%
%TO.N,/RST-SW*%
X156210000Y-103630000D03*
%TO.P,J7,5,Pin_5*%
%TO.N,/PB1-Y12*%
X156210000Y-106170000D03*
%TO.P,J7,6,Pin_6*%
%TO.N,/PB0-Y11*%
X156210000Y-108710000D03*
%TO.P,J7,7,Pin_7*%
%TO.N,/PB11-Y10*%
X156210000Y-111250000D03*
%TO.P,J7,8,Pin_8*%
%TO.N,/PB10-Y9*%
X156210000Y-113790000D03*
%TD*%
D12*
%TO.P,J1,1,Pin_1*%
%TO.N,/PA7-X8*%
X156210000Y-116330000D03*
D13*
%TO.P,J1,2,Pin_2*%
%TO.N,/PA6-X7*%
X156210000Y-118870000D03*
%TO.P,J1,3,Pin_3*%
%TO.N,/PA5-X6*%
X156210000Y-121410000D03*
%TO.P,J1,4,Pin_4*%
%TO.N,/PA4-X5*%
X156210000Y-123950000D03*
%TO.P,J1,5,Pin_5*%
%TO.N,/PA3-X4*%
X156210000Y-126490000D03*
%TO.P,J1,6,Pin_6*%
%TO.N,/PA2-X3*%
X156210000Y-129030000D03*
%TO.P,J1,7,Pin_7*%
%TO.N,/PA1-X2*%
X156210000Y-131570000D03*
%TO.P,J1,8,Pin_8*%
%TO.N,/PA0-X1*%
X156210000Y-134110000D03*
%TD*%
D12*
%TO.P,J6,1,Pin_1*%
%TO.N,/PC6-Y1*%
X128270000Y-96010000D03*
D13*
%TO.P,J6,2,Pin_2*%
%TO.N,/PC7-Y2*%
X128270000Y-98550000D03*
%TO.P,J6,3,Pin_3*%
%TO.N,/PB8-Y3*%
X128270000Y-101090000D03*
%TO.P,J6,4,Pin_4*%
%TO.N,/PB9-Y4*%
X128270000Y-103630000D03*
%TO.P,J6,5,Pin_5*%
%TO.N,/PB12-Y5*%
X128270000Y-106170000D03*
%TO.P,J6,6,Pin_6*%
%TO.N,/PB13-Y6*%
X128270000Y-108710000D03*
%TO.P,J6,7,Pin_7*%
%TO.N,/PB14-Y7*%
X128270000Y-111250000D03*
%TO.P,J6,8,Pin_8*%
%TO.N,/PB15-Y8*%
X128270000Y-113790000D03*
%TD*%
D14*
%TO.N,GND*%
X150368000Y-97282000D03*
X129921000Y-130810000D03*
X138557000Y-125730000D03*
X142748000Y-132461000D03*
X131826000Y-128905000D03*
X149860000Y-112522000D03*
X141478000Y-110871000D03*
X132461000Y-97663000D03*
X152781000Y-101854000D03*
X151892000Y-99060000D03*
X135509000Y-107569000D03*
X150114000Y-106934000D03*
X140843000Y-108204000D03*
X135890000Y-114427000D03*
X135001000Y-100584000D03*
X144510583Y-95235447D03*
X142240000Y-96393000D03*
X154897191Y-107470063D03*
X143891000Y-106172000D03*
X140081000Y-105410000D03*
X140081000Y-103124000D03*
X138684000Y-107315000D03*
X132334000Y-100584000D03*
%TO.N,/PB8-Y3*%
X136593022Y-101364106D03*
%TO.N,GND*%
X129794000Y-104902000D03*
X129667000Y-112014000D03*
X154559000Y-123571000D03*
X139827000Y-123317000D03*
X153416000Y-117475000D03*
X145288000Y-120904000D03*
X146431000Y-118872000D03*
X135509000Y-116459000D03*
X130302000Y-114681000D03*
X129921000Y-120269000D03*
X130048000Y-124968000D03*
X146939000Y-128397000D03*
X151130000Y-127254000D03*
X154686000Y-134620000D03*
X137414000Y-131445000D03*
X130048000Y-134239000D03*
X150876000Y-122174000D03*
X145923000Y-103505000D03*
X145796000Y-98933000D03*
X153924000Y-95250000D03*
X154686000Y-97536000D03*
X154559000Y-125222000D03*
%TO.N,+3V3*%
X154184563Y-103632000D03*
%TO.N,/PB12-Y5*%
X144653000Y-109980000D03*
%TO.N,/PB14-Y7*%
X144272000Y-114552000D03*
%TO.N,/PB1-Y12*%
X145796000Y-105664000D03*
X146125000Y-120267000D03*
%TO.N,/PB9-Y4*%
X135763000Y-103632000D03*
X137909210Y-124990958D03*
%TO.N,/PA0-X1*%
X146509481Y-131902481D03*
%TO.N,/PB3-SW-X17*%
X134891588Y-120571552D03*
X135890000Y-102108000D03*
%TO.N,/PB13-Y6*%
X144272000Y-113536000D03*
%TO.N,/PB7-SDA-X10*%
X134620000Y-123507000D03*
%TO.N,/PB11-Y10*%
X154813000Y-117856000D03*
X149569961Y-119320493D03*
%TO.N,/PA1-X2*%
X146812000Y-131189000D03*
%TO.N,/PA4-X5*%
X146431000Y-124331000D03*
%TO.N,/PC4-X11*%
X146431000Y-122807000D03*
%TO.N,/PC6-Y1*%
X144018000Y-115314000D03*
%TO.N,/PB15-Y8*%
X144018000Y-118489000D03*
%TO.N,/PA2-X3*%
X146812000Y-130300000D03*
%TO.N,/PB0-Y11*%
X154686000Y-119126000D03*
X146335750Y-121124250D03*
%TO.N,/VDDA*%
X148082000Y-105509000D03*
X147955000Y-126746000D03*
%TO.N,/PB6-SCL-X9*%
X133228058Y-121283752D03*
%TO.N,/PC5-X12*%
X145542000Y-124206000D03*
%TO.N,/RST-SW*%
X153289000Y-106760000D03*
X139700000Y-109395000D03*
X140843000Y-126111000D03*
X135476588Y-109002000D03*
%TO.N,/PB8-Y3*%
X138176000Y-123317000D03*
%TO.N,/PC7-Y2*%
X142113000Y-98550000D03*
X142494000Y-115187000D03*
%TO.N,/PB10-Y9*%
X149527885Y-120228716D03*
X150114000Y-114046000D03*
%TO.N,GND*%
X146558000Y-125424534D03*
X154813000Y-127762000D03*
X147955000Y-134747000D03*
X130048000Y-95123000D03*
X138557000Y-121031000D03*
X143891000Y-111887000D03*
X135382000Y-112014000D03*
X131873440Y-124458000D03*
X143002000Y-125730000D03*
X139077797Y-130940660D03*
X138557000Y-110998000D03*
X139319000Y-134493000D03*
X134747000Y-125222000D03*
X129921000Y-102362000D03*
X145161000Y-132588000D03*
X142240000Y-129284000D03*
X137287000Y-128522000D03*
X141732000Y-120777000D03*
%TO.N,+3V3*%
X136271000Y-127506000D03*
X136548720Y-112312720D03*
X150114000Y-125855000D03*
X135199832Y-118616000D03*
X153190000Y-120142000D03*
X136588500Y-133284500D03*
X141478000Y-111885000D03*
X136588500Y-117475000D03*
X147079000Y-133361000D03*
X136588500Y-115187000D03*
%TO.N,/PA13-SWDIO*%
X153543000Y-116078000D03*
X147955000Y-129159000D03*
X139446000Y-117854000D03*
X147193000Y-116586000D03*
%TO.N,/PA14-SWCLCK*%
X144529617Y-119049000D03*
X138780000Y-119049000D03*
X147955000Y-127635000D03*
%TO.N,/PA15-TDI*%
X152273000Y-127635000D03*
X151943988Y-118547201D03*
X138684000Y-119888000D03*
%TO.N,/PB4-TRST*%
X152908000Y-121539000D03*
X153797000Y-127762000D03*
X134620000Y-121537000D03*
%TD*%
D15*
%TO.N,+3V3*%
X136588500Y-127188500D02*
X136588500Y-115187000D01*
X136271000Y-127506000D02*
X136588500Y-127188500D01*
X136588500Y-127823500D02*
X136588500Y-133284500D01*
X136271000Y-127506000D02*
X136588500Y-127823500D01*
D16*
%TO.N,/PB8-Y3*%
X137823063Y-122964063D02*
X138176000Y-123317000D01*
X137823063Y-107634679D02*
X137823063Y-122964063D01*
X136593022Y-106404638D02*
X137823063Y-107634679D01*
X136593022Y-101364106D02*
X136593022Y-106404638D01*
%TO.N,/PB9-Y4*%
X137909210Y-124953210D02*
X137909210Y-124990958D01*
X137247000Y-107654000D02*
X137247000Y-124291000D01*
X135255000Y-105662000D02*
X137247000Y-107654000D01*
X135255000Y-104140000D02*
X135255000Y-105662000D01*
X137247000Y-124291000D02*
X137909210Y-124953210D01*
X135763000Y-103632000D02*
X135255000Y-104140000D01*
%TO.N,/RST-SW*%
X151436000Y-106760000D02*
X149718000Y-108478000D01*
X153289000Y-106760000D02*
X151436000Y-106760000D01*
%TO.N,/PB1-Y12*%
X145796000Y-119938000D02*
X146125000Y-120267000D01*
X145796000Y-105664000D02*
X145796000Y-119938000D01*
D17*
%TO.N,+3V3*%
X154184563Y-100575437D02*
X156210000Y-98550000D01*
X154184563Y-109091437D02*
X154184563Y-100575437D01*
X152258000Y-111018000D02*
X154184563Y-109091437D01*
%TO.N,/PB0-Y11*%
X155450000Y-108710000D02*
X156210000Y-108710000D01*
X154156531Y-110003469D02*
X155450000Y-108710000D01*
X154156531Y-118596531D02*
X154156531Y-110003469D01*
X154686000Y-119126000D02*
X154156531Y-118596531D01*
D16*
%TO.N,+3V3*%
X153190000Y-119406000D02*
X152654000Y-118870000D01*
X152654000Y-118870000D02*
X152654000Y-111414000D01*
X153190000Y-120142000D02*
X153190000Y-119406000D01*
%TO.N,/RST-SW*%
X140843000Y-110538000D02*
X139700000Y-109395000D01*
X140843000Y-126111000D02*
X140843000Y-110538000D01*
%TO.N,/PC6-Y1*%
X131572000Y-96010000D02*
X128270000Y-96010000D01*
X132078000Y-95504000D02*
X131572000Y-96010000D01*
X142621000Y-95504000D02*
X132078000Y-95504000D01*
X143129000Y-114425000D02*
X143129000Y-96012000D01*
X143129000Y-96012000D02*
X142621000Y-95504000D01*
X144018000Y-115314000D02*
X143129000Y-114425000D01*
%TO.N,/PB3-SW-X17*%
X134614832Y-102621168D02*
X134614832Y-120294796D01*
X135890000Y-102108000D02*
X135128000Y-102108000D01*
X134614832Y-120294796D02*
X134891588Y-120571552D01*
X135128000Y-102108000D02*
X134614832Y-102621168D01*
%TO.N,/PC7-Y2*%
X142113000Y-98550000D02*
X142113000Y-114806000D01*
X142113000Y-114806000D02*
X142494000Y-115187000D01*
%TO.N,+3V3*%
X150114000Y-124521500D02*
X150114000Y-126236000D01*
D18*
X150114000Y-132967000D02*
X149720000Y-133361000D01*
X149720000Y-133361000D02*
X147079000Y-133361000D01*
X150114000Y-126236000D02*
X150114000Y-132967000D01*
D16*
X152019000Y-121313000D02*
X152019000Y-122616500D01*
X136548720Y-115147220D02*
X136588500Y-115187000D01*
X153190000Y-120142000D02*
X152019000Y-121313000D01*
X136548720Y-112312720D02*
X136548720Y-115147220D01*
X152019000Y-122616500D02*
X150114000Y-124521500D01*
D18*
X150114000Y-125855000D02*
X150114000Y-126236000D01*
D19*
%TO.N,Net-(J10-SHIELD)*%
X147068000Y-101111000D02*
X147068000Y-96931000D01*
X138428000Y-101111000D02*
X138428000Y-96931000D01*
D17*
%TO.N,/VDDA*%
X147955000Y-120099653D02*
X147955000Y-126746000D01*
X148463000Y-119591653D02*
X147955000Y-120099653D01*
X148463000Y-105890000D02*
X148463000Y-119591653D01*
X148082000Y-105509000D02*
X148463000Y-105890000D01*
%TD*%
%TA.AperFunction,Conductor*%
%TO.N,GND*%
G36*
X155659992Y-94633817D02*
G01*
X155699588Y-94688317D01*
X155704915Y-94720646D01*
X155705890Y-94799146D01*
X155685870Y-94863468D01*
X155631866Y-94903739D01*
X155596898Y-94909500D01*
X155335326Y-94909500D01*
X155262260Y-94924034D01*
X155179399Y-94979399D01*
X155124034Y-95062260D01*
X155109500Y-95135326D01*
X155109500Y-96884674D01*
X155124034Y-96957740D01*
X155179399Y-97040601D01*
X155262260Y-97095966D01*
X155335326Y-97110500D01*
X155335330Y-97110500D01*
X155626948Y-97110500D01*
X155691017Y-97131317D01*
X155730613Y-97185817D01*
X155735940Y-97218147D01*
X155739273Y-97486574D01*
X155719253Y-97550896D01*
X155679768Y-97585046D01*
X155633211Y-97608768D01*
X155493074Y-97710584D01*
X155370584Y-97833074D01*
X155268765Y-97973216D01*
X155268763Y-97973219D01*
X155264333Y-97981913D01*
X155264275Y-97982029D01*
X155233719Y-98042000D01*
X155194000Y-98042000D01*
X155194000Y-98119953D01*
X155190127Y-98127555D01*
X155186207Y-98139618D01*
X155186204Y-98139625D01*
X155136598Y-98292295D01*
X155109500Y-98463387D01*
X155109500Y-98636612D01*
X155136598Y-98807704D01*
X155188665Y-98967946D01*
X155194000Y-99001629D01*
X155194000Y-99003955D01*
X155173183Y-99068024D01*
X155162075Y-99081030D01*
X153960141Y-100282964D01*
X153960140Y-100282963D01*
X153892089Y-100351015D01*
X153843970Y-100434359D01*
X153819063Y-100527318D01*
X153819063Y-103209180D01*
X153798246Y-103273249D01*
X153787139Y-103286253D01*
X153764058Y-103309334D01*
X153694874Y-103429164D01*
X153659063Y-103562817D01*
X153659063Y-103701182D01*
X153694874Y-103834835D01*
X153764056Y-103954662D01*
X153764058Y-103954665D01*
X153787139Y-103977746D01*
X153817721Y-104037768D01*
X153819063Y-104054819D01*
X153819063Y-106283744D01*
X153798246Y-106347813D01*
X153743746Y-106387409D01*
X153676380Y-106387409D01*
X153632990Y-106360820D01*
X153611665Y-106339495D01*
X153611662Y-106339493D01*
X153491835Y-106270311D01*
X153358183Y-106234500D01*
X153219817Y-106234500D01*
X153086164Y-106270311D01*
X152966334Y-106339495D01*
X152938253Y-106367576D01*
X152878230Y-106398158D01*
X152861180Y-106399500D01*
X151388539Y-106399500D01*
X151296851Y-106424067D01*
X151214649Y-106471527D01*
X150253795Y-107432379D01*
X150193771Y-107462962D01*
X150143037Y-107458969D01*
X149975704Y-107404598D01*
X149975705Y-107404598D01*
X149804612Y-107377500D01*
X149804611Y-107377500D01*
X149631389Y-107377500D01*
X149631387Y-107377500D01*
X149460295Y-107404598D01*
X149295556Y-107458126D01*
X149141219Y-107536763D01*
X149141216Y-107536765D01*
X149001569Y-107638225D01*
X148937500Y-107659042D01*
X148873431Y-107638225D01*
X148833835Y-107583725D01*
X148828500Y-107550042D01*
X148828500Y-105841881D01*
X148804431Y-105752054D01*
X148803592Y-105748922D01*
X148792871Y-105730352D01*
X148755473Y-105665577D01*
X148639425Y-105549528D01*
X148608842Y-105489505D01*
X148607500Y-105472454D01*
X148607500Y-105439817D01*
X148571688Y-105306164D01*
X148502506Y-105186337D01*
X148502505Y-105186335D01*
X148404665Y-105088495D01*
X148404662Y-105088493D01*
X148284835Y-105019311D01*
X148151183Y-104983500D01*
X148012817Y-104983500D01*
X147879164Y-105019311D01*
X147759337Y-105088493D01*
X147661493Y-105186337D01*
X147592311Y-105306164D01*
X147556500Y-105439817D01*
X147556500Y-105578182D01*
X147592311Y-105711835D01*
X147661493Y-105831662D01*
X147661495Y-105831665D01*
X147759335Y-105929505D01*
X147879164Y-105998688D01*
X148012817Y-106034500D01*
X148012818Y-106034500D01*
X148016711Y-106035543D01*
X148073209Y-106072233D01*
X148097351Y-106135124D01*
X148097500Y-106140829D01*
X148097500Y-107578009D01*
X148076683Y-107642078D01*
X148022183Y-107681674D01*
X147954817Y-107681674D01*
X147911427Y-107655085D01*
X147894928Y-107638586D01*
X147754788Y-107536768D01*
X147754785Y-107536766D01*
X147754783Y-107536765D01*
X147754780Y-107536763D01*
X147600443Y-107458126D01*
X147435704Y-107404598D01*
X147435705Y-107404598D01*
X147264612Y-107377500D01*
X147264611Y-107377500D01*
X147091389Y-107377500D01*
X147091387Y-107377500D01*
X146920295Y-107404598D01*
X146755556Y-107458126D01*
X146601219Y-107536763D01*
X146601216Y-107536765D01*
X146461074Y-107638584D01*
X146461072Y-107638585D01*
X146461072Y-107638586D01*
X146342572Y-107757085D01*
X146282551Y-107787667D01*
X146216015Y-107777129D01*
X146168380Y-107729494D01*
X146156500Y-107680009D01*
X146156500Y-106091819D01*
X146177317Y-106027750D01*
X146188419Y-106014750D01*
X146216505Y-105986665D01*
X146285688Y-105866836D01*
X146321500Y-105733183D01*
X146321500Y-105594817D01*
X146285688Y-105461164D01*
X146216505Y-105341335D01*
X146118665Y-105243495D01*
X146118662Y-105243493D01*
X145998835Y-105174311D01*
X145865183Y-105138500D01*
X145726817Y-105138500D01*
X145593164Y-105174311D01*
X145473337Y-105243493D01*
X145375493Y-105341337D01*
X145306311Y-105461164D01*
X145283955Y-105544601D01*
X145270500Y-105594817D01*
X145270500Y-105733183D01*
X145280095Y-105768994D01*
X145306311Y-105866835D01*
X145365996Y-105970213D01*
X145375495Y-105986665D01*
X145403576Y-106014746D01*
X145434158Y-106074768D01*
X145435500Y-106091819D01*
X145435500Y-119985460D01*
X145460067Y-120077148D01*
X145460066Y-120077148D01*
X145501168Y-120148336D01*
X145507528Y-120159352D01*
X145567576Y-120219400D01*
X145598158Y-120279422D01*
X145599500Y-120296473D01*
X145599500Y-120336182D01*
X145635311Y-120469835D01*
X145701209Y-120583974D01*
X145704495Y-120589665D01*
X145802335Y-120687505D01*
X145822981Y-120699425D01*
X145842018Y-120710416D01*
X145887094Y-120760479D01*
X145894136Y-120827475D01*
X145881915Y-120859312D01*
X145846062Y-120921411D01*
X145846062Y-120921413D01*
X145810250Y-121055067D01*
X145810250Y-121193432D01*
X145846061Y-121327085D01*
X145915243Y-121446912D01*
X145915245Y-121446915D01*
X146013085Y-121544755D01*
X146132914Y-121613938D01*
X146266567Y-121649750D01*
X146404933Y-121649750D01*
X146538586Y-121613938D01*
X146658415Y-121544755D01*
X146756255Y-121446915D01*
X146825438Y-121327086D01*
X146861250Y-121193433D01*
X146861250Y-121055067D01*
X146825438Y-120921414D01*
X146756255Y-120801585D01*
X146658415Y-120703745D01*
X146658412Y-120703743D01*
X146658411Y-120703742D01*
X146618730Y-120680832D01*
X146573654Y-120630770D01*
X146566613Y-120563773D01*
X146578835Y-120531936D01*
X146614686Y-120469840D01*
X146614686Y-120469839D01*
X146614688Y-120469836D01*
X146650500Y-120336183D01*
X146650500Y-120197817D01*
X146614688Y-120064164D01*
X146545505Y-119944335D01*
X146447665Y-119846495D01*
X146447662Y-119846493D01*
X146327835Y-119777311D01*
X146237289Y-119753050D01*
X146180791Y-119716360D01*
X146156649Y-119653469D01*
X146156500Y-119647764D01*
X146156500Y-116516817D01*
X146667500Y-116516817D01*
X146667500Y-116655182D01*
X146703311Y-116788835D01*
X146703312Y-116788836D01*
X146772495Y-116908665D01*
X146870335Y-117006505D01*
X146990164Y-117075688D01*
X147123817Y-117111500D01*
X147262183Y-117111500D01*
X147395836Y-117075688D01*
X147515665Y-117006505D01*
X147613505Y-116908665D01*
X147682688Y-116788836D01*
X147718500Y-116655183D01*
X147718500Y-116516817D01*
X147682688Y-116383164D01*
X147613505Y-116263335D01*
X147515665Y-116165495D01*
X147483948Y-116147183D01*
X147395835Y-116096311D01*
X147262183Y-116060500D01*
X147123817Y-116060500D01*
X146990164Y-116096311D01*
X146870337Y-116165493D01*
X146772493Y-116263337D01*
X146703311Y-116383164D01*
X146667500Y-116516817D01*
X146156500Y-116516817D01*
X146156500Y-111808479D01*
X146177317Y-111744410D01*
X146231817Y-111704814D01*
X146274054Y-111699815D01*
X146316096Y-111703124D01*
X146747269Y-111271950D01*
X146777901Y-111325007D01*
X146870993Y-111418099D01*
X146924045Y-111448729D01*
X146492874Y-111879901D01*
X146601474Y-111958802D01*
X146755751Y-112037411D01*
X146920411Y-112090913D01*
X147091428Y-112118000D01*
X147264572Y-112118000D01*
X147435588Y-112090913D01*
X147600251Y-112037410D01*
X147696071Y-111988587D01*
X147762607Y-111978048D01*
X147822631Y-112008630D01*
X147828000Y-112013999D01*
X147828000Y-112014000D01*
X147988500Y-112014000D01*
X148052569Y-112034817D01*
X148092165Y-112089317D01*
X148097500Y-112123000D01*
X148097500Y-119395108D01*
X148076683Y-119459177D01*
X148065575Y-119472183D01*
X147730578Y-119807180D01*
X147730577Y-119807179D01*
X147662526Y-119875231D01*
X147614407Y-119958575D01*
X147589500Y-120051534D01*
X147589500Y-126323180D01*
X147568683Y-126387249D01*
X147557576Y-126400253D01*
X147534495Y-126423334D01*
X147465311Y-126543164D01*
X147429500Y-126676817D01*
X147429500Y-126815182D01*
X147465311Y-126948835D01*
X147504269Y-127016312D01*
X147534495Y-127068665D01*
X147579257Y-127113427D01*
X147609839Y-127173449D01*
X147599301Y-127239985D01*
X147579258Y-127267571D01*
X147543666Y-127303164D01*
X147534493Y-127312337D01*
X147465311Y-127432164D01*
X147440958Y-127523055D01*
X147429500Y-127565817D01*
X147429500Y-127704183D01*
X147430747Y-127708836D01*
X147465311Y-127837835D01*
X147465312Y-127837836D01*
X147534495Y-127957665D01*
X147632335Y-128055505D01*
X147752164Y-128124688D01*
X147885817Y-128160500D01*
X148024183Y-128160500D01*
X148157836Y-128124688D01*
X148277665Y-128055505D01*
X148375505Y-127957665D01*
X148444688Y-127837836D01*
X148480500Y-127704183D01*
X148480500Y-127565817D01*
X148444688Y-127432164D01*
X148375505Y-127312335D01*
X148330742Y-127267572D01*
X148300161Y-127207551D01*
X148310699Y-127141015D01*
X148330741Y-127113428D01*
X148375505Y-127068665D01*
X148444688Y-126948836D01*
X148480500Y-126815183D01*
X148480500Y-126676817D01*
X148444688Y-126543164D01*
X148375505Y-126423335D01*
X148375504Y-126423334D01*
X148352424Y-126400253D01*
X148321842Y-126340229D01*
X148320500Y-126323180D01*
X148320500Y-120296197D01*
X148341317Y-120232128D01*
X148352419Y-120219128D01*
X148412014Y-120159533D01*
X149002385Y-120159533D01*
X149002385Y-120297898D01*
X149038196Y-120431551D01*
X149096153Y-120531936D01*
X149107380Y-120551381D01*
X149205220Y-120649221D01*
X149325049Y-120718404D01*
X149458702Y-120754216D01*
X149597068Y-120754216D01*
X149730721Y-120718404D01*
X149850550Y-120649221D01*
X149948390Y-120551381D01*
X150017573Y-120431552D01*
X150053385Y-120297899D01*
X150053385Y-120159533D01*
X150017573Y-120025880D01*
X149948390Y-119906051D01*
X149915053Y-119872714D01*
X149884472Y-119812693D01*
X149895010Y-119746157D01*
X149915053Y-119718570D01*
X149990466Y-119643158D01*
X150059649Y-119523329D01*
X150095461Y-119389676D01*
X150095461Y-119251310D01*
X150059649Y-119117657D01*
X149990466Y-118997828D01*
X149892626Y-118899988D01*
X149892623Y-118899986D01*
X149772796Y-118830804D01*
X149639144Y-118794993D01*
X149500778Y-118794993D01*
X149367125Y-118830804D01*
X149247298Y-118899986D01*
X149149454Y-118997830D01*
X149080272Y-119117657D01*
X149059500Y-119195182D01*
X149044461Y-119251310D01*
X149044461Y-119389676D01*
X149046500Y-119397285D01*
X149080272Y-119523328D01*
X149149454Y-119643155D01*
X149149456Y-119643158D01*
X149182791Y-119676493D01*
X149213373Y-119736515D01*
X149202835Y-119803051D01*
X149182790Y-119830640D01*
X149107379Y-119906050D01*
X149038196Y-120025880D01*
X149002385Y-120159533D01*
X148412014Y-120159533D01*
X148755472Y-119816076D01*
X148760609Y-119807180D01*
X148803592Y-119732731D01*
X148809840Y-119709414D01*
X148828500Y-119639773D01*
X148828500Y-119543534D01*
X148828500Y-113976817D01*
X149588500Y-113976817D01*
X149588500Y-114115183D01*
X149592871Y-114131495D01*
X149624311Y-114248835D01*
X149692411Y-114366788D01*
X149693495Y-114368665D01*
X149791335Y-114466505D01*
X149911164Y-114535688D01*
X150044817Y-114571500D01*
X150183183Y-114571500D01*
X150316836Y-114535688D01*
X150436665Y-114466505D01*
X150534505Y-114368665D01*
X150603688Y-114248836D01*
X150639500Y-114115183D01*
X150639500Y-113976817D01*
X150603688Y-113843164D01*
X150534505Y-113723335D01*
X150436665Y-113625495D01*
X150436662Y-113625493D01*
X150316835Y-113556311D01*
X150183183Y-113520500D01*
X150044817Y-113520500D01*
X149911164Y-113556311D01*
X149791337Y-113625493D01*
X149693493Y-113723337D01*
X149624311Y-113843164D01*
X149592589Y-113961556D01*
X149588500Y-113976817D01*
X148828500Y-113976817D01*
X148828500Y-112123000D01*
X148849317Y-112058931D01*
X148903817Y-112019335D01*
X148937500Y-112014000D01*
X149222533Y-112014000D01*
X149272016Y-112025879D01*
X149295555Y-112037873D01*
X149377927Y-112064637D01*
X149460295Y-112091401D01*
X149460297Y-112091401D01*
X149460299Y-112091402D01*
X149631389Y-112118500D01*
X149631390Y-112118500D01*
X149804610Y-112118500D01*
X149804611Y-112118500D01*
X149975701Y-112091402D01*
X150140445Y-112037873D01*
X150163983Y-112025879D01*
X150213467Y-112014000D01*
X151147649Y-112014000D01*
X151211718Y-112034817D01*
X151224724Y-112045925D01*
X151227396Y-112048597D01*
X151227399Y-112048601D01*
X151310260Y-112103966D01*
X151383326Y-112118500D01*
X152184500Y-112118500D01*
X152248569Y-112139317D01*
X152288165Y-112193817D01*
X152293500Y-112227500D01*
X152293500Y-117955138D01*
X152272683Y-118019207D01*
X152218183Y-118058803D01*
X152153875Y-118058803D01*
X152153725Y-118059362D01*
X152151639Y-118058803D01*
X152150817Y-118058803D01*
X152148637Y-118057998D01*
X152013171Y-118021701D01*
X151874805Y-118021701D01*
X151741152Y-118057512D01*
X151621325Y-118126694D01*
X151523481Y-118224538D01*
X151454299Y-118344365D01*
X151418488Y-118478018D01*
X151418488Y-118616383D01*
X151454299Y-118750036D01*
X151523481Y-118869863D01*
X151523483Y-118869866D01*
X151621323Y-118967706D01*
X151741152Y-119036889D01*
X151874805Y-119072701D01*
X152013171Y-119072701D01*
X152146824Y-119036889D01*
X152192872Y-119010302D01*
X152258765Y-118996297D01*
X152320307Y-119023697D01*
X152341768Y-119050199D01*
X152365528Y-119091352D01*
X152797576Y-119523400D01*
X152801567Y-119531234D01*
X152808683Y-119536404D01*
X152816570Y-119560679D01*
X152828158Y-119583422D01*
X152829500Y-119600473D01*
X152829500Y-119714180D01*
X152808683Y-119778249D01*
X152797576Y-119791253D01*
X152769495Y-119819334D01*
X152700311Y-119939164D01*
X152664500Y-120072817D01*
X152664500Y-120112526D01*
X152643683Y-120176595D01*
X152632575Y-120189601D01*
X151797648Y-121024528D01*
X151797647Y-121024527D01*
X151730530Y-121091645D01*
X151730528Y-121091648D01*
X151683067Y-121173851D01*
X151658500Y-121265539D01*
X151658500Y-122422026D01*
X151637683Y-122486095D01*
X151626575Y-122499101D01*
X149892648Y-124233028D01*
X149892647Y-124233027D01*
X149825530Y-124300145D01*
X149825528Y-124300148D01*
X149778067Y-124382351D01*
X149753500Y-124474039D01*
X149753500Y-125427180D01*
X149732683Y-125491249D01*
X149721576Y-125504253D01*
X149693495Y-125532334D01*
X149624311Y-125652164D01*
X149588500Y-125785817D01*
X149588500Y-125924182D01*
X149624311Y-126057835D01*
X149697067Y-126183852D01*
X149694790Y-126185166D01*
X149713462Y-126237863D01*
X149713500Y-126240736D01*
X149713500Y-132755957D01*
X149710782Y-132764321D01*
X149712158Y-132773008D01*
X149700570Y-132795750D01*
X149692683Y-132820026D01*
X149681575Y-132833032D01*
X149586032Y-132928575D01*
X149526008Y-132959158D01*
X149508957Y-132960500D01*
X147464737Y-132960500D01*
X147408848Y-132942340D01*
X147407852Y-132944067D01*
X147281835Y-132871311D01*
X147148183Y-132835500D01*
X147009817Y-132835500D01*
X146876164Y-132871311D01*
X146756337Y-132940493D01*
X146658493Y-133038337D01*
X146589311Y-133158164D01*
X146553500Y-133291817D01*
X146553500Y-133430182D01*
X146589311Y-133563835D01*
X146656352Y-133679953D01*
X146658495Y-133683665D01*
X146756335Y-133781505D01*
X146876164Y-133850688D01*
X147009817Y-133886500D01*
X147148183Y-133886500D01*
X147281836Y-133850688D01*
X147401665Y-133781505D01*
X147401664Y-133781505D01*
X147407852Y-133777933D01*
X147409164Y-133780205D01*
X147461886Y-133761537D01*
X147464737Y-133761500D01*
X149772727Y-133761500D01*
X149874588Y-133734207D01*
X149965913Y-133681480D01*
X150434480Y-133212913D01*
X150487207Y-133121588D01*
X150514500Y-133019727D01*
X150514500Y-132914273D01*
X150514500Y-127565817D01*
X151747500Y-127565817D01*
X151747500Y-127704183D01*
X151748747Y-127708836D01*
X151783311Y-127837835D01*
X151783312Y-127837836D01*
X151852495Y-127957665D01*
X151950335Y-128055505D01*
X152070164Y-128124688D01*
X152203817Y-128160500D01*
X152342183Y-128160500D01*
X152475836Y-128124688D01*
X152595665Y-128055505D01*
X152693505Y-127957665D01*
X152762688Y-127837836D01*
X152798500Y-127704183D01*
X152798500Y-127692817D01*
X153271500Y-127692817D01*
X153271500Y-127831183D01*
X153273283Y-127837836D01*
X153307311Y-127964835D01*
X153376493Y-128084662D01*
X153376495Y-128084665D01*
X153474335Y-128182505D01*
X153594164Y-128251688D01*
X153727817Y-128287500D01*
X153866183Y-128287500D01*
X153999836Y-128251688D01*
X154119665Y-128182505D01*
X154217505Y-128084665D01*
X154286688Y-127964836D01*
X154322500Y-127831183D01*
X154322500Y-127692817D01*
X154286688Y-127559164D01*
X154217505Y-127439335D01*
X154119665Y-127341495D01*
X154119662Y-127341493D01*
X153999835Y-127272311D01*
X153866183Y-127236500D01*
X153727817Y-127236500D01*
X153594164Y-127272311D01*
X153474337Y-127341493D01*
X153376493Y-127439337D01*
X153307311Y-127559164D01*
X153285562Y-127640335D01*
X153271500Y-127692817D01*
X152798500Y-127692817D01*
X152798500Y-127565817D01*
X152762688Y-127432164D01*
X152693505Y-127312335D01*
X152595665Y-127214495D01*
X152582559Y-127206928D01*
X152475835Y-127145311D01*
X152342183Y-127109500D01*
X152203817Y-127109500D01*
X152070164Y-127145311D01*
X151950337Y-127214493D01*
X151852493Y-127312337D01*
X151783311Y-127432164D01*
X151758958Y-127523055D01*
X151747500Y-127565817D01*
X150514500Y-127565817D01*
X150514500Y-126240736D01*
X150532658Y-126184848D01*
X150530933Y-126183852D01*
X150595479Y-126072054D01*
X150603688Y-126057836D01*
X150639500Y-125924183D01*
X150639500Y-125785817D01*
X150603688Y-125652164D01*
X150534505Y-125532335D01*
X150534504Y-125532334D01*
X150506424Y-125504253D01*
X150475842Y-125444230D01*
X150474500Y-125427180D01*
X150474500Y-124715973D01*
X150495317Y-124651904D01*
X150506419Y-124638904D01*
X152307472Y-122837852D01*
X152354933Y-122755648D01*
X152379500Y-122663961D01*
X152379500Y-122569039D01*
X152379500Y-122016819D01*
X152400317Y-121952750D01*
X152454817Y-121913154D01*
X152522183Y-121913154D01*
X152565572Y-121939742D01*
X152585335Y-121959505D01*
X152705164Y-122028688D01*
X152838817Y-122064500D01*
X152977183Y-122064500D01*
X153110836Y-122028688D01*
X153230665Y-121959505D01*
X153328505Y-121861665D01*
X153397688Y-121741836D01*
X153433500Y-121608183D01*
X153433500Y-121469817D01*
X153397688Y-121336164D01*
X153328505Y-121216335D01*
X153230665Y-121118495D01*
X153227197Y-121116493D01*
X153110836Y-121049312D01*
X153042141Y-121030905D01*
X153032370Y-121024560D01*
X153020867Y-121022738D01*
X153004755Y-121006626D01*
X152985644Y-120994215D01*
X152981469Y-120983339D01*
X152973233Y-120975103D01*
X152969668Y-120952597D01*
X152961502Y-120931323D01*
X152964517Y-120920071D01*
X152962695Y-120908567D01*
X152973039Y-120888264D01*
X152978938Y-120866253D01*
X152993279Y-120848544D01*
X153008612Y-120833212D01*
X153087608Y-120754216D01*
X153142400Y-120699425D01*
X153202423Y-120668842D01*
X153219474Y-120667500D01*
X153259183Y-120667500D01*
X153392836Y-120631688D01*
X153512665Y-120562505D01*
X153610505Y-120464665D01*
X153679688Y-120344836D01*
X153715500Y-120211183D01*
X153715500Y-120072817D01*
X153679688Y-119939164D01*
X153610505Y-119819335D01*
X153598349Y-119807179D01*
X153582424Y-119791253D01*
X153551842Y-119731230D01*
X153550500Y-119714180D01*
X153550500Y-119358539D01*
X153532790Y-119292445D01*
X153525933Y-119266852D01*
X153525932Y-119266851D01*
X153525933Y-119266851D01*
X153484554Y-119195183D01*
X153478472Y-119184648D01*
X153456368Y-119162544D01*
X153411352Y-119117527D01*
X153411352Y-119117528D01*
X153046425Y-118752601D01*
X153015842Y-118692577D01*
X153014500Y-118675526D01*
X153014500Y-116555819D01*
X153035317Y-116491750D01*
X153089817Y-116452154D01*
X153157183Y-116452154D01*
X153200572Y-116478742D01*
X153220335Y-116498505D01*
X153340164Y-116567688D01*
X153473817Y-116603500D01*
X153612181Y-116603500D01*
X153612183Y-116603500D01*
X153653821Y-116592343D01*
X153721093Y-116595869D01*
X153773446Y-116638263D01*
X153791031Y-116697629D01*
X153791031Y-118644649D01*
X153815938Y-118737608D01*
X153864056Y-118820950D01*
X153864058Y-118820953D01*
X154128576Y-119085471D01*
X154159158Y-119145493D01*
X154160500Y-119162544D01*
X154160500Y-119195182D01*
X154196311Y-119328835D01*
X154265493Y-119448662D01*
X154265495Y-119448665D01*
X154363335Y-119546505D01*
X154483164Y-119615688D01*
X154616817Y-119651500D01*
X154755183Y-119651500D01*
X154888836Y-119615688D01*
X155008665Y-119546505D01*
X155008669Y-119546500D01*
X155014330Y-119542158D01*
X155015335Y-119543468D01*
X155067949Y-119516661D01*
X155134485Y-119527199D01*
X155182120Y-119574834D01*
X155194000Y-119624319D01*
X155194000Y-120958371D01*
X155188665Y-120992054D01*
X155136598Y-121152295D01*
X155109500Y-121323387D01*
X155109500Y-121496612D01*
X155136598Y-121667704D01*
X155188665Y-121827946D01*
X155194000Y-121861629D01*
X155194000Y-123498371D01*
X155188665Y-123532054D01*
X155136598Y-123692295D01*
X155109500Y-123863387D01*
X155109500Y-124036612D01*
X155136598Y-124207704D01*
X155188665Y-124367946D01*
X155194000Y-124401629D01*
X155194000Y-126038371D01*
X155188665Y-126072054D01*
X155136598Y-126232295D01*
X155109500Y-126403387D01*
X155109500Y-126576612D01*
X155136598Y-126747704D01*
X155188665Y-126907946D01*
X155194000Y-126941629D01*
X155194000Y-128578371D01*
X155188665Y-128612054D01*
X155136598Y-128772295D01*
X155109500Y-128943387D01*
X155109500Y-129116612D01*
X155136598Y-129287704D01*
X155188665Y-129447946D01*
X155194000Y-129481629D01*
X155194000Y-131118371D01*
X155188665Y-131152054D01*
X155136598Y-131312295D01*
X155109500Y-131483387D01*
X155109500Y-131656612D01*
X155136598Y-131827704D01*
X155188665Y-131987946D01*
X155194000Y-132021629D01*
X155194000Y-133658371D01*
X155188665Y-133692054D01*
X155136598Y-133852295D01*
X155109500Y-134023387D01*
X155109500Y-134196612D01*
X155136598Y-134367704D01*
X155188665Y-134527946D01*
X155194000Y-134561629D01*
X155194000Y-135398000D01*
X155173183Y-135462069D01*
X155118683Y-135501665D01*
X155085000Y-135507000D01*
X128887000Y-135507000D01*
X128822931Y-135486183D01*
X128783335Y-135431683D01*
X128778000Y-135398000D01*
X128778000Y-135153076D01*
X128783962Y-135134724D01*
X128784703Y-135115441D01*
X128793417Y-135105626D01*
X128798817Y-135089007D01*
X128826362Y-135062500D01*
X128831741Y-135058898D01*
X128846788Y-135051232D01*
X128888957Y-135020594D01*
X128890705Y-135019424D01*
X128921203Y-135010793D01*
X128951343Y-135001000D01*
X129359197Y-135001000D01*
X129359198Y-135001000D01*
X129359198Y-134276546D01*
X129360540Y-134259494D01*
X129370500Y-134196611D01*
X129370500Y-134023389D01*
X129360540Y-133960503D01*
X129359198Y-133943452D01*
X129359198Y-131736546D01*
X129360540Y-131719494D01*
X129363684Y-131699645D01*
X129370500Y-131656611D01*
X129370500Y-131483389D01*
X129360540Y-131420503D01*
X129359198Y-131403452D01*
X129359198Y-130429001D01*
X129359198Y-130429000D01*
X128887000Y-130429000D01*
X128822931Y-130408183D01*
X128783335Y-130353683D01*
X128778000Y-130320000D01*
X128778000Y-130072515D01*
X128798817Y-130008446D01*
X128837516Y-129975395D01*
X128846517Y-129970808D01*
X128846527Y-129970802D01*
X128955124Y-129891902D01*
X128955124Y-129891901D01*
X128778000Y-129714776D01*
X128778000Y-129361223D01*
X129131901Y-129715124D01*
X129131902Y-129715124D01*
X129210801Y-129606529D01*
X129289411Y-129452248D01*
X129342913Y-129287588D01*
X129370000Y-129116572D01*
X129370000Y-128943427D01*
X129342913Y-128772411D01*
X129289411Y-128607751D01*
X129210802Y-128453474D01*
X129131901Y-128344874D01*
X128778000Y-128698775D01*
X128778000Y-128345220D01*
X128955124Y-128168096D01*
X128846521Y-128089194D01*
X128837510Y-128084602D01*
X128789878Y-128036965D01*
X128778000Y-127987485D01*
X128778000Y-127744000D01*
X128798817Y-127679931D01*
X128853317Y-127640335D01*
X128887000Y-127635000D01*
X129359197Y-127635000D01*
X129359198Y-127635000D01*
X129359198Y-126656546D01*
X129360540Y-126639494D01*
X129370500Y-126576611D01*
X129370500Y-126403389D01*
X129360540Y-126340503D01*
X129359198Y-126323452D01*
X129359198Y-124116546D01*
X129360540Y-124099494D01*
X129361010Y-124096526D01*
X129370500Y-124036611D01*
X129370500Y-123863389D01*
X129360540Y-123800503D01*
X129359198Y-123783452D01*
X129359198Y-123437817D01*
X134094500Y-123437817D01*
X134094500Y-123576182D01*
X134130311Y-123709835D01*
X134182658Y-123800503D01*
X134199495Y-123829665D01*
X134297335Y-123927505D01*
X134417164Y-123996688D01*
X134550817Y-124032500D01*
X134689183Y-124032500D01*
X134822836Y-123996688D01*
X134942665Y-123927505D01*
X135040505Y-123829665D01*
X135109688Y-123709836D01*
X135145500Y-123576183D01*
X135145500Y-123437817D01*
X135109688Y-123304164D01*
X135040505Y-123184335D01*
X134942665Y-123086495D01*
X134942662Y-123086493D01*
X134822835Y-123017311D01*
X134689183Y-122981500D01*
X134550817Y-122981500D01*
X134417164Y-123017311D01*
X134297337Y-123086493D01*
X134199493Y-123184337D01*
X134130311Y-123304164D01*
X134094500Y-123437817D01*
X129359198Y-123437817D01*
X129359198Y-121576546D01*
X129360540Y-121559494D01*
X129370500Y-121496611D01*
X129370500Y-121323389D01*
X129360540Y-121260503D01*
X129359198Y-121243452D01*
X129359198Y-121214569D01*
X132702558Y-121214569D01*
X132702558Y-121352934D01*
X132738369Y-121486587D01*
X132771953Y-121544756D01*
X132807553Y-121606417D01*
X132905393Y-121704257D01*
X133025222Y-121773440D01*
X133158875Y-121809252D01*
X133297241Y-121809252D01*
X133430894Y-121773440D01*
X133550723Y-121704257D01*
X133648563Y-121606417D01*
X133717746Y-121486588D01*
X133722776Y-121467817D01*
X134094500Y-121467817D01*
X134094500Y-121606182D01*
X134130311Y-121739835D01*
X134188168Y-121840046D01*
X134199495Y-121859665D01*
X134297335Y-121957505D01*
X134417164Y-122026688D01*
X134550817Y-122062500D01*
X134689183Y-122062500D01*
X134822836Y-122026688D01*
X134942665Y-121957505D01*
X135040505Y-121859665D01*
X135109688Y-121739836D01*
X135145500Y-121606183D01*
X135145500Y-121467817D01*
X135109688Y-121334164D01*
X135041725Y-121216448D01*
X135027719Y-121150554D01*
X135055119Y-121089013D01*
X135088564Y-121065379D01*
X135088237Y-121064812D01*
X135094418Y-121061242D01*
X135094420Y-121061240D01*
X135094424Y-121061240D01*
X135214253Y-120992057D01*
X135312093Y-120894217D01*
X135381276Y-120774388D01*
X135417088Y-120640735D01*
X135417088Y-120502369D01*
X135381276Y-120368716D01*
X135312093Y-120248887D01*
X135214253Y-120151047D01*
X135147532Y-120112526D01*
X135094424Y-120081864D01*
X135056119Y-120071600D01*
X134999622Y-120034909D01*
X134975481Y-119972017D01*
X134975332Y-119966314D01*
X134975332Y-119241934D01*
X134996149Y-119177865D01*
X135050649Y-119138269D01*
X135112545Y-119136649D01*
X135130648Y-119141500D01*
X135130649Y-119141500D01*
X135269015Y-119141500D01*
X135402668Y-119105688D01*
X135522497Y-119036505D01*
X135620337Y-118938665D01*
X135689520Y-118818836D01*
X135725332Y-118685183D01*
X135725332Y-118546817D01*
X135689520Y-118413164D01*
X135620337Y-118293335D01*
X135522497Y-118195495D01*
X135522494Y-118195493D01*
X135402667Y-118126311D01*
X135269015Y-118090500D01*
X135130649Y-118090500D01*
X135112541Y-118095352D01*
X135045268Y-118091824D01*
X134992916Y-118049429D01*
X134975332Y-117990065D01*
X134975332Y-109506497D01*
X134996149Y-109442428D01*
X135050649Y-109402832D01*
X135118015Y-109402832D01*
X135150691Y-109420025D01*
X135153921Y-109422504D01*
X135161584Y-109426928D01*
X135273752Y-109491688D01*
X135407405Y-109527500D01*
X135545771Y-109527500D01*
X135679424Y-109491688D01*
X135799253Y-109422505D01*
X135897093Y-109324665D01*
X135966276Y-109204836D01*
X136002088Y-109071183D01*
X136002088Y-108932817D01*
X135966276Y-108799164D01*
X135897093Y-108679335D01*
X135799253Y-108581495D01*
X135748218Y-108552030D01*
X135679423Y-108512311D01*
X135545771Y-108476500D01*
X135407405Y-108476500D01*
X135273752Y-108512311D01*
X135153920Y-108581496D01*
X135150685Y-108583979D01*
X135147932Y-108584953D01*
X135147736Y-108585067D01*
X135147715Y-108585030D01*
X135087183Y-108606465D01*
X135022592Y-108587331D01*
X134981583Y-108533885D01*
X134975332Y-108497502D01*
X134975332Y-106155306D01*
X134996149Y-106091237D01*
X135050649Y-106051641D01*
X135118015Y-106051641D01*
X135161407Y-106078231D01*
X136854575Y-107771399D01*
X136885158Y-107831423D01*
X136886500Y-107848474D01*
X136886500Y-111717138D01*
X136865683Y-111781207D01*
X136811183Y-111820803D01*
X136749289Y-111822424D01*
X136617903Y-111787220D01*
X136479537Y-111787220D01*
X136345884Y-111823031D01*
X136226057Y-111892213D01*
X136128213Y-111990057D01*
X136059031Y-112109884D01*
X136044684Y-112163431D01*
X136023220Y-112243537D01*
X136023220Y-112381903D01*
X136032815Y-112417714D01*
X136059031Y-112515555D01*
X136059032Y-112515556D01*
X136128215Y-112635385D01*
X136156296Y-112663466D01*
X136186878Y-112723488D01*
X136188220Y-112740539D01*
X136188220Y-114800976D01*
X136169947Y-114857213D01*
X136171567Y-114858148D01*
X136098811Y-114984164D01*
X136063000Y-115117817D01*
X136063000Y-115256182D01*
X136098811Y-115389835D01*
X136136623Y-115455327D01*
X136167995Y-115509665D01*
X136181076Y-115522746D01*
X136211658Y-115582768D01*
X136213000Y-115599819D01*
X136213000Y-117062180D01*
X136192183Y-117126249D01*
X136181077Y-117139253D01*
X136167993Y-117152336D01*
X136098811Y-117272164D01*
X136063000Y-117405817D01*
X136063000Y-117544182D01*
X136098811Y-117677835D01*
X136098812Y-117677836D01*
X136167995Y-117797665D01*
X136181076Y-117810746D01*
X136211658Y-117870768D01*
X136213000Y-117887819D01*
X136213000Y-126893864D01*
X136192183Y-126957933D01*
X136137683Y-126997529D01*
X136132212Y-126999150D01*
X136068163Y-127016312D01*
X135948337Y-127085493D01*
X135850493Y-127183337D01*
X135781311Y-127303164D01*
X135745500Y-127436817D01*
X135745500Y-127575182D01*
X135781311Y-127708835D01*
X135850493Y-127828662D01*
X135850495Y-127828665D01*
X135948335Y-127926505D01*
X136068164Y-127995688D01*
X136132211Y-128012849D01*
X136188708Y-128049539D01*
X136212851Y-128112430D01*
X136213000Y-128118135D01*
X136213000Y-132871680D01*
X136192183Y-132935749D01*
X136181077Y-132948753D01*
X136167993Y-132961836D01*
X136098811Y-133081664D01*
X136063000Y-133215317D01*
X136063000Y-133353682D01*
X136098811Y-133487335D01*
X136142979Y-133563836D01*
X136167995Y-133607165D01*
X136265835Y-133705005D01*
X136385664Y-133774188D01*
X136519317Y-133810000D01*
X136657683Y-133810000D01*
X136791336Y-133774188D01*
X136911165Y-133705005D01*
X137009005Y-133607165D01*
X137078188Y-133487336D01*
X137114000Y-133353683D01*
X137114000Y-133215317D01*
X137078188Y-133081664D01*
X137009005Y-132961835D01*
X136995923Y-132948753D01*
X136965342Y-132888728D01*
X136964000Y-132871680D01*
X136964000Y-131833298D01*
X145983981Y-131833298D01*
X145983981Y-131971663D01*
X146019792Y-132105316D01*
X146019793Y-132105317D01*
X146088976Y-132225146D01*
X146186816Y-132322986D01*
X146306645Y-132392169D01*
X146440298Y-132427981D01*
X146578664Y-132427981D01*
X146712317Y-132392169D01*
X146832146Y-132322986D01*
X146929986Y-132225146D01*
X146999169Y-132105317D01*
X147034981Y-131971664D01*
X147034981Y-131833298D01*
X147018051Y-131770114D01*
X147021576Y-131702845D01*
X147063971Y-131650491D01*
X147068796Y-131647533D01*
X147134665Y-131609505D01*
X147232505Y-131511665D01*
X147301688Y-131391836D01*
X147337500Y-131258183D01*
X147337500Y-131119817D01*
X147301688Y-130986164D01*
X147232505Y-130866335D01*
X147187742Y-130821572D01*
X147157161Y-130761551D01*
X147167699Y-130695015D01*
X147187741Y-130667428D01*
X147232505Y-130622665D01*
X147301688Y-130502836D01*
X147337500Y-130369183D01*
X147337500Y-130230817D01*
X147301688Y-130097164D01*
X147232505Y-129977335D01*
X147134665Y-129879495D01*
X147134662Y-129879493D01*
X147014835Y-129810311D01*
X146881183Y-129774500D01*
X146742817Y-129774500D01*
X146609164Y-129810311D01*
X146489337Y-129879493D01*
X146391493Y-129977337D01*
X146322311Y-130097164D01*
X146286500Y-130230817D01*
X146286500Y-130369182D01*
X146322311Y-130502835D01*
X146322312Y-130502836D01*
X146391495Y-130622665D01*
X146436257Y-130667427D01*
X146466839Y-130727449D01*
X146456301Y-130793985D01*
X146436258Y-130821571D01*
X146404758Y-130853072D01*
X146391493Y-130866337D01*
X146322311Y-130986164D01*
X146286500Y-131119817D01*
X146286500Y-131258183D01*
X146303428Y-131321364D01*
X146299902Y-131388638D01*
X146257506Y-131440990D01*
X146252642Y-131443971D01*
X146186818Y-131481974D01*
X146088974Y-131579818D01*
X146019792Y-131699645D01*
X145983981Y-131833298D01*
X136964000Y-131833298D01*
X136964000Y-129089817D01*
X147429500Y-129089817D01*
X147429500Y-129228182D01*
X147465311Y-129361835D01*
X147465312Y-129361836D01*
X147534495Y-129481665D01*
X147632335Y-129579505D01*
X147752164Y-129648688D01*
X147885817Y-129684500D01*
X148024183Y-129684500D01*
X148157836Y-129648688D01*
X148277665Y-129579505D01*
X148375505Y-129481665D01*
X148444688Y-129361836D01*
X148480500Y-129228183D01*
X148480500Y-129089817D01*
X148444688Y-128956164D01*
X148375505Y-128836335D01*
X148277665Y-128738495D01*
X148208868Y-128698775D01*
X148157835Y-128669311D01*
X148024183Y-128633500D01*
X147885817Y-128633500D01*
X147752164Y-128669311D01*
X147632337Y-128738493D01*
X147534493Y-128836337D01*
X147465311Y-128956164D01*
X147429500Y-129089817D01*
X136964000Y-129089817D01*
X136964000Y-127774064D01*
X136938411Y-127678563D01*
X136888975Y-127592937D01*
X136879113Y-127583075D01*
X136848529Y-127523055D01*
X136859065Y-127456518D01*
X136879111Y-127428926D01*
X136888975Y-127419063D01*
X136938411Y-127333437D01*
X136964000Y-127237936D01*
X136964000Y-127139064D01*
X136964000Y-124780974D01*
X136984817Y-124716905D01*
X137039317Y-124677309D01*
X137106683Y-124677309D01*
X137150075Y-124703899D01*
X137351785Y-124905609D01*
X137382368Y-124965633D01*
X137383710Y-124982684D01*
X137383710Y-125060140D01*
X137419521Y-125193793D01*
X137419522Y-125193794D01*
X137488705Y-125313623D01*
X137586545Y-125411463D01*
X137706374Y-125480646D01*
X137840027Y-125516458D01*
X137978393Y-125516458D01*
X138112046Y-125480646D01*
X138231875Y-125411463D01*
X138329715Y-125313623D01*
X138398898Y-125193794D01*
X138434710Y-125060141D01*
X138434710Y-124921775D01*
X138398898Y-124788122D01*
X138329715Y-124668293D01*
X138231875Y-124570453D01*
X138186045Y-124543993D01*
X138112045Y-124501269D01*
X137978393Y-124465458D01*
X137976432Y-124465458D01*
X137975093Y-124465023D01*
X137971310Y-124464525D01*
X137971402Y-124463823D01*
X137912363Y-124444641D01*
X137899357Y-124433533D01*
X137639425Y-124173601D01*
X137608842Y-124113577D01*
X137607500Y-124096526D01*
X137607500Y-123754819D01*
X137628317Y-123690750D01*
X137682817Y-123651154D01*
X137750183Y-123651154D01*
X137793572Y-123677742D01*
X137853335Y-123737505D01*
X137973164Y-123806688D01*
X138106817Y-123842500D01*
X138245183Y-123842500D01*
X138378836Y-123806688D01*
X138498665Y-123737505D01*
X138596505Y-123639665D01*
X138665688Y-123519836D01*
X138701500Y-123386183D01*
X138701500Y-123247817D01*
X138665688Y-123114164D01*
X138596505Y-122994335D01*
X138498665Y-122896495D01*
X138498662Y-122896493D01*
X138378835Y-122827311D01*
X138264352Y-122796636D01*
X138207854Y-122759946D01*
X138183712Y-122697055D01*
X138183563Y-122691350D01*
X138183563Y-120393125D01*
X138204380Y-120329056D01*
X138258880Y-120289460D01*
X138326246Y-120289460D01*
X138358926Y-120306655D01*
X138361328Y-120308498D01*
X138361335Y-120308505D01*
X138481164Y-120377688D01*
X138614817Y-120413500D01*
X138753183Y-120413500D01*
X138886836Y-120377688D01*
X139006665Y-120308505D01*
X139104505Y-120210665D01*
X139173688Y-120090836D01*
X139209500Y-119957183D01*
X139209500Y-119818817D01*
X139173688Y-119685164D01*
X139110573Y-119575846D01*
X139096568Y-119509955D01*
X139123968Y-119448413D01*
X139127877Y-119444292D01*
X139200505Y-119371665D01*
X139269688Y-119251836D01*
X139305500Y-119118183D01*
X139305500Y-118979817D01*
X139269688Y-118846164D01*
X139200505Y-118726335D01*
X139102665Y-118628495D01*
X139102662Y-118628493D01*
X138982835Y-118559311D01*
X138849183Y-118523500D01*
X138710817Y-118523500D01*
X138577164Y-118559311D01*
X138457337Y-118628493D01*
X138457335Y-118628494D01*
X138457335Y-118628495D01*
X138369635Y-118716194D01*
X138309614Y-118746776D01*
X138243078Y-118736238D01*
X138195443Y-118688603D01*
X138183563Y-118639118D01*
X138183563Y-117784817D01*
X138920500Y-117784817D01*
X138920500Y-117923182D01*
X138956311Y-118056835D01*
X139019531Y-118166335D01*
X139025495Y-118176665D01*
X139123335Y-118274505D01*
X139243164Y-118343688D01*
X139376817Y-118379500D01*
X139515183Y-118379500D01*
X139648836Y-118343688D01*
X139768665Y-118274505D01*
X139866505Y-118176665D01*
X139935688Y-118056836D01*
X139971500Y-117923183D01*
X139971500Y-117784817D01*
X139935688Y-117651164D01*
X139866505Y-117531335D01*
X139768665Y-117433495D01*
X139768662Y-117433493D01*
X139648835Y-117364311D01*
X139515183Y-117328500D01*
X139376817Y-117328500D01*
X139243164Y-117364311D01*
X139123337Y-117433493D01*
X139025493Y-117531337D01*
X138956311Y-117651164D01*
X138920500Y-117784817D01*
X138183563Y-117784817D01*
X138183563Y-107587218D01*
X138182627Y-107583725D01*
X138158996Y-107495531D01*
X138158995Y-107495530D01*
X138158996Y-107495530D01*
X138137887Y-107458969D01*
X138111535Y-107413327D01*
X138102806Y-107404598D01*
X138044415Y-107346206D01*
X138044415Y-107346207D01*
X136985447Y-106287239D01*
X136954864Y-106227215D01*
X136953522Y-106210164D01*
X136953522Y-101791925D01*
X136974339Y-101727856D01*
X136985441Y-101714856D01*
X137013527Y-101686771D01*
X137082710Y-101566942D01*
X137118522Y-101433289D01*
X137118522Y-101294923D01*
X137082710Y-101161270D01*
X137013527Y-101041441D01*
X136915687Y-100943601D01*
X136915684Y-100943599D01*
X136795857Y-100874417D01*
X136662205Y-100838606D01*
X136523839Y-100838606D01*
X136390186Y-100874417D01*
X136270359Y-100943599D01*
X136172515Y-101041443D01*
X136103333Y-101161270D01*
X136099223Y-101176611D01*
X136067522Y-101294923D01*
X136067522Y-101433289D01*
X136070738Y-101445291D01*
X136067210Y-101512565D01*
X136024814Y-101564917D01*
X135965451Y-101582500D01*
X135820817Y-101582500D01*
X135687164Y-101618311D01*
X135567334Y-101687495D01*
X135539253Y-101715576D01*
X135479230Y-101746158D01*
X135462180Y-101747500D01*
X135080539Y-101747500D01*
X134988851Y-101772067D01*
X134906649Y-101819527D01*
X134393480Y-102332696D01*
X134393479Y-102332695D01*
X134326362Y-102399813D01*
X134326360Y-102399816D01*
X134278899Y-102482019D01*
X134254332Y-102573707D01*
X134254332Y-120342256D01*
X134278899Y-120433944D01*
X134278898Y-120433944D01*
X134318405Y-120502369D01*
X134326360Y-120516148D01*
X134334164Y-120523952D01*
X134364746Y-120583974D01*
X134366088Y-120601025D01*
X134366088Y-120640734D01*
X134401899Y-120774387D01*
X134469862Y-120892103D01*
X134483868Y-120957997D01*
X134456467Y-121019539D01*
X134423024Y-121043175D01*
X134423351Y-121043740D01*
X134417205Y-121047288D01*
X134417183Y-121047304D01*
X134417165Y-121047311D01*
X134297337Y-121116493D01*
X134199493Y-121214337D01*
X134130311Y-121334164D01*
X134094500Y-121467817D01*
X133722776Y-121467817D01*
X133753558Y-121352935D01*
X133753558Y-121214569D01*
X133717746Y-121080916D01*
X133648563Y-120961087D01*
X133550723Y-120863247D01*
X133550720Y-120863245D01*
X133430893Y-120794063D01*
X133297241Y-120758252D01*
X133158875Y-120758252D01*
X133025222Y-120794063D01*
X132905395Y-120863245D01*
X132807551Y-120961089D01*
X132738369Y-121080916D01*
X132702558Y-121214569D01*
X129359198Y-121214569D01*
X129359198Y-119036546D01*
X129360540Y-119019494D01*
X129362413Y-119007670D01*
X129370500Y-118956611D01*
X129370500Y-118783389D01*
X129360540Y-118720503D01*
X129359198Y-118703452D01*
X129359198Y-117272225D01*
X129361293Y-117250959D01*
X129361906Y-117247875D01*
X129370500Y-117204674D01*
X129370500Y-115455326D01*
X129361292Y-115409034D01*
X129359198Y-115387770D01*
X129359198Y-113956546D01*
X129360540Y-113939494D01*
X129370500Y-113876611D01*
X129370500Y-113703389D01*
X129360540Y-113640503D01*
X129359198Y-113623452D01*
X129359198Y-111416546D01*
X129360540Y-111399494D01*
X129370500Y-111336611D01*
X129370500Y-111163389D01*
X129360540Y-111100503D01*
X129359198Y-111083452D01*
X129359198Y-108876546D01*
X129360540Y-108859494D01*
X129370500Y-108796611D01*
X129370500Y-108623389D01*
X129360540Y-108560503D01*
X129359198Y-108543452D01*
X129359198Y-106336546D01*
X129360540Y-106319494D01*
X129370500Y-106256611D01*
X129370500Y-106083389D01*
X129360540Y-106020503D01*
X129359198Y-106003452D01*
X129359198Y-103796546D01*
X129360540Y-103779494D01*
X129366191Y-103743814D01*
X129370500Y-103716611D01*
X129370500Y-103543389D01*
X129360540Y-103480503D01*
X129359198Y-103463452D01*
X129359198Y-101256546D01*
X129360540Y-101239494D01*
X129370500Y-101176611D01*
X129370500Y-101003389D01*
X129360540Y-100940503D01*
X129359198Y-100923452D01*
X129359198Y-98716546D01*
X129360540Y-98699494D01*
X129370500Y-98636611D01*
X129370500Y-98463389D01*
X129360540Y-98400503D01*
X129359198Y-98383452D01*
X129359198Y-96952225D01*
X129361293Y-96930959D01*
X129370499Y-96884677D01*
X129370500Y-96884674D01*
X129370500Y-96479500D01*
X129391317Y-96415431D01*
X129445817Y-96375835D01*
X129479500Y-96370500D01*
X131619461Y-96370500D01*
X131711148Y-96345933D01*
X131793352Y-96298472D01*
X132195399Y-95896425D01*
X132255423Y-95865842D01*
X132272474Y-95864500D01*
X137769984Y-95864500D01*
X137834053Y-95885317D01*
X137873649Y-95939817D01*
X137873649Y-96007183D01*
X137848393Y-96048397D01*
X137848448Y-96048442D01*
X137848124Y-96048836D01*
X137847060Y-96050572D01*
X137845049Y-96052584D01*
X137845047Y-96052586D01*
X137762916Y-96175503D01*
X137762914Y-96175508D01*
X137706343Y-96312084D01*
X137706342Y-96312087D01*
X137677500Y-96457082D01*
X137677500Y-97404918D01*
X137706342Y-97549913D01*
X137706343Y-97549915D01*
X137762914Y-97686491D01*
X137762916Y-97686496D01*
X137779013Y-97710586D01*
X137845049Y-97809416D01*
X137949584Y-97913951D01*
X138024057Y-97963712D01*
X138065763Y-98016613D01*
X138072500Y-98054341D01*
X138072500Y-99837657D01*
X138051683Y-99901726D01*
X138024057Y-99928287D01*
X137949588Y-99978045D01*
X137845047Y-100082586D01*
X137762916Y-100205503D01*
X137762914Y-100205508D01*
X137706343Y-100342084D01*
X137706342Y-100342087D01*
X137677500Y-100487082D01*
X137677500Y-101734918D01*
X137706342Y-101879913D01*
X137706343Y-101879915D01*
X137762914Y-102016491D01*
X137762916Y-102016496D01*
X137774629Y-102034025D01*
X137845049Y-102139416D01*
X137949584Y-102243951D01*
X138011044Y-102285017D01*
X138072503Y-102326083D01*
X138072504Y-102326083D01*
X138072505Y-102326084D01*
X138209087Y-102382658D01*
X138354082Y-102411500D01*
X138354086Y-102411500D01*
X138501914Y-102411500D01*
X138501918Y-102411500D01*
X138646913Y-102382658D01*
X138783495Y-102326084D01*
X138906416Y-102243951D01*
X139010951Y-102139416D01*
X139093084Y-102016495D01*
X139149658Y-101879913D01*
X139178500Y-101734918D01*
X139178500Y-100891865D01*
X139199317Y-100827796D01*
X139253817Y-100788200D01*
X139321183Y-100788200D01*
X139375683Y-100827796D01*
X139381897Y-100837366D01*
X139437492Y-100933661D01*
X139437493Y-100933662D01*
X139437495Y-100933665D01*
X139535335Y-101031505D01*
X139655164Y-101100688D01*
X139788817Y-101136500D01*
X139927183Y-101136500D01*
X140060836Y-101100688D01*
X140180665Y-101031505D01*
X140278505Y-100933665D01*
X140347688Y-100813836D01*
X140383500Y-100680183D01*
X140383500Y-100541817D01*
X140347688Y-100408164D01*
X140278505Y-100288335D01*
X140180665Y-100190495D01*
X140109128Y-100149193D01*
X140060835Y-100121311D01*
X139927183Y-100085500D01*
X139788817Y-100085500D01*
X139655164Y-100121311D01*
X139535337Y-100190493D01*
X139437493Y-100288337D01*
X139368310Y-100408166D01*
X139366977Y-100411385D01*
X139365358Y-100413279D01*
X139364740Y-100414351D01*
X139364541Y-100414236D01*
X139323221Y-100462605D01*
X139257715Y-100478325D01*
X139195480Y-100452539D01*
X139160287Y-100395097D01*
X139159381Y-100390970D01*
X139149658Y-100342087D01*
X139093084Y-100205505D01*
X139083053Y-100190493D01*
X139010952Y-100082586D01*
X139010951Y-100082584D01*
X138906416Y-99978049D01*
X138906412Y-99978046D01*
X138906411Y-99978045D01*
X138831943Y-99928287D01*
X138790237Y-99875383D01*
X138783500Y-99837657D01*
X138783500Y-98054341D01*
X138804317Y-97990272D01*
X138831940Y-97963713D01*
X138906416Y-97913951D01*
X139010951Y-97809416D01*
X139093084Y-97686495D01*
X139149658Y-97549913D01*
X139178500Y-97404918D01*
X139178500Y-96457082D01*
X139149658Y-96312087D01*
X139093084Y-96175505D01*
X139010951Y-96052584D01*
X139008939Y-96050572D01*
X139008349Y-96049413D01*
X139007552Y-96048442D01*
X139007765Y-96048267D01*
X138978358Y-95990551D01*
X138988896Y-95924015D01*
X139036531Y-95876380D01*
X139086016Y-95864500D01*
X142426526Y-95864500D01*
X142490595Y-95885317D01*
X142503601Y-95896425D01*
X142736575Y-96129399D01*
X142767158Y-96189423D01*
X142768500Y-96206474D01*
X142768500Y-98227564D01*
X142747683Y-98291633D01*
X142693183Y-98331229D01*
X142625817Y-98331229D01*
X142571317Y-98291633D01*
X142565103Y-98282064D01*
X142533506Y-98227337D01*
X142533505Y-98227335D01*
X142435665Y-98129495D01*
X142419138Y-98119953D01*
X142315835Y-98060311D01*
X142182183Y-98024500D01*
X142043817Y-98024500D01*
X141910164Y-98060311D01*
X141790337Y-98129493D01*
X141692493Y-98227337D01*
X141623311Y-98347164D01*
X141587500Y-98480817D01*
X141587500Y-98619182D01*
X141623311Y-98752835D01*
X141692493Y-98872662D01*
X141692495Y-98872665D01*
X141720576Y-98900746D01*
X141751158Y-98960768D01*
X141752500Y-98977819D01*
X141752500Y-111272462D01*
X141731683Y-111336531D01*
X141677183Y-111376127D01*
X141615290Y-111377748D01*
X141547184Y-111359500D01*
X141547183Y-111359500D01*
X141408817Y-111359500D01*
X141408816Y-111359500D01*
X141340710Y-111377748D01*
X141273437Y-111374222D01*
X141221084Y-111331826D01*
X141203500Y-111272462D01*
X141203500Y-110490539D01*
X141185147Y-110422045D01*
X141178933Y-110398852D01*
X141178932Y-110398851D01*
X141178933Y-110398851D01*
X141155333Y-110357976D01*
X141131472Y-110316648D01*
X141117486Y-110302662D01*
X141064352Y-110249527D01*
X141064352Y-110249528D01*
X140257425Y-109442601D01*
X140226842Y-109382577D01*
X140225500Y-109365526D01*
X140225500Y-109325817D01*
X140189688Y-109192164D01*
X140153474Y-109129440D01*
X140120505Y-109072335D01*
X140022665Y-108974495D01*
X140022662Y-108974493D01*
X139902835Y-108905311D01*
X139769183Y-108869500D01*
X139630817Y-108869500D01*
X139497164Y-108905311D01*
X139377337Y-108974493D01*
X139279493Y-109072337D01*
X139210311Y-109192164D01*
X139174500Y-109325817D01*
X139174500Y-109464182D01*
X139210311Y-109597835D01*
X139251381Y-109668970D01*
X139279495Y-109717665D01*
X139377335Y-109815505D01*
X139497164Y-109884688D01*
X139630817Y-109920500D01*
X139670526Y-109920500D01*
X139734595Y-109941317D01*
X139747601Y-109952425D01*
X140450575Y-110655399D01*
X140481158Y-110715423D01*
X140482500Y-110732474D01*
X140482500Y-125683180D01*
X140461683Y-125747249D01*
X140450576Y-125760253D01*
X140422495Y-125788334D01*
X140353311Y-125908164D01*
X140317500Y-126041817D01*
X140317500Y-126180182D01*
X140353311Y-126313835D01*
X140416530Y-126423334D01*
X140422495Y-126433665D01*
X140520335Y-126531505D01*
X140640164Y-126600688D01*
X140773817Y-126636500D01*
X140912183Y-126636500D01*
X141045836Y-126600688D01*
X141165665Y-126531505D01*
X141263505Y-126433665D01*
X141332688Y-126313836D01*
X141368500Y-126180183D01*
X141368500Y-126041817D01*
X141332688Y-125908164D01*
X141263505Y-125788335D01*
X141260987Y-125785817D01*
X141235424Y-125760253D01*
X141204842Y-125700230D01*
X141203500Y-125683180D01*
X141203500Y-124136817D01*
X145016500Y-124136817D01*
X145016500Y-124275182D01*
X145052311Y-124408835D01*
X145115236Y-124517824D01*
X145121495Y-124528665D01*
X145219335Y-124626505D01*
X145339164Y-124695688D01*
X145472817Y-124731500D01*
X145611183Y-124731500D01*
X145744836Y-124695688D01*
X145864665Y-124626505D01*
X145864665Y-124626504D01*
X145868498Y-124624292D01*
X145934392Y-124610286D01*
X145995933Y-124637686D01*
X146009471Y-124652330D01*
X146010493Y-124653662D01*
X146010495Y-124653665D01*
X146108335Y-124751505D01*
X146228164Y-124820688D01*
X146361817Y-124856500D01*
X146500183Y-124856500D01*
X146633836Y-124820688D01*
X146753665Y-124751505D01*
X146851505Y-124653665D01*
X146920688Y-124533836D01*
X146956500Y-124400183D01*
X146956500Y-124261817D01*
X146920688Y-124128164D01*
X146851505Y-124008335D01*
X146753665Y-123910495D01*
X146753662Y-123910493D01*
X146633835Y-123841311D01*
X146500183Y-123805500D01*
X146361817Y-123805500D01*
X146228163Y-123841312D01*
X146228161Y-123841312D01*
X146104500Y-123912707D01*
X146038606Y-123926713D01*
X145977065Y-123899312D01*
X145963527Y-123884667D01*
X145962507Y-123883338D01*
X145962506Y-123883337D01*
X145962505Y-123883335D01*
X145864665Y-123785495D01*
X145864662Y-123785493D01*
X145744835Y-123716311D01*
X145611183Y-123680500D01*
X145472817Y-123680500D01*
X145339164Y-123716311D01*
X145219337Y-123785493D01*
X145121493Y-123883337D01*
X145052311Y-124003164D01*
X145016500Y-124136817D01*
X141203500Y-124136817D01*
X141203500Y-122737817D01*
X145905500Y-122737817D01*
X145905500Y-122876182D01*
X145941311Y-123009835D01*
X146010493Y-123129662D01*
X146010495Y-123129665D01*
X146108335Y-123227505D01*
X146228164Y-123296688D01*
X146361817Y-123332500D01*
X146500183Y-123332500D01*
X146633836Y-123296688D01*
X146753665Y-123227505D01*
X146851505Y-123129665D01*
X146920688Y-123009836D01*
X146956500Y-122876183D01*
X146956500Y-122737817D01*
X146920688Y-122604164D01*
X146851505Y-122484335D01*
X146753665Y-122386495D01*
X146753662Y-122386493D01*
X146633835Y-122317311D01*
X146500183Y-122281500D01*
X146361817Y-122281500D01*
X146228164Y-122317311D01*
X146108337Y-122386493D01*
X146010493Y-122484337D01*
X145941311Y-122604164D01*
X145905500Y-122737817D01*
X141203500Y-122737817D01*
X141203500Y-118419817D01*
X143492500Y-118419817D01*
X143492500Y-118558183D01*
X143492803Y-118559312D01*
X143528311Y-118691835D01*
X143595680Y-118808522D01*
X143597495Y-118811665D01*
X143695335Y-118909505D01*
X143815164Y-118978688D01*
X143923328Y-119007670D01*
X143979826Y-119044360D01*
X144003968Y-119107251D01*
X144004117Y-119112956D01*
X144004117Y-119118183D01*
X144009065Y-119136649D01*
X144039928Y-119251835D01*
X144109110Y-119371662D01*
X144109112Y-119371665D01*
X144206952Y-119469505D01*
X144326781Y-119538688D01*
X144460434Y-119574500D01*
X144598800Y-119574500D01*
X144732453Y-119538688D01*
X144852282Y-119469505D01*
X144950122Y-119371665D01*
X145019305Y-119251836D01*
X145055117Y-119118183D01*
X145055117Y-118979817D01*
X145019305Y-118846164D01*
X144950122Y-118726335D01*
X144852282Y-118628495D01*
X144831537Y-118616518D01*
X144732453Y-118559312D01*
X144624288Y-118530329D01*
X144567791Y-118493639D01*
X144543649Y-118430747D01*
X144543500Y-118425043D01*
X144543500Y-118419817D01*
X144507688Y-118286164D01*
X144438506Y-118166337D01*
X144438505Y-118166335D01*
X144340665Y-118068495D01*
X144340662Y-118068493D01*
X144220835Y-117999311D01*
X144087183Y-117963500D01*
X143948817Y-117963500D01*
X143815164Y-117999311D01*
X143695337Y-118068493D01*
X143597493Y-118166337D01*
X143528311Y-118286164D01*
X143503303Y-118379500D01*
X143492500Y-118419817D01*
X141203500Y-118419817D01*
X141203500Y-112497537D01*
X141224317Y-112433468D01*
X141278817Y-112393872D01*
X141340710Y-112392251D01*
X141408817Y-112410500D01*
X141547183Y-112410500D01*
X141615289Y-112392251D01*
X141682562Y-112395777D01*
X141734915Y-112438171D01*
X141752500Y-112497537D01*
X141752500Y-114758539D01*
X141752500Y-114853461D01*
X141777067Y-114945148D01*
X141777066Y-114945148D01*
X141806272Y-114995732D01*
X141824528Y-115027352D01*
X141936576Y-115139400D01*
X141967158Y-115199422D01*
X141968500Y-115216473D01*
X141968500Y-115256182D01*
X142004311Y-115389835D01*
X142042123Y-115455327D01*
X142073495Y-115509665D01*
X142171335Y-115607505D01*
X142291164Y-115676688D01*
X142424817Y-115712500D01*
X142563183Y-115712500D01*
X142696836Y-115676688D01*
X142816665Y-115607505D01*
X142914505Y-115509665D01*
X142983688Y-115389836D01*
X143019500Y-115256183D01*
X143019500Y-115117817D01*
X143017727Y-115111200D01*
X143021249Y-115043928D01*
X143063640Y-114991573D01*
X143128710Y-114974134D01*
X143191602Y-114998272D01*
X143200085Y-115005910D01*
X143460574Y-115266398D01*
X143491158Y-115326421D01*
X143492500Y-115343473D01*
X143492500Y-115383183D01*
X143494283Y-115389836D01*
X143528311Y-115516835D01*
X143580660Y-115607506D01*
X143597495Y-115636665D01*
X143695335Y-115734505D01*
X143815164Y-115803688D01*
X143948817Y-115839500D01*
X144087183Y-115839500D01*
X144220836Y-115803688D01*
X144340665Y-115734505D01*
X144438505Y-115636665D01*
X144507688Y-115516836D01*
X144543500Y-115383183D01*
X144543500Y-115244817D01*
X144508812Y-115115358D01*
X144512338Y-115048085D01*
X144554733Y-114995732D01*
X144559580Y-114992761D01*
X144594665Y-114972505D01*
X144692505Y-114874665D01*
X144761688Y-114754836D01*
X144797500Y-114621183D01*
X144797500Y-114482817D01*
X144761688Y-114349164D01*
X144692505Y-114229335D01*
X144594665Y-114131495D01*
X144594662Y-114131493D01*
X144594659Y-114131490D01*
X144593336Y-114130475D01*
X144592659Y-114129490D01*
X144589613Y-114126444D01*
X144590177Y-114125879D01*
X144555180Y-114074958D01*
X144556943Y-114007615D01*
X144590073Y-113962016D01*
X144589613Y-113961556D01*
X144592517Y-113958651D01*
X144593336Y-113957525D01*
X144594659Y-113956509D01*
X144594660Y-113956507D01*
X144594665Y-113956505D01*
X144692505Y-113858665D01*
X144761688Y-113738836D01*
X144797500Y-113605183D01*
X144797500Y-113466817D01*
X144761688Y-113333164D01*
X144692505Y-113213335D01*
X144594665Y-113115495D01*
X144594662Y-113115493D01*
X144474835Y-113046311D01*
X144341183Y-113010500D01*
X144202817Y-113010500D01*
X144069164Y-113046311D01*
X143949337Y-113115493D01*
X143851493Y-113213337D01*
X143782311Y-113333164D01*
X143746500Y-113466817D01*
X143746500Y-113605182D01*
X143782311Y-113738835D01*
X143851493Y-113858662D01*
X143851495Y-113858665D01*
X143949335Y-113956505D01*
X143949337Y-113956506D01*
X143949340Y-113956509D01*
X143950669Y-113957529D01*
X143951347Y-113958516D01*
X143954387Y-113961556D01*
X143953823Y-113962119D01*
X143988822Y-114013050D01*
X143987053Y-114080392D01*
X143953928Y-114125985D01*
X143954387Y-114126444D01*
X143951489Y-114129341D01*
X143950669Y-114130471D01*
X143949340Y-114131490D01*
X143851493Y-114229337D01*
X143782308Y-114349169D01*
X143780496Y-114353545D01*
X143736740Y-114404766D01*
X143671234Y-114420486D01*
X143608999Y-114394700D01*
X143602722Y-114388898D01*
X143521425Y-114307601D01*
X143490842Y-114247577D01*
X143489500Y-114230526D01*
X143489500Y-109910817D01*
X144127500Y-109910817D01*
X144127500Y-110049183D01*
X144129680Y-110057319D01*
X144163311Y-110182835D01*
X144232493Y-110302662D01*
X144232495Y-110302665D01*
X144330335Y-110400505D01*
X144450164Y-110469688D01*
X144583817Y-110505500D01*
X144722183Y-110505500D01*
X144855836Y-110469688D01*
X144975665Y-110400505D01*
X145073505Y-110302665D01*
X145142688Y-110182836D01*
X145178500Y-110049183D01*
X145178500Y-109910817D01*
X145142688Y-109777164D01*
X145073505Y-109657335D01*
X144975665Y-109559495D01*
X144975662Y-109559493D01*
X144855835Y-109490311D01*
X144722183Y-109454500D01*
X144583817Y-109454500D01*
X144450164Y-109490311D01*
X144330337Y-109559493D01*
X144232493Y-109657337D01*
X144163311Y-109777164D01*
X144153038Y-109815506D01*
X144127500Y-109910817D01*
X143489500Y-109910817D01*
X143489500Y-100541817D01*
X145112500Y-100541817D01*
X145112500Y-100680182D01*
X145148311Y-100813835D01*
X145217493Y-100933662D01*
X145217495Y-100933665D01*
X145315335Y-101031505D01*
X145435164Y-101100688D01*
X145568817Y-101136500D01*
X145707183Y-101136500D01*
X145840836Y-101100688D01*
X145960665Y-101031505D01*
X146058505Y-100933665D01*
X146114103Y-100837365D01*
X146164165Y-100792289D01*
X146231162Y-100785247D01*
X146289502Y-100818929D01*
X146316903Y-100880471D01*
X146317500Y-100891865D01*
X146317500Y-101734918D01*
X146346342Y-101879913D01*
X146346343Y-101879915D01*
X146402914Y-102016491D01*
X146402916Y-102016496D01*
X146414629Y-102034025D01*
X146485049Y-102139416D01*
X146589584Y-102243951D01*
X146651044Y-102285017D01*
X146712503Y-102326083D01*
X146712504Y-102326083D01*
X146712505Y-102326084D01*
X146849087Y-102382658D01*
X146994082Y-102411500D01*
X146994086Y-102411500D01*
X147141914Y-102411500D01*
X147141918Y-102411500D01*
X147286913Y-102382658D01*
X147423495Y-102326084D01*
X147546416Y-102243951D01*
X147650951Y-102139416D01*
X147733084Y-102016495D01*
X147789658Y-101879913D01*
X147818500Y-101734918D01*
X147818500Y-100487082D01*
X147789658Y-100342087D01*
X147733084Y-100205505D01*
X147723053Y-100190493D01*
X147650952Y-100082586D01*
X147650951Y-100082584D01*
X147546416Y-99978049D01*
X147546412Y-99978046D01*
X147546411Y-99978045D01*
X147471943Y-99928287D01*
X147430237Y-99875383D01*
X147423500Y-99837657D01*
X147423500Y-98054341D01*
X147444317Y-97990272D01*
X147471940Y-97963713D01*
X147546416Y-97913951D01*
X147650951Y-97809416D01*
X147733084Y-97686495D01*
X147789658Y-97549913D01*
X147818500Y-97404918D01*
X147818500Y-96457082D01*
X147789658Y-96312087D01*
X147733084Y-96175505D01*
X147650951Y-96052584D01*
X147546416Y-95948049D01*
X147534096Y-95939817D01*
X147423496Y-95865916D01*
X147423491Y-95865914D01*
X147286915Y-95809343D01*
X147286916Y-95809343D01*
X147286913Y-95809342D01*
X147141918Y-95780500D01*
X146994082Y-95780500D01*
X146849087Y-95809342D01*
X146849085Y-95809342D01*
X146849084Y-95809343D01*
X146712508Y-95865914D01*
X146712503Y-95865916D01*
X146589586Y-95948047D01*
X146485047Y-96052586D01*
X146402916Y-96175503D01*
X146402914Y-96175508D01*
X146346343Y-96312084D01*
X146346342Y-96312087D01*
X146317500Y-96457082D01*
X146317500Y-97404918D01*
X146346342Y-97549913D01*
X146346343Y-97549915D01*
X146402914Y-97686491D01*
X146402916Y-97686496D01*
X146419013Y-97710586D01*
X146485049Y-97809416D01*
X146589584Y-97913951D01*
X146664057Y-97963712D01*
X146705763Y-98016613D01*
X146712500Y-98054341D01*
X146712500Y-99837657D01*
X146691683Y-99901726D01*
X146664057Y-99928287D01*
X146589588Y-99978045D01*
X146485047Y-100082586D01*
X146402916Y-100205503D01*
X146402914Y-100205508D01*
X146346343Y-100342084D01*
X146346339Y-100342096D01*
X146336626Y-100390928D01*
X146303710Y-100449704D01*
X146242532Y-100477907D01*
X146176461Y-100464764D01*
X146130733Y-100415295D01*
X146129019Y-100411376D01*
X146127689Y-100408167D01*
X146127688Y-100408166D01*
X146127688Y-100408164D01*
X146058505Y-100288335D01*
X145960665Y-100190495D01*
X145889128Y-100149193D01*
X145840835Y-100121311D01*
X145707183Y-100085500D01*
X145568817Y-100085500D01*
X145435164Y-100121311D01*
X145315337Y-100190493D01*
X145217493Y-100288337D01*
X145148311Y-100408164D01*
X145112500Y-100541817D01*
X143489500Y-100541817D01*
X143489500Y-95964539D01*
X143464933Y-95872852D01*
X143464932Y-95872851D01*
X143464933Y-95872851D01*
X143447560Y-95842762D01*
X143417472Y-95790648D01*
X143407324Y-95780500D01*
X143350352Y-95723527D01*
X143350352Y-95723528D01*
X142842352Y-95215528D01*
X142760148Y-95168067D01*
X142668461Y-95143500D01*
X132125461Y-95143500D01*
X132030539Y-95143500D01*
X131938851Y-95168067D01*
X131856649Y-95215527D01*
X131454601Y-95617575D01*
X131394577Y-95648158D01*
X131377526Y-95649500D01*
X129479500Y-95649500D01*
X129415431Y-95628683D01*
X129375835Y-95574183D01*
X129370500Y-95540500D01*
X129370500Y-95135329D01*
X129370500Y-95135326D01*
X129361292Y-95089034D01*
X129359198Y-95067770D01*
X129359198Y-94722000D01*
X129380015Y-94657931D01*
X129434515Y-94618335D01*
X129468198Y-94613000D01*
X155595923Y-94613000D01*
X155659992Y-94633817D01*
G37*
%TD.AperFunction*%
%TA.AperFunction,Conductor*%
G36*
X146422077Y-109990138D02*
G01*
X146461099Y-110002817D01*
X146461100Y-110002819D01*
X146461102Y-110002820D01*
X146465783Y-110009264D01*
X146500695Y-110057317D01*
X146500695Y-110057319D01*
X146500696Y-110057321D01*
X146500695Y-110091000D01*
X146500695Y-110124683D01*
X146500694Y-110124684D01*
X146500694Y-110124687D01*
X146494696Y-110132940D01*
X146492874Y-110156096D01*
X146924047Y-110587270D01*
X146870993Y-110617901D01*
X146777901Y-110710993D01*
X146747269Y-110764047D01*
X146316095Y-110332873D01*
X146274053Y-110336183D01*
X146208548Y-110320457D01*
X146164797Y-110269232D01*
X146156500Y-110227519D01*
X146156500Y-110091000D01*
X146177317Y-110026931D01*
X146231817Y-109987335D01*
X146265500Y-109982000D01*
X146397034Y-109982000D01*
X146422077Y-109990138D01*
G37*
%TD.AperFunction*%
%TA.AperFunction,Conductor*%
G36*
X155641013Y-99967817D02*
G01*
X155680609Y-100022317D01*
X155680609Y-100089683D01*
X155641013Y-100144183D01*
X155633891Y-100148941D01*
X155633479Y-100149193D01*
X155524874Y-100228096D01*
X155776455Y-100479678D01*
X155780848Y-100833313D01*
X155779269Y-100836047D01*
X155348096Y-100404874D01*
X155269193Y-100513478D01*
X155190588Y-100667751D01*
X155137086Y-100832411D01*
X155110000Y-101003427D01*
X155110000Y-101176572D01*
X155137086Y-101347588D01*
X155190588Y-101512248D01*
X155269196Y-101666524D01*
X155348096Y-101775124D01*
X155779268Y-101343950D01*
X155787366Y-101357976D01*
X155791433Y-101685341D01*
X155524874Y-101951901D01*
X155633476Y-102030804D01*
X155633898Y-102031063D01*
X155634005Y-102031189D01*
X155636940Y-102033321D01*
X155636428Y-102034025D01*
X155677648Y-102082289D01*
X155682933Y-102149447D01*
X155647734Y-102206885D01*
X155585496Y-102232664D01*
X155576945Y-102233000D01*
X155194000Y-102233000D01*
X155194000Y-102233001D01*
X155194000Y-103178371D01*
X155188665Y-103212054D01*
X155136598Y-103372295D01*
X155109500Y-103543387D01*
X155109500Y-103716612D01*
X155136598Y-103887704D01*
X155188665Y-104047946D01*
X155194000Y-104081629D01*
X155194000Y-105718371D01*
X155188665Y-105752054D01*
X155136598Y-105912295D01*
X155109500Y-106083387D01*
X155109500Y-106256612D01*
X155136598Y-106427704D01*
X155188665Y-106587946D01*
X155194000Y-106621629D01*
X155194000Y-108258371D01*
X155189565Y-108289148D01*
X155189137Y-108290599D01*
X155136598Y-108452299D01*
X155130834Y-108488684D01*
X155128843Y-108495451D01*
X155113602Y-108517707D01*
X155101353Y-108541749D01*
X154736138Y-108906965D01*
X154676115Y-108937548D01*
X154609578Y-108927010D01*
X154561943Y-108879375D01*
X154550063Y-108829890D01*
X154550063Y-104054819D01*
X154570880Y-103990750D01*
X154581982Y-103977750D01*
X154605068Y-103954665D01*
X154674251Y-103834836D01*
X154710063Y-103701183D01*
X154710063Y-103562817D01*
X154674251Y-103429164D01*
X154605068Y-103309335D01*
X154605067Y-103309334D01*
X154581987Y-103286253D01*
X154551405Y-103226229D01*
X154550063Y-103209180D01*
X154550063Y-100771982D01*
X154570880Y-100707913D01*
X154581988Y-100694907D01*
X155297970Y-99978925D01*
X155357994Y-99948342D01*
X155375045Y-99947000D01*
X155576944Y-99947000D01*
X155641013Y-99967817D01*
G37*
%TD.AperFunction*%
%TD*%
M02*
