%TF.GenerationSoftware,KiCad,Pcbnew,9.0.4*%
%TF.CreationDate,2025-09-10T14:26:53+01:00*%
%TF.ProjectId,MicroPython,4d696372-6f50-4797-9468-6f6e2e6b6963,rev?*%
%TF.SameCoordinates,Original*%
%TF.FileFunction,Legend,Bot*%
%TF.FilePolarity,Positive*%
%FSLAX46Y46*%
G04 Gerber Fmt 4.6, Leading zero omitted, Abs format (unit mm)*
G04 Created by KiCad (PCBNEW 9.0.4) date 2025-09-10 14:26:53*
%MOMM*%
%LPD*%
G01*
G04 APERTURE LIST*
%ADD10C,0.150000*%
%ADD11C,1.700000*%
%ADD12R,1.700000X1.700000*%
%ADD13O,1.000000X1.800000*%
%ADD14O,1.000000X2.100000*%
%ADD15C,0.650000*%
%TA.AperFunction,Profile*%
%ADD16C,0.230000*%
%TD*%
G04 APERTURE END LIST*
D10*
X143636190Y-135199819D02*
X143636190Y-134199819D01*
X143636190Y-134199819D02*
X143302857Y-134914104D01*
X143302857Y-134914104D02*
X142969524Y-134199819D01*
X142969524Y-134199819D02*
X142969524Y-135199819D01*
X142493333Y-135199819D02*
X142493333Y-134533152D01*
X142493333Y-134199819D02*
X142540952Y-134247438D01*
X142540952Y-134247438D02*
X142493333Y-134295057D01*
X142493333Y-134295057D02*
X142445714Y-134247438D01*
X142445714Y-134247438D02*
X142493333Y-134199819D01*
X142493333Y-134199819D02*
X142493333Y-134295057D01*
X141588572Y-135152200D02*
X141683810Y-135199819D01*
X141683810Y-135199819D02*
X141874286Y-135199819D01*
X141874286Y-135199819D02*
X141969524Y-135152200D01*
X141969524Y-135152200D02*
X142017143Y-135104580D01*
X142017143Y-135104580D02*
X142064762Y-135009342D01*
X142064762Y-135009342D02*
X142064762Y-134723628D01*
X142064762Y-134723628D02*
X142017143Y-134628390D01*
X142017143Y-134628390D02*
X141969524Y-134580771D01*
X141969524Y-134580771D02*
X141874286Y-134533152D01*
X141874286Y-134533152D02*
X141683810Y-134533152D01*
X141683810Y-134533152D02*
X141588572Y-134580771D01*
X141160000Y-135199819D02*
X141160000Y-134533152D01*
X141160000Y-134723628D02*
X141112381Y-134628390D01*
X141112381Y-134628390D02*
X141064762Y-134580771D01*
X141064762Y-134580771D02*
X140969524Y-134533152D01*
X140969524Y-134533152D02*
X140874286Y-134533152D01*
X140398095Y-135199819D02*
X140493333Y-135152200D01*
X140493333Y-135152200D02*
X140540952Y-135104580D01*
X140540952Y-135104580D02*
X140588571Y-135009342D01*
X140588571Y-135009342D02*
X140588571Y-134723628D01*
X140588571Y-134723628D02*
X140540952Y-134628390D01*
X140540952Y-134628390D02*
X140493333Y-134580771D01*
X140493333Y-134580771D02*
X140398095Y-134533152D01*
X140398095Y-134533152D02*
X140255238Y-134533152D01*
X140255238Y-134533152D02*
X140160000Y-134580771D01*
X140160000Y-134580771D02*
X140112381Y-134628390D01*
X140112381Y-134628390D02*
X140064762Y-134723628D01*
X140064762Y-134723628D02*
X140064762Y-135009342D01*
X140064762Y-135009342D02*
X140112381Y-135104580D01*
X140112381Y-135104580D02*
X140160000Y-135152200D01*
X140160000Y-135152200D02*
X140255238Y-135199819D01*
X140255238Y-135199819D02*
X140398095Y-135199819D01*
X139636190Y-135199819D02*
X139636190Y-134199819D01*
X139636190Y-134199819D02*
X139255238Y-134199819D01*
X139255238Y-134199819D02*
X139160000Y-134247438D01*
X139160000Y-134247438D02*
X139112381Y-134295057D01*
X139112381Y-134295057D02*
X139064762Y-134390295D01*
X139064762Y-134390295D02*
X139064762Y-134533152D01*
X139064762Y-134533152D02*
X139112381Y-134628390D01*
X139112381Y-134628390D02*
X139160000Y-134676009D01*
X139160000Y-134676009D02*
X139255238Y-134723628D01*
X139255238Y-134723628D02*
X139636190Y-134723628D01*
X138731428Y-134533152D02*
X138493333Y-135199819D01*
X138255238Y-134533152D02*
X138493333Y-135199819D01*
X138493333Y-135199819D02*
X138588571Y-135437914D01*
X138588571Y-135437914D02*
X138636190Y-135485533D01*
X138636190Y-135485533D02*
X138731428Y-135533152D01*
X138017142Y-134533152D02*
X137636190Y-134533152D01*
X137874285Y-134199819D02*
X137874285Y-135056961D01*
X137874285Y-135056961D02*
X137826666Y-135152200D01*
X137826666Y-135152200D02*
X137731428Y-135199819D01*
X137731428Y-135199819D02*
X137636190Y-135199819D01*
X137302856Y-135199819D02*
X137302856Y-134199819D01*
X136874285Y-135199819D02*
X136874285Y-134676009D01*
X136874285Y-134676009D02*
X136921904Y-134580771D01*
X136921904Y-134580771D02*
X137017142Y-134533152D01*
X137017142Y-134533152D02*
X137159999Y-134533152D01*
X137159999Y-134533152D02*
X137255237Y-134580771D01*
X137255237Y-134580771D02*
X137302856Y-134628390D01*
X136255237Y-135199819D02*
X136350475Y-135152200D01*
X136350475Y-135152200D02*
X136398094Y-135104580D01*
X136398094Y-135104580D02*
X136445713Y-135009342D01*
X136445713Y-135009342D02*
X136445713Y-134723628D01*
X136445713Y-134723628D02*
X136398094Y-134628390D01*
X136398094Y-134628390D02*
X136350475Y-134580771D01*
X136350475Y-134580771D02*
X136255237Y-134533152D01*
X136255237Y-134533152D02*
X136112380Y-134533152D01*
X136112380Y-134533152D02*
X136017142Y-134580771D01*
X136017142Y-134580771D02*
X135969523Y-134628390D01*
X135969523Y-134628390D02*
X135921904Y-134723628D01*
X135921904Y-134723628D02*
X135921904Y-135009342D01*
X135921904Y-135009342D02*
X135969523Y-135104580D01*
X135969523Y-135104580D02*
X136017142Y-135152200D01*
X136017142Y-135152200D02*
X136112380Y-135199819D01*
X136112380Y-135199819D02*
X136255237Y-135199819D01*
X135493332Y-134533152D02*
X135493332Y-135199819D01*
X135493332Y-134628390D02*
X135445713Y-134580771D01*
X135445713Y-134580771D02*
X135350475Y-134533152D01*
X135350475Y-134533152D02*
X135207618Y-134533152D01*
X135207618Y-134533152D02*
X135112380Y-134580771D01*
X135112380Y-134580771D02*
X135064761Y-134676009D01*
X135064761Y-134676009D02*
X135064761Y-135199819D01*
X133921903Y-134533152D02*
X133683808Y-135199819D01*
X133683808Y-135199819D02*
X133445713Y-134533152D01*
X133064760Y-135104580D02*
X133017141Y-135152200D01*
X133017141Y-135152200D02*
X133064760Y-135199819D01*
X133064760Y-135199819D02*
X133112379Y-135152200D01*
X133112379Y-135152200D02*
X133064760Y-135104580D01*
X133064760Y-135104580D02*
X133064760Y-135199819D01*
X132064761Y-135199819D02*
X132636189Y-135199819D01*
X132350475Y-135199819D02*
X132350475Y-134199819D01*
X132350475Y-134199819D02*
X132445713Y-134342676D01*
X132445713Y-134342676D02*
X132540951Y-134437914D01*
X132540951Y-134437914D02*
X132636189Y-134485533D01*
X131636189Y-135104580D02*
X131588570Y-135152200D01*
X131588570Y-135152200D02*
X131636189Y-135199819D01*
X131636189Y-135199819D02*
X131683808Y-135152200D01*
X131683808Y-135152200D02*
X131636189Y-135104580D01*
X131636189Y-135104580D02*
X131636189Y-135199819D01*
X130969523Y-134199819D02*
X130874285Y-134199819D01*
X130874285Y-134199819D02*
X130779047Y-134247438D01*
X130779047Y-134247438D02*
X130731428Y-134295057D01*
X130731428Y-134295057D02*
X130683809Y-134390295D01*
X130683809Y-134390295D02*
X130636190Y-134580771D01*
X130636190Y-134580771D02*
X130636190Y-134818866D01*
X130636190Y-134818866D02*
X130683809Y-135009342D01*
X130683809Y-135009342D02*
X130731428Y-135104580D01*
X130731428Y-135104580D02*
X130779047Y-135152200D01*
X130779047Y-135152200D02*
X130874285Y-135199819D01*
X130874285Y-135199819D02*
X130969523Y-135199819D01*
X130969523Y-135199819D02*
X131064761Y-135152200D01*
X131064761Y-135152200D02*
X131112380Y-135104580D01*
X131112380Y-135104580D02*
X131159999Y-135009342D01*
X131159999Y-135009342D02*
X131207618Y-134818866D01*
X131207618Y-134818866D02*
X131207618Y-134580771D01*
X131207618Y-134580771D02*
X131159999Y-134390295D01*
X131159999Y-134390295D02*
X131112380Y-134295057D01*
X131112380Y-134295057D02*
X131064761Y-134247438D01*
X131064761Y-134247438D02*
X130969523Y-134199819D01*
%LPC*%
D11*
%TO.C,J9*%
X128270000Y-134112000D03*
X128270000Y-131572000D03*
X128270000Y-129032000D03*
X128270000Y-126492000D03*
X128270000Y-123952000D03*
X128270000Y-121412000D03*
X128270000Y-118872000D03*
X128270000Y-116332000D03*
X128270000Y-113792000D03*
X128270000Y-111252000D03*
X128270000Y-108712000D03*
X128270000Y-106172000D03*
X128270000Y-103632000D03*
X128270000Y-101092000D03*
X128270000Y-98552000D03*
D12*
X128270000Y-96012000D03*
%TD*%
D11*
%TO.C,J1*%
X156210000Y-134112000D03*
X156210000Y-131572000D03*
X156210000Y-129032000D03*
X156210000Y-126492000D03*
X156210000Y-123952000D03*
X156210000Y-121412000D03*
X156210000Y-118872000D03*
X156210000Y-116332000D03*
X156210000Y-113792000D03*
X156210000Y-111252000D03*
X156210000Y-108712000D03*
X156210000Y-106172000D03*
X156210000Y-103632000D03*
X156210000Y-101092000D03*
X156210000Y-98552000D03*
D12*
X156210000Y-96012000D03*
%TD*%
D13*
%TO.C,J10*%
X138428000Y-96931000D03*
D14*
X138428000Y-101111000D03*
D13*
X147068000Y-96931000D03*
D14*
X147068000Y-101111000D03*
D15*
X139858000Y-100611000D03*
X145638000Y-100611000D03*
%TD*%
D12*
%TO.C,J8*%
X152258000Y-111018000D03*
D11*
X152258000Y-108478000D03*
X149718000Y-111018000D03*
X149718000Y-108478000D03*
X147178000Y-111018000D03*
X147178000Y-108478000D03*
%TD*%
%LPD*%
D16*
X125730000Y-94232000D02*
X158750000Y-94232000D01*
X158750000Y-136142000D01*
X125730000Y-136142000D01*
X125730000Y-94232000D01*
M02*
