%TF.GenerationSoftware,KiCad,Pcbnew,9.0.4*%
%TF.CreationDate,2025-09-10T14:27:09+01:00*%
%TF.ProjectId,MicroPython,4d696372-6f50-4797-9468-6f6e2e6b6963,rev?*%
%TF.SameCoordinates,Original*%
%TF.FileFunction,Drillmap*%
%TF.FilePolarity,Positive*%
%FSLAX45Y45*%
G04 Gerber Fmt 4.5, Leading zero omitted, Abs format (unit mm)*
G04 Created by KiCad (PCBNEW 9.0.4) date 2025-09-10 14:27:09*
%MOMM*%
%LPD*%
G01*
G04 APERTURE LIST*
%ADD10C,0.230000*%
%ADD11C,0.200000*%
%ADD12C,0.100000*%
G04 APERTURE END LIST*
D10*
X12573000Y-9423200D02*
X15875000Y-9423200D01*
X15875000Y-13614200D01*
X12573000Y-13614200D01*
X12573000Y-9423200D01*
D11*
D12*
X12968400Y-10479200D02*
X12990400Y-10501200D01*
X12990400Y-10479200D02*
X12968400Y-10501200D01*
X12968400Y-11190400D02*
X12990400Y-11212400D01*
X12990400Y-11190400D02*
X12968400Y-11212400D01*
X12968400Y-11787300D02*
X12990400Y-11809300D01*
X12990400Y-11787300D02*
X12968400Y-11809300D01*
X12981100Y-10225200D02*
X13003100Y-10247200D01*
X13003100Y-10225200D02*
X12981100Y-10247200D01*
X12981100Y-12015900D02*
X13003100Y-12037900D01*
X13003100Y-12015900D02*
X12981100Y-12037900D01*
X12981100Y-13070000D02*
X13003100Y-13092000D01*
X13003100Y-13070000D02*
X12981100Y-13092000D01*
X12993800Y-12485800D02*
X13015800Y-12507800D01*
X13015800Y-12485800D02*
X12993800Y-12507800D01*
X12993800Y-13412900D02*
X13015800Y-13434900D01*
X13015800Y-13412900D02*
X12993800Y-13434900D01*
X13019200Y-11457100D02*
X13041200Y-11479100D01*
X13041200Y-11457100D02*
X13019200Y-11479100D01*
X13120800Y-9501300D02*
X13142800Y-9523300D01*
X13142800Y-9501300D02*
X13120800Y-9523300D01*
X13171600Y-12879500D02*
X13193600Y-12901500D01*
X13193600Y-12879500D02*
X13171600Y-12901500D01*
X13176344Y-12434800D02*
X13198344Y-12456800D01*
X13198344Y-12434800D02*
X13176344Y-12456800D01*
X13222400Y-10047400D02*
X13244400Y-10069400D01*
X13244400Y-10047400D02*
X13222400Y-10069400D01*
X13235100Y-9755300D02*
X13257100Y-9777300D01*
X13257100Y-9755300D02*
X13235100Y-9777300D01*
X13285900Y-11292000D02*
X13307900Y-11314000D01*
X13307900Y-11292000D02*
X13285900Y-11314000D01*
X13302943Y-12095157D02*
X13324943Y-12117157D01*
X13324943Y-12095157D02*
X13302943Y-12117157D01*
X13446000Y-12067867D02*
X13468000Y-12089867D01*
X13468000Y-12067867D02*
X13446000Y-12089867D01*
X13451000Y-12142700D02*
X13473000Y-12164700D01*
X13473000Y-12142700D02*
X13451000Y-12164700D01*
X13451000Y-12339700D02*
X13473000Y-12361700D01*
X13473000Y-12339700D02*
X13451000Y-12361700D01*
X13463700Y-12511200D02*
X13485700Y-12533200D01*
X13485700Y-12511200D02*
X13463700Y-12533200D01*
X13489100Y-10047400D02*
X13511100Y-10069400D01*
X13511100Y-10047400D02*
X13489100Y-10069400D01*
X13508983Y-10860200D02*
X13530983Y-10882200D01*
X13530983Y-10860200D02*
X13508983Y-10882200D01*
X13508983Y-11850600D02*
X13530983Y-11872600D01*
X13530983Y-11850600D02*
X13508983Y-11872600D01*
X13514500Y-11952400D02*
X13536500Y-11974400D01*
X13536500Y-11952400D02*
X13514500Y-11974400D01*
X13527200Y-11190400D02*
X13549200Y-11212400D01*
X13549200Y-11190400D02*
X13527200Y-11212400D01*
X13539900Y-10745900D02*
X13561900Y-10767900D01*
X13561900Y-10745900D02*
X13539900Y-10767900D01*
X13539900Y-11634900D02*
X13561900Y-11656900D01*
X13561900Y-11634900D02*
X13539900Y-11656900D01*
X13565300Y-10352200D02*
X13587300Y-10374200D01*
X13587300Y-10352200D02*
X13565300Y-10374200D01*
X13578000Y-10199800D02*
X13600000Y-10221800D01*
X13600000Y-10199800D02*
X13578000Y-10221800D01*
X13578000Y-11431700D02*
X13600000Y-11453700D01*
X13600000Y-11431700D02*
X13578000Y-11453700D01*
X13616100Y-12739600D02*
X13638100Y-12761600D01*
X13638100Y-12739600D02*
X13616100Y-12761600D01*
X13643872Y-11220272D02*
X13665872Y-11242272D01*
X13665872Y-11220272D02*
X13643872Y-11242272D01*
X13647850Y-11507700D02*
X13669850Y-11529700D01*
X13669850Y-11507700D02*
X13647850Y-11529700D01*
X13647850Y-11736500D02*
X13669850Y-11758500D01*
X13669850Y-11736500D02*
X13647850Y-11758500D01*
X13647850Y-13317450D02*
X13669850Y-13339450D01*
X13669850Y-13317450D02*
X13647850Y-13339450D01*
X13648302Y-10125411D02*
X13670302Y-10147411D01*
X13670302Y-10125411D02*
X13648302Y-10147411D01*
X13717700Y-12841200D02*
X13739700Y-12863200D01*
X13739700Y-12841200D02*
X13717700Y-12863200D01*
X13730400Y-13133500D02*
X13752400Y-13155500D01*
X13752400Y-13133500D02*
X13730400Y-13155500D01*
X13779921Y-12488096D02*
X13801921Y-12510096D01*
X13801921Y-12488096D02*
X13779921Y-12510096D01*
X13806600Y-12320700D02*
X13828600Y-12342700D01*
X13828600Y-12320700D02*
X13806600Y-12342700D01*
X13844700Y-11088800D02*
X13866700Y-11110800D01*
X13866700Y-11088800D02*
X13844700Y-11110800D01*
X13844700Y-12562000D02*
X13866700Y-12584000D01*
X13866700Y-12562000D02*
X13844700Y-12584000D01*
X13857400Y-10720500D02*
X13879400Y-10742500D01*
X13879400Y-10720500D02*
X13857400Y-10742500D01*
X13857400Y-11977800D02*
X13879400Y-11999800D01*
X13879400Y-11977800D02*
X13857400Y-11999800D01*
X13867000Y-11893900D02*
X13889000Y-11915900D01*
X13889000Y-11893900D02*
X13867000Y-11915900D01*
X13896780Y-13083066D02*
X13918780Y-13105066D01*
X13918780Y-13083066D02*
X13896780Y-13105066D01*
X13920900Y-13438300D02*
X13942900Y-13460300D01*
X13942900Y-13438300D02*
X13920900Y-13460300D01*
X13971700Y-12320700D02*
X13993700Y-12342700D01*
X13993700Y-12320700D02*
X13971700Y-12342700D01*
X13997100Y-10301400D02*
X14019100Y-10323400D01*
X14019100Y-10301400D02*
X13997100Y-10323400D01*
X13997100Y-10530000D02*
X14019100Y-10552000D01*
X14019100Y-10530000D02*
X13997100Y-10552000D01*
X13997100Y-10847500D02*
X14019100Y-10869500D01*
X14019100Y-10847500D02*
X13997100Y-10869500D01*
X13997100Y-12104800D02*
X14019100Y-12126800D01*
X14019100Y-12104800D02*
X13997100Y-12126800D01*
X14073300Y-12600100D02*
X14095300Y-12622100D01*
X14095300Y-12600100D02*
X14073300Y-12622100D01*
X14098700Y-10771300D02*
X14120700Y-10793300D01*
X14120700Y-10771300D02*
X14098700Y-10793300D01*
X14136800Y-11076100D02*
X14158800Y-11098100D01*
X14158800Y-11076100D02*
X14136800Y-11098100D01*
X14136800Y-11177500D02*
X14158800Y-11199500D01*
X14158800Y-11177500D02*
X14136800Y-11199500D01*
X14162200Y-9653700D02*
X14184200Y-9675700D01*
X14184200Y-9653700D02*
X14162200Y-9675700D01*
X14162200Y-9844200D02*
X14184200Y-9866200D01*
X14184200Y-9844200D02*
X14162200Y-9866200D01*
X14162200Y-12066700D02*
X14184200Y-12088700D01*
X14184200Y-12066700D02*
X14162200Y-12088700D01*
X14213000Y-12917400D02*
X14235000Y-12939400D01*
X14235000Y-12917400D02*
X14213000Y-12939400D01*
X14238400Y-11507700D02*
X14260400Y-11529700D01*
X14260400Y-11507700D02*
X14238400Y-11529700D01*
X14263800Y-13235100D02*
X14285800Y-13257100D01*
X14285800Y-13235100D02*
X14263800Y-13257100D01*
X14289200Y-12562000D02*
X14311200Y-12584000D01*
X14311200Y-12562000D02*
X14289200Y-12584000D01*
X14378100Y-10606200D02*
X14400100Y-10628200D01*
X14400100Y-10606200D02*
X14378100Y-10628200D01*
X14378100Y-11177700D02*
X14400100Y-11199700D01*
X14400100Y-11177700D02*
X14378100Y-11199700D01*
X14390800Y-11520400D02*
X14412800Y-11542400D01*
X14412800Y-11520400D02*
X14390800Y-11542400D01*
X14390800Y-11837900D02*
X14412800Y-11859900D01*
X14412800Y-11837900D02*
X14390800Y-11859900D01*
X14416200Y-10987000D02*
X14438200Y-11009000D01*
X14438200Y-10987000D02*
X14416200Y-11009000D01*
X14416200Y-11342600D02*
X14438200Y-11364600D01*
X14438200Y-11342600D02*
X14416200Y-11364600D01*
X14416200Y-11444200D02*
X14438200Y-11466200D01*
X14438200Y-11444200D02*
X14416200Y-11466200D01*
X14440058Y-9512545D02*
X14462058Y-9534545D01*
X14462058Y-9512545D02*
X14440058Y-9534545D01*
X14441962Y-11893900D02*
X14463962Y-11915900D01*
X14463962Y-11893900D02*
X14441962Y-11915900D01*
X14486464Y-10860038D02*
X14508464Y-10882038D01*
X14508464Y-10860038D02*
X14486464Y-10882038D01*
X14505100Y-10936400D02*
X14527100Y-10958400D01*
X14527100Y-10936400D02*
X14505100Y-10958400D01*
X14505100Y-11952400D02*
X14527100Y-11974400D01*
X14527100Y-11952400D02*
X14505100Y-11974400D01*
X14505100Y-13247800D02*
X14527100Y-13269800D01*
X14527100Y-13247800D02*
X14505100Y-13269800D01*
X14517800Y-12079400D02*
X14539800Y-12101400D01*
X14539800Y-12079400D02*
X14517800Y-12101400D01*
X14543200Y-12409600D02*
X14565200Y-12431600D01*
X14565200Y-12409600D02*
X14543200Y-12431600D01*
X14568600Y-9882300D02*
X14590600Y-9904300D01*
X14590600Y-9882300D02*
X14568600Y-9904300D01*
X14568600Y-10555400D02*
X14590600Y-10577400D01*
X14590600Y-10555400D02*
X14568600Y-10577400D01*
X14601500Y-12015700D02*
X14623500Y-12037700D01*
X14623500Y-12015700D02*
X14601500Y-12037700D01*
X14622575Y-12101425D02*
X14644575Y-12123425D01*
X14644575Y-12101425D02*
X14622575Y-12123425D01*
X14632100Y-11876200D02*
X14654100Y-11898200D01*
X14654100Y-11876200D02*
X14632100Y-11898200D01*
X14632100Y-12269700D02*
X14654100Y-12291700D01*
X14654100Y-12269700D02*
X14632100Y-12291700D01*
X14632100Y-12422100D02*
X14654100Y-12444100D01*
X14654100Y-12422100D02*
X14632100Y-12444100D01*
X14639948Y-13179248D02*
X14661948Y-13201248D01*
X14661948Y-13179248D02*
X14639948Y-13201248D01*
X14644800Y-12531453D02*
X14666800Y-12553453D01*
X14666800Y-12531453D02*
X14644800Y-12553453D01*
X14670200Y-13019000D02*
X14692200Y-13041000D01*
X14692200Y-13019000D02*
X14670200Y-13041000D01*
X14670200Y-13107900D02*
X14692200Y-13129900D01*
X14692200Y-13107900D02*
X14670200Y-13129900D01*
X14682900Y-10314100D02*
X14704900Y-10336100D01*
X14704900Y-10314100D02*
X14682900Y-10336100D01*
X14682900Y-12828700D02*
X14704900Y-12850700D01*
X14704900Y-12828700D02*
X14682900Y-12850700D01*
X14696900Y-13325100D02*
X14718900Y-13347100D01*
X14718900Y-13325100D02*
X14696900Y-13347100D01*
X14784500Y-12663600D02*
X14806500Y-12685600D01*
X14806500Y-12663600D02*
X14784500Y-12685600D01*
X14784500Y-12752500D02*
X14806500Y-12774500D01*
X14806500Y-12752500D02*
X14784500Y-12774500D01*
X14784500Y-12904900D02*
X14806500Y-12926900D01*
X14806500Y-12904900D02*
X14784500Y-12926900D01*
X14784500Y-13463700D02*
X14806500Y-13485700D01*
X14806500Y-13463700D02*
X14784500Y-13485700D01*
X14797200Y-10539900D02*
X14819200Y-10561900D01*
X14819200Y-10539900D02*
X14797200Y-10561900D01*
X14911500Y-12689000D02*
X14933500Y-12711000D01*
X14933500Y-12689000D02*
X14911500Y-12711000D01*
X14941788Y-12011872D02*
X14963788Y-12033872D01*
X14963788Y-12011872D02*
X14941788Y-12033872D01*
X14945996Y-11921049D02*
X14967996Y-11943049D01*
X14967996Y-11921049D02*
X14945996Y-11943049D01*
X14962300Y-11279300D02*
X14984300Y-11301300D01*
X14984300Y-11279300D02*
X14962300Y-11301300D01*
X14987700Y-12206400D02*
X15009700Y-12228400D01*
X15009700Y-12206400D02*
X14987700Y-12228400D01*
X15000400Y-11393600D02*
X15022400Y-11415600D01*
X15022400Y-11393600D02*
X15000400Y-11415600D01*
X15000400Y-12574500D02*
X15022400Y-12596500D01*
X15022400Y-12574500D02*
X15000400Y-12596500D01*
X15025800Y-9717200D02*
X15047800Y-9739200D01*
X15047800Y-9717200D02*
X15025800Y-9739200D01*
X15091868Y-12215353D02*
X15113868Y-12237353D01*
X15113868Y-12215353D02*
X15091868Y-12237353D01*
X15102000Y-12714400D02*
X15124000Y-12736400D01*
X15124000Y-12714400D02*
X15102000Y-12736400D01*
X15140100Y-12562000D02*
X15162100Y-12584000D01*
X15162100Y-12562000D02*
X15140100Y-12584000D01*
X15178200Y-9895000D02*
X15200200Y-9917000D01*
X15200200Y-9895000D02*
X15178200Y-9917000D01*
X15183399Y-11843720D02*
X15205399Y-11865720D01*
X15205399Y-11843720D02*
X15183399Y-11865720D01*
X15198600Y-12003200D02*
X15220600Y-12025200D01*
X15220600Y-12003200D02*
X15198600Y-12025200D01*
X15216300Y-12752500D02*
X15238300Y-12774500D01*
X15238300Y-12752500D02*
X15216300Y-12774500D01*
X15267100Y-10174400D02*
X15289100Y-10196400D01*
X15289100Y-10174400D02*
X15267100Y-10196400D01*
X15279800Y-12142900D02*
X15301800Y-12164900D01*
X15301800Y-12142900D02*
X15279800Y-12164900D01*
X15305200Y-10695100D02*
X15327200Y-10717100D01*
X15327200Y-10695100D02*
X15305200Y-10717100D01*
X15330600Y-9488600D02*
X15352600Y-9510600D01*
X15352600Y-9488600D02*
X15330600Y-9510600D01*
X15330600Y-11253900D02*
X15352600Y-11275900D01*
X15352600Y-11253900D02*
X15330600Y-11275900D01*
X15330600Y-11736500D02*
X15352600Y-11758500D01*
X15352600Y-11736500D02*
X15330600Y-11758500D01*
X15368700Y-12765200D02*
X15390700Y-12787200D01*
X15390700Y-12765200D02*
X15368700Y-12787200D01*
X15407456Y-10352200D02*
X15429456Y-10374200D01*
X15429456Y-10352200D02*
X15407456Y-10374200D01*
X15444900Y-12346100D02*
X15466900Y-12368100D01*
X15466900Y-12346100D02*
X15444900Y-12368100D01*
X15444900Y-12511200D02*
X15466900Y-12533200D01*
X15466900Y-12511200D02*
X15444900Y-12533200D01*
X15457600Y-9742600D02*
X15479600Y-9764600D01*
X15479600Y-9742600D02*
X15457600Y-9764600D01*
X15457600Y-11901600D02*
X15479600Y-11923600D01*
X15479600Y-11901600D02*
X15457600Y-11923600D01*
X15457600Y-13451000D02*
X15479600Y-13473000D01*
X15479600Y-13451000D02*
X15457600Y-13473000D01*
X15469956Y-10669700D02*
X15491956Y-10691700D01*
X15491956Y-10669700D02*
X15469956Y-10691700D01*
X15470300Y-11774600D02*
X15492300Y-11796600D01*
X15492300Y-11774600D02*
X15470300Y-11796600D01*
X15470300Y-12765200D02*
X15492300Y-12787200D01*
X15492300Y-12765200D02*
X15470300Y-12787200D01*
X13872800Y-9693100D02*
G75*
G02*
X13812800Y-9693100I-30000J0D01*
G01*
X13812800Y-9693100D02*
G75*
G02*
X13872800Y-9693100I30000J0D01*
G01*
X13872800Y-9733100D02*
X13872800Y-9653100D01*
X13812800Y-9653100D02*
G75*
G02*
X13872800Y-9653100I30000J0D01*
G01*
X13812800Y-9653100D02*
X13812800Y-9733100D01*
X13812800Y-9733100D02*
G75*
G03*
X13872800Y-9733100I30000J0D01*
G01*
X13872800Y-10111100D02*
G75*
G02*
X13812800Y-10111100I-30000J0D01*
G01*
X13812800Y-10111100D02*
G75*
G02*
X13872800Y-10111100I30000J0D01*
G01*
X13872800Y-10166100D02*
X13872800Y-10056100D01*
X13812800Y-10056100D02*
G75*
G02*
X13872800Y-10056100I30000J0D01*
G01*
X13812800Y-10056100D02*
X13812800Y-10166100D01*
X13812800Y-10166100D02*
G75*
G03*
X13872800Y-10166100I30000J0D01*
G01*
X14736800Y-9693100D02*
G75*
G02*
X14676800Y-9693100I-30000J0D01*
G01*
X14676800Y-9693100D02*
G75*
G02*
X14736800Y-9693100I30000J0D01*
G01*
X14736800Y-9733100D02*
X14736800Y-9653100D01*
X14676800Y-9653100D02*
G75*
G02*
X14736800Y-9653100I30000J0D01*
G01*
X14676800Y-9653100D02*
X14676800Y-9733100D01*
X14676800Y-9733100D02*
G75*
G03*
X14736800Y-9733100I30000J0D01*
G01*
X14736800Y-10111100D02*
G75*
G02*
X14676800Y-10111100I-30000J0D01*
G01*
X14676800Y-10111100D02*
G75*
G02*
X14736800Y-10111100I30000J0D01*
G01*
X14736800Y-10166100D02*
X14736800Y-10056100D01*
X14676800Y-10056100D02*
G75*
G02*
X14736800Y-10056100I30000J0D01*
G01*
X14676800Y-10056100D02*
X14676800Y-10166100D01*
X14676800Y-10166100D02*
G75*
G03*
X14736800Y-10166100I30000J0D01*
G01*
X12827000Y-9551200D02*
X12827000Y-9651200D01*
X12777000Y-9601200D02*
X12877000Y-9601200D01*
X12827000Y-9805200D02*
X12827000Y-9905200D01*
X12777000Y-9855200D02*
X12877000Y-9855200D01*
X12827000Y-10059200D02*
X12827000Y-10159200D01*
X12777000Y-10109200D02*
X12877000Y-10109200D01*
X12827000Y-10313200D02*
X12827000Y-10413200D01*
X12777000Y-10363200D02*
X12877000Y-10363200D01*
X12827000Y-10567200D02*
X12827000Y-10667200D01*
X12777000Y-10617200D02*
X12877000Y-10617200D01*
X12827000Y-10821200D02*
X12827000Y-10921200D01*
X12777000Y-10871200D02*
X12877000Y-10871200D01*
X12827000Y-11075200D02*
X12827000Y-11175200D01*
X12777000Y-11125200D02*
X12877000Y-11125200D01*
X12827000Y-11329200D02*
X12827000Y-11429200D01*
X12777000Y-11379200D02*
X12877000Y-11379200D01*
X12827000Y-11583200D02*
X12827000Y-11683200D01*
X12777000Y-11633200D02*
X12877000Y-11633200D01*
X12827000Y-11837200D02*
X12827000Y-11937200D01*
X12777000Y-11887200D02*
X12877000Y-11887200D01*
X12827000Y-12091200D02*
X12827000Y-12191200D01*
X12777000Y-12141200D02*
X12877000Y-12141200D01*
X12827000Y-12345200D02*
X12827000Y-12445200D01*
X12777000Y-12395200D02*
X12877000Y-12395200D01*
X12827000Y-12599200D02*
X12827000Y-12699200D01*
X12777000Y-12649200D02*
X12877000Y-12649200D01*
X12827000Y-12853200D02*
X12827000Y-12953200D01*
X12777000Y-12903200D02*
X12877000Y-12903200D01*
X12827000Y-13107200D02*
X12827000Y-13207200D01*
X12777000Y-13157200D02*
X12877000Y-13157200D01*
X12827000Y-13361200D02*
X12827000Y-13461200D01*
X12777000Y-13411200D02*
X12877000Y-13411200D01*
X14717800Y-10797800D02*
X14717800Y-10897800D01*
X14667800Y-10847800D02*
X14767800Y-10847800D01*
X14717800Y-11051800D02*
X14717800Y-11151800D01*
X14667800Y-11101800D02*
X14767800Y-11101800D01*
X14971800Y-10797800D02*
X14971800Y-10897800D01*
X14921800Y-10847800D02*
X15021800Y-10847800D01*
X14971800Y-11051800D02*
X14971800Y-11151800D01*
X14921800Y-11101800D02*
X15021800Y-11101800D01*
X15225800Y-10797800D02*
X15225800Y-10897800D01*
X15175800Y-10847800D02*
X15275800Y-10847800D01*
X15225800Y-11051800D02*
X15225800Y-11151800D01*
X15175800Y-11101800D02*
X15275800Y-11101800D01*
X15621000Y-9551200D02*
X15621000Y-9651200D01*
X15571000Y-9601200D02*
X15671000Y-9601200D01*
X15621000Y-9805200D02*
X15621000Y-9905200D01*
X15571000Y-9855200D02*
X15671000Y-9855200D01*
X15621000Y-10059200D02*
X15621000Y-10159200D01*
X15571000Y-10109200D02*
X15671000Y-10109200D01*
X15621000Y-10313200D02*
X15621000Y-10413200D01*
X15571000Y-10363200D02*
X15671000Y-10363200D01*
X15621000Y-10567200D02*
X15621000Y-10667200D01*
X15571000Y-10617200D02*
X15671000Y-10617200D01*
X15621000Y-10821200D02*
X15621000Y-10921200D01*
X15571000Y-10871200D02*
X15671000Y-10871200D01*
X15621000Y-11075200D02*
X15621000Y-11175200D01*
X15571000Y-11125200D02*
X15671000Y-11125200D01*
X15621000Y-11329200D02*
X15621000Y-11429200D01*
X15571000Y-11379200D02*
X15671000Y-11379200D01*
X15621000Y-11583200D02*
X15621000Y-11683200D01*
X15571000Y-11633200D02*
X15671000Y-11633200D01*
X15621000Y-11837200D02*
X15621000Y-11937200D01*
X15571000Y-11887200D02*
X15671000Y-11887200D01*
X15621000Y-12091200D02*
X15621000Y-12191200D01*
X15571000Y-12141200D02*
X15671000Y-12141200D01*
X15621000Y-12345200D02*
X15621000Y-12445200D01*
X15571000Y-12395200D02*
X15671000Y-12395200D01*
X15621000Y-12599200D02*
X15621000Y-12699200D01*
X15571000Y-12649200D02*
X15671000Y-12649200D01*
X15621000Y-12853200D02*
X15621000Y-12953200D01*
X15571000Y-12903200D02*
X15671000Y-12903200D01*
X15621000Y-13107200D02*
X15621000Y-13207200D01*
X15571000Y-13157200D02*
X15671000Y-13157200D01*
X15621000Y-13361200D02*
X15621000Y-13461200D01*
X15571000Y-13411200D02*
X15671000Y-13411200D01*
D11*
X12822277Y-13937184D02*
X12822277Y-13737184D01*
X12822277Y-13737184D02*
X12869896Y-13737184D01*
X12869896Y-13737184D02*
X12898467Y-13746708D01*
X12898467Y-13746708D02*
X12917515Y-13765755D01*
X12917515Y-13765755D02*
X12927039Y-13784803D01*
X12927039Y-13784803D02*
X12936562Y-13822898D01*
X12936562Y-13822898D02*
X12936562Y-13851469D01*
X12936562Y-13851469D02*
X12927039Y-13889565D01*
X12927039Y-13889565D02*
X12917515Y-13908612D01*
X12917515Y-13908612D02*
X12898467Y-13927660D01*
X12898467Y-13927660D02*
X12869896Y-13937184D01*
X12869896Y-13937184D02*
X12822277Y-13937184D01*
X13022277Y-13937184D02*
X13022277Y-13803850D01*
X13022277Y-13841946D02*
X13031801Y-13822898D01*
X13031801Y-13822898D02*
X13041324Y-13813374D01*
X13041324Y-13813374D02*
X13060372Y-13803850D01*
X13060372Y-13803850D02*
X13079420Y-13803850D01*
X13146086Y-13937184D02*
X13146086Y-13803850D01*
X13146086Y-13737184D02*
X13136562Y-13746708D01*
X13136562Y-13746708D02*
X13146086Y-13756231D01*
X13146086Y-13756231D02*
X13155610Y-13746708D01*
X13155610Y-13746708D02*
X13146086Y-13737184D01*
X13146086Y-13737184D02*
X13146086Y-13756231D01*
X13269896Y-13937184D02*
X13250848Y-13927660D01*
X13250848Y-13927660D02*
X13241324Y-13908612D01*
X13241324Y-13908612D02*
X13241324Y-13737184D01*
X13374658Y-13937184D02*
X13355610Y-13927660D01*
X13355610Y-13927660D02*
X13346086Y-13908612D01*
X13346086Y-13908612D02*
X13346086Y-13737184D01*
X13603229Y-13937184D02*
X13603229Y-13737184D01*
X13603229Y-13737184D02*
X13669896Y-13880041D01*
X13669896Y-13880041D02*
X13736562Y-13737184D01*
X13736562Y-13737184D02*
X13736562Y-13937184D01*
X13917515Y-13937184D02*
X13917515Y-13832422D01*
X13917515Y-13832422D02*
X13907991Y-13813374D01*
X13907991Y-13813374D02*
X13888943Y-13803850D01*
X13888943Y-13803850D02*
X13850848Y-13803850D01*
X13850848Y-13803850D02*
X13831801Y-13813374D01*
X13917515Y-13927660D02*
X13898467Y-13937184D01*
X13898467Y-13937184D02*
X13850848Y-13937184D01*
X13850848Y-13937184D02*
X13831801Y-13927660D01*
X13831801Y-13927660D02*
X13822277Y-13908612D01*
X13822277Y-13908612D02*
X13822277Y-13889565D01*
X13822277Y-13889565D02*
X13831801Y-13870517D01*
X13831801Y-13870517D02*
X13850848Y-13860993D01*
X13850848Y-13860993D02*
X13898467Y-13860993D01*
X13898467Y-13860993D02*
X13917515Y-13851469D01*
X14012753Y-13803850D02*
X14012753Y-14003850D01*
X14012753Y-13813374D02*
X14031801Y-13803850D01*
X14031801Y-13803850D02*
X14069896Y-13803850D01*
X14069896Y-13803850D02*
X14088943Y-13813374D01*
X14088943Y-13813374D02*
X14098467Y-13822898D01*
X14098467Y-13822898D02*
X14107991Y-13841946D01*
X14107991Y-13841946D02*
X14107991Y-13899088D01*
X14107991Y-13899088D02*
X14098467Y-13918136D01*
X14098467Y-13918136D02*
X14088943Y-13927660D01*
X14088943Y-13927660D02*
X14069896Y-13937184D01*
X14069896Y-13937184D02*
X14031801Y-13937184D01*
X14031801Y-13937184D02*
X14012753Y-13927660D01*
X14193705Y-13918136D02*
X14203229Y-13927660D01*
X14203229Y-13927660D02*
X14193705Y-13937184D01*
X14193705Y-13937184D02*
X14184182Y-13927660D01*
X14184182Y-13927660D02*
X14193705Y-13918136D01*
X14193705Y-13918136D02*
X14193705Y-13937184D01*
X14193705Y-13813374D02*
X14203229Y-13822898D01*
X14203229Y-13822898D02*
X14193705Y-13832422D01*
X14193705Y-13832422D02*
X14184182Y-13822898D01*
X14184182Y-13822898D02*
X14193705Y-13813374D01*
X14193705Y-13813374D02*
X14193705Y-13832422D01*
D12*
X12539500Y-14254700D02*
X12561500Y-14276700D01*
X12561500Y-14254700D02*
X12539500Y-14276700D01*
D11*
X12860372Y-14157184D02*
X12879420Y-14157184D01*
X12879420Y-14157184D02*
X12898467Y-14166708D01*
X12898467Y-14166708D02*
X12907991Y-14176231D01*
X12907991Y-14176231D02*
X12917515Y-14195279D01*
X12917515Y-14195279D02*
X12927039Y-14233374D01*
X12927039Y-14233374D02*
X12927039Y-14280993D01*
X12927039Y-14280993D02*
X12917515Y-14319088D01*
X12917515Y-14319088D02*
X12907991Y-14338136D01*
X12907991Y-14338136D02*
X12898467Y-14347660D01*
X12898467Y-14347660D02*
X12879420Y-14357184D01*
X12879420Y-14357184D02*
X12860372Y-14357184D01*
X12860372Y-14357184D02*
X12841324Y-14347660D01*
X12841324Y-14347660D02*
X12831801Y-14338136D01*
X12831801Y-14338136D02*
X12822277Y-14319088D01*
X12822277Y-14319088D02*
X12812753Y-14280993D01*
X12812753Y-14280993D02*
X12812753Y-14233374D01*
X12812753Y-14233374D02*
X12822277Y-14195279D01*
X12822277Y-14195279D02*
X12831801Y-14176231D01*
X12831801Y-14176231D02*
X12841324Y-14166708D01*
X12841324Y-14166708D02*
X12860372Y-14157184D01*
X13012753Y-14338136D02*
X13022277Y-14347660D01*
X13022277Y-14347660D02*
X13012753Y-14357184D01*
X13012753Y-14357184D02*
X13003229Y-14347660D01*
X13003229Y-14347660D02*
X13012753Y-14338136D01*
X13012753Y-14338136D02*
X13012753Y-14357184D01*
X13098467Y-14176231D02*
X13107991Y-14166708D01*
X13107991Y-14166708D02*
X13127039Y-14157184D01*
X13127039Y-14157184D02*
X13174658Y-14157184D01*
X13174658Y-14157184D02*
X13193705Y-14166708D01*
X13193705Y-14166708D02*
X13203229Y-14176231D01*
X13203229Y-14176231D02*
X13212753Y-14195279D01*
X13212753Y-14195279D02*
X13212753Y-14214327D01*
X13212753Y-14214327D02*
X13203229Y-14242898D01*
X13203229Y-14242898D02*
X13088943Y-14357184D01*
X13088943Y-14357184D02*
X13212753Y-14357184D01*
X13288943Y-14176231D02*
X13298467Y-14166708D01*
X13298467Y-14166708D02*
X13317515Y-14157184D01*
X13317515Y-14157184D02*
X13365134Y-14157184D01*
X13365134Y-14157184D02*
X13384182Y-14166708D01*
X13384182Y-14166708D02*
X13393705Y-14176231D01*
X13393705Y-14176231D02*
X13403229Y-14195279D01*
X13403229Y-14195279D02*
X13403229Y-14214327D01*
X13403229Y-14214327D02*
X13393705Y-14242898D01*
X13393705Y-14242898D02*
X13279420Y-14357184D01*
X13279420Y-14357184D02*
X13403229Y-14357184D01*
X13527039Y-14157184D02*
X13546086Y-14157184D01*
X13546086Y-14157184D02*
X13565134Y-14166708D01*
X13565134Y-14166708D02*
X13574658Y-14176231D01*
X13574658Y-14176231D02*
X13584182Y-14195279D01*
X13584182Y-14195279D02*
X13593705Y-14233374D01*
X13593705Y-14233374D02*
X13593705Y-14280993D01*
X13593705Y-14280993D02*
X13584182Y-14319088D01*
X13584182Y-14319088D02*
X13574658Y-14338136D01*
X13574658Y-14338136D02*
X13565134Y-14347660D01*
X13565134Y-14347660D02*
X13546086Y-14357184D01*
X13546086Y-14357184D02*
X13527039Y-14357184D01*
X13527039Y-14357184D02*
X13507991Y-14347660D01*
X13507991Y-14347660D02*
X13498467Y-14338136D01*
X13498467Y-14338136D02*
X13488943Y-14319088D01*
X13488943Y-14319088D02*
X13479420Y-14280993D01*
X13479420Y-14280993D02*
X13479420Y-14233374D01*
X13479420Y-14233374D02*
X13488943Y-14195279D01*
X13488943Y-14195279D02*
X13498467Y-14176231D01*
X13498467Y-14176231D02*
X13507991Y-14166708D01*
X13507991Y-14166708D02*
X13527039Y-14157184D01*
X13679420Y-14357184D02*
X13679420Y-14223850D01*
X13679420Y-14242898D02*
X13688943Y-14233374D01*
X13688943Y-14233374D02*
X13707991Y-14223850D01*
X13707991Y-14223850D02*
X13736563Y-14223850D01*
X13736563Y-14223850D02*
X13755610Y-14233374D01*
X13755610Y-14233374D02*
X13765134Y-14252422D01*
X13765134Y-14252422D02*
X13765134Y-14357184D01*
X13765134Y-14252422D02*
X13774658Y-14233374D01*
X13774658Y-14233374D02*
X13793705Y-14223850D01*
X13793705Y-14223850D02*
X13822277Y-14223850D01*
X13822277Y-14223850D02*
X13841324Y-14233374D01*
X13841324Y-14233374D02*
X13850848Y-14252422D01*
X13850848Y-14252422D02*
X13850848Y-14357184D01*
X13946086Y-14357184D02*
X13946086Y-14223850D01*
X13946086Y-14242898D02*
X13955610Y-14233374D01*
X13955610Y-14233374D02*
X13974658Y-14223850D01*
X13974658Y-14223850D02*
X14003229Y-14223850D01*
X14003229Y-14223850D02*
X14022277Y-14233374D01*
X14022277Y-14233374D02*
X14031801Y-14252422D01*
X14031801Y-14252422D02*
X14031801Y-14357184D01*
X14031801Y-14252422D02*
X14041324Y-14233374D01*
X14041324Y-14233374D02*
X14060372Y-14223850D01*
X14060372Y-14223850D02*
X14088943Y-14223850D01*
X14088943Y-14223850D02*
X14107991Y-14233374D01*
X14107991Y-14233374D02*
X14117515Y-14252422D01*
X14117515Y-14252422D02*
X14117515Y-14357184D01*
X14507991Y-14147660D02*
X14336563Y-14404803D01*
X14765134Y-14157184D02*
X14784182Y-14157184D01*
X14784182Y-14157184D02*
X14803229Y-14166708D01*
X14803229Y-14166708D02*
X14812753Y-14176231D01*
X14812753Y-14176231D02*
X14822277Y-14195279D01*
X14822277Y-14195279D02*
X14831801Y-14233374D01*
X14831801Y-14233374D02*
X14831801Y-14280993D01*
X14831801Y-14280993D02*
X14822277Y-14319088D01*
X14822277Y-14319088D02*
X14812753Y-14338136D01*
X14812753Y-14338136D02*
X14803229Y-14347660D01*
X14803229Y-14347660D02*
X14784182Y-14357184D01*
X14784182Y-14357184D02*
X14765134Y-14357184D01*
X14765134Y-14357184D02*
X14746086Y-14347660D01*
X14746086Y-14347660D02*
X14736563Y-14338136D01*
X14736563Y-14338136D02*
X14727039Y-14319088D01*
X14727039Y-14319088D02*
X14717515Y-14280993D01*
X14717515Y-14280993D02*
X14717515Y-14233374D01*
X14717515Y-14233374D02*
X14727039Y-14195279D01*
X14727039Y-14195279D02*
X14736563Y-14176231D01*
X14736563Y-14176231D02*
X14746086Y-14166708D01*
X14746086Y-14166708D02*
X14765134Y-14157184D01*
X14917515Y-14338136D02*
X14927039Y-14347660D01*
X14927039Y-14347660D02*
X14917515Y-14357184D01*
X14917515Y-14357184D02*
X14907991Y-14347660D01*
X14907991Y-14347660D02*
X14917515Y-14338136D01*
X14917515Y-14338136D02*
X14917515Y-14357184D01*
X15050848Y-14157184D02*
X15069896Y-14157184D01*
X15069896Y-14157184D02*
X15088944Y-14166708D01*
X15088944Y-14166708D02*
X15098467Y-14176231D01*
X15098467Y-14176231D02*
X15107991Y-14195279D01*
X15107991Y-14195279D02*
X15117515Y-14233374D01*
X15117515Y-14233374D02*
X15117515Y-14280993D01*
X15117515Y-14280993D02*
X15107991Y-14319088D01*
X15107991Y-14319088D02*
X15098467Y-14338136D01*
X15098467Y-14338136D02*
X15088944Y-14347660D01*
X15088944Y-14347660D02*
X15069896Y-14357184D01*
X15069896Y-14357184D02*
X15050848Y-14357184D01*
X15050848Y-14357184D02*
X15031801Y-14347660D01*
X15031801Y-14347660D02*
X15022277Y-14338136D01*
X15022277Y-14338136D02*
X15012753Y-14319088D01*
X15012753Y-14319088D02*
X15003229Y-14280993D01*
X15003229Y-14280993D02*
X15003229Y-14233374D01*
X15003229Y-14233374D02*
X15012753Y-14195279D01*
X15012753Y-14195279D02*
X15022277Y-14176231D01*
X15022277Y-14176231D02*
X15031801Y-14166708D01*
X15031801Y-14166708D02*
X15050848Y-14157184D01*
X15241325Y-14157184D02*
X15260372Y-14157184D01*
X15260372Y-14157184D02*
X15279420Y-14166708D01*
X15279420Y-14166708D02*
X15288944Y-14176231D01*
X15288944Y-14176231D02*
X15298467Y-14195279D01*
X15298467Y-14195279D02*
X15307991Y-14233374D01*
X15307991Y-14233374D02*
X15307991Y-14280993D01*
X15307991Y-14280993D02*
X15298467Y-14319088D01*
X15298467Y-14319088D02*
X15288944Y-14338136D01*
X15288944Y-14338136D02*
X15279420Y-14347660D01*
X15279420Y-14347660D02*
X15260372Y-14357184D01*
X15260372Y-14357184D02*
X15241325Y-14357184D01*
X15241325Y-14357184D02*
X15222277Y-14347660D01*
X15222277Y-14347660D02*
X15212753Y-14338136D01*
X15212753Y-14338136D02*
X15203229Y-14319088D01*
X15203229Y-14319088D02*
X15193706Y-14280993D01*
X15193706Y-14280993D02*
X15193706Y-14233374D01*
X15193706Y-14233374D02*
X15203229Y-14195279D01*
X15203229Y-14195279D02*
X15212753Y-14176231D01*
X15212753Y-14176231D02*
X15222277Y-14166708D01*
X15222277Y-14166708D02*
X15241325Y-14157184D01*
X15422277Y-14242898D02*
X15403229Y-14233374D01*
X15403229Y-14233374D02*
X15393706Y-14223850D01*
X15393706Y-14223850D02*
X15384182Y-14204803D01*
X15384182Y-14204803D02*
X15384182Y-14195279D01*
X15384182Y-14195279D02*
X15393706Y-14176231D01*
X15393706Y-14176231D02*
X15403229Y-14166708D01*
X15403229Y-14166708D02*
X15422277Y-14157184D01*
X15422277Y-14157184D02*
X15460372Y-14157184D01*
X15460372Y-14157184D02*
X15479420Y-14166708D01*
X15479420Y-14166708D02*
X15488944Y-14176231D01*
X15488944Y-14176231D02*
X15498467Y-14195279D01*
X15498467Y-14195279D02*
X15498467Y-14204803D01*
X15498467Y-14204803D02*
X15488944Y-14223850D01*
X15488944Y-14223850D02*
X15479420Y-14233374D01*
X15479420Y-14233374D02*
X15460372Y-14242898D01*
X15460372Y-14242898D02*
X15422277Y-14242898D01*
X15422277Y-14242898D02*
X15403229Y-14252422D01*
X15403229Y-14252422D02*
X15393706Y-14261946D01*
X15393706Y-14261946D02*
X15384182Y-14280993D01*
X15384182Y-14280993D02*
X15384182Y-14319088D01*
X15384182Y-14319088D02*
X15393706Y-14338136D01*
X15393706Y-14338136D02*
X15403229Y-14347660D01*
X15403229Y-14347660D02*
X15422277Y-14357184D01*
X15422277Y-14357184D02*
X15460372Y-14357184D01*
X15460372Y-14357184D02*
X15479420Y-14347660D01*
X15479420Y-14347660D02*
X15488944Y-14338136D01*
X15488944Y-14338136D02*
X15498467Y-14319088D01*
X15498467Y-14319088D02*
X15498467Y-14280993D01*
X15498467Y-14280993D02*
X15488944Y-14261946D01*
X15488944Y-14261946D02*
X15479420Y-14252422D01*
X15479420Y-14252422D02*
X15460372Y-14242898D01*
X15565134Y-14157184D02*
X15698467Y-14157184D01*
X15698467Y-14157184D02*
X15612753Y-14357184D01*
X15765134Y-14157184D02*
X15765134Y-14195279D01*
X15841325Y-14157184D02*
X15841325Y-14195279D01*
X16136563Y-14433374D02*
X16127039Y-14423850D01*
X16127039Y-14423850D02*
X16107991Y-14395279D01*
X16107991Y-14395279D02*
X16098468Y-14376231D01*
X16098468Y-14376231D02*
X16088944Y-14347660D01*
X16088944Y-14347660D02*
X16079420Y-14300041D01*
X16079420Y-14300041D02*
X16079420Y-14261946D01*
X16079420Y-14261946D02*
X16088944Y-14214327D01*
X16088944Y-14214327D02*
X16098468Y-14185755D01*
X16098468Y-14185755D02*
X16107991Y-14166708D01*
X16107991Y-14166708D02*
X16127039Y-14138136D01*
X16127039Y-14138136D02*
X16136563Y-14128612D01*
X16317515Y-14357184D02*
X16203229Y-14357184D01*
X16260372Y-14357184D02*
X16260372Y-14157184D01*
X16260372Y-14157184D02*
X16241325Y-14185755D01*
X16241325Y-14185755D02*
X16222277Y-14204803D01*
X16222277Y-14204803D02*
X16203229Y-14214327D01*
X16393706Y-14176231D02*
X16403229Y-14166708D01*
X16403229Y-14166708D02*
X16422277Y-14157184D01*
X16422277Y-14157184D02*
X16469896Y-14157184D01*
X16469896Y-14157184D02*
X16488944Y-14166708D01*
X16488944Y-14166708D02*
X16498468Y-14176231D01*
X16498468Y-14176231D02*
X16507991Y-14195279D01*
X16507991Y-14195279D02*
X16507991Y-14214327D01*
X16507991Y-14214327D02*
X16498468Y-14242898D01*
X16498468Y-14242898D02*
X16384182Y-14357184D01*
X16384182Y-14357184D02*
X16507991Y-14357184D01*
X16622277Y-14242898D02*
X16603229Y-14233374D01*
X16603229Y-14233374D02*
X16593706Y-14223850D01*
X16593706Y-14223850D02*
X16584182Y-14204803D01*
X16584182Y-14204803D02*
X16584182Y-14195279D01*
X16584182Y-14195279D02*
X16593706Y-14176231D01*
X16593706Y-14176231D02*
X16603229Y-14166708D01*
X16603229Y-14166708D02*
X16622277Y-14157184D01*
X16622277Y-14157184D02*
X16660372Y-14157184D01*
X16660372Y-14157184D02*
X16679420Y-14166708D01*
X16679420Y-14166708D02*
X16688944Y-14176231D01*
X16688944Y-14176231D02*
X16698468Y-14195279D01*
X16698468Y-14195279D02*
X16698468Y-14204803D01*
X16698468Y-14204803D02*
X16688944Y-14223850D01*
X16688944Y-14223850D02*
X16679420Y-14233374D01*
X16679420Y-14233374D02*
X16660372Y-14242898D01*
X16660372Y-14242898D02*
X16622277Y-14242898D01*
X16622277Y-14242898D02*
X16603229Y-14252422D01*
X16603229Y-14252422D02*
X16593706Y-14261946D01*
X16593706Y-14261946D02*
X16584182Y-14280993D01*
X16584182Y-14280993D02*
X16584182Y-14319088D01*
X16584182Y-14319088D02*
X16593706Y-14338136D01*
X16593706Y-14338136D02*
X16603229Y-14347660D01*
X16603229Y-14347660D02*
X16622277Y-14357184D01*
X16622277Y-14357184D02*
X16660372Y-14357184D01*
X16660372Y-14357184D02*
X16679420Y-14347660D01*
X16679420Y-14347660D02*
X16688944Y-14338136D01*
X16688944Y-14338136D02*
X16698468Y-14319088D01*
X16698468Y-14319088D02*
X16698468Y-14280993D01*
X16698468Y-14280993D02*
X16688944Y-14261946D01*
X16688944Y-14261946D02*
X16679420Y-14252422D01*
X16679420Y-14252422D02*
X16660372Y-14242898D01*
X16936563Y-14357184D02*
X16936563Y-14157184D01*
X17022277Y-14357184D02*
X17022277Y-14252422D01*
X17022277Y-14252422D02*
X17012753Y-14233374D01*
X17012753Y-14233374D02*
X16993706Y-14223850D01*
X16993706Y-14223850D02*
X16965134Y-14223850D01*
X16965134Y-14223850D02*
X16946087Y-14233374D01*
X16946087Y-14233374D02*
X16936563Y-14242898D01*
X17146087Y-14357184D02*
X17127039Y-14347660D01*
X17127039Y-14347660D02*
X17117515Y-14338136D01*
X17117515Y-14338136D02*
X17107992Y-14319088D01*
X17107992Y-14319088D02*
X17107992Y-14261946D01*
X17107992Y-14261946D02*
X17117515Y-14242898D01*
X17117515Y-14242898D02*
X17127039Y-14233374D01*
X17127039Y-14233374D02*
X17146087Y-14223850D01*
X17146087Y-14223850D02*
X17174658Y-14223850D01*
X17174658Y-14223850D02*
X17193706Y-14233374D01*
X17193706Y-14233374D02*
X17203230Y-14242898D01*
X17203230Y-14242898D02*
X17212753Y-14261946D01*
X17212753Y-14261946D02*
X17212753Y-14319088D01*
X17212753Y-14319088D02*
X17203230Y-14338136D01*
X17203230Y-14338136D02*
X17193706Y-14347660D01*
X17193706Y-14347660D02*
X17174658Y-14357184D01*
X17174658Y-14357184D02*
X17146087Y-14357184D01*
X17327039Y-14357184D02*
X17307992Y-14347660D01*
X17307992Y-14347660D02*
X17298468Y-14328612D01*
X17298468Y-14328612D02*
X17298468Y-14157184D01*
X17479420Y-14347660D02*
X17460373Y-14357184D01*
X17460373Y-14357184D02*
X17422277Y-14357184D01*
X17422277Y-14357184D02*
X17403230Y-14347660D01*
X17403230Y-14347660D02*
X17393706Y-14328612D01*
X17393706Y-14328612D02*
X17393706Y-14252422D01*
X17393706Y-14252422D02*
X17403230Y-14233374D01*
X17403230Y-14233374D02*
X17422277Y-14223850D01*
X17422277Y-14223850D02*
X17460373Y-14223850D01*
X17460373Y-14223850D02*
X17479420Y-14233374D01*
X17479420Y-14233374D02*
X17488944Y-14252422D01*
X17488944Y-14252422D02*
X17488944Y-14271469D01*
X17488944Y-14271469D02*
X17393706Y-14290517D01*
X17565134Y-14347660D02*
X17584182Y-14357184D01*
X17584182Y-14357184D02*
X17622277Y-14357184D01*
X17622277Y-14357184D02*
X17641325Y-14347660D01*
X17641325Y-14347660D02*
X17650849Y-14328612D01*
X17650849Y-14328612D02*
X17650849Y-14319088D01*
X17650849Y-14319088D02*
X17641325Y-14300041D01*
X17641325Y-14300041D02*
X17622277Y-14290517D01*
X17622277Y-14290517D02*
X17593706Y-14290517D01*
X17593706Y-14290517D02*
X17574658Y-14280993D01*
X17574658Y-14280993D02*
X17565134Y-14261946D01*
X17565134Y-14261946D02*
X17565134Y-14252422D01*
X17565134Y-14252422D02*
X17574658Y-14233374D01*
X17574658Y-14233374D02*
X17593706Y-14223850D01*
X17593706Y-14223850D02*
X17622277Y-14223850D01*
X17622277Y-14223850D02*
X17641325Y-14233374D01*
X17717515Y-14433374D02*
X17727039Y-14423850D01*
X17727039Y-14423850D02*
X17746087Y-14395279D01*
X17746087Y-14395279D02*
X17755611Y-14376231D01*
X17755611Y-14376231D02*
X17765134Y-14347660D01*
X17765134Y-14347660D02*
X17774658Y-14300041D01*
X17774658Y-14300041D02*
X17774658Y-14261946D01*
X17774658Y-14261946D02*
X17765134Y-14214327D01*
X17765134Y-14214327D02*
X17755611Y-14185755D01*
X17755611Y-14185755D02*
X17746087Y-14166708D01*
X17746087Y-14166708D02*
X17727039Y-14138136D01*
X17727039Y-14138136D02*
X17717515Y-14128612D01*
D12*
X12561500Y-14529700D02*
G75*
G02*
X12501500Y-14529700I-30000J0D01*
G01*
X12501500Y-14529700D02*
G75*
G02*
X12561500Y-14529700I30000J0D01*
G01*
D11*
X12860372Y-14421184D02*
X12879420Y-14421184D01*
X12879420Y-14421184D02*
X12898467Y-14430708D01*
X12898467Y-14430708D02*
X12907991Y-14440231D01*
X12907991Y-14440231D02*
X12917515Y-14459279D01*
X12917515Y-14459279D02*
X12927039Y-14497374D01*
X12927039Y-14497374D02*
X12927039Y-14544993D01*
X12927039Y-14544993D02*
X12917515Y-14583088D01*
X12917515Y-14583088D02*
X12907991Y-14602136D01*
X12907991Y-14602136D02*
X12898467Y-14611660D01*
X12898467Y-14611660D02*
X12879420Y-14621184D01*
X12879420Y-14621184D02*
X12860372Y-14621184D01*
X12860372Y-14621184D02*
X12841324Y-14611660D01*
X12841324Y-14611660D02*
X12831801Y-14602136D01*
X12831801Y-14602136D02*
X12822277Y-14583088D01*
X12822277Y-14583088D02*
X12812753Y-14544993D01*
X12812753Y-14544993D02*
X12812753Y-14497374D01*
X12812753Y-14497374D02*
X12822277Y-14459279D01*
X12822277Y-14459279D02*
X12831801Y-14440231D01*
X12831801Y-14440231D02*
X12841324Y-14430708D01*
X12841324Y-14430708D02*
X12860372Y-14421184D01*
X13012753Y-14602136D02*
X13022277Y-14611660D01*
X13022277Y-14611660D02*
X13012753Y-14621184D01*
X13012753Y-14621184D02*
X13003229Y-14611660D01*
X13003229Y-14611660D02*
X13012753Y-14602136D01*
X13012753Y-14602136D02*
X13012753Y-14621184D01*
X13193705Y-14421184D02*
X13155610Y-14421184D01*
X13155610Y-14421184D02*
X13136562Y-14430708D01*
X13136562Y-14430708D02*
X13127039Y-14440231D01*
X13127039Y-14440231D02*
X13107991Y-14468803D01*
X13107991Y-14468803D02*
X13098467Y-14506898D01*
X13098467Y-14506898D02*
X13098467Y-14583088D01*
X13098467Y-14583088D02*
X13107991Y-14602136D01*
X13107991Y-14602136D02*
X13117515Y-14611660D01*
X13117515Y-14611660D02*
X13136562Y-14621184D01*
X13136562Y-14621184D02*
X13174658Y-14621184D01*
X13174658Y-14621184D02*
X13193705Y-14611660D01*
X13193705Y-14611660D02*
X13203229Y-14602136D01*
X13203229Y-14602136D02*
X13212753Y-14583088D01*
X13212753Y-14583088D02*
X13212753Y-14535469D01*
X13212753Y-14535469D02*
X13203229Y-14516422D01*
X13203229Y-14516422D02*
X13193705Y-14506898D01*
X13193705Y-14506898D02*
X13174658Y-14497374D01*
X13174658Y-14497374D02*
X13136562Y-14497374D01*
X13136562Y-14497374D02*
X13117515Y-14506898D01*
X13117515Y-14506898D02*
X13107991Y-14516422D01*
X13107991Y-14516422D02*
X13098467Y-14535469D01*
X13336562Y-14421184D02*
X13355610Y-14421184D01*
X13355610Y-14421184D02*
X13374658Y-14430708D01*
X13374658Y-14430708D02*
X13384182Y-14440231D01*
X13384182Y-14440231D02*
X13393705Y-14459279D01*
X13393705Y-14459279D02*
X13403229Y-14497374D01*
X13403229Y-14497374D02*
X13403229Y-14544993D01*
X13403229Y-14544993D02*
X13393705Y-14583088D01*
X13393705Y-14583088D02*
X13384182Y-14602136D01*
X13384182Y-14602136D02*
X13374658Y-14611660D01*
X13374658Y-14611660D02*
X13355610Y-14621184D01*
X13355610Y-14621184D02*
X13336562Y-14621184D01*
X13336562Y-14621184D02*
X13317515Y-14611660D01*
X13317515Y-14611660D02*
X13307991Y-14602136D01*
X13307991Y-14602136D02*
X13298467Y-14583088D01*
X13298467Y-14583088D02*
X13288943Y-14544993D01*
X13288943Y-14544993D02*
X13288943Y-14497374D01*
X13288943Y-14497374D02*
X13298467Y-14459279D01*
X13298467Y-14459279D02*
X13307991Y-14440231D01*
X13307991Y-14440231D02*
X13317515Y-14430708D01*
X13317515Y-14430708D02*
X13336562Y-14421184D01*
X13527039Y-14421184D02*
X13546086Y-14421184D01*
X13546086Y-14421184D02*
X13565134Y-14430708D01*
X13565134Y-14430708D02*
X13574658Y-14440231D01*
X13574658Y-14440231D02*
X13584182Y-14459279D01*
X13584182Y-14459279D02*
X13593705Y-14497374D01*
X13593705Y-14497374D02*
X13593705Y-14544993D01*
X13593705Y-14544993D02*
X13584182Y-14583088D01*
X13584182Y-14583088D02*
X13574658Y-14602136D01*
X13574658Y-14602136D02*
X13565134Y-14611660D01*
X13565134Y-14611660D02*
X13546086Y-14621184D01*
X13546086Y-14621184D02*
X13527039Y-14621184D01*
X13527039Y-14621184D02*
X13507991Y-14611660D01*
X13507991Y-14611660D02*
X13498467Y-14602136D01*
X13498467Y-14602136D02*
X13488943Y-14583088D01*
X13488943Y-14583088D02*
X13479420Y-14544993D01*
X13479420Y-14544993D02*
X13479420Y-14497374D01*
X13479420Y-14497374D02*
X13488943Y-14459279D01*
X13488943Y-14459279D02*
X13498467Y-14440231D01*
X13498467Y-14440231D02*
X13507991Y-14430708D01*
X13507991Y-14430708D02*
X13527039Y-14421184D01*
X13679420Y-14621184D02*
X13679420Y-14487850D01*
X13679420Y-14506898D02*
X13688943Y-14497374D01*
X13688943Y-14497374D02*
X13707991Y-14487850D01*
X13707991Y-14487850D02*
X13736563Y-14487850D01*
X13736563Y-14487850D02*
X13755610Y-14497374D01*
X13755610Y-14497374D02*
X13765134Y-14516422D01*
X13765134Y-14516422D02*
X13765134Y-14621184D01*
X13765134Y-14516422D02*
X13774658Y-14497374D01*
X13774658Y-14497374D02*
X13793705Y-14487850D01*
X13793705Y-14487850D02*
X13822277Y-14487850D01*
X13822277Y-14487850D02*
X13841324Y-14497374D01*
X13841324Y-14497374D02*
X13850848Y-14516422D01*
X13850848Y-14516422D02*
X13850848Y-14621184D01*
X13946086Y-14621184D02*
X13946086Y-14487850D01*
X13946086Y-14506898D02*
X13955610Y-14497374D01*
X13955610Y-14497374D02*
X13974658Y-14487850D01*
X13974658Y-14487850D02*
X14003229Y-14487850D01*
X14003229Y-14487850D02*
X14022277Y-14497374D01*
X14022277Y-14497374D02*
X14031801Y-14516422D01*
X14031801Y-14516422D02*
X14031801Y-14621184D01*
X14031801Y-14516422D02*
X14041324Y-14497374D01*
X14041324Y-14497374D02*
X14060372Y-14487850D01*
X14060372Y-14487850D02*
X14088943Y-14487850D01*
X14088943Y-14487850D02*
X14107991Y-14497374D01*
X14107991Y-14497374D02*
X14117515Y-14516422D01*
X14117515Y-14516422D02*
X14117515Y-14621184D01*
X14507991Y-14411660D02*
X14336563Y-14668803D01*
X14765134Y-14421184D02*
X14784182Y-14421184D01*
X14784182Y-14421184D02*
X14803229Y-14430708D01*
X14803229Y-14430708D02*
X14812753Y-14440231D01*
X14812753Y-14440231D02*
X14822277Y-14459279D01*
X14822277Y-14459279D02*
X14831801Y-14497374D01*
X14831801Y-14497374D02*
X14831801Y-14544993D01*
X14831801Y-14544993D02*
X14822277Y-14583088D01*
X14822277Y-14583088D02*
X14812753Y-14602136D01*
X14812753Y-14602136D02*
X14803229Y-14611660D01*
X14803229Y-14611660D02*
X14784182Y-14621184D01*
X14784182Y-14621184D02*
X14765134Y-14621184D01*
X14765134Y-14621184D02*
X14746086Y-14611660D01*
X14746086Y-14611660D02*
X14736563Y-14602136D01*
X14736563Y-14602136D02*
X14727039Y-14583088D01*
X14727039Y-14583088D02*
X14717515Y-14544993D01*
X14717515Y-14544993D02*
X14717515Y-14497374D01*
X14717515Y-14497374D02*
X14727039Y-14459279D01*
X14727039Y-14459279D02*
X14736563Y-14440231D01*
X14736563Y-14440231D02*
X14746086Y-14430708D01*
X14746086Y-14430708D02*
X14765134Y-14421184D01*
X14917515Y-14602136D02*
X14927039Y-14611660D01*
X14927039Y-14611660D02*
X14917515Y-14621184D01*
X14917515Y-14621184D02*
X14907991Y-14611660D01*
X14907991Y-14611660D02*
X14917515Y-14602136D01*
X14917515Y-14602136D02*
X14917515Y-14621184D01*
X15050848Y-14421184D02*
X15069896Y-14421184D01*
X15069896Y-14421184D02*
X15088944Y-14430708D01*
X15088944Y-14430708D02*
X15098467Y-14440231D01*
X15098467Y-14440231D02*
X15107991Y-14459279D01*
X15107991Y-14459279D02*
X15117515Y-14497374D01*
X15117515Y-14497374D02*
X15117515Y-14544993D01*
X15117515Y-14544993D02*
X15107991Y-14583088D01*
X15107991Y-14583088D02*
X15098467Y-14602136D01*
X15098467Y-14602136D02*
X15088944Y-14611660D01*
X15088944Y-14611660D02*
X15069896Y-14621184D01*
X15069896Y-14621184D02*
X15050848Y-14621184D01*
X15050848Y-14621184D02*
X15031801Y-14611660D01*
X15031801Y-14611660D02*
X15022277Y-14602136D01*
X15022277Y-14602136D02*
X15012753Y-14583088D01*
X15012753Y-14583088D02*
X15003229Y-14544993D01*
X15003229Y-14544993D02*
X15003229Y-14497374D01*
X15003229Y-14497374D02*
X15012753Y-14459279D01*
X15012753Y-14459279D02*
X15022277Y-14440231D01*
X15022277Y-14440231D02*
X15031801Y-14430708D01*
X15031801Y-14430708D02*
X15050848Y-14421184D01*
X15193706Y-14440231D02*
X15203229Y-14430708D01*
X15203229Y-14430708D02*
X15222277Y-14421184D01*
X15222277Y-14421184D02*
X15269896Y-14421184D01*
X15269896Y-14421184D02*
X15288944Y-14430708D01*
X15288944Y-14430708D02*
X15298467Y-14440231D01*
X15298467Y-14440231D02*
X15307991Y-14459279D01*
X15307991Y-14459279D02*
X15307991Y-14478327D01*
X15307991Y-14478327D02*
X15298467Y-14506898D01*
X15298467Y-14506898D02*
X15184182Y-14621184D01*
X15184182Y-14621184D02*
X15307991Y-14621184D01*
X15374658Y-14421184D02*
X15498467Y-14421184D01*
X15498467Y-14421184D02*
X15431801Y-14497374D01*
X15431801Y-14497374D02*
X15460372Y-14497374D01*
X15460372Y-14497374D02*
X15479420Y-14506898D01*
X15479420Y-14506898D02*
X15488944Y-14516422D01*
X15488944Y-14516422D02*
X15498467Y-14535469D01*
X15498467Y-14535469D02*
X15498467Y-14583088D01*
X15498467Y-14583088D02*
X15488944Y-14602136D01*
X15488944Y-14602136D02*
X15479420Y-14611660D01*
X15479420Y-14611660D02*
X15460372Y-14621184D01*
X15460372Y-14621184D02*
X15403229Y-14621184D01*
X15403229Y-14621184D02*
X15384182Y-14611660D01*
X15384182Y-14611660D02*
X15374658Y-14602136D01*
X15669896Y-14421184D02*
X15631801Y-14421184D01*
X15631801Y-14421184D02*
X15612753Y-14430708D01*
X15612753Y-14430708D02*
X15603229Y-14440231D01*
X15603229Y-14440231D02*
X15584182Y-14468803D01*
X15584182Y-14468803D02*
X15574658Y-14506898D01*
X15574658Y-14506898D02*
X15574658Y-14583088D01*
X15574658Y-14583088D02*
X15584182Y-14602136D01*
X15584182Y-14602136D02*
X15593706Y-14611660D01*
X15593706Y-14611660D02*
X15612753Y-14621184D01*
X15612753Y-14621184D02*
X15650848Y-14621184D01*
X15650848Y-14621184D02*
X15669896Y-14611660D01*
X15669896Y-14611660D02*
X15679420Y-14602136D01*
X15679420Y-14602136D02*
X15688944Y-14583088D01*
X15688944Y-14583088D02*
X15688944Y-14535469D01*
X15688944Y-14535469D02*
X15679420Y-14516422D01*
X15679420Y-14516422D02*
X15669896Y-14506898D01*
X15669896Y-14506898D02*
X15650848Y-14497374D01*
X15650848Y-14497374D02*
X15612753Y-14497374D01*
X15612753Y-14497374D02*
X15593706Y-14506898D01*
X15593706Y-14506898D02*
X15584182Y-14516422D01*
X15584182Y-14516422D02*
X15574658Y-14535469D01*
X15765134Y-14421184D02*
X15765134Y-14459279D01*
X15841325Y-14421184D02*
X15841325Y-14459279D01*
X16136563Y-14697374D02*
X16127039Y-14687850D01*
X16127039Y-14687850D02*
X16107991Y-14659279D01*
X16107991Y-14659279D02*
X16098468Y-14640231D01*
X16098468Y-14640231D02*
X16088944Y-14611660D01*
X16088944Y-14611660D02*
X16079420Y-14564041D01*
X16079420Y-14564041D02*
X16079420Y-14525946D01*
X16079420Y-14525946D02*
X16088944Y-14478327D01*
X16088944Y-14478327D02*
X16098468Y-14449755D01*
X16098468Y-14449755D02*
X16107991Y-14430708D01*
X16107991Y-14430708D02*
X16127039Y-14402136D01*
X16127039Y-14402136D02*
X16136563Y-14392612D01*
X16250848Y-14421184D02*
X16269896Y-14421184D01*
X16269896Y-14421184D02*
X16288944Y-14430708D01*
X16288944Y-14430708D02*
X16298468Y-14440231D01*
X16298468Y-14440231D02*
X16307991Y-14459279D01*
X16307991Y-14459279D02*
X16317515Y-14497374D01*
X16317515Y-14497374D02*
X16317515Y-14544993D01*
X16317515Y-14544993D02*
X16307991Y-14583088D01*
X16307991Y-14583088D02*
X16298468Y-14602136D01*
X16298468Y-14602136D02*
X16288944Y-14611660D01*
X16288944Y-14611660D02*
X16269896Y-14621184D01*
X16269896Y-14621184D02*
X16250848Y-14621184D01*
X16250848Y-14621184D02*
X16231801Y-14611660D01*
X16231801Y-14611660D02*
X16222277Y-14602136D01*
X16222277Y-14602136D02*
X16212753Y-14583088D01*
X16212753Y-14583088D02*
X16203229Y-14544993D01*
X16203229Y-14544993D02*
X16203229Y-14497374D01*
X16203229Y-14497374D02*
X16212753Y-14459279D01*
X16212753Y-14459279D02*
X16222277Y-14440231D01*
X16222277Y-14440231D02*
X16231801Y-14430708D01*
X16231801Y-14430708D02*
X16250848Y-14421184D01*
X16555610Y-14621184D02*
X16555610Y-14421184D01*
X16641325Y-14621184D02*
X16641325Y-14516422D01*
X16641325Y-14516422D02*
X16631801Y-14497374D01*
X16631801Y-14497374D02*
X16612753Y-14487850D01*
X16612753Y-14487850D02*
X16584182Y-14487850D01*
X16584182Y-14487850D02*
X16565134Y-14497374D01*
X16565134Y-14497374D02*
X16555610Y-14506898D01*
X16765134Y-14621184D02*
X16746087Y-14611660D01*
X16746087Y-14611660D02*
X16736563Y-14602136D01*
X16736563Y-14602136D02*
X16727039Y-14583088D01*
X16727039Y-14583088D02*
X16727039Y-14525946D01*
X16727039Y-14525946D02*
X16736563Y-14506898D01*
X16736563Y-14506898D02*
X16746087Y-14497374D01*
X16746087Y-14497374D02*
X16765134Y-14487850D01*
X16765134Y-14487850D02*
X16793706Y-14487850D01*
X16793706Y-14487850D02*
X16812753Y-14497374D01*
X16812753Y-14497374D02*
X16822277Y-14506898D01*
X16822277Y-14506898D02*
X16831801Y-14525946D01*
X16831801Y-14525946D02*
X16831801Y-14583088D01*
X16831801Y-14583088D02*
X16822277Y-14602136D01*
X16822277Y-14602136D02*
X16812753Y-14611660D01*
X16812753Y-14611660D02*
X16793706Y-14621184D01*
X16793706Y-14621184D02*
X16765134Y-14621184D01*
X16946087Y-14621184D02*
X16927039Y-14611660D01*
X16927039Y-14611660D02*
X16917515Y-14592612D01*
X16917515Y-14592612D02*
X16917515Y-14421184D01*
X17098468Y-14611660D02*
X17079420Y-14621184D01*
X17079420Y-14621184D02*
X17041325Y-14621184D01*
X17041325Y-14621184D02*
X17022277Y-14611660D01*
X17022277Y-14611660D02*
X17012753Y-14592612D01*
X17012753Y-14592612D02*
X17012753Y-14516422D01*
X17012753Y-14516422D02*
X17022277Y-14497374D01*
X17022277Y-14497374D02*
X17041325Y-14487850D01*
X17041325Y-14487850D02*
X17079420Y-14487850D01*
X17079420Y-14487850D02*
X17098468Y-14497374D01*
X17098468Y-14497374D02*
X17107992Y-14516422D01*
X17107992Y-14516422D02*
X17107992Y-14535469D01*
X17107992Y-14535469D02*
X17012753Y-14554517D01*
X17184182Y-14611660D02*
X17203230Y-14621184D01*
X17203230Y-14621184D02*
X17241325Y-14621184D01*
X17241325Y-14621184D02*
X17260373Y-14611660D01*
X17260373Y-14611660D02*
X17269896Y-14592612D01*
X17269896Y-14592612D02*
X17269896Y-14583088D01*
X17269896Y-14583088D02*
X17260373Y-14564041D01*
X17260373Y-14564041D02*
X17241325Y-14554517D01*
X17241325Y-14554517D02*
X17212753Y-14554517D01*
X17212753Y-14554517D02*
X17193706Y-14544993D01*
X17193706Y-14544993D02*
X17184182Y-14525946D01*
X17184182Y-14525946D02*
X17184182Y-14516422D01*
X17184182Y-14516422D02*
X17193706Y-14497374D01*
X17193706Y-14497374D02*
X17212753Y-14487850D01*
X17212753Y-14487850D02*
X17241325Y-14487850D01*
X17241325Y-14487850D02*
X17260373Y-14497374D01*
X17507992Y-14544993D02*
X17660373Y-14544993D01*
X17584182Y-14621184D02*
X17584182Y-14468803D01*
X17993706Y-14487850D02*
X17993706Y-14621184D01*
X17946087Y-14411660D02*
X17898468Y-14554517D01*
X17898468Y-14554517D02*
X18022277Y-14554517D01*
X18241325Y-14611660D02*
X18260373Y-14621184D01*
X18260373Y-14621184D02*
X18298468Y-14621184D01*
X18298468Y-14621184D02*
X18317516Y-14611660D01*
X18317516Y-14611660D02*
X18327039Y-14592612D01*
X18327039Y-14592612D02*
X18327039Y-14583088D01*
X18327039Y-14583088D02*
X18317516Y-14564041D01*
X18317516Y-14564041D02*
X18298468Y-14554517D01*
X18298468Y-14554517D02*
X18269896Y-14554517D01*
X18269896Y-14554517D02*
X18250849Y-14544993D01*
X18250849Y-14544993D02*
X18241325Y-14525946D01*
X18241325Y-14525946D02*
X18241325Y-14516422D01*
X18241325Y-14516422D02*
X18250849Y-14497374D01*
X18250849Y-14497374D02*
X18269896Y-14487850D01*
X18269896Y-14487850D02*
X18298468Y-14487850D01*
X18298468Y-14487850D02*
X18317516Y-14497374D01*
X18441325Y-14621184D02*
X18422277Y-14611660D01*
X18422277Y-14611660D02*
X18412754Y-14592612D01*
X18412754Y-14592612D02*
X18412754Y-14421184D01*
X18546087Y-14621184D02*
X18527039Y-14611660D01*
X18527039Y-14611660D02*
X18517516Y-14602136D01*
X18517516Y-14602136D02*
X18507992Y-14583088D01*
X18507992Y-14583088D02*
X18507992Y-14525946D01*
X18507992Y-14525946D02*
X18517516Y-14506898D01*
X18517516Y-14506898D02*
X18527039Y-14497374D01*
X18527039Y-14497374D02*
X18546087Y-14487850D01*
X18546087Y-14487850D02*
X18574658Y-14487850D01*
X18574658Y-14487850D02*
X18593706Y-14497374D01*
X18593706Y-14497374D02*
X18603230Y-14506898D01*
X18603230Y-14506898D02*
X18612754Y-14525946D01*
X18612754Y-14525946D02*
X18612754Y-14583088D01*
X18612754Y-14583088D02*
X18603230Y-14602136D01*
X18603230Y-14602136D02*
X18593706Y-14611660D01*
X18593706Y-14611660D02*
X18574658Y-14621184D01*
X18574658Y-14621184D02*
X18546087Y-14621184D01*
X18669897Y-14487850D02*
X18746087Y-14487850D01*
X18698468Y-14421184D02*
X18698468Y-14592612D01*
X18698468Y-14592612D02*
X18707992Y-14611660D01*
X18707992Y-14611660D02*
X18727039Y-14621184D01*
X18727039Y-14621184D02*
X18746087Y-14621184D01*
X18803230Y-14611660D02*
X18822277Y-14621184D01*
X18822277Y-14621184D02*
X18860373Y-14621184D01*
X18860373Y-14621184D02*
X18879420Y-14611660D01*
X18879420Y-14611660D02*
X18888944Y-14592612D01*
X18888944Y-14592612D02*
X18888944Y-14583088D01*
X18888944Y-14583088D02*
X18879420Y-14564041D01*
X18879420Y-14564041D02*
X18860373Y-14554517D01*
X18860373Y-14554517D02*
X18831801Y-14554517D01*
X18831801Y-14554517D02*
X18812754Y-14544993D01*
X18812754Y-14544993D02*
X18803230Y-14525946D01*
X18803230Y-14525946D02*
X18803230Y-14516422D01*
X18803230Y-14516422D02*
X18812754Y-14497374D01*
X18812754Y-14497374D02*
X18831801Y-14487850D01*
X18831801Y-14487850D02*
X18860373Y-14487850D01*
X18860373Y-14487850D02*
X18879420Y-14497374D01*
X18955611Y-14697374D02*
X18965135Y-14687850D01*
X18965135Y-14687850D02*
X18984182Y-14659279D01*
X18984182Y-14659279D02*
X18993706Y-14640231D01*
X18993706Y-14640231D02*
X19003230Y-14611660D01*
X19003230Y-14611660D02*
X19012754Y-14564041D01*
X19012754Y-14564041D02*
X19012754Y-14525946D01*
X19012754Y-14525946D02*
X19003230Y-14478327D01*
X19003230Y-14478327D02*
X18993706Y-14449755D01*
X18993706Y-14449755D02*
X18984182Y-14430708D01*
X18984182Y-14430708D02*
X18965135Y-14402136D01*
X18965135Y-14402136D02*
X18955611Y-14392612D01*
D12*
X12511500Y-14743700D02*
X12511500Y-14843700D01*
X12461500Y-14793700D02*
X12561500Y-14793700D01*
D11*
X12927039Y-14885184D02*
X12812753Y-14885184D01*
X12869896Y-14885184D02*
X12869896Y-14685184D01*
X12869896Y-14685184D02*
X12850848Y-14713755D01*
X12850848Y-14713755D02*
X12831801Y-14732803D01*
X12831801Y-14732803D02*
X12812753Y-14742327D01*
X13012753Y-14866136D02*
X13022277Y-14875660D01*
X13022277Y-14875660D02*
X13012753Y-14885184D01*
X13012753Y-14885184D02*
X13003229Y-14875660D01*
X13003229Y-14875660D02*
X13012753Y-14866136D01*
X13012753Y-14866136D02*
X13012753Y-14885184D01*
X13146086Y-14685184D02*
X13165134Y-14685184D01*
X13165134Y-14685184D02*
X13184182Y-14694708D01*
X13184182Y-14694708D02*
X13193705Y-14704231D01*
X13193705Y-14704231D02*
X13203229Y-14723279D01*
X13203229Y-14723279D02*
X13212753Y-14761374D01*
X13212753Y-14761374D02*
X13212753Y-14808993D01*
X13212753Y-14808993D02*
X13203229Y-14847088D01*
X13203229Y-14847088D02*
X13193705Y-14866136D01*
X13193705Y-14866136D02*
X13184182Y-14875660D01*
X13184182Y-14875660D02*
X13165134Y-14885184D01*
X13165134Y-14885184D02*
X13146086Y-14885184D01*
X13146086Y-14885184D02*
X13127039Y-14875660D01*
X13127039Y-14875660D02*
X13117515Y-14866136D01*
X13117515Y-14866136D02*
X13107991Y-14847088D01*
X13107991Y-14847088D02*
X13098467Y-14808993D01*
X13098467Y-14808993D02*
X13098467Y-14761374D01*
X13098467Y-14761374D02*
X13107991Y-14723279D01*
X13107991Y-14723279D02*
X13117515Y-14704231D01*
X13117515Y-14704231D02*
X13127039Y-14694708D01*
X13127039Y-14694708D02*
X13146086Y-14685184D01*
X13336562Y-14685184D02*
X13355610Y-14685184D01*
X13355610Y-14685184D02*
X13374658Y-14694708D01*
X13374658Y-14694708D02*
X13384182Y-14704231D01*
X13384182Y-14704231D02*
X13393705Y-14723279D01*
X13393705Y-14723279D02*
X13403229Y-14761374D01*
X13403229Y-14761374D02*
X13403229Y-14808993D01*
X13403229Y-14808993D02*
X13393705Y-14847088D01*
X13393705Y-14847088D02*
X13384182Y-14866136D01*
X13384182Y-14866136D02*
X13374658Y-14875660D01*
X13374658Y-14875660D02*
X13355610Y-14885184D01*
X13355610Y-14885184D02*
X13336562Y-14885184D01*
X13336562Y-14885184D02*
X13317515Y-14875660D01*
X13317515Y-14875660D02*
X13307991Y-14866136D01*
X13307991Y-14866136D02*
X13298467Y-14847088D01*
X13298467Y-14847088D02*
X13288943Y-14808993D01*
X13288943Y-14808993D02*
X13288943Y-14761374D01*
X13288943Y-14761374D02*
X13298467Y-14723279D01*
X13298467Y-14723279D02*
X13307991Y-14704231D01*
X13307991Y-14704231D02*
X13317515Y-14694708D01*
X13317515Y-14694708D02*
X13336562Y-14685184D01*
X13527039Y-14685184D02*
X13546086Y-14685184D01*
X13546086Y-14685184D02*
X13565134Y-14694708D01*
X13565134Y-14694708D02*
X13574658Y-14704231D01*
X13574658Y-14704231D02*
X13584182Y-14723279D01*
X13584182Y-14723279D02*
X13593705Y-14761374D01*
X13593705Y-14761374D02*
X13593705Y-14808993D01*
X13593705Y-14808993D02*
X13584182Y-14847088D01*
X13584182Y-14847088D02*
X13574658Y-14866136D01*
X13574658Y-14866136D02*
X13565134Y-14875660D01*
X13565134Y-14875660D02*
X13546086Y-14885184D01*
X13546086Y-14885184D02*
X13527039Y-14885184D01*
X13527039Y-14885184D02*
X13507991Y-14875660D01*
X13507991Y-14875660D02*
X13498467Y-14866136D01*
X13498467Y-14866136D02*
X13488943Y-14847088D01*
X13488943Y-14847088D02*
X13479420Y-14808993D01*
X13479420Y-14808993D02*
X13479420Y-14761374D01*
X13479420Y-14761374D02*
X13488943Y-14723279D01*
X13488943Y-14723279D02*
X13498467Y-14704231D01*
X13498467Y-14704231D02*
X13507991Y-14694708D01*
X13507991Y-14694708D02*
X13527039Y-14685184D01*
X13679420Y-14885184D02*
X13679420Y-14751850D01*
X13679420Y-14770898D02*
X13688943Y-14761374D01*
X13688943Y-14761374D02*
X13707991Y-14751850D01*
X13707991Y-14751850D02*
X13736563Y-14751850D01*
X13736563Y-14751850D02*
X13755610Y-14761374D01*
X13755610Y-14761374D02*
X13765134Y-14780422D01*
X13765134Y-14780422D02*
X13765134Y-14885184D01*
X13765134Y-14780422D02*
X13774658Y-14761374D01*
X13774658Y-14761374D02*
X13793705Y-14751850D01*
X13793705Y-14751850D02*
X13822277Y-14751850D01*
X13822277Y-14751850D02*
X13841324Y-14761374D01*
X13841324Y-14761374D02*
X13850848Y-14780422D01*
X13850848Y-14780422D02*
X13850848Y-14885184D01*
X13946086Y-14885184D02*
X13946086Y-14751850D01*
X13946086Y-14770898D02*
X13955610Y-14761374D01*
X13955610Y-14761374D02*
X13974658Y-14751850D01*
X13974658Y-14751850D02*
X14003229Y-14751850D01*
X14003229Y-14751850D02*
X14022277Y-14761374D01*
X14022277Y-14761374D02*
X14031801Y-14780422D01*
X14031801Y-14780422D02*
X14031801Y-14885184D01*
X14031801Y-14780422D02*
X14041324Y-14761374D01*
X14041324Y-14761374D02*
X14060372Y-14751850D01*
X14060372Y-14751850D02*
X14088943Y-14751850D01*
X14088943Y-14751850D02*
X14107991Y-14761374D01*
X14107991Y-14761374D02*
X14117515Y-14780422D01*
X14117515Y-14780422D02*
X14117515Y-14885184D01*
X14507991Y-14675660D02*
X14336563Y-14932803D01*
X14765134Y-14685184D02*
X14784182Y-14685184D01*
X14784182Y-14685184D02*
X14803229Y-14694708D01*
X14803229Y-14694708D02*
X14812753Y-14704231D01*
X14812753Y-14704231D02*
X14822277Y-14723279D01*
X14822277Y-14723279D02*
X14831801Y-14761374D01*
X14831801Y-14761374D02*
X14831801Y-14808993D01*
X14831801Y-14808993D02*
X14822277Y-14847088D01*
X14822277Y-14847088D02*
X14812753Y-14866136D01*
X14812753Y-14866136D02*
X14803229Y-14875660D01*
X14803229Y-14875660D02*
X14784182Y-14885184D01*
X14784182Y-14885184D02*
X14765134Y-14885184D01*
X14765134Y-14885184D02*
X14746086Y-14875660D01*
X14746086Y-14875660D02*
X14736563Y-14866136D01*
X14736563Y-14866136D02*
X14727039Y-14847088D01*
X14727039Y-14847088D02*
X14717515Y-14808993D01*
X14717515Y-14808993D02*
X14717515Y-14761374D01*
X14717515Y-14761374D02*
X14727039Y-14723279D01*
X14727039Y-14723279D02*
X14736563Y-14704231D01*
X14736563Y-14704231D02*
X14746086Y-14694708D01*
X14746086Y-14694708D02*
X14765134Y-14685184D01*
X14917515Y-14866136D02*
X14927039Y-14875660D01*
X14927039Y-14875660D02*
X14917515Y-14885184D01*
X14917515Y-14885184D02*
X14907991Y-14875660D01*
X14907991Y-14875660D02*
X14917515Y-14866136D01*
X14917515Y-14866136D02*
X14917515Y-14885184D01*
X15050848Y-14685184D02*
X15069896Y-14685184D01*
X15069896Y-14685184D02*
X15088944Y-14694708D01*
X15088944Y-14694708D02*
X15098467Y-14704231D01*
X15098467Y-14704231D02*
X15107991Y-14723279D01*
X15107991Y-14723279D02*
X15117515Y-14761374D01*
X15117515Y-14761374D02*
X15117515Y-14808993D01*
X15117515Y-14808993D02*
X15107991Y-14847088D01*
X15107991Y-14847088D02*
X15098467Y-14866136D01*
X15098467Y-14866136D02*
X15088944Y-14875660D01*
X15088944Y-14875660D02*
X15069896Y-14885184D01*
X15069896Y-14885184D02*
X15050848Y-14885184D01*
X15050848Y-14885184D02*
X15031801Y-14875660D01*
X15031801Y-14875660D02*
X15022277Y-14866136D01*
X15022277Y-14866136D02*
X15012753Y-14847088D01*
X15012753Y-14847088D02*
X15003229Y-14808993D01*
X15003229Y-14808993D02*
X15003229Y-14761374D01*
X15003229Y-14761374D02*
X15012753Y-14723279D01*
X15012753Y-14723279D02*
X15022277Y-14704231D01*
X15022277Y-14704231D02*
X15031801Y-14694708D01*
X15031801Y-14694708D02*
X15050848Y-14685184D01*
X15184182Y-14685184D02*
X15307991Y-14685184D01*
X15307991Y-14685184D02*
X15241325Y-14761374D01*
X15241325Y-14761374D02*
X15269896Y-14761374D01*
X15269896Y-14761374D02*
X15288944Y-14770898D01*
X15288944Y-14770898D02*
X15298467Y-14780422D01*
X15298467Y-14780422D02*
X15307991Y-14799469D01*
X15307991Y-14799469D02*
X15307991Y-14847088D01*
X15307991Y-14847088D02*
X15298467Y-14866136D01*
X15298467Y-14866136D02*
X15288944Y-14875660D01*
X15288944Y-14875660D02*
X15269896Y-14885184D01*
X15269896Y-14885184D02*
X15212753Y-14885184D01*
X15212753Y-14885184D02*
X15193706Y-14875660D01*
X15193706Y-14875660D02*
X15184182Y-14866136D01*
X15403229Y-14885184D02*
X15441325Y-14885184D01*
X15441325Y-14885184D02*
X15460372Y-14875660D01*
X15460372Y-14875660D02*
X15469896Y-14866136D01*
X15469896Y-14866136D02*
X15488944Y-14837565D01*
X15488944Y-14837565D02*
X15498467Y-14799469D01*
X15498467Y-14799469D02*
X15498467Y-14723279D01*
X15498467Y-14723279D02*
X15488944Y-14704231D01*
X15488944Y-14704231D02*
X15479420Y-14694708D01*
X15479420Y-14694708D02*
X15460372Y-14685184D01*
X15460372Y-14685184D02*
X15422277Y-14685184D01*
X15422277Y-14685184D02*
X15403229Y-14694708D01*
X15403229Y-14694708D02*
X15393706Y-14704231D01*
X15393706Y-14704231D02*
X15384182Y-14723279D01*
X15384182Y-14723279D02*
X15384182Y-14770898D01*
X15384182Y-14770898D02*
X15393706Y-14789946D01*
X15393706Y-14789946D02*
X15403229Y-14799469D01*
X15403229Y-14799469D02*
X15422277Y-14808993D01*
X15422277Y-14808993D02*
X15460372Y-14808993D01*
X15460372Y-14808993D02*
X15479420Y-14799469D01*
X15479420Y-14799469D02*
X15488944Y-14789946D01*
X15488944Y-14789946D02*
X15498467Y-14770898D01*
X15669896Y-14751850D02*
X15669896Y-14885184D01*
X15622277Y-14675660D02*
X15574658Y-14818517D01*
X15574658Y-14818517D02*
X15698467Y-14818517D01*
X15765134Y-14685184D02*
X15765134Y-14723279D01*
X15841325Y-14685184D02*
X15841325Y-14723279D01*
X16136563Y-14961374D02*
X16127039Y-14951850D01*
X16127039Y-14951850D02*
X16107991Y-14923279D01*
X16107991Y-14923279D02*
X16098468Y-14904231D01*
X16098468Y-14904231D02*
X16088944Y-14875660D01*
X16088944Y-14875660D02*
X16079420Y-14828041D01*
X16079420Y-14828041D02*
X16079420Y-14789946D01*
X16079420Y-14789946D02*
X16088944Y-14742327D01*
X16088944Y-14742327D02*
X16098468Y-14713755D01*
X16098468Y-14713755D02*
X16107991Y-14694708D01*
X16107991Y-14694708D02*
X16127039Y-14666136D01*
X16127039Y-14666136D02*
X16136563Y-14656612D01*
X16193706Y-14685184D02*
X16317515Y-14685184D01*
X16317515Y-14685184D02*
X16250848Y-14761374D01*
X16250848Y-14761374D02*
X16279420Y-14761374D01*
X16279420Y-14761374D02*
X16298468Y-14770898D01*
X16298468Y-14770898D02*
X16307991Y-14780422D01*
X16307991Y-14780422D02*
X16317515Y-14799469D01*
X16317515Y-14799469D02*
X16317515Y-14847088D01*
X16317515Y-14847088D02*
X16307991Y-14866136D01*
X16307991Y-14866136D02*
X16298468Y-14875660D01*
X16298468Y-14875660D02*
X16279420Y-14885184D01*
X16279420Y-14885184D02*
X16222277Y-14885184D01*
X16222277Y-14885184D02*
X16203229Y-14875660D01*
X16203229Y-14875660D02*
X16193706Y-14866136D01*
X16431801Y-14770898D02*
X16412753Y-14761374D01*
X16412753Y-14761374D02*
X16403229Y-14751850D01*
X16403229Y-14751850D02*
X16393706Y-14732803D01*
X16393706Y-14732803D02*
X16393706Y-14723279D01*
X16393706Y-14723279D02*
X16403229Y-14704231D01*
X16403229Y-14704231D02*
X16412753Y-14694708D01*
X16412753Y-14694708D02*
X16431801Y-14685184D01*
X16431801Y-14685184D02*
X16469896Y-14685184D01*
X16469896Y-14685184D02*
X16488944Y-14694708D01*
X16488944Y-14694708D02*
X16498468Y-14704231D01*
X16498468Y-14704231D02*
X16507991Y-14723279D01*
X16507991Y-14723279D02*
X16507991Y-14732803D01*
X16507991Y-14732803D02*
X16498468Y-14751850D01*
X16498468Y-14751850D02*
X16488944Y-14761374D01*
X16488944Y-14761374D02*
X16469896Y-14770898D01*
X16469896Y-14770898D02*
X16431801Y-14770898D01*
X16431801Y-14770898D02*
X16412753Y-14780422D01*
X16412753Y-14780422D02*
X16403229Y-14789946D01*
X16403229Y-14789946D02*
X16393706Y-14808993D01*
X16393706Y-14808993D02*
X16393706Y-14847088D01*
X16393706Y-14847088D02*
X16403229Y-14866136D01*
X16403229Y-14866136D02*
X16412753Y-14875660D01*
X16412753Y-14875660D02*
X16431801Y-14885184D01*
X16431801Y-14885184D02*
X16469896Y-14885184D01*
X16469896Y-14885184D02*
X16488944Y-14875660D01*
X16488944Y-14875660D02*
X16498468Y-14866136D01*
X16498468Y-14866136D02*
X16507991Y-14847088D01*
X16507991Y-14847088D02*
X16507991Y-14808993D01*
X16507991Y-14808993D02*
X16498468Y-14789946D01*
X16498468Y-14789946D02*
X16488944Y-14780422D01*
X16488944Y-14780422D02*
X16469896Y-14770898D01*
X16746087Y-14885184D02*
X16746087Y-14685184D01*
X16831801Y-14885184D02*
X16831801Y-14780422D01*
X16831801Y-14780422D02*
X16822277Y-14761374D01*
X16822277Y-14761374D02*
X16803230Y-14751850D01*
X16803230Y-14751850D02*
X16774658Y-14751850D01*
X16774658Y-14751850D02*
X16755610Y-14761374D01*
X16755610Y-14761374D02*
X16746087Y-14770898D01*
X16955611Y-14885184D02*
X16936563Y-14875660D01*
X16936563Y-14875660D02*
X16927039Y-14866136D01*
X16927039Y-14866136D02*
X16917515Y-14847088D01*
X16917515Y-14847088D02*
X16917515Y-14789946D01*
X16917515Y-14789946D02*
X16927039Y-14770898D01*
X16927039Y-14770898D02*
X16936563Y-14761374D01*
X16936563Y-14761374D02*
X16955611Y-14751850D01*
X16955611Y-14751850D02*
X16984182Y-14751850D01*
X16984182Y-14751850D02*
X17003230Y-14761374D01*
X17003230Y-14761374D02*
X17012753Y-14770898D01*
X17012753Y-14770898D02*
X17022277Y-14789946D01*
X17022277Y-14789946D02*
X17022277Y-14847088D01*
X17022277Y-14847088D02*
X17012753Y-14866136D01*
X17012753Y-14866136D02*
X17003230Y-14875660D01*
X17003230Y-14875660D02*
X16984182Y-14885184D01*
X16984182Y-14885184D02*
X16955611Y-14885184D01*
X17136563Y-14885184D02*
X17117515Y-14875660D01*
X17117515Y-14875660D02*
X17107992Y-14856612D01*
X17107992Y-14856612D02*
X17107992Y-14685184D01*
X17288944Y-14875660D02*
X17269896Y-14885184D01*
X17269896Y-14885184D02*
X17231801Y-14885184D01*
X17231801Y-14885184D02*
X17212753Y-14875660D01*
X17212753Y-14875660D02*
X17203230Y-14856612D01*
X17203230Y-14856612D02*
X17203230Y-14780422D01*
X17203230Y-14780422D02*
X17212753Y-14761374D01*
X17212753Y-14761374D02*
X17231801Y-14751850D01*
X17231801Y-14751850D02*
X17269896Y-14751850D01*
X17269896Y-14751850D02*
X17288944Y-14761374D01*
X17288944Y-14761374D02*
X17298468Y-14780422D01*
X17298468Y-14780422D02*
X17298468Y-14799469D01*
X17298468Y-14799469D02*
X17203230Y-14818517D01*
X17374658Y-14875660D02*
X17393706Y-14885184D01*
X17393706Y-14885184D02*
X17431801Y-14885184D01*
X17431801Y-14885184D02*
X17450849Y-14875660D01*
X17450849Y-14875660D02*
X17460373Y-14856612D01*
X17460373Y-14856612D02*
X17460373Y-14847088D01*
X17460373Y-14847088D02*
X17450849Y-14828041D01*
X17450849Y-14828041D02*
X17431801Y-14818517D01*
X17431801Y-14818517D02*
X17403230Y-14818517D01*
X17403230Y-14818517D02*
X17384182Y-14808993D01*
X17384182Y-14808993D02*
X17374658Y-14789946D01*
X17374658Y-14789946D02*
X17374658Y-14780422D01*
X17374658Y-14780422D02*
X17384182Y-14761374D01*
X17384182Y-14761374D02*
X17403230Y-14751850D01*
X17403230Y-14751850D02*
X17431801Y-14751850D01*
X17431801Y-14751850D02*
X17450849Y-14761374D01*
X17527039Y-14961374D02*
X17536563Y-14951850D01*
X17536563Y-14951850D02*
X17555611Y-14923279D01*
X17555611Y-14923279D02*
X17565134Y-14904231D01*
X17565134Y-14904231D02*
X17574658Y-14875660D01*
X17574658Y-14875660D02*
X17584182Y-14828041D01*
X17584182Y-14828041D02*
X17584182Y-14789946D01*
X17584182Y-14789946D02*
X17574658Y-14742327D01*
X17574658Y-14742327D02*
X17565134Y-14713755D01*
X17565134Y-14713755D02*
X17555611Y-14694708D01*
X17555611Y-14694708D02*
X17536563Y-14666136D01*
X17536563Y-14666136D02*
X17527039Y-14656612D01*
M02*
