%TF.GenerationSoftware,KiCad,Pcbnew,9.0.4*%
%TF.CreationDate,2025-09-04T16:15:57+01:00*%
%TF.ProjectId,MicroPython,4d696372-6f50-4797-9468-6f6e2e6b6963,rev?*%
%TF.SameCoordinates,Original*%
%TF.FileFunction,Drillmap*%
%TF.FilePolarity,Positive*%
%FSLAX45Y45*%
G04 Gerber Fmt 4.5, Leading zero omitted, Abs format (unit mm)*
G04 Created by KiCad (PCBNEW 9.0.4) date 2025-09-04 16:15:57*
%MOMM*%
%LPD*%
G01*
G04 APERTURE LIST*
%ADD10C,0.230000*%
%ADD11C,0.200000*%
%ADD12C,0.100000*%
G04 APERTURE END LIST*
D10*
X12700000Y-5029200D02*
X16002000Y-5029200D01*
X16002000Y-9220200D01*
X12700000Y-9220200D01*
X12700000Y-5029200D01*
D11*
D12*
X14080300Y-5638200D02*
X14145300Y-5703200D01*
X14145300Y-5638200D02*
X14080300Y-5703200D01*
X14658300Y-5638200D02*
X14723300Y-5703200D01*
X14723300Y-5638200D02*
X14658300Y-5703200D01*
D11*
X12949277Y-9543184D02*
X12949277Y-9343184D01*
X12949277Y-9343184D02*
X12996896Y-9343184D01*
X12996896Y-9343184D02*
X13025467Y-9352708D01*
X13025467Y-9352708D02*
X13044515Y-9371755D01*
X13044515Y-9371755D02*
X13054039Y-9390803D01*
X13054039Y-9390803D02*
X13063562Y-9428898D01*
X13063562Y-9428898D02*
X13063562Y-9457470D01*
X13063562Y-9457470D02*
X13054039Y-9495565D01*
X13054039Y-9495565D02*
X13044515Y-9514612D01*
X13044515Y-9514612D02*
X13025467Y-9533660D01*
X13025467Y-9533660D02*
X12996896Y-9543184D01*
X12996896Y-9543184D02*
X12949277Y-9543184D01*
X13149277Y-9543184D02*
X13149277Y-9409850D01*
X13149277Y-9447946D02*
X13158801Y-9428898D01*
X13158801Y-9428898D02*
X13168324Y-9419374D01*
X13168324Y-9419374D02*
X13187372Y-9409850D01*
X13187372Y-9409850D02*
X13206420Y-9409850D01*
X13273086Y-9543184D02*
X13273086Y-9409850D01*
X13273086Y-9343184D02*
X13263562Y-9352708D01*
X13263562Y-9352708D02*
X13273086Y-9362231D01*
X13273086Y-9362231D02*
X13282610Y-9352708D01*
X13282610Y-9352708D02*
X13273086Y-9343184D01*
X13273086Y-9343184D02*
X13273086Y-9362231D01*
X13396896Y-9543184D02*
X13377848Y-9533660D01*
X13377848Y-9533660D02*
X13368324Y-9514612D01*
X13368324Y-9514612D02*
X13368324Y-9343184D01*
X13501658Y-9543184D02*
X13482610Y-9533660D01*
X13482610Y-9533660D02*
X13473086Y-9514612D01*
X13473086Y-9514612D02*
X13473086Y-9343184D01*
X13730229Y-9543184D02*
X13730229Y-9343184D01*
X13730229Y-9343184D02*
X13796896Y-9486041D01*
X13796896Y-9486041D02*
X13863562Y-9343184D01*
X13863562Y-9343184D02*
X13863562Y-9543184D01*
X14044515Y-9543184D02*
X14044515Y-9438422D01*
X14044515Y-9438422D02*
X14034991Y-9419374D01*
X14034991Y-9419374D02*
X14015943Y-9409850D01*
X14015943Y-9409850D02*
X13977848Y-9409850D01*
X13977848Y-9409850D02*
X13958801Y-9419374D01*
X14044515Y-9533660D02*
X14025467Y-9543184D01*
X14025467Y-9543184D02*
X13977848Y-9543184D01*
X13977848Y-9543184D02*
X13958801Y-9533660D01*
X13958801Y-9533660D02*
X13949277Y-9514612D01*
X13949277Y-9514612D02*
X13949277Y-9495565D01*
X13949277Y-9495565D02*
X13958801Y-9476517D01*
X13958801Y-9476517D02*
X13977848Y-9466993D01*
X13977848Y-9466993D02*
X14025467Y-9466993D01*
X14025467Y-9466993D02*
X14044515Y-9457470D01*
X14139753Y-9409850D02*
X14139753Y-9609850D01*
X14139753Y-9419374D02*
X14158801Y-9409850D01*
X14158801Y-9409850D02*
X14196896Y-9409850D01*
X14196896Y-9409850D02*
X14215943Y-9419374D01*
X14215943Y-9419374D02*
X14225467Y-9428898D01*
X14225467Y-9428898D02*
X14234991Y-9447946D01*
X14234991Y-9447946D02*
X14234991Y-9505089D01*
X14234991Y-9505089D02*
X14225467Y-9524136D01*
X14225467Y-9524136D02*
X14215943Y-9533660D01*
X14215943Y-9533660D02*
X14196896Y-9543184D01*
X14196896Y-9543184D02*
X14158801Y-9543184D01*
X14158801Y-9543184D02*
X14139753Y-9533660D01*
X14320705Y-9524136D02*
X14330229Y-9533660D01*
X14330229Y-9533660D02*
X14320705Y-9543184D01*
X14320705Y-9543184D02*
X14311182Y-9533660D01*
X14311182Y-9533660D02*
X14320705Y-9524136D01*
X14320705Y-9524136D02*
X14320705Y-9543184D01*
X14320705Y-9419374D02*
X14330229Y-9428898D01*
X14330229Y-9428898D02*
X14320705Y-9438422D01*
X14320705Y-9438422D02*
X14311182Y-9428898D01*
X14311182Y-9428898D02*
X14320705Y-9419374D01*
X14320705Y-9419374D02*
X14320705Y-9438422D01*
D12*
X12623500Y-9839200D02*
X12688500Y-9904200D01*
X12688500Y-9839200D02*
X12623500Y-9904200D01*
D11*
X12987372Y-9763184D02*
X13006420Y-9763184D01*
X13006420Y-9763184D02*
X13025467Y-9772708D01*
X13025467Y-9772708D02*
X13034991Y-9782231D01*
X13034991Y-9782231D02*
X13044515Y-9801279D01*
X13044515Y-9801279D02*
X13054039Y-9839374D01*
X13054039Y-9839374D02*
X13054039Y-9886993D01*
X13054039Y-9886993D02*
X13044515Y-9925089D01*
X13044515Y-9925089D02*
X13034991Y-9944136D01*
X13034991Y-9944136D02*
X13025467Y-9953660D01*
X13025467Y-9953660D02*
X13006420Y-9963184D01*
X13006420Y-9963184D02*
X12987372Y-9963184D01*
X12987372Y-9963184D02*
X12968324Y-9953660D01*
X12968324Y-9953660D02*
X12958801Y-9944136D01*
X12958801Y-9944136D02*
X12949277Y-9925089D01*
X12949277Y-9925089D02*
X12939753Y-9886993D01*
X12939753Y-9886993D02*
X12939753Y-9839374D01*
X12939753Y-9839374D02*
X12949277Y-9801279D01*
X12949277Y-9801279D02*
X12958801Y-9782231D01*
X12958801Y-9782231D02*
X12968324Y-9772708D01*
X12968324Y-9772708D02*
X12987372Y-9763184D01*
X13139753Y-9944136D02*
X13149277Y-9953660D01*
X13149277Y-9953660D02*
X13139753Y-9963184D01*
X13139753Y-9963184D02*
X13130229Y-9953660D01*
X13130229Y-9953660D02*
X13139753Y-9944136D01*
X13139753Y-9944136D02*
X13139753Y-9963184D01*
X13320705Y-9763184D02*
X13282610Y-9763184D01*
X13282610Y-9763184D02*
X13263562Y-9772708D01*
X13263562Y-9772708D02*
X13254039Y-9782231D01*
X13254039Y-9782231D02*
X13234991Y-9810803D01*
X13234991Y-9810803D02*
X13225467Y-9848898D01*
X13225467Y-9848898D02*
X13225467Y-9925089D01*
X13225467Y-9925089D02*
X13234991Y-9944136D01*
X13234991Y-9944136D02*
X13244515Y-9953660D01*
X13244515Y-9953660D02*
X13263562Y-9963184D01*
X13263562Y-9963184D02*
X13301658Y-9963184D01*
X13301658Y-9963184D02*
X13320705Y-9953660D01*
X13320705Y-9953660D02*
X13330229Y-9944136D01*
X13330229Y-9944136D02*
X13339753Y-9925089D01*
X13339753Y-9925089D02*
X13339753Y-9877470D01*
X13339753Y-9877470D02*
X13330229Y-9858422D01*
X13330229Y-9858422D02*
X13320705Y-9848898D01*
X13320705Y-9848898D02*
X13301658Y-9839374D01*
X13301658Y-9839374D02*
X13263562Y-9839374D01*
X13263562Y-9839374D02*
X13244515Y-9848898D01*
X13244515Y-9848898D02*
X13234991Y-9858422D01*
X13234991Y-9858422D02*
X13225467Y-9877470D01*
X13520705Y-9763184D02*
X13425467Y-9763184D01*
X13425467Y-9763184D02*
X13415943Y-9858422D01*
X13415943Y-9858422D02*
X13425467Y-9848898D01*
X13425467Y-9848898D02*
X13444515Y-9839374D01*
X13444515Y-9839374D02*
X13492134Y-9839374D01*
X13492134Y-9839374D02*
X13511182Y-9848898D01*
X13511182Y-9848898D02*
X13520705Y-9858422D01*
X13520705Y-9858422D02*
X13530229Y-9877470D01*
X13530229Y-9877470D02*
X13530229Y-9925089D01*
X13530229Y-9925089D02*
X13520705Y-9944136D01*
X13520705Y-9944136D02*
X13511182Y-9953660D01*
X13511182Y-9953660D02*
X13492134Y-9963184D01*
X13492134Y-9963184D02*
X13444515Y-9963184D01*
X13444515Y-9963184D02*
X13425467Y-9953660D01*
X13425467Y-9953660D02*
X13415943Y-9944136D01*
X13654039Y-9763184D02*
X13673086Y-9763184D01*
X13673086Y-9763184D02*
X13692134Y-9772708D01*
X13692134Y-9772708D02*
X13701658Y-9782231D01*
X13701658Y-9782231D02*
X13711182Y-9801279D01*
X13711182Y-9801279D02*
X13720705Y-9839374D01*
X13720705Y-9839374D02*
X13720705Y-9886993D01*
X13720705Y-9886993D02*
X13711182Y-9925089D01*
X13711182Y-9925089D02*
X13701658Y-9944136D01*
X13701658Y-9944136D02*
X13692134Y-9953660D01*
X13692134Y-9953660D02*
X13673086Y-9963184D01*
X13673086Y-9963184D02*
X13654039Y-9963184D01*
X13654039Y-9963184D02*
X13634991Y-9953660D01*
X13634991Y-9953660D02*
X13625467Y-9944136D01*
X13625467Y-9944136D02*
X13615943Y-9925089D01*
X13615943Y-9925089D02*
X13606420Y-9886993D01*
X13606420Y-9886993D02*
X13606420Y-9839374D01*
X13606420Y-9839374D02*
X13615943Y-9801279D01*
X13615943Y-9801279D02*
X13625467Y-9782231D01*
X13625467Y-9782231D02*
X13634991Y-9772708D01*
X13634991Y-9772708D02*
X13654039Y-9763184D01*
X13806420Y-9963184D02*
X13806420Y-9829850D01*
X13806420Y-9848898D02*
X13815943Y-9839374D01*
X13815943Y-9839374D02*
X13834991Y-9829850D01*
X13834991Y-9829850D02*
X13863563Y-9829850D01*
X13863563Y-9829850D02*
X13882610Y-9839374D01*
X13882610Y-9839374D02*
X13892134Y-9858422D01*
X13892134Y-9858422D02*
X13892134Y-9963184D01*
X13892134Y-9858422D02*
X13901658Y-9839374D01*
X13901658Y-9839374D02*
X13920705Y-9829850D01*
X13920705Y-9829850D02*
X13949277Y-9829850D01*
X13949277Y-9829850D02*
X13968324Y-9839374D01*
X13968324Y-9839374D02*
X13977848Y-9858422D01*
X13977848Y-9858422D02*
X13977848Y-9963184D01*
X14073086Y-9963184D02*
X14073086Y-9829850D01*
X14073086Y-9848898D02*
X14082610Y-9839374D01*
X14082610Y-9839374D02*
X14101658Y-9829850D01*
X14101658Y-9829850D02*
X14130229Y-9829850D01*
X14130229Y-9829850D02*
X14149277Y-9839374D01*
X14149277Y-9839374D02*
X14158801Y-9858422D01*
X14158801Y-9858422D02*
X14158801Y-9963184D01*
X14158801Y-9858422D02*
X14168324Y-9839374D01*
X14168324Y-9839374D02*
X14187372Y-9829850D01*
X14187372Y-9829850D02*
X14215943Y-9829850D01*
X14215943Y-9829850D02*
X14234991Y-9839374D01*
X14234991Y-9839374D02*
X14244515Y-9858422D01*
X14244515Y-9858422D02*
X14244515Y-9963184D01*
X14634991Y-9753660D02*
X14463563Y-10010803D01*
X14892134Y-9763184D02*
X14911182Y-9763184D01*
X14911182Y-9763184D02*
X14930229Y-9772708D01*
X14930229Y-9772708D02*
X14939753Y-9782231D01*
X14939753Y-9782231D02*
X14949277Y-9801279D01*
X14949277Y-9801279D02*
X14958801Y-9839374D01*
X14958801Y-9839374D02*
X14958801Y-9886993D01*
X14958801Y-9886993D02*
X14949277Y-9925089D01*
X14949277Y-9925089D02*
X14939753Y-9944136D01*
X14939753Y-9944136D02*
X14930229Y-9953660D01*
X14930229Y-9953660D02*
X14911182Y-9963184D01*
X14911182Y-9963184D02*
X14892134Y-9963184D01*
X14892134Y-9963184D02*
X14873086Y-9953660D01*
X14873086Y-9953660D02*
X14863563Y-9944136D01*
X14863563Y-9944136D02*
X14854039Y-9925089D01*
X14854039Y-9925089D02*
X14844515Y-9886993D01*
X14844515Y-9886993D02*
X14844515Y-9839374D01*
X14844515Y-9839374D02*
X14854039Y-9801279D01*
X14854039Y-9801279D02*
X14863563Y-9782231D01*
X14863563Y-9782231D02*
X14873086Y-9772708D01*
X14873086Y-9772708D02*
X14892134Y-9763184D01*
X15044515Y-9944136D02*
X15054039Y-9953660D01*
X15054039Y-9953660D02*
X15044515Y-9963184D01*
X15044515Y-9963184D02*
X15034991Y-9953660D01*
X15034991Y-9953660D02*
X15044515Y-9944136D01*
X15044515Y-9944136D02*
X15044515Y-9963184D01*
X15177848Y-9763184D02*
X15196896Y-9763184D01*
X15196896Y-9763184D02*
X15215944Y-9772708D01*
X15215944Y-9772708D02*
X15225467Y-9782231D01*
X15225467Y-9782231D02*
X15234991Y-9801279D01*
X15234991Y-9801279D02*
X15244515Y-9839374D01*
X15244515Y-9839374D02*
X15244515Y-9886993D01*
X15244515Y-9886993D02*
X15234991Y-9925089D01*
X15234991Y-9925089D02*
X15225467Y-9944136D01*
X15225467Y-9944136D02*
X15215944Y-9953660D01*
X15215944Y-9953660D02*
X15196896Y-9963184D01*
X15196896Y-9963184D02*
X15177848Y-9963184D01*
X15177848Y-9963184D02*
X15158801Y-9953660D01*
X15158801Y-9953660D02*
X15149277Y-9944136D01*
X15149277Y-9944136D02*
X15139753Y-9925089D01*
X15139753Y-9925089D02*
X15130229Y-9886993D01*
X15130229Y-9886993D02*
X15130229Y-9839374D01*
X15130229Y-9839374D02*
X15139753Y-9801279D01*
X15139753Y-9801279D02*
X15149277Y-9782231D01*
X15149277Y-9782231D02*
X15158801Y-9772708D01*
X15158801Y-9772708D02*
X15177848Y-9763184D01*
X15320706Y-9782231D02*
X15330229Y-9772708D01*
X15330229Y-9772708D02*
X15349277Y-9763184D01*
X15349277Y-9763184D02*
X15396896Y-9763184D01*
X15396896Y-9763184D02*
X15415944Y-9772708D01*
X15415944Y-9772708D02*
X15425467Y-9782231D01*
X15425467Y-9782231D02*
X15434991Y-9801279D01*
X15434991Y-9801279D02*
X15434991Y-9820327D01*
X15434991Y-9820327D02*
X15425467Y-9848898D01*
X15425467Y-9848898D02*
X15311182Y-9963184D01*
X15311182Y-9963184D02*
X15434991Y-9963184D01*
X15615944Y-9763184D02*
X15520706Y-9763184D01*
X15520706Y-9763184D02*
X15511182Y-9858422D01*
X15511182Y-9858422D02*
X15520706Y-9848898D01*
X15520706Y-9848898D02*
X15539753Y-9839374D01*
X15539753Y-9839374D02*
X15587372Y-9839374D01*
X15587372Y-9839374D02*
X15606420Y-9848898D01*
X15606420Y-9848898D02*
X15615944Y-9858422D01*
X15615944Y-9858422D02*
X15625467Y-9877470D01*
X15625467Y-9877470D02*
X15625467Y-9925089D01*
X15625467Y-9925089D02*
X15615944Y-9944136D01*
X15615944Y-9944136D02*
X15606420Y-9953660D01*
X15606420Y-9953660D02*
X15587372Y-9963184D01*
X15587372Y-9963184D02*
X15539753Y-9963184D01*
X15539753Y-9963184D02*
X15520706Y-9953660D01*
X15520706Y-9953660D02*
X15511182Y-9944136D01*
X15796896Y-9763184D02*
X15758801Y-9763184D01*
X15758801Y-9763184D02*
X15739753Y-9772708D01*
X15739753Y-9772708D02*
X15730229Y-9782231D01*
X15730229Y-9782231D02*
X15711182Y-9810803D01*
X15711182Y-9810803D02*
X15701658Y-9848898D01*
X15701658Y-9848898D02*
X15701658Y-9925089D01*
X15701658Y-9925089D02*
X15711182Y-9944136D01*
X15711182Y-9944136D02*
X15720706Y-9953660D01*
X15720706Y-9953660D02*
X15739753Y-9963184D01*
X15739753Y-9963184D02*
X15777848Y-9963184D01*
X15777848Y-9963184D02*
X15796896Y-9953660D01*
X15796896Y-9953660D02*
X15806420Y-9944136D01*
X15806420Y-9944136D02*
X15815944Y-9925089D01*
X15815944Y-9925089D02*
X15815944Y-9877470D01*
X15815944Y-9877470D02*
X15806420Y-9858422D01*
X15806420Y-9858422D02*
X15796896Y-9848898D01*
X15796896Y-9848898D02*
X15777848Y-9839374D01*
X15777848Y-9839374D02*
X15739753Y-9839374D01*
X15739753Y-9839374D02*
X15720706Y-9848898D01*
X15720706Y-9848898D02*
X15711182Y-9858422D01*
X15711182Y-9858422D02*
X15701658Y-9877470D01*
X15892134Y-9763184D02*
X15892134Y-9801279D01*
X15968325Y-9763184D02*
X15968325Y-9801279D01*
X16263563Y-10039374D02*
X16254039Y-10029850D01*
X16254039Y-10029850D02*
X16234991Y-10001279D01*
X16234991Y-10001279D02*
X16225468Y-9982231D01*
X16225468Y-9982231D02*
X16215944Y-9953660D01*
X16215944Y-9953660D02*
X16206420Y-9906041D01*
X16206420Y-9906041D02*
X16206420Y-9867946D01*
X16206420Y-9867946D02*
X16215944Y-9820327D01*
X16215944Y-9820327D02*
X16225468Y-9791755D01*
X16225468Y-9791755D02*
X16234991Y-9772708D01*
X16234991Y-9772708D02*
X16254039Y-9744136D01*
X16254039Y-9744136D02*
X16263563Y-9734612D01*
X16330229Y-9782231D02*
X16339753Y-9772708D01*
X16339753Y-9772708D02*
X16358801Y-9763184D01*
X16358801Y-9763184D02*
X16406420Y-9763184D01*
X16406420Y-9763184D02*
X16425468Y-9772708D01*
X16425468Y-9772708D02*
X16434991Y-9782231D01*
X16434991Y-9782231D02*
X16444515Y-9801279D01*
X16444515Y-9801279D02*
X16444515Y-9820327D01*
X16444515Y-9820327D02*
X16434991Y-9848898D01*
X16434991Y-9848898D02*
X16320706Y-9963184D01*
X16320706Y-9963184D02*
X16444515Y-9963184D01*
X16682610Y-9963184D02*
X16682610Y-9763184D01*
X16768325Y-9963184D02*
X16768325Y-9858422D01*
X16768325Y-9858422D02*
X16758801Y-9839374D01*
X16758801Y-9839374D02*
X16739753Y-9829850D01*
X16739753Y-9829850D02*
X16711182Y-9829850D01*
X16711182Y-9829850D02*
X16692134Y-9839374D01*
X16692134Y-9839374D02*
X16682610Y-9848898D01*
X16892134Y-9963184D02*
X16873087Y-9953660D01*
X16873087Y-9953660D02*
X16863563Y-9944136D01*
X16863563Y-9944136D02*
X16854039Y-9925089D01*
X16854039Y-9925089D02*
X16854039Y-9867946D01*
X16854039Y-9867946D02*
X16863563Y-9848898D01*
X16863563Y-9848898D02*
X16873087Y-9839374D01*
X16873087Y-9839374D02*
X16892134Y-9829850D01*
X16892134Y-9829850D02*
X16920706Y-9829850D01*
X16920706Y-9829850D02*
X16939753Y-9839374D01*
X16939753Y-9839374D02*
X16949277Y-9848898D01*
X16949277Y-9848898D02*
X16958801Y-9867946D01*
X16958801Y-9867946D02*
X16958801Y-9925089D01*
X16958801Y-9925089D02*
X16949277Y-9944136D01*
X16949277Y-9944136D02*
X16939753Y-9953660D01*
X16939753Y-9953660D02*
X16920706Y-9963184D01*
X16920706Y-9963184D02*
X16892134Y-9963184D01*
X17073087Y-9963184D02*
X17054039Y-9953660D01*
X17054039Y-9953660D02*
X17044515Y-9934612D01*
X17044515Y-9934612D02*
X17044515Y-9763184D01*
X17225468Y-9953660D02*
X17206420Y-9963184D01*
X17206420Y-9963184D02*
X17168325Y-9963184D01*
X17168325Y-9963184D02*
X17149277Y-9953660D01*
X17149277Y-9953660D02*
X17139753Y-9934612D01*
X17139753Y-9934612D02*
X17139753Y-9858422D01*
X17139753Y-9858422D02*
X17149277Y-9839374D01*
X17149277Y-9839374D02*
X17168325Y-9829850D01*
X17168325Y-9829850D02*
X17206420Y-9829850D01*
X17206420Y-9829850D02*
X17225468Y-9839374D01*
X17225468Y-9839374D02*
X17234992Y-9858422D01*
X17234992Y-9858422D02*
X17234992Y-9877470D01*
X17234992Y-9877470D02*
X17139753Y-9896517D01*
X17311182Y-9953660D02*
X17330230Y-9963184D01*
X17330230Y-9963184D02*
X17368325Y-9963184D01*
X17368325Y-9963184D02*
X17387373Y-9953660D01*
X17387373Y-9953660D02*
X17396896Y-9934612D01*
X17396896Y-9934612D02*
X17396896Y-9925089D01*
X17396896Y-9925089D02*
X17387373Y-9906041D01*
X17387373Y-9906041D02*
X17368325Y-9896517D01*
X17368325Y-9896517D02*
X17339753Y-9896517D01*
X17339753Y-9896517D02*
X17320706Y-9886993D01*
X17320706Y-9886993D02*
X17311182Y-9867946D01*
X17311182Y-9867946D02*
X17311182Y-9858422D01*
X17311182Y-9858422D02*
X17320706Y-9839374D01*
X17320706Y-9839374D02*
X17339753Y-9829850D01*
X17339753Y-9829850D02*
X17368325Y-9829850D01*
X17368325Y-9829850D02*
X17387373Y-9839374D01*
X17463563Y-10039374D02*
X17473087Y-10029850D01*
X17473087Y-10029850D02*
X17492134Y-10001279D01*
X17492134Y-10001279D02*
X17501658Y-9982231D01*
X17501658Y-9982231D02*
X17511182Y-9953660D01*
X17511182Y-9953660D02*
X17520706Y-9906041D01*
X17520706Y-9906041D02*
X17520706Y-9867946D01*
X17520706Y-9867946D02*
X17511182Y-9820327D01*
X17511182Y-9820327D02*
X17501658Y-9791755D01*
X17501658Y-9791755D02*
X17492134Y-9772708D01*
X17492134Y-9772708D02*
X17473087Y-9744136D01*
X17473087Y-9744136D02*
X17463563Y-9734612D01*
X17825468Y-10039374D02*
X17815944Y-10029850D01*
X17815944Y-10029850D02*
X17796896Y-10001279D01*
X17796896Y-10001279D02*
X17787373Y-9982231D01*
X17787373Y-9982231D02*
X17777849Y-9953660D01*
X17777849Y-9953660D02*
X17768325Y-9906041D01*
X17768325Y-9906041D02*
X17768325Y-9867946D01*
X17768325Y-9867946D02*
X17777849Y-9820327D01*
X17777849Y-9820327D02*
X17787373Y-9791755D01*
X17787373Y-9791755D02*
X17796896Y-9772708D01*
X17796896Y-9772708D02*
X17815944Y-9744136D01*
X17815944Y-9744136D02*
X17825468Y-9734612D01*
X17901658Y-9829850D02*
X17901658Y-9963184D01*
X17901658Y-9848898D02*
X17911182Y-9839374D01*
X17911182Y-9839374D02*
X17930230Y-9829850D01*
X17930230Y-9829850D02*
X17958801Y-9829850D01*
X17958801Y-9829850D02*
X17977849Y-9839374D01*
X17977849Y-9839374D02*
X17987373Y-9858422D01*
X17987373Y-9858422D02*
X17987373Y-9963184D01*
X18111182Y-9963184D02*
X18092134Y-9953660D01*
X18092134Y-9953660D02*
X18082611Y-9944136D01*
X18082611Y-9944136D02*
X18073087Y-9925089D01*
X18073087Y-9925089D02*
X18073087Y-9867946D01*
X18073087Y-9867946D02*
X18082611Y-9848898D01*
X18082611Y-9848898D02*
X18092134Y-9839374D01*
X18092134Y-9839374D02*
X18111182Y-9829850D01*
X18111182Y-9829850D02*
X18139754Y-9829850D01*
X18139754Y-9829850D02*
X18158801Y-9839374D01*
X18158801Y-9839374D02*
X18168325Y-9848898D01*
X18168325Y-9848898D02*
X18177849Y-9867946D01*
X18177849Y-9867946D02*
X18177849Y-9925089D01*
X18177849Y-9925089D02*
X18168325Y-9944136D01*
X18168325Y-9944136D02*
X18158801Y-9953660D01*
X18158801Y-9953660D02*
X18139754Y-9963184D01*
X18139754Y-9963184D02*
X18111182Y-9963184D01*
X18234992Y-9829850D02*
X18311182Y-9829850D01*
X18263563Y-9763184D02*
X18263563Y-9934612D01*
X18263563Y-9934612D02*
X18273087Y-9953660D01*
X18273087Y-9953660D02*
X18292134Y-9963184D01*
X18292134Y-9963184D02*
X18311182Y-9963184D01*
X18530230Y-9829850D02*
X18530230Y-10029850D01*
X18530230Y-9839374D02*
X18549277Y-9829850D01*
X18549277Y-9829850D02*
X18587373Y-9829850D01*
X18587373Y-9829850D02*
X18606420Y-9839374D01*
X18606420Y-9839374D02*
X18615944Y-9848898D01*
X18615944Y-9848898D02*
X18625468Y-9867946D01*
X18625468Y-9867946D02*
X18625468Y-9925089D01*
X18625468Y-9925089D02*
X18615944Y-9944136D01*
X18615944Y-9944136D02*
X18606420Y-9953660D01*
X18606420Y-9953660D02*
X18587373Y-9963184D01*
X18587373Y-9963184D02*
X18549277Y-9963184D01*
X18549277Y-9963184D02*
X18530230Y-9953660D01*
X18739754Y-9963184D02*
X18720706Y-9953660D01*
X18720706Y-9953660D02*
X18711182Y-9934612D01*
X18711182Y-9934612D02*
X18711182Y-9763184D01*
X18901658Y-9963184D02*
X18901658Y-9858422D01*
X18901658Y-9858422D02*
X18892135Y-9839374D01*
X18892135Y-9839374D02*
X18873087Y-9829850D01*
X18873087Y-9829850D02*
X18834992Y-9829850D01*
X18834992Y-9829850D02*
X18815944Y-9839374D01*
X18901658Y-9953660D02*
X18882611Y-9963184D01*
X18882611Y-9963184D02*
X18834992Y-9963184D01*
X18834992Y-9963184D02*
X18815944Y-9953660D01*
X18815944Y-9953660D02*
X18806420Y-9934612D01*
X18806420Y-9934612D02*
X18806420Y-9915565D01*
X18806420Y-9915565D02*
X18815944Y-9896517D01*
X18815944Y-9896517D02*
X18834992Y-9886993D01*
X18834992Y-9886993D02*
X18882611Y-9886993D01*
X18882611Y-9886993D02*
X18901658Y-9877470D01*
X18968325Y-9829850D02*
X19044515Y-9829850D01*
X18996896Y-9763184D02*
X18996896Y-9934612D01*
X18996896Y-9934612D02*
X19006420Y-9953660D01*
X19006420Y-9953660D02*
X19025468Y-9963184D01*
X19025468Y-9963184D02*
X19044515Y-9963184D01*
X19187373Y-9953660D02*
X19168325Y-9963184D01*
X19168325Y-9963184D02*
X19130230Y-9963184D01*
X19130230Y-9963184D02*
X19111182Y-9953660D01*
X19111182Y-9953660D02*
X19101658Y-9934612D01*
X19101658Y-9934612D02*
X19101658Y-9858422D01*
X19101658Y-9858422D02*
X19111182Y-9839374D01*
X19111182Y-9839374D02*
X19130230Y-9829850D01*
X19130230Y-9829850D02*
X19168325Y-9829850D01*
X19168325Y-9829850D02*
X19187373Y-9839374D01*
X19187373Y-9839374D02*
X19196896Y-9858422D01*
X19196896Y-9858422D02*
X19196896Y-9877470D01*
X19196896Y-9877470D02*
X19101658Y-9896517D01*
X19368325Y-9963184D02*
X19368325Y-9763184D01*
X19368325Y-9953660D02*
X19349277Y-9963184D01*
X19349277Y-9963184D02*
X19311182Y-9963184D01*
X19311182Y-9963184D02*
X19292135Y-9953660D01*
X19292135Y-9953660D02*
X19282611Y-9944136D01*
X19282611Y-9944136D02*
X19273087Y-9925089D01*
X19273087Y-9925089D02*
X19273087Y-9867946D01*
X19273087Y-9867946D02*
X19282611Y-9848898D01*
X19282611Y-9848898D02*
X19292135Y-9839374D01*
X19292135Y-9839374D02*
X19311182Y-9829850D01*
X19311182Y-9829850D02*
X19349277Y-9829850D01*
X19349277Y-9829850D02*
X19368325Y-9839374D01*
X19444516Y-10039374D02*
X19454039Y-10029850D01*
X19454039Y-10029850D02*
X19473087Y-10001279D01*
X19473087Y-10001279D02*
X19482611Y-9982231D01*
X19482611Y-9982231D02*
X19492135Y-9953660D01*
X19492135Y-9953660D02*
X19501658Y-9906041D01*
X19501658Y-9906041D02*
X19501658Y-9867946D01*
X19501658Y-9867946D02*
X19492135Y-9820327D01*
X19492135Y-9820327D02*
X19482611Y-9791755D01*
X19482611Y-9791755D02*
X19473087Y-9772708D01*
X19473087Y-9772708D02*
X19454039Y-9744136D01*
X19454039Y-9744136D02*
X19444516Y-9734612D01*
M02*
