%TF.GenerationSoftware,KiCad,Pcbnew,9.0.4*%
%TF.CreationDate,2025-09-10T14:26:53+01:00*%
%TF.ProjectId,MicroPython,4d696372-6f50-4797-9468-6f6e2e6b6963,rev?*%
%TF.SameCoordinates,Original*%
%TF.FileFunction,Legend,Top*%
%TF.FilePolarity,Positive*%
%FSLAX46Y46*%
G04 Gerber Fmt 4.6, Leading zero omitted, Abs format (unit mm)*
G04 Created by KiCad (PCBNEW 9.0.4) date 2025-09-10 14:26:53*
%MOMM*%
%LPD*%
G01*
G04 APERTURE LIST*
G04 Aperture macros list*
%AMRoundRect*
0 Rectangle with rounded corners*
0 $1 Rounding radius*
0 $2 $3 $4 $5 $6 $7 $8 $9 X,Y pos of 4 corners*
0 Add a 4 corners polygon primitive as box body*
4,1,4,$2,$3,$4,$5,$6,$7,$8,$9,$2,$3,0*
0 Add four circle primitives for the rounded corners*
1,1,$1+$1,$2,$3*
1,1,$1+$1,$4,$5*
1,1,$1+$1,$6,$7*
1,1,$1+$1,$8,$9*
0 Add four rect primitives between the rounded corners*
20,1,$1+$1,$2,$3,$4,$5,0*
20,1,$1+$1,$4,$5,$6,$7,0*
20,1,$1+$1,$6,$7,$8,$9,0*
20,1,$1+$1,$8,$9,$2,$3,0*%
G04 Aperture macros list end*
%ADD10C,0.152400*%
%ADD11C,0.150000*%
%ADD12C,0.149860*%
%ADD13C,0.100000*%
%ADD14C,0.120000*%
%ADD15C,1.700000*%
%ADD16R,1.700000X1.700000*%
%ADD17RoundRect,0.218750X0.256250X-0.218750X0.256250X0.218750X-0.256250X0.218750X-0.256250X-0.218750X0*%
%ADD18O,1.000000X1.800000*%
%ADD19O,1.000000X2.100000*%
%ADD20RoundRect,0.150000X0.150000X0.400000X-0.150000X0.400000X-0.150000X-0.400000X0.150000X-0.400000X0*%
%ADD21RoundRect,0.075000X0.075000X0.500000X-0.075000X0.500000X-0.075000X-0.500000X0.075000X-0.500000X0*%
%ADD22RoundRect,0.150000X0.150000X0.425000X-0.150000X0.425000X-0.150000X-0.425000X0.150000X-0.425000X0*%
%ADD23C,0.650000*%
%ADD24RoundRect,0.135000X-0.185000X0.135000X-0.185000X-0.135000X0.185000X-0.135000X0.185000X0.135000X0*%
%ADD25RoundRect,0.140000X0.170000X-0.140000X0.170000X0.140000X-0.170000X0.140000X-0.170000X-0.140000X0*%
%ADD26RoundRect,0.135000X0.135000X0.185000X-0.135000X0.185000X-0.135000X-0.185000X0.135000X-0.185000X0*%
%ADD27RoundRect,0.140000X-0.170000X0.140000X-0.170000X-0.140000X0.170000X-0.140000X0.170000X0.140000X0*%
%ADD28RoundRect,0.250000X-0.300000X0.275000X-0.300000X-0.275000X0.300000X-0.275000X0.300000X0.275000X0*%
%ADD29RoundRect,0.225000X0.250000X-0.225000X0.250000X0.225000X-0.250000X0.225000X-0.250000X-0.225000X0*%
%ADD30RoundRect,0.147500X-0.172500X0.147500X-0.172500X-0.147500X0.172500X-0.147500X0.172500X0.147500X0*%
%ADD31RoundRect,0.135000X-0.135000X-0.185000X0.135000X-0.185000X0.135000X0.185000X-0.135000X0.185000X0*%
%ADD32RoundRect,0.225000X-0.250000X0.225000X-0.250000X-0.225000X0.250000X-0.225000X0.250000X0.225000X0*%
%ADD33RoundRect,0.225000X-0.225000X-0.250000X0.225000X-0.250000X0.225000X0.250000X-0.225000X0.250000X0*%
%ADD34RoundRect,0.135000X0.185000X-0.135000X0.185000X0.135000X-0.185000X0.135000X-0.185000X-0.135000X0*%
%ADD35RoundRect,0.140000X-0.140000X-0.170000X0.140000X-0.170000X0.140000X0.170000X-0.140000X0.170000X0*%
%ADD36RoundRect,0.250000X0.300000X0.300000X-0.300000X0.300000X-0.300000X-0.300000X0.300000X-0.300000X0*%
%ADD37R,0.900000X0.800000*%
%ADD38R,1.400000X1.600000*%
%ADD39RoundRect,0.140000X0.140000X0.170000X-0.140000X0.170000X-0.140000X-0.170000X0.140000X-0.170000X0*%
%ADD40RoundRect,0.225000X0.225000X0.250000X-0.225000X0.250000X-0.225000X-0.250000X0.225000X-0.250000X0*%
%ADD41RoundRect,0.075000X0.075000X-0.700000X0.075000X0.700000X-0.075000X0.700000X-0.075000X-0.700000X0*%
%ADD42RoundRect,0.075000X0.700000X-0.075000X0.700000X0.075000X-0.700000X0.075000X-0.700000X-0.075000X0*%
%ADD43RoundRect,0.150000X0.150000X-0.587500X0.150000X0.587500X-0.150000X0.587500X-0.150000X-0.587500X0*%
%TA.AperFunction,Profile*%
%ADD44C,0.230000*%
%TD*%
G04 APERTURE END LIST*
D10*
X129700866Y-95014188D02*
X129700866Y-95485902D01*
X129700866Y-95485902D02*
X129669419Y-95580245D01*
X129669419Y-95580245D02*
X129606523Y-95643141D01*
X129606523Y-95643141D02*
X129512181Y-95674588D01*
X129512181Y-95674588D02*
X129449285Y-95674588D01*
X130046790Y-95674588D02*
X130172581Y-95674588D01*
X130172581Y-95674588D02*
X130235476Y-95643141D01*
X130235476Y-95643141D02*
X130266924Y-95611693D01*
X130266924Y-95611693D02*
X130329819Y-95517350D01*
X130329819Y-95517350D02*
X130361266Y-95391560D01*
X130361266Y-95391560D02*
X130361266Y-95139979D01*
X130361266Y-95139979D02*
X130329819Y-95077083D01*
X130329819Y-95077083D02*
X130298371Y-95045636D01*
X130298371Y-95045636D02*
X130235476Y-95014188D01*
X130235476Y-95014188D02*
X130109685Y-95014188D01*
X130109685Y-95014188D02*
X130046790Y-95045636D01*
X130046790Y-95045636D02*
X130015343Y-95077083D01*
X130015343Y-95077083D02*
X129983895Y-95139979D01*
X129983895Y-95139979D02*
X129983895Y-95297217D01*
X129983895Y-95297217D02*
X130015343Y-95360112D01*
X130015343Y-95360112D02*
X130046790Y-95391560D01*
X130046790Y-95391560D02*
X130109685Y-95423007D01*
X130109685Y-95423007D02*
X130235476Y-95423007D01*
X130235476Y-95423007D02*
X130298371Y-95391560D01*
X130298371Y-95391560D02*
X130329819Y-95360112D01*
X130329819Y-95360112D02*
X130361266Y-95297217D01*
X153957866Y-95014188D02*
X153957866Y-95485902D01*
X153957866Y-95485902D02*
X153926419Y-95580245D01*
X153926419Y-95580245D02*
X153863523Y-95643141D01*
X153863523Y-95643141D02*
X153769181Y-95674588D01*
X153769181Y-95674588D02*
X153706285Y-95674588D01*
X154618266Y-95674588D02*
X154240895Y-95674588D01*
X154429581Y-95674588D02*
X154429581Y-95014188D01*
X154429581Y-95014188D02*
X154366685Y-95108531D01*
X154366685Y-95108531D02*
X154303790Y-95171426D01*
X154303790Y-95171426D02*
X154240895Y-95202874D01*
D11*
X149471913Y-135804037D02*
X148811513Y-135804037D01*
X148811513Y-135804037D02*
X148811513Y-135646799D01*
X148811513Y-135646799D02*
X148842961Y-135552456D01*
X148842961Y-135552456D02*
X148905856Y-135489561D01*
X148905856Y-135489561D02*
X148968751Y-135458114D01*
X148968751Y-135458114D02*
X149094542Y-135426666D01*
X149094542Y-135426666D02*
X149188885Y-135426666D01*
X149188885Y-135426666D02*
X149314675Y-135458114D01*
X149314675Y-135458114D02*
X149377570Y-135489561D01*
X149377570Y-135489561D02*
X149440466Y-135552456D01*
X149440466Y-135552456D02*
X149471913Y-135646799D01*
X149471913Y-135646799D02*
X149471913Y-135804037D01*
X148874408Y-135175085D02*
X148842961Y-135143637D01*
X148842961Y-135143637D02*
X148811513Y-135080742D01*
X148811513Y-135080742D02*
X148811513Y-134923504D01*
X148811513Y-134923504D02*
X148842961Y-134860609D01*
X148842961Y-134860609D02*
X148874408Y-134829161D01*
X148874408Y-134829161D02*
X148937304Y-134797714D01*
X148937304Y-134797714D02*
X149000199Y-134797714D01*
X149000199Y-134797714D02*
X149094542Y-134829161D01*
X149094542Y-134829161D02*
X149471913Y-135206533D01*
X149471913Y-135206533D02*
X149471913Y-134797714D01*
X151029780Y-135804037D02*
X150369380Y-135804037D01*
X150369380Y-135804037D02*
X150369380Y-135646799D01*
X150369380Y-135646799D02*
X150400828Y-135552456D01*
X150400828Y-135552456D02*
X150463723Y-135489561D01*
X150463723Y-135489561D02*
X150526618Y-135458114D01*
X150526618Y-135458114D02*
X150652409Y-135426666D01*
X150652409Y-135426666D02*
X150746752Y-135426666D01*
X150746752Y-135426666D02*
X150872542Y-135458114D01*
X150872542Y-135458114D02*
X150935437Y-135489561D01*
X150935437Y-135489561D02*
X150998333Y-135552456D01*
X150998333Y-135552456D02*
X151029780Y-135646799D01*
X151029780Y-135646799D02*
X151029780Y-135804037D01*
X150369380Y-135206533D02*
X150369380Y-134797714D01*
X150369380Y-134797714D02*
X150620961Y-135017847D01*
X150620961Y-135017847D02*
X150620961Y-134923504D01*
X150620961Y-134923504D02*
X150652409Y-134860609D01*
X150652409Y-134860609D02*
X150683856Y-134829161D01*
X150683856Y-134829161D02*
X150746752Y-134797714D01*
X150746752Y-134797714D02*
X150903990Y-134797714D01*
X150903990Y-134797714D02*
X150966885Y-134829161D01*
X150966885Y-134829161D02*
X150998333Y-134860609D01*
X150998333Y-134860609D02*
X151029780Y-134923504D01*
X151029780Y-134923504D02*
X151029780Y-135112190D01*
X151029780Y-135112190D02*
X150998333Y-135175085D01*
X150998333Y-135175085D02*
X150966885Y-135206533D01*
X152587646Y-135804037D02*
X151927246Y-135804037D01*
X151927246Y-135804037D02*
X151927246Y-135646799D01*
X151927246Y-135646799D02*
X151958694Y-135552456D01*
X151958694Y-135552456D02*
X152021589Y-135489561D01*
X152021589Y-135489561D02*
X152084484Y-135458114D01*
X152084484Y-135458114D02*
X152210275Y-135426666D01*
X152210275Y-135426666D02*
X152304618Y-135426666D01*
X152304618Y-135426666D02*
X152430408Y-135458114D01*
X152430408Y-135458114D02*
X152493303Y-135489561D01*
X152493303Y-135489561D02*
X152556199Y-135552456D01*
X152556199Y-135552456D02*
X152587646Y-135646799D01*
X152587646Y-135646799D02*
X152587646Y-135804037D01*
X152147379Y-134860609D02*
X152587646Y-134860609D01*
X151895799Y-135017847D02*
X152367513Y-135175085D01*
X152367513Y-135175085D02*
X152367513Y-134766266D01*
X154145513Y-135804037D02*
X153485113Y-135804037D01*
X153485113Y-135804037D02*
X153485113Y-135646799D01*
X153485113Y-135646799D02*
X153516561Y-135552456D01*
X153516561Y-135552456D02*
X153579456Y-135489561D01*
X153579456Y-135489561D02*
X153642351Y-135458114D01*
X153642351Y-135458114D02*
X153768142Y-135426666D01*
X153768142Y-135426666D02*
X153862485Y-135426666D01*
X153862485Y-135426666D02*
X153988275Y-135458114D01*
X153988275Y-135458114D02*
X154051170Y-135489561D01*
X154051170Y-135489561D02*
X154114066Y-135552456D01*
X154114066Y-135552456D02*
X154145513Y-135646799D01*
X154145513Y-135646799D02*
X154145513Y-135804037D01*
X153485113Y-134829161D02*
X153485113Y-135143637D01*
X153485113Y-135143637D02*
X153799589Y-135175085D01*
X153799589Y-135175085D02*
X153768142Y-135143637D01*
X153768142Y-135143637D02*
X153736694Y-135080742D01*
X153736694Y-135080742D02*
X153736694Y-134923504D01*
X153736694Y-134923504D02*
X153768142Y-134860609D01*
X153768142Y-134860609D02*
X153799589Y-134829161D01*
X153799589Y-134829161D02*
X153862485Y-134797714D01*
X153862485Y-134797714D02*
X154019723Y-134797714D01*
X154019723Y-134797714D02*
X154082618Y-134829161D01*
X154082618Y-134829161D02*
X154114066Y-134860609D01*
X154114066Y-134860609D02*
X154145513Y-134923504D01*
X154145513Y-134923504D02*
X154145513Y-135080742D01*
X154145513Y-135080742D02*
X154114066Y-135143637D01*
X154114066Y-135143637D02*
X154082618Y-135175085D01*
X135609390Y-96157313D02*
X135609390Y-96629027D01*
X135609390Y-96629027D02*
X135577943Y-96723370D01*
X135577943Y-96723370D02*
X135515047Y-96786266D01*
X135515047Y-96786266D02*
X135420705Y-96817713D01*
X135420705Y-96817713D02*
X135357809Y-96817713D01*
X136269790Y-96817713D02*
X135892419Y-96817713D01*
X136081105Y-96817713D02*
X136081105Y-96157313D01*
X136081105Y-96157313D02*
X136018209Y-96251656D01*
X136018209Y-96251656D02*
X135955314Y-96314551D01*
X135955314Y-96314551D02*
X135892419Y-96345999D01*
X136678609Y-96157313D02*
X136741504Y-96157313D01*
X136741504Y-96157313D02*
X136804400Y-96188761D01*
X136804400Y-96188761D02*
X136835847Y-96220208D01*
X136835847Y-96220208D02*
X136867295Y-96283104D01*
X136867295Y-96283104D02*
X136898742Y-96408894D01*
X136898742Y-96408894D02*
X136898742Y-96566132D01*
X136898742Y-96566132D02*
X136867295Y-96691923D01*
X136867295Y-96691923D02*
X136835847Y-96754818D01*
X136835847Y-96754818D02*
X136804400Y-96786266D01*
X136804400Y-96786266D02*
X136741504Y-96817713D01*
X136741504Y-96817713D02*
X136678609Y-96817713D01*
X136678609Y-96817713D02*
X136615714Y-96786266D01*
X136615714Y-96786266D02*
X136584266Y-96754818D01*
X136584266Y-96754818D02*
X136552819Y-96691923D01*
X136552819Y-96691923D02*
X136521371Y-96566132D01*
X136521371Y-96566132D02*
X136521371Y-96408894D01*
X136521371Y-96408894D02*
X136552819Y-96283104D01*
X136552819Y-96283104D02*
X136584266Y-96220208D01*
X136584266Y-96220208D02*
X136615714Y-96188761D01*
X136615714Y-96188761D02*
X136678609Y-96157313D01*
X141267713Y-106342542D02*
X140953237Y-106562675D01*
X141267713Y-106719913D02*
X140607313Y-106719913D01*
X140607313Y-106719913D02*
X140607313Y-106468332D01*
X140607313Y-106468332D02*
X140638761Y-106405437D01*
X140638761Y-106405437D02*
X140670208Y-106373990D01*
X140670208Y-106373990D02*
X140733104Y-106342542D01*
X140733104Y-106342542D02*
X140827446Y-106342542D01*
X140827446Y-106342542D02*
X140890342Y-106373990D01*
X140890342Y-106373990D02*
X140921789Y-106405437D01*
X140921789Y-106405437D02*
X140953237Y-106468332D01*
X140953237Y-106468332D02*
X140953237Y-106719913D01*
X140670208Y-106090961D02*
X140638761Y-106059513D01*
X140638761Y-106059513D02*
X140607313Y-105996618D01*
X140607313Y-105996618D02*
X140607313Y-105839380D01*
X140607313Y-105839380D02*
X140638761Y-105776485D01*
X140638761Y-105776485D02*
X140670208Y-105745037D01*
X140670208Y-105745037D02*
X140733104Y-105713590D01*
X140733104Y-105713590D02*
X140795999Y-105713590D01*
X140795999Y-105713590D02*
X140890342Y-105745037D01*
X140890342Y-105745037D02*
X141267713Y-106122409D01*
X141267713Y-106122409D02*
X141267713Y-105713590D01*
X140607313Y-105493457D02*
X140607313Y-105084638D01*
X140607313Y-105084638D02*
X140858894Y-105304771D01*
X140858894Y-105304771D02*
X140858894Y-105210428D01*
X140858894Y-105210428D02*
X140890342Y-105147533D01*
X140890342Y-105147533D02*
X140921789Y-105116085D01*
X140921789Y-105116085D02*
X140984685Y-105084638D01*
X140984685Y-105084638D02*
X141141923Y-105084638D01*
X141141923Y-105084638D02*
X141204818Y-105116085D01*
X141204818Y-105116085D02*
X141236266Y-105147533D01*
X141236266Y-105147533D02*
X141267713Y-105210428D01*
X141267713Y-105210428D02*
X141267713Y-105399114D01*
X141267713Y-105399114D02*
X141236266Y-105462009D01*
X141236266Y-105462009D02*
X141204818Y-105493457D01*
X144315713Y-106342542D02*
X144001237Y-106562675D01*
X144315713Y-106719913D02*
X143655313Y-106719913D01*
X143655313Y-106719913D02*
X143655313Y-106468332D01*
X143655313Y-106468332D02*
X143686761Y-106405437D01*
X143686761Y-106405437D02*
X143718208Y-106373990D01*
X143718208Y-106373990D02*
X143781104Y-106342542D01*
X143781104Y-106342542D02*
X143875446Y-106342542D01*
X143875446Y-106342542D02*
X143938342Y-106373990D01*
X143938342Y-106373990D02*
X143969789Y-106405437D01*
X143969789Y-106405437D02*
X144001237Y-106468332D01*
X144001237Y-106468332D02*
X144001237Y-106719913D01*
X143718208Y-106090961D02*
X143686761Y-106059513D01*
X143686761Y-106059513D02*
X143655313Y-105996618D01*
X143655313Y-105996618D02*
X143655313Y-105839380D01*
X143655313Y-105839380D02*
X143686761Y-105776485D01*
X143686761Y-105776485D02*
X143718208Y-105745037D01*
X143718208Y-105745037D02*
X143781104Y-105713590D01*
X143781104Y-105713590D02*
X143843999Y-105713590D01*
X143843999Y-105713590D02*
X143938342Y-105745037D01*
X143938342Y-105745037D02*
X144315713Y-106122409D01*
X144315713Y-106122409D02*
X144315713Y-105713590D01*
X143875446Y-105147533D02*
X144315713Y-105147533D01*
X143623866Y-105304771D02*
X144095580Y-105462009D01*
X144095580Y-105462009D02*
X144095580Y-105053190D01*
D10*
X136886693Y-130345542D02*
X136918141Y-130376990D01*
X136918141Y-130376990D02*
X136949588Y-130471332D01*
X136949588Y-130471332D02*
X136949588Y-130534228D01*
X136949588Y-130534228D02*
X136918141Y-130628571D01*
X136918141Y-130628571D02*
X136855245Y-130691466D01*
X136855245Y-130691466D02*
X136792350Y-130722913D01*
X136792350Y-130722913D02*
X136666560Y-130754361D01*
X136666560Y-130754361D02*
X136572217Y-130754361D01*
X136572217Y-130754361D02*
X136446426Y-130722913D01*
X136446426Y-130722913D02*
X136383531Y-130691466D01*
X136383531Y-130691466D02*
X136320636Y-130628571D01*
X136320636Y-130628571D02*
X136289188Y-130534228D01*
X136289188Y-130534228D02*
X136289188Y-130471332D01*
X136289188Y-130471332D02*
X136320636Y-130376990D01*
X136320636Y-130376990D02*
X136352083Y-130345542D01*
X136352083Y-130093961D02*
X136320636Y-130062513D01*
X136320636Y-130062513D02*
X136289188Y-129999618D01*
X136289188Y-129999618D02*
X136289188Y-129842380D01*
X136289188Y-129842380D02*
X136320636Y-129779485D01*
X136320636Y-129779485D02*
X136352083Y-129748037D01*
X136352083Y-129748037D02*
X136414979Y-129716590D01*
X136414979Y-129716590D02*
X136477874Y-129716590D01*
X136477874Y-129716590D02*
X136572217Y-129748037D01*
X136572217Y-129748037D02*
X136949588Y-130125409D01*
X136949588Y-130125409D02*
X136949588Y-129716590D01*
X136352083Y-129465009D02*
X136320636Y-129433561D01*
X136320636Y-129433561D02*
X136289188Y-129370666D01*
X136289188Y-129370666D02*
X136289188Y-129213428D01*
X136289188Y-129213428D02*
X136320636Y-129150533D01*
X136320636Y-129150533D02*
X136352083Y-129119085D01*
X136352083Y-129119085D02*
X136414979Y-129087638D01*
X136414979Y-129087638D02*
X136477874Y-129087638D01*
X136477874Y-129087638D02*
X136572217Y-129119085D01*
X136572217Y-129119085D02*
X136949588Y-129496457D01*
X136949588Y-129496457D02*
X136949588Y-129087638D01*
D11*
X130131457Y-120947713D02*
X129911324Y-120633237D01*
X129754086Y-120947713D02*
X129754086Y-120287313D01*
X129754086Y-120287313D02*
X130005667Y-120287313D01*
X130005667Y-120287313D02*
X130068562Y-120318761D01*
X130068562Y-120318761D02*
X130100009Y-120350208D01*
X130100009Y-120350208D02*
X130131457Y-120413104D01*
X130131457Y-120413104D02*
X130131457Y-120507446D01*
X130131457Y-120507446D02*
X130100009Y-120570342D01*
X130100009Y-120570342D02*
X130068562Y-120601789D01*
X130068562Y-120601789D02*
X130005667Y-120633237D01*
X130005667Y-120633237D02*
X129754086Y-120633237D01*
X130760409Y-120947713D02*
X130383038Y-120947713D01*
X130571724Y-120947713D02*
X130571724Y-120287313D01*
X130571724Y-120287313D02*
X130508828Y-120381656D01*
X130508828Y-120381656D02*
X130445933Y-120444551D01*
X130445933Y-120444551D02*
X130383038Y-120475999D01*
X131169228Y-120287313D02*
X131232123Y-120287313D01*
X131232123Y-120287313D02*
X131295019Y-120318761D01*
X131295019Y-120318761D02*
X131326466Y-120350208D01*
X131326466Y-120350208D02*
X131357914Y-120413104D01*
X131357914Y-120413104D02*
X131389361Y-120538894D01*
X131389361Y-120538894D02*
X131389361Y-120696132D01*
X131389361Y-120696132D02*
X131357914Y-120821923D01*
X131357914Y-120821923D02*
X131326466Y-120884818D01*
X131326466Y-120884818D02*
X131295019Y-120916266D01*
X131295019Y-120916266D02*
X131232123Y-120947713D01*
X131232123Y-120947713D02*
X131169228Y-120947713D01*
X131169228Y-120947713D02*
X131106333Y-120916266D01*
X131106333Y-120916266D02*
X131074885Y-120884818D01*
X131074885Y-120884818D02*
X131043438Y-120821923D01*
X131043438Y-120821923D02*
X131011990Y-120696132D01*
X131011990Y-120696132D02*
X131011990Y-120538894D01*
X131011990Y-120538894D02*
X131043438Y-120413104D01*
X131043438Y-120413104D02*
X131074885Y-120350208D01*
X131074885Y-120350208D02*
X131106333Y-120318761D01*
X131106333Y-120318761D02*
X131169228Y-120287313D01*
X139426818Y-106568542D02*
X139458266Y-106599990D01*
X139458266Y-106599990D02*
X139489713Y-106694332D01*
X139489713Y-106694332D02*
X139489713Y-106757228D01*
X139489713Y-106757228D02*
X139458266Y-106851571D01*
X139458266Y-106851571D02*
X139395370Y-106914466D01*
X139395370Y-106914466D02*
X139332475Y-106945913D01*
X139332475Y-106945913D02*
X139206685Y-106977361D01*
X139206685Y-106977361D02*
X139112342Y-106977361D01*
X139112342Y-106977361D02*
X138986551Y-106945913D01*
X138986551Y-106945913D02*
X138923656Y-106914466D01*
X138923656Y-106914466D02*
X138860761Y-106851571D01*
X138860761Y-106851571D02*
X138829313Y-106757228D01*
X138829313Y-106757228D02*
X138829313Y-106694332D01*
X138829313Y-106694332D02*
X138860761Y-106599990D01*
X138860761Y-106599990D02*
X138892208Y-106568542D01*
X139489713Y-105939590D02*
X139489713Y-106316961D01*
X139489713Y-106128275D02*
X138829313Y-106128275D01*
X138829313Y-106128275D02*
X138923656Y-106191171D01*
X138923656Y-106191171D02*
X138986551Y-106254066D01*
X138986551Y-106254066D02*
X139017999Y-106316961D01*
X139489713Y-105625114D02*
X139489713Y-105499323D01*
X139489713Y-105499323D02*
X139458266Y-105436428D01*
X139458266Y-105436428D02*
X139426818Y-105404980D01*
X139426818Y-105404980D02*
X139332475Y-105342085D01*
X139332475Y-105342085D02*
X139206685Y-105310638D01*
X139206685Y-105310638D02*
X138955104Y-105310638D01*
X138955104Y-105310638D02*
X138892208Y-105342085D01*
X138892208Y-105342085D02*
X138860761Y-105373533D01*
X138860761Y-105373533D02*
X138829313Y-105436428D01*
X138829313Y-105436428D02*
X138829313Y-105562219D01*
X138829313Y-105562219D02*
X138860761Y-105625114D01*
X138860761Y-105625114D02*
X138892208Y-105656561D01*
X138892208Y-105656561D02*
X138955104Y-105688009D01*
X138955104Y-105688009D02*
X139112342Y-105688009D01*
X139112342Y-105688009D02*
X139175237Y-105656561D01*
X139175237Y-105656561D02*
X139206685Y-105625114D01*
X139206685Y-105625114D02*
X139238132Y-105562219D01*
X139238132Y-105562219D02*
X139238132Y-105436428D01*
X139238132Y-105436428D02*
X139206685Y-105373533D01*
X139206685Y-105373533D02*
X139175237Y-105342085D01*
X139175237Y-105342085D02*
X139112342Y-105310638D01*
D10*
X131799390Y-131715188D02*
X132239657Y-132375588D01*
X132239657Y-131715188D02*
X131799390Y-132375588D01*
X132459790Y-131778083D02*
X132491238Y-131746636D01*
X132491238Y-131746636D02*
X132554133Y-131715188D01*
X132554133Y-131715188D02*
X132711371Y-131715188D01*
X132711371Y-131715188D02*
X132774266Y-131746636D01*
X132774266Y-131746636D02*
X132805714Y-131778083D01*
X132805714Y-131778083D02*
X132837161Y-131840979D01*
X132837161Y-131840979D02*
X132837161Y-131903874D01*
X132837161Y-131903874D02*
X132805714Y-131998217D01*
X132805714Y-131998217D02*
X132428342Y-132375588D01*
X132428342Y-132375588D02*
X132837161Y-132375588D01*
D11*
X139172818Y-111487066D02*
X139204266Y-111518514D01*
X139204266Y-111518514D02*
X139235713Y-111612856D01*
X139235713Y-111612856D02*
X139235713Y-111675752D01*
X139235713Y-111675752D02*
X139204266Y-111770095D01*
X139204266Y-111770095D02*
X139141370Y-111832990D01*
X139141370Y-111832990D02*
X139078475Y-111864437D01*
X139078475Y-111864437D02*
X138952685Y-111895885D01*
X138952685Y-111895885D02*
X138858342Y-111895885D01*
X138858342Y-111895885D02*
X138732551Y-111864437D01*
X138732551Y-111864437D02*
X138669656Y-111832990D01*
X138669656Y-111832990D02*
X138606761Y-111770095D01*
X138606761Y-111770095D02*
X138575313Y-111675752D01*
X138575313Y-111675752D02*
X138575313Y-111612856D01*
X138575313Y-111612856D02*
X138606761Y-111518514D01*
X138606761Y-111518514D02*
X138638208Y-111487066D01*
X138575313Y-110889561D02*
X138575313Y-111204037D01*
X138575313Y-111204037D02*
X138889789Y-111235485D01*
X138889789Y-111235485D02*
X138858342Y-111204037D01*
X138858342Y-111204037D02*
X138826894Y-111141142D01*
X138826894Y-111141142D02*
X138826894Y-110983904D01*
X138826894Y-110983904D02*
X138858342Y-110921009D01*
X138858342Y-110921009D02*
X138889789Y-110889561D01*
X138889789Y-110889561D02*
X138952685Y-110858114D01*
X138952685Y-110858114D02*
X139109923Y-110858114D01*
X139109923Y-110858114D02*
X139172818Y-110889561D01*
X139172818Y-110889561D02*
X139204266Y-110921009D01*
X139204266Y-110921009D02*
X139235713Y-110983904D01*
X139235713Y-110983904D02*
X139235713Y-111141142D01*
X139235713Y-111141142D02*
X139204266Y-111204037D01*
X139204266Y-111204037D02*
X139172818Y-111235485D01*
X142918713Y-113454542D02*
X142604237Y-113674675D01*
X142918713Y-113831913D02*
X142258313Y-113831913D01*
X142258313Y-113831913D02*
X142258313Y-113580332D01*
X142258313Y-113580332D02*
X142289761Y-113517437D01*
X142289761Y-113517437D02*
X142321208Y-113485990D01*
X142321208Y-113485990D02*
X142384104Y-113454542D01*
X142384104Y-113454542D02*
X142478446Y-113454542D01*
X142478446Y-113454542D02*
X142541342Y-113485990D01*
X142541342Y-113485990D02*
X142572789Y-113517437D01*
X142572789Y-113517437D02*
X142604237Y-113580332D01*
X142604237Y-113580332D02*
X142604237Y-113831913D01*
X142918713Y-112825590D02*
X142918713Y-113202961D01*
X142918713Y-113014275D02*
X142258313Y-113014275D01*
X142258313Y-113014275D02*
X142352656Y-113077171D01*
X142352656Y-113077171D02*
X142415551Y-113140066D01*
X142415551Y-113140066D02*
X142446999Y-113202961D01*
X142918713Y-112511114D02*
X142918713Y-112385323D01*
X142918713Y-112385323D02*
X142887266Y-112322428D01*
X142887266Y-112322428D02*
X142855818Y-112290980D01*
X142855818Y-112290980D02*
X142761475Y-112228085D01*
X142761475Y-112228085D02*
X142635685Y-112196638D01*
X142635685Y-112196638D02*
X142384104Y-112196638D01*
X142384104Y-112196638D02*
X142321208Y-112228085D01*
X142321208Y-112228085D02*
X142289761Y-112259533D01*
X142289761Y-112259533D02*
X142258313Y-112322428D01*
X142258313Y-112322428D02*
X142258313Y-112448219D01*
X142258313Y-112448219D02*
X142289761Y-112511114D01*
X142289761Y-112511114D02*
X142321208Y-112542561D01*
X142321208Y-112542561D02*
X142384104Y-112574009D01*
X142384104Y-112574009D02*
X142541342Y-112574009D01*
X142541342Y-112574009D02*
X142604237Y-112542561D01*
X142604237Y-112542561D02*
X142635685Y-112511114D01*
X142635685Y-112511114D02*
X142667132Y-112448219D01*
X142667132Y-112448219D02*
X142667132Y-112322428D01*
X142667132Y-112322428D02*
X142635685Y-112259533D01*
X142635685Y-112259533D02*
X142604237Y-112228085D01*
X142604237Y-112228085D02*
X142541342Y-112196638D01*
X152494457Y-120361713D02*
X152274324Y-120047237D01*
X152117086Y-120361713D02*
X152117086Y-119701313D01*
X152117086Y-119701313D02*
X152368667Y-119701313D01*
X152368667Y-119701313D02*
X152431562Y-119732761D01*
X152431562Y-119732761D02*
X152463009Y-119764208D01*
X152463009Y-119764208D02*
X152494457Y-119827104D01*
X152494457Y-119827104D02*
X152494457Y-119921446D01*
X152494457Y-119921446D02*
X152463009Y-119984342D01*
X152463009Y-119984342D02*
X152431562Y-120015789D01*
X152431562Y-120015789D02*
X152368667Y-120047237D01*
X152368667Y-120047237D02*
X152117086Y-120047237D01*
X153123409Y-120361713D02*
X152746038Y-120361713D01*
X152934724Y-120361713D02*
X152934724Y-119701313D01*
X152934724Y-119701313D02*
X152871828Y-119795656D01*
X152871828Y-119795656D02*
X152808933Y-119858551D01*
X152808933Y-119858551D02*
X152746038Y-119889999D01*
X153689466Y-119921446D02*
X153689466Y-120361713D01*
X153532228Y-119669866D02*
X153374990Y-120141580D01*
X153374990Y-120141580D02*
X153783809Y-120141580D01*
D12*
X150954796Y-106468332D02*
X150954796Y-106688465D01*
X151300720Y-106688465D02*
X150640320Y-106688465D01*
X150640320Y-106688465D02*
X150640320Y-106373989D01*
X150954796Y-105902275D02*
X150986244Y-105807932D01*
X150986244Y-105807932D02*
X151017692Y-105776485D01*
X151017692Y-105776485D02*
X151080587Y-105745037D01*
X151080587Y-105745037D02*
X151174930Y-105745037D01*
X151174930Y-105745037D02*
X151237825Y-105776485D01*
X151237825Y-105776485D02*
X151269273Y-105807932D01*
X151269273Y-105807932D02*
X151300720Y-105870827D01*
X151300720Y-105870827D02*
X151300720Y-106122408D01*
X151300720Y-106122408D02*
X150640320Y-106122408D01*
X150640320Y-106122408D02*
X150640320Y-105902275D01*
X150640320Y-105902275D02*
X150671768Y-105839380D01*
X150671768Y-105839380D02*
X150703215Y-105807932D01*
X150703215Y-105807932D02*
X150766111Y-105776485D01*
X150766111Y-105776485D02*
X150829006Y-105776485D01*
X150829006Y-105776485D02*
X150891901Y-105807932D01*
X150891901Y-105807932D02*
X150923349Y-105839380D01*
X150923349Y-105839380D02*
X150954796Y-105902275D01*
X150954796Y-105902275D02*
X150954796Y-106122408D01*
X151300720Y-105116085D02*
X151300720Y-105493456D01*
X151300720Y-105304770D02*
X150640320Y-105304770D01*
X150640320Y-105304770D02*
X150734663Y-105367666D01*
X150734663Y-105367666D02*
X150797558Y-105430561D01*
X150797558Y-105430561D02*
X150829006Y-105493456D01*
D11*
X152396457Y-121453713D02*
X152176324Y-121139237D01*
X152019086Y-121453713D02*
X152019086Y-120793313D01*
X152019086Y-120793313D02*
X152270667Y-120793313D01*
X152270667Y-120793313D02*
X152333562Y-120824761D01*
X152333562Y-120824761D02*
X152365009Y-120856208D01*
X152365009Y-120856208D02*
X152396457Y-120919104D01*
X152396457Y-120919104D02*
X152396457Y-121013446D01*
X152396457Y-121013446D02*
X152365009Y-121076342D01*
X152365009Y-121076342D02*
X152333562Y-121107789D01*
X152333562Y-121107789D02*
X152270667Y-121139237D01*
X152270667Y-121139237D02*
X152019086Y-121139237D01*
X153025409Y-121453713D02*
X152648038Y-121453713D01*
X152836724Y-121453713D02*
X152836724Y-120793313D01*
X152836724Y-120793313D02*
X152773828Y-120887656D01*
X152773828Y-120887656D02*
X152710933Y-120950551D01*
X152710933Y-120950551D02*
X152648038Y-120981999D01*
X153654361Y-121453713D02*
X153276990Y-121453713D01*
X153465676Y-121453713D02*
X153465676Y-120793313D01*
X153465676Y-120793313D02*
X153402780Y-120887656D01*
X153402780Y-120887656D02*
X153339885Y-120950551D01*
X153339885Y-120950551D02*
X153276990Y-120981999D01*
X150995913Y-128126066D02*
X150681437Y-128346199D01*
X150995913Y-128503437D02*
X150335513Y-128503437D01*
X150335513Y-128503437D02*
X150335513Y-128251856D01*
X150335513Y-128251856D02*
X150366961Y-128188961D01*
X150366961Y-128188961D02*
X150398408Y-128157514D01*
X150398408Y-128157514D02*
X150461304Y-128126066D01*
X150461304Y-128126066D02*
X150555646Y-128126066D01*
X150555646Y-128126066D02*
X150618542Y-128157514D01*
X150618542Y-128157514D02*
X150649989Y-128188961D01*
X150649989Y-128188961D02*
X150681437Y-128251856D01*
X150681437Y-128251856D02*
X150681437Y-128503437D01*
X150335513Y-127905933D02*
X150335513Y-127465666D01*
X150335513Y-127465666D02*
X150995913Y-127748695D01*
X152621513Y-128126066D02*
X152307037Y-128346199D01*
X152621513Y-128503437D02*
X151961113Y-128503437D01*
X151961113Y-128503437D02*
X151961113Y-128251856D01*
X151961113Y-128251856D02*
X151992561Y-128188961D01*
X151992561Y-128188961D02*
X152024008Y-128157514D01*
X152024008Y-128157514D02*
X152086904Y-128126066D01*
X152086904Y-128126066D02*
X152181246Y-128126066D01*
X152181246Y-128126066D02*
X152244142Y-128157514D01*
X152244142Y-128157514D02*
X152275589Y-128188961D01*
X152275589Y-128188961D02*
X152307037Y-128251856D01*
X152307037Y-128251856D02*
X152307037Y-128503437D01*
X152244142Y-127748695D02*
X152212694Y-127811590D01*
X152212694Y-127811590D02*
X152181246Y-127843037D01*
X152181246Y-127843037D02*
X152118351Y-127874485D01*
X152118351Y-127874485D02*
X152086904Y-127874485D01*
X152086904Y-127874485D02*
X152024008Y-127843037D01*
X152024008Y-127843037D02*
X151992561Y-127811590D01*
X151992561Y-127811590D02*
X151961113Y-127748695D01*
X151961113Y-127748695D02*
X151961113Y-127622904D01*
X151961113Y-127622904D02*
X151992561Y-127560009D01*
X151992561Y-127560009D02*
X152024008Y-127528561D01*
X152024008Y-127528561D02*
X152086904Y-127497114D01*
X152086904Y-127497114D02*
X152118351Y-127497114D01*
X152118351Y-127497114D02*
X152181246Y-127528561D01*
X152181246Y-127528561D02*
X152212694Y-127560009D01*
X152212694Y-127560009D02*
X152244142Y-127622904D01*
X152244142Y-127622904D02*
X152244142Y-127748695D01*
X152244142Y-127748695D02*
X152275589Y-127811590D01*
X152275589Y-127811590D02*
X152307037Y-127843037D01*
X152307037Y-127843037D02*
X152369932Y-127874485D01*
X152369932Y-127874485D02*
X152495723Y-127874485D01*
X152495723Y-127874485D02*
X152558618Y-127843037D01*
X152558618Y-127843037D02*
X152590066Y-127811590D01*
X152590066Y-127811590D02*
X152621513Y-127748695D01*
X152621513Y-127748695D02*
X152621513Y-127622904D01*
X152621513Y-127622904D02*
X152590066Y-127560009D01*
X152590066Y-127560009D02*
X152558618Y-127528561D01*
X152558618Y-127528561D02*
X152495723Y-127497114D01*
X152495723Y-127497114D02*
X152369932Y-127497114D01*
X152369932Y-127497114D02*
X152307037Y-127528561D01*
X152307037Y-127528561D02*
X152275589Y-127560009D01*
X152275589Y-127560009D02*
X152244142Y-127622904D01*
X153305933Y-100437818D02*
X153274485Y-100469266D01*
X153274485Y-100469266D02*
X153180143Y-100500713D01*
X153180143Y-100500713D02*
X153117247Y-100500713D01*
X153117247Y-100500713D02*
X153022904Y-100469266D01*
X153022904Y-100469266D02*
X152960009Y-100406370D01*
X152960009Y-100406370D02*
X152928562Y-100343475D01*
X152928562Y-100343475D02*
X152897114Y-100217685D01*
X152897114Y-100217685D02*
X152897114Y-100123342D01*
X152897114Y-100123342D02*
X152928562Y-99997551D01*
X152928562Y-99997551D02*
X152960009Y-99934656D01*
X152960009Y-99934656D02*
X153022904Y-99871761D01*
X153022904Y-99871761D02*
X153117247Y-99840313D01*
X153117247Y-99840313D02*
X153180143Y-99840313D01*
X153180143Y-99840313D02*
X153274485Y-99871761D01*
X153274485Y-99871761D02*
X153305933Y-99903208D01*
X153934885Y-100500713D02*
X153557514Y-100500713D01*
X153746200Y-100500713D02*
X153746200Y-99840313D01*
X153746200Y-99840313D02*
X153683304Y-99934656D01*
X153683304Y-99934656D02*
X153620409Y-99997551D01*
X153620409Y-99997551D02*
X153557514Y-100028999D01*
X152396457Y-119421713D02*
X152176324Y-119107237D01*
X152019086Y-119421713D02*
X152019086Y-118761313D01*
X152019086Y-118761313D02*
X152270667Y-118761313D01*
X152270667Y-118761313D02*
X152333562Y-118792761D01*
X152333562Y-118792761D02*
X152365009Y-118824208D01*
X152365009Y-118824208D02*
X152396457Y-118887104D01*
X152396457Y-118887104D02*
X152396457Y-118981446D01*
X152396457Y-118981446D02*
X152365009Y-119044342D01*
X152365009Y-119044342D02*
X152333562Y-119075789D01*
X152333562Y-119075789D02*
X152270667Y-119107237D01*
X152270667Y-119107237D02*
X152019086Y-119107237D01*
X153025409Y-119421713D02*
X152648038Y-119421713D01*
X152836724Y-119421713D02*
X152836724Y-118761313D01*
X152836724Y-118761313D02*
X152773828Y-118855656D01*
X152773828Y-118855656D02*
X152710933Y-118918551D01*
X152710933Y-118918551D02*
X152648038Y-118949999D01*
X153622914Y-118761313D02*
X153308438Y-118761313D01*
X153308438Y-118761313D02*
X153276990Y-119075789D01*
X153276990Y-119075789D02*
X153308438Y-119044342D01*
X153308438Y-119044342D02*
X153371333Y-119012894D01*
X153371333Y-119012894D02*
X153528571Y-119012894D01*
X153528571Y-119012894D02*
X153591466Y-119044342D01*
X153591466Y-119044342D02*
X153622914Y-119075789D01*
X153622914Y-119075789D02*
X153654361Y-119138685D01*
X153654361Y-119138685D02*
X153654361Y-119295923D01*
X153654361Y-119295923D02*
X153622914Y-119358818D01*
X153622914Y-119358818D02*
X153591466Y-119390266D01*
X153591466Y-119390266D02*
X153528571Y-119421713D01*
X153528571Y-119421713D02*
X153371333Y-119421713D01*
X153371333Y-119421713D02*
X153308438Y-119390266D01*
X153308438Y-119390266D02*
X153276990Y-119358818D01*
X153559933Y-117707818D02*
X153528485Y-117739266D01*
X153528485Y-117739266D02*
X153434143Y-117770713D01*
X153434143Y-117770713D02*
X153371247Y-117770713D01*
X153371247Y-117770713D02*
X153276904Y-117739266D01*
X153276904Y-117739266D02*
X153214009Y-117676370D01*
X153214009Y-117676370D02*
X153182562Y-117613475D01*
X153182562Y-117613475D02*
X153151114Y-117487685D01*
X153151114Y-117487685D02*
X153151114Y-117393342D01*
X153151114Y-117393342D02*
X153182562Y-117267551D01*
X153182562Y-117267551D02*
X153214009Y-117204656D01*
X153214009Y-117204656D02*
X153276904Y-117141761D01*
X153276904Y-117141761D02*
X153371247Y-117110313D01*
X153371247Y-117110313D02*
X153434143Y-117110313D01*
X153434143Y-117110313D02*
X153528485Y-117141761D01*
X153528485Y-117141761D02*
X153559933Y-117173208D01*
X154125990Y-117330446D02*
X154125990Y-117770713D01*
X153968752Y-117078866D02*
X153811514Y-117550580D01*
X153811514Y-117550580D02*
X154220333Y-117550580D01*
X154094713Y-128126066D02*
X153780237Y-128346199D01*
X154094713Y-128503437D02*
X153434313Y-128503437D01*
X153434313Y-128503437D02*
X153434313Y-128251856D01*
X153434313Y-128251856D02*
X153465761Y-128188961D01*
X153465761Y-128188961D02*
X153497208Y-128157514D01*
X153497208Y-128157514D02*
X153560104Y-128126066D01*
X153560104Y-128126066D02*
X153654446Y-128126066D01*
X153654446Y-128126066D02*
X153717342Y-128157514D01*
X153717342Y-128157514D02*
X153748789Y-128188961D01*
X153748789Y-128188961D02*
X153780237Y-128251856D01*
X153780237Y-128251856D02*
X153780237Y-128503437D01*
X154094713Y-127811590D02*
X154094713Y-127685799D01*
X154094713Y-127685799D02*
X154063266Y-127622904D01*
X154063266Y-127622904D02*
X154031818Y-127591456D01*
X154031818Y-127591456D02*
X153937475Y-127528561D01*
X153937475Y-127528561D02*
X153811685Y-127497114D01*
X153811685Y-127497114D02*
X153560104Y-127497114D01*
X153560104Y-127497114D02*
X153497208Y-127528561D01*
X153497208Y-127528561D02*
X153465761Y-127560009D01*
X153465761Y-127560009D02*
X153434313Y-127622904D01*
X153434313Y-127622904D02*
X153434313Y-127748695D01*
X153434313Y-127748695D02*
X153465761Y-127811590D01*
X153465761Y-127811590D02*
X153497208Y-127843037D01*
X153497208Y-127843037D02*
X153560104Y-127874485D01*
X153560104Y-127874485D02*
X153717342Y-127874485D01*
X153717342Y-127874485D02*
X153780237Y-127843037D01*
X153780237Y-127843037D02*
X153811685Y-127811590D01*
X153811685Y-127811590D02*
X153843132Y-127748695D01*
X153843132Y-127748695D02*
X153843132Y-127622904D01*
X153843132Y-127622904D02*
X153811685Y-127560009D01*
X153811685Y-127560009D02*
X153780237Y-127528561D01*
X153780237Y-127528561D02*
X153717342Y-127497114D01*
X137330713Y-100498542D02*
X137016237Y-100718675D01*
X137330713Y-100875913D02*
X136670313Y-100875913D01*
X136670313Y-100875913D02*
X136670313Y-100624332D01*
X136670313Y-100624332D02*
X136701761Y-100561437D01*
X136701761Y-100561437D02*
X136733208Y-100529990D01*
X136733208Y-100529990D02*
X136796104Y-100498542D01*
X136796104Y-100498542D02*
X136890446Y-100498542D01*
X136890446Y-100498542D02*
X136953342Y-100529990D01*
X136953342Y-100529990D02*
X136984789Y-100561437D01*
X136984789Y-100561437D02*
X137016237Y-100624332D01*
X137016237Y-100624332D02*
X137016237Y-100875913D01*
X137330713Y-99869590D02*
X137330713Y-100246961D01*
X137330713Y-100058275D02*
X136670313Y-100058275D01*
X136670313Y-100058275D02*
X136764656Y-100121171D01*
X136764656Y-100121171D02*
X136827551Y-100184066D01*
X136827551Y-100184066D02*
X136858999Y-100246961D01*
X136670313Y-99303533D02*
X136670313Y-99429323D01*
X136670313Y-99429323D02*
X136701761Y-99492219D01*
X136701761Y-99492219D02*
X136733208Y-99523666D01*
X136733208Y-99523666D02*
X136827551Y-99586561D01*
X136827551Y-99586561D02*
X136953342Y-99618009D01*
X136953342Y-99618009D02*
X137204923Y-99618009D01*
X137204923Y-99618009D02*
X137267818Y-99586561D01*
X137267818Y-99586561D02*
X137299266Y-99555114D01*
X137299266Y-99555114D02*
X137330713Y-99492219D01*
X137330713Y-99492219D02*
X137330713Y-99366428D01*
X137330713Y-99366428D02*
X137299266Y-99303533D01*
X137299266Y-99303533D02*
X137267818Y-99272085D01*
X137267818Y-99272085D02*
X137204923Y-99240638D01*
X137204923Y-99240638D02*
X137047685Y-99240638D01*
X137047685Y-99240638D02*
X136984789Y-99272085D01*
X136984789Y-99272085D02*
X136953342Y-99303533D01*
X136953342Y-99303533D02*
X136921894Y-99366428D01*
X136921894Y-99366428D02*
X136921894Y-99492219D01*
X136921894Y-99492219D02*
X136953342Y-99555114D01*
X136953342Y-99555114D02*
X136984789Y-99586561D01*
X136984789Y-99586561D02*
X137047685Y-99618009D01*
X142283713Y-105713590D02*
X141969237Y-105933723D01*
X142283713Y-106090961D02*
X141623313Y-106090961D01*
X141623313Y-106090961D02*
X141623313Y-105839380D01*
X141623313Y-105839380D02*
X141654761Y-105776485D01*
X141654761Y-105776485D02*
X141686208Y-105745038D01*
X141686208Y-105745038D02*
X141749104Y-105713590D01*
X141749104Y-105713590D02*
X141843446Y-105713590D01*
X141843446Y-105713590D02*
X141906342Y-105745038D01*
X141906342Y-105745038D02*
X141937789Y-105776485D01*
X141937789Y-105776485D02*
X141969237Y-105839380D01*
X141969237Y-105839380D02*
X141969237Y-106090961D01*
X141623313Y-105493457D02*
X141623313Y-105084638D01*
X141623313Y-105084638D02*
X141874894Y-105304771D01*
X141874894Y-105304771D02*
X141874894Y-105210428D01*
X141874894Y-105210428D02*
X141906342Y-105147533D01*
X141906342Y-105147533D02*
X141937789Y-105116085D01*
X141937789Y-105116085D02*
X142000685Y-105084638D01*
X142000685Y-105084638D02*
X142157923Y-105084638D01*
X142157923Y-105084638D02*
X142220818Y-105116085D01*
X142220818Y-105116085D02*
X142252266Y-105147533D01*
X142252266Y-105147533D02*
X142283713Y-105210428D01*
X142283713Y-105210428D02*
X142283713Y-105399114D01*
X142283713Y-105399114D02*
X142252266Y-105462009D01*
X142252266Y-105462009D02*
X142220818Y-105493457D01*
X151086457Y-116437818D02*
X151055009Y-116469266D01*
X151055009Y-116469266D02*
X150960667Y-116500713D01*
X150960667Y-116500713D02*
X150897771Y-116500713D01*
X150897771Y-116500713D02*
X150803428Y-116469266D01*
X150803428Y-116469266D02*
X150740533Y-116406370D01*
X150740533Y-116406370D02*
X150709086Y-116343475D01*
X150709086Y-116343475D02*
X150677638Y-116217685D01*
X150677638Y-116217685D02*
X150677638Y-116123342D01*
X150677638Y-116123342D02*
X150709086Y-115997551D01*
X150709086Y-115997551D02*
X150740533Y-115934656D01*
X150740533Y-115934656D02*
X150803428Y-115871761D01*
X150803428Y-115871761D02*
X150897771Y-115840313D01*
X150897771Y-115840313D02*
X150960667Y-115840313D01*
X150960667Y-115840313D02*
X151055009Y-115871761D01*
X151055009Y-115871761D02*
X151086457Y-115903208D01*
X151715409Y-116500713D02*
X151338038Y-116500713D01*
X151526724Y-116500713D02*
X151526724Y-115840313D01*
X151526724Y-115840313D02*
X151463828Y-115934656D01*
X151463828Y-115934656D02*
X151400933Y-115997551D01*
X151400933Y-115997551D02*
X151338038Y-116028999D01*
X152312914Y-115840313D02*
X151998438Y-115840313D01*
X151998438Y-115840313D02*
X151966990Y-116154789D01*
X151966990Y-116154789D02*
X151998438Y-116123342D01*
X151998438Y-116123342D02*
X152061333Y-116091894D01*
X152061333Y-116091894D02*
X152218571Y-116091894D01*
X152218571Y-116091894D02*
X152281466Y-116123342D01*
X152281466Y-116123342D02*
X152312914Y-116154789D01*
X152312914Y-116154789D02*
X152344361Y-116217685D01*
X152344361Y-116217685D02*
X152344361Y-116374923D01*
X152344361Y-116374923D02*
X152312914Y-116437818D01*
X152312914Y-116437818D02*
X152281466Y-116469266D01*
X152281466Y-116469266D02*
X152218571Y-116500713D01*
X152218571Y-116500713D02*
X152061333Y-116500713D01*
X152061333Y-116500713D02*
X151998438Y-116469266D01*
X151998438Y-116469266D02*
X151966990Y-116437818D01*
D10*
X148356562Y-99357588D02*
X148356562Y-98697188D01*
X148356562Y-98697188D02*
X148513800Y-98697188D01*
X148513800Y-98697188D02*
X148608143Y-98728636D01*
X148608143Y-98728636D02*
X148671038Y-98791531D01*
X148671038Y-98791531D02*
X148702485Y-98854426D01*
X148702485Y-98854426D02*
X148733933Y-98980217D01*
X148733933Y-98980217D02*
X148733933Y-99074560D01*
X148733933Y-99074560D02*
X148702485Y-99200350D01*
X148702485Y-99200350D02*
X148671038Y-99263245D01*
X148671038Y-99263245D02*
X148608143Y-99326141D01*
X148608143Y-99326141D02*
X148513800Y-99357588D01*
X148513800Y-99357588D02*
X148356562Y-99357588D01*
X149362885Y-99357588D02*
X148985514Y-99357588D01*
X149174200Y-99357588D02*
X149174200Y-98697188D01*
X149174200Y-98697188D02*
X149111304Y-98791531D01*
X149111304Y-98791531D02*
X149048409Y-98854426D01*
X149048409Y-98854426D02*
X148985514Y-98885874D01*
D11*
X140562390Y-133112313D02*
X141002657Y-133772713D01*
X141002657Y-133112313D02*
X140562390Y-133772713D01*
X141600161Y-133772713D02*
X141222790Y-133772713D01*
X141411476Y-133772713D02*
X141411476Y-133112313D01*
X141411476Y-133112313D02*
X141348580Y-133206656D01*
X141348580Y-133206656D02*
X141285685Y-133269551D01*
X141285685Y-133269551D02*
X141222790Y-133300999D01*
X153015818Y-102726066D02*
X153047266Y-102757514D01*
X153047266Y-102757514D02*
X153078713Y-102851856D01*
X153078713Y-102851856D02*
X153078713Y-102914752D01*
X153078713Y-102914752D02*
X153047266Y-103009095D01*
X153047266Y-103009095D02*
X152984370Y-103071990D01*
X152984370Y-103071990D02*
X152921475Y-103103437D01*
X152921475Y-103103437D02*
X152795685Y-103134885D01*
X152795685Y-103134885D02*
X152701342Y-103134885D01*
X152701342Y-103134885D02*
X152575551Y-103103437D01*
X152575551Y-103103437D02*
X152512656Y-103071990D01*
X152512656Y-103071990D02*
X152449761Y-103009095D01*
X152449761Y-103009095D02*
X152418313Y-102914752D01*
X152418313Y-102914752D02*
X152418313Y-102851856D01*
X152418313Y-102851856D02*
X152449761Y-102757514D01*
X152449761Y-102757514D02*
X152481208Y-102726066D01*
X152481208Y-102474485D02*
X152449761Y-102443037D01*
X152449761Y-102443037D02*
X152418313Y-102380142D01*
X152418313Y-102380142D02*
X152418313Y-102222904D01*
X152418313Y-102222904D02*
X152449761Y-102160009D01*
X152449761Y-102160009D02*
X152481208Y-102128561D01*
X152481208Y-102128561D02*
X152544104Y-102097114D01*
X152544104Y-102097114D02*
X152606999Y-102097114D01*
X152606999Y-102097114D02*
X152701342Y-102128561D01*
X152701342Y-102128561D02*
X153078713Y-102505933D01*
X153078713Y-102505933D02*
X153078713Y-102097114D01*
D10*
X152179866Y-112794188D02*
X152179866Y-113265902D01*
X152179866Y-113265902D02*
X152148419Y-113360245D01*
X152148419Y-113360245D02*
X152085523Y-113423141D01*
X152085523Y-113423141D02*
X151991181Y-113454588D01*
X151991181Y-113454588D02*
X151928285Y-113454588D01*
X152588685Y-113077217D02*
X152525790Y-113045769D01*
X152525790Y-113045769D02*
X152494343Y-113014321D01*
X152494343Y-113014321D02*
X152462895Y-112951426D01*
X152462895Y-112951426D02*
X152462895Y-112919979D01*
X152462895Y-112919979D02*
X152494343Y-112857083D01*
X152494343Y-112857083D02*
X152525790Y-112825636D01*
X152525790Y-112825636D02*
X152588685Y-112794188D01*
X152588685Y-112794188D02*
X152714476Y-112794188D01*
X152714476Y-112794188D02*
X152777371Y-112825636D01*
X152777371Y-112825636D02*
X152808819Y-112857083D01*
X152808819Y-112857083D02*
X152840266Y-112919979D01*
X152840266Y-112919979D02*
X152840266Y-112951426D01*
X152840266Y-112951426D02*
X152808819Y-113014321D01*
X152808819Y-113014321D02*
X152777371Y-113045769D01*
X152777371Y-113045769D02*
X152714476Y-113077217D01*
X152714476Y-113077217D02*
X152588685Y-113077217D01*
X152588685Y-113077217D02*
X152525790Y-113108664D01*
X152525790Y-113108664D02*
X152494343Y-113140112D01*
X152494343Y-113140112D02*
X152462895Y-113203007D01*
X152462895Y-113203007D02*
X152462895Y-113328798D01*
X152462895Y-113328798D02*
X152494343Y-113391693D01*
X152494343Y-113391693D02*
X152525790Y-113423141D01*
X152525790Y-113423141D02*
X152588685Y-113454588D01*
X152588685Y-113454588D02*
X152714476Y-113454588D01*
X152714476Y-113454588D02*
X152777371Y-113423141D01*
X152777371Y-113423141D02*
X152808819Y-113391693D01*
X152808819Y-113391693D02*
X152840266Y-113328798D01*
X152840266Y-113328798D02*
X152840266Y-113203007D01*
X152840266Y-113203007D02*
X152808819Y-113140112D01*
X152808819Y-113140112D02*
X152777371Y-113108664D01*
X152777371Y-113108664D02*
X152714476Y-113077217D01*
D11*
X138537818Y-130791066D02*
X138569266Y-130822514D01*
X138569266Y-130822514D02*
X138600713Y-130916856D01*
X138600713Y-130916856D02*
X138600713Y-130979752D01*
X138600713Y-130979752D02*
X138569266Y-131074095D01*
X138569266Y-131074095D02*
X138506370Y-131136990D01*
X138506370Y-131136990D02*
X138443475Y-131168437D01*
X138443475Y-131168437D02*
X138317685Y-131199885D01*
X138317685Y-131199885D02*
X138223342Y-131199885D01*
X138223342Y-131199885D02*
X138097551Y-131168437D01*
X138097551Y-131168437D02*
X138034656Y-131136990D01*
X138034656Y-131136990D02*
X137971761Y-131074095D01*
X137971761Y-131074095D02*
X137940313Y-130979752D01*
X137940313Y-130979752D02*
X137940313Y-130916856D01*
X137940313Y-130916856D02*
X137971761Y-130822514D01*
X137971761Y-130822514D02*
X138003208Y-130791066D01*
X138223342Y-130413695D02*
X138191894Y-130476590D01*
X138191894Y-130476590D02*
X138160446Y-130508037D01*
X138160446Y-130508037D02*
X138097551Y-130539485D01*
X138097551Y-130539485D02*
X138066104Y-130539485D01*
X138066104Y-130539485D02*
X138003208Y-130508037D01*
X138003208Y-130508037D02*
X137971761Y-130476590D01*
X137971761Y-130476590D02*
X137940313Y-130413695D01*
X137940313Y-130413695D02*
X137940313Y-130287904D01*
X137940313Y-130287904D02*
X137971761Y-130225009D01*
X137971761Y-130225009D02*
X138003208Y-130193561D01*
X138003208Y-130193561D02*
X138066104Y-130162114D01*
X138066104Y-130162114D02*
X138097551Y-130162114D01*
X138097551Y-130162114D02*
X138160446Y-130193561D01*
X138160446Y-130193561D02*
X138191894Y-130225009D01*
X138191894Y-130225009D02*
X138223342Y-130287904D01*
X138223342Y-130287904D02*
X138223342Y-130413695D01*
X138223342Y-130413695D02*
X138254789Y-130476590D01*
X138254789Y-130476590D02*
X138286237Y-130508037D01*
X138286237Y-130508037D02*
X138349132Y-130539485D01*
X138349132Y-130539485D02*
X138474923Y-130539485D01*
X138474923Y-130539485D02*
X138537818Y-130508037D01*
X138537818Y-130508037D02*
X138569266Y-130476590D01*
X138569266Y-130476590D02*
X138600713Y-130413695D01*
X138600713Y-130413695D02*
X138600713Y-130287904D01*
X138600713Y-130287904D02*
X138569266Y-130225009D01*
X138569266Y-130225009D02*
X138537818Y-130193561D01*
X138537818Y-130193561D02*
X138474923Y-130162114D01*
X138474923Y-130162114D02*
X138349132Y-130162114D01*
X138349132Y-130162114D02*
X138286237Y-130193561D01*
X138286237Y-130193561D02*
X138254789Y-130225009D01*
X138254789Y-130225009D02*
X138223342Y-130287904D01*
X130806457Y-123739713D02*
X130586324Y-123425237D01*
X130429086Y-123739713D02*
X130429086Y-123079313D01*
X130429086Y-123079313D02*
X130680667Y-123079313D01*
X130680667Y-123079313D02*
X130743562Y-123110761D01*
X130743562Y-123110761D02*
X130775009Y-123142208D01*
X130775009Y-123142208D02*
X130806457Y-123205104D01*
X130806457Y-123205104D02*
X130806457Y-123299446D01*
X130806457Y-123299446D02*
X130775009Y-123362342D01*
X130775009Y-123362342D02*
X130743562Y-123393789D01*
X130743562Y-123393789D02*
X130680667Y-123425237D01*
X130680667Y-123425237D02*
X130429086Y-123425237D01*
X131435409Y-123739713D02*
X131058038Y-123739713D01*
X131246724Y-123739713D02*
X131246724Y-123079313D01*
X131246724Y-123079313D02*
X131183828Y-123173656D01*
X131183828Y-123173656D02*
X131120933Y-123236551D01*
X131120933Y-123236551D02*
X131058038Y-123267999D01*
X131655542Y-123079313D02*
X132064361Y-123079313D01*
X132064361Y-123079313D02*
X131844228Y-123330894D01*
X131844228Y-123330894D02*
X131938571Y-123330894D01*
X131938571Y-123330894D02*
X132001466Y-123362342D01*
X132001466Y-123362342D02*
X132032914Y-123393789D01*
X132032914Y-123393789D02*
X132064361Y-123456685D01*
X132064361Y-123456685D02*
X132064361Y-123613923D01*
X132064361Y-123613923D02*
X132032914Y-123676818D01*
X132032914Y-123676818D02*
X132001466Y-123708266D01*
X132001466Y-123708266D02*
X131938571Y-123739713D01*
X131938571Y-123739713D02*
X131749885Y-123739713D01*
X131749885Y-123739713D02*
X131686990Y-123708266D01*
X131686990Y-123708266D02*
X131655542Y-123676818D01*
D10*
X152142457Y-125200693D02*
X152111009Y-125232141D01*
X152111009Y-125232141D02*
X152016667Y-125263588D01*
X152016667Y-125263588D02*
X151953771Y-125263588D01*
X151953771Y-125263588D02*
X151859428Y-125232141D01*
X151859428Y-125232141D02*
X151796533Y-125169245D01*
X151796533Y-125169245D02*
X151765086Y-125106350D01*
X151765086Y-125106350D02*
X151733638Y-124980560D01*
X151733638Y-124980560D02*
X151733638Y-124886217D01*
X151733638Y-124886217D02*
X151765086Y-124760426D01*
X151765086Y-124760426D02*
X151796533Y-124697531D01*
X151796533Y-124697531D02*
X151859428Y-124634636D01*
X151859428Y-124634636D02*
X151953771Y-124603188D01*
X151953771Y-124603188D02*
X152016667Y-124603188D01*
X152016667Y-124603188D02*
X152111009Y-124634636D01*
X152111009Y-124634636D02*
X152142457Y-124666083D01*
X152771409Y-125263588D02*
X152394038Y-125263588D01*
X152582724Y-125263588D02*
X152582724Y-124603188D01*
X152582724Y-124603188D02*
X152519828Y-124697531D01*
X152519828Y-124697531D02*
X152456933Y-124760426D01*
X152456933Y-124760426D02*
X152394038Y-124791874D01*
X153022990Y-124666083D02*
X153054438Y-124634636D01*
X153054438Y-124634636D02*
X153117333Y-124603188D01*
X153117333Y-124603188D02*
X153274571Y-124603188D01*
X153274571Y-124603188D02*
X153337466Y-124634636D01*
X153337466Y-124634636D02*
X153368914Y-124666083D01*
X153368914Y-124666083D02*
X153400361Y-124728979D01*
X153400361Y-124728979D02*
X153400361Y-124791874D01*
X153400361Y-124791874D02*
X153368914Y-124886217D01*
X153368914Y-124886217D02*
X152991542Y-125263588D01*
X152991542Y-125263588D02*
X153400361Y-125263588D01*
X135648141Y-114289532D02*
X135679588Y-114195189D01*
X135679588Y-114195189D02*
X135679588Y-114037951D01*
X135679588Y-114037951D02*
X135648141Y-113975056D01*
X135648141Y-113975056D02*
X135616693Y-113943608D01*
X135616693Y-113943608D02*
X135553798Y-113912161D01*
X135553798Y-113912161D02*
X135490902Y-113912161D01*
X135490902Y-113912161D02*
X135428007Y-113943608D01*
X135428007Y-113943608D02*
X135396560Y-113975056D01*
X135396560Y-113975056D02*
X135365112Y-114037951D01*
X135365112Y-114037951D02*
X135333664Y-114163742D01*
X135333664Y-114163742D02*
X135302217Y-114226637D01*
X135302217Y-114226637D02*
X135270769Y-114258084D01*
X135270769Y-114258084D02*
X135207874Y-114289532D01*
X135207874Y-114289532D02*
X135144979Y-114289532D01*
X135144979Y-114289532D02*
X135082083Y-114258084D01*
X135082083Y-114258084D02*
X135050636Y-114226637D01*
X135050636Y-114226637D02*
X135019188Y-114163742D01*
X135019188Y-114163742D02*
X135019188Y-114006503D01*
X135019188Y-114006503D02*
X135050636Y-113912161D01*
X135019188Y-113692028D02*
X135679588Y-113534790D01*
X135679588Y-113534790D02*
X135207874Y-113408999D01*
X135207874Y-113408999D02*
X135679588Y-113283209D01*
X135679588Y-113283209D02*
X135019188Y-113125971D01*
X135679588Y-112528466D02*
X135679588Y-112905837D01*
X135679588Y-112717151D02*
X135019188Y-112717151D01*
X135019188Y-112717151D02*
X135113531Y-112780047D01*
X135113531Y-112780047D02*
X135176426Y-112842942D01*
X135176426Y-112842942D02*
X135207874Y-112905837D01*
D11*
X131100097Y-119360818D02*
X131068649Y-119392266D01*
X131068649Y-119392266D02*
X130974307Y-119423713D01*
X130974307Y-119423713D02*
X130911411Y-119423713D01*
X130911411Y-119423713D02*
X130817068Y-119392266D01*
X130817068Y-119392266D02*
X130754173Y-119329370D01*
X130754173Y-119329370D02*
X130722726Y-119266475D01*
X130722726Y-119266475D02*
X130691278Y-119140685D01*
X130691278Y-119140685D02*
X130691278Y-119046342D01*
X130691278Y-119046342D02*
X130722726Y-118920551D01*
X130722726Y-118920551D02*
X130754173Y-118857656D01*
X130754173Y-118857656D02*
X130817068Y-118794761D01*
X130817068Y-118794761D02*
X130911411Y-118763313D01*
X130911411Y-118763313D02*
X130974307Y-118763313D01*
X130974307Y-118763313D02*
X131068649Y-118794761D01*
X131068649Y-118794761D02*
X131100097Y-118826208D01*
X131666154Y-118763313D02*
X131540364Y-118763313D01*
X131540364Y-118763313D02*
X131477468Y-118794761D01*
X131477468Y-118794761D02*
X131446021Y-118826208D01*
X131446021Y-118826208D02*
X131383126Y-118920551D01*
X131383126Y-118920551D02*
X131351678Y-119046342D01*
X131351678Y-119046342D02*
X131351678Y-119297923D01*
X131351678Y-119297923D02*
X131383126Y-119360818D01*
X131383126Y-119360818D02*
X131414573Y-119392266D01*
X131414573Y-119392266D02*
X131477468Y-119423713D01*
X131477468Y-119423713D02*
X131603259Y-119423713D01*
X131603259Y-119423713D02*
X131666154Y-119392266D01*
X131666154Y-119392266D02*
X131697602Y-119360818D01*
X131697602Y-119360818D02*
X131729049Y-119297923D01*
X131729049Y-119297923D02*
X131729049Y-119140685D01*
X131729049Y-119140685D02*
X131697602Y-119077789D01*
X131697602Y-119077789D02*
X131666154Y-119046342D01*
X131666154Y-119046342D02*
X131603259Y-119014894D01*
X131603259Y-119014894D02*
X131477468Y-119014894D01*
X131477468Y-119014894D02*
X131414573Y-119046342D01*
X131414573Y-119046342D02*
X131383126Y-119077789D01*
X131383126Y-119077789D02*
X131351678Y-119140685D01*
X130385457Y-127613818D02*
X130354009Y-127645266D01*
X130354009Y-127645266D02*
X130259667Y-127676713D01*
X130259667Y-127676713D02*
X130196771Y-127676713D01*
X130196771Y-127676713D02*
X130102428Y-127645266D01*
X130102428Y-127645266D02*
X130039533Y-127582370D01*
X130039533Y-127582370D02*
X130008086Y-127519475D01*
X130008086Y-127519475D02*
X129976638Y-127393685D01*
X129976638Y-127393685D02*
X129976638Y-127299342D01*
X129976638Y-127299342D02*
X130008086Y-127173551D01*
X130008086Y-127173551D02*
X130039533Y-127110656D01*
X130039533Y-127110656D02*
X130102428Y-127047761D01*
X130102428Y-127047761D02*
X130196771Y-127016313D01*
X130196771Y-127016313D02*
X130259667Y-127016313D01*
X130259667Y-127016313D02*
X130354009Y-127047761D01*
X130354009Y-127047761D02*
X130385457Y-127079208D01*
X131014409Y-127676713D02*
X130637038Y-127676713D01*
X130825724Y-127676713D02*
X130825724Y-127016313D01*
X130825724Y-127016313D02*
X130762828Y-127110656D01*
X130762828Y-127110656D02*
X130699933Y-127173551D01*
X130699933Y-127173551D02*
X130637038Y-127204999D01*
X131580466Y-127016313D02*
X131454676Y-127016313D01*
X131454676Y-127016313D02*
X131391780Y-127047761D01*
X131391780Y-127047761D02*
X131360333Y-127079208D01*
X131360333Y-127079208D02*
X131297438Y-127173551D01*
X131297438Y-127173551D02*
X131265990Y-127299342D01*
X131265990Y-127299342D02*
X131265990Y-127550923D01*
X131265990Y-127550923D02*
X131297438Y-127613818D01*
X131297438Y-127613818D02*
X131328885Y-127645266D01*
X131328885Y-127645266D02*
X131391780Y-127676713D01*
X131391780Y-127676713D02*
X131517571Y-127676713D01*
X131517571Y-127676713D02*
X131580466Y-127645266D01*
X131580466Y-127645266D02*
X131611914Y-127613818D01*
X131611914Y-127613818D02*
X131643361Y-127550923D01*
X131643361Y-127550923D02*
X131643361Y-127393685D01*
X131643361Y-127393685D02*
X131611914Y-127330789D01*
X131611914Y-127330789D02*
X131580466Y-127299342D01*
X131580466Y-127299342D02*
X131517571Y-127267894D01*
X131517571Y-127267894D02*
X131391780Y-127267894D01*
X131391780Y-127267894D02*
X131328885Y-127299342D01*
X131328885Y-127299342D02*
X131297438Y-127330789D01*
X131297438Y-127330789D02*
X131265990Y-127393685D01*
X137394818Y-106568542D02*
X137426266Y-106599990D01*
X137426266Y-106599990D02*
X137457713Y-106694332D01*
X137457713Y-106694332D02*
X137457713Y-106757228D01*
X137457713Y-106757228D02*
X137426266Y-106851571D01*
X137426266Y-106851571D02*
X137363370Y-106914466D01*
X137363370Y-106914466D02*
X137300475Y-106945913D01*
X137300475Y-106945913D02*
X137174685Y-106977361D01*
X137174685Y-106977361D02*
X137080342Y-106977361D01*
X137080342Y-106977361D02*
X136954551Y-106945913D01*
X136954551Y-106945913D02*
X136891656Y-106914466D01*
X136891656Y-106914466D02*
X136828761Y-106851571D01*
X136828761Y-106851571D02*
X136797313Y-106757228D01*
X136797313Y-106757228D02*
X136797313Y-106694332D01*
X136797313Y-106694332D02*
X136828761Y-106599990D01*
X136828761Y-106599990D02*
X136860208Y-106568542D01*
X136860208Y-106316961D02*
X136828761Y-106285513D01*
X136828761Y-106285513D02*
X136797313Y-106222618D01*
X136797313Y-106222618D02*
X136797313Y-106065380D01*
X136797313Y-106065380D02*
X136828761Y-106002485D01*
X136828761Y-106002485D02*
X136860208Y-105971037D01*
X136860208Y-105971037D02*
X136923104Y-105939590D01*
X136923104Y-105939590D02*
X136985999Y-105939590D01*
X136985999Y-105939590D02*
X137080342Y-105971037D01*
X137080342Y-105971037D02*
X137457713Y-106348409D01*
X137457713Y-106348409D02*
X137457713Y-105939590D01*
X136797313Y-105719457D02*
X136797313Y-105310638D01*
X136797313Y-105310638D02*
X137048894Y-105530771D01*
X137048894Y-105530771D02*
X137048894Y-105436428D01*
X137048894Y-105436428D02*
X137080342Y-105373533D01*
X137080342Y-105373533D02*
X137111789Y-105342085D01*
X137111789Y-105342085D02*
X137174685Y-105310638D01*
X137174685Y-105310638D02*
X137331923Y-105310638D01*
X137331923Y-105310638D02*
X137394818Y-105342085D01*
X137394818Y-105342085D02*
X137426266Y-105373533D01*
X137426266Y-105373533D02*
X137457713Y-105436428D01*
X137457713Y-105436428D02*
X137457713Y-105625114D01*
X137457713Y-105625114D02*
X137426266Y-105688009D01*
X137426266Y-105688009D02*
X137394818Y-105719457D01*
X133052457Y-119550713D02*
X132832324Y-119236237D01*
X132675086Y-119550713D02*
X132675086Y-118890313D01*
X132675086Y-118890313D02*
X132926667Y-118890313D01*
X132926667Y-118890313D02*
X132989562Y-118921761D01*
X132989562Y-118921761D02*
X133021009Y-118953208D01*
X133021009Y-118953208D02*
X133052457Y-119016104D01*
X133052457Y-119016104D02*
X133052457Y-119110446D01*
X133052457Y-119110446D02*
X133021009Y-119173342D01*
X133021009Y-119173342D02*
X132989562Y-119204789D01*
X132989562Y-119204789D02*
X132926667Y-119236237D01*
X132926667Y-119236237D02*
X132675086Y-119236237D01*
X133304038Y-118953208D02*
X133335486Y-118921761D01*
X133335486Y-118921761D02*
X133398381Y-118890313D01*
X133398381Y-118890313D02*
X133555619Y-118890313D01*
X133555619Y-118890313D02*
X133618514Y-118921761D01*
X133618514Y-118921761D02*
X133649962Y-118953208D01*
X133649962Y-118953208D02*
X133681409Y-119016104D01*
X133681409Y-119016104D02*
X133681409Y-119078999D01*
X133681409Y-119078999D02*
X133649962Y-119173342D01*
X133649962Y-119173342D02*
X133272590Y-119550713D01*
X133272590Y-119550713D02*
X133681409Y-119550713D01*
X134310361Y-119550713D02*
X133932990Y-119550713D01*
X134121676Y-119550713D02*
X134121676Y-118890313D01*
X134121676Y-118890313D02*
X134058780Y-118984656D01*
X134058780Y-118984656D02*
X133995885Y-119047551D01*
X133995885Y-119047551D02*
X133932990Y-119078999D01*
X143399933Y-133455818D02*
X143368485Y-133487266D01*
X143368485Y-133487266D02*
X143274143Y-133518713D01*
X143274143Y-133518713D02*
X143211247Y-133518713D01*
X143211247Y-133518713D02*
X143116904Y-133487266D01*
X143116904Y-133487266D02*
X143054009Y-133424370D01*
X143054009Y-133424370D02*
X143022562Y-133361475D01*
X143022562Y-133361475D02*
X142991114Y-133235685D01*
X142991114Y-133235685D02*
X142991114Y-133141342D01*
X142991114Y-133141342D02*
X143022562Y-133015551D01*
X143022562Y-133015551D02*
X143054009Y-132952656D01*
X143054009Y-132952656D02*
X143116904Y-132889761D01*
X143116904Y-132889761D02*
X143211247Y-132858313D01*
X143211247Y-132858313D02*
X143274143Y-132858313D01*
X143274143Y-132858313D02*
X143368485Y-132889761D01*
X143368485Y-132889761D02*
X143399933Y-132921208D01*
X143620066Y-132858313D02*
X144060333Y-132858313D01*
X144060333Y-132858313D02*
X143777304Y-133518713D01*
X148860933Y-95801713D02*
X148640800Y-95487237D01*
X148483562Y-95801713D02*
X148483562Y-95141313D01*
X148483562Y-95141313D02*
X148735143Y-95141313D01*
X148735143Y-95141313D02*
X148798038Y-95172761D01*
X148798038Y-95172761D02*
X148829485Y-95204208D01*
X148829485Y-95204208D02*
X148860933Y-95267104D01*
X148860933Y-95267104D02*
X148860933Y-95361446D01*
X148860933Y-95361446D02*
X148829485Y-95424342D01*
X148829485Y-95424342D02*
X148798038Y-95455789D01*
X148798038Y-95455789D02*
X148735143Y-95487237D01*
X148735143Y-95487237D02*
X148483562Y-95487237D01*
X149489885Y-95801713D02*
X149112514Y-95801713D01*
X149301200Y-95801713D02*
X149301200Y-95141313D01*
X149301200Y-95141313D02*
X149238304Y-95235656D01*
X149238304Y-95235656D02*
X149175409Y-95298551D01*
X149175409Y-95298551D02*
X149112514Y-95329999D01*
X135513838Y-127018313D02*
X135513838Y-127552923D01*
X135513838Y-127552923D02*
X135545285Y-127615818D01*
X135545285Y-127615818D02*
X135576733Y-127647266D01*
X135576733Y-127647266D02*
X135639628Y-127678713D01*
X135639628Y-127678713D02*
X135765419Y-127678713D01*
X135765419Y-127678713D02*
X135828314Y-127647266D01*
X135828314Y-127647266D02*
X135859761Y-127615818D01*
X135859761Y-127615818D02*
X135891209Y-127552923D01*
X135891209Y-127552923D02*
X135891209Y-127018313D01*
X136551609Y-127678713D02*
X136174238Y-127678713D01*
X136362924Y-127678713D02*
X136362924Y-127018313D01*
X136362924Y-127018313D02*
X136300028Y-127112656D01*
X136300028Y-127112656D02*
X136237133Y-127175551D01*
X136237133Y-127175551D02*
X136174238Y-127206999D01*
X130806457Y-124755713D02*
X130586324Y-124441237D01*
X130429086Y-124755713D02*
X130429086Y-124095313D01*
X130429086Y-124095313D02*
X130680667Y-124095313D01*
X130680667Y-124095313D02*
X130743562Y-124126761D01*
X130743562Y-124126761D02*
X130775009Y-124158208D01*
X130775009Y-124158208D02*
X130806457Y-124221104D01*
X130806457Y-124221104D02*
X130806457Y-124315446D01*
X130806457Y-124315446D02*
X130775009Y-124378342D01*
X130775009Y-124378342D02*
X130743562Y-124409789D01*
X130743562Y-124409789D02*
X130680667Y-124441237D01*
X130680667Y-124441237D02*
X130429086Y-124441237D01*
X131058038Y-124158208D02*
X131089486Y-124126761D01*
X131089486Y-124126761D02*
X131152381Y-124095313D01*
X131152381Y-124095313D02*
X131309619Y-124095313D01*
X131309619Y-124095313D02*
X131372514Y-124126761D01*
X131372514Y-124126761D02*
X131403962Y-124158208D01*
X131403962Y-124158208D02*
X131435409Y-124221104D01*
X131435409Y-124221104D02*
X131435409Y-124283999D01*
X131435409Y-124283999D02*
X131403962Y-124378342D01*
X131403962Y-124378342D02*
X131026590Y-124755713D01*
X131026590Y-124755713D02*
X131435409Y-124755713D01*
X131686990Y-124158208D02*
X131718438Y-124126761D01*
X131718438Y-124126761D02*
X131781333Y-124095313D01*
X131781333Y-124095313D02*
X131938571Y-124095313D01*
X131938571Y-124095313D02*
X132001466Y-124126761D01*
X132001466Y-124126761D02*
X132032914Y-124158208D01*
X132032914Y-124158208D02*
X132064361Y-124221104D01*
X132064361Y-124221104D02*
X132064361Y-124283999D01*
X132064361Y-124283999D02*
X132032914Y-124378342D01*
X132032914Y-124378342D02*
X131655542Y-124755713D01*
X131655542Y-124755713D02*
X132064361Y-124755713D01*
X138473713Y-106568542D02*
X138159237Y-106788675D01*
X138473713Y-106945913D02*
X137813313Y-106945913D01*
X137813313Y-106945913D02*
X137813313Y-106694332D01*
X137813313Y-106694332D02*
X137844761Y-106631437D01*
X137844761Y-106631437D02*
X137876208Y-106599990D01*
X137876208Y-106599990D02*
X137939104Y-106568542D01*
X137939104Y-106568542D02*
X138033446Y-106568542D01*
X138033446Y-106568542D02*
X138096342Y-106599990D01*
X138096342Y-106599990D02*
X138127789Y-106631437D01*
X138127789Y-106631437D02*
X138159237Y-106694332D01*
X138159237Y-106694332D02*
X138159237Y-106945913D01*
X138473713Y-105939590D02*
X138473713Y-106316961D01*
X138473713Y-106128275D02*
X137813313Y-106128275D01*
X137813313Y-106128275D02*
X137907656Y-106191171D01*
X137907656Y-106191171D02*
X137970551Y-106254066D01*
X137970551Y-106254066D02*
X138001999Y-106316961D01*
X138096342Y-105562219D02*
X138064894Y-105625114D01*
X138064894Y-105625114D02*
X138033446Y-105656561D01*
X138033446Y-105656561D02*
X137970551Y-105688009D01*
X137970551Y-105688009D02*
X137939104Y-105688009D01*
X137939104Y-105688009D02*
X137876208Y-105656561D01*
X137876208Y-105656561D02*
X137844761Y-105625114D01*
X137844761Y-105625114D02*
X137813313Y-105562219D01*
X137813313Y-105562219D02*
X137813313Y-105436428D01*
X137813313Y-105436428D02*
X137844761Y-105373533D01*
X137844761Y-105373533D02*
X137876208Y-105342085D01*
X137876208Y-105342085D02*
X137939104Y-105310638D01*
X137939104Y-105310638D02*
X137970551Y-105310638D01*
X137970551Y-105310638D02*
X138033446Y-105342085D01*
X138033446Y-105342085D02*
X138064894Y-105373533D01*
X138064894Y-105373533D02*
X138096342Y-105436428D01*
X138096342Y-105436428D02*
X138096342Y-105562219D01*
X138096342Y-105562219D02*
X138127789Y-105625114D01*
X138127789Y-105625114D02*
X138159237Y-105656561D01*
X138159237Y-105656561D02*
X138222132Y-105688009D01*
X138222132Y-105688009D02*
X138347923Y-105688009D01*
X138347923Y-105688009D02*
X138410818Y-105656561D01*
X138410818Y-105656561D02*
X138442266Y-105625114D01*
X138442266Y-105625114D02*
X138473713Y-105562219D01*
X138473713Y-105562219D02*
X138473713Y-105436428D01*
X138473713Y-105436428D02*
X138442266Y-105373533D01*
X138442266Y-105373533D02*
X138410818Y-105342085D01*
X138410818Y-105342085D02*
X138347923Y-105310638D01*
X138347923Y-105310638D02*
X138222132Y-105310638D01*
X138222132Y-105310638D02*
X138159237Y-105342085D01*
X138159237Y-105342085D02*
X138127789Y-105373533D01*
X138127789Y-105373533D02*
X138096342Y-105436428D01*
X148316818Y-105580542D02*
X148348266Y-105611990D01*
X148348266Y-105611990D02*
X148379713Y-105706332D01*
X148379713Y-105706332D02*
X148379713Y-105769228D01*
X148379713Y-105769228D02*
X148348266Y-105863571D01*
X148348266Y-105863571D02*
X148285370Y-105926466D01*
X148285370Y-105926466D02*
X148222475Y-105957913D01*
X148222475Y-105957913D02*
X148096685Y-105989361D01*
X148096685Y-105989361D02*
X148002342Y-105989361D01*
X148002342Y-105989361D02*
X147876551Y-105957913D01*
X147876551Y-105957913D02*
X147813656Y-105926466D01*
X147813656Y-105926466D02*
X147750761Y-105863571D01*
X147750761Y-105863571D02*
X147719313Y-105769228D01*
X147719313Y-105769228D02*
X147719313Y-105706332D01*
X147719313Y-105706332D02*
X147750761Y-105611990D01*
X147750761Y-105611990D02*
X147782208Y-105580542D01*
X148379713Y-104951590D02*
X148379713Y-105328961D01*
X148379713Y-105140275D02*
X147719313Y-105140275D01*
X147719313Y-105140275D02*
X147813656Y-105203171D01*
X147813656Y-105203171D02*
X147876551Y-105266066D01*
X147876551Y-105266066D02*
X147907999Y-105328961D01*
X147719313Y-104731457D02*
X147719313Y-104291190D01*
X147719313Y-104291190D02*
X148379713Y-104574219D01*
X130258457Y-122342713D02*
X130038324Y-122028237D01*
X129881086Y-122342713D02*
X129881086Y-121682313D01*
X129881086Y-121682313D02*
X130132667Y-121682313D01*
X130132667Y-121682313D02*
X130195562Y-121713761D01*
X130195562Y-121713761D02*
X130227009Y-121745208D01*
X130227009Y-121745208D02*
X130258457Y-121808104D01*
X130258457Y-121808104D02*
X130258457Y-121902446D01*
X130258457Y-121902446D02*
X130227009Y-121965342D01*
X130227009Y-121965342D02*
X130195562Y-121996789D01*
X130195562Y-121996789D02*
X130132667Y-122028237D01*
X130132667Y-122028237D02*
X129881086Y-122028237D01*
X130887409Y-122342713D02*
X130510038Y-122342713D01*
X130698724Y-122342713D02*
X130698724Y-121682313D01*
X130698724Y-121682313D02*
X130635828Y-121776656D01*
X130635828Y-121776656D02*
X130572933Y-121839551D01*
X130572933Y-121839551D02*
X130510038Y-121870999D01*
X131138990Y-121745208D02*
X131170438Y-121713761D01*
X131170438Y-121713761D02*
X131233333Y-121682313D01*
X131233333Y-121682313D02*
X131390571Y-121682313D01*
X131390571Y-121682313D02*
X131453466Y-121713761D01*
X131453466Y-121713761D02*
X131484914Y-121745208D01*
X131484914Y-121745208D02*
X131516361Y-121808104D01*
X131516361Y-121808104D02*
X131516361Y-121870999D01*
X131516361Y-121870999D02*
X131484914Y-121965342D01*
X131484914Y-121965342D02*
X131107542Y-122342713D01*
X131107542Y-122342713D02*
X131516361Y-122342713D01*
D10*
X147578838Y-102253188D02*
X147578838Y-102787798D01*
X147578838Y-102787798D02*
X147610285Y-102850693D01*
X147610285Y-102850693D02*
X147641733Y-102882141D01*
X147641733Y-102882141D02*
X147704628Y-102913588D01*
X147704628Y-102913588D02*
X147830419Y-102913588D01*
X147830419Y-102913588D02*
X147893314Y-102882141D01*
X147893314Y-102882141D02*
X147924761Y-102850693D01*
X147924761Y-102850693D02*
X147956209Y-102787798D01*
X147956209Y-102787798D02*
X147956209Y-102253188D01*
X148239238Y-102316083D02*
X148270686Y-102284636D01*
X148270686Y-102284636D02*
X148333581Y-102253188D01*
X148333581Y-102253188D02*
X148490819Y-102253188D01*
X148490819Y-102253188D02*
X148553714Y-102284636D01*
X148553714Y-102284636D02*
X148585162Y-102316083D01*
X148585162Y-102316083D02*
X148616609Y-102378979D01*
X148616609Y-102378979D02*
X148616609Y-102441874D01*
X148616609Y-102441874D02*
X148585162Y-102536217D01*
X148585162Y-102536217D02*
X148207790Y-102913588D01*
X148207790Y-102913588D02*
X148616609Y-102913588D01*
X135775141Y-104129532D02*
X135806588Y-104035189D01*
X135806588Y-104035189D02*
X135806588Y-103877951D01*
X135806588Y-103877951D02*
X135775141Y-103815056D01*
X135775141Y-103815056D02*
X135743693Y-103783608D01*
X135743693Y-103783608D02*
X135680798Y-103752161D01*
X135680798Y-103752161D02*
X135617902Y-103752161D01*
X135617902Y-103752161D02*
X135555007Y-103783608D01*
X135555007Y-103783608D02*
X135523560Y-103815056D01*
X135523560Y-103815056D02*
X135492112Y-103877951D01*
X135492112Y-103877951D02*
X135460664Y-104003742D01*
X135460664Y-104003742D02*
X135429217Y-104066637D01*
X135429217Y-104066637D02*
X135397769Y-104098084D01*
X135397769Y-104098084D02*
X135334874Y-104129532D01*
X135334874Y-104129532D02*
X135271979Y-104129532D01*
X135271979Y-104129532D02*
X135209083Y-104098084D01*
X135209083Y-104098084D02*
X135177636Y-104066637D01*
X135177636Y-104066637D02*
X135146188Y-104003742D01*
X135146188Y-104003742D02*
X135146188Y-103846503D01*
X135146188Y-103846503D02*
X135177636Y-103752161D01*
X135146188Y-103532028D02*
X135806588Y-103374790D01*
X135806588Y-103374790D02*
X135334874Y-103248999D01*
X135334874Y-103248999D02*
X135806588Y-103123209D01*
X135806588Y-103123209D02*
X135146188Y-102965971D01*
X135209083Y-102745837D02*
X135177636Y-102714389D01*
X135177636Y-102714389D02*
X135146188Y-102651494D01*
X135146188Y-102651494D02*
X135146188Y-102494256D01*
X135146188Y-102494256D02*
X135177636Y-102431361D01*
X135177636Y-102431361D02*
X135209083Y-102399913D01*
X135209083Y-102399913D02*
X135271979Y-102368466D01*
X135271979Y-102368466D02*
X135334874Y-102368466D01*
X135334874Y-102368466D02*
X135429217Y-102399913D01*
X135429217Y-102399913D02*
X135806588Y-102777285D01*
X135806588Y-102777285D02*
X135806588Y-102368466D01*
D11*
X145331713Y-105713590D02*
X145017237Y-105933723D01*
X145331713Y-106090961D02*
X144671313Y-106090961D01*
X144671313Y-106090961D02*
X144671313Y-105839380D01*
X144671313Y-105839380D02*
X144702761Y-105776485D01*
X144702761Y-105776485D02*
X144734208Y-105745038D01*
X144734208Y-105745038D02*
X144797104Y-105713590D01*
X144797104Y-105713590D02*
X144891446Y-105713590D01*
X144891446Y-105713590D02*
X144954342Y-105745038D01*
X144954342Y-105745038D02*
X144985789Y-105776485D01*
X144985789Y-105776485D02*
X145017237Y-105839380D01*
X145017237Y-105839380D02*
X145017237Y-106090961D01*
X144734208Y-105462009D02*
X144702761Y-105430561D01*
X144702761Y-105430561D02*
X144671313Y-105367666D01*
X144671313Y-105367666D02*
X144671313Y-105210428D01*
X144671313Y-105210428D02*
X144702761Y-105147533D01*
X144702761Y-105147533D02*
X144734208Y-105116085D01*
X144734208Y-105116085D02*
X144797104Y-105084638D01*
X144797104Y-105084638D02*
X144859999Y-105084638D01*
X144859999Y-105084638D02*
X144954342Y-105116085D01*
X144954342Y-105116085D02*
X145331713Y-105493457D01*
X145331713Y-105493457D02*
X145331713Y-105084638D01*
X130806457Y-126216818D02*
X130775009Y-126248266D01*
X130775009Y-126248266D02*
X130680667Y-126279713D01*
X130680667Y-126279713D02*
X130617771Y-126279713D01*
X130617771Y-126279713D02*
X130523428Y-126248266D01*
X130523428Y-126248266D02*
X130460533Y-126185370D01*
X130460533Y-126185370D02*
X130429086Y-126122475D01*
X130429086Y-126122475D02*
X130397638Y-125996685D01*
X130397638Y-125996685D02*
X130397638Y-125902342D01*
X130397638Y-125902342D02*
X130429086Y-125776551D01*
X130429086Y-125776551D02*
X130460533Y-125713656D01*
X130460533Y-125713656D02*
X130523428Y-125650761D01*
X130523428Y-125650761D02*
X130617771Y-125619313D01*
X130617771Y-125619313D02*
X130680667Y-125619313D01*
X130680667Y-125619313D02*
X130775009Y-125650761D01*
X130775009Y-125650761D02*
X130806457Y-125682208D01*
X131435409Y-126279713D02*
X131058038Y-126279713D01*
X131246724Y-126279713D02*
X131246724Y-125619313D01*
X131246724Y-125619313D02*
X131183828Y-125713656D01*
X131183828Y-125713656D02*
X131120933Y-125776551D01*
X131120933Y-125776551D02*
X131058038Y-125807999D01*
X131655542Y-125619313D02*
X132064361Y-125619313D01*
X132064361Y-125619313D02*
X131844228Y-125870894D01*
X131844228Y-125870894D02*
X131938571Y-125870894D01*
X131938571Y-125870894D02*
X132001466Y-125902342D01*
X132001466Y-125902342D02*
X132032914Y-125933789D01*
X132032914Y-125933789D02*
X132064361Y-125996685D01*
X132064361Y-125996685D02*
X132064361Y-126153923D01*
X132064361Y-126153923D02*
X132032914Y-126216818D01*
X132032914Y-126216818D02*
X132001466Y-126248266D01*
X132001466Y-126248266D02*
X131938571Y-126279713D01*
X131938571Y-126279713D02*
X131749885Y-126279713D01*
X131749885Y-126279713D02*
X131686990Y-126248266D01*
X131686990Y-126248266D02*
X131655542Y-126216818D01*
X146284818Y-106342542D02*
X146316266Y-106373990D01*
X146316266Y-106373990D02*
X146347713Y-106468332D01*
X146347713Y-106468332D02*
X146347713Y-106531228D01*
X146347713Y-106531228D02*
X146316266Y-106625571D01*
X146316266Y-106625571D02*
X146253370Y-106688466D01*
X146253370Y-106688466D02*
X146190475Y-106719913D01*
X146190475Y-106719913D02*
X146064685Y-106751361D01*
X146064685Y-106751361D02*
X145970342Y-106751361D01*
X145970342Y-106751361D02*
X145844551Y-106719913D01*
X145844551Y-106719913D02*
X145781656Y-106688466D01*
X145781656Y-106688466D02*
X145718761Y-106625571D01*
X145718761Y-106625571D02*
X145687313Y-106531228D01*
X145687313Y-106531228D02*
X145687313Y-106468332D01*
X145687313Y-106468332D02*
X145718761Y-106373990D01*
X145718761Y-106373990D02*
X145750208Y-106342542D01*
X146347713Y-105713590D02*
X146347713Y-106090961D01*
X146347713Y-105902275D02*
X145687313Y-105902275D01*
X145687313Y-105902275D02*
X145781656Y-105965171D01*
X145781656Y-105965171D02*
X145844551Y-106028066D01*
X145844551Y-106028066D02*
X145875999Y-106090961D01*
X145970342Y-105336219D02*
X145938894Y-105399114D01*
X145938894Y-105399114D02*
X145907446Y-105430561D01*
X145907446Y-105430561D02*
X145844551Y-105462009D01*
X145844551Y-105462009D02*
X145813104Y-105462009D01*
X145813104Y-105462009D02*
X145750208Y-105430561D01*
X145750208Y-105430561D02*
X145718761Y-105399114D01*
X145718761Y-105399114D02*
X145687313Y-105336219D01*
X145687313Y-105336219D02*
X145687313Y-105210428D01*
X145687313Y-105210428D02*
X145718761Y-105147533D01*
X145718761Y-105147533D02*
X145750208Y-105116085D01*
X145750208Y-105116085D02*
X145813104Y-105084638D01*
X145813104Y-105084638D02*
X145844551Y-105084638D01*
X145844551Y-105084638D02*
X145907446Y-105116085D01*
X145907446Y-105116085D02*
X145938894Y-105147533D01*
X145938894Y-105147533D02*
X145970342Y-105210428D01*
X145970342Y-105210428D02*
X145970342Y-105336219D01*
X145970342Y-105336219D02*
X146001789Y-105399114D01*
X146001789Y-105399114D02*
X146033237Y-105430561D01*
X146033237Y-105430561D02*
X146096132Y-105462009D01*
X146096132Y-105462009D02*
X146221923Y-105462009D01*
X146221923Y-105462009D02*
X146284818Y-105430561D01*
X146284818Y-105430561D02*
X146316266Y-105399114D01*
X146316266Y-105399114D02*
X146347713Y-105336219D01*
X146347713Y-105336219D02*
X146347713Y-105210428D01*
X146347713Y-105210428D02*
X146316266Y-105147533D01*
X146316266Y-105147533D02*
X146284818Y-105116085D01*
X146284818Y-105116085D02*
X146221923Y-105084638D01*
X146221923Y-105084638D02*
X146096132Y-105084638D01*
X146096132Y-105084638D02*
X146033237Y-105116085D01*
X146033237Y-105116085D02*
X146001789Y-105147533D01*
X146001789Y-105147533D02*
X145970342Y-105210428D01*
X149421113Y-128126066D02*
X149106637Y-128346199D01*
X149421113Y-128503437D02*
X148760713Y-128503437D01*
X148760713Y-128503437D02*
X148760713Y-128251856D01*
X148760713Y-128251856D02*
X148792161Y-128188961D01*
X148792161Y-128188961D02*
X148823608Y-128157514D01*
X148823608Y-128157514D02*
X148886504Y-128126066D01*
X148886504Y-128126066D02*
X148980846Y-128126066D01*
X148980846Y-128126066D02*
X149043742Y-128157514D01*
X149043742Y-128157514D02*
X149075189Y-128188961D01*
X149075189Y-128188961D02*
X149106637Y-128251856D01*
X149106637Y-128251856D02*
X149106637Y-128503437D01*
X148760713Y-127560009D02*
X148760713Y-127685799D01*
X148760713Y-127685799D02*
X148792161Y-127748695D01*
X148792161Y-127748695D02*
X148823608Y-127780142D01*
X148823608Y-127780142D02*
X148917951Y-127843037D01*
X148917951Y-127843037D02*
X149043742Y-127874485D01*
X149043742Y-127874485D02*
X149295323Y-127874485D01*
X149295323Y-127874485D02*
X149358218Y-127843037D01*
X149358218Y-127843037D02*
X149389666Y-127811590D01*
X149389666Y-127811590D02*
X149421113Y-127748695D01*
X149421113Y-127748695D02*
X149421113Y-127622904D01*
X149421113Y-127622904D02*
X149389666Y-127560009D01*
X149389666Y-127560009D02*
X149358218Y-127528561D01*
X149358218Y-127528561D02*
X149295323Y-127497114D01*
X149295323Y-127497114D02*
X149138085Y-127497114D01*
X149138085Y-127497114D02*
X149075189Y-127528561D01*
X149075189Y-127528561D02*
X149043742Y-127560009D01*
X149043742Y-127560009D02*
X149012294Y-127622904D01*
X149012294Y-127622904D02*
X149012294Y-127748695D01*
X149012294Y-127748695D02*
X149043742Y-127811590D01*
X149043742Y-127811590D02*
X149075189Y-127843037D01*
X149075189Y-127843037D02*
X149138085Y-127874485D01*
X131020457Y-129137818D02*
X130989009Y-129169266D01*
X130989009Y-129169266D02*
X130894667Y-129200713D01*
X130894667Y-129200713D02*
X130831771Y-129200713D01*
X130831771Y-129200713D02*
X130737428Y-129169266D01*
X130737428Y-129169266D02*
X130674533Y-129106370D01*
X130674533Y-129106370D02*
X130643086Y-129043475D01*
X130643086Y-129043475D02*
X130611638Y-128917685D01*
X130611638Y-128917685D02*
X130611638Y-128823342D01*
X130611638Y-128823342D02*
X130643086Y-128697551D01*
X130643086Y-128697551D02*
X130674533Y-128634656D01*
X130674533Y-128634656D02*
X130737428Y-128571761D01*
X130737428Y-128571761D02*
X130831771Y-128540313D01*
X130831771Y-128540313D02*
X130894667Y-128540313D01*
X130894667Y-128540313D02*
X130989009Y-128571761D01*
X130989009Y-128571761D02*
X131020457Y-128603208D01*
X131649409Y-129200713D02*
X131272038Y-129200713D01*
X131460724Y-129200713D02*
X131460724Y-128540313D01*
X131460724Y-128540313D02*
X131397828Y-128634656D01*
X131397828Y-128634656D02*
X131334933Y-128697551D01*
X131334933Y-128697551D02*
X131272038Y-128728999D01*
X132278361Y-129200713D02*
X131900990Y-129200713D01*
X132089676Y-129200713D02*
X132089676Y-128540313D01*
X132089676Y-128540313D02*
X132026780Y-128634656D01*
X132026780Y-128634656D02*
X131963885Y-128697551D01*
X131963885Y-128697551D02*
X131900990Y-128728999D01*
D10*
X136886693Y-132504542D02*
X136918141Y-132535990D01*
X136918141Y-132535990D02*
X136949588Y-132630332D01*
X136949588Y-132630332D02*
X136949588Y-132693228D01*
X136949588Y-132693228D02*
X136918141Y-132787571D01*
X136918141Y-132787571D02*
X136855245Y-132850466D01*
X136855245Y-132850466D02*
X136792350Y-132881913D01*
X136792350Y-132881913D02*
X136666560Y-132913361D01*
X136666560Y-132913361D02*
X136572217Y-132913361D01*
X136572217Y-132913361D02*
X136446426Y-132881913D01*
X136446426Y-132881913D02*
X136383531Y-132850466D01*
X136383531Y-132850466D02*
X136320636Y-132787571D01*
X136320636Y-132787571D02*
X136289188Y-132693228D01*
X136289188Y-132693228D02*
X136289188Y-132630332D01*
X136289188Y-132630332D02*
X136320636Y-132535990D01*
X136320636Y-132535990D02*
X136352083Y-132504542D01*
X136352083Y-132252961D02*
X136320636Y-132221513D01*
X136320636Y-132221513D02*
X136289188Y-132158618D01*
X136289188Y-132158618D02*
X136289188Y-132001380D01*
X136289188Y-132001380D02*
X136320636Y-131938485D01*
X136320636Y-131938485D02*
X136352083Y-131907037D01*
X136352083Y-131907037D02*
X136414979Y-131875590D01*
X136414979Y-131875590D02*
X136477874Y-131875590D01*
X136477874Y-131875590D02*
X136572217Y-131907037D01*
X136572217Y-131907037D02*
X136949588Y-132284409D01*
X136949588Y-132284409D02*
X136949588Y-131875590D01*
X136949588Y-131246638D02*
X136949588Y-131624009D01*
X136949588Y-131435323D02*
X136289188Y-131435323D01*
X136289188Y-131435323D02*
X136383531Y-131498219D01*
X136383531Y-131498219D02*
X136446426Y-131561114D01*
X136446426Y-131561114D02*
X136477874Y-131624009D01*
D11*
X143299713Y-105713590D02*
X142985237Y-105933723D01*
X143299713Y-106090961D02*
X142639313Y-106090961D01*
X142639313Y-106090961D02*
X142639313Y-105839380D01*
X142639313Y-105839380D02*
X142670761Y-105776485D01*
X142670761Y-105776485D02*
X142702208Y-105745038D01*
X142702208Y-105745038D02*
X142765104Y-105713590D01*
X142765104Y-105713590D02*
X142859446Y-105713590D01*
X142859446Y-105713590D02*
X142922342Y-105745038D01*
X142922342Y-105745038D02*
X142953789Y-105776485D01*
X142953789Y-105776485D02*
X142985237Y-105839380D01*
X142985237Y-105839380D02*
X142985237Y-106090961D01*
X142859446Y-105147533D02*
X143299713Y-105147533D01*
X142607866Y-105304771D02*
X143079580Y-105462009D01*
X143079580Y-105462009D02*
X143079580Y-105053190D01*
X137648818Y-112436542D02*
X137680266Y-112467990D01*
X137680266Y-112467990D02*
X137711713Y-112562332D01*
X137711713Y-112562332D02*
X137711713Y-112625228D01*
X137711713Y-112625228D02*
X137680266Y-112719571D01*
X137680266Y-112719571D02*
X137617370Y-112782466D01*
X137617370Y-112782466D02*
X137554475Y-112813913D01*
X137554475Y-112813913D02*
X137428685Y-112845361D01*
X137428685Y-112845361D02*
X137334342Y-112845361D01*
X137334342Y-112845361D02*
X137208551Y-112813913D01*
X137208551Y-112813913D02*
X137145656Y-112782466D01*
X137145656Y-112782466D02*
X137082761Y-112719571D01*
X137082761Y-112719571D02*
X137051313Y-112625228D01*
X137051313Y-112625228D02*
X137051313Y-112562332D01*
X137051313Y-112562332D02*
X137082761Y-112467990D01*
X137082761Y-112467990D02*
X137114208Y-112436542D01*
X137711713Y-111807590D02*
X137711713Y-112184961D01*
X137711713Y-111996275D02*
X137051313Y-111996275D01*
X137051313Y-111996275D02*
X137145656Y-112059171D01*
X137145656Y-112059171D02*
X137208551Y-112122066D01*
X137208551Y-112122066D02*
X137239999Y-112184961D01*
X137271446Y-111241533D02*
X137711713Y-111241533D01*
X137019866Y-111398771D02*
X137491580Y-111556009D01*
X137491580Y-111556009D02*
X137491580Y-111147190D01*
D13*
%TO.C,J9*%
X126890000Y-96012000D02*
X126890000Y-94632000D01*
X126890000Y-94632000D02*
X128270000Y-94632000D01*
%TO.C,J1*%
X154830000Y-96012000D02*
X154830000Y-94632000D01*
X154830000Y-94632000D02*
X156210000Y-94632000D01*
%TO.C,D2*%
X149960000Y-134464800D02*
X149960000Y-132179800D01*
X148490000Y-134464800D02*
X149960000Y-134464800D01*
X148490000Y-132179800D02*
X148490000Y-134464800D01*
%TO.C,D3*%
X151445200Y-134454000D02*
X151445200Y-132169000D01*
X149975200Y-134454000D02*
X151445200Y-134454000D01*
X149975200Y-132169000D02*
X149975200Y-134454000D01*
%TO.C,D4*%
X153008000Y-134454000D02*
X153008000Y-132169000D01*
X151538000Y-134454000D02*
X153008000Y-134454000D01*
X151538000Y-132169000D02*
X151538000Y-134454000D01*
%TO.C,D5*%
X154532000Y-134454000D02*
X154532000Y-132169000D01*
X153062000Y-134454000D02*
X154532000Y-134454000D01*
X153062000Y-132169000D02*
X153062000Y-134454000D01*
D14*
%TO.C,J10*%
X147418000Y-98106000D02*
X147418000Y-99806000D01*
X138078000Y-98106000D02*
X138078000Y-99806000D01*
%TO.C,R23*%
X141350000Y-103948359D02*
X141350000Y-104255641D01*
X140590000Y-103948359D02*
X140590000Y-104255641D01*
%TO.C,R24*%
X144398000Y-103948359D02*
X144398000Y-104255641D01*
X143638000Y-103948359D02*
X143638000Y-104255641D01*
D13*
%TO.C,C22*%
X135403000Y-129899836D02*
X135403000Y-129684164D01*
X136123000Y-129899836D02*
X136123000Y-129684164D01*
D14*
%TO.C,R10*%
X132614641Y-119887000D02*
X132307359Y-119887000D01*
X132614641Y-120647000D02*
X132307359Y-120647000D01*
%TO.C,C19*%
X138832000Y-104004164D02*
X138832000Y-104219836D01*
X139552000Y-104004164D02*
X139552000Y-104219836D01*
D13*
%TO.C,X2*%
X133125000Y-129606000D02*
X133125000Y-132576000D01*
X134845000Y-129606000D02*
X133125000Y-129606000D01*
X134845000Y-132576000D02*
X134845000Y-129606000D01*
D14*
%TO.C,C5*%
X138301000Y-113676580D02*
X138301000Y-113395420D01*
X139321000Y-113676580D02*
X139321000Y-113395420D01*
%TO.C,R19*%
X141098000Y-112874359D02*
X141098000Y-113181641D01*
X141858000Y-112874359D02*
X141858000Y-113181641D01*
%TO.C,R14*%
X150942641Y-119760000D02*
X150635359Y-119760000D01*
X150942641Y-120520000D02*
X150635359Y-120520000D01*
%TO.C,R11*%
X150635359Y-120776000D02*
X150942641Y-120776000D01*
X150635359Y-121536000D02*
X150942641Y-121536000D01*
%TO.C,R7*%
X150318200Y-129473359D02*
X150318200Y-129780641D01*
X151078200Y-129473359D02*
X151078200Y-129780641D01*
%TO.C,R8*%
X151893000Y-129473359D02*
X151893000Y-129780641D01*
X152653000Y-129473359D02*
X152653000Y-129780641D01*
%TO.C,C1*%
X152906000Y-98030420D02*
X152906000Y-98311580D01*
X153926000Y-98030420D02*
X153926000Y-98311580D01*
%TO.C,R15*%
X150942641Y-118744000D02*
X150635359Y-118744000D01*
X150942641Y-119504000D02*
X150635359Y-119504000D01*
%TO.C,C4*%
X150989420Y-116963000D02*
X151270580Y-116963000D01*
X150989420Y-117983000D02*
X151270580Y-117983000D01*
%TO.C,R9*%
X153467800Y-129473359D02*
X153467800Y-129780641D01*
X154227800Y-129473359D02*
X154227800Y-129780641D01*
%TO.C,R16*%
X135510000Y-100227641D02*
X135510000Y-99920359D01*
X136270000Y-100227641D02*
X136270000Y-99920359D01*
%TO.C,R3*%
X141606000Y-104255641D02*
X141606000Y-103948359D01*
X142366000Y-104255641D02*
X142366000Y-103948359D01*
%TO.C,C15*%
X149411164Y-115843000D02*
X149626836Y-115843000D01*
X149411164Y-116563000D02*
X149626836Y-116563000D01*
D13*
%TO.C,D1*%
X152578000Y-96282000D02*
X148718000Y-96282000D01*
X152578000Y-98282000D02*
X148718000Y-98282000D01*
X152578000Y-98282000D02*
X152578000Y-96282000D01*
D14*
%TO.C,X1*%
X139430000Y-132070000D02*
X139430000Y-132860000D01*
X140220000Y-132860000D02*
X139430000Y-132860000D01*
X140860000Y-130460000D02*
X141080000Y-130460000D01*
X140860000Y-132680000D02*
X141080000Y-132680000D01*
%TO.C,C2*%
X152144000Y-104507420D02*
X152144000Y-104788580D01*
X153164000Y-104507420D02*
X153164000Y-104788580D01*
%TO.C,J8*%
X145848000Y-108518000D02*
X145848000Y-112348000D01*
X150988000Y-109748000D02*
X150988000Y-112348000D01*
X150988000Y-112348000D02*
X145848000Y-112348000D01*
X153588000Y-107148000D02*
X147558000Y-107148000D01*
X153588000Y-107148000D02*
X153588000Y-109748000D01*
X153588000Y-109748000D02*
X150988000Y-109748000D01*
X153588000Y-111018000D02*
X153588000Y-112348000D01*
X153588000Y-112348000D02*
X152258000Y-112348000D01*
%TO.C,C8*%
X138070000Y-132224164D02*
X138070000Y-132439836D01*
X138790000Y-132224164D02*
X138790000Y-132439836D01*
%TO.C,R13*%
X133109359Y-123062000D02*
X133416641Y-123062000D01*
X133109359Y-123822000D02*
X133416641Y-123822000D01*
%TO.C,C12*%
X150427164Y-124606000D02*
X150642836Y-124606000D01*
X150427164Y-125326000D02*
X150642836Y-125326000D01*
D13*
%TO.C,SW1*%
X134704000Y-115398000D02*
X134304000Y-115398000D01*
X134704000Y-110658000D02*
X134704000Y-115398000D01*
X134704000Y-110658000D02*
X134304000Y-110658000D01*
X131304000Y-115398000D02*
X133364000Y-115398000D01*
X131304000Y-110658000D02*
X133364000Y-110658000D01*
X129964000Y-115398000D02*
X130364000Y-115398000D01*
X129964000Y-110658000D02*
X130364000Y-110658000D01*
X129964000Y-110658000D02*
X129964000Y-115398000D01*
D14*
%TO.C,C6*%
X131425836Y-118597000D02*
X131210164Y-118597000D01*
X131425836Y-117877000D02*
X131210164Y-117877000D01*
%TO.C,C16*%
X133403580Y-126996000D02*
X133122420Y-126996000D01*
X133403580Y-128016000D02*
X133122420Y-128016000D01*
%TO.C,C23*%
X136800000Y-104219836D02*
X136800000Y-104004164D01*
X137520000Y-104219836D02*
X137520000Y-104004164D01*
%TO.C,R21*%
X133323359Y-118617000D02*
X133630641Y-118617000D01*
X133323359Y-117857000D02*
X133630641Y-117857000D01*
%TO.C,C7*%
X143150000Y-131462164D02*
X143150000Y-131677836D01*
X143870000Y-131462164D02*
X143870000Y-131677836D01*
%TO.C,R1*%
X150468359Y-95124000D02*
X150775641Y-95124000D01*
X150468359Y-95884000D02*
X150775641Y-95884000D01*
%TO.C,U1*%
X137130000Y-117062000D02*
X138080000Y-117062000D01*
X137130000Y-118012000D02*
X137130000Y-117062000D01*
X137130000Y-126332000D02*
X137130000Y-127282000D01*
X137130000Y-127282000D02*
X138080000Y-127282000D01*
X147350000Y-117062000D02*
X146400000Y-117062000D01*
X147350000Y-118012000D02*
X147350000Y-117062000D01*
X147350000Y-126332000D02*
X147350000Y-127282000D01*
X147350000Y-127282000D02*
X146400000Y-127282000D01*
X138080000Y-127897000D02*
X137610000Y-128237000D01*
X137610000Y-127557000D01*
X138080000Y-127897000D01*
G36*
X138080000Y-127897000D02*
G01*
X137610000Y-128237000D01*
X137610000Y-127557000D01*
X138080000Y-127897000D01*
G37*
%TO.C,R22*%
X133416641Y-124078000D02*
X133109359Y-124078000D01*
X133416641Y-124838000D02*
X133109359Y-124838000D01*
%TO.C,R18*%
X137796000Y-104265641D02*
X137796000Y-103958359D01*
X138556000Y-104265641D02*
X138556000Y-103958359D01*
%TO.C,C17*%
X148715000Y-104788580D02*
X148715000Y-104507420D01*
X149735000Y-104788580D02*
X149735000Y-104507420D01*
%TO.C,R12*%
X132561359Y-121665000D02*
X132868641Y-121665000D01*
X132561359Y-122425000D02*
X132868641Y-122425000D01*
%TO.C,U2*%
X148681000Y-100584000D02*
X148681000Y-99934000D01*
X148681000Y-100584000D02*
X148681000Y-101234000D01*
X151801000Y-100584000D02*
X151801000Y-99934000D01*
X151801000Y-100584000D02*
X151801000Y-101234000D01*
X148731000Y-101746500D02*
X148401000Y-101986500D01*
X148401000Y-101506500D01*
X148731000Y-101746500D01*
G36*
X148731000Y-101746500D02*
G01*
X148401000Y-101986500D01*
X148401000Y-101506500D01*
X148731000Y-101746500D01*
G37*
D13*
%TO.C,SW2*%
X129964000Y-100752000D02*
X129964000Y-105492000D01*
X129964000Y-100752000D02*
X130364000Y-100752000D01*
X129964000Y-105492000D02*
X130364000Y-105492000D01*
X131304000Y-100752000D02*
X133364000Y-100752000D01*
X131304000Y-105492000D02*
X133364000Y-105492000D01*
X134704000Y-100752000D02*
X134304000Y-100752000D01*
X134704000Y-100752000D02*
X134704000Y-105492000D01*
X134704000Y-105492000D02*
X134304000Y-105492000D01*
D14*
%TO.C,R2*%
X145541000Y-104255641D02*
X145541000Y-103948359D01*
X144781000Y-104255641D02*
X144781000Y-103948359D01*
%TO.C,C13*%
X133370836Y-125622000D02*
X133155164Y-125622000D01*
X133370836Y-126342000D02*
X133155164Y-126342000D01*
%TO.C,C18*%
X146579000Y-105136836D02*
X146579000Y-104921164D01*
X147299000Y-105136836D02*
X147299000Y-104921164D01*
%TO.C,R6*%
X148845000Y-129515359D02*
X148845000Y-129822641D01*
X149605000Y-129515359D02*
X149605000Y-129822641D01*
%TO.C,C11*%
X133838836Y-128543000D02*
X133623164Y-128543000D01*
X133838836Y-129263000D02*
X133623164Y-129263000D01*
D13*
%TO.C,C21*%
X135403000Y-132224164D02*
X135403000Y-132439836D01*
X136123000Y-132224164D02*
X136123000Y-132439836D01*
D14*
%TO.C,R4*%
X142622000Y-104255641D02*
X142622000Y-103948359D01*
X143382000Y-104255641D02*
X143382000Y-103948359D01*
%TO.C,C14*%
X136927000Y-114151836D02*
X136927000Y-113936164D01*
X137647000Y-114151836D02*
X137647000Y-113936164D01*
%TD*%
%LPC*%
D15*
%TO.C,J9*%
X128270000Y-134112000D03*
X128270000Y-131572000D03*
X128270000Y-129032000D03*
X128270000Y-126492000D03*
X128270000Y-123952000D03*
X128270000Y-121412000D03*
X128270000Y-118872000D03*
X128270000Y-116332000D03*
X128270000Y-113792000D03*
X128270000Y-111252000D03*
X128270000Y-108712000D03*
X128270000Y-106172000D03*
X128270000Y-103632000D03*
X128270000Y-101092000D03*
X128270000Y-98552000D03*
D16*
X128270000Y-96012000D03*
%TD*%
D15*
%TO.C,J1*%
X156210000Y-134112000D03*
X156210000Y-131572000D03*
X156210000Y-129032000D03*
X156210000Y-126492000D03*
X156210000Y-123952000D03*
X156210000Y-121412000D03*
X156210000Y-118872000D03*
X156210000Y-116332000D03*
X156210000Y-113792000D03*
X156210000Y-111252000D03*
X156210000Y-108712000D03*
X156210000Y-106172000D03*
X156210000Y-103632000D03*
X156210000Y-101092000D03*
X156210000Y-98552000D03*
D16*
X156210000Y-96012000D03*
%TD*%
D17*
%TO.C,D2*%
X149225000Y-132192300D03*
X149225000Y-133767300D03*
%TD*%
%TO.C,D3*%
X150710200Y-132181500D03*
X150710200Y-133756500D03*
%TD*%
%TO.C,D4*%
X152273000Y-132181500D03*
X152273000Y-133756500D03*
%TD*%
%TO.C,D5*%
X153797000Y-132181500D03*
X153797000Y-133756500D03*
%TD*%
D18*
%TO.C,J10*%
X138428000Y-96931000D03*
D19*
X138428000Y-101111000D03*
D18*
X147068000Y-96931000D03*
D19*
X147068000Y-101111000D03*
D20*
X145948000Y-101686000D03*
X145148000Y-101686000D03*
D21*
X144498000Y-101686000D03*
X143498000Y-101686000D03*
X141998000Y-101686000D03*
X140998000Y-101686000D03*
D22*
X140348000Y-101686000D03*
D20*
X139548000Y-101686000D03*
X139548000Y-101686000D03*
D22*
X140348000Y-101686000D03*
D21*
X141498000Y-101686000D03*
X142498000Y-101686000D03*
X142998000Y-101686000D03*
X143998000Y-101686000D03*
D20*
X145148000Y-101686000D03*
X145948000Y-101686000D03*
D23*
X139858000Y-100611000D03*
X145638000Y-100611000D03*
%TD*%
D24*
%TO.C,R23*%
X140970000Y-104612000D03*
X140970000Y-103592000D03*
%TD*%
%TO.C,R24*%
X144018000Y-104612000D03*
X144018000Y-103592000D03*
%TD*%
D25*
%TO.C,C22*%
X135763000Y-130272000D03*
X135763000Y-129312000D03*
%TD*%
D26*
%TO.C,R10*%
X132971000Y-120267000D03*
X131951000Y-120267000D03*
%TD*%
D27*
%TO.C,C19*%
X139192000Y-103632000D03*
X139192000Y-104592000D03*
%TD*%
D28*
%TO.C,X2*%
X133985000Y-130391000D03*
X133985000Y-132241000D03*
%TD*%
D29*
%TO.C,C5*%
X138811000Y-114311000D03*
X138811000Y-112761000D03*
%TD*%
D24*
%TO.C,R19*%
X141478000Y-112518000D03*
X141478000Y-113538000D03*
%TD*%
D26*
%TO.C,R14*%
X151299000Y-120140000D03*
X150279000Y-120140000D03*
%TD*%
D30*
%TO.C,FB1*%
X150749000Y-103655000D03*
X150749000Y-104625000D03*
%TD*%
D31*
%TO.C,R11*%
X150279000Y-121156000D03*
X151299000Y-121156000D03*
%TD*%
D24*
%TO.C,R7*%
X150698200Y-129117000D03*
X150698200Y-130137000D03*
%TD*%
%TO.C,R8*%
X152273000Y-129117000D03*
X152273000Y-130137000D03*
%TD*%
D32*
%TO.C,C1*%
X153416000Y-97396000D03*
X153416000Y-98946000D03*
%TD*%
D26*
%TO.C,R15*%
X151299000Y-119124000D03*
X150279000Y-119124000D03*
%TD*%
D33*
%TO.C,C4*%
X150355000Y-117473000D03*
X151905000Y-117473000D03*
%TD*%
D24*
%TO.C,R9*%
X153847800Y-129117000D03*
X153847800Y-130137000D03*
%TD*%
D34*
%TO.C,R16*%
X135890000Y-100584000D03*
X135890000Y-99564000D03*
%TD*%
%TO.C,R3*%
X141986000Y-104612000D03*
X141986000Y-103592000D03*
%TD*%
D35*
%TO.C,C15*%
X149039000Y-116203000D03*
X149999000Y-116203000D03*
%TD*%
D36*
%TO.C,D1*%
X151768000Y-97282000D03*
X148968000Y-97282000D03*
%TD*%
D37*
%TO.C,X1*%
X140145000Y-132195000D03*
X141795000Y-132195000D03*
X141795000Y-130945000D03*
X140145000Y-130945000D03*
%TD*%
D32*
%TO.C,C2*%
X152654000Y-103873000D03*
X152654000Y-105423000D03*
%TD*%
D16*
%TO.C,J8*%
X152258000Y-111018000D03*
D15*
X152258000Y-108478000D03*
X149718000Y-111018000D03*
X149718000Y-108478000D03*
X147178000Y-111018000D03*
X147178000Y-108478000D03*
%TD*%
D27*
%TO.C,C8*%
X138430000Y-131852000D03*
X138430000Y-132812000D03*
%TD*%
D31*
%TO.C,R13*%
X132753000Y-123442000D03*
X133773000Y-123442000D03*
%TD*%
D35*
%TO.C,C12*%
X150055000Y-124966000D03*
X151015000Y-124966000D03*
%TD*%
D38*
%TO.C,SW1*%
X130834000Y-116628000D03*
X130834000Y-109428000D03*
X133834000Y-116628000D03*
X133834000Y-109428000D03*
%TD*%
D39*
%TO.C,C6*%
X130838000Y-118237000D03*
X131798000Y-118237000D03*
%TD*%
D40*
%TO.C,C16*%
X134038000Y-127506000D03*
X132488000Y-127506000D03*
%TD*%
D25*
%TO.C,C23*%
X137160000Y-104592000D03*
X137160000Y-103632000D03*
%TD*%
D31*
%TO.C,R21*%
X133987000Y-118237000D03*
X132967000Y-118237000D03*
%TD*%
D27*
%TO.C,C7*%
X143510000Y-131090000D03*
X143510000Y-132050000D03*
%TD*%
D31*
%TO.C,R1*%
X150112000Y-95504000D03*
X151132000Y-95504000D03*
%TD*%
D41*
%TO.C,U1*%
X138490000Y-127847000D03*
X138990000Y-127847000D03*
X139490000Y-127847000D03*
X139990000Y-127847000D03*
X140490000Y-127847000D03*
X140990000Y-127847000D03*
X141490000Y-127847000D03*
X141990000Y-127847000D03*
X142490000Y-127847000D03*
X142990000Y-127847000D03*
X143490000Y-127847000D03*
X143990000Y-127847000D03*
X144490000Y-127847000D03*
X144990000Y-127847000D03*
X145490000Y-127847000D03*
X145990000Y-127847000D03*
D42*
X147915000Y-125922000D03*
X147915000Y-125422000D03*
X147915000Y-124922000D03*
X147915000Y-124422000D03*
X147915000Y-123922000D03*
X147915000Y-123422000D03*
X147915000Y-122922000D03*
X147915000Y-122422000D03*
X147915000Y-121922000D03*
X147915000Y-121422000D03*
X147915000Y-120922000D03*
X147915000Y-120422000D03*
X147915000Y-119922000D03*
X147915000Y-119422000D03*
X147915000Y-118922000D03*
X147915000Y-118422000D03*
D41*
X145990000Y-116497000D03*
X145490000Y-116497000D03*
X144990000Y-116497000D03*
X144490000Y-116497000D03*
X143990000Y-116497000D03*
X143490000Y-116497000D03*
X142990000Y-116497000D03*
X142490000Y-116497000D03*
X141990000Y-116497000D03*
X141490000Y-116497000D03*
X140990000Y-116497000D03*
X140490000Y-116497000D03*
X139990000Y-116497000D03*
X139490000Y-116497000D03*
X138990000Y-116497000D03*
X138490000Y-116497000D03*
D42*
X136565000Y-118422000D03*
X136565000Y-118922000D03*
X136565000Y-119422000D03*
X136565000Y-119922000D03*
X136565000Y-120422000D03*
X136565000Y-120922000D03*
X136565000Y-121422000D03*
X136565000Y-121922000D03*
X136565000Y-122422000D03*
X136565000Y-122922000D03*
X136565000Y-123422000D03*
X136565000Y-123922000D03*
X136565000Y-124422000D03*
X136565000Y-124922000D03*
X136565000Y-125422000D03*
X136565000Y-125922000D03*
%TD*%
D26*
%TO.C,R22*%
X133773000Y-124458000D03*
X132753000Y-124458000D03*
%TD*%
D34*
%TO.C,R18*%
X138176000Y-104622000D03*
X138176000Y-103602000D03*
%TD*%
D29*
%TO.C,C17*%
X149225000Y-105423000D03*
X149225000Y-103873000D03*
%TD*%
D31*
%TO.C,R12*%
X132205000Y-122045000D03*
X133225000Y-122045000D03*
%TD*%
D43*
%TO.C,U2*%
X149291000Y-101521500D03*
X151191000Y-101521500D03*
X150241000Y-99646500D03*
%TD*%
D38*
%TO.C,SW2*%
X133834000Y-99522000D03*
X133834000Y-106722000D03*
X130834000Y-99522000D03*
X130834000Y-106722000D03*
%TD*%
D34*
%TO.C,R2*%
X145161000Y-103592000D03*
X145161000Y-104612000D03*
%TD*%
D39*
%TO.C,C13*%
X133743000Y-125982000D03*
X132783000Y-125982000D03*
%TD*%
D25*
%TO.C,C18*%
X146939000Y-105509000D03*
X146939000Y-104549000D03*
%TD*%
D24*
%TO.C,R6*%
X149225000Y-129159000D03*
X149225000Y-130179000D03*
%TD*%
D39*
%TO.C,C11*%
X134211000Y-128903000D03*
X133251000Y-128903000D03*
%TD*%
D27*
%TO.C,C21*%
X135763000Y-131852000D03*
X135763000Y-132812000D03*
%TD*%
D34*
%TO.C,R4*%
X143002000Y-104612000D03*
X143002000Y-103592000D03*
%TD*%
D25*
%TO.C,C14*%
X137287000Y-114524000D03*
X137287000Y-113564000D03*
%TD*%
%LPD*%
D44*
X125730000Y-94232000D02*
X158750000Y-94232000D01*
X158750000Y-136142000D01*
X125730000Y-136142000D01*
X125730000Y-94232000D01*
M02*
