%TF.GenerationSoftware,KiCad,Pcbnew,9.0.4*%
%TF.CreationDate,2025-09-05T15:19:02+01:00*%
%TF.ProjectId,MicroPython,4d696372-6f50-4797-9468-6f6e2e6b6963,rev?*%
%TF.SameCoordinates,Original*%
%TF.FileFunction,Copper,L2,Inr*%
%TF.FilePolarity,Positive*%
%FSLAX46Y46*%
G04 Gerber Fmt 4.6, Leading zero omitted, Abs format (unit mm)*
G04 Created by KiCad (PCBNEW 9.0.4) date 2025-09-05 15:19:02*
%MOMM*%
%LPD*%
G01*
G04 APERTURE LIST*
%TA.AperFunction,HeatsinkPad*%
%ADD10O,1.000000X2.100000*%
%TD*%
%TA.AperFunction,HeatsinkPad*%
%ADD11O,1.000000X1.800000*%
%TD*%
%TA.AperFunction,ComponentPad*%
%ADD12R,1.700000X1.700000*%
%TD*%
%TA.AperFunction,ComponentPad*%
%ADD13C,1.700000*%
%TD*%
%TA.AperFunction,ViaPad*%
%ADD14C,0.550000*%
%TD*%
%TA.AperFunction,Conductor*%
%ADD15C,0.220000*%
%TD*%
%TA.AperFunction,Conductor*%
%ADD16C,0.230000*%
%TD*%
%TA.AperFunction,Conductor*%
%ADD17C,0.260000*%
%TD*%
G04 APERTURE END LIST*
D10*
%TO.N,Net-(J10-SHIELD)*%
%TO.C,J10*%
X147068000Y-101111000D03*
D11*
X147068000Y-96931000D03*
D10*
X138428000Y-101111000D03*
D11*
X138428000Y-96931000D03*
%TD*%
D12*
%TO.N,/PB6-SCL-X9*%
%TO.C,J2*%
X128270000Y-116330000D03*
D13*
%TO.N,/PB7-SDA-X10*%
X128270000Y-118870000D03*
%TO.N,/PC4-X11*%
X128270000Y-121410000D03*
%TO.N,/PC5-X12*%
X128270000Y-123950000D03*
%TO.N,/RST-SW*%
X128270000Y-126490000D03*
%TO.N,GND*%
X128270000Y-129030000D03*
%TO.N,+3V3*%
X128270000Y-131570000D03*
%TO.N,VIN*%
X128270000Y-134110000D03*
%TD*%
D12*
%TO.N,+3V3*%
%TO.C,J8*%
X152258000Y-111018000D03*
D13*
%TO.N,/PA13-SWDIO*%
X152258000Y-108478000D03*
%TO.N,unconnected-(J8-Pin_3-Pad3)*%
X149718000Y-111018000D03*
%TO.N,/RST-SW*%
X149718000Y-108478000D03*
%TO.N,GND*%
X147178000Y-111018000D03*
%TO.N,/PA14-SWCLCK*%
X147178000Y-108478000D03*
%TD*%
D12*
%TO.N,VIN*%
%TO.C,J7*%
X156210000Y-96010000D03*
D13*
%TO.N,+3V3*%
X156210000Y-98550000D03*
%TO.N,GND*%
X156210000Y-101090000D03*
%TO.N,/RST-SW*%
X156210000Y-103630000D03*
%TO.N,/PB1-Y12*%
X156210000Y-106170000D03*
%TO.N,/PB0-Y11*%
X156210000Y-108710000D03*
%TO.N,/PB11-Y10*%
X156210000Y-111250000D03*
%TO.N,/PB10-Y9*%
X156210000Y-113790000D03*
%TD*%
D12*
%TO.N,/PA7-X8*%
%TO.C,J1*%
X156210000Y-116330000D03*
D13*
%TO.N,/PA6-X7*%
X156210000Y-118870000D03*
%TO.N,/PA5-X6*%
X156210000Y-121410000D03*
%TO.N,/PA4-X5*%
X156210000Y-123950000D03*
%TO.N,/PA3-X4*%
X156210000Y-126490000D03*
%TO.N,/PA2-X3*%
X156210000Y-129030000D03*
%TO.N,/PA1-X2*%
X156210000Y-131570000D03*
%TO.N,/PA0-X1*%
X156210000Y-134110000D03*
%TD*%
D12*
%TO.N,/PC6-Y1*%
%TO.C,J6*%
X128270000Y-96010000D03*
D13*
%TO.N,/PC7-Y2*%
X128270000Y-98550000D03*
%TO.N,/PB8-Y3*%
X128270000Y-101090000D03*
%TO.N,/PB9-Y4*%
X128270000Y-103630000D03*
%TO.N,/PB12-Y5*%
X128270000Y-106170000D03*
%TO.N,/PB13-Y6*%
X128270000Y-108710000D03*
%TO.N,/PB14-Y7*%
X128270000Y-111250000D03*
%TO.N,/PB15-Y8*%
X128270000Y-113790000D03*
%TD*%
D14*
%TO.N,GND*%
X150368000Y-97282000D03*
X129921000Y-130810000D03*
X138557000Y-125730000D03*
X142748000Y-132461000D03*
X131826000Y-128905000D03*
X149860000Y-112522000D03*
X141478000Y-110871000D03*
X132461000Y-97663000D03*
X152781000Y-101854000D03*
X151892000Y-99060000D03*
X135509000Y-107569000D03*
X150114000Y-106934000D03*
X140843000Y-108204000D03*
X135890000Y-114427000D03*
X135001000Y-100584000D03*
X144510583Y-95235447D03*
X142240000Y-96393000D03*
X154897191Y-107470063D03*
X143891000Y-106172000D03*
X140081000Y-105410000D03*
X140081000Y-103124000D03*
X138684000Y-107315000D03*
X132334000Y-100584000D03*
%TO.N,/PB8-Y3*%
X136593022Y-101364106D03*
%TO.N,GND*%
X129794000Y-104902000D03*
X129667000Y-112014000D03*
X154559000Y-123571000D03*
X139827000Y-123317000D03*
X153416000Y-117475000D03*
X145288000Y-120904000D03*
X146431000Y-118872000D03*
X135509000Y-116459000D03*
X130302000Y-114681000D03*
X129921000Y-120269000D03*
X130048000Y-124968000D03*
X146939000Y-128397000D03*
X151130000Y-127254000D03*
X154686000Y-134620000D03*
X137414000Y-131445000D03*
X130048000Y-134239000D03*
X150876000Y-122174000D03*
X145923000Y-103505000D03*
X145796000Y-98933000D03*
X153924000Y-95250000D03*
X154686000Y-97536000D03*
X154559000Y-125222000D03*
%TO.N,+3V3*%
X154184563Y-103632000D03*
%TO.N,/PB12-Y5*%
X144653000Y-109980000D03*
%TO.N,/PB14-Y7*%
X144272000Y-114552000D03*
%TO.N,/PB1-Y12*%
X145796000Y-105664000D03*
X146125000Y-120267000D03*
%TO.N,/PB9-Y4*%
X135763000Y-103632000D03*
X137909210Y-124990958D03*
%TO.N,/PA0-X1*%
X146509481Y-131902481D03*
%TO.N,/PB3-SW-X17*%
X134891588Y-120571552D03*
X135890000Y-102108000D03*
%TO.N,/PB13-Y6*%
X144272000Y-113536000D03*
%TO.N,/PB7-SDA-X10*%
X134620000Y-123507000D03*
%TO.N,/PB11-Y10*%
X154813000Y-117856000D03*
X149569961Y-119320493D03*
%TO.N,/PA1-X2*%
X146812000Y-131189000D03*
%TO.N,/PA4-X5*%
X146431000Y-124331000D03*
%TO.N,/PC4-X11*%
X146431000Y-122807000D03*
%TO.N,/PC6-Y1*%
X144018000Y-115314000D03*
%TO.N,/PB15-Y8*%
X144018000Y-118489000D03*
%TO.N,/PA2-X3*%
X146812000Y-130300000D03*
%TO.N,/PB0-Y11*%
X154686000Y-119126000D03*
X146335750Y-121124250D03*
%TO.N,/VDDA*%
X148082000Y-105509000D03*
X147955000Y-126746000D03*
%TO.N,/PB6-SCL-X9*%
X133228058Y-121283752D03*
%TO.N,/PC5-X12*%
X145542000Y-124206000D03*
%TO.N,/RST-SW*%
X153289000Y-106760000D03*
X139700000Y-109395000D03*
X140843000Y-126111000D03*
X135476588Y-109002000D03*
%TO.N,/PB8-Y3*%
X138176000Y-123317000D03*
%TO.N,/PC7-Y2*%
X142113000Y-98550000D03*
X142494000Y-115187000D03*
%TO.N,/PB10-Y9*%
X149527885Y-120228716D03*
X150114000Y-114046000D03*
%TO.N,GND*%
X146558000Y-125424534D03*
X154813000Y-127762000D03*
X147955000Y-134747000D03*
X130048000Y-95123000D03*
X138557000Y-121031000D03*
X143891000Y-111887000D03*
X135382000Y-112014000D03*
X131873440Y-124458000D03*
X143002000Y-125730000D03*
X139077797Y-130940660D03*
X138557000Y-110998000D03*
X139319000Y-134493000D03*
X134747000Y-125222000D03*
X129921000Y-102362000D03*
X145161000Y-132588000D03*
X142240000Y-129284000D03*
X137287000Y-128522000D03*
X141732000Y-120777000D03*
%TO.N,+3V3*%
X136271000Y-127506000D03*
X136548720Y-112312720D03*
X150114000Y-125855000D03*
X135199832Y-118616000D03*
X153190000Y-120142000D03*
X136588500Y-133284500D03*
X141478000Y-111885000D03*
X136588500Y-117475000D03*
X147079000Y-133361000D03*
X136588500Y-115187000D03*
%TO.N,/PA13-SWDIO*%
X153543000Y-116078000D03*
X147955000Y-129159000D03*
X139446000Y-117854000D03*
X147193000Y-116586000D03*
%TO.N,/PA14-SWCLCK*%
X144529617Y-119049000D03*
X138780000Y-119049000D03*
X147955000Y-127635000D03*
%TO.N,/PA15-TDI*%
X152273000Y-127635000D03*
X151943988Y-118547201D03*
X138684000Y-119888000D03*
%TO.N,/PB4-TRST*%
X152908000Y-121539000D03*
X153797000Y-127762000D03*
X134620000Y-121537000D03*
%TD*%
D15*
%TO.N,/PB7-SDA-X10*%
X133985000Y-119634000D02*
X133221000Y-118870000D01*
X133221000Y-118870000D02*
X128270000Y-118870000D01*
X133985000Y-122872000D02*
X133985000Y-119634000D01*
X134620000Y-123507000D02*
X133985000Y-122872000D01*
D16*
%TO.N,/PA14-SWCLCK*%
X145288000Y-127635000D02*
X147955000Y-127635000D01*
X144526000Y-126873000D02*
X145288000Y-127635000D01*
X144526000Y-119684000D02*
X144526000Y-126873000D01*
X144529617Y-119680383D02*
X144526000Y-119684000D01*
X144529617Y-119049000D02*
X144529617Y-119680383D01*
X145161000Y-118417617D02*
X144529617Y-119049000D01*
X145161000Y-111125000D02*
X145161000Y-118417617D01*
D15*
%TO.N,/PA15-TDI*%
X152273000Y-118831811D02*
X152273000Y-127635000D01*
X151988390Y-118547201D02*
X152273000Y-118831811D01*
X151943988Y-118547201D02*
X151988390Y-118547201D01*
D16*
%TO.N,/PB4-TRST*%
X152908000Y-126873000D02*
X153797000Y-127762000D01*
X152908000Y-121539000D02*
X152908000Y-126873000D01*
%TO.N,/PB11-Y10*%
X154813000Y-112647000D02*
X156210000Y-111250000D01*
X154813000Y-117856000D02*
X154813000Y-112647000D01*
D15*
%TO.N,/PB10-Y9*%
X150122601Y-119596583D02*
X150155961Y-119563223D01*
X150122601Y-119044403D02*
X150122601Y-114054601D01*
X150122601Y-114054601D02*
X150114000Y-114046000D01*
X149527885Y-120228716D02*
X150122601Y-119634000D01*
X150122601Y-119634000D02*
X150122601Y-119596583D01*
X150155961Y-119077763D02*
X150122601Y-119044403D01*
X150155961Y-119563223D02*
X150155961Y-119077763D01*
D16*
%TO.N,/PA13-SWDIO*%
X148590000Y-128524000D02*
X148590000Y-117983000D01*
X148590000Y-117983000D02*
X147193000Y-116586000D01*
D17*
X153543000Y-109763000D02*
X152258000Y-108478000D01*
D16*
X147955000Y-129159000D02*
X148590000Y-128524000D01*
D17*
X153543000Y-116078000D02*
X153543000Y-109763000D01*
D15*
%TO.N,/PA14-SWCLCK*%
X145161000Y-110495000D02*
X147178000Y-108478000D01*
X145161000Y-111125000D02*
X145161000Y-110495000D01*
%TD*%
%TA.AperFunction,Conductor*%
%TO.N,GND*%
G36*
X155659992Y-94633817D02*
G01*
X155699588Y-94688317D01*
X155704915Y-94720646D01*
X155705890Y-94799146D01*
X155685870Y-94863468D01*
X155631866Y-94903739D01*
X155596898Y-94909500D01*
X155335326Y-94909500D01*
X155262260Y-94924034D01*
X155179399Y-94979399D01*
X155124034Y-95062260D01*
X155109500Y-95135326D01*
X155109500Y-96884674D01*
X155124034Y-96957740D01*
X155179399Y-97040601D01*
X155262260Y-97095966D01*
X155335326Y-97110500D01*
X155335330Y-97110500D01*
X155626948Y-97110500D01*
X155691017Y-97131317D01*
X155730613Y-97185817D01*
X155735940Y-97218147D01*
X155739273Y-97486574D01*
X155719253Y-97550896D01*
X155679768Y-97585046D01*
X155633211Y-97608768D01*
X155493074Y-97710584D01*
X155370584Y-97833074D01*
X155268765Y-97973216D01*
X155268763Y-97973219D01*
X155264333Y-97981913D01*
X155264275Y-97982029D01*
X155233719Y-98042000D01*
X155194000Y-98042000D01*
X155194000Y-98119953D01*
X155190127Y-98127555D01*
X155186207Y-98139618D01*
X155186204Y-98139625D01*
X155136598Y-98292295D01*
X155109500Y-98463387D01*
X155109500Y-98636612D01*
X155136598Y-98807704D01*
X155188665Y-98967946D01*
X155194000Y-99001629D01*
X155194000Y-99947000D01*
X155194001Y-99947000D01*
X155576944Y-99947000D01*
X155641013Y-99967817D01*
X155680609Y-100022317D01*
X155680609Y-100089683D01*
X155641013Y-100144183D01*
X155633891Y-100148941D01*
X155633479Y-100149193D01*
X155524874Y-100228096D01*
X155776455Y-100479678D01*
X155780848Y-100833313D01*
X155779269Y-100836047D01*
X155348096Y-100404874D01*
X155269193Y-100513478D01*
X155190588Y-100667751D01*
X155137086Y-100832411D01*
X155110000Y-101003427D01*
X155110000Y-101176572D01*
X155137086Y-101347588D01*
X155190588Y-101512248D01*
X155269196Y-101666524D01*
X155348096Y-101775124D01*
X155779268Y-101343950D01*
X155787366Y-101357976D01*
X155791433Y-101685341D01*
X155524874Y-101951901D01*
X155633476Y-102030804D01*
X155633898Y-102031063D01*
X155634005Y-102031189D01*
X155636940Y-102033321D01*
X155636428Y-102034025D01*
X155677648Y-102082289D01*
X155682933Y-102149447D01*
X155647734Y-102206885D01*
X155585496Y-102232664D01*
X155576945Y-102233000D01*
X155194000Y-102233000D01*
X155194000Y-102233001D01*
X155194000Y-103178371D01*
X155188665Y-103212054D01*
X155136598Y-103372295D01*
X155109500Y-103543387D01*
X155109500Y-103716612D01*
X155136598Y-103887704D01*
X155188665Y-104047946D01*
X155194000Y-104081629D01*
X155194000Y-105718371D01*
X155188665Y-105752054D01*
X155136598Y-105912295D01*
X155109500Y-106083387D01*
X155109500Y-106256612D01*
X155136598Y-106427704D01*
X155188665Y-106587946D01*
X155194000Y-106621629D01*
X155194000Y-108258371D01*
X155188665Y-108292054D01*
X155136598Y-108452295D01*
X155109500Y-108623387D01*
X155109500Y-108796612D01*
X155136598Y-108967704D01*
X155188665Y-109127946D01*
X155194000Y-109161629D01*
X155194000Y-110798371D01*
X155188665Y-110832054D01*
X155136598Y-110992295D01*
X155109500Y-111163387D01*
X155109500Y-111336612D01*
X155136598Y-111507704D01*
X155188665Y-111667946D01*
X155194000Y-111701629D01*
X155194000Y-111703954D01*
X155173183Y-111768023D01*
X155162075Y-111781029D01*
X154588578Y-112354527D01*
X154588577Y-112354526D01*
X154520526Y-112422578D01*
X154472407Y-112505922D01*
X154447500Y-112598881D01*
X154447500Y-117433180D01*
X154426683Y-117497249D01*
X154415576Y-117510253D01*
X154392495Y-117533334D01*
X154323311Y-117653164D01*
X154287500Y-117786817D01*
X154287500Y-117925182D01*
X154323311Y-118058835D01*
X154391340Y-118176665D01*
X154392495Y-118178665D01*
X154490335Y-118276505D01*
X154610164Y-118345688D01*
X154743817Y-118381500D01*
X154882183Y-118381500D01*
X155015836Y-118345688D01*
X155025198Y-118340282D01*
X155052589Y-118334459D01*
X155079189Y-118325678D01*
X155085061Y-118327555D01*
X155091089Y-118326274D01*
X155116672Y-118337662D01*
X155143354Y-118346194D01*
X155147001Y-118351164D01*
X155152632Y-118353671D01*
X155166636Y-118377923D01*
X155183207Y-118400507D01*
X155183221Y-118406646D01*
X155186318Y-118412009D01*
X155183523Y-118467872D01*
X155183365Y-118468363D01*
X155136598Y-118612299D01*
X155135864Y-118616929D01*
X155133329Y-118624860D01*
X155118258Y-118645809D01*
X155106521Y-118668801D01*
X155098948Y-118672651D01*
X155093989Y-118679546D01*
X155069478Y-118687637D01*
X155046473Y-118699336D01*
X155038086Y-118698000D01*
X155030019Y-118700664D01*
X155005430Y-118692802D01*
X154979945Y-118688745D01*
X154975008Y-118686062D01*
X154888837Y-118636312D01*
X154755183Y-118600500D01*
X154616817Y-118600500D01*
X154483164Y-118636311D01*
X154363337Y-118705493D01*
X154265493Y-118803337D01*
X154196311Y-118923164D01*
X154160500Y-119056817D01*
X154160500Y-119195182D01*
X154196311Y-119328835D01*
X154265493Y-119448662D01*
X154265495Y-119448665D01*
X154363335Y-119546505D01*
X154483164Y-119615688D01*
X154616817Y-119651500D01*
X154755183Y-119651500D01*
X154888836Y-119615688D01*
X155008665Y-119546505D01*
X155008669Y-119546500D01*
X155014330Y-119542158D01*
X155015335Y-119543468D01*
X155067949Y-119516661D01*
X155134485Y-119527199D01*
X155182120Y-119574834D01*
X155194000Y-119624319D01*
X155194000Y-120958371D01*
X155188665Y-120992054D01*
X155136598Y-121152295D01*
X155109500Y-121323387D01*
X155109500Y-121496612D01*
X155136598Y-121667704D01*
X155188665Y-121827946D01*
X155194000Y-121861629D01*
X155194000Y-123498371D01*
X155188665Y-123532054D01*
X155136598Y-123692295D01*
X155109500Y-123863387D01*
X155109500Y-124036612D01*
X155136598Y-124207704D01*
X155188665Y-124367946D01*
X155194000Y-124401629D01*
X155194000Y-126038371D01*
X155188665Y-126072054D01*
X155136598Y-126232295D01*
X155109500Y-126403387D01*
X155109500Y-126576612D01*
X155136598Y-126747704D01*
X155188665Y-126907946D01*
X155194000Y-126941629D01*
X155194000Y-128578371D01*
X155188665Y-128612054D01*
X155136598Y-128772295D01*
X155109500Y-128943387D01*
X155109500Y-129116612D01*
X155136598Y-129287704D01*
X155188665Y-129447946D01*
X155194000Y-129481629D01*
X155194000Y-131118371D01*
X155188665Y-131152054D01*
X155136598Y-131312295D01*
X155109500Y-131483387D01*
X155109500Y-131656612D01*
X155136598Y-131827704D01*
X155188665Y-131987946D01*
X155194000Y-132021629D01*
X155194000Y-133658371D01*
X155188665Y-133692054D01*
X155136598Y-133852295D01*
X155109500Y-134023387D01*
X155109500Y-134196612D01*
X155136598Y-134367704D01*
X155188665Y-134527946D01*
X155194000Y-134561629D01*
X155194000Y-135398000D01*
X155173183Y-135462069D01*
X155118683Y-135501665D01*
X155085000Y-135507000D01*
X128887000Y-135507000D01*
X128822931Y-135486183D01*
X128783335Y-135431683D01*
X128778000Y-135398000D01*
X128778000Y-135153076D01*
X128783962Y-135134724D01*
X128784703Y-135115441D01*
X128793417Y-135105626D01*
X128798817Y-135089007D01*
X128826362Y-135062500D01*
X128831741Y-135058898D01*
X128846788Y-135051232D01*
X128888957Y-135020594D01*
X128890705Y-135019424D01*
X128921203Y-135010793D01*
X128951343Y-135001000D01*
X129359197Y-135001000D01*
X129359198Y-135001000D01*
X129359198Y-134276546D01*
X129360540Y-134259494D01*
X129370500Y-134196611D01*
X129370500Y-134023389D01*
X129360540Y-133960503D01*
X129359198Y-133943452D01*
X129359198Y-133215317D01*
X136063000Y-133215317D01*
X136063000Y-133353682D01*
X136098811Y-133487335D01*
X136142979Y-133563836D01*
X136167995Y-133607165D01*
X136265835Y-133705005D01*
X136385664Y-133774188D01*
X136519317Y-133810000D01*
X136657683Y-133810000D01*
X136791336Y-133774188D01*
X136911165Y-133705005D01*
X137009005Y-133607165D01*
X137078188Y-133487336D01*
X137114000Y-133353683D01*
X137114000Y-133291817D01*
X146553500Y-133291817D01*
X146553500Y-133430182D01*
X146589311Y-133563835D01*
X146656352Y-133679953D01*
X146658495Y-133683665D01*
X146756335Y-133781505D01*
X146876164Y-133850688D01*
X147009817Y-133886500D01*
X147148183Y-133886500D01*
X147281836Y-133850688D01*
X147401665Y-133781505D01*
X147499505Y-133683665D01*
X147568688Y-133563836D01*
X147604500Y-133430183D01*
X147604500Y-133291817D01*
X147568688Y-133158164D01*
X147499505Y-133038335D01*
X147401665Y-132940495D01*
X147401662Y-132940493D01*
X147281835Y-132871311D01*
X147148183Y-132835500D01*
X147009817Y-132835500D01*
X146876164Y-132871311D01*
X146756337Y-132940493D01*
X146658493Y-133038337D01*
X146589311Y-133158164D01*
X146553500Y-133291817D01*
X137114000Y-133291817D01*
X137114000Y-133215317D01*
X137078188Y-133081664D01*
X137009005Y-132961835D01*
X136911165Y-132863995D01*
X136911162Y-132863993D01*
X136791335Y-132794811D01*
X136657683Y-132759000D01*
X136519317Y-132759000D01*
X136385664Y-132794811D01*
X136265837Y-132863993D01*
X136167993Y-132961837D01*
X136098811Y-133081664D01*
X136063000Y-133215317D01*
X129359198Y-133215317D01*
X129359198Y-132713000D01*
X139446000Y-132713000D01*
X139446001Y-132713000D01*
X142493999Y-132713000D01*
X142494000Y-132713000D01*
X142494000Y-131833298D01*
X145983981Y-131833298D01*
X145983981Y-131971663D01*
X146019792Y-132105316D01*
X146019793Y-132105317D01*
X146088976Y-132225146D01*
X146186816Y-132322986D01*
X146306645Y-132392169D01*
X146440298Y-132427981D01*
X146578664Y-132427981D01*
X146712317Y-132392169D01*
X146832146Y-132322986D01*
X146929986Y-132225146D01*
X146999169Y-132105317D01*
X147034981Y-131971664D01*
X147034981Y-131833298D01*
X147018051Y-131770114D01*
X147021576Y-131702845D01*
X147063971Y-131650491D01*
X147068796Y-131647533D01*
X147134665Y-131609505D01*
X147232505Y-131511665D01*
X147301688Y-131391836D01*
X147337500Y-131258183D01*
X147337500Y-131119817D01*
X147301688Y-130986164D01*
X147232505Y-130866335D01*
X147187742Y-130821572D01*
X147157161Y-130761551D01*
X147167699Y-130695015D01*
X147187741Y-130667428D01*
X147232505Y-130622665D01*
X147301688Y-130502836D01*
X147337500Y-130369183D01*
X147337500Y-130230817D01*
X147301688Y-130097164D01*
X147232505Y-129977335D01*
X147134665Y-129879495D01*
X147134662Y-129879493D01*
X147014835Y-129810311D01*
X146881183Y-129774500D01*
X146742817Y-129774500D01*
X146609164Y-129810311D01*
X146489337Y-129879493D01*
X146391493Y-129977337D01*
X146322311Y-130097164D01*
X146286500Y-130230817D01*
X146286500Y-130369182D01*
X146322311Y-130502835D01*
X146322312Y-130502836D01*
X146391495Y-130622665D01*
X146436257Y-130667427D01*
X146466839Y-130727449D01*
X146456301Y-130793985D01*
X146436258Y-130821571D01*
X146404758Y-130853072D01*
X146391493Y-130866337D01*
X146322311Y-130986164D01*
X146286500Y-131119817D01*
X146286500Y-131258183D01*
X146303428Y-131321364D01*
X146299902Y-131388638D01*
X146257506Y-131440990D01*
X146252642Y-131443971D01*
X146186818Y-131481974D01*
X146088974Y-131579818D01*
X146019792Y-131699645D01*
X145983981Y-131833298D01*
X142494000Y-131833298D01*
X142494000Y-130300000D01*
X139446000Y-130300000D01*
X139446000Y-132713000D01*
X129359198Y-132713000D01*
X129359198Y-131951000D01*
X133223000Y-131951000D01*
X133223001Y-131951000D01*
X135000999Y-131951000D01*
X135001000Y-131951000D01*
X135001000Y-130300000D01*
X133223000Y-130300000D01*
X133223000Y-131951000D01*
X129359198Y-131951000D01*
X129359198Y-131736546D01*
X129360540Y-131719494D01*
X129363684Y-131699645D01*
X129370500Y-131656611D01*
X129370500Y-131483389D01*
X129360540Y-131420503D01*
X129359198Y-131403452D01*
X129359198Y-130429001D01*
X129359198Y-130429000D01*
X128887000Y-130429000D01*
X128870580Y-130423665D01*
X128853317Y-130423665D01*
X128839350Y-130413517D01*
X128822931Y-130408183D01*
X128812783Y-130394216D01*
X128798817Y-130384069D01*
X128793482Y-130367649D01*
X128783335Y-130353683D01*
X128778000Y-130320000D01*
X128778000Y-130072515D01*
X128798817Y-130008446D01*
X128837516Y-129975395D01*
X128846517Y-129970808D01*
X128846527Y-129970802D01*
X128955124Y-129891902D01*
X128955124Y-129891901D01*
X128778000Y-129714776D01*
X128778000Y-129361223D01*
X129131901Y-129715124D01*
X129131902Y-129715124D01*
X129210801Y-129606529D01*
X129289411Y-129452248D01*
X129342913Y-129287588D01*
X129370000Y-129116572D01*
X129370000Y-128943427D01*
X129342913Y-128772411D01*
X129289411Y-128607751D01*
X129210802Y-128453474D01*
X129131901Y-128344874D01*
X128778000Y-128698775D01*
X128778000Y-128345220D01*
X128955124Y-128168096D01*
X128846521Y-128089194D01*
X128837510Y-128084602D01*
X128789878Y-128036965D01*
X128778000Y-127987485D01*
X128778000Y-127744000D01*
X128798817Y-127679931D01*
X128853317Y-127640335D01*
X128887000Y-127635000D01*
X129359197Y-127635000D01*
X129359198Y-127635000D01*
X129359198Y-127436817D01*
X135745500Y-127436817D01*
X135745500Y-127575182D01*
X135781311Y-127708835D01*
X135807038Y-127753395D01*
X135850495Y-127828665D01*
X135948335Y-127926505D01*
X136068164Y-127995688D01*
X136201817Y-128031500D01*
X136340183Y-128031500D01*
X136473836Y-127995688D01*
X136593665Y-127926505D01*
X136691505Y-127828665D01*
X136760688Y-127708836D01*
X136796500Y-127575183D01*
X136796500Y-127436817D01*
X136760688Y-127303164D01*
X136691505Y-127183335D01*
X136593665Y-127085495D01*
X136590080Y-127083425D01*
X136473835Y-127016311D01*
X136340183Y-126980500D01*
X136201817Y-126980500D01*
X136068164Y-127016311D01*
X135948337Y-127085493D01*
X135850493Y-127183337D01*
X135781311Y-127303164D01*
X135745500Y-127436817D01*
X129359198Y-127436817D01*
X129359198Y-126656546D01*
X129360540Y-126639494D01*
X129370500Y-126576611D01*
X129370500Y-126403389D01*
X129360540Y-126340503D01*
X129359198Y-126323452D01*
X129359198Y-126041817D01*
X140317500Y-126041817D01*
X140317500Y-126180182D01*
X140353311Y-126313835D01*
X140416531Y-126423335D01*
X140422495Y-126433665D01*
X140520335Y-126531505D01*
X140640164Y-126600688D01*
X140773817Y-126636500D01*
X140912183Y-126636500D01*
X141045836Y-126600688D01*
X141165665Y-126531505D01*
X141263505Y-126433665D01*
X141332688Y-126313836D01*
X141368500Y-126180183D01*
X141368500Y-126041817D01*
X141332688Y-125908164D01*
X141263505Y-125788335D01*
X141165665Y-125690495D01*
X141165662Y-125690493D01*
X141045835Y-125621311D01*
X140912183Y-125585500D01*
X140773817Y-125585500D01*
X140640164Y-125621311D01*
X140520337Y-125690493D01*
X140422493Y-125788337D01*
X140353311Y-125908164D01*
X140317500Y-126041817D01*
X129359198Y-126041817D01*
X129359198Y-124921775D01*
X137383710Y-124921775D01*
X137383710Y-125060140D01*
X137419521Y-125193793D01*
X137419522Y-125193794D01*
X137488705Y-125313623D01*
X137586545Y-125411463D01*
X137706374Y-125480646D01*
X137840027Y-125516458D01*
X137978393Y-125516458D01*
X138112046Y-125480646D01*
X138231875Y-125411463D01*
X138329715Y-125313623D01*
X138398898Y-125193794D01*
X138434710Y-125060141D01*
X138434710Y-124921775D01*
X138398898Y-124788122D01*
X138329715Y-124668293D01*
X138231875Y-124570453D01*
X138186045Y-124543993D01*
X138112045Y-124501269D01*
X137978393Y-124465458D01*
X137840027Y-124465458D01*
X137706374Y-124501269D01*
X137586547Y-124570451D01*
X137488703Y-124668295D01*
X137419521Y-124788122D01*
X137383710Y-124921775D01*
X129359198Y-124921775D01*
X129359198Y-124116546D01*
X129360540Y-124099494D01*
X129370500Y-124036611D01*
X129370500Y-123863389D01*
X129360540Y-123800503D01*
X129359198Y-123783452D01*
X129359198Y-121576546D01*
X129360540Y-121559494D01*
X129370500Y-121496611D01*
X129370500Y-121323389D01*
X129360540Y-121260503D01*
X129359198Y-121243452D01*
X129359198Y-119339500D01*
X129380015Y-119275431D01*
X129434515Y-119235835D01*
X129468198Y-119230500D01*
X133026526Y-119230500D01*
X133090595Y-119251317D01*
X133103601Y-119262425D01*
X133592575Y-119751399D01*
X133623158Y-119811423D01*
X133624500Y-119828474D01*
X133624500Y-120717048D01*
X133603683Y-120781117D01*
X133549183Y-120820713D01*
X133481817Y-120820713D01*
X133461002Y-120811446D01*
X133430894Y-120794064D01*
X133297241Y-120758252D01*
X133158875Y-120758252D01*
X133025222Y-120794063D01*
X132905395Y-120863245D01*
X132807551Y-120961089D01*
X132738369Y-121080916D01*
X132702558Y-121214569D01*
X132702558Y-121352934D01*
X132738369Y-121486587D01*
X132771953Y-121544756D01*
X132807553Y-121606417D01*
X132905393Y-121704257D01*
X133025222Y-121773440D01*
X133158875Y-121809252D01*
X133297241Y-121809252D01*
X133430894Y-121773440D01*
X133461001Y-121756057D01*
X133526893Y-121742052D01*
X133588435Y-121769452D01*
X133622118Y-121827792D01*
X133624500Y-121850455D01*
X133624500Y-122919460D01*
X133649067Y-123011148D01*
X133649066Y-123011148D01*
X133672111Y-123051061D01*
X133696528Y-123093352D01*
X134062576Y-123459400D01*
X134093158Y-123519422D01*
X134094500Y-123536473D01*
X134094500Y-123576182D01*
X134130311Y-123709835D01*
X134182658Y-123800503D01*
X134199495Y-123829665D01*
X134297335Y-123927505D01*
X134417164Y-123996688D01*
X134550817Y-124032500D01*
X134689183Y-124032500D01*
X134822836Y-123996688D01*
X134942665Y-123927505D01*
X135040505Y-123829665D01*
X135109688Y-123709836D01*
X135145500Y-123576183D01*
X135145500Y-123437817D01*
X135109688Y-123304164D01*
X135077156Y-123247817D01*
X137650500Y-123247817D01*
X137650500Y-123386182D01*
X137686311Y-123519835D01*
X137755493Y-123639662D01*
X137755495Y-123639665D01*
X137853335Y-123737505D01*
X137973164Y-123806688D01*
X138106817Y-123842500D01*
X138245183Y-123842500D01*
X138378836Y-123806688D01*
X138498665Y-123737505D01*
X138596505Y-123639665D01*
X138665688Y-123519836D01*
X138701500Y-123386183D01*
X138701500Y-123247817D01*
X138665688Y-123114164D01*
X138596505Y-122994335D01*
X138498665Y-122896495D01*
X138498662Y-122896493D01*
X138378835Y-122827311D01*
X138245183Y-122791500D01*
X138106817Y-122791500D01*
X137973164Y-122827311D01*
X137853337Y-122896493D01*
X137755493Y-122994337D01*
X137686311Y-123114164D01*
X137650500Y-123247817D01*
X135077156Y-123247817D01*
X135040505Y-123184335D01*
X134942665Y-123086495D01*
X134942662Y-123086493D01*
X134822835Y-123017311D01*
X134689183Y-122981500D01*
X134649474Y-122981500D01*
X134585405Y-122960683D01*
X134572399Y-122949575D01*
X134377425Y-122754601D01*
X134346842Y-122694577D01*
X134345500Y-122677526D01*
X134345500Y-122149537D01*
X134366317Y-122085468D01*
X134420817Y-122045872D01*
X134482710Y-122044251D01*
X134550817Y-122062500D01*
X134689183Y-122062500D01*
X134822836Y-122026688D01*
X134942665Y-121957505D01*
X135040505Y-121859665D01*
X135109688Y-121739836D01*
X135145500Y-121606183D01*
X135145500Y-121467817D01*
X135109688Y-121334164D01*
X135041725Y-121216448D01*
X135027719Y-121150554D01*
X135055119Y-121089013D01*
X135088564Y-121065379D01*
X135088237Y-121064812D01*
X135094418Y-121061242D01*
X135094420Y-121061240D01*
X135094424Y-121061240D01*
X135214253Y-120992057D01*
X135312093Y-120894217D01*
X135381276Y-120774388D01*
X135417088Y-120640735D01*
X135417088Y-120502369D01*
X135381276Y-120368716D01*
X135312093Y-120248887D01*
X135214253Y-120151047D01*
X135214250Y-120151045D01*
X135094423Y-120081863D01*
X134960771Y-120046052D01*
X134822405Y-120046052D01*
X134688752Y-120081863D01*
X134568925Y-120151045D01*
X134568923Y-120151046D01*
X134568923Y-120151047D01*
X134531572Y-120188397D01*
X134471551Y-120218979D01*
X134405015Y-120208441D01*
X134357380Y-120160806D01*
X134345500Y-120111321D01*
X134345500Y-119818817D01*
X138158500Y-119818817D01*
X138158500Y-119957182D01*
X138194311Y-120090835D01*
X138256077Y-120197817D01*
X138263495Y-120210665D01*
X138361335Y-120308505D01*
X138481164Y-120377688D01*
X138614817Y-120413500D01*
X138753183Y-120413500D01*
X138886836Y-120377688D01*
X139006665Y-120308505D01*
X139104505Y-120210665D01*
X139173688Y-120090836D01*
X139209500Y-119957183D01*
X139209500Y-119818817D01*
X139173688Y-119685164D01*
X139110573Y-119575846D01*
X139096568Y-119509955D01*
X139123968Y-119448413D01*
X139127877Y-119444292D01*
X139200505Y-119371665D01*
X139269688Y-119251836D01*
X139305500Y-119118183D01*
X139305500Y-118979817D01*
X139269688Y-118846164D01*
X139200505Y-118726335D01*
X139102665Y-118628495D01*
X139082319Y-118616748D01*
X138982835Y-118559311D01*
X138849183Y-118523500D01*
X138710817Y-118523500D01*
X138577164Y-118559311D01*
X138457337Y-118628493D01*
X138359493Y-118726337D01*
X138290311Y-118846164D01*
X138260718Y-118956611D01*
X138254500Y-118979817D01*
X138254500Y-119118183D01*
X138260748Y-119141500D01*
X138290311Y-119251835D01*
X138353425Y-119361152D01*
X138367431Y-119427046D01*
X138340030Y-119488588D01*
X138336103Y-119492726D01*
X138263494Y-119565334D01*
X138194311Y-119685164D01*
X138158500Y-119818817D01*
X134345500Y-119818817D01*
X134345500Y-119586539D01*
X134342364Y-119574834D01*
X134320933Y-119494852D01*
X134320932Y-119494851D01*
X134320933Y-119494851D01*
X134297790Y-119454768D01*
X134273472Y-119412648D01*
X134250500Y-119389676D01*
X134206352Y-119345527D01*
X134206352Y-119345528D01*
X133442352Y-118581528D01*
X133382231Y-118546817D01*
X134674332Y-118546817D01*
X134674332Y-118685183D01*
X134677766Y-118698000D01*
X134710143Y-118818835D01*
X134778606Y-118937417D01*
X134779327Y-118938665D01*
X134877167Y-119036505D01*
X134996996Y-119105688D01*
X135130649Y-119141500D01*
X135269015Y-119141500D01*
X135402668Y-119105688D01*
X135522497Y-119036505D01*
X135620337Y-118938665D01*
X135689520Y-118818836D01*
X135725332Y-118685183D01*
X135725332Y-118546817D01*
X135689520Y-118413164D01*
X135620337Y-118293335D01*
X135522497Y-118195495D01*
X135494871Y-118179545D01*
X135402667Y-118126311D01*
X135269015Y-118090500D01*
X135130649Y-118090500D01*
X134996996Y-118126311D01*
X134877169Y-118195493D01*
X134779325Y-118293337D01*
X134710143Y-118413164D01*
X134689455Y-118490376D01*
X134674332Y-118546817D01*
X133382231Y-118546817D01*
X133360148Y-118534067D01*
X133268461Y-118509500D01*
X129468198Y-118509500D01*
X129404129Y-118488683D01*
X129364533Y-118434183D01*
X129359198Y-118400500D01*
X129359198Y-117405817D01*
X136063000Y-117405817D01*
X136063000Y-117544182D01*
X136098811Y-117677835D01*
X136160577Y-117784817D01*
X136167995Y-117797665D01*
X136265835Y-117895505D01*
X136385664Y-117964688D01*
X136519317Y-118000500D01*
X136657683Y-118000500D01*
X136791336Y-117964688D01*
X136911165Y-117895505D01*
X137009005Y-117797665D01*
X137016423Y-117784817D01*
X138920500Y-117784817D01*
X138920500Y-117923183D01*
X138923635Y-117934883D01*
X138956311Y-118056835D01*
X139017313Y-118162494D01*
X139025495Y-118176665D01*
X139123335Y-118274505D01*
X139243164Y-118343688D01*
X139376817Y-118379500D01*
X139515183Y-118379500D01*
X139648836Y-118343688D01*
X139768665Y-118274505D01*
X139866505Y-118176665D01*
X139935688Y-118056836D01*
X139971500Y-117923183D01*
X139971500Y-117784817D01*
X139935688Y-117651164D01*
X139866505Y-117531335D01*
X139768665Y-117433495D01*
X139768662Y-117433493D01*
X139648835Y-117364311D01*
X139515183Y-117328500D01*
X139376817Y-117328500D01*
X139243164Y-117364311D01*
X139123337Y-117433493D01*
X139025493Y-117531337D01*
X138956311Y-117651164D01*
X138937017Y-117723173D01*
X138920500Y-117784817D01*
X137016423Y-117784817D01*
X137078188Y-117677836D01*
X137114000Y-117544183D01*
X137114000Y-117405817D01*
X137078188Y-117272164D01*
X137009005Y-117152335D01*
X136911165Y-117054495D01*
X136911162Y-117054493D01*
X136791335Y-116985311D01*
X136657683Y-116949500D01*
X136519317Y-116949500D01*
X136385664Y-116985311D01*
X136265837Y-117054493D01*
X136167993Y-117152337D01*
X136098811Y-117272164D01*
X136063000Y-117405817D01*
X129359198Y-117405817D01*
X129359198Y-117272225D01*
X129361293Y-117250959D01*
X129370499Y-117204677D01*
X129370500Y-117204674D01*
X129370500Y-115455326D01*
X129361292Y-115409034D01*
X129359198Y-115387770D01*
X129359198Y-115117817D01*
X136063000Y-115117817D01*
X136063000Y-115256182D01*
X136098811Y-115389835D01*
X136136623Y-115455327D01*
X136167995Y-115509665D01*
X136265835Y-115607505D01*
X136385664Y-115676688D01*
X136519317Y-115712500D01*
X136657683Y-115712500D01*
X136791336Y-115676688D01*
X136911165Y-115607505D01*
X137009005Y-115509665D01*
X137078188Y-115389836D01*
X137114000Y-115256183D01*
X137114000Y-115117817D01*
X141968500Y-115117817D01*
X141968500Y-115256182D01*
X142004311Y-115389835D01*
X142042123Y-115455327D01*
X142073495Y-115509665D01*
X142171335Y-115607505D01*
X142291164Y-115676688D01*
X142424817Y-115712500D01*
X142563183Y-115712500D01*
X142696836Y-115676688D01*
X142816665Y-115607505D01*
X142914505Y-115509665D01*
X142983688Y-115389836D01*
X143019500Y-115256183D01*
X143019500Y-115244817D01*
X143492500Y-115244817D01*
X143492500Y-115383183D01*
X143494283Y-115389836D01*
X143528311Y-115516835D01*
X143580660Y-115607506D01*
X143597495Y-115636665D01*
X143695335Y-115734505D01*
X143815164Y-115803688D01*
X143948817Y-115839500D01*
X144087183Y-115839500D01*
X144220836Y-115803688D01*
X144340665Y-115734505D01*
X144438505Y-115636665D01*
X144507688Y-115516836D01*
X144543500Y-115383183D01*
X144543500Y-115244817D01*
X144508812Y-115115358D01*
X144510439Y-115084307D01*
X144510517Y-115053206D01*
X144512176Y-115051161D01*
X144512338Y-115048085D01*
X144550249Y-114998805D01*
X144554764Y-114995541D01*
X144594665Y-114972505D01*
X144615588Y-114951581D01*
X144622651Y-114946477D01*
X144646821Y-114938689D01*
X144669449Y-114927161D01*
X144678270Y-114928558D01*
X144686772Y-114925819D01*
X144710903Y-114933726D01*
X144735985Y-114937699D01*
X144742300Y-114944014D01*
X144750788Y-114946796D01*
X144765662Y-114967376D01*
X144783620Y-114985334D01*
X144786096Y-114995649D01*
X144790249Y-115001395D01*
X144790220Y-115012827D01*
X144795500Y-115034819D01*
X144795500Y-118221071D01*
X144774683Y-118285140D01*
X144763574Y-118298146D01*
X144697791Y-118363928D01*
X144637768Y-118394511D01*
X144571231Y-118383972D01*
X144523597Y-118336337D01*
X144515433Y-118315071D01*
X144507688Y-118286164D01*
X144502111Y-118276505D01*
X144438506Y-118166337D01*
X144438505Y-118166335D01*
X144340665Y-118068495D01*
X144340662Y-118068493D01*
X144220835Y-117999311D01*
X144087183Y-117963500D01*
X143948817Y-117963500D01*
X143815164Y-117999311D01*
X143695337Y-118068493D01*
X143597493Y-118166337D01*
X143528311Y-118286164D01*
X143497676Y-118400500D01*
X143492500Y-118419817D01*
X143492500Y-118558183D01*
X143492803Y-118559312D01*
X143528311Y-118691835D01*
X143592687Y-118803337D01*
X143597495Y-118811665D01*
X143695335Y-118909505D01*
X143815164Y-118978688D01*
X143923328Y-119007670D01*
X143979826Y-119044360D01*
X144003968Y-119107251D01*
X144004117Y-119112956D01*
X144004117Y-119118183D01*
X144010365Y-119141500D01*
X144039928Y-119251835D01*
X144094021Y-119345527D01*
X144109112Y-119371665D01*
X144132193Y-119394746D01*
X144136184Y-119402580D01*
X144143300Y-119407750D01*
X144151187Y-119432025D01*
X144162775Y-119454768D01*
X144164117Y-119471819D01*
X144164117Y-119608032D01*
X144161383Y-119628791D01*
X144161432Y-119628798D01*
X144160500Y-119635877D01*
X144160500Y-126921118D01*
X144185407Y-127014077D01*
X144226641Y-127085495D01*
X144233527Y-127097422D01*
X145063578Y-127927473D01*
X145146922Y-127975592D01*
X145239881Y-128000500D01*
X145336120Y-128000500D01*
X147532181Y-128000500D01*
X147596250Y-128021317D01*
X147609249Y-128032419D01*
X147632335Y-128055505D01*
X147752164Y-128124688D01*
X147885817Y-128160500D01*
X148024181Y-128160500D01*
X148024183Y-128160500D01*
X148087291Y-128143590D01*
X148118224Y-128145211D01*
X148149183Y-128145211D01*
X148151589Y-128146959D01*
X148154561Y-128147115D01*
X148178626Y-128166602D01*
X148203683Y-128184807D01*
X148204602Y-128187637D01*
X148206915Y-128189510D01*
X148224500Y-128248876D01*
X148224500Y-128327455D01*
X148203683Y-128391524D01*
X148192575Y-128404530D01*
X147995530Y-128601575D01*
X147935506Y-128632158D01*
X147918455Y-128633500D01*
X147885817Y-128633500D01*
X147752164Y-128669311D01*
X147632337Y-128738493D01*
X147534493Y-128836337D01*
X147465311Y-128956164D01*
X147429500Y-129089817D01*
X147429500Y-129228182D01*
X147465311Y-129361835D01*
X147465312Y-129361836D01*
X147534495Y-129481665D01*
X147632335Y-129579505D01*
X147752164Y-129648688D01*
X147885817Y-129684500D01*
X148024183Y-129684500D01*
X148157836Y-129648688D01*
X148277665Y-129579505D01*
X148375505Y-129481665D01*
X148444688Y-129361836D01*
X148480500Y-129228183D01*
X148480500Y-129195544D01*
X148501317Y-129131475D01*
X148512419Y-129118475D01*
X148882473Y-128748422D01*
X148928147Y-128669312D01*
X148930592Y-128665078D01*
X148955500Y-128572119D01*
X148955500Y-125785817D01*
X149588500Y-125785817D01*
X149588500Y-125924182D01*
X149624311Y-126057835D01*
X149667201Y-126132123D01*
X149693495Y-126177665D01*
X149791335Y-126275505D01*
X149911164Y-126344688D01*
X150044817Y-126380500D01*
X150183183Y-126380500D01*
X150316836Y-126344688D01*
X150436665Y-126275505D01*
X150534505Y-126177665D01*
X150603688Y-126057836D01*
X150639500Y-125924183D01*
X150639500Y-125785817D01*
X150603688Y-125652164D01*
X150534505Y-125532335D01*
X150436665Y-125434495D01*
X150436662Y-125434493D01*
X150316835Y-125365311D01*
X150183183Y-125329500D01*
X150044817Y-125329500D01*
X149911164Y-125365311D01*
X149791337Y-125434493D01*
X149693493Y-125532337D01*
X149624311Y-125652164D01*
X149588500Y-125785817D01*
X148955500Y-125785817D01*
X148955500Y-120662650D01*
X148976317Y-120598581D01*
X149030817Y-120558985D01*
X149098183Y-120558985D01*
X149141572Y-120585573D01*
X149205220Y-120649221D01*
X149325049Y-120718404D01*
X149458702Y-120754216D01*
X149597068Y-120754216D01*
X149730721Y-120718404D01*
X149850550Y-120649221D01*
X149948390Y-120551381D01*
X150017573Y-120431552D01*
X150053385Y-120297899D01*
X150053385Y-120258189D01*
X150074202Y-120194120D01*
X150085304Y-120181120D01*
X150411073Y-119855352D01*
X150458534Y-119773148D01*
X150461316Y-119762760D01*
X150472205Y-119736471D01*
X150491894Y-119702371D01*
X150516461Y-119610684D01*
X150516461Y-119515762D01*
X150516461Y-119030302D01*
X150491894Y-118938615D01*
X150491893Y-118938613D01*
X150491398Y-118937417D01*
X150490893Y-118934880D01*
X150490045Y-118931714D01*
X150490252Y-118931658D01*
X150483101Y-118895705D01*
X150483101Y-118478018D01*
X151418488Y-118478018D01*
X151418488Y-118616384D01*
X151426372Y-118645809D01*
X151454299Y-118750036D01*
X151523481Y-118869863D01*
X151523483Y-118869866D01*
X151621323Y-118967706D01*
X151690543Y-119007670D01*
X151741152Y-119036889D01*
X151831711Y-119061154D01*
X151888209Y-119097844D01*
X151912351Y-119160735D01*
X151912500Y-119166440D01*
X151912500Y-127207180D01*
X151891683Y-127271249D01*
X151880576Y-127284253D01*
X151852495Y-127312334D01*
X151783311Y-127432164D01*
X151764710Y-127501587D01*
X151747500Y-127565817D01*
X151747500Y-127704183D01*
X151748747Y-127708836D01*
X151783311Y-127837835D01*
X151835064Y-127927474D01*
X151852495Y-127957665D01*
X151950335Y-128055505D01*
X152070164Y-128124688D01*
X152203817Y-128160500D01*
X152342183Y-128160500D01*
X152475836Y-128124688D01*
X152595665Y-128055505D01*
X152693505Y-127957665D01*
X152762688Y-127837836D01*
X152798500Y-127704183D01*
X152798500Y-127565817D01*
X152798500Y-127565813D01*
X152797568Y-127558734D01*
X152799861Y-127558432D01*
X152802838Y-127501587D01*
X152845230Y-127449232D01*
X152910300Y-127431794D01*
X152973192Y-127455933D01*
X152981675Y-127463570D01*
X153239575Y-127721470D01*
X153270158Y-127781494D01*
X153271500Y-127798545D01*
X153271500Y-127831183D01*
X153273283Y-127837836D01*
X153307311Y-127964835D01*
X153376493Y-128084662D01*
X153376495Y-128084665D01*
X153474335Y-128182505D01*
X153594164Y-128251688D01*
X153727817Y-128287500D01*
X153866183Y-128287500D01*
X153999836Y-128251688D01*
X154119665Y-128182505D01*
X154217505Y-128084665D01*
X154286688Y-127964836D01*
X154322500Y-127831183D01*
X154322500Y-127692817D01*
X154286688Y-127559164D01*
X154217505Y-127439335D01*
X154119665Y-127341495D01*
X154119662Y-127341493D01*
X153999835Y-127272311D01*
X153866183Y-127236500D01*
X153833545Y-127236500D01*
X153769476Y-127215683D01*
X153756470Y-127204575D01*
X153305425Y-126753530D01*
X153274842Y-126693506D01*
X153273500Y-126676455D01*
X153273500Y-121961819D01*
X153294317Y-121897750D01*
X153305419Y-121884750D01*
X153328505Y-121861665D01*
X153397688Y-121741836D01*
X153433500Y-121608183D01*
X153433500Y-121469817D01*
X153397688Y-121336164D01*
X153328505Y-121216335D01*
X153230665Y-121118495D01*
X153227201Y-121116495D01*
X153110835Y-121049311D01*
X152977183Y-121013500D01*
X152838817Y-121013500D01*
X152838816Y-121013500D01*
X152770710Y-121031748D01*
X152703437Y-121028222D01*
X152651084Y-120985826D01*
X152633500Y-120926462D01*
X152633500Y-120591819D01*
X152654317Y-120527750D01*
X152708817Y-120488154D01*
X152776183Y-120488154D01*
X152819572Y-120514742D01*
X152867335Y-120562505D01*
X152987164Y-120631688D01*
X153120817Y-120667500D01*
X153259183Y-120667500D01*
X153392836Y-120631688D01*
X153512665Y-120562505D01*
X153610505Y-120464665D01*
X153679688Y-120344836D01*
X153715500Y-120211183D01*
X153715500Y-120072817D01*
X153679688Y-119939164D01*
X153610505Y-119819335D01*
X153512665Y-119721495D01*
X153512662Y-119721493D01*
X153392835Y-119652311D01*
X153259183Y-119616500D01*
X153120817Y-119616500D01*
X152987164Y-119652311D01*
X152867337Y-119721493D01*
X152867335Y-119721494D01*
X152867335Y-119721495D01*
X152819572Y-119769257D01*
X152759551Y-119799839D01*
X152693015Y-119789301D01*
X152645380Y-119741666D01*
X152633500Y-119692181D01*
X152633500Y-118784350D01*
X152608933Y-118692663D01*
X152608932Y-118692662D01*
X152608933Y-118692662D01*
X152591560Y-118662573D01*
X152561472Y-118610459D01*
X152532540Y-118581527D01*
X152501413Y-118550399D01*
X152470830Y-118490376D01*
X152470405Y-118484984D01*
X152469489Y-118478022D01*
X152461325Y-118447555D01*
X152433676Y-118344365D01*
X152364493Y-118224536D01*
X152266653Y-118126696D01*
X152265988Y-118126312D01*
X152146823Y-118057512D01*
X152013171Y-118021701D01*
X151874805Y-118021701D01*
X151741152Y-118057512D01*
X151621325Y-118126694D01*
X151523481Y-118224538D01*
X151454299Y-118344365D01*
X151430233Y-118434183D01*
X151418488Y-118478018D01*
X150483101Y-118478018D01*
X150483101Y-114465218D01*
X150503918Y-114401149D01*
X150515020Y-114388149D01*
X150534505Y-114368665D01*
X150603688Y-114248836D01*
X150639500Y-114115183D01*
X150639500Y-113976817D01*
X150603688Y-113843164D01*
X150534505Y-113723335D01*
X150436665Y-113625495D01*
X150436662Y-113625493D01*
X150316835Y-113556311D01*
X150183183Y-113520500D01*
X150044817Y-113520500D01*
X149911164Y-113556311D01*
X149791337Y-113625493D01*
X149693493Y-113723337D01*
X149624311Y-113843164D01*
X149593668Y-113957529D01*
X149588500Y-113976817D01*
X149588500Y-114115183D01*
X149592871Y-114131495D01*
X149624311Y-114248835D01*
X149624312Y-114248836D01*
X149693495Y-114368665D01*
X149730177Y-114405347D01*
X149760759Y-114465369D01*
X149762101Y-114482420D01*
X149762101Y-118686889D01*
X149741284Y-118750958D01*
X149686784Y-118790554D01*
X149646288Y-118794277D01*
X149646288Y-118794993D01*
X149500778Y-118794993D01*
X149367125Y-118830804D01*
X149247298Y-118899986D01*
X149247296Y-118899987D01*
X149247296Y-118899988D01*
X149149456Y-118997828D01*
X149149454Y-118997830D01*
X149144405Y-119002880D01*
X149142915Y-119001390D01*
X149095442Y-119034008D01*
X149028100Y-119032235D01*
X148974661Y-118991217D01*
X148955500Y-118929492D01*
X148955500Y-117934883D01*
X148955500Y-117934881D01*
X148952901Y-117925183D01*
X148930592Y-117841922D01*
X148882473Y-117758577D01*
X147750425Y-116626529D01*
X147719842Y-116566505D01*
X147718500Y-116549454D01*
X147718500Y-116516817D01*
X147682688Y-116383164D01*
X147623609Y-116280836D01*
X147613505Y-116263335D01*
X147515665Y-116165495D01*
X147483946Y-116147182D01*
X147395835Y-116096311D01*
X147262183Y-116060500D01*
X147123817Y-116060500D01*
X146990164Y-116096311D01*
X146870337Y-116165493D01*
X146772493Y-116263337D01*
X146703311Y-116383164D01*
X146667500Y-116516817D01*
X146667500Y-116655182D01*
X146703311Y-116788835D01*
X146703312Y-116788836D01*
X146772495Y-116908665D01*
X146870335Y-117006505D01*
X146990164Y-117075688D01*
X147123817Y-117111500D01*
X147156455Y-117111500D01*
X147220524Y-117132317D01*
X147233530Y-117143425D01*
X148192575Y-118102470D01*
X148223158Y-118162494D01*
X148224500Y-118179545D01*
X148224500Y-126132123D01*
X148203683Y-126196192D01*
X148149183Y-126235788D01*
X148087289Y-126237409D01*
X148024183Y-126220500D01*
X147885817Y-126220500D01*
X147752164Y-126256311D01*
X147632337Y-126325493D01*
X147534493Y-126423337D01*
X147465311Y-126543164D01*
X147429500Y-126676817D01*
X147429500Y-126815182D01*
X147465311Y-126948835D01*
X147504269Y-127016312D01*
X147534495Y-127068665D01*
X147549257Y-127083427D01*
X147579839Y-127143449D01*
X147569301Y-127209985D01*
X147521666Y-127257620D01*
X147472181Y-127269500D01*
X145484545Y-127269500D01*
X145420476Y-127248683D01*
X145407470Y-127237575D01*
X144923425Y-126753530D01*
X144892842Y-126693506D01*
X144891500Y-126676455D01*
X144891500Y-124537095D01*
X144912317Y-124473026D01*
X144966817Y-124433430D01*
X145034183Y-124433430D01*
X145088683Y-124473026D01*
X145094897Y-124482596D01*
X145121492Y-124528661D01*
X145121493Y-124528662D01*
X145121495Y-124528665D01*
X145219335Y-124626505D01*
X145339164Y-124695688D01*
X145472817Y-124731500D01*
X145611183Y-124731500D01*
X145744836Y-124695688D01*
X145864665Y-124626505D01*
X145864665Y-124626504D01*
X145868498Y-124624292D01*
X145934392Y-124610286D01*
X145995933Y-124637686D01*
X146009471Y-124652330D01*
X146010493Y-124653662D01*
X146010495Y-124653665D01*
X146108335Y-124751505D01*
X146228164Y-124820688D01*
X146361817Y-124856500D01*
X146500183Y-124856500D01*
X146633836Y-124820688D01*
X146753665Y-124751505D01*
X146851505Y-124653665D01*
X146920688Y-124533836D01*
X146956500Y-124400183D01*
X146956500Y-124261817D01*
X146920688Y-124128164D01*
X146851505Y-124008335D01*
X146753665Y-123910495D01*
X146753662Y-123910493D01*
X146633835Y-123841311D01*
X146500183Y-123805500D01*
X146361817Y-123805500D01*
X146228163Y-123841312D01*
X146228161Y-123841312D01*
X146104500Y-123912707D01*
X146038606Y-123926713D01*
X145977065Y-123899312D01*
X145963527Y-123884667D01*
X145962507Y-123883338D01*
X145962506Y-123883337D01*
X145962505Y-123883335D01*
X145864665Y-123785495D01*
X145864662Y-123785493D01*
X145744835Y-123716311D01*
X145611183Y-123680500D01*
X145472817Y-123680500D01*
X145339164Y-123716311D01*
X145219337Y-123785493D01*
X145121493Y-123883337D01*
X145094897Y-123929404D01*
X145044834Y-123974480D01*
X144977838Y-123981522D01*
X144919497Y-123947839D01*
X144892097Y-123886298D01*
X144891500Y-123874904D01*
X144891500Y-122737817D01*
X145905500Y-122737817D01*
X145905500Y-122876182D01*
X145941311Y-123009835D01*
X146010493Y-123129662D01*
X146010495Y-123129665D01*
X146108335Y-123227505D01*
X146228164Y-123296688D01*
X146361817Y-123332500D01*
X146500183Y-123332500D01*
X146633836Y-123296688D01*
X146753665Y-123227505D01*
X146851505Y-123129665D01*
X146920688Y-123009836D01*
X146956500Y-122876183D01*
X146956500Y-122737817D01*
X146920688Y-122604164D01*
X146851505Y-122484335D01*
X146753665Y-122386495D01*
X146753662Y-122386493D01*
X146633835Y-122317311D01*
X146500183Y-122281500D01*
X146361817Y-122281500D01*
X146228164Y-122317311D01*
X146108337Y-122386493D01*
X146010493Y-122484337D01*
X145941311Y-122604164D01*
X145905500Y-122737817D01*
X144891500Y-122737817D01*
X144891500Y-120197817D01*
X145599500Y-120197817D01*
X145599500Y-120336182D01*
X145635311Y-120469835D01*
X145704493Y-120589662D01*
X145704495Y-120589665D01*
X145802335Y-120687505D01*
X145825492Y-120700874D01*
X145842018Y-120710416D01*
X145887094Y-120760479D01*
X145894136Y-120827475D01*
X145881915Y-120859312D01*
X145846062Y-120921411D01*
X145846062Y-120921413D01*
X145810250Y-121055067D01*
X145810250Y-121193432D01*
X145846061Y-121327085D01*
X145915243Y-121446912D01*
X145915245Y-121446915D01*
X146013085Y-121544755D01*
X146132914Y-121613938D01*
X146266567Y-121649750D01*
X146404933Y-121649750D01*
X146538586Y-121613938D01*
X146658415Y-121544755D01*
X146756255Y-121446915D01*
X146825438Y-121327086D01*
X146861250Y-121193433D01*
X146861250Y-121055067D01*
X146825438Y-120921414D01*
X146756255Y-120801585D01*
X146658415Y-120703745D01*
X146658412Y-120703743D01*
X146658411Y-120703742D01*
X146618730Y-120680832D01*
X146573654Y-120630770D01*
X146566613Y-120563773D01*
X146578835Y-120531936D01*
X146614686Y-120469840D01*
X146614686Y-120469839D01*
X146614688Y-120469836D01*
X146650500Y-120336183D01*
X146650500Y-120197817D01*
X146614688Y-120064164D01*
X146545505Y-119944335D01*
X146447665Y-119846495D01*
X146400626Y-119819337D01*
X146327835Y-119777311D01*
X146194183Y-119741500D01*
X146055817Y-119741500D01*
X145922164Y-119777311D01*
X145802337Y-119846493D01*
X145704493Y-119944337D01*
X145635311Y-120064164D01*
X145599500Y-120197817D01*
X144891500Y-120197817D01*
X144891500Y-119756351D01*
X144894233Y-119735594D01*
X144894184Y-119735588D01*
X144895117Y-119728500D01*
X144895117Y-119471819D01*
X144915934Y-119407750D01*
X144927036Y-119394750D01*
X144950122Y-119371665D01*
X145019305Y-119251836D01*
X145055117Y-119118183D01*
X145055117Y-119085545D01*
X145075934Y-119021476D01*
X145087042Y-119008470D01*
X145249348Y-118846164D01*
X145453473Y-118642040D01*
X145501592Y-118558695D01*
X145526500Y-118465737D01*
X145526500Y-118369498D01*
X145526500Y-111076881D01*
X145525212Y-111072076D01*
X145521500Y-111043870D01*
X145521500Y-110689474D01*
X145542317Y-110625405D01*
X145553425Y-110612399D01*
X146151899Y-110013925D01*
X146211923Y-109983342D01*
X146228974Y-109982000D01*
X146397030Y-109982000D01*
X146461099Y-110002817D01*
X146500695Y-110057317D01*
X146500695Y-110124683D01*
X146494696Y-110132938D01*
X146492874Y-110156096D01*
X146924047Y-110587270D01*
X146870993Y-110617901D01*
X146777901Y-110710993D01*
X146747269Y-110764047D01*
X146316096Y-110332874D01*
X146237193Y-110441478D01*
X146158588Y-110595751D01*
X146105086Y-110760411D01*
X146078000Y-110931427D01*
X146078000Y-111104572D01*
X146105086Y-111275588D01*
X146158588Y-111440248D01*
X146237196Y-111594524D01*
X146316096Y-111703124D01*
X146747269Y-111271950D01*
X146777901Y-111325007D01*
X146870993Y-111418099D01*
X146924045Y-111448729D01*
X146492874Y-111879901D01*
X146601474Y-111958802D01*
X146755751Y-112037411D01*
X146920411Y-112090913D01*
X147091428Y-112118000D01*
X147264572Y-112118000D01*
X147435588Y-112090913D01*
X147600251Y-112037410D01*
X147696071Y-111988587D01*
X147762607Y-111978048D01*
X147822631Y-112008630D01*
X147828000Y-112013999D01*
X147828000Y-112014000D01*
X149222533Y-112014000D01*
X149272016Y-112025879D01*
X149295555Y-112037873D01*
X149377927Y-112064637D01*
X149460295Y-112091401D01*
X149460297Y-112091401D01*
X149460299Y-112091402D01*
X149631389Y-112118500D01*
X149631390Y-112118500D01*
X149804610Y-112118500D01*
X149804611Y-112118500D01*
X149975701Y-112091402D01*
X150140445Y-112037873D01*
X150163983Y-112025879D01*
X150213467Y-112014000D01*
X151147649Y-112014000D01*
X151211718Y-112034817D01*
X151224724Y-112045925D01*
X151227396Y-112048597D01*
X151227399Y-112048601D01*
X151310260Y-112103966D01*
X151383326Y-112118500D01*
X151383330Y-112118500D01*
X153053500Y-112118500D01*
X153117569Y-112139317D01*
X153157165Y-112193817D01*
X153162500Y-112227500D01*
X153162500Y-115670180D01*
X153141683Y-115734249D01*
X153130578Y-115747252D01*
X153122494Y-115755336D01*
X153053311Y-115875164D01*
X153017500Y-116008817D01*
X153017500Y-116147182D01*
X153053311Y-116280835D01*
X153053312Y-116280836D01*
X153122495Y-116400665D01*
X153220335Y-116498505D01*
X153340164Y-116567688D01*
X153473817Y-116603500D01*
X153612183Y-116603500D01*
X153745836Y-116567688D01*
X153865665Y-116498505D01*
X153963505Y-116400665D01*
X154032688Y-116280836D01*
X154068500Y-116147183D01*
X154068500Y-116008817D01*
X154032688Y-115875164D01*
X153963505Y-115755335D01*
X153955422Y-115747252D01*
X153924841Y-115687227D01*
X153923500Y-115670180D01*
X153923500Y-109712908D01*
X153923500Y-109712906D01*
X153897569Y-109616133D01*
X153860197Y-109551402D01*
X153847476Y-109529367D01*
X153447925Y-109129816D01*
X153417342Y-109069792D01*
X153416000Y-109052741D01*
X153416000Y-107950001D01*
X153416000Y-107950000D01*
X153415999Y-107950000D01*
X153290172Y-107950000D01*
X153226103Y-107929183D01*
X153202772Y-107903933D01*
X153201749Y-107904677D01*
X153176980Y-107870586D01*
X153097414Y-107761072D01*
X152974928Y-107638586D01*
X152834788Y-107536768D01*
X152834785Y-107536766D01*
X152834783Y-107536765D01*
X152834780Y-107536763D01*
X152680443Y-107458126D01*
X152515704Y-107404598D01*
X152515705Y-107404598D01*
X152344612Y-107377500D01*
X152344611Y-107377500D01*
X152171389Y-107377500D01*
X152171387Y-107377500D01*
X152000295Y-107404598D01*
X151835556Y-107458126D01*
X151681219Y-107536763D01*
X151681216Y-107536765D01*
X151541074Y-107638584D01*
X151418584Y-107761074D01*
X151314251Y-107904677D01*
X151312427Y-107903352D01*
X151267581Y-107941686D01*
X151225828Y-107950000D01*
X150750172Y-107950000D01*
X150686103Y-107929183D01*
X150662772Y-107903933D01*
X150661749Y-107904677D01*
X150636980Y-107870586D01*
X150557414Y-107761072D01*
X150434928Y-107638586D01*
X150294788Y-107536768D01*
X150294785Y-107536766D01*
X150294783Y-107536765D01*
X150294780Y-107536763D01*
X150140443Y-107458126D01*
X149975704Y-107404598D01*
X149975705Y-107404598D01*
X149804612Y-107377500D01*
X149804611Y-107377500D01*
X149631389Y-107377500D01*
X149631387Y-107377500D01*
X149460295Y-107404598D01*
X149295556Y-107458126D01*
X149141219Y-107536763D01*
X149141216Y-107536765D01*
X149001074Y-107638584D01*
X148878584Y-107761074D01*
X148774251Y-107904677D01*
X148772427Y-107903352D01*
X148727581Y-107941686D01*
X148685828Y-107950000D01*
X148210172Y-107950000D01*
X148146103Y-107929183D01*
X148122772Y-107903933D01*
X148121749Y-107904677D01*
X148096980Y-107870586D01*
X148017414Y-107761072D01*
X147894928Y-107638586D01*
X147754788Y-107536768D01*
X147754785Y-107536766D01*
X147754783Y-107536765D01*
X147754780Y-107536763D01*
X147600443Y-107458126D01*
X147435704Y-107404598D01*
X147435705Y-107404598D01*
X147264612Y-107377500D01*
X147264611Y-107377500D01*
X147091389Y-107377500D01*
X147091387Y-107377500D01*
X146920295Y-107404598D01*
X146755556Y-107458126D01*
X146601219Y-107536763D01*
X146601216Y-107536765D01*
X146461074Y-107638584D01*
X146338584Y-107761074D01*
X146234251Y-107904677D01*
X146232427Y-107903352D01*
X146187581Y-107941686D01*
X146145828Y-107950000D01*
X145923000Y-107950000D01*
X145923000Y-107950001D01*
X145923000Y-109178026D01*
X145902183Y-109242095D01*
X145891075Y-109255101D01*
X145324013Y-109822162D01*
X145263989Y-109852745D01*
X145197453Y-109842207D01*
X145149818Y-109794572D01*
X145145635Y-109783675D01*
X145145422Y-109783764D01*
X145142688Y-109777165D01*
X145142688Y-109777164D01*
X145073505Y-109657335D01*
X144975665Y-109559495D01*
X144975662Y-109559493D01*
X144855835Y-109490311D01*
X144722183Y-109454500D01*
X144583817Y-109454500D01*
X144450164Y-109490311D01*
X144330337Y-109559493D01*
X144232493Y-109657337D01*
X144163311Y-109777164D01*
X144143060Y-109852745D01*
X144127500Y-109910817D01*
X144127500Y-110049183D01*
X144137095Y-110084994D01*
X144163311Y-110182835D01*
X144163312Y-110182836D01*
X144232495Y-110302665D01*
X144330335Y-110400505D01*
X144330337Y-110400506D01*
X144450164Y-110469688D01*
X144583817Y-110505500D01*
X144691500Y-110505500D01*
X144755569Y-110526317D01*
X144795165Y-110580817D01*
X144800500Y-110614500D01*
X144800500Y-111043870D01*
X144796787Y-111072079D01*
X144795500Y-111076882D01*
X144795500Y-113053181D01*
X144774683Y-113117250D01*
X144720183Y-113156846D01*
X144652817Y-113156846D01*
X144609427Y-113130257D01*
X144594665Y-113115495D01*
X144594662Y-113115493D01*
X144474835Y-113046311D01*
X144341183Y-113010500D01*
X144202817Y-113010500D01*
X144069164Y-113046311D01*
X143949337Y-113115493D01*
X143851493Y-113213337D01*
X143782311Y-113333164D01*
X143746500Y-113466817D01*
X143746500Y-113605182D01*
X143782311Y-113738835D01*
X143851493Y-113858662D01*
X143851495Y-113858665D01*
X143949335Y-113956505D01*
X143949337Y-113956506D01*
X143949340Y-113956509D01*
X143950669Y-113957529D01*
X143951347Y-113958516D01*
X143954387Y-113961556D01*
X143953823Y-113962119D01*
X143988822Y-114013050D01*
X143987053Y-114080392D01*
X143953928Y-114125985D01*
X143954387Y-114126444D01*
X143951489Y-114129341D01*
X143950669Y-114130471D01*
X143949340Y-114131490D01*
X143851493Y-114229337D01*
X143782311Y-114349164D01*
X143746500Y-114482817D01*
X143746500Y-114621183D01*
X143781187Y-114750642D01*
X143777661Y-114817915D01*
X143735266Y-114870268D01*
X143730402Y-114873248D01*
X143695338Y-114893492D01*
X143597493Y-114991337D01*
X143528311Y-115111164D01*
X143496604Y-115229500D01*
X143492500Y-115244817D01*
X143019500Y-115244817D01*
X143019500Y-115117817D01*
X142983688Y-114984164D01*
X142914505Y-114864335D01*
X142816665Y-114766495D01*
X142789207Y-114750642D01*
X142696835Y-114697311D01*
X142563183Y-114661500D01*
X142424817Y-114661500D01*
X142291164Y-114697311D01*
X142171337Y-114766493D01*
X142073493Y-114864337D01*
X142004311Y-114984164D01*
X141968500Y-115117817D01*
X137114000Y-115117817D01*
X137078188Y-114984164D01*
X137009005Y-114864335D01*
X136911165Y-114766495D01*
X136883707Y-114750642D01*
X136791335Y-114697311D01*
X136657683Y-114661500D01*
X136519317Y-114661500D01*
X136385664Y-114697311D01*
X136265837Y-114766493D01*
X136167993Y-114864337D01*
X136098811Y-114984164D01*
X136063000Y-115117817D01*
X129359198Y-115117817D01*
X129359198Y-113956546D01*
X129360540Y-113939494D01*
X129370500Y-113876611D01*
X129370500Y-113703389D01*
X129360540Y-113640503D01*
X129359198Y-113623452D01*
X129359198Y-112243537D01*
X136023220Y-112243537D01*
X136023220Y-112381903D01*
X136032815Y-112417714D01*
X136059031Y-112515555D01*
X136059032Y-112515556D01*
X136128215Y-112635385D01*
X136226055Y-112733225D01*
X136345884Y-112802408D01*
X136479537Y-112838220D01*
X136617903Y-112838220D01*
X136751556Y-112802408D01*
X136871385Y-112733225D01*
X136969225Y-112635385D01*
X137038408Y-112515556D01*
X137074220Y-112381903D01*
X137074220Y-112243537D01*
X137038408Y-112109884D01*
X136969225Y-111990055D01*
X136871385Y-111892215D01*
X136871382Y-111892213D01*
X136751555Y-111823031D01*
X136724631Y-111815817D01*
X140952500Y-111815817D01*
X140952500Y-111954182D01*
X140988311Y-112087835D01*
X141018034Y-112139317D01*
X141057495Y-112207665D01*
X141155335Y-112305505D01*
X141275164Y-112374688D01*
X141408817Y-112410500D01*
X141547183Y-112410500D01*
X141680836Y-112374688D01*
X141800665Y-112305505D01*
X141898505Y-112207665D01*
X141967688Y-112087836D01*
X142003500Y-111954183D01*
X142003500Y-111815817D01*
X141967688Y-111682164D01*
X141898505Y-111562335D01*
X141800665Y-111464495D01*
X141758668Y-111440248D01*
X141680835Y-111395311D01*
X141547183Y-111359500D01*
X141408817Y-111359500D01*
X141275164Y-111395311D01*
X141155337Y-111464493D01*
X141057493Y-111562337D01*
X140988311Y-111682164D01*
X140952500Y-111815817D01*
X136724631Y-111815817D01*
X136617903Y-111787220D01*
X136479537Y-111787220D01*
X136345884Y-111823031D01*
X136226057Y-111892213D01*
X136128213Y-111990057D01*
X136059031Y-112109884D01*
X136032832Y-112207665D01*
X136023220Y-112243537D01*
X129359198Y-112243537D01*
X129359198Y-111416546D01*
X129360540Y-111399494D01*
X129370500Y-111336611D01*
X129370500Y-111163389D01*
X129360540Y-111100503D01*
X129359198Y-111083452D01*
X129359198Y-108932817D01*
X134951088Y-108932817D01*
X134951088Y-109071182D01*
X134986899Y-109204835D01*
X135056081Y-109324662D01*
X135056083Y-109324665D01*
X135153923Y-109422505D01*
X135273752Y-109491688D01*
X135407405Y-109527500D01*
X135545771Y-109527500D01*
X135679424Y-109491688D01*
X135799253Y-109422505D01*
X135895941Y-109325817D01*
X139174500Y-109325817D01*
X139174500Y-109464182D01*
X139210311Y-109597835D01*
X139279493Y-109717662D01*
X139279495Y-109717665D01*
X139377335Y-109815505D01*
X139497164Y-109884688D01*
X139630817Y-109920500D01*
X139769183Y-109920500D01*
X139902836Y-109884688D01*
X140022665Y-109815505D01*
X140120505Y-109717665D01*
X140189688Y-109597836D01*
X140225500Y-109464183D01*
X140225500Y-109325817D01*
X140189688Y-109192164D01*
X140120505Y-109072335D01*
X140022665Y-108974495D01*
X140010903Y-108967704D01*
X139902835Y-108905311D01*
X139769183Y-108869500D01*
X139630817Y-108869500D01*
X139497164Y-108905311D01*
X139377337Y-108974493D01*
X139279493Y-109072337D01*
X139210311Y-109192164D01*
X139174500Y-109325817D01*
X135895941Y-109325817D01*
X135897093Y-109324665D01*
X135966276Y-109204836D01*
X136002088Y-109071183D01*
X136002088Y-108932817D01*
X135966276Y-108799164D01*
X135897093Y-108679335D01*
X135799253Y-108581495D01*
X135748218Y-108552030D01*
X135679423Y-108512311D01*
X135545771Y-108476500D01*
X135407405Y-108476500D01*
X135273752Y-108512311D01*
X135153925Y-108581493D01*
X135056081Y-108679337D01*
X134986899Y-108799164D01*
X134951088Y-108932817D01*
X129359198Y-108932817D01*
X129359198Y-108876546D01*
X129360540Y-108859494D01*
X129370500Y-108796611D01*
X129370500Y-108623389D01*
X129360540Y-108560503D01*
X129359198Y-108543452D01*
X129359198Y-106690817D01*
X152763500Y-106690817D01*
X152763500Y-106829182D01*
X152799311Y-106962835D01*
X152868493Y-107082662D01*
X152868495Y-107082665D01*
X152966335Y-107180505D01*
X153086164Y-107249688D01*
X153219817Y-107285500D01*
X153358183Y-107285500D01*
X153491836Y-107249688D01*
X153611665Y-107180505D01*
X153709505Y-107082665D01*
X153778688Y-106962836D01*
X153814500Y-106829183D01*
X153814500Y-106690817D01*
X153778688Y-106557164D01*
X153709505Y-106437335D01*
X153611665Y-106339495D01*
X153611662Y-106339493D01*
X153491835Y-106270311D01*
X153358183Y-106234500D01*
X153219817Y-106234500D01*
X153086164Y-106270311D01*
X152966337Y-106339493D01*
X152868493Y-106437337D01*
X152799311Y-106557164D01*
X152763500Y-106690817D01*
X129359198Y-106690817D01*
X129359198Y-106336546D01*
X129360540Y-106319494D01*
X129370500Y-106256611D01*
X129370500Y-106083389D01*
X129360540Y-106020503D01*
X129359198Y-106003452D01*
X129359198Y-105594817D01*
X145270500Y-105594817D01*
X145270500Y-105733183D01*
X145280095Y-105768994D01*
X145306311Y-105866835D01*
X145342494Y-105929506D01*
X145375495Y-105986665D01*
X145473335Y-106084505D01*
X145593164Y-106153688D01*
X145726817Y-106189500D01*
X145865183Y-106189500D01*
X145998836Y-106153688D01*
X146118665Y-106084505D01*
X146216505Y-105986665D01*
X146285688Y-105866836D01*
X146321500Y-105733183D01*
X146321500Y-105594817D01*
X146285688Y-105461164D01*
X146273363Y-105439817D01*
X147556500Y-105439817D01*
X147556500Y-105578182D01*
X147592311Y-105711835D01*
X147661493Y-105831662D01*
X147661495Y-105831665D01*
X147759335Y-105929505D01*
X147879164Y-105998688D01*
X148012817Y-106034500D01*
X148151183Y-106034500D01*
X148284836Y-105998688D01*
X148404665Y-105929505D01*
X148502505Y-105831665D01*
X148571688Y-105711836D01*
X148607500Y-105578183D01*
X148607500Y-105439817D01*
X148571688Y-105306164D01*
X148502505Y-105186335D01*
X148404665Y-105088495D01*
X148404662Y-105088493D01*
X148284835Y-105019311D01*
X148151183Y-104983500D01*
X148012817Y-104983500D01*
X147879164Y-105019311D01*
X147759337Y-105088493D01*
X147661493Y-105186337D01*
X147592311Y-105306164D01*
X147556500Y-105439817D01*
X146273363Y-105439817D01*
X146216505Y-105341335D01*
X146118665Y-105243495D01*
X146118662Y-105243493D01*
X145998835Y-105174311D01*
X145865183Y-105138500D01*
X145726817Y-105138500D01*
X145593164Y-105174311D01*
X145473337Y-105243493D01*
X145375493Y-105341337D01*
X145306311Y-105461164D01*
X145274957Y-105578182D01*
X145270500Y-105594817D01*
X129359198Y-105594817D01*
X129359198Y-103796546D01*
X129360540Y-103779494D01*
X129370500Y-103716611D01*
X129370500Y-103562817D01*
X135237500Y-103562817D01*
X135237500Y-103701182D01*
X135273311Y-103834835D01*
X135273312Y-103834836D01*
X135342495Y-103954665D01*
X135440335Y-104052505D01*
X135560164Y-104121688D01*
X135693817Y-104157500D01*
X135832183Y-104157500D01*
X135965836Y-104121688D01*
X136085665Y-104052505D01*
X136183505Y-103954665D01*
X136252688Y-103834836D01*
X136288500Y-103701183D01*
X136288500Y-103562817D01*
X153659063Y-103562817D01*
X153659063Y-103701182D01*
X153694874Y-103834835D01*
X153694875Y-103834836D01*
X153764058Y-103954665D01*
X153861898Y-104052505D01*
X153981727Y-104121688D01*
X154115380Y-104157500D01*
X154253746Y-104157500D01*
X154387399Y-104121688D01*
X154507228Y-104052505D01*
X154605068Y-103954665D01*
X154674251Y-103834836D01*
X154710063Y-103701183D01*
X154710063Y-103562817D01*
X154674251Y-103429164D01*
X154605068Y-103309335D01*
X154507228Y-103211495D01*
X154487237Y-103199953D01*
X154387398Y-103142311D01*
X154253746Y-103106500D01*
X154115380Y-103106500D01*
X153981727Y-103142311D01*
X153861900Y-103211493D01*
X153764056Y-103309337D01*
X153694874Y-103429164D01*
X153659063Y-103562817D01*
X136288500Y-103562817D01*
X136252688Y-103429164D01*
X136183505Y-103309335D01*
X136085665Y-103211495D01*
X136065674Y-103199953D01*
X135965835Y-103142311D01*
X135832183Y-103106500D01*
X135693817Y-103106500D01*
X135560164Y-103142311D01*
X135440337Y-103211493D01*
X135342493Y-103309337D01*
X135273311Y-103429164D01*
X135237500Y-103562817D01*
X129370500Y-103562817D01*
X129370500Y-103543389D01*
X129360238Y-103478598D01*
X129360007Y-103476711D01*
X129360174Y-103475852D01*
X129359198Y-103463452D01*
X129359198Y-102038817D01*
X135364500Y-102038817D01*
X135364500Y-102177182D01*
X135400311Y-102310835D01*
X135441778Y-102382658D01*
X135469495Y-102430665D01*
X135567335Y-102528505D01*
X135687164Y-102597688D01*
X135820817Y-102633500D01*
X135959183Y-102633500D01*
X136092836Y-102597688D01*
X136212665Y-102528505D01*
X136310505Y-102430665D01*
X136379688Y-102310836D01*
X136415500Y-102177183D01*
X136415500Y-102038817D01*
X136412284Y-102026814D01*
X136415812Y-101959541D01*
X136458208Y-101907189D01*
X136517571Y-101889606D01*
X136662205Y-101889606D01*
X136795858Y-101853794D01*
X136915687Y-101784611D01*
X137013527Y-101686771D01*
X137082710Y-101566942D01*
X137118522Y-101433289D01*
X137118522Y-101294923D01*
X137082710Y-101161270D01*
X137013527Y-101041441D01*
X136915687Y-100943601D01*
X136915684Y-100943599D01*
X136795857Y-100874417D01*
X136662205Y-100838606D01*
X136523839Y-100838606D01*
X136390186Y-100874417D01*
X136270359Y-100943599D01*
X136172515Y-101041443D01*
X136103333Y-101161270D01*
X136099223Y-101176611D01*
X136067522Y-101294923D01*
X136067522Y-101433289D01*
X136070738Y-101445291D01*
X136067210Y-101512565D01*
X136024814Y-101564917D01*
X135965451Y-101582500D01*
X135820817Y-101582500D01*
X135687164Y-101618311D01*
X135567337Y-101687493D01*
X135469493Y-101785337D01*
X135400311Y-101905164D01*
X135364500Y-102038817D01*
X129359198Y-102038817D01*
X129359198Y-101256546D01*
X129360540Y-101239494D01*
X129370500Y-101176611D01*
X129370500Y-101003389D01*
X129360540Y-100940503D01*
X129359198Y-100923452D01*
X129359198Y-100487082D01*
X137677500Y-100487082D01*
X137677500Y-101734918D01*
X137706342Y-101879913D01*
X137706343Y-101879915D01*
X137762914Y-102016491D01*
X137762916Y-102016496D01*
X137806878Y-102082289D01*
X137845049Y-102139416D01*
X137949584Y-102243951D01*
X138011044Y-102285017D01*
X138072503Y-102326083D01*
X138072504Y-102326083D01*
X138072505Y-102326084D01*
X138209087Y-102382658D01*
X138354082Y-102411500D01*
X138354086Y-102411500D01*
X138501914Y-102411500D01*
X138501918Y-102411500D01*
X138646913Y-102382658D01*
X138783495Y-102326084D01*
X138906416Y-102243951D01*
X139010951Y-102139416D01*
X139093084Y-102016495D01*
X139149658Y-101879913D01*
X139178500Y-101734918D01*
X139178500Y-100891865D01*
X139199317Y-100827796D01*
X139253817Y-100788200D01*
X139321183Y-100788200D01*
X139375683Y-100827796D01*
X139381897Y-100837366D01*
X139437492Y-100933661D01*
X139437493Y-100933662D01*
X139437495Y-100933665D01*
X139535335Y-101031505D01*
X139655164Y-101100688D01*
X139788817Y-101136500D01*
X139927183Y-101136500D01*
X140060836Y-101100688D01*
X140180665Y-101031505D01*
X140278505Y-100933665D01*
X140347688Y-100813836D01*
X140383500Y-100680183D01*
X140383500Y-100541817D01*
X145112500Y-100541817D01*
X145112500Y-100680182D01*
X145148311Y-100813835D01*
X145217493Y-100933662D01*
X145217495Y-100933665D01*
X145315335Y-101031505D01*
X145435164Y-101100688D01*
X145568817Y-101136500D01*
X145707183Y-101136500D01*
X145840836Y-101100688D01*
X145960665Y-101031505D01*
X146058505Y-100933665D01*
X146114103Y-100837365D01*
X146164165Y-100792289D01*
X146231162Y-100785247D01*
X146289502Y-100818929D01*
X146316903Y-100880471D01*
X146317500Y-100891865D01*
X146317500Y-101734918D01*
X146346342Y-101879913D01*
X146346343Y-101879915D01*
X146402914Y-102016491D01*
X146402916Y-102016496D01*
X146446878Y-102082289D01*
X146485049Y-102139416D01*
X146589584Y-102243951D01*
X146651044Y-102285017D01*
X146712503Y-102326083D01*
X146712504Y-102326083D01*
X146712505Y-102326084D01*
X146849087Y-102382658D01*
X146994082Y-102411500D01*
X146994086Y-102411500D01*
X147141914Y-102411500D01*
X147141918Y-102411500D01*
X147286913Y-102382658D01*
X147423495Y-102326084D01*
X147546416Y-102243951D01*
X147650951Y-102139416D01*
X147733084Y-102016495D01*
X147789658Y-101879913D01*
X147818500Y-101734918D01*
X147818500Y-100487082D01*
X147789658Y-100342087D01*
X147733084Y-100205505D01*
X147723053Y-100190493D01*
X147650952Y-100082586D01*
X147650951Y-100082584D01*
X147546416Y-99978049D01*
X147499948Y-99947000D01*
X147423496Y-99895916D01*
X147423491Y-99895914D01*
X147286915Y-99839343D01*
X147286916Y-99839343D01*
X147286913Y-99839342D01*
X147141918Y-99810500D01*
X146994082Y-99810500D01*
X146849087Y-99839342D01*
X146849085Y-99839342D01*
X146849084Y-99839343D01*
X146712508Y-99895914D01*
X146712503Y-99895916D01*
X146589586Y-99978047D01*
X146485047Y-100082586D01*
X146402916Y-100205503D01*
X146402914Y-100205508D01*
X146346343Y-100342084D01*
X146346339Y-100342096D01*
X146336626Y-100390928D01*
X146303710Y-100449704D01*
X146242532Y-100477907D01*
X146176461Y-100464764D01*
X146130733Y-100415295D01*
X146129019Y-100411376D01*
X146127689Y-100408167D01*
X146127688Y-100408166D01*
X146127688Y-100408164D01*
X146058505Y-100288335D01*
X145960665Y-100190495D01*
X145889128Y-100149193D01*
X145840835Y-100121311D01*
X145707183Y-100085500D01*
X145568817Y-100085500D01*
X145435164Y-100121311D01*
X145315337Y-100190493D01*
X145217493Y-100288337D01*
X145148311Y-100408164D01*
X145112500Y-100541817D01*
X140383500Y-100541817D01*
X140347688Y-100408164D01*
X140278505Y-100288335D01*
X140180665Y-100190495D01*
X140109128Y-100149193D01*
X140060835Y-100121311D01*
X139927183Y-100085500D01*
X139788817Y-100085500D01*
X139655164Y-100121311D01*
X139535337Y-100190493D01*
X139437493Y-100288337D01*
X139368310Y-100408166D01*
X139366977Y-100411385D01*
X139365358Y-100413279D01*
X139364740Y-100414351D01*
X139364541Y-100414236D01*
X139323221Y-100462605D01*
X139257715Y-100478325D01*
X139195480Y-100452539D01*
X139160287Y-100395097D01*
X139159381Y-100390970D01*
X139149658Y-100342087D01*
X139093084Y-100205505D01*
X139083053Y-100190493D01*
X139010952Y-100082586D01*
X139010951Y-100082584D01*
X138906416Y-99978049D01*
X138859948Y-99947000D01*
X138783496Y-99895916D01*
X138783491Y-99895914D01*
X138646915Y-99839343D01*
X138646916Y-99839343D01*
X138646913Y-99839342D01*
X138501918Y-99810500D01*
X138354082Y-99810500D01*
X138209087Y-99839342D01*
X138209085Y-99839342D01*
X138209084Y-99839343D01*
X138072508Y-99895914D01*
X138072503Y-99895916D01*
X137949586Y-99978047D01*
X137845047Y-100082586D01*
X137762916Y-100205503D01*
X137762914Y-100205508D01*
X137706343Y-100342084D01*
X137706342Y-100342087D01*
X137677500Y-100487082D01*
X129359198Y-100487082D01*
X129359198Y-98716546D01*
X129360540Y-98699494D01*
X129370500Y-98636611D01*
X129370500Y-98480817D01*
X141587500Y-98480817D01*
X141587500Y-98619182D01*
X141623311Y-98752835D01*
X141623312Y-98752836D01*
X141692495Y-98872665D01*
X141790335Y-98970505D01*
X141910164Y-99039688D01*
X142043817Y-99075500D01*
X142182183Y-99075500D01*
X142315836Y-99039688D01*
X142435665Y-98970505D01*
X142533505Y-98872665D01*
X142602688Y-98752836D01*
X142638500Y-98619183D01*
X142638500Y-98480817D01*
X142602688Y-98347164D01*
X142533505Y-98227335D01*
X142435665Y-98129495D01*
X142419138Y-98119953D01*
X142315835Y-98060311D01*
X142182183Y-98024500D01*
X142043817Y-98024500D01*
X141910164Y-98060311D01*
X141790337Y-98129493D01*
X141692493Y-98227337D01*
X141623311Y-98347164D01*
X141587500Y-98480817D01*
X129370500Y-98480817D01*
X129370500Y-98463389D01*
X129360261Y-98398743D01*
X129360043Y-98397001D01*
X129360199Y-98396182D01*
X129359198Y-98383452D01*
X129359198Y-96952225D01*
X129361293Y-96930959D01*
X129370499Y-96884677D01*
X129370500Y-96884674D01*
X129370500Y-96457082D01*
X137677500Y-96457082D01*
X137677500Y-97404918D01*
X137706342Y-97549913D01*
X137706343Y-97549915D01*
X137762914Y-97686491D01*
X137762916Y-97686496D01*
X137779013Y-97710586D01*
X137845049Y-97809416D01*
X137949584Y-97913951D01*
X138011044Y-97955017D01*
X138072503Y-97996083D01*
X138072504Y-97996083D01*
X138072505Y-97996084D01*
X138209087Y-98052658D01*
X138354082Y-98081500D01*
X138354086Y-98081500D01*
X138501914Y-98081500D01*
X138501918Y-98081500D01*
X138646913Y-98052658D01*
X138783495Y-97996084D01*
X138906416Y-97913951D01*
X139010951Y-97809416D01*
X139093084Y-97686495D01*
X139149658Y-97549913D01*
X139178500Y-97404918D01*
X139178500Y-96457082D01*
X146317500Y-96457082D01*
X146317500Y-97404918D01*
X146346342Y-97549913D01*
X146346343Y-97549915D01*
X146402914Y-97686491D01*
X146402916Y-97686496D01*
X146419013Y-97710586D01*
X146485049Y-97809416D01*
X146589584Y-97913951D01*
X146651044Y-97955017D01*
X146712503Y-97996083D01*
X146712504Y-97996083D01*
X146712505Y-97996084D01*
X146849087Y-98052658D01*
X146994082Y-98081500D01*
X146994086Y-98081500D01*
X147141914Y-98081500D01*
X147141918Y-98081500D01*
X147286913Y-98052658D01*
X147423495Y-97996084D01*
X147546416Y-97913951D01*
X147650951Y-97809416D01*
X147733084Y-97686495D01*
X147789658Y-97549913D01*
X147818500Y-97404918D01*
X147818500Y-96457082D01*
X147789658Y-96312087D01*
X147733084Y-96175505D01*
X147650951Y-96052584D01*
X147546416Y-95948049D01*
X147545585Y-95947493D01*
X147423496Y-95865916D01*
X147423491Y-95865914D01*
X147286915Y-95809343D01*
X147286916Y-95809343D01*
X147286913Y-95809342D01*
X147141918Y-95780500D01*
X146994082Y-95780500D01*
X146849087Y-95809342D01*
X146849085Y-95809342D01*
X146849084Y-95809343D01*
X146712508Y-95865914D01*
X146712503Y-95865916D01*
X146589586Y-95948047D01*
X146485047Y-96052586D01*
X146402916Y-96175503D01*
X146402914Y-96175508D01*
X146346343Y-96312084D01*
X146346342Y-96312087D01*
X146317500Y-96457082D01*
X139178500Y-96457082D01*
X139149658Y-96312087D01*
X139093084Y-96175505D01*
X139010951Y-96052584D01*
X138906416Y-95948049D01*
X138905585Y-95947493D01*
X138783496Y-95865916D01*
X138783491Y-95865914D01*
X138646915Y-95809343D01*
X138646916Y-95809343D01*
X138646913Y-95809342D01*
X138501918Y-95780500D01*
X138354082Y-95780500D01*
X138209087Y-95809342D01*
X138209085Y-95809342D01*
X138209084Y-95809343D01*
X138072508Y-95865914D01*
X138072503Y-95865916D01*
X137949586Y-95948047D01*
X137845047Y-96052586D01*
X137762916Y-96175503D01*
X137762914Y-96175508D01*
X137706343Y-96312084D01*
X137706342Y-96312087D01*
X137677500Y-96457082D01*
X129370500Y-96457082D01*
X129370500Y-95135326D01*
X129361292Y-95089034D01*
X129359198Y-95067770D01*
X129359198Y-94722000D01*
X129380015Y-94657931D01*
X129434515Y-94618335D01*
X129468198Y-94613000D01*
X155595923Y-94613000D01*
X155659992Y-94633817D01*
G37*
%TD.AperFunction*%
%TD*%
M02*
