%TF.GenerationSoftware,KiCad,Pcbnew,9.0.4*%
%TF.CreationDate,2025-09-05T15:19:03+01:00*%
%TF.ProjectId,MicroPython,4d696372-6f50-4797-9468-6f6e2e6b6963,rev?*%
%TF.SameCoordinates,Original*%
%TF.FileFunction,Soldermask,Bot*%
%TF.FilePolarity,Negative*%
%FSLAX46Y46*%
G04 Gerber Fmt 4.6, Leading zero omitted, Abs format (unit mm)*
G04 Created by KiCad (PCBNEW 9.0.4) date 2025-09-05 15:19:03*
%MOMM*%
%LPD*%
G01*
G04 APERTURE LIST*
%ADD10C,0.650000*%
%ADD11O,1.000000X2.100000*%
%ADD12O,1.000000X1.800000*%
%ADD13R,1.700000X1.700000*%
%ADD14C,1.700000*%
G04 APERTURE END LIST*
D10*
%TO.C,J10*%
X145638000Y-100611000D03*
X139858000Y-100611000D03*
D11*
X147068000Y-101111000D03*
D12*
X147068000Y-96931000D03*
D11*
X138428000Y-101111000D03*
D12*
X138428000Y-96931000D03*
%TD*%
D13*
%TO.C,J2*%
X128270000Y-116330000D03*
D14*
X128270000Y-118870000D03*
X128270000Y-121410000D03*
X128270000Y-123950000D03*
X128270000Y-126490000D03*
X128270000Y-129030000D03*
X128270000Y-131570000D03*
X128270000Y-134110000D03*
%TD*%
D13*
%TO.C,J8*%
X152258000Y-111018000D03*
D14*
X152258000Y-108478000D03*
X149718000Y-111018000D03*
X149718000Y-108478000D03*
X147178000Y-111018000D03*
X147178000Y-108478000D03*
%TD*%
D13*
%TO.C,J7*%
X156210000Y-96010000D03*
D14*
X156210000Y-98550000D03*
X156210000Y-101090000D03*
X156210000Y-103630000D03*
X156210000Y-106170000D03*
X156210000Y-108710000D03*
X156210000Y-111250000D03*
X156210000Y-113790000D03*
%TD*%
D13*
%TO.C,J1*%
X156210000Y-116330000D03*
D14*
X156210000Y-118870000D03*
X156210000Y-121410000D03*
X156210000Y-123950000D03*
X156210000Y-126490000D03*
X156210000Y-129030000D03*
X156210000Y-131570000D03*
X156210000Y-134110000D03*
%TD*%
D13*
%TO.C,J6*%
X128270000Y-96010000D03*
D14*
X128270000Y-98550000D03*
X128270000Y-101090000D03*
X128270000Y-103630000D03*
X128270000Y-106170000D03*
X128270000Y-108710000D03*
X128270000Y-111250000D03*
X128270000Y-113790000D03*
%TD*%
M02*
