%TF.GenerationSoftware,KiCad,Pcbnew,9.0.4*%
%TF.CreationDate,2025-09-04T16:16:01+01:00*%
%TF.ProjectId,MicroPython,4d696372-6f50-4797-9468-6f6e2e6b6963,rev?*%
%TF.SameCoordinates,Original*%
%TF.FileFunction,Paste,Top*%
%TF.FilePolarity,Positive*%
%FSLAX46Y46*%
G04 Gerber Fmt 4.6, Leading zero omitted, Abs format (unit mm)*
G04 Created by KiCad (PCBNEW 9.0.4) date 2025-09-04 16:16:01*
%MOMM*%
%LPD*%
G01*
G04 APERTURE LIST*
G04 Aperture macros list*
%AMRoundRect*
0 Rectangle with rounded corners*
0 $1 Rounding radius*
0 $2 $3 $4 $5 $6 $7 $8 $9 X,Y pos of 4 corners*
0 Add a 4 corners polygon primitive as box body*
4,1,4,$2,$3,$4,$5,$6,$7,$8,$9,$2,$3,0*
0 Add four circle primitives for the rounded corners*
1,1,$1+$1,$2,$3*
1,1,$1+$1,$4,$5*
1,1,$1+$1,$6,$7*
1,1,$1+$1,$8,$9*
0 Add four rect primitives between the rounded corners*
20,1,$1+$1,$2,$3,$4,$5,0*
20,1,$1+$1,$4,$5,$6,$7,0*
20,1,$1+$1,$6,$7,$8,$9,0*
20,1,$1+$1,$8,$9,$2,$3,0*%
G04 Aperture macros list end*
%ADD10RoundRect,0.112500X0.112500X-0.187500X0.112500X0.187500X-0.112500X0.187500X-0.112500X-0.187500X0*%
%ADD11RoundRect,0.135000X0.185000X-0.135000X0.185000X0.135000X-0.185000X0.135000X-0.185000X-0.135000X0*%
%ADD12RoundRect,0.140000X0.140000X0.170000X-0.140000X0.170000X-0.140000X-0.170000X0.140000X-0.170000X0*%
%ADD13RoundRect,0.135000X-0.135000X-0.185000X0.135000X-0.185000X0.135000X0.185000X-0.135000X0.185000X0*%
%ADD14R,1.400000X1.600000*%
%ADD15RoundRect,0.147500X0.172500X-0.147500X0.172500X0.147500X-0.172500X0.147500X-0.172500X-0.147500X0*%
%ADD16RoundRect,0.150000X-0.587500X-0.150000X0.587500X-0.150000X0.587500X0.150000X-0.587500X0.150000X0*%
%ADD17RoundRect,0.218750X-0.256250X0.218750X-0.256250X-0.218750X0.256250X-0.218750X0.256250X0.218750X0*%
%ADD18RoundRect,0.140000X0.170000X-0.140000X0.170000X0.140000X-0.170000X0.140000X-0.170000X-0.140000X0*%
%ADD19RoundRect,0.135000X0.135000X0.185000X-0.135000X0.185000X-0.135000X-0.185000X0.135000X-0.185000X0*%
%ADD20RoundRect,0.140000X-0.170000X0.140000X-0.170000X-0.140000X0.170000X-0.140000X0.170000X0.140000X0*%
%ADD21RoundRect,0.150000X0.150000X0.400000X-0.150000X0.400000X-0.150000X-0.400000X0.150000X-0.400000X0*%
%ADD22RoundRect,0.075000X0.075000X0.500000X-0.075000X0.500000X-0.075000X-0.500000X0.075000X-0.500000X0*%
%ADD23RoundRect,0.150000X0.150000X0.425000X-0.150000X0.425000X-0.150000X-0.425000X0.150000X-0.425000X0*%
%ADD24O,1.000000X2.100000*%
%ADD25O,1.000000X1.800000*%
%ADD26RoundRect,0.135000X-0.185000X0.135000X-0.185000X-0.135000X0.185000X-0.135000X0.185000X0.135000X0*%
%ADD27RoundRect,0.250000X-0.300000X0.275000X-0.300000X-0.275000X0.300000X-0.275000X0.300000X0.275000X0*%
%ADD28RoundRect,0.225000X0.250000X-0.225000X0.250000X0.225000X-0.250000X0.225000X-0.250000X-0.225000X0*%
%ADD29RoundRect,0.225000X-0.225000X-0.250000X0.225000X-0.250000X0.225000X0.250000X-0.225000X0.250000X0*%
%ADD30RoundRect,0.140000X-0.140000X-0.170000X0.140000X-0.170000X0.140000X0.170000X-0.140000X0.170000X0*%
%ADD31R,0.900000X0.800000*%
%ADD32RoundRect,0.225000X0.225000X0.250000X-0.225000X0.250000X-0.225000X-0.250000X0.225000X-0.250000X0*%
%ADD33RoundRect,0.075000X0.075000X-0.700000X0.075000X0.700000X-0.075000X0.700000X-0.075000X-0.700000X0*%
%ADD34RoundRect,0.075000X0.700000X-0.075000X0.700000X0.075000X-0.700000X0.075000X-0.700000X-0.075000X0*%
%ADD35RoundRect,0.225000X-0.250000X0.225000X-0.250000X-0.225000X0.250000X-0.225000X0.250000X0.225000X0*%
%ADD36RoundRect,0.150000X0.150000X-0.512500X0.150000X0.512500X-0.150000X0.512500X-0.150000X-0.512500X0*%
%ADD37RoundRect,0.150000X-0.150000X0.587500X-0.150000X-0.587500X0.150000X-0.587500X0.150000X0.587500X0*%
G04 APERTURE END LIST*
D10*
%TO.C,D1*%
X136906000Y-89730000D03*
X136906000Y-87630000D03*
%TD*%
D11*
%TO.C,R16*%
X137160000Y-53469000D03*
X137160000Y-52449000D03*
%TD*%
D12*
%TO.C,C6*%
X133068000Y-71374000D03*
X132108000Y-71374000D03*
%TD*%
D13*
%TO.C,R21*%
X134237000Y-71374000D03*
X135257000Y-71374000D03*
%TD*%
D14*
%TO.C,SW1*%
X135104000Y-62186000D03*
X135104000Y-69386000D03*
X132104000Y-62186000D03*
X132104000Y-69386000D03*
%TD*%
%TO.C,SW2*%
X135104000Y-52407000D03*
X135104000Y-59607000D03*
X132104000Y-52407000D03*
X132104000Y-59607000D03*
%TD*%
D15*
%TO.C,FB1*%
X151384000Y-85829000D03*
X151384000Y-84859000D03*
%TD*%
D16*
%TO.C,Q1*%
X139700000Y-87630000D03*
X139700000Y-89530000D03*
X141575000Y-88580000D03*
%TD*%
D17*
%TO.C,D5*%
X150622000Y-54076500D03*
X150622000Y-55651500D03*
%TD*%
D18*
%TO.C,C22*%
X137033000Y-83030000D03*
X137033000Y-82070000D03*
%TD*%
D19*
%TO.C,R10*%
X134241000Y-73025000D03*
X133221000Y-73025000D03*
%TD*%
D20*
%TO.C,C19*%
X149098000Y-59718000D03*
X149098000Y-60678000D03*
%TD*%
D21*
%TO.C,J10*%
X147218000Y-57782000D03*
X146418000Y-57782000D03*
D22*
X145268000Y-57782000D03*
X144268000Y-57782000D03*
X143768000Y-57782000D03*
X142768000Y-57782000D03*
D23*
X141618000Y-57782000D03*
D21*
X140818000Y-57782000D03*
X140818000Y-57782000D03*
D23*
X141618000Y-57782000D03*
D22*
X142268000Y-57782000D03*
X143268000Y-57782000D03*
X144768000Y-57782000D03*
X145768000Y-57782000D03*
D21*
X146418000Y-57782000D03*
X147218000Y-57782000D03*
D24*
X148338000Y-57207000D03*
D25*
X148338000Y-53027000D03*
D24*
X139698000Y-57207000D03*
D25*
X139698000Y-53027000D03*
%TD*%
D26*
%TO.C,R23*%
X142240000Y-59688000D03*
X142240000Y-60708000D03*
%TD*%
D27*
%TO.C,X2*%
X135255000Y-83149000D03*
X135255000Y-84999000D03*
%TD*%
D28*
%TO.C,C5*%
X140081000Y-67069000D03*
X140081000Y-65519000D03*
%TD*%
D26*
%TO.C,R19*%
X142748000Y-65276000D03*
X142748000Y-66296000D03*
%TD*%
D19*
%TO.C,R14*%
X152569000Y-72898000D03*
X151549000Y-72898000D03*
%TD*%
D13*
%TO.C,R11*%
X151549000Y-73914000D03*
X152569000Y-73914000D03*
%TD*%
D11*
%TO.C,R7*%
X153720800Y-58716000D03*
X153720800Y-57696000D03*
%TD*%
%TO.C,R8*%
X152146000Y-58716000D03*
X152146000Y-57696000D03*
%TD*%
D28*
%TO.C,C1*%
X150241000Y-90261500D03*
X150241000Y-88711500D03*
%TD*%
D17*
%TO.C,D2*%
X155194000Y-54065700D03*
X155194000Y-55640700D03*
%TD*%
D19*
%TO.C,R15*%
X152569000Y-71882000D03*
X151549000Y-71882000D03*
%TD*%
D29*
%TO.C,C4*%
X151625000Y-70231000D03*
X153175000Y-70231000D03*
%TD*%
D11*
%TO.C,R9*%
X150571200Y-58716000D03*
X150571200Y-57696000D03*
%TD*%
%TO.C,R3*%
X143256000Y-60708000D03*
X143256000Y-59688000D03*
%TD*%
D30*
%TO.C,C15*%
X150309000Y-68961000D03*
X151269000Y-68961000D03*
%TD*%
D31*
%TO.C,X1*%
X141415000Y-83703000D03*
X143065000Y-83703000D03*
X143065000Y-84953000D03*
X141415000Y-84953000D03*
%TD*%
D28*
%TO.C,C2*%
X149606000Y-86119000D03*
X149606000Y-84569000D03*
%TD*%
D20*
%TO.C,C8*%
X139700000Y-84610000D03*
X139700000Y-85570000D03*
%TD*%
D13*
%TO.C,R13*%
X134023000Y-76200000D03*
X135043000Y-76200000D03*
%TD*%
D17*
%TO.C,D3*%
X153708800Y-54076500D03*
X153708800Y-55651500D03*
%TD*%
D30*
%TO.C,C12*%
X151325000Y-77724000D03*
X152285000Y-77724000D03*
%TD*%
D32*
%TO.C,C16*%
X135308000Y-80264000D03*
X133758000Y-80264000D03*
%TD*%
D18*
%TO.C,C23*%
X147066000Y-60678000D03*
X147066000Y-59718000D03*
%TD*%
D20*
%TO.C,C7*%
X144780000Y-83848000D03*
X144780000Y-84808000D03*
%TD*%
D11*
%TO.C,R1*%
X138684000Y-86362000D03*
X138684000Y-85342000D03*
%TD*%
D33*
%TO.C,U1*%
X139760000Y-80605000D03*
X140260000Y-80605000D03*
X140760000Y-80605000D03*
X141260000Y-80605000D03*
X141760000Y-80605000D03*
X142260000Y-80605000D03*
X142760000Y-80605000D03*
X143260000Y-80605000D03*
X143760000Y-80605000D03*
X144260000Y-80605000D03*
X144760000Y-80605000D03*
X145260000Y-80605000D03*
X145760000Y-80605000D03*
X146260000Y-80605000D03*
X146760000Y-80605000D03*
X147260000Y-80605000D03*
D34*
X149185000Y-78680000D03*
X149185000Y-78180000D03*
X149185000Y-77680000D03*
X149185000Y-77180000D03*
X149185000Y-76680000D03*
X149185000Y-76180000D03*
X149185000Y-75680000D03*
X149185000Y-75180000D03*
X149185000Y-74680000D03*
X149185000Y-74180000D03*
X149185000Y-73680000D03*
X149185000Y-73180000D03*
X149185000Y-72680000D03*
X149185000Y-72180000D03*
X149185000Y-71680000D03*
X149185000Y-71180000D03*
D33*
X147260000Y-69255000D03*
X146760000Y-69255000D03*
X146260000Y-69255000D03*
X145760000Y-69255000D03*
X145260000Y-69255000D03*
X144760000Y-69255000D03*
X144260000Y-69255000D03*
X143760000Y-69255000D03*
X143260000Y-69255000D03*
X142760000Y-69255000D03*
X142260000Y-69255000D03*
X141760000Y-69255000D03*
X141260000Y-69255000D03*
X140760000Y-69255000D03*
X140260000Y-69255000D03*
X139760000Y-69255000D03*
D34*
X137835000Y-71180000D03*
X137835000Y-71680000D03*
X137835000Y-72180000D03*
X137835000Y-72680000D03*
X137835000Y-73180000D03*
X137835000Y-73680000D03*
X137835000Y-74180000D03*
X137835000Y-74680000D03*
X137835000Y-75180000D03*
X137835000Y-75680000D03*
X137835000Y-76180000D03*
X137835000Y-76680000D03*
X137835000Y-77180000D03*
X137835000Y-77680000D03*
X137835000Y-78180000D03*
X137835000Y-78680000D03*
%TD*%
D19*
%TO.C,R22*%
X135043000Y-77216000D03*
X134023000Y-77216000D03*
%TD*%
D11*
%TO.C,R18*%
X148082000Y-60708000D03*
X148082000Y-59688000D03*
%TD*%
D35*
%TO.C,C17*%
X153416000Y-84569000D03*
X153416000Y-86119000D03*
%TD*%
D26*
%TO.C,R24*%
X145288000Y-59688000D03*
X145288000Y-60708000D03*
%TD*%
D36*
%TO.C,U3*%
X132654000Y-89529500D03*
X133604000Y-89529500D03*
X134554000Y-89529500D03*
X134554000Y-87254500D03*
X132654000Y-87254500D03*
%TD*%
D13*
%TO.C,R12*%
X133475000Y-74803000D03*
X134495000Y-74803000D03*
%TD*%
D37*
%TO.C,U2*%
X154239000Y-88470500D03*
X152339000Y-88470500D03*
X153289000Y-90345500D03*
%TD*%
D17*
%TO.C,D4*%
X152146000Y-54076500D03*
X152146000Y-55651500D03*
%TD*%
D11*
%TO.C,R2*%
X146050000Y-63248000D03*
X146050000Y-62228000D03*
%TD*%
D12*
%TO.C,C13*%
X135013000Y-78740000D03*
X134053000Y-78740000D03*
%TD*%
D30*
%TO.C,C18*%
X151158000Y-81280000D03*
X152118000Y-81280000D03*
%TD*%
D11*
%TO.C,R6*%
X155194000Y-58674000D03*
X155194000Y-57654000D03*
%TD*%
D12*
%TO.C,C11*%
X135481000Y-81661000D03*
X134521000Y-81661000D03*
%TD*%
D20*
%TO.C,C21*%
X137033000Y-84610000D03*
X137033000Y-85570000D03*
%TD*%
D11*
%TO.C,R4*%
X144272000Y-60708000D03*
X144272000Y-59688000D03*
%TD*%
D18*
%TO.C,C14*%
X138557000Y-67282000D03*
X138557000Y-66322000D03*
%TD*%
M02*
