%TF.GenerationSoftware,KiCad,Pcbnew,9.0.4*%
%TF.CreationDate,2025-09-04T16:16:01+01:00*%
%TF.ProjectId,MicroPython,4d696372-6f50-4797-9468-6f6e2e6b6963,rev?*%
%TF.SameCoordinates,Original*%
%TF.FileFunction,Copper,L3,Inr*%
%TF.FilePolarity,Positive*%
%FSLAX46Y46*%
G04 Gerber Fmt 4.6, Leading zero omitted, Abs format (unit mm)*
G04 Created by KiCad (PCBNEW 9.0.4) date 2025-09-04 16:16:01*
%MOMM*%
%LPD*%
G01*
G04 APERTURE LIST*
%TA.AperFunction,ComponentPad*%
%ADD10R,1.700000X1.700000*%
%TD*%
%TA.AperFunction,ComponentPad*%
%ADD11C,1.700000*%
%TD*%
%TA.AperFunction,HeatsinkPad*%
%ADD12O,1.000000X2.100000*%
%TD*%
%TA.AperFunction,HeatsinkPad*%
%ADD13O,1.000000X1.800000*%
%TD*%
%TA.AperFunction,ViaPad*%
%ADD14C,0.550000*%
%TD*%
%TA.AperFunction,Conductor*%
%ADD15C,0.220000*%
%TD*%
%TA.AperFunction,Conductor*%
%ADD16C,0.230000*%
%TD*%
%TA.AperFunction,Conductor*%
%ADD17C,0.250000*%
%TD*%
G04 APERTURE END LIST*
D10*
%TO.N,+3V3*%
%TO.C,J8*%
X154432000Y-66294000D03*
D11*
%TO.N,/PA13-SWDIO*%
X154432000Y-63754000D03*
%TO.N,unconnected-(J8-Pin_3-Pad3)*%
X151892000Y-66294000D03*
%TO.N,/RST-SW*%
X151892000Y-63754000D03*
%TO.N,GND*%
X149352000Y-66294000D03*
%TO.N,/PA14-SWCLCK*%
X149352000Y-63754000D03*
%TD*%
D10*
%TO.N,VBAT*%
%TO.C,J9*%
X144907000Y-89408000D03*
D11*
%TO.N,GND*%
X147447000Y-89408000D03*
%TD*%
D12*
%TO.N,Net-(J10-SHIELD)*%
%TO.C,J10*%
X148338000Y-57207000D03*
D13*
X148338000Y-53027000D03*
D12*
X139698000Y-57207000D03*
D13*
X139698000Y-53027000D03*
%TD*%
D11*
%TO.N,V+*%
%TO.C,J2*%
X129540000Y-90170000D03*
%TO.N,+3V3*%
X129540000Y-87630000D03*
%TO.N,GND*%
X129540000Y-85090000D03*
%TO.N,/RST-SW*%
X129540000Y-82550000D03*
%TO.N,/PC5-X12*%
X129540000Y-80010000D03*
%TO.N,/PC4-X11*%
X129540000Y-77470000D03*
%TO.N,/PB7-SDA-X10*%
X129540000Y-74930000D03*
D10*
%TO.N,/PB6-SCL-X9*%
X129540000Y-72390000D03*
%TD*%
D11*
%TO.N,/PB10-Y9*%
%TO.C,J7*%
X157480000Y-69850000D03*
%TO.N,/PB11-Y10*%
X157480000Y-67310000D03*
%TO.N,/PB0-Y11*%
X157480000Y-64770000D03*
%TO.N,/PB1-Y12*%
X157480000Y-62230000D03*
%TO.N,/RST-SW*%
X157480000Y-59690000D03*
%TO.N,GND*%
X157480000Y-57150000D03*
%TO.N,+3V3*%
X157480000Y-54610000D03*
D10*
%TO.N,V+*%
X157480000Y-52070000D03*
%TD*%
D11*
%TO.N,/PA0-X1*%
%TO.C,J1*%
X157480000Y-90170000D03*
%TO.N,/PA1-X2*%
X157480000Y-87630000D03*
%TO.N,/PA2-X3*%
X157480000Y-85090000D03*
%TO.N,/PA3-X4*%
X157480000Y-82550000D03*
%TO.N,/PA4-X5*%
X157480000Y-80010000D03*
%TO.N,/PA5-X6*%
X157480000Y-77470000D03*
%TO.N,/PA6-X7*%
X157480000Y-74930000D03*
D10*
%TO.N,/PA7-X8*%
X157480000Y-72390000D03*
%TD*%
D11*
%TO.N,/PB15-Y8*%
%TO.C,J6*%
X129540000Y-69850000D03*
%TO.N,/PB14-Y7*%
X129540000Y-67310000D03*
%TO.N,/PB13-Y6*%
X129540000Y-64770000D03*
%TO.N,/PB12-Y5*%
X129540000Y-62230000D03*
%TO.N,/PB9-Y4*%
X129540000Y-59690000D03*
%TO.N,/PB8-Y3*%
X129540000Y-57150000D03*
%TO.N,/PC7-Y2*%
X129540000Y-54610000D03*
D10*
%TO.N,/PC6-Y1*%
X129540000Y-52070000D03*
%TD*%
D14*
%TO.N,GND*%
X144272000Y-66548000D03*
X142748000Y-89535000D03*
X151384000Y-89154000D03*
X152400000Y-85471000D03*
X148971000Y-69088000D03*
X134112000Y-65024000D03*
X147193000Y-55626000D03*
X142240000Y-53213000D03*
X138176000Y-55626000D03*
X145415000Y-51308000D03*
X155956000Y-51181000D03*
X151384000Y-56896000D03*
X152908000Y-56896000D03*
X152654000Y-60071000D03*
X136525000Y-64770000D03*
X155829000Y-82804000D03*
X144145000Y-77470000D03*
X144313795Y-73334172D03*
X140589000Y-73406000D03*
X131064000Y-75946000D03*
X138557000Y-81280000D03*
X140208000Y-86741000D03*
X143510000Y-82042000D03*
X148082000Y-80772000D03*
%TO.N,+3V3*%
X136469832Y-71374000D03*
X137858500Y-69977000D03*
%TO.N,/PB3-SW-X17*%
X135884832Y-54025000D03*
%TO.N,/PB12-Y5*%
X147066000Y-62738000D03*
%TO.N,/PB14-Y7*%
X145542000Y-67310000D03*
%TO.N,/PB1-Y12*%
X148550425Y-61531886D03*
X147395000Y-73025000D03*
%TO.N,/PB9-Y4*%
X138103000Y-60229932D03*
X139179210Y-77748958D03*
%TO.N,/PA0-X1*%
X147779481Y-84660481D03*
%TO.N,/PB3-SW-X17*%
X136161588Y-73329552D03*
%TO.N,/PB13-Y6*%
X145542000Y-66294000D03*
%TO.N,/PB7-SDA-X10*%
X135828439Y-76375025D03*
%TO.N,/PB11-Y10*%
X150839961Y-72078493D03*
%TO.N,/PA1-X2*%
X148082000Y-83947000D03*
%TO.N,/PA4-X5*%
X147701000Y-77089000D03*
%TO.N,/PC4-X11*%
X147701000Y-75565000D03*
%TO.N,/PC6-Y1*%
X145288000Y-68072000D03*
%TO.N,/PB15-Y8*%
X145288000Y-71247000D03*
%TO.N,/PA2-X3*%
X148082000Y-83058000D03*
%TO.N,/PB0-Y11*%
X148082000Y-65659000D03*
X147605750Y-73882250D03*
%TO.N,/PB6-SCL-X9*%
X134498058Y-74041752D03*
%TO.N,/PC5-X12*%
X147170668Y-76095332D03*
%TO.N,/RST-SW*%
X151901061Y-61336341D03*
X140970000Y-62153000D03*
X142760001Y-79121000D03*
%TO.N,/PB8-Y3*%
X138303000Y-57150000D03*
X139255500Y-76898500D03*
%TO.N,/PC7-Y2*%
X143764000Y-67945000D03*
X143764000Y-54610000D03*
%TO.N,/PB10-Y9*%
X150797885Y-72986716D03*
%TO.N,GND*%
X131064000Y-72009000D03*
X141224000Y-59309000D03*
X147828000Y-78182534D03*
X150241000Y-79629000D03*
X152654000Y-74882560D03*
X131445000Y-66548000D03*
X155067000Y-90551000D03*
X152999560Y-81280000D03*
X156083000Y-81026000D03*
X152240277Y-68933576D03*
X130937000Y-51054000D03*
X149653440Y-54102000D03*
X150495000Y-82677000D03*
X147212935Y-58788999D03*
X130810000Y-91186000D03*
X145520531Y-61459723D03*
X154813000Y-85725000D03*
X147066000Y-85344000D03*
X130683000Y-55880000D03*
X145542000Y-65278000D03*
X133143440Y-77216000D03*
X149963280Y-60198000D03*
X131699000Y-68580000D03*
X133604000Y-90678000D03*
X145415000Y-86868000D03*
X156222979Y-63881000D03*
X140347797Y-83698660D03*
X130937000Y-60960000D03*
X139827000Y-64389000D03*
X135298832Y-72812017D03*
X147574000Y-61468000D03*
X139284770Y-78775526D03*
X134366000Y-56007000D03*
X145542000Y-85344000D03*
X130429000Y-81153000D03*
X140081000Y-88646000D03*
X153253560Y-77724000D03*
X131191000Y-64008000D03*
X154813000Y-68580000D03*
%TO.N,+3V3*%
X137858500Y-80014500D03*
X137818720Y-65070720D03*
X151384000Y-78613000D03*
X153289000Y-72771000D03*
X137858500Y-86042500D03*
X142748000Y-64643000D03*
X148349000Y-86119000D03*
X147574000Y-86106000D03*
X137858500Y-67945000D03*
%TO.N,VBUS*%
X146304000Y-87630000D03*
X146177000Y-59817000D03*
%TO.N,/PA13-SWDIO*%
X140716000Y-70612000D03*
%TO.N,/PA14-SWCLCK*%
X137160000Y-63627000D03*
%TO.N,/PA15-TDI*%
X152932544Y-59374640D03*
X153236189Y-71283000D03*
X139610073Y-72031590D03*
%TO.N,/PB4-TRST*%
X151511000Y-74803000D03*
X135509000Y-89789000D03*
X150749000Y-59436000D03*
X135890000Y-74295000D03*
%TO.N,/RST-SW*%
X136746588Y-61760000D03*
%TD*%
D15*
%TO.N,/RST-SW*%
X140577000Y-61760000D02*
X140970000Y-62153000D01*
X136746588Y-61760000D02*
X140577000Y-61760000D01*
%TO.N,/PC5-X12*%
X129540000Y-79883000D02*
X129540000Y-80010000D01*
X133784000Y-75639000D02*
X129540000Y-79883000D01*
X146632000Y-75639000D02*
X133784000Y-75639000D01*
X147088332Y-76095332D02*
X146632000Y-75639000D01*
X147170668Y-76095332D02*
X147088332Y-76095332D01*
%TO.N,/PC4-X11*%
X130683000Y-77470000D02*
X129540000Y-77470000D01*
X145998000Y-75184000D02*
X132969000Y-75184000D01*
X146002000Y-75180000D02*
X145998000Y-75184000D01*
X147316000Y-75180000D02*
X146002000Y-75180000D01*
X132969000Y-75184000D02*
X130683000Y-77470000D01*
X147701000Y-75565000D02*
X147316000Y-75180000D01*
D16*
%TO.N,+3V3*%
X137612832Y-70222668D02*
X137612832Y-70231000D01*
X137612832Y-70231000D02*
X136469832Y-71374000D01*
X137858500Y-69977000D02*
X137612832Y-70222668D01*
D15*
%TO.N,/PB15-Y8*%
X130048000Y-69342000D02*
X129540000Y-69850000D01*
X140336615Y-71247000D02*
X138431615Y-69342000D01*
X138431615Y-69342000D02*
X130048000Y-69342000D01*
X145288000Y-71247000D02*
X140336615Y-71247000D01*
%TO.N,/PA14-SWCLCK*%
X149225000Y-63627000D02*
X149352000Y-63754000D01*
X137160000Y-63627000D02*
X149225000Y-63627000D01*
%TO.N,/PB12-Y5*%
X147066000Y-62738000D02*
X130048000Y-62738000D01*
X130048000Y-62738000D02*
X129540000Y-62230000D01*
%TO.N,/PB14-Y7*%
X145542000Y-67310000D02*
X129540000Y-67310000D01*
%TO.N,/PB1-Y12*%
X148994539Y-61976000D02*
X157226000Y-61976000D01*
X148550425Y-61531886D02*
X148994539Y-61976000D01*
%TO.N,/PB9-Y4*%
X137784249Y-59911181D02*
X129761181Y-59911181D01*
X138103000Y-60229932D02*
X137784249Y-59911181D01*
X129761181Y-59911181D02*
X129540000Y-59690000D01*
%TO.N,/PA0-X1*%
X155321000Y-84709000D02*
X155662000Y-85050000D01*
X155662000Y-85050000D02*
X155662000Y-88871121D01*
X155662000Y-88871121D02*
X156960879Y-90170000D01*
X156960879Y-90170000D02*
X157480000Y-90170000D01*
X147779481Y-84660481D02*
X147828000Y-84709000D01*
X147828000Y-84709000D02*
X155321000Y-84709000D01*
%TO.N,/PB13-Y6*%
X145034000Y-65786000D02*
X130556000Y-65786000D01*
X130556000Y-65786000D02*
X129540000Y-64770000D01*
X145542000Y-66294000D02*
X145034000Y-65786000D01*
%TO.N,/PB11-Y10*%
X157335667Y-67310000D02*
X157023213Y-67622454D01*
X157023213Y-68655787D02*
X153600507Y-72078493D01*
X157023213Y-67622454D02*
X157023213Y-68655787D01*
X153600507Y-72078493D02*
X150839961Y-72078493D01*
X157480000Y-67310000D02*
X157335667Y-67310000D01*
%TO.N,/PA1-X2*%
X156210000Y-84709000D02*
X156210000Y-86785222D01*
X148336000Y-84201000D02*
X155702000Y-84201000D01*
X156210000Y-86785222D02*
X157054778Y-87630000D01*
X148082000Y-83947000D02*
X148336000Y-84201000D01*
X157054778Y-87630000D02*
X157480000Y-87630000D01*
X155702000Y-84201000D02*
X156210000Y-84709000D01*
%TO.N,/PA4-X5*%
X147701000Y-77089000D02*
X154559000Y-77089000D01*
X154559000Y-77089000D02*
X157480000Y-80010000D01*
%TO.N,/PA2-X3*%
X148082000Y-83058000D02*
X148717000Y-83693000D01*
X157328442Y-84938442D02*
X157480000Y-85090000D01*
X156464000Y-83693000D02*
X157328442Y-84557442D01*
X148717000Y-83693000D02*
X156464000Y-83693000D01*
X157328442Y-84557442D02*
X157328442Y-84938442D01*
%TO.N,/RST-SW*%
X140970000Y-62153000D02*
X147878000Y-62153000D01*
X151278000Y-63754000D02*
X151892000Y-63754000D01*
X151901061Y-61336341D02*
X152531402Y-60706000D01*
X150061000Y-62537000D02*
X151278000Y-63754000D01*
X147878000Y-62153000D02*
X148262000Y-62537000D01*
X142760001Y-81775999D02*
X142240000Y-82296000D01*
X156464000Y-60706000D02*
X157480000Y-59690000D01*
X148262000Y-62537000D02*
X150061000Y-62537000D01*
X129794000Y-82296000D02*
X129540000Y-82550000D01*
X152531402Y-60706000D02*
X156464000Y-60706000D01*
X142240000Y-82296000D02*
X129794000Y-82296000D01*
X142760001Y-79121000D02*
X142760001Y-81775999D01*
%TO.N,/PB8-Y3*%
X138303000Y-57150000D02*
X129540000Y-57150000D01*
%TO.N,/PC7-Y2*%
X143764000Y-54610000D02*
X129540000Y-54610000D01*
%TO.N,/PB10-Y9*%
X153924000Y-73406000D02*
X157480000Y-69850000D01*
X150797885Y-72986716D02*
X151217169Y-73406000D01*
X151217169Y-73406000D02*
X153924000Y-73406000D01*
%TO.N,+3V3*%
X142314000Y-65077000D02*
X142748000Y-64643000D01*
X137893720Y-65070720D02*
X137900000Y-65077000D01*
X137818720Y-65070720D02*
X137893720Y-65070720D01*
D17*
X131064000Y-86106000D02*
X129540000Y-87630000D01*
D15*
X137900000Y-65077000D02*
X142314000Y-65077000D01*
D17*
X147574000Y-86106000D02*
X131064000Y-86106000D01*
%TO.N,Net-(J10-SHIELD)*%
X148137000Y-57408000D02*
X148338000Y-57207000D01*
X139698000Y-57207000D02*
X139899000Y-57408000D01*
X139899000Y-57408000D02*
X148137000Y-57408000D01*
D15*
%TO.N,/PA13-SWDIO*%
X154940000Y-63754000D02*
X154432000Y-63754000D01*
X140716000Y-70612000D02*
X154051000Y-70612000D01*
X154051000Y-70612000D02*
X155829000Y-68834000D01*
X155829000Y-68834000D02*
X155829000Y-64643000D01*
X155829000Y-64643000D02*
X154940000Y-63754000D01*
%TO.N,/PA15-TDI*%
X149964410Y-72031590D02*
X150690799Y-71305201D01*
X153213988Y-71305201D02*
X153236189Y-71283000D01*
X139610073Y-72031590D02*
X149964410Y-72031590D01*
X150690799Y-71305201D02*
X153213988Y-71305201D01*
%TO.N,/PB4-TRST*%
X151327000Y-74619000D02*
X151511000Y-74803000D01*
X136214000Y-74619000D02*
X151327000Y-74619000D01*
X135890000Y-74295000D02*
X136214000Y-74619000D01*
%TD*%
%TA.AperFunction,Conductor*%
%TO.N,GND*%
G36*
X135313728Y-76020317D02*
G01*
X135353324Y-76074817D01*
X135353324Y-76142183D01*
X135344057Y-76162998D01*
X135338751Y-76172188D01*
X135302939Y-76305842D01*
X135302939Y-76444207D01*
X135338750Y-76577860D01*
X135375579Y-76641649D01*
X135407934Y-76697690D01*
X135505774Y-76795530D01*
X135625603Y-76864713D01*
X135759256Y-76900525D01*
X135897622Y-76900525D01*
X136031275Y-76864713D01*
X136151104Y-76795530D01*
X136248944Y-76697690D01*
X136318127Y-76577861D01*
X136353939Y-76444208D01*
X136353939Y-76305842D01*
X136318127Y-76172189D01*
X136318126Y-76172188D01*
X136318127Y-76172188D01*
X136312821Y-76162998D01*
X136298816Y-76097105D01*
X136326217Y-76035563D01*
X136384558Y-76001882D01*
X136407219Y-75999500D01*
X146437526Y-75999500D01*
X146445890Y-76002217D01*
X146454577Y-76000842D01*
X146477319Y-76012429D01*
X146501595Y-76020317D01*
X146514601Y-76031425D01*
X146623593Y-76140417D01*
X146651804Y-76189281D01*
X146680979Y-76298167D01*
X146711683Y-76351348D01*
X146750163Y-76417997D01*
X146848003Y-76515837D01*
X146848005Y-76515838D01*
X146967832Y-76585020D01*
X147101485Y-76620832D01*
X147175707Y-76620832D01*
X147239776Y-76641649D01*
X147279372Y-76696149D01*
X147279372Y-76763515D01*
X147270104Y-76784331D01*
X147211312Y-76886161D01*
X147211312Y-76886163D01*
X147175500Y-77019817D01*
X147175500Y-77158182D01*
X147211311Y-77291835D01*
X147264170Y-77383389D01*
X147280495Y-77411665D01*
X147378335Y-77509505D01*
X147498164Y-77578688D01*
X147631817Y-77614500D01*
X147770183Y-77614500D01*
X147903836Y-77578688D01*
X148023665Y-77509505D01*
X148037706Y-77495464D01*
X148051747Y-77481424D01*
X148111770Y-77450842D01*
X148128820Y-77449500D01*
X154364526Y-77449500D01*
X154428595Y-77470317D01*
X154441601Y-77481425D01*
X156432075Y-79471899D01*
X156436067Y-79479735D01*
X156443183Y-79484905D01*
X156451070Y-79509180D01*
X156462658Y-79531923D01*
X156464000Y-79548974D01*
X156464000Y-79558371D01*
X156458665Y-79592054D01*
X156406598Y-79752295D01*
X156379500Y-79923387D01*
X156379500Y-80096612D01*
X156406598Y-80267704D01*
X156458665Y-80427946D01*
X156464000Y-80461629D01*
X156464000Y-82098371D01*
X156458665Y-82132054D01*
X156406598Y-82292295D01*
X156379500Y-82463387D01*
X156379500Y-82636612D01*
X156406598Y-82807704D01*
X156458665Y-82967946D01*
X156464000Y-83001629D01*
X156464000Y-83223500D01*
X156443183Y-83287569D01*
X156388683Y-83327165D01*
X156355000Y-83332500D01*
X148911474Y-83332500D01*
X148847405Y-83311683D01*
X148834399Y-83300575D01*
X148639425Y-83105601D01*
X148608842Y-83045577D01*
X148607500Y-83028526D01*
X148607500Y-82988817D01*
X148571688Y-82855164D01*
X148502506Y-82735337D01*
X148502505Y-82735335D01*
X148404665Y-82637495D01*
X148403134Y-82636611D01*
X148284835Y-82568311D01*
X148151183Y-82532500D01*
X148012817Y-82532500D01*
X147879164Y-82568311D01*
X147759337Y-82637493D01*
X147661493Y-82735337D01*
X147592311Y-82855164D01*
X147556500Y-82988817D01*
X147556500Y-83127182D01*
X147592311Y-83260835D01*
X147661493Y-83380662D01*
X147661495Y-83380665D01*
X147706257Y-83425427D01*
X147736839Y-83485449D01*
X147726301Y-83551985D01*
X147706258Y-83579571D01*
X147662429Y-83623401D01*
X147661493Y-83624337D01*
X147592311Y-83744164D01*
X147556500Y-83877817D01*
X147556500Y-84016183D01*
X147573428Y-84079364D01*
X147569902Y-84146638D01*
X147527506Y-84198990D01*
X147522642Y-84201971D01*
X147456818Y-84239974D01*
X147358974Y-84337818D01*
X147289792Y-84457645D01*
X147253981Y-84591298D01*
X147253981Y-84729663D01*
X147289792Y-84863316D01*
X147358974Y-84983143D01*
X147358976Y-84983146D01*
X147456816Y-85080986D01*
X147576645Y-85150169D01*
X147710298Y-85185981D01*
X147848664Y-85185981D01*
X147982317Y-85150169D01*
X148096747Y-85084102D01*
X148151247Y-85069500D01*
X155126526Y-85069500D01*
X155134890Y-85072217D01*
X155143577Y-85070842D01*
X155166319Y-85082429D01*
X155190595Y-85090317D01*
X155203601Y-85101425D01*
X155269575Y-85167399D01*
X155300158Y-85227423D01*
X155301500Y-85244474D01*
X155301500Y-88823660D01*
X155301500Y-88918582D01*
X155317212Y-88977222D01*
X155326067Y-89010269D01*
X155326066Y-89010269D01*
X155338570Y-89031925D01*
X155373528Y-89092473D01*
X156347576Y-90066521D01*
X156378158Y-90126543D01*
X156379500Y-90143594D01*
X156379500Y-90256612D01*
X156406598Y-90427704D01*
X156458665Y-90587946D01*
X156464000Y-90621629D01*
X156464000Y-91585000D01*
X156443183Y-91649069D01*
X156388683Y-91688665D01*
X156355000Y-91694000D01*
X129649000Y-91694000D01*
X129632580Y-91688665D01*
X129615317Y-91688665D01*
X129601350Y-91678517D01*
X129584931Y-91673183D01*
X129574783Y-91659216D01*
X129560817Y-91649069D01*
X129555482Y-91632649D01*
X129545335Y-91618683D01*
X129540000Y-91585000D01*
X129540000Y-91377312D01*
X129560817Y-91313243D01*
X129615317Y-91273647D01*
X129631942Y-91269655D01*
X129797701Y-91243402D01*
X129962445Y-91189873D01*
X130116788Y-91111232D01*
X130256928Y-91009414D01*
X130379414Y-90886928D01*
X130481232Y-90746788D01*
X130559873Y-90592445D01*
X130613402Y-90427701D01*
X130640500Y-90256611D01*
X130640500Y-90083389D01*
X130613402Y-89912299D01*
X130612005Y-89908000D01*
X130559874Y-89747557D01*
X130545740Y-89719817D01*
X134983500Y-89719817D01*
X134983500Y-89858182D01*
X135019311Y-89991835D01*
X135072170Y-90083389D01*
X135088495Y-90111665D01*
X135186335Y-90209505D01*
X135306164Y-90278688D01*
X135439817Y-90314500D01*
X135578183Y-90314500D01*
X135711836Y-90278688D01*
X135831665Y-90209505D01*
X135929505Y-90111665D01*
X135998688Y-89991836D01*
X136034500Y-89858183D01*
X136034500Y-89719817D01*
X135998688Y-89586164D01*
X135929505Y-89466335D01*
X135831665Y-89368495D01*
X135831662Y-89368493D01*
X135711835Y-89299311D01*
X135578183Y-89263500D01*
X135439817Y-89263500D01*
X135306164Y-89299311D01*
X135186337Y-89368493D01*
X135088493Y-89466337D01*
X135019311Y-89586164D01*
X134983500Y-89719817D01*
X130545740Y-89719817D01*
X130481236Y-89593219D01*
X130481234Y-89593216D01*
X130481232Y-89593212D01*
X130379414Y-89453072D01*
X130256928Y-89330586D01*
X130116788Y-89228768D01*
X130116785Y-89228766D01*
X130116783Y-89228765D01*
X130116780Y-89228763D01*
X129962443Y-89150126D01*
X129797705Y-89096598D01*
X129631948Y-89070345D01*
X129624111Y-89066352D01*
X129615317Y-89066352D01*
X129594666Y-89051348D01*
X129571925Y-89039761D01*
X129567932Y-89031925D01*
X129560817Y-89026756D01*
X129552929Y-89002479D01*
X129541342Y-88979738D01*
X129540000Y-88962687D01*
X129540000Y-88837312D01*
X129560817Y-88773243D01*
X129615317Y-88733647D01*
X129631942Y-88729655D01*
X129797701Y-88703402D01*
X129962445Y-88649873D01*
X130116788Y-88571232D01*
X130168961Y-88533326D01*
X143806500Y-88533326D01*
X143806500Y-90282674D01*
X143821034Y-90355740D01*
X143876399Y-90438601D01*
X143959260Y-90493966D01*
X144032326Y-90508500D01*
X144032330Y-90508500D01*
X145781670Y-90508500D01*
X145781674Y-90508500D01*
X145854740Y-90493966D01*
X145937601Y-90438601D01*
X145992966Y-90355740D01*
X146007500Y-90282674D01*
X146007500Y-89321427D01*
X146347000Y-89321427D01*
X146347000Y-89494572D01*
X146374086Y-89665588D01*
X146427588Y-89830248D01*
X146506196Y-89984524D01*
X146585096Y-90093124D01*
X147016269Y-89661950D01*
X147046901Y-89715007D01*
X147139993Y-89808099D01*
X147193045Y-89838729D01*
X146761874Y-90269901D01*
X146870474Y-90348802D01*
X147024751Y-90427411D01*
X147189411Y-90480913D01*
X147360428Y-90508000D01*
X147533572Y-90508000D01*
X147704588Y-90480913D01*
X147869248Y-90427411D01*
X148023529Y-90348801D01*
X148132124Y-90269902D01*
X148132124Y-90269901D01*
X147700952Y-89838729D01*
X147754007Y-89808099D01*
X147847099Y-89715007D01*
X147877729Y-89661952D01*
X148308901Y-90093124D01*
X148308902Y-90093124D01*
X148387801Y-89984529D01*
X148466411Y-89830248D01*
X148519913Y-89665588D01*
X148547000Y-89494572D01*
X148547000Y-89321427D01*
X148519913Y-89150411D01*
X148466411Y-88985751D01*
X148387802Y-88831474D01*
X148308901Y-88722874D01*
X147877729Y-89154045D01*
X147847099Y-89100993D01*
X147754007Y-89007901D01*
X147700950Y-88977269D01*
X148132124Y-88546096D01*
X148023524Y-88467196D01*
X147869248Y-88388588D01*
X147704588Y-88335086D01*
X147533572Y-88308000D01*
X147360428Y-88308000D01*
X147189411Y-88335086D01*
X147024751Y-88388588D01*
X146870478Y-88467193D01*
X146761874Y-88546096D01*
X147193047Y-88977269D01*
X147139993Y-89007901D01*
X147046901Y-89100993D01*
X147016269Y-89154047D01*
X146585096Y-88722874D01*
X146506193Y-88831478D01*
X146427588Y-88985751D01*
X146374086Y-89150411D01*
X146347000Y-89321427D01*
X146007500Y-89321427D01*
X146007500Y-88533326D01*
X145992966Y-88460260D01*
X145937601Y-88377399D01*
X145854740Y-88322034D01*
X145781674Y-88307500D01*
X144032326Y-88307500D01*
X143959260Y-88322034D01*
X143876399Y-88377399D01*
X143821034Y-88460260D01*
X143806500Y-88533326D01*
X130168961Y-88533326D01*
X130256928Y-88469414D01*
X130379414Y-88346928D01*
X130481232Y-88206788D01*
X130559873Y-88052445D01*
X130613402Y-87887701D01*
X130640500Y-87716611D01*
X130640500Y-87560817D01*
X145778500Y-87560817D01*
X145778500Y-87699182D01*
X145814311Y-87832835D01*
X145814312Y-87832836D01*
X145883495Y-87952665D01*
X145981335Y-88050505D01*
X146101164Y-88119688D01*
X146234817Y-88155500D01*
X146373183Y-88155500D01*
X146506836Y-88119688D01*
X146626665Y-88050505D01*
X146724505Y-87952665D01*
X146793688Y-87832836D01*
X146829500Y-87699183D01*
X146829500Y-87560817D01*
X146793688Y-87427164D01*
X146724505Y-87307335D01*
X146626665Y-87209495D01*
X146623305Y-87207555D01*
X146506835Y-87140311D01*
X146373183Y-87104500D01*
X146234817Y-87104500D01*
X146101164Y-87140311D01*
X145981337Y-87209493D01*
X145883493Y-87307337D01*
X145814311Y-87427164D01*
X145778500Y-87560817D01*
X130640500Y-87560817D01*
X130640500Y-87543389D01*
X130613402Y-87372299D01*
X130564232Y-87220970D01*
X130564232Y-87153606D01*
X130590820Y-87110215D01*
X131187612Y-86513425D01*
X131247636Y-86482842D01*
X131264687Y-86481500D01*
X137538662Y-86481500D01*
X137593161Y-86496103D01*
X137655662Y-86532187D01*
X137655664Y-86532188D01*
X137789317Y-86568000D01*
X137927683Y-86568000D01*
X138061336Y-86532188D01*
X138061338Y-86532187D01*
X138123839Y-86496103D01*
X138178338Y-86481500D01*
X147161181Y-86481500D01*
X147225250Y-86502317D01*
X147238249Y-86513419D01*
X147251335Y-86526505D01*
X147371164Y-86595688D01*
X147504817Y-86631500D01*
X147643183Y-86631500D01*
X147776836Y-86595688D01*
X147896665Y-86526505D01*
X147896667Y-86526502D01*
X147898196Y-86525620D01*
X147964090Y-86511613D01*
X148019728Y-86536384D01*
X148020670Y-86535158D01*
X148026334Y-86539504D01*
X148026335Y-86539505D01*
X148146164Y-86608688D01*
X148279817Y-86644500D01*
X148418183Y-86644500D01*
X148551836Y-86608688D01*
X148671665Y-86539505D01*
X148769505Y-86441665D01*
X148838688Y-86321836D01*
X148874500Y-86188183D01*
X148874500Y-86049817D01*
X148838688Y-85916164D01*
X148769505Y-85796335D01*
X148671665Y-85698495D01*
X148671662Y-85698493D01*
X148551835Y-85629311D01*
X148418183Y-85593500D01*
X148279817Y-85593500D01*
X148146164Y-85629311D01*
X148024802Y-85699380D01*
X147958908Y-85713386D01*
X147903271Y-85688614D01*
X147902330Y-85689842D01*
X147896665Y-85685495D01*
X147776835Y-85616311D01*
X147643183Y-85580500D01*
X147504817Y-85580500D01*
X147371164Y-85616311D01*
X147251337Y-85685493D01*
X147251335Y-85685494D01*
X147251335Y-85685495D01*
X147238253Y-85698576D01*
X147178232Y-85729158D01*
X147161181Y-85730500D01*
X138334819Y-85730500D01*
X138270750Y-85709683D01*
X138257750Y-85698580D01*
X138181165Y-85621995D01*
X138171320Y-85616311D01*
X138061335Y-85552811D01*
X137927683Y-85517000D01*
X137789317Y-85517000D01*
X137655664Y-85552811D01*
X137535837Y-85621993D01*
X137535835Y-85621994D01*
X137535835Y-85621995D01*
X137459253Y-85698576D01*
X137399232Y-85729158D01*
X137382181Y-85730500D01*
X131014560Y-85730500D01*
X130966812Y-85743294D01*
X130966813Y-85743295D01*
X130919061Y-85756090D01*
X130833437Y-85805525D01*
X130833436Y-85805525D01*
X130833437Y-85805526D01*
X130059785Y-86579176D01*
X129999761Y-86609759D01*
X129949027Y-86605766D01*
X129797705Y-86556598D01*
X129631948Y-86530345D01*
X129624111Y-86526352D01*
X129615317Y-86526352D01*
X129594666Y-86511348D01*
X129571925Y-86499761D01*
X129567932Y-86491925D01*
X129560817Y-86486756D01*
X129552929Y-86462479D01*
X129541342Y-86439738D01*
X129540000Y-86422687D01*
X129540000Y-86296806D01*
X129560817Y-86232737D01*
X129615317Y-86193141D01*
X129631949Y-86189148D01*
X129797587Y-86162913D01*
X129962248Y-86109411D01*
X130116529Y-86030801D01*
X130225124Y-85951902D01*
X130225124Y-85951901D01*
X129793953Y-85520729D01*
X129847007Y-85490099D01*
X129940099Y-85397007D01*
X129970729Y-85343952D01*
X130401901Y-85775124D01*
X130401902Y-85775124D01*
X130480801Y-85666529D01*
X130559411Y-85512248D01*
X130572813Y-85471000D01*
X140716000Y-85471000D01*
X140716001Y-85471000D01*
X143763999Y-85471000D01*
X143764000Y-85471000D01*
X143764000Y-83058000D01*
X140716000Y-83058000D01*
X140716000Y-85471000D01*
X130572813Y-85471000D01*
X130612913Y-85347588D01*
X130640000Y-85176572D01*
X130640000Y-85003427D01*
X130612913Y-84832411D01*
X130559411Y-84667751D01*
X130480802Y-84513474D01*
X130401901Y-84404874D01*
X129970729Y-84836045D01*
X129940099Y-84782993D01*
X129847007Y-84689901D01*
X129793951Y-84659269D01*
X130225124Y-84228096D01*
X130116524Y-84149196D01*
X129962248Y-84070588D01*
X129797588Y-84017086D01*
X129631948Y-83990851D01*
X129624111Y-83986858D01*
X129615317Y-83986858D01*
X129594666Y-83971854D01*
X129571925Y-83960267D01*
X129567932Y-83952431D01*
X129560817Y-83947262D01*
X129552929Y-83922985D01*
X129541342Y-83900244D01*
X129540000Y-83883193D01*
X129540000Y-83757312D01*
X129560817Y-83693243D01*
X129615317Y-83653647D01*
X129631942Y-83649655D01*
X129797701Y-83623402D01*
X129962445Y-83569873D01*
X130116788Y-83491232D01*
X130256928Y-83389414D01*
X130379414Y-83266928D01*
X130481232Y-83126788D01*
X130559873Y-82972445D01*
X130613402Y-82807701D01*
X130622787Y-82748448D01*
X130653371Y-82688425D01*
X130713394Y-82657842D01*
X130730445Y-82656500D01*
X142287461Y-82656500D01*
X142379148Y-82631933D01*
X142461352Y-82584472D01*
X143048473Y-81997351D01*
X143095934Y-81915147D01*
X143120501Y-81823460D01*
X143120501Y-81728538D01*
X143120501Y-79548819D01*
X143141318Y-79484750D01*
X143152420Y-79471750D01*
X143180506Y-79443665D01*
X143249689Y-79323836D01*
X143285501Y-79190183D01*
X143285501Y-79051817D01*
X143249689Y-78918164D01*
X143180506Y-78798335D01*
X143082666Y-78700495D01*
X143042512Y-78677312D01*
X142962836Y-78631311D01*
X142829184Y-78595500D01*
X142690818Y-78595500D01*
X142557165Y-78631311D01*
X142437338Y-78700493D01*
X142339494Y-78798337D01*
X142270312Y-78918164D01*
X142234501Y-79051817D01*
X142234501Y-79190182D01*
X142270312Y-79323835D01*
X142270313Y-79323836D01*
X142339496Y-79443665D01*
X142367577Y-79471746D01*
X142398159Y-79531768D01*
X142399501Y-79548819D01*
X142399501Y-81581525D01*
X142378684Y-81645594D01*
X142367576Y-81658600D01*
X142122601Y-81903575D01*
X142062577Y-81934158D01*
X142045526Y-81935500D01*
X130509371Y-81935500D01*
X130445302Y-81914683D01*
X130421189Y-81890569D01*
X130379421Y-81833081D01*
X130379415Y-81833074D01*
X130379414Y-81833072D01*
X130256928Y-81710586D01*
X130116788Y-81608768D01*
X130116785Y-81608766D01*
X130116783Y-81608765D01*
X130116780Y-81608763D01*
X129962443Y-81530126D01*
X129797705Y-81476598D01*
X129631948Y-81450345D01*
X129624111Y-81446352D01*
X129615317Y-81446352D01*
X129594666Y-81431348D01*
X129571925Y-81419761D01*
X129567932Y-81411925D01*
X129560817Y-81406756D01*
X129552929Y-81382479D01*
X129541342Y-81359738D01*
X129540000Y-81342687D01*
X129540000Y-81217312D01*
X129560817Y-81153243D01*
X129615317Y-81113647D01*
X129631942Y-81109655D01*
X129797701Y-81083402D01*
X129962445Y-81029873D01*
X130116788Y-80951232D01*
X130256928Y-80849414D01*
X130379414Y-80726928D01*
X130481232Y-80586788D01*
X130559873Y-80432445D01*
X130613402Y-80267701D01*
X130640500Y-80096611D01*
X130640500Y-79945317D01*
X137333000Y-79945317D01*
X137333000Y-80083682D01*
X137368811Y-80217335D01*
X137437993Y-80337162D01*
X137437995Y-80337165D01*
X137535835Y-80435005D01*
X137655664Y-80504188D01*
X137789317Y-80540000D01*
X137927683Y-80540000D01*
X138061336Y-80504188D01*
X138181165Y-80435005D01*
X138279005Y-80337165D01*
X138348188Y-80217336D01*
X138384000Y-80083683D01*
X138384000Y-79945317D01*
X138348188Y-79811664D01*
X138279005Y-79691835D01*
X138181165Y-79593995D01*
X138181162Y-79593993D01*
X138061335Y-79524811D01*
X137927683Y-79489000D01*
X137789317Y-79489000D01*
X137655664Y-79524811D01*
X137535837Y-79593993D01*
X137437993Y-79691837D01*
X137368811Y-79811664D01*
X137333000Y-79945317D01*
X130640500Y-79945317D01*
X130640500Y-79923389D01*
X130613402Y-79752299D01*
X130559873Y-79587555D01*
X130523388Y-79515949D01*
X130512850Y-79449412D01*
X130543431Y-79389391D01*
X131389005Y-78543817D01*
X150858500Y-78543817D01*
X150858500Y-78682182D01*
X150894311Y-78815835D01*
X150953391Y-78918164D01*
X150963495Y-78935665D01*
X151061335Y-79033505D01*
X151181164Y-79102688D01*
X151314817Y-79138500D01*
X151453183Y-79138500D01*
X151586836Y-79102688D01*
X151706665Y-79033505D01*
X151804505Y-78935665D01*
X151873688Y-78815836D01*
X151909500Y-78682183D01*
X151909500Y-78543817D01*
X151873688Y-78410164D01*
X151804505Y-78290335D01*
X151706665Y-78192495D01*
X151697023Y-78186928D01*
X151586835Y-78123311D01*
X151453183Y-78087500D01*
X151314817Y-78087500D01*
X151181164Y-78123311D01*
X151061337Y-78192493D01*
X150963493Y-78290337D01*
X150894311Y-78410164D01*
X150858500Y-78543817D01*
X131389005Y-78543817D01*
X132253048Y-77679775D01*
X138653710Y-77679775D01*
X138653710Y-77818140D01*
X138689521Y-77951793D01*
X138758703Y-78071620D01*
X138758705Y-78071623D01*
X138856545Y-78169463D01*
X138976374Y-78238646D01*
X139110027Y-78274458D01*
X139248393Y-78274458D01*
X139382046Y-78238646D01*
X139501875Y-78169463D01*
X139599715Y-78071623D01*
X139668898Y-77951794D01*
X139704710Y-77818141D01*
X139704710Y-77679775D01*
X139668898Y-77546122D01*
X139599715Y-77426293D01*
X139599714Y-77426292D01*
X139596143Y-77420106D01*
X139598295Y-77418863D01*
X139579481Y-77365719D01*
X139598619Y-77301129D01*
X139611365Y-77285804D01*
X139676005Y-77221165D01*
X139745188Y-77101336D01*
X139781000Y-76967683D01*
X139781000Y-76829317D01*
X139745188Y-76695664D01*
X139676005Y-76575835D01*
X139578165Y-76477995D01*
X139578162Y-76477993D01*
X139458335Y-76408811D01*
X139324683Y-76373000D01*
X139186317Y-76373000D01*
X139052664Y-76408811D01*
X138932837Y-76477993D01*
X138834993Y-76575837D01*
X138765811Y-76695664D01*
X138730000Y-76829317D01*
X138730000Y-76967682D01*
X138765811Y-77101335D01*
X138838567Y-77227352D01*
X138836414Y-77228594D01*
X138855228Y-77281744D01*
X138836087Y-77346333D01*
X138823340Y-77361657D01*
X138758704Y-77426292D01*
X138689521Y-77546122D01*
X138653710Y-77679775D01*
X132253048Y-77679775D01*
X133901399Y-76031425D01*
X133961423Y-76000842D01*
X133978474Y-75999500D01*
X135249659Y-75999500D01*
X135313728Y-76020317D01*
G37*
%TD.AperFunction*%
%TA.AperFunction,Conductor*%
G36*
X156319985Y-71626353D02*
G01*
X156367620Y-71673988D01*
X156379500Y-71723473D01*
X156379500Y-73264674D01*
X156388393Y-73309381D01*
X156394034Y-73337741D01*
X156417528Y-73372902D01*
X156445630Y-73414961D01*
X156464000Y-73475516D01*
X156464000Y-74478371D01*
X156458665Y-74512054D01*
X156406598Y-74672295D01*
X156379500Y-74843387D01*
X156379500Y-75016612D01*
X156406598Y-75187704D01*
X156458665Y-75347946D01*
X156464000Y-75381629D01*
X156464000Y-77018371D01*
X156458665Y-77052054D01*
X156406598Y-77212295D01*
X156379500Y-77383387D01*
X156379500Y-77556612D01*
X156406598Y-77727704D01*
X156458665Y-77887946D01*
X156464000Y-77921629D01*
X156464000Y-78221026D01*
X156443183Y-78285095D01*
X156388683Y-78324691D01*
X156321317Y-78324691D01*
X156277925Y-78298101D01*
X155536435Y-77556611D01*
X154780352Y-76800528D01*
X154698148Y-76753067D01*
X154606461Y-76728500D01*
X148128820Y-76728500D01*
X148064751Y-76707683D01*
X148051747Y-76696576D01*
X148023665Y-76668495D01*
X147903835Y-76599311D01*
X147770183Y-76563500D01*
X147695961Y-76563500D01*
X147631892Y-76542683D01*
X147592296Y-76488183D01*
X147592296Y-76420817D01*
X147601564Y-76400001D01*
X147660355Y-76298170D01*
X147660355Y-76298169D01*
X147660356Y-76298168D01*
X147695521Y-76166926D01*
X147732211Y-76110430D01*
X147772594Y-76089853D01*
X147903836Y-76054688D01*
X148023665Y-75985505D01*
X148121505Y-75887665D01*
X148190688Y-75767836D01*
X148226500Y-75634183D01*
X148226500Y-75495817D01*
X148190688Y-75362164D01*
X148121505Y-75242335D01*
X148044742Y-75165572D01*
X148014161Y-75105551D01*
X148024699Y-75039015D01*
X148072334Y-74991380D01*
X148121819Y-74979500D01*
X150943175Y-74979500D01*
X151007244Y-75000317D01*
X151037572Y-75034000D01*
X151078882Y-75105551D01*
X151090495Y-75125665D01*
X151188335Y-75223505D01*
X151308164Y-75292688D01*
X151441817Y-75328500D01*
X151580183Y-75328500D01*
X151713836Y-75292688D01*
X151833665Y-75223505D01*
X151931505Y-75125665D01*
X152000688Y-75005836D01*
X152036500Y-74872183D01*
X152036500Y-74733817D01*
X152000688Y-74600164D01*
X151931505Y-74480335D01*
X151833665Y-74382495D01*
X151801946Y-74364182D01*
X151713835Y-74313311D01*
X151580183Y-74277500D01*
X151459721Y-74277500D01*
X151431510Y-74273786D01*
X151374461Y-74258500D01*
X148184111Y-74258500D01*
X148120042Y-74237683D01*
X148080446Y-74183183D01*
X148080446Y-74115817D01*
X148089714Y-74095000D01*
X148095438Y-74085086D01*
X148131250Y-73951433D01*
X148131250Y-73813067D01*
X148095438Y-73679414D01*
X148026255Y-73559585D01*
X147928415Y-73461745D01*
X147928412Y-73461743D01*
X147928411Y-73461742D01*
X147888730Y-73438832D01*
X147843654Y-73388770D01*
X147836613Y-73321773D01*
X147848835Y-73289936D01*
X147884686Y-73227840D01*
X147884686Y-73227839D01*
X147884688Y-73227836D01*
X147920500Y-73094183D01*
X147920500Y-72955817D01*
X147884688Y-72822164D01*
X147815505Y-72702335D01*
X147717665Y-72604495D01*
X147702063Y-72595487D01*
X147656986Y-72545424D01*
X147649945Y-72478427D01*
X147683628Y-72420087D01*
X147745170Y-72392687D01*
X147756563Y-72392090D01*
X150011871Y-72392090D01*
X150103558Y-72367523D01*
X150185762Y-72320062D01*
X150203788Y-72302035D01*
X150226848Y-72290284D01*
X150247893Y-72275215D01*
X150256308Y-72275272D01*
X150263809Y-72271451D01*
X150289377Y-72275500D01*
X150315257Y-72275678D01*
X150321223Y-72280543D01*
X150330346Y-72281988D01*
X150369484Y-72315648D01*
X150372596Y-72319993D01*
X150419456Y-72401158D01*
X150459122Y-72440824D01*
X150464336Y-72448105D01*
X150471947Y-72472090D01*
X150483373Y-72494515D01*
X150481938Y-72503574D01*
X150484712Y-72512315D01*
X150476771Y-72536193D01*
X150472835Y-72561051D01*
X150464853Y-72572036D01*
X150463456Y-72576239D01*
X150460004Y-72578710D01*
X150452790Y-72588640D01*
X150377379Y-72664050D01*
X150308196Y-72783880D01*
X150272385Y-72917533D01*
X150272385Y-73055898D01*
X150308196Y-73189551D01*
X150366153Y-73289936D01*
X150377380Y-73309381D01*
X150475220Y-73407221D01*
X150595049Y-73476404D01*
X150728702Y-73512216D01*
X150768411Y-73512216D01*
X150832480Y-73533033D01*
X150845486Y-73544141D01*
X150928697Y-73627352D01*
X150928696Y-73627352D01*
X150980756Y-73679411D01*
X150995817Y-73694472D01*
X151078021Y-73741933D01*
X151169708Y-73766500D01*
X153971461Y-73766500D01*
X154063148Y-73741933D01*
X154145352Y-73694472D01*
X156193425Y-71646397D01*
X156253449Y-71615815D01*
X156319985Y-71626353D01*
G37*
%TD.AperFunction*%
%TA.AperFunction,Conductor*%
G36*
X137310032Y-69723317D02*
G01*
X137349628Y-69777817D01*
X137351249Y-69839711D01*
X137333000Y-69907817D01*
X137333000Y-69947145D01*
X137318389Y-70001658D01*
X137316147Y-70005540D01*
X137298833Y-70028102D01*
X136510362Y-70816575D01*
X136450338Y-70847158D01*
X136433287Y-70848500D01*
X136400649Y-70848500D01*
X136266996Y-70884311D01*
X136147169Y-70953493D01*
X136049325Y-71051337D01*
X135980143Y-71171164D01*
X135948436Y-71289500D01*
X135944332Y-71304817D01*
X135944332Y-71443183D01*
X135946115Y-71449836D01*
X135980143Y-71576835D01*
X136034561Y-71671090D01*
X136049327Y-71696665D01*
X136147167Y-71794505D01*
X136266996Y-71863688D01*
X136400649Y-71899500D01*
X136539015Y-71899500D01*
X136672668Y-71863688D01*
X136792497Y-71794505D01*
X136890337Y-71696665D01*
X136959520Y-71576836D01*
X136995332Y-71443183D01*
X136995332Y-71410545D01*
X137016149Y-71346476D01*
X137027257Y-71333470D01*
X137826302Y-70534425D01*
X137886326Y-70503842D01*
X137903377Y-70502500D01*
X137927683Y-70502500D01*
X138061336Y-70466688D01*
X138181165Y-70397505D01*
X138279005Y-70299665D01*
X138348188Y-70179836D01*
X138384000Y-70046183D01*
X138384000Y-70046182D01*
X138385849Y-70039282D01*
X138388762Y-70040062D01*
X138412275Y-69990723D01*
X138471466Y-69958558D01*
X138538258Y-69967328D01*
X138568442Y-69988651D01*
X139958057Y-71378266D01*
X139988640Y-71438290D01*
X139978102Y-71504826D01*
X139930467Y-71552461D01*
X139863931Y-71562999D01*
X139826484Y-71549739D01*
X139812909Y-71541902D01*
X139679256Y-71506090D01*
X139540890Y-71506090D01*
X139407237Y-71541901D01*
X139287410Y-71611083D01*
X139189566Y-71708927D01*
X139120384Y-71828754D01*
X139084573Y-71962407D01*
X139084573Y-72100772D01*
X139120384Y-72234425D01*
X139189566Y-72354252D01*
X139189568Y-72354255D01*
X139287408Y-72452095D01*
X139407237Y-72521278D01*
X139540890Y-72557090D01*
X139679256Y-72557090D01*
X139812909Y-72521278D01*
X139932738Y-72452095D01*
X139946779Y-72438054D01*
X139960820Y-72424014D01*
X140020843Y-72393432D01*
X140037893Y-72392090D01*
X147033437Y-72392090D01*
X147097506Y-72412907D01*
X147137102Y-72467407D01*
X147137102Y-72534773D01*
X147097506Y-72589273D01*
X147087937Y-72595487D01*
X147072337Y-72604493D01*
X146974493Y-72702337D01*
X146905311Y-72822164D01*
X146869500Y-72955817D01*
X146869500Y-73094182D01*
X146905311Y-73227835D01*
X146926578Y-73264670D01*
X146974495Y-73347665D01*
X147072335Y-73445505D01*
X147072337Y-73445506D01*
X147112018Y-73468416D01*
X147157094Y-73518479D01*
X147164136Y-73585475D01*
X147151915Y-73617312D01*
X147116062Y-73679411D01*
X147116062Y-73679413D01*
X147080250Y-73813067D01*
X147080250Y-73951432D01*
X147116061Y-74085085D01*
X147121786Y-74095000D01*
X147135792Y-74160893D01*
X147108392Y-74222435D01*
X147050052Y-74256118D01*
X147027389Y-74258500D01*
X136507896Y-74258500D01*
X136443827Y-74237683D01*
X136404231Y-74183183D01*
X136402610Y-74177711D01*
X136379688Y-74092164D01*
X136311725Y-73974448D01*
X136297719Y-73908554D01*
X136325119Y-73847013D01*
X136358564Y-73823379D01*
X136358237Y-73822812D01*
X136364418Y-73819242D01*
X136364420Y-73819240D01*
X136364424Y-73819240D01*
X136484253Y-73750057D01*
X136582093Y-73652217D01*
X136651276Y-73532388D01*
X136687088Y-73398735D01*
X136687088Y-73260369D01*
X136651276Y-73126716D01*
X136582093Y-73006887D01*
X136484253Y-72909047D01*
X136484250Y-72909045D01*
X136364423Y-72839863D01*
X136230771Y-72804052D01*
X136092405Y-72804052D01*
X135958752Y-72839863D01*
X135838925Y-72909045D01*
X135741081Y-73006889D01*
X135671899Y-73126716D01*
X135636088Y-73260369D01*
X135636088Y-73398734D01*
X135671899Y-73532387D01*
X135739862Y-73650103D01*
X135753868Y-73715997D01*
X135726467Y-73777539D01*
X135693024Y-73801175D01*
X135693351Y-73801740D01*
X135687205Y-73805288D01*
X135687183Y-73805304D01*
X135687165Y-73805311D01*
X135567337Y-73874493D01*
X135469493Y-73972337D01*
X135400311Y-74092164D01*
X135364500Y-74225817D01*
X135364500Y-74364182D01*
X135400311Y-74497835D01*
X135419713Y-74531440D01*
X135469495Y-74617665D01*
X135489257Y-74637427D01*
X135519839Y-74697449D01*
X135509301Y-74763985D01*
X135461666Y-74811620D01*
X135412181Y-74823500D01*
X132921539Y-74823500D01*
X132829851Y-74848067D01*
X132747649Y-74895527D01*
X130678023Y-76965151D01*
X130617999Y-76995734D01*
X130551463Y-76985196D01*
X130503829Y-76937562D01*
X130481232Y-76893212D01*
X130379414Y-76753072D01*
X130256928Y-76630586D01*
X130116788Y-76528768D01*
X130116785Y-76528766D01*
X130116783Y-76528765D01*
X130116780Y-76528763D01*
X129962443Y-76450126D01*
X129797705Y-76396598D01*
X129631948Y-76370345D01*
X129624111Y-76366352D01*
X129615317Y-76366352D01*
X129594666Y-76351348D01*
X129571925Y-76339761D01*
X129567932Y-76331925D01*
X129560817Y-76326756D01*
X129552929Y-76302479D01*
X129541342Y-76279738D01*
X129540000Y-76262687D01*
X129540000Y-76137312D01*
X129560817Y-76073243D01*
X129615317Y-76033647D01*
X129631942Y-76029655D01*
X129797701Y-76003402D01*
X129962445Y-75949873D01*
X130116788Y-75871232D01*
X130256928Y-75769414D01*
X130379414Y-75646928D01*
X130481232Y-75506788D01*
X130559873Y-75352445D01*
X130613402Y-75187701D01*
X130640500Y-75016611D01*
X130640500Y-74843389D01*
X130613402Y-74672299D01*
X130559873Y-74507555D01*
X130517378Y-74424153D01*
X130481236Y-74353219D01*
X130481234Y-74353216D01*
X130481232Y-74353212D01*
X130379414Y-74213072D01*
X130256928Y-74090586D01*
X130116788Y-73988768D01*
X130116785Y-73988766D01*
X130116783Y-73988765D01*
X130116780Y-73988763D01*
X130084997Y-73972569D01*
X133972558Y-73972569D01*
X133972558Y-74110934D01*
X134008369Y-74244587D01*
X134071084Y-74353212D01*
X134077553Y-74364417D01*
X134175393Y-74462257D01*
X134295222Y-74531440D01*
X134428875Y-74567252D01*
X134567241Y-74567252D01*
X134700894Y-74531440D01*
X134820723Y-74462257D01*
X134918563Y-74364417D01*
X134987746Y-74244588D01*
X135023558Y-74110935D01*
X135023558Y-73972569D01*
X134987746Y-73838916D01*
X134918563Y-73719087D01*
X134820723Y-73621247D01*
X134820720Y-73621245D01*
X134700893Y-73552063D01*
X134567241Y-73516252D01*
X134428875Y-73516252D01*
X134295222Y-73552063D01*
X134175395Y-73621245D01*
X134077551Y-73719089D01*
X134008369Y-73838916D01*
X133972558Y-73972569D01*
X130084997Y-73972569D01*
X129962443Y-73910126D01*
X129797705Y-73856598D01*
X129631948Y-73830345D01*
X129624111Y-73826352D01*
X129615317Y-73826352D01*
X129594666Y-73811348D01*
X129571925Y-73799761D01*
X129567932Y-73791925D01*
X129560817Y-73786756D01*
X129552929Y-73762479D01*
X129541342Y-73739738D01*
X129540000Y-73722687D01*
X129540000Y-73599500D01*
X129560817Y-73535431D01*
X129615317Y-73495835D01*
X129649000Y-73490500D01*
X130414670Y-73490500D01*
X130414674Y-73490500D01*
X130487740Y-73475966D01*
X130570601Y-73420601D01*
X130625966Y-73337740D01*
X130640500Y-73264674D01*
X130640500Y-71515326D01*
X130625966Y-71442260D01*
X130570601Y-71359399D01*
X130487740Y-71304034D01*
X130414674Y-71289500D01*
X129649000Y-71289500D01*
X129632580Y-71284165D01*
X129615317Y-71284165D01*
X129601350Y-71274017D01*
X129584931Y-71268683D01*
X129574783Y-71254716D01*
X129560817Y-71244569D01*
X129555482Y-71228149D01*
X129545335Y-71214183D01*
X129540000Y-71180500D01*
X129540000Y-71057312D01*
X129560817Y-70993243D01*
X129615317Y-70953647D01*
X129631942Y-70949655D01*
X129797701Y-70923402D01*
X129962445Y-70869873D01*
X130116788Y-70791232D01*
X130256928Y-70689414D01*
X130379414Y-70566928D01*
X130481232Y-70426788D01*
X130559873Y-70272445D01*
X130613402Y-70107701D01*
X130640500Y-69936611D01*
X130640500Y-69811500D01*
X130661317Y-69747431D01*
X130715817Y-69707835D01*
X130749500Y-69702500D01*
X137245963Y-69702500D01*
X137310032Y-69723317D01*
G37*
%TD.AperFunction*%
%TA.AperFunction,Conductor*%
G36*
X156297919Y-62339217D02*
G01*
X156306606Y-62337842D01*
X156329347Y-62349429D01*
X156353624Y-62357317D01*
X156358793Y-62364432D01*
X156366629Y-62368425D01*
X156378216Y-62391166D01*
X156393220Y-62411817D01*
X156397213Y-62428448D01*
X156406598Y-62487705D01*
X156458665Y-62647946D01*
X156464000Y-62681629D01*
X156464000Y-64318371D01*
X156458665Y-64352054D01*
X156406599Y-64512293D01*
X156397879Y-64567346D01*
X156367295Y-64627369D01*
X156307271Y-64657951D01*
X156240735Y-64647412D01*
X156193101Y-64599777D01*
X156184935Y-64578503D01*
X156184409Y-64576541D01*
X156164933Y-64503852D01*
X156164933Y-64503851D01*
X156128162Y-64440164D01*
X156117472Y-64421648D01*
X156117469Y-64421645D01*
X156050352Y-64354527D01*
X156050352Y-64354528D01*
X155564425Y-63868601D01*
X155533842Y-63808577D01*
X155532500Y-63791526D01*
X155532500Y-63667390D01*
X155532500Y-63667389D01*
X155505402Y-63496299D01*
X155451873Y-63331555D01*
X155394190Y-63218344D01*
X155373236Y-63177219D01*
X155373234Y-63177216D01*
X155373232Y-63177212D01*
X155271414Y-63037072D01*
X155148928Y-62914586D01*
X155008788Y-62812768D01*
X155008785Y-62812766D01*
X155008783Y-62812765D01*
X155008780Y-62812763D01*
X154854443Y-62734126D01*
X154689704Y-62680598D01*
X154689705Y-62680598D01*
X154518612Y-62653500D01*
X154518611Y-62653500D01*
X154345389Y-62653500D01*
X154345387Y-62653500D01*
X154174295Y-62680598D01*
X154009556Y-62734126D01*
X153855219Y-62812763D01*
X153855216Y-62812765D01*
X153715074Y-62914584D01*
X153592584Y-63037074D01*
X153490765Y-63177216D01*
X153490763Y-63177219D01*
X153412126Y-63331556D01*
X153358598Y-63496295D01*
X153331500Y-63667387D01*
X153331500Y-63840612D01*
X153358598Y-64011704D01*
X153412126Y-64176443D01*
X153490763Y-64330780D01*
X153490765Y-64330783D01*
X153490768Y-64330788D01*
X153592586Y-64470928D01*
X153715072Y-64593414D01*
X153855212Y-64695232D01*
X153855216Y-64695234D01*
X153855219Y-64695236D01*
X153896953Y-64716500D01*
X154009555Y-64773873D01*
X154066341Y-64792324D01*
X154174295Y-64827401D01*
X154174297Y-64827401D01*
X154174299Y-64827402D01*
X154345389Y-64854500D01*
X154345390Y-64854500D01*
X154518610Y-64854500D01*
X154518611Y-64854500D01*
X154689701Y-64827402D01*
X154854445Y-64773873D01*
X155008788Y-64695232D01*
X155143500Y-64597357D01*
X155151862Y-64594640D01*
X155158082Y-64588421D01*
X155183291Y-64584428D01*
X155207566Y-64576541D01*
X155215930Y-64579258D01*
X155224618Y-64577883D01*
X155247361Y-64589471D01*
X155271635Y-64597358D01*
X155284642Y-64608466D01*
X155436575Y-64760399D01*
X155467158Y-64820423D01*
X155468500Y-64837474D01*
X155468500Y-65092872D01*
X155447683Y-65156941D01*
X155393183Y-65196537D01*
X155338237Y-65199778D01*
X155306674Y-65193500D01*
X153557326Y-65193500D01*
X153484260Y-65208034D01*
X153401399Y-65263399D01*
X153346034Y-65346260D01*
X153331500Y-65419326D01*
X153331500Y-67168674D01*
X153346034Y-67241740D01*
X153401399Y-67324601D01*
X153484260Y-67379966D01*
X153557326Y-67394500D01*
X153557330Y-67394500D01*
X155306671Y-67394500D01*
X155306674Y-67394500D01*
X155338234Y-67388222D01*
X155405133Y-67396139D01*
X155454601Y-67441866D01*
X155468500Y-67495127D01*
X155468500Y-68639526D01*
X155447683Y-68703595D01*
X155436575Y-68716601D01*
X153933601Y-70219575D01*
X153873577Y-70250158D01*
X153856526Y-70251500D01*
X141143820Y-70251500D01*
X141079751Y-70230683D01*
X141066747Y-70219576D01*
X141038665Y-70191495D01*
X140918835Y-70122311D01*
X140785183Y-70086500D01*
X140646817Y-70086500D01*
X140513164Y-70122311D01*
X140393337Y-70191493D01*
X140295493Y-70289337D01*
X140226307Y-70409171D01*
X140224968Y-70412405D01*
X140223341Y-70414308D01*
X140222740Y-70415351D01*
X140222546Y-70415239D01*
X140181212Y-70463625D01*
X140115706Y-70479344D01*
X140053471Y-70453557D01*
X140047195Y-70447756D01*
X139359958Y-69760519D01*
X138652967Y-69053528D01*
X138570763Y-69006067D01*
X138479076Y-68981500D01*
X130252312Y-68981500D01*
X130188244Y-68960683D01*
X130116790Y-68908769D01*
X130116780Y-68908763D01*
X129962443Y-68830126D01*
X129797705Y-68776598D01*
X129631948Y-68750345D01*
X129624111Y-68746352D01*
X129615317Y-68746352D01*
X129594666Y-68731348D01*
X129571925Y-68719761D01*
X129567932Y-68711925D01*
X129560817Y-68706756D01*
X129552929Y-68682479D01*
X129541342Y-68659738D01*
X129540000Y-68642687D01*
X129540000Y-68517312D01*
X129560817Y-68453243D01*
X129615317Y-68413647D01*
X129631942Y-68409655D01*
X129797701Y-68383402D01*
X129962445Y-68329873D01*
X130116788Y-68251232D01*
X130256928Y-68149414D01*
X130379414Y-68026928D01*
X130481232Y-67886788D01*
X130518735Y-67813183D01*
X130561111Y-67730016D01*
X130608745Y-67682381D01*
X130658231Y-67670500D01*
X137245963Y-67670500D01*
X137310032Y-67691317D01*
X137349628Y-67745817D01*
X137351249Y-67807711D01*
X137333000Y-67875817D01*
X137333000Y-68014182D01*
X137368811Y-68147835D01*
X137437993Y-68267662D01*
X137437995Y-68267665D01*
X137535835Y-68365505D01*
X137655664Y-68434688D01*
X137789317Y-68470500D01*
X137927683Y-68470500D01*
X138061336Y-68434688D01*
X138181165Y-68365505D01*
X138279005Y-68267665D01*
X138348188Y-68147836D01*
X138384000Y-68014183D01*
X138384000Y-67875817D01*
X138365751Y-67807710D01*
X138369277Y-67740438D01*
X138411671Y-67688085D01*
X138471037Y-67670500D01*
X143151463Y-67670500D01*
X143215532Y-67691317D01*
X143255128Y-67745817D01*
X143256749Y-67807711D01*
X143238500Y-67875817D01*
X143238500Y-68014182D01*
X143274311Y-68147835D01*
X143343493Y-68267662D01*
X143343495Y-68267665D01*
X143441335Y-68365505D01*
X143561164Y-68434688D01*
X143694817Y-68470500D01*
X143833183Y-68470500D01*
X143966836Y-68434688D01*
X144086665Y-68365505D01*
X144184505Y-68267665D01*
X144253688Y-68147836D01*
X144289500Y-68014183D01*
X144289500Y-67875817D01*
X144271251Y-67807710D01*
X144274777Y-67740438D01*
X144317171Y-67688085D01*
X144376537Y-67670500D01*
X144724217Y-67670500D01*
X144788286Y-67691317D01*
X144827882Y-67745817D01*
X144827882Y-67813183D01*
X144818614Y-67834000D01*
X144798311Y-67869164D01*
X144762500Y-68002817D01*
X144762500Y-68141183D01*
X144764706Y-68149415D01*
X144798311Y-68274835D01*
X144860992Y-68383402D01*
X144867495Y-68394665D01*
X144965335Y-68492505D01*
X145085164Y-68561688D01*
X145218817Y-68597500D01*
X145357183Y-68597500D01*
X145490836Y-68561688D01*
X145610665Y-68492505D01*
X145708505Y-68394665D01*
X145777688Y-68274836D01*
X145813500Y-68141183D01*
X145813500Y-68002817D01*
X145778812Y-67873358D01*
X145782338Y-67806085D01*
X145824733Y-67753732D01*
X145829580Y-67750761D01*
X145864665Y-67730505D01*
X145962505Y-67632665D01*
X146031688Y-67512836D01*
X146067500Y-67379183D01*
X146067500Y-67240817D01*
X146031688Y-67107164D01*
X145962505Y-66987335D01*
X145864665Y-66889495D01*
X145864662Y-66889493D01*
X145864659Y-66889490D01*
X145863336Y-66888475D01*
X145862659Y-66887490D01*
X145859613Y-66884444D01*
X145860177Y-66883879D01*
X145825180Y-66832958D01*
X145826943Y-66765615D01*
X145860073Y-66720016D01*
X145859613Y-66719556D01*
X145862517Y-66716651D01*
X145863336Y-66715525D01*
X145864659Y-66714509D01*
X145864660Y-66714507D01*
X145864665Y-66714505D01*
X145962505Y-66616665D01*
X146031688Y-66496836D01*
X146067500Y-66363183D01*
X146067500Y-66224817D01*
X146031688Y-66091164D01*
X145962505Y-65971335D01*
X145864665Y-65873495D01*
X145864662Y-65873493D01*
X145744835Y-65804311D01*
X145611183Y-65768500D01*
X145571474Y-65768500D01*
X145563109Y-65765782D01*
X145554423Y-65767158D01*
X145531680Y-65755570D01*
X145507405Y-65747683D01*
X145494399Y-65736575D01*
X145417572Y-65659748D01*
X145417570Y-65659745D01*
X145347642Y-65589817D01*
X147556500Y-65589817D01*
X147556500Y-65728183D01*
X147566095Y-65763994D01*
X147592311Y-65861835D01*
X147655531Y-65971335D01*
X147661495Y-65981665D01*
X147759335Y-66079505D01*
X147759337Y-66079506D01*
X147879164Y-66148688D01*
X148012817Y-66184500D01*
X148143000Y-66184500D01*
X148207069Y-66205317D01*
X148246665Y-66259817D01*
X148252000Y-66293500D01*
X148252000Y-66380572D01*
X148279086Y-66551588D01*
X148332588Y-66716248D01*
X148411196Y-66870524D01*
X148490096Y-66979124D01*
X148490097Y-66979125D01*
X148921270Y-66547952D01*
X148951901Y-66601007D01*
X149044993Y-66694099D01*
X149098045Y-66724729D01*
X148666874Y-67155901D01*
X148775474Y-67234802D01*
X148929751Y-67313411D01*
X149094411Y-67366913D01*
X149265428Y-67394000D01*
X149438572Y-67394000D01*
X149609588Y-67366913D01*
X149774248Y-67313411D01*
X149928529Y-67234801D01*
X150037124Y-67155902D01*
X150037124Y-67155901D01*
X149605952Y-66724729D01*
X149659007Y-66694099D01*
X149752099Y-66601007D01*
X149782729Y-66547952D01*
X150213901Y-66979124D01*
X150213902Y-66979124D01*
X150292801Y-66870529D01*
X150371411Y-66716248D01*
X150424913Y-66551588D01*
X150452000Y-66380572D01*
X150452000Y-66207427D01*
X150451994Y-66207387D01*
X150791500Y-66207387D01*
X150791500Y-66380612D01*
X150818598Y-66551704D01*
X150872126Y-66716443D01*
X150950763Y-66870780D01*
X150950765Y-66870783D01*
X150950768Y-66870788D01*
X151052586Y-67010928D01*
X151175072Y-67133414D01*
X151315212Y-67235232D01*
X151315216Y-67235234D01*
X151315219Y-67235236D01*
X151386153Y-67271378D01*
X151469555Y-67313873D01*
X151555253Y-67341718D01*
X151634295Y-67367401D01*
X151634297Y-67367401D01*
X151634299Y-67367402D01*
X151805389Y-67394500D01*
X151805390Y-67394500D01*
X151978610Y-67394500D01*
X151978611Y-67394500D01*
X152149701Y-67367402D01*
X152314445Y-67313873D01*
X152468788Y-67235232D01*
X152608928Y-67133414D01*
X152731414Y-67010928D01*
X152833232Y-66870788D01*
X152911873Y-66716445D01*
X152965402Y-66551701D01*
X152992500Y-66380611D01*
X152992500Y-66207389D01*
X152965402Y-66036299D01*
X152911873Y-65871555D01*
X152858681Y-65767158D01*
X152833236Y-65717219D01*
X152833234Y-65717216D01*
X152833232Y-65717212D01*
X152731414Y-65577072D01*
X152608928Y-65454586D01*
X152468788Y-65352768D01*
X152468785Y-65352766D01*
X152468783Y-65352765D01*
X152468780Y-65352763D01*
X152314443Y-65274126D01*
X152149704Y-65220598D01*
X152149705Y-65220598D01*
X151978612Y-65193500D01*
X151978611Y-65193500D01*
X151805389Y-65193500D01*
X151805387Y-65193500D01*
X151634295Y-65220598D01*
X151469556Y-65274126D01*
X151315219Y-65352763D01*
X151315216Y-65352765D01*
X151175074Y-65454584D01*
X151052584Y-65577074D01*
X150950765Y-65717216D01*
X150950763Y-65717219D01*
X150872126Y-65871556D01*
X150818598Y-66036295D01*
X150791500Y-66207387D01*
X150451994Y-66207387D01*
X150424913Y-66036411D01*
X150371411Y-65871751D01*
X150292802Y-65717474D01*
X150213901Y-65608874D01*
X149782729Y-66040045D01*
X149752099Y-65986993D01*
X149659007Y-65893901D01*
X149605952Y-65863270D01*
X150037125Y-65432097D01*
X150037124Y-65432096D01*
X149928524Y-65353196D01*
X149774248Y-65274588D01*
X149609588Y-65221086D01*
X149438572Y-65194000D01*
X149265428Y-65194000D01*
X149094411Y-65221086D01*
X148929751Y-65274588D01*
X148775471Y-65353198D01*
X148687963Y-65416775D01*
X148623894Y-65437591D01*
X148559826Y-65416773D01*
X148529499Y-65383090D01*
X148502507Y-65336338D01*
X148502506Y-65336337D01*
X148502505Y-65336335D01*
X148404665Y-65238495D01*
X148404662Y-65238493D01*
X148284835Y-65169311D01*
X148151183Y-65133500D01*
X148012817Y-65133500D01*
X147879164Y-65169311D01*
X147759337Y-65238493D01*
X147661493Y-65336337D01*
X147592311Y-65456164D01*
X147559915Y-65577072D01*
X147556500Y-65589817D01*
X145347642Y-65589817D01*
X145255354Y-65497530D01*
X145255352Y-65497528D01*
X145173148Y-65450067D01*
X145081461Y-65425500D01*
X142738474Y-65425500D01*
X142714199Y-65417612D01*
X142688989Y-65413620D01*
X142682769Y-65407400D01*
X142674405Y-65404683D01*
X142659402Y-65384033D01*
X142641354Y-65365985D01*
X142639978Y-65357297D01*
X142634809Y-65350183D01*
X142634809Y-65324660D01*
X142630816Y-65299449D01*
X142634809Y-65291612D01*
X142634809Y-65282817D01*
X142661399Y-65239425D01*
X142700399Y-65200425D01*
X142760423Y-65169842D01*
X142777474Y-65168500D01*
X142817183Y-65168500D01*
X142950836Y-65132688D01*
X143070665Y-65063505D01*
X143168505Y-64965665D01*
X143237688Y-64845836D01*
X143273500Y-64712183D01*
X143273500Y-64573817D01*
X143237688Y-64440164D01*
X143168505Y-64320335D01*
X143070665Y-64222495D01*
X143070662Y-64222493D01*
X143070661Y-64222492D01*
X143015936Y-64190897D01*
X142970859Y-64140835D01*
X142963817Y-64073838D01*
X142997499Y-64015498D01*
X143059041Y-63988097D01*
X143070435Y-63987500D01*
X148191541Y-63987500D01*
X148255610Y-64008317D01*
X148295206Y-64062817D01*
X148332126Y-64176443D01*
X148410763Y-64330780D01*
X148410765Y-64330783D01*
X148410768Y-64330788D01*
X148512586Y-64470928D01*
X148635072Y-64593414D01*
X148775212Y-64695232D01*
X148775216Y-64695234D01*
X148775219Y-64695236D01*
X148816953Y-64716500D01*
X148929555Y-64773873D01*
X148986341Y-64792324D01*
X149094295Y-64827401D01*
X149094297Y-64827401D01*
X149094299Y-64827402D01*
X149265389Y-64854500D01*
X149265390Y-64854500D01*
X149438610Y-64854500D01*
X149438611Y-64854500D01*
X149609701Y-64827402D01*
X149774445Y-64773873D01*
X149928788Y-64695232D01*
X150068928Y-64593414D01*
X150191414Y-64470928D01*
X150293232Y-64330788D01*
X150371873Y-64176445D01*
X150425402Y-64011701D01*
X150452500Y-63840611D01*
X150452500Y-63701474D01*
X150460387Y-63677199D01*
X150464380Y-63651989D01*
X150470599Y-63645769D01*
X150473317Y-63637405D01*
X150493966Y-63622402D01*
X150512015Y-63604354D01*
X150520702Y-63602978D01*
X150527817Y-63597809D01*
X150553340Y-63597809D01*
X150578551Y-63593816D01*
X150586388Y-63597809D01*
X150595183Y-63597809D01*
X150638575Y-63624399D01*
X150759575Y-63745399D01*
X150790158Y-63805423D01*
X150791500Y-63822474D01*
X150791500Y-63840612D01*
X150818598Y-64011704D01*
X150872126Y-64176443D01*
X150950763Y-64330780D01*
X150950765Y-64330783D01*
X150950768Y-64330788D01*
X151052586Y-64470928D01*
X151175072Y-64593414D01*
X151315212Y-64695232D01*
X151315216Y-64695234D01*
X151315219Y-64695236D01*
X151356953Y-64716500D01*
X151469555Y-64773873D01*
X151526341Y-64792324D01*
X151634295Y-64827401D01*
X151634297Y-64827401D01*
X151634299Y-64827402D01*
X151805389Y-64854500D01*
X151805390Y-64854500D01*
X151978610Y-64854500D01*
X151978611Y-64854500D01*
X152149701Y-64827402D01*
X152314445Y-64773873D01*
X152468788Y-64695232D01*
X152608928Y-64593414D01*
X152731414Y-64470928D01*
X152833232Y-64330788D01*
X152911873Y-64176445D01*
X152965402Y-64011701D01*
X152992500Y-63840611D01*
X152992500Y-63667389D01*
X152965402Y-63496299D01*
X152911873Y-63331555D01*
X152854190Y-63218344D01*
X152833236Y-63177219D01*
X152833234Y-63177216D01*
X152833232Y-63177212D01*
X152731414Y-63037072D01*
X152608928Y-62914586D01*
X152468788Y-62812768D01*
X152468785Y-62812766D01*
X152468783Y-62812765D01*
X152468780Y-62812763D01*
X152314443Y-62734126D01*
X152149704Y-62680598D01*
X152149705Y-62680598D01*
X151978612Y-62653500D01*
X151978611Y-62653500D01*
X151805389Y-62653500D01*
X151805387Y-62653500D01*
X151634295Y-62680598D01*
X151469556Y-62734126D01*
X151315219Y-62812763D01*
X151315216Y-62812765D01*
X151175074Y-62914584D01*
X151138815Y-62950843D01*
X151078791Y-62981425D01*
X151012255Y-62970886D01*
X150984666Y-62950842D01*
X150556399Y-62522575D01*
X150525816Y-62462551D01*
X150536354Y-62396015D01*
X150583989Y-62348380D01*
X150633474Y-62336500D01*
X156289555Y-62336500D01*
X156297919Y-62339217D01*
G37*
%TD.AperFunction*%
%TA.AperFunction,Conductor*%
G36*
X130075795Y-65815620D02*
G01*
X130231511Y-65971335D01*
X130334648Y-66074472D01*
X130416852Y-66121933D01*
X130508539Y-66146500D01*
X130603461Y-66146500D01*
X144839526Y-66146500D01*
X144847890Y-66149217D01*
X144856577Y-66147842D01*
X144879319Y-66159429D01*
X144903595Y-66167317D01*
X144916601Y-66178425D01*
X144984575Y-66246399D01*
X145015158Y-66306423D01*
X145016500Y-66323474D01*
X145016500Y-66363183D01*
X145021159Y-66380572D01*
X145052311Y-66496835D01*
X145112455Y-66601007D01*
X145121495Y-66616665D01*
X145219335Y-66714505D01*
X145219337Y-66714506D01*
X145219340Y-66714509D01*
X145220669Y-66715529D01*
X145221347Y-66716516D01*
X145224387Y-66719556D01*
X145223823Y-66720119D01*
X145234960Y-66736326D01*
X145252431Y-66754536D01*
X145253667Y-66763549D01*
X145258822Y-66771050D01*
X145258159Y-66796277D01*
X145261590Y-66821276D01*
X145257318Y-66828290D01*
X145257053Y-66838392D01*
X145229771Y-66880654D01*
X145222401Y-66887724D01*
X145219335Y-66889495D01*
X145190456Y-66918373D01*
X145189643Y-66919154D01*
X145160270Y-66933361D01*
X145131230Y-66948158D01*
X145129380Y-66948303D01*
X145128999Y-66948488D01*
X145128401Y-66948380D01*
X145114180Y-66949500D01*
X130658231Y-66949500D01*
X130594162Y-66928683D01*
X130561111Y-66889984D01*
X130481236Y-66733219D01*
X130481234Y-66733216D01*
X130481232Y-66733212D01*
X130379414Y-66593072D01*
X130256928Y-66470586D01*
X130116788Y-66368768D01*
X130116785Y-66368766D01*
X130116783Y-66368765D01*
X130116780Y-66368763D01*
X129962443Y-66290126D01*
X129797705Y-66236598D01*
X129631948Y-66210345D01*
X129624111Y-66206352D01*
X129615317Y-66206352D01*
X129594666Y-66191348D01*
X129571925Y-66179761D01*
X129567932Y-66171925D01*
X129560817Y-66166756D01*
X129552929Y-66142479D01*
X129541342Y-66119738D01*
X129540000Y-66102687D01*
X129540000Y-65977312D01*
X129560817Y-65913243D01*
X129615317Y-65873647D01*
X129631942Y-65869655D01*
X129797701Y-65843402D01*
X129962445Y-65789873D01*
X129962449Y-65789870D01*
X129965037Y-65789030D01*
X130032403Y-65789030D01*
X130075795Y-65815620D01*
G37*
%TD.AperFunction*%
%TA.AperFunction,Conductor*%
G36*
X136706455Y-63106387D02*
G01*
X136731666Y-63110380D01*
X136737885Y-63116599D01*
X136746250Y-63119317D01*
X136761252Y-63139966D01*
X136779301Y-63158015D01*
X136780676Y-63166702D01*
X136785846Y-63173817D01*
X136785846Y-63199339D01*
X136789839Y-63224551D01*
X136785846Y-63232387D01*
X136785846Y-63241183D01*
X136759257Y-63284572D01*
X136740429Y-63303401D01*
X136739493Y-63304337D01*
X136670311Y-63424164D01*
X136634500Y-63557817D01*
X136634500Y-63696182D01*
X136670311Y-63829835D01*
X136739493Y-63949662D01*
X136739495Y-63949665D01*
X136837335Y-64047505D01*
X136957164Y-64116688D01*
X137090817Y-64152500D01*
X137229183Y-64152500D01*
X137362836Y-64116688D01*
X137482665Y-64047505D01*
X137496706Y-64033464D01*
X137510747Y-64019424D01*
X137570770Y-63988842D01*
X137587820Y-63987500D01*
X142425565Y-63987500D01*
X142489634Y-64008317D01*
X142529230Y-64062817D01*
X142529230Y-64130183D01*
X142489634Y-64184683D01*
X142480064Y-64190897D01*
X142425338Y-64222492D01*
X142327493Y-64320337D01*
X142258311Y-64440164D01*
X142222500Y-64573817D01*
X142222500Y-64607500D01*
X142201683Y-64671569D01*
X142147183Y-64711165D01*
X142113500Y-64716500D01*
X138252820Y-64716500D01*
X138188751Y-64695683D01*
X138175746Y-64684576D01*
X138162739Y-64671569D01*
X138141385Y-64650215D01*
X138141382Y-64650213D01*
X138021555Y-64581031D01*
X137887903Y-64545220D01*
X137749537Y-64545220D01*
X137615884Y-64581031D01*
X137496057Y-64650213D01*
X137398213Y-64748057D01*
X137329031Y-64867884D01*
X137302832Y-64965665D01*
X137293220Y-65001537D01*
X137293220Y-65139903D01*
X137319887Y-65239425D01*
X137329033Y-65273560D01*
X137329542Y-65274789D01*
X137329616Y-65275738D01*
X137330881Y-65280457D01*
X137330006Y-65280691D01*
X137334827Y-65341947D01*
X137299628Y-65399385D01*
X137237390Y-65425164D01*
X137228839Y-65425500D01*
X130750474Y-65425500D01*
X130742109Y-65422782D01*
X130733423Y-65424158D01*
X130710680Y-65412570D01*
X130686405Y-65404683D01*
X130673399Y-65393575D01*
X130585620Y-65305796D01*
X130555037Y-65245772D01*
X130559030Y-65195037D01*
X130559870Y-65192449D01*
X130559873Y-65192445D01*
X130613402Y-65027701D01*
X130640500Y-64856611D01*
X130640500Y-64683389D01*
X130613402Y-64512299D01*
X130610657Y-64503852D01*
X130583946Y-64421645D01*
X130559873Y-64347555D01*
X130517378Y-64264153D01*
X130481236Y-64193219D01*
X130481234Y-64193216D01*
X130481232Y-64193212D01*
X130379414Y-64053072D01*
X130256928Y-63930586D01*
X130116788Y-63828768D01*
X130116785Y-63828766D01*
X130116783Y-63828765D01*
X130116780Y-63828763D01*
X129962443Y-63750126D01*
X129797705Y-63696598D01*
X129631948Y-63670345D01*
X129624111Y-63666352D01*
X129615317Y-63666352D01*
X129594666Y-63651348D01*
X129571925Y-63639761D01*
X129567932Y-63631925D01*
X129560817Y-63626756D01*
X129552929Y-63602479D01*
X129541342Y-63579738D01*
X129540000Y-63562687D01*
X129540000Y-63437312D01*
X129560817Y-63373243D01*
X129615317Y-63333647D01*
X129631942Y-63329655D01*
X129797701Y-63303402D01*
X129962445Y-63249873D01*
X130116788Y-63171232D01*
X130175001Y-63128938D01*
X130188244Y-63119317D01*
X130252312Y-63098500D01*
X136682181Y-63098500D01*
X136706455Y-63106387D01*
G37*
%TD.AperFunction*%
%TA.AperFunction,Conductor*%
G36*
X156371420Y-50805335D02*
G01*
X156388683Y-50805335D01*
X156402649Y-50815482D01*
X156419069Y-50820817D01*
X156429216Y-50834783D01*
X156443183Y-50844931D01*
X156448517Y-50861350D01*
X156458665Y-50875317D01*
X156464000Y-50909000D01*
X156464000Y-50984482D01*
X156445631Y-51045038D01*
X156394034Y-51122258D01*
X156394034Y-51122260D01*
X156379500Y-51195326D01*
X156379500Y-52944674D01*
X156391127Y-53003126D01*
X156394034Y-53017741D01*
X156417528Y-53052902D01*
X156445630Y-53094961D01*
X156464000Y-53155516D01*
X156464000Y-54158371D01*
X156458665Y-54192054D01*
X156406598Y-54352295D01*
X156379500Y-54523387D01*
X156379500Y-54696612D01*
X156406598Y-54867704D01*
X156458665Y-55027946D01*
X156464000Y-55061629D01*
X156464000Y-55880000D01*
X156464001Y-55880000D01*
X157140784Y-55880000D01*
X157204853Y-55900817D01*
X157244449Y-55955317D01*
X157244449Y-56022683D01*
X157204853Y-56077183D01*
X157174467Y-56092665D01*
X157057751Y-56130588D01*
X156903478Y-56209193D01*
X156794874Y-56288096D01*
X157226047Y-56719270D01*
X157172993Y-56749901D01*
X157079901Y-56842993D01*
X157049269Y-56896047D01*
X156618096Y-56464874D01*
X156539193Y-56573478D01*
X156460588Y-56727751D01*
X156407086Y-56892411D01*
X156380000Y-57063427D01*
X156380000Y-57236572D01*
X156407086Y-57407588D01*
X156460588Y-57572248D01*
X156539196Y-57726524D01*
X156618096Y-57835124D01*
X157049269Y-57403950D01*
X157079901Y-57457007D01*
X157172993Y-57550099D01*
X157226045Y-57580729D01*
X156794874Y-58011901D01*
X156903476Y-58090804D01*
X156903898Y-58091063D01*
X156904005Y-58091189D01*
X156906940Y-58093321D01*
X156906428Y-58094025D01*
X156947648Y-58142289D01*
X156952933Y-58209447D01*
X156917734Y-58266885D01*
X156855496Y-58292664D01*
X156846945Y-58293000D01*
X156464000Y-58293000D01*
X156464000Y-58293001D01*
X156464000Y-59238371D01*
X156458665Y-59272054D01*
X156406598Y-59432295D01*
X156379500Y-59603387D01*
X156379500Y-59776612D01*
X156406598Y-59947704D01*
X156458665Y-60107946D01*
X156464000Y-60141629D01*
X156464000Y-60151026D01*
X156443183Y-60215095D01*
X156432075Y-60228101D01*
X156346601Y-60313575D01*
X156286577Y-60344158D01*
X156269526Y-60345500D01*
X152483941Y-60345500D01*
X152392253Y-60370067D01*
X152310051Y-60417527D01*
X151948662Y-60778916D01*
X151888638Y-60809499D01*
X151871587Y-60810841D01*
X151831878Y-60810841D01*
X151698225Y-60846652D01*
X151578398Y-60915834D01*
X151480554Y-61013678D01*
X151411372Y-61133505D01*
X151375561Y-61267158D01*
X151375561Y-61405523D01*
X151395058Y-61478289D01*
X151391532Y-61545563D01*
X151349137Y-61597915D01*
X151289772Y-61615500D01*
X149189013Y-61615500D01*
X149180648Y-61612782D01*
X149171962Y-61614158D01*
X149149219Y-61602570D01*
X149124944Y-61594683D01*
X149111938Y-61583575D01*
X149107850Y-61579487D01*
X149077267Y-61519463D01*
X149075925Y-61502412D01*
X149075925Y-61462703D01*
X149040113Y-61329050D01*
X149016856Y-61288768D01*
X148970930Y-61209221D01*
X148873090Y-61111381D01*
X148873033Y-61111348D01*
X148753260Y-61042197D01*
X148619608Y-61006386D01*
X148481242Y-61006386D01*
X148347589Y-61042197D01*
X148227762Y-61111379D01*
X148129918Y-61209223D01*
X148060736Y-61329050D01*
X148041860Y-61399500D01*
X148024925Y-61462703D01*
X148024925Y-61601069D01*
X148028432Y-61614158D01*
X148039510Y-61655502D01*
X148035984Y-61722776D01*
X147993589Y-61775128D01*
X147932605Y-61791469D01*
X147932605Y-61792500D01*
X147928758Y-61792500D01*
X147928519Y-61792564D01*
X147927822Y-61792500D01*
X147925461Y-61792500D01*
X141397820Y-61792500D01*
X141333751Y-61771683D01*
X141320747Y-61760576D01*
X141292665Y-61732495D01*
X141172835Y-61663311D01*
X141039183Y-61627500D01*
X140999474Y-61627500D01*
X140935405Y-61606683D01*
X140922400Y-61595575D01*
X140798354Y-61471530D01*
X140798352Y-61471528D01*
X140716148Y-61424067D01*
X140624461Y-61399500D01*
X137174408Y-61399500D01*
X137110339Y-61378683D01*
X137097335Y-61367576D01*
X137069253Y-61339495D01*
X136949423Y-61270311D01*
X136815771Y-61234500D01*
X136677405Y-61234500D01*
X136543752Y-61270311D01*
X136423925Y-61339493D01*
X136326081Y-61437337D01*
X136256899Y-61557164D01*
X136221088Y-61690817D01*
X136221088Y-61829182D01*
X136256899Y-61962835D01*
X136256900Y-61962836D01*
X136326083Y-62082665D01*
X136423923Y-62180505D01*
X136423925Y-62180506D01*
X136423928Y-62180509D01*
X136425906Y-62182027D01*
X136426916Y-62183497D01*
X136428975Y-62185556D01*
X136428593Y-62185937D01*
X136464061Y-62237546D01*
X136462294Y-62304889D01*
X136421283Y-62358332D01*
X136359548Y-62377500D01*
X130749500Y-62377500D01*
X130685431Y-62356683D01*
X130645835Y-62302183D01*
X130640500Y-62268500D01*
X130640500Y-62143390D01*
X130640500Y-62143389D01*
X130613402Y-61972299D01*
X130610327Y-61962836D01*
X130566900Y-61829182D01*
X130559873Y-61807555D01*
X130500393Y-61690817D01*
X130481236Y-61653219D01*
X130481234Y-61653216D01*
X130481232Y-61653212D01*
X130379414Y-61513072D01*
X130256928Y-61390586D01*
X130116788Y-61288768D01*
X130116785Y-61288766D01*
X130116783Y-61288765D01*
X130116780Y-61288763D01*
X129962443Y-61210126D01*
X129797705Y-61156598D01*
X129631948Y-61130345D01*
X129624111Y-61126352D01*
X129615317Y-61126352D01*
X129594666Y-61111348D01*
X129571925Y-61099761D01*
X129567932Y-61091925D01*
X129560817Y-61086756D01*
X129552929Y-61062479D01*
X129541342Y-61039738D01*
X129540000Y-61022687D01*
X129540000Y-60897312D01*
X129560817Y-60833243D01*
X129615317Y-60793647D01*
X129631942Y-60789655D01*
X129797701Y-60763402D01*
X129962445Y-60709873D01*
X130116788Y-60631232D01*
X130256928Y-60529414D01*
X130379414Y-60406928D01*
X130389987Y-60392375D01*
X130445034Y-60316612D01*
X130499534Y-60277016D01*
X130533216Y-60271681D01*
X137486510Y-60271681D01*
X137550579Y-60292498D01*
X137590175Y-60346998D01*
X137591796Y-60352470D01*
X137613311Y-60432767D01*
X137613312Y-60432768D01*
X137682495Y-60552597D01*
X137780335Y-60650437D01*
X137900164Y-60719620D01*
X138033817Y-60755432D01*
X138172183Y-60755432D01*
X138305836Y-60719620D01*
X138425665Y-60650437D01*
X138523505Y-60552597D01*
X138592688Y-60432768D01*
X138628500Y-60299115D01*
X138628500Y-60160749D01*
X138592688Y-60027096D01*
X138523505Y-59907267D01*
X138425665Y-59809427D01*
X138425662Y-59809425D01*
X138318954Y-59747817D01*
X145651500Y-59747817D01*
X145651500Y-59886183D01*
X145657150Y-59907269D01*
X145687311Y-60019835D01*
X145745168Y-60120046D01*
X145756495Y-60139665D01*
X145854335Y-60237505D01*
X145974164Y-60306688D01*
X146107817Y-60342500D01*
X146246183Y-60342500D01*
X146379836Y-60306688D01*
X146499665Y-60237505D01*
X146597505Y-60139665D01*
X146666688Y-60019836D01*
X146702500Y-59886183D01*
X146702500Y-59747817D01*
X146666688Y-59614164D01*
X146597505Y-59494335D01*
X146499665Y-59396495D01*
X146499662Y-59396493D01*
X146448262Y-59366817D01*
X150223500Y-59366817D01*
X150223500Y-59505182D01*
X150259311Y-59638835D01*
X150322232Y-59747817D01*
X150328495Y-59758665D01*
X150426335Y-59856505D01*
X150546164Y-59925688D01*
X150679817Y-59961500D01*
X150818183Y-59961500D01*
X150951836Y-59925688D01*
X151071665Y-59856505D01*
X151169505Y-59758665D01*
X151238688Y-59638836D01*
X151274500Y-59505183D01*
X151274500Y-59366817D01*
X151263915Y-59327312D01*
X151263704Y-59326523D01*
X151258059Y-59305457D01*
X152407044Y-59305457D01*
X152407044Y-59443823D01*
X152415495Y-59475364D01*
X152442855Y-59577475D01*
X152468971Y-59622709D01*
X152512039Y-59697305D01*
X152609879Y-59795145D01*
X152729708Y-59864328D01*
X152863361Y-59900140D01*
X153001727Y-59900140D01*
X153135380Y-59864328D01*
X153255209Y-59795145D01*
X153353049Y-59697305D01*
X153422232Y-59577476D01*
X153458044Y-59443823D01*
X153458044Y-59305457D01*
X153422232Y-59171804D01*
X153353049Y-59051975D01*
X153255209Y-58954135D01*
X153255206Y-58954133D01*
X153135379Y-58884951D01*
X153001727Y-58849140D01*
X152863361Y-58849140D01*
X152729708Y-58884951D01*
X152609881Y-58954133D01*
X152512037Y-59051977D01*
X152442855Y-59171804D01*
X152417199Y-59267556D01*
X152407044Y-59305457D01*
X151258059Y-59305457D01*
X151238688Y-59233164D01*
X151169506Y-59113337D01*
X151169505Y-59113335D01*
X151071665Y-59015495D01*
X151071662Y-59015493D01*
X150951835Y-58946311D01*
X150818183Y-58910500D01*
X150679817Y-58910500D01*
X150546164Y-58946311D01*
X150426337Y-59015493D01*
X150328493Y-59113337D01*
X150259311Y-59233164D01*
X150223500Y-59366817D01*
X146448262Y-59366817D01*
X146379835Y-59327311D01*
X146246183Y-59291500D01*
X146107817Y-59291500D01*
X145974164Y-59327311D01*
X145854337Y-59396493D01*
X145756493Y-59494337D01*
X145687311Y-59614164D01*
X145663125Y-59704432D01*
X145651500Y-59747817D01*
X138318954Y-59747817D01*
X138305835Y-59740243D01*
X138172183Y-59704432D01*
X138132474Y-59704432D01*
X138068405Y-59683615D01*
X138055400Y-59672507D01*
X138005603Y-59622711D01*
X138005601Y-59622709D01*
X137923397Y-59575248D01*
X137831710Y-59550681D01*
X130725247Y-59550681D01*
X130661178Y-59529864D01*
X130621582Y-59475364D01*
X130617589Y-59458734D01*
X130615227Y-59443822D01*
X130613402Y-59432299D01*
X130559873Y-59267555D01*
X130481232Y-59113212D01*
X130379414Y-58973072D01*
X130256928Y-58850586D01*
X130116788Y-58748768D01*
X130116785Y-58748766D01*
X130116783Y-58748765D01*
X130116780Y-58748763D01*
X129962443Y-58670126D01*
X129797705Y-58616598D01*
X129631948Y-58590345D01*
X129624111Y-58586352D01*
X129615317Y-58586352D01*
X129594666Y-58571348D01*
X129571925Y-58559761D01*
X129567932Y-58551925D01*
X129560817Y-58546756D01*
X129552929Y-58522479D01*
X129541342Y-58499738D01*
X129540000Y-58482687D01*
X129540000Y-58357312D01*
X129560817Y-58293243D01*
X129615317Y-58253647D01*
X129631942Y-58249655D01*
X129797701Y-58223402D01*
X129962445Y-58169873D01*
X130116788Y-58091232D01*
X130256928Y-57989414D01*
X130379414Y-57866928D01*
X130481232Y-57726788D01*
X130559873Y-57572445D01*
X130561111Y-57570016D01*
X130608745Y-57522381D01*
X130658231Y-57510500D01*
X137875180Y-57510500D01*
X137939249Y-57531317D01*
X137952253Y-57542424D01*
X137979846Y-57570016D01*
X137980335Y-57570505D01*
X138100164Y-57639688D01*
X138233817Y-57675500D01*
X138372183Y-57675500D01*
X138505836Y-57639688D01*
X138625665Y-57570505D01*
X138723505Y-57472665D01*
X138744103Y-57436987D01*
X138794165Y-57391912D01*
X138861162Y-57384870D01*
X138919503Y-57418552D01*
X138946903Y-57480094D01*
X138947500Y-57491488D01*
X138947500Y-57830918D01*
X138976342Y-57975913D01*
X138976343Y-57975915D01*
X139032914Y-58112491D01*
X139032916Y-58112496D01*
X139114493Y-58234585D01*
X139115049Y-58235416D01*
X139219584Y-58339951D01*
X139245567Y-58357312D01*
X139342503Y-58422083D01*
X139342504Y-58422083D01*
X139342505Y-58422084D01*
X139479087Y-58478658D01*
X139624082Y-58507500D01*
X139624086Y-58507500D01*
X139771914Y-58507500D01*
X139771918Y-58507500D01*
X139916913Y-58478658D01*
X140053495Y-58422084D01*
X140176416Y-58339951D01*
X140280951Y-58235416D01*
X140363084Y-58112495D01*
X140419658Y-57975913D01*
X140423857Y-57954801D01*
X140440481Y-57871235D01*
X140473397Y-57812458D01*
X140534575Y-57784255D01*
X140547386Y-57783500D01*
X147488614Y-57783500D01*
X147552683Y-57804317D01*
X147592279Y-57858817D01*
X147595519Y-57871235D01*
X147616339Y-57975902D01*
X147616343Y-57975915D01*
X147672914Y-58112491D01*
X147672916Y-58112496D01*
X147754493Y-58234585D01*
X147755049Y-58235416D01*
X147859584Y-58339951D01*
X147885567Y-58357312D01*
X147982503Y-58422083D01*
X147982504Y-58422083D01*
X147982505Y-58422084D01*
X148119087Y-58478658D01*
X148264082Y-58507500D01*
X148264086Y-58507500D01*
X148411914Y-58507500D01*
X148411918Y-58507500D01*
X148556913Y-58478658D01*
X148693495Y-58422084D01*
X148816416Y-58339951D01*
X148920951Y-58235416D01*
X149003084Y-58112495D01*
X149059658Y-57975913D01*
X149088500Y-57830918D01*
X149088500Y-56583082D01*
X149059658Y-56438087D01*
X149003084Y-56301505D01*
X148994124Y-56288096D01*
X148920952Y-56178586D01*
X148920951Y-56178584D01*
X148816416Y-56074049D01*
X148815585Y-56073493D01*
X148693496Y-55991916D01*
X148693491Y-55991914D01*
X148556915Y-55935343D01*
X148556916Y-55935343D01*
X148556913Y-55935342D01*
X148411918Y-55906500D01*
X148264082Y-55906500D01*
X148119087Y-55935342D01*
X148119085Y-55935342D01*
X148119084Y-55935343D01*
X147982508Y-55991914D01*
X147982503Y-55991916D01*
X147859586Y-56074047D01*
X147755047Y-56178586D01*
X147672916Y-56301503D01*
X147672914Y-56301508D01*
X147616343Y-56438084D01*
X147616339Y-56438096D01*
X147606626Y-56486928D01*
X147573710Y-56545704D01*
X147512532Y-56573907D01*
X147446461Y-56560764D01*
X147400733Y-56511295D01*
X147399019Y-56507376D01*
X147397689Y-56504167D01*
X147397688Y-56504166D01*
X147397688Y-56504164D01*
X147328505Y-56384335D01*
X147230665Y-56286495D01*
X147230662Y-56286493D01*
X147110835Y-56217311D01*
X146977183Y-56181500D01*
X146838817Y-56181500D01*
X146705164Y-56217311D01*
X146585337Y-56286493D01*
X146487493Y-56384337D01*
X146418311Y-56504164D01*
X146382500Y-56637817D01*
X146382500Y-56776182D01*
X146414414Y-56895289D01*
X146410888Y-56962562D01*
X146368493Y-57014915D01*
X146309128Y-57032500D01*
X141726872Y-57032500D01*
X141662803Y-57011683D01*
X141623207Y-56957183D01*
X141621586Y-56895289D01*
X141653500Y-56776182D01*
X141653500Y-56637817D01*
X141617688Y-56504164D01*
X141548506Y-56384337D01*
X141548505Y-56384335D01*
X141450665Y-56286495D01*
X141450662Y-56286493D01*
X141330835Y-56217311D01*
X141197183Y-56181500D01*
X141058817Y-56181500D01*
X140925164Y-56217311D01*
X140805337Y-56286493D01*
X140707493Y-56384337D01*
X140638310Y-56504166D01*
X140636977Y-56507385D01*
X140635358Y-56509279D01*
X140634740Y-56510351D01*
X140634541Y-56510236D01*
X140593221Y-56558605D01*
X140527715Y-56574325D01*
X140465480Y-56548539D01*
X140430287Y-56491097D01*
X140429381Y-56486970D01*
X140419658Y-56438087D01*
X140363084Y-56301505D01*
X140354124Y-56288096D01*
X140280952Y-56178586D01*
X140280951Y-56178584D01*
X140176416Y-56074049D01*
X140175585Y-56073493D01*
X140053496Y-55991916D01*
X140053491Y-55991914D01*
X139916915Y-55935343D01*
X139916916Y-55935343D01*
X139916913Y-55935342D01*
X139771918Y-55906500D01*
X139624082Y-55906500D01*
X139479087Y-55935342D01*
X139479085Y-55935342D01*
X139479084Y-55935343D01*
X139342508Y-55991914D01*
X139342503Y-55991916D01*
X139219586Y-56074047D01*
X139115047Y-56178586D01*
X139032916Y-56301503D01*
X139032914Y-56301508D01*
X138978419Y-56433072D01*
X138976342Y-56438087D01*
X138947500Y-56583082D01*
X138947500Y-56583085D01*
X138947500Y-56808511D01*
X138926683Y-56872580D01*
X138872183Y-56912176D01*
X138804817Y-56912176D01*
X138750317Y-56872580D01*
X138744104Y-56863012D01*
X138723507Y-56827338D01*
X138723506Y-56827337D01*
X138723505Y-56827335D01*
X138625665Y-56729495D01*
X138625662Y-56729493D01*
X138505835Y-56660311D01*
X138372183Y-56624500D01*
X138233817Y-56624500D01*
X138100164Y-56660311D01*
X137980334Y-56729495D01*
X137952253Y-56757576D01*
X137892230Y-56788158D01*
X137875180Y-56789500D01*
X130658231Y-56789500D01*
X130594162Y-56768683D01*
X130561111Y-56729984D01*
X130481236Y-56573219D01*
X130481234Y-56573216D01*
X130481232Y-56573212D01*
X130379414Y-56433072D01*
X130256928Y-56310586D01*
X130116788Y-56208768D01*
X130116785Y-56208766D01*
X130116783Y-56208765D01*
X130116780Y-56208763D01*
X129962443Y-56130126D01*
X129797705Y-56076598D01*
X129631948Y-56050345D01*
X129624111Y-56046352D01*
X129615317Y-56046352D01*
X129594666Y-56031348D01*
X129571925Y-56019761D01*
X129567932Y-56011925D01*
X129560817Y-56006756D01*
X129552929Y-55982479D01*
X129541342Y-55959738D01*
X129540000Y-55942687D01*
X129540000Y-55817312D01*
X129560817Y-55753243D01*
X129615317Y-55713647D01*
X129631942Y-55709655D01*
X129797701Y-55683402D01*
X129962445Y-55629873D01*
X130116788Y-55551232D01*
X130256928Y-55449414D01*
X130379414Y-55326928D01*
X130481232Y-55186788D01*
X130559873Y-55032445D01*
X130561111Y-55030016D01*
X130608745Y-54982381D01*
X130658231Y-54970500D01*
X143336180Y-54970500D01*
X143400249Y-54991317D01*
X143413253Y-55002424D01*
X143438776Y-55027946D01*
X143441335Y-55030505D01*
X143561164Y-55099688D01*
X143694817Y-55135500D01*
X143833183Y-55135500D01*
X143966836Y-55099688D01*
X144086665Y-55030505D01*
X144184505Y-54932665D01*
X144253688Y-54812836D01*
X144289500Y-54679183D01*
X144289500Y-54540817D01*
X144253688Y-54407164D01*
X144184505Y-54287335D01*
X144086665Y-54189495D01*
X144060144Y-54174183D01*
X143966835Y-54120311D01*
X143833183Y-54084500D01*
X143694817Y-54084500D01*
X143561164Y-54120311D01*
X143441334Y-54189495D01*
X143413253Y-54217576D01*
X143353230Y-54248158D01*
X143336180Y-54249500D01*
X140177230Y-54249500D01*
X140113161Y-54228683D01*
X140073565Y-54174183D01*
X140073565Y-54106817D01*
X140113161Y-54052317D01*
X140116673Y-54049870D01*
X140121795Y-54046447D01*
X140176416Y-54009951D01*
X140280951Y-53905416D01*
X140363084Y-53782495D01*
X140419658Y-53645913D01*
X140448500Y-53500918D01*
X140448500Y-52553082D01*
X147587500Y-52553082D01*
X147587500Y-53500918D01*
X147616342Y-53645913D01*
X147616343Y-53645915D01*
X147672914Y-53782491D01*
X147672916Y-53782496D01*
X147746801Y-53893072D01*
X147755049Y-53905416D01*
X147859584Y-54009951D01*
X147894397Y-54033212D01*
X147982503Y-54092083D01*
X147982504Y-54092083D01*
X147982505Y-54092084D01*
X148119087Y-54148658D01*
X148264082Y-54177500D01*
X148264086Y-54177500D01*
X148411914Y-54177500D01*
X148411918Y-54177500D01*
X148556913Y-54148658D01*
X148693495Y-54092084D01*
X148816416Y-54009951D01*
X148920951Y-53905416D01*
X149003084Y-53782495D01*
X149059658Y-53645913D01*
X149088500Y-53500918D01*
X149088500Y-52553082D01*
X149059658Y-52408087D01*
X149003084Y-52271505D01*
X148920951Y-52148584D01*
X148816416Y-52044049D01*
X148815585Y-52043493D01*
X148693496Y-51961916D01*
X148693491Y-51961914D01*
X148556915Y-51905343D01*
X148556916Y-51905343D01*
X148556913Y-51905342D01*
X148411918Y-51876500D01*
X148264082Y-51876500D01*
X148119087Y-51905342D01*
X148119085Y-51905342D01*
X148119084Y-51905343D01*
X147982508Y-51961914D01*
X147982503Y-51961916D01*
X147859586Y-52044047D01*
X147755047Y-52148586D01*
X147672916Y-52271503D01*
X147672914Y-52271508D01*
X147616343Y-52408084D01*
X147616342Y-52408087D01*
X147587500Y-52553082D01*
X140448500Y-52553082D01*
X140419658Y-52408087D01*
X140363084Y-52271505D01*
X140280951Y-52148584D01*
X140176416Y-52044049D01*
X140175585Y-52043493D01*
X140053496Y-51961916D01*
X140053491Y-51961914D01*
X139916915Y-51905343D01*
X139916916Y-51905343D01*
X139916913Y-51905342D01*
X139771918Y-51876500D01*
X139624082Y-51876500D01*
X139479087Y-51905342D01*
X139479085Y-51905342D01*
X139479084Y-51905343D01*
X139342508Y-51961914D01*
X139342503Y-51961916D01*
X139219586Y-52044047D01*
X139115047Y-52148586D01*
X139032916Y-52271503D01*
X139032914Y-52271508D01*
X138976343Y-52408084D01*
X138976342Y-52408087D01*
X138947500Y-52553082D01*
X138947500Y-53500918D01*
X138976342Y-53645913D01*
X138976343Y-53645915D01*
X139032914Y-53782491D01*
X139032916Y-53782496D01*
X139106801Y-53893072D01*
X139115049Y-53905416D01*
X139219584Y-54009951D01*
X139254397Y-54033212D01*
X139279327Y-54049870D01*
X139321033Y-54102774D01*
X139323678Y-54170087D01*
X139286251Y-54226100D01*
X139223049Y-54249416D01*
X139218770Y-54249500D01*
X136510766Y-54249500D01*
X136446697Y-54228683D01*
X136407101Y-54174183D01*
X136405481Y-54112287D01*
X136410332Y-54094183D01*
X136410332Y-53955817D01*
X136374520Y-53822164D01*
X136351615Y-53782491D01*
X136305337Y-53702335D01*
X136207497Y-53604495D01*
X136182611Y-53590127D01*
X136087667Y-53535311D01*
X135954015Y-53499500D01*
X135815649Y-53499500D01*
X135681996Y-53535311D01*
X135562169Y-53604493D01*
X135464325Y-53702337D01*
X135395143Y-53822164D01*
X135359332Y-53955817D01*
X135359332Y-54094183D01*
X135364183Y-54112287D01*
X135360659Y-54179561D01*
X135318265Y-54231914D01*
X135258898Y-54249500D01*
X130658231Y-54249500D01*
X130594162Y-54228683D01*
X130561111Y-54189984D01*
X130481236Y-54033219D01*
X130481234Y-54033216D01*
X130481232Y-54033212D01*
X130379414Y-53893072D01*
X130256928Y-53770586D01*
X130116788Y-53668768D01*
X130116785Y-53668766D01*
X130116783Y-53668765D01*
X130116780Y-53668763D01*
X129962443Y-53590126D01*
X129797705Y-53536598D01*
X129631948Y-53510345D01*
X129624111Y-53506352D01*
X129615317Y-53506352D01*
X129594666Y-53491348D01*
X129571925Y-53479761D01*
X129567932Y-53471925D01*
X129560817Y-53466756D01*
X129552929Y-53442479D01*
X129541342Y-53419738D01*
X129540000Y-53402687D01*
X129540000Y-53279500D01*
X129560817Y-53215431D01*
X129615317Y-53175835D01*
X129649000Y-53170500D01*
X130414670Y-53170500D01*
X130414674Y-53170500D01*
X130487740Y-53155966D01*
X130570601Y-53100601D01*
X130625966Y-53017740D01*
X130640500Y-52944674D01*
X130640500Y-51195326D01*
X130625966Y-51122260D01*
X130570601Y-51039399D01*
X130556000Y-51029643D01*
X130511082Y-50999630D01*
X130469376Y-50946727D01*
X130466731Y-50879414D01*
X130504157Y-50823401D01*
X130567359Y-50800084D01*
X130571639Y-50800000D01*
X156355000Y-50800000D01*
X156371420Y-50805335D01*
G37*
%TD.AperFunction*%
%TD*%
M02*
