%TF.GenerationSoftware,KiCad,Pcbnew,9.0.4*%
%TF.CreationDate,2025-09-04T16:16:01+01:00*%
%TF.ProjectId,MicroPython,4d696372-6f50-4797-9468-6f6e2e6b6963,rev?*%
%TF.SameCoordinates,Original*%
%TF.FileFunction,Legend,Top*%
%TF.FilePolarity,Positive*%
%FSLAX46Y46*%
G04 Gerber Fmt 4.6, Leading zero omitted, Abs format (unit mm)*
G04 Created by KiCad (PCBNEW 9.0.4) date 2025-09-04 16:16:01*
%MOMM*%
%LPD*%
G01*
G04 APERTURE LIST*
%ADD10C,0.152400*%
%ADD11C,0.150000*%
%ADD12C,0.149860*%
%ADD13C,0.120000*%
%ADD14C,0.100000*%
G04 APERTURE END LIST*
D10*
X148750866Y-67963188D02*
X148750866Y-68434902D01*
X148750866Y-68434902D02*
X148719419Y-68529245D01*
X148719419Y-68529245D02*
X148656523Y-68592141D01*
X148656523Y-68592141D02*
X148562181Y-68623588D01*
X148562181Y-68623588D02*
X148499285Y-68623588D01*
X149159685Y-68246217D02*
X149096790Y-68214769D01*
X149096790Y-68214769D02*
X149065343Y-68183321D01*
X149065343Y-68183321D02*
X149033895Y-68120426D01*
X149033895Y-68120426D02*
X149033895Y-68088979D01*
X149033895Y-68088979D02*
X149065343Y-68026083D01*
X149065343Y-68026083D02*
X149096790Y-67994636D01*
X149096790Y-67994636D02*
X149159685Y-67963188D01*
X149159685Y-67963188D02*
X149285476Y-67963188D01*
X149285476Y-67963188D02*
X149348371Y-67994636D01*
X149348371Y-67994636D02*
X149379819Y-68026083D01*
X149379819Y-68026083D02*
X149411266Y-68088979D01*
X149411266Y-68088979D02*
X149411266Y-68120426D01*
X149411266Y-68120426D02*
X149379819Y-68183321D01*
X149379819Y-68183321D02*
X149348371Y-68214769D01*
X149348371Y-68214769D02*
X149285476Y-68246217D01*
X149285476Y-68246217D02*
X149159685Y-68246217D01*
X149159685Y-68246217D02*
X149096790Y-68277664D01*
X149096790Y-68277664D02*
X149065343Y-68309112D01*
X149065343Y-68309112D02*
X149033895Y-68372007D01*
X149033895Y-68372007D02*
X149033895Y-68497798D01*
X149033895Y-68497798D02*
X149065343Y-68560693D01*
X149065343Y-68560693D02*
X149096790Y-68592141D01*
X149096790Y-68592141D02*
X149159685Y-68623588D01*
X149159685Y-68623588D02*
X149285476Y-68623588D01*
X149285476Y-68623588D02*
X149348371Y-68592141D01*
X149348371Y-68592141D02*
X149379819Y-68560693D01*
X149379819Y-68560693D02*
X149411266Y-68497798D01*
X149411266Y-68497798D02*
X149411266Y-68372007D01*
X149411266Y-68372007D02*
X149379819Y-68309112D01*
X149379819Y-68309112D02*
X149348371Y-68277664D01*
X149348371Y-68277664D02*
X149285476Y-68246217D01*
X142527866Y-90315188D02*
X142527866Y-90786902D01*
X142527866Y-90786902D02*
X142496419Y-90881245D01*
X142496419Y-90881245D02*
X142433523Y-90944141D01*
X142433523Y-90944141D02*
X142339181Y-90975588D01*
X142339181Y-90975588D02*
X142276285Y-90975588D01*
X142873790Y-90975588D02*
X142999581Y-90975588D01*
X142999581Y-90975588D02*
X143062476Y-90944141D01*
X143062476Y-90944141D02*
X143093924Y-90912693D01*
X143093924Y-90912693D02*
X143156819Y-90818350D01*
X143156819Y-90818350D02*
X143188266Y-90692560D01*
X143188266Y-90692560D02*
X143188266Y-90440979D01*
X143188266Y-90440979D02*
X143156819Y-90378083D01*
X143156819Y-90378083D02*
X143125371Y-90346636D01*
X143125371Y-90346636D02*
X143062476Y-90315188D01*
X143062476Y-90315188D02*
X142936685Y-90315188D01*
X142936685Y-90315188D02*
X142873790Y-90346636D01*
X142873790Y-90346636D02*
X142842343Y-90378083D01*
X142842343Y-90378083D02*
X142810895Y-90440979D01*
X142810895Y-90440979D02*
X142810895Y-90598217D01*
X142810895Y-90598217D02*
X142842343Y-90661112D01*
X142842343Y-90661112D02*
X142873790Y-90692560D01*
X142873790Y-90692560D02*
X142936685Y-90724007D01*
X142936685Y-90724007D02*
X143062476Y-90724007D01*
X143062476Y-90724007D02*
X143125371Y-90692560D01*
X143125371Y-90692560D02*
X143156819Y-90661112D01*
X143156819Y-90661112D02*
X143188266Y-90598217D01*
X136164562Y-91229588D02*
X136164562Y-90569188D01*
X136164562Y-90569188D02*
X136321800Y-90569188D01*
X136321800Y-90569188D02*
X136416143Y-90600636D01*
X136416143Y-90600636D02*
X136479038Y-90663531D01*
X136479038Y-90663531D02*
X136510485Y-90726426D01*
X136510485Y-90726426D02*
X136541933Y-90852217D01*
X136541933Y-90852217D02*
X136541933Y-90946560D01*
X136541933Y-90946560D02*
X136510485Y-91072350D01*
X136510485Y-91072350D02*
X136479038Y-91135245D01*
X136479038Y-91135245D02*
X136416143Y-91198141D01*
X136416143Y-91198141D02*
X136321800Y-91229588D01*
X136321800Y-91229588D02*
X136164562Y-91229588D01*
X137170885Y-91229588D02*
X136793514Y-91229588D01*
X136982200Y-91229588D02*
X136982200Y-90569188D01*
X136982200Y-90569188D02*
X136919304Y-90663531D01*
X136919304Y-90663531D02*
X136856409Y-90726426D01*
X136856409Y-90726426D02*
X136793514Y-90757874D01*
D11*
X138600713Y-53383542D02*
X138286237Y-53603675D01*
X138600713Y-53760913D02*
X137940313Y-53760913D01*
X137940313Y-53760913D02*
X137940313Y-53509332D01*
X137940313Y-53509332D02*
X137971761Y-53446437D01*
X137971761Y-53446437D02*
X138003208Y-53414990D01*
X138003208Y-53414990D02*
X138066104Y-53383542D01*
X138066104Y-53383542D02*
X138160446Y-53383542D01*
X138160446Y-53383542D02*
X138223342Y-53414990D01*
X138223342Y-53414990D02*
X138254789Y-53446437D01*
X138254789Y-53446437D02*
X138286237Y-53509332D01*
X138286237Y-53509332D02*
X138286237Y-53760913D01*
X138600713Y-52754590D02*
X138600713Y-53131961D01*
X138600713Y-52943275D02*
X137940313Y-52943275D01*
X137940313Y-52943275D02*
X138034656Y-53006171D01*
X138034656Y-53006171D02*
X138097551Y-53069066D01*
X138097551Y-53069066D02*
X138128999Y-53131961D01*
X137940313Y-52188533D02*
X137940313Y-52314323D01*
X137940313Y-52314323D02*
X137971761Y-52377219D01*
X137971761Y-52377219D02*
X138003208Y-52408666D01*
X138003208Y-52408666D02*
X138097551Y-52471561D01*
X138097551Y-52471561D02*
X138223342Y-52503009D01*
X138223342Y-52503009D02*
X138474923Y-52503009D01*
X138474923Y-52503009D02*
X138537818Y-52471561D01*
X138537818Y-52471561D02*
X138569266Y-52440114D01*
X138569266Y-52440114D02*
X138600713Y-52377219D01*
X138600713Y-52377219D02*
X138600713Y-52251428D01*
X138600713Y-52251428D02*
X138569266Y-52188533D01*
X138569266Y-52188533D02*
X138537818Y-52157085D01*
X138537818Y-52157085D02*
X138474923Y-52125638D01*
X138474923Y-52125638D02*
X138317685Y-52125638D01*
X138317685Y-52125638D02*
X138254789Y-52157085D01*
X138254789Y-52157085D02*
X138223342Y-52188533D01*
X138223342Y-52188533D02*
X138191894Y-52251428D01*
X138191894Y-52251428D02*
X138191894Y-52377219D01*
X138191894Y-52377219D02*
X138223342Y-52440114D01*
X138223342Y-52440114D02*
X138254789Y-52471561D01*
X138254789Y-52471561D02*
X138317685Y-52503009D01*
X130826933Y-71354818D02*
X130795485Y-71386266D01*
X130795485Y-71386266D02*
X130701143Y-71417713D01*
X130701143Y-71417713D02*
X130638247Y-71417713D01*
X130638247Y-71417713D02*
X130543904Y-71386266D01*
X130543904Y-71386266D02*
X130481009Y-71323370D01*
X130481009Y-71323370D02*
X130449562Y-71260475D01*
X130449562Y-71260475D02*
X130418114Y-71134685D01*
X130418114Y-71134685D02*
X130418114Y-71040342D01*
X130418114Y-71040342D02*
X130449562Y-70914551D01*
X130449562Y-70914551D02*
X130481009Y-70851656D01*
X130481009Y-70851656D02*
X130543904Y-70788761D01*
X130543904Y-70788761D02*
X130638247Y-70757313D01*
X130638247Y-70757313D02*
X130701143Y-70757313D01*
X130701143Y-70757313D02*
X130795485Y-70788761D01*
X130795485Y-70788761D02*
X130826933Y-70820208D01*
X131392990Y-70757313D02*
X131267200Y-70757313D01*
X131267200Y-70757313D02*
X131204304Y-70788761D01*
X131204304Y-70788761D02*
X131172857Y-70820208D01*
X131172857Y-70820208D02*
X131109962Y-70914551D01*
X131109962Y-70914551D02*
X131078514Y-71040342D01*
X131078514Y-71040342D02*
X131078514Y-71291923D01*
X131078514Y-71291923D02*
X131109962Y-71354818D01*
X131109962Y-71354818D02*
X131141409Y-71386266D01*
X131141409Y-71386266D02*
X131204304Y-71417713D01*
X131204304Y-71417713D02*
X131330095Y-71417713D01*
X131330095Y-71417713D02*
X131392990Y-71386266D01*
X131392990Y-71386266D02*
X131424438Y-71354818D01*
X131424438Y-71354818D02*
X131455885Y-71291923D01*
X131455885Y-71291923D02*
X131455885Y-71134685D01*
X131455885Y-71134685D02*
X131424438Y-71071789D01*
X131424438Y-71071789D02*
X131392990Y-71040342D01*
X131392990Y-71040342D02*
X131330095Y-71008894D01*
X131330095Y-71008894D02*
X131204304Y-71008894D01*
X131204304Y-71008894D02*
X131141409Y-71040342D01*
X131141409Y-71040342D02*
X131109962Y-71071789D01*
X131109962Y-71071789D02*
X131078514Y-71134685D01*
X135338457Y-72687713D02*
X135118324Y-72373237D01*
X134961086Y-72687713D02*
X134961086Y-72027313D01*
X134961086Y-72027313D02*
X135212667Y-72027313D01*
X135212667Y-72027313D02*
X135275562Y-72058761D01*
X135275562Y-72058761D02*
X135307009Y-72090208D01*
X135307009Y-72090208D02*
X135338457Y-72153104D01*
X135338457Y-72153104D02*
X135338457Y-72247446D01*
X135338457Y-72247446D02*
X135307009Y-72310342D01*
X135307009Y-72310342D02*
X135275562Y-72341789D01*
X135275562Y-72341789D02*
X135212667Y-72373237D01*
X135212667Y-72373237D02*
X134961086Y-72373237D01*
X135590038Y-72090208D02*
X135621486Y-72058761D01*
X135621486Y-72058761D02*
X135684381Y-72027313D01*
X135684381Y-72027313D02*
X135841619Y-72027313D01*
X135841619Y-72027313D02*
X135904514Y-72058761D01*
X135904514Y-72058761D02*
X135935962Y-72090208D01*
X135935962Y-72090208D02*
X135967409Y-72153104D01*
X135967409Y-72153104D02*
X135967409Y-72215999D01*
X135967409Y-72215999D02*
X135935962Y-72310342D01*
X135935962Y-72310342D02*
X135558590Y-72687713D01*
X135558590Y-72687713D02*
X135967409Y-72687713D01*
X136596361Y-72687713D02*
X136218990Y-72687713D01*
X136407676Y-72687713D02*
X136407676Y-72027313D01*
X136407676Y-72027313D02*
X136344780Y-72121656D01*
X136344780Y-72121656D02*
X136281885Y-72184551D01*
X136281885Y-72184551D02*
X136218990Y-72215999D01*
D10*
X136918141Y-67047532D02*
X136949588Y-66953189D01*
X136949588Y-66953189D02*
X136949588Y-66795951D01*
X136949588Y-66795951D02*
X136918141Y-66733056D01*
X136918141Y-66733056D02*
X136886693Y-66701608D01*
X136886693Y-66701608D02*
X136823798Y-66670161D01*
X136823798Y-66670161D02*
X136760902Y-66670161D01*
X136760902Y-66670161D02*
X136698007Y-66701608D01*
X136698007Y-66701608D02*
X136666560Y-66733056D01*
X136666560Y-66733056D02*
X136635112Y-66795951D01*
X136635112Y-66795951D02*
X136603664Y-66921742D01*
X136603664Y-66921742D02*
X136572217Y-66984637D01*
X136572217Y-66984637D02*
X136540769Y-67016084D01*
X136540769Y-67016084D02*
X136477874Y-67047532D01*
X136477874Y-67047532D02*
X136414979Y-67047532D01*
X136414979Y-67047532D02*
X136352083Y-67016084D01*
X136352083Y-67016084D02*
X136320636Y-66984637D01*
X136320636Y-66984637D02*
X136289188Y-66921742D01*
X136289188Y-66921742D02*
X136289188Y-66764503D01*
X136289188Y-66764503D02*
X136320636Y-66670161D01*
X136289188Y-66450028D02*
X136949588Y-66292790D01*
X136949588Y-66292790D02*
X136477874Y-66166999D01*
X136477874Y-66166999D02*
X136949588Y-66041209D01*
X136949588Y-66041209D02*
X136289188Y-65883971D01*
X136949588Y-65286466D02*
X136949588Y-65663837D01*
X136949588Y-65475151D02*
X136289188Y-65475151D01*
X136289188Y-65475151D02*
X136383531Y-65538047D01*
X136383531Y-65538047D02*
X136446426Y-65600942D01*
X136446426Y-65600942D02*
X136477874Y-65663837D01*
X137045141Y-57014532D02*
X137076588Y-56920189D01*
X137076588Y-56920189D02*
X137076588Y-56762951D01*
X137076588Y-56762951D02*
X137045141Y-56700056D01*
X137045141Y-56700056D02*
X137013693Y-56668608D01*
X137013693Y-56668608D02*
X136950798Y-56637161D01*
X136950798Y-56637161D02*
X136887902Y-56637161D01*
X136887902Y-56637161D02*
X136825007Y-56668608D01*
X136825007Y-56668608D02*
X136793560Y-56700056D01*
X136793560Y-56700056D02*
X136762112Y-56762951D01*
X136762112Y-56762951D02*
X136730664Y-56888742D01*
X136730664Y-56888742D02*
X136699217Y-56951637D01*
X136699217Y-56951637D02*
X136667769Y-56983084D01*
X136667769Y-56983084D02*
X136604874Y-57014532D01*
X136604874Y-57014532D02*
X136541979Y-57014532D01*
X136541979Y-57014532D02*
X136479083Y-56983084D01*
X136479083Y-56983084D02*
X136447636Y-56951637D01*
X136447636Y-56951637D02*
X136416188Y-56888742D01*
X136416188Y-56888742D02*
X136416188Y-56731503D01*
X136416188Y-56731503D02*
X136447636Y-56637161D01*
X136416188Y-56417028D02*
X137076588Y-56259790D01*
X137076588Y-56259790D02*
X136604874Y-56133999D01*
X136604874Y-56133999D02*
X137076588Y-56008209D01*
X137076588Y-56008209D02*
X136416188Y-55850971D01*
X136479083Y-55630837D02*
X136447636Y-55599389D01*
X136447636Y-55599389D02*
X136416188Y-55536494D01*
X136416188Y-55536494D02*
X136416188Y-55379256D01*
X136416188Y-55379256D02*
X136447636Y-55316361D01*
X136447636Y-55316361D02*
X136479083Y-55284913D01*
X136479083Y-55284913D02*
X136541979Y-55253466D01*
X136541979Y-55253466D02*
X136604874Y-55253466D01*
X136604874Y-55253466D02*
X136699217Y-55284913D01*
X136699217Y-55284913D02*
X137076588Y-55662285D01*
X137076588Y-55662285D02*
X137076588Y-55253466D01*
D12*
X151335796Y-83735332D02*
X151335796Y-83955465D01*
X151681720Y-83955465D02*
X151021320Y-83955465D01*
X151021320Y-83955465D02*
X151021320Y-83640989D01*
X151335796Y-83169275D02*
X151367244Y-83074932D01*
X151367244Y-83074932D02*
X151398692Y-83043485D01*
X151398692Y-83043485D02*
X151461587Y-83012037D01*
X151461587Y-83012037D02*
X151555930Y-83012037D01*
X151555930Y-83012037D02*
X151618825Y-83043485D01*
X151618825Y-83043485D02*
X151650273Y-83074932D01*
X151650273Y-83074932D02*
X151681720Y-83137827D01*
X151681720Y-83137827D02*
X151681720Y-83389408D01*
X151681720Y-83389408D02*
X151021320Y-83389408D01*
X151021320Y-83389408D02*
X151021320Y-83169275D01*
X151021320Y-83169275D02*
X151052768Y-83106380D01*
X151052768Y-83106380D02*
X151084215Y-83074932D01*
X151084215Y-83074932D02*
X151147111Y-83043485D01*
X151147111Y-83043485D02*
X151210006Y-83043485D01*
X151210006Y-83043485D02*
X151272901Y-83074932D01*
X151272901Y-83074932D02*
X151304349Y-83106380D01*
X151304349Y-83106380D02*
X151335796Y-83169275D01*
X151335796Y-83169275D02*
X151335796Y-83389408D01*
X151681720Y-82383085D02*
X151681720Y-82760456D01*
X151681720Y-82571770D02*
X151021320Y-82571770D01*
X151021320Y-82571770D02*
X151115663Y-82634666D01*
X151115663Y-82634666D02*
X151178558Y-82697561D01*
X151178558Y-82697561D02*
X151210006Y-82760456D01*
D11*
X139304604Y-91226608D02*
X139241709Y-91195161D01*
X139241709Y-91195161D02*
X139178814Y-91132266D01*
X139178814Y-91132266D02*
X139084471Y-91037923D01*
X139084471Y-91037923D02*
X139021576Y-91006475D01*
X139021576Y-91006475D02*
X138958680Y-91006475D01*
X138990128Y-91163713D02*
X138927233Y-91132266D01*
X138927233Y-91132266D02*
X138864338Y-91069370D01*
X138864338Y-91069370D02*
X138832890Y-90943580D01*
X138832890Y-90943580D02*
X138832890Y-90723446D01*
X138832890Y-90723446D02*
X138864338Y-90597656D01*
X138864338Y-90597656D02*
X138927233Y-90534761D01*
X138927233Y-90534761D02*
X138990128Y-90503313D01*
X138990128Y-90503313D02*
X139115919Y-90503313D01*
X139115919Y-90503313D02*
X139178814Y-90534761D01*
X139178814Y-90534761D02*
X139241709Y-90597656D01*
X139241709Y-90597656D02*
X139273157Y-90723446D01*
X139273157Y-90723446D02*
X139273157Y-90943580D01*
X139273157Y-90943580D02*
X139241709Y-91069370D01*
X139241709Y-91069370D02*
X139178814Y-91132266D01*
X139178814Y-91132266D02*
X139115919Y-91163713D01*
X139115919Y-91163713D02*
X138990128Y-91163713D01*
X139902109Y-91163713D02*
X139524738Y-91163713D01*
X139713424Y-91163713D02*
X139713424Y-90503313D01*
X139713424Y-90503313D02*
X139650528Y-90597656D01*
X139650528Y-90597656D02*
X139587633Y-90660551D01*
X139587633Y-90660551D02*
X139524738Y-90691999D01*
X150868913Y-53003837D02*
X150208513Y-53003837D01*
X150208513Y-53003837D02*
X150208513Y-52846599D01*
X150208513Y-52846599D02*
X150239961Y-52752256D01*
X150239961Y-52752256D02*
X150302856Y-52689361D01*
X150302856Y-52689361D02*
X150365751Y-52657914D01*
X150365751Y-52657914D02*
X150491542Y-52626466D01*
X150491542Y-52626466D02*
X150585885Y-52626466D01*
X150585885Y-52626466D02*
X150711675Y-52657914D01*
X150711675Y-52657914D02*
X150774570Y-52689361D01*
X150774570Y-52689361D02*
X150837466Y-52752256D01*
X150837466Y-52752256D02*
X150868913Y-52846599D01*
X150868913Y-52846599D02*
X150868913Y-53003837D01*
X150208513Y-52028961D02*
X150208513Y-52343437D01*
X150208513Y-52343437D02*
X150522989Y-52374885D01*
X150522989Y-52374885D02*
X150491542Y-52343437D01*
X150491542Y-52343437D02*
X150460094Y-52280542D01*
X150460094Y-52280542D02*
X150460094Y-52123304D01*
X150460094Y-52123304D02*
X150491542Y-52060409D01*
X150491542Y-52060409D02*
X150522989Y-52028961D01*
X150522989Y-52028961D02*
X150585885Y-51997514D01*
X150585885Y-51997514D02*
X150743123Y-51997514D01*
X150743123Y-51997514D02*
X150806018Y-52028961D01*
X150806018Y-52028961D02*
X150837466Y-52060409D01*
X150837466Y-52060409D02*
X150868913Y-52123304D01*
X150868913Y-52123304D02*
X150868913Y-52280542D01*
X150868913Y-52280542D02*
X150837466Y-52343437D01*
X150837466Y-52343437D02*
X150806018Y-52374885D01*
D10*
X137267693Y-81069542D02*
X137299141Y-81100990D01*
X137299141Y-81100990D02*
X137330588Y-81195332D01*
X137330588Y-81195332D02*
X137330588Y-81258228D01*
X137330588Y-81258228D02*
X137299141Y-81352571D01*
X137299141Y-81352571D02*
X137236245Y-81415466D01*
X137236245Y-81415466D02*
X137173350Y-81446913D01*
X137173350Y-81446913D02*
X137047560Y-81478361D01*
X137047560Y-81478361D02*
X136953217Y-81478361D01*
X136953217Y-81478361D02*
X136827426Y-81446913D01*
X136827426Y-81446913D02*
X136764531Y-81415466D01*
X136764531Y-81415466D02*
X136701636Y-81352571D01*
X136701636Y-81352571D02*
X136670188Y-81258228D01*
X136670188Y-81258228D02*
X136670188Y-81195332D01*
X136670188Y-81195332D02*
X136701636Y-81100990D01*
X136701636Y-81100990D02*
X136733083Y-81069542D01*
X136733083Y-80817961D02*
X136701636Y-80786513D01*
X136701636Y-80786513D02*
X136670188Y-80723618D01*
X136670188Y-80723618D02*
X136670188Y-80566380D01*
X136670188Y-80566380D02*
X136701636Y-80503485D01*
X136701636Y-80503485D02*
X136733083Y-80472037D01*
X136733083Y-80472037D02*
X136795979Y-80440590D01*
X136795979Y-80440590D02*
X136858874Y-80440590D01*
X136858874Y-80440590D02*
X136953217Y-80472037D01*
X136953217Y-80472037D02*
X137330588Y-80849409D01*
X137330588Y-80849409D02*
X137330588Y-80440590D01*
X136733083Y-80189009D02*
X136701636Y-80157561D01*
X136701636Y-80157561D02*
X136670188Y-80094666D01*
X136670188Y-80094666D02*
X136670188Y-79937428D01*
X136670188Y-79937428D02*
X136701636Y-79874533D01*
X136701636Y-79874533D02*
X136733083Y-79843085D01*
X136733083Y-79843085D02*
X136795979Y-79811638D01*
X136795979Y-79811638D02*
X136858874Y-79811638D01*
X136858874Y-79811638D02*
X136953217Y-79843085D01*
X136953217Y-79843085D02*
X137330588Y-80220457D01*
X137330588Y-80220457D02*
X137330588Y-79811638D01*
D11*
X131401457Y-73322713D02*
X131181324Y-73008237D01*
X131024086Y-73322713D02*
X131024086Y-72662313D01*
X131024086Y-72662313D02*
X131275667Y-72662313D01*
X131275667Y-72662313D02*
X131338562Y-72693761D01*
X131338562Y-72693761D02*
X131370009Y-72725208D01*
X131370009Y-72725208D02*
X131401457Y-72788104D01*
X131401457Y-72788104D02*
X131401457Y-72882446D01*
X131401457Y-72882446D02*
X131370009Y-72945342D01*
X131370009Y-72945342D02*
X131338562Y-72976789D01*
X131338562Y-72976789D02*
X131275667Y-73008237D01*
X131275667Y-73008237D02*
X131024086Y-73008237D01*
X132030409Y-73322713D02*
X131653038Y-73322713D01*
X131841724Y-73322713D02*
X131841724Y-72662313D01*
X131841724Y-72662313D02*
X131778828Y-72756656D01*
X131778828Y-72756656D02*
X131715933Y-72819551D01*
X131715933Y-72819551D02*
X131653038Y-72850999D01*
X132439228Y-72662313D02*
X132502123Y-72662313D01*
X132502123Y-72662313D02*
X132565019Y-72693761D01*
X132565019Y-72693761D02*
X132596466Y-72725208D01*
X132596466Y-72725208D02*
X132627914Y-72788104D01*
X132627914Y-72788104D02*
X132659361Y-72913894D01*
X132659361Y-72913894D02*
X132659361Y-73071132D01*
X132659361Y-73071132D02*
X132627914Y-73196923D01*
X132627914Y-73196923D02*
X132596466Y-73259818D01*
X132596466Y-73259818D02*
X132565019Y-73291266D01*
X132565019Y-73291266D02*
X132502123Y-73322713D01*
X132502123Y-73322713D02*
X132439228Y-73322713D01*
X132439228Y-73322713D02*
X132376333Y-73291266D01*
X132376333Y-73291266D02*
X132344885Y-73259818D01*
X132344885Y-73259818D02*
X132313438Y-73196923D01*
X132313438Y-73196923D02*
X132281990Y-73071132D01*
X132281990Y-73071132D02*
X132281990Y-72913894D01*
X132281990Y-72913894D02*
X132313438Y-72788104D01*
X132313438Y-72788104D02*
X132344885Y-72725208D01*
X132344885Y-72725208D02*
X132376333Y-72693761D01*
X132376333Y-72693761D02*
X132439228Y-72662313D01*
X149332818Y-62654542D02*
X149364266Y-62685990D01*
X149364266Y-62685990D02*
X149395713Y-62780332D01*
X149395713Y-62780332D02*
X149395713Y-62843228D01*
X149395713Y-62843228D02*
X149364266Y-62937571D01*
X149364266Y-62937571D02*
X149301370Y-63000466D01*
X149301370Y-63000466D02*
X149238475Y-63031913D01*
X149238475Y-63031913D02*
X149112685Y-63063361D01*
X149112685Y-63063361D02*
X149018342Y-63063361D01*
X149018342Y-63063361D02*
X148892551Y-63031913D01*
X148892551Y-63031913D02*
X148829656Y-63000466D01*
X148829656Y-63000466D02*
X148766761Y-62937571D01*
X148766761Y-62937571D02*
X148735313Y-62843228D01*
X148735313Y-62843228D02*
X148735313Y-62780332D01*
X148735313Y-62780332D02*
X148766761Y-62685990D01*
X148766761Y-62685990D02*
X148798208Y-62654542D01*
X149395713Y-62025590D02*
X149395713Y-62402961D01*
X149395713Y-62214275D02*
X148735313Y-62214275D01*
X148735313Y-62214275D02*
X148829656Y-62277171D01*
X148829656Y-62277171D02*
X148892551Y-62340066D01*
X148892551Y-62340066D02*
X148923999Y-62402961D01*
X149395713Y-61711114D02*
X149395713Y-61585323D01*
X149395713Y-61585323D02*
X149364266Y-61522428D01*
X149364266Y-61522428D02*
X149332818Y-61490980D01*
X149332818Y-61490980D02*
X149238475Y-61428085D01*
X149238475Y-61428085D02*
X149112685Y-61396638D01*
X149112685Y-61396638D02*
X148861104Y-61396638D01*
X148861104Y-61396638D02*
X148798208Y-61428085D01*
X148798208Y-61428085D02*
X148766761Y-61459533D01*
X148766761Y-61459533D02*
X148735313Y-61522428D01*
X148735313Y-61522428D02*
X148735313Y-61648219D01*
X148735313Y-61648219D02*
X148766761Y-61711114D01*
X148766761Y-61711114D02*
X148798208Y-61742561D01*
X148798208Y-61742561D02*
X148861104Y-61774009D01*
X148861104Y-61774009D02*
X149018342Y-61774009D01*
X149018342Y-61774009D02*
X149081237Y-61742561D01*
X149081237Y-61742561D02*
X149112685Y-61711114D01*
X149112685Y-61711114D02*
X149144132Y-61648219D01*
X149144132Y-61648219D02*
X149144132Y-61522428D01*
X149144132Y-61522428D02*
X149112685Y-61459533D01*
X149112685Y-61459533D02*
X149081237Y-61428085D01*
X149081237Y-61428085D02*
X149018342Y-61396638D01*
X139419390Y-59073313D02*
X139419390Y-59545027D01*
X139419390Y-59545027D02*
X139387943Y-59639370D01*
X139387943Y-59639370D02*
X139325047Y-59702266D01*
X139325047Y-59702266D02*
X139230705Y-59733713D01*
X139230705Y-59733713D02*
X139167809Y-59733713D01*
X140079790Y-59733713D02*
X139702419Y-59733713D01*
X139891105Y-59733713D02*
X139891105Y-59073313D01*
X139891105Y-59073313D02*
X139828209Y-59167656D01*
X139828209Y-59167656D02*
X139765314Y-59230551D01*
X139765314Y-59230551D02*
X139702419Y-59261999D01*
X140488609Y-59073313D02*
X140551504Y-59073313D01*
X140551504Y-59073313D02*
X140614400Y-59104761D01*
X140614400Y-59104761D02*
X140645847Y-59136208D01*
X140645847Y-59136208D02*
X140677295Y-59199104D01*
X140677295Y-59199104D02*
X140708742Y-59324894D01*
X140708742Y-59324894D02*
X140708742Y-59482132D01*
X140708742Y-59482132D02*
X140677295Y-59607923D01*
X140677295Y-59607923D02*
X140645847Y-59670818D01*
X140645847Y-59670818D02*
X140614400Y-59702266D01*
X140614400Y-59702266D02*
X140551504Y-59733713D01*
X140551504Y-59733713D02*
X140488609Y-59733713D01*
X140488609Y-59733713D02*
X140425714Y-59702266D01*
X140425714Y-59702266D02*
X140394266Y-59670818D01*
X140394266Y-59670818D02*
X140362819Y-59607923D01*
X140362819Y-59607923D02*
X140331371Y-59482132D01*
X140331371Y-59482132D02*
X140331371Y-59324894D01*
X140331371Y-59324894D02*
X140362819Y-59199104D01*
X140362819Y-59199104D02*
X140394266Y-59136208D01*
X140394266Y-59136208D02*
X140425714Y-59104761D01*
X140425714Y-59104761D02*
X140488609Y-59073313D01*
X142537713Y-62654542D02*
X142223237Y-62874675D01*
X142537713Y-63031913D02*
X141877313Y-63031913D01*
X141877313Y-63031913D02*
X141877313Y-62780332D01*
X141877313Y-62780332D02*
X141908761Y-62717437D01*
X141908761Y-62717437D02*
X141940208Y-62685990D01*
X141940208Y-62685990D02*
X142003104Y-62654542D01*
X142003104Y-62654542D02*
X142097446Y-62654542D01*
X142097446Y-62654542D02*
X142160342Y-62685990D01*
X142160342Y-62685990D02*
X142191789Y-62717437D01*
X142191789Y-62717437D02*
X142223237Y-62780332D01*
X142223237Y-62780332D02*
X142223237Y-63031913D01*
X141940208Y-62402961D02*
X141908761Y-62371513D01*
X141908761Y-62371513D02*
X141877313Y-62308618D01*
X141877313Y-62308618D02*
X141877313Y-62151380D01*
X141877313Y-62151380D02*
X141908761Y-62088485D01*
X141908761Y-62088485D02*
X141940208Y-62057037D01*
X141940208Y-62057037D02*
X142003104Y-62025590D01*
X142003104Y-62025590D02*
X142065999Y-62025590D01*
X142065999Y-62025590D02*
X142160342Y-62057037D01*
X142160342Y-62057037D02*
X142537713Y-62434409D01*
X142537713Y-62434409D02*
X142537713Y-62025590D01*
X141877313Y-61805457D02*
X141877313Y-61396638D01*
X141877313Y-61396638D02*
X142128894Y-61616771D01*
X142128894Y-61616771D02*
X142128894Y-61522428D01*
X142128894Y-61522428D02*
X142160342Y-61459533D01*
X142160342Y-61459533D02*
X142191789Y-61428085D01*
X142191789Y-61428085D02*
X142254685Y-61396638D01*
X142254685Y-61396638D02*
X142411923Y-61396638D01*
X142411923Y-61396638D02*
X142474818Y-61428085D01*
X142474818Y-61428085D02*
X142506266Y-61459533D01*
X142506266Y-61459533D02*
X142537713Y-61522428D01*
X142537713Y-61522428D02*
X142537713Y-61711114D01*
X142537713Y-61711114D02*
X142506266Y-61774009D01*
X142506266Y-61774009D02*
X142474818Y-61805457D01*
D10*
X133069390Y-84473188D02*
X133509657Y-85133588D01*
X133509657Y-84473188D02*
X133069390Y-85133588D01*
X133729790Y-84536083D02*
X133761238Y-84504636D01*
X133761238Y-84504636D02*
X133824133Y-84473188D01*
X133824133Y-84473188D02*
X133981371Y-84473188D01*
X133981371Y-84473188D02*
X134044266Y-84504636D01*
X134044266Y-84504636D02*
X134075714Y-84536083D01*
X134075714Y-84536083D02*
X134107161Y-84598979D01*
X134107161Y-84598979D02*
X134107161Y-84661874D01*
X134107161Y-84661874D02*
X134075714Y-84756217D01*
X134075714Y-84756217D02*
X133698342Y-85133588D01*
X133698342Y-85133588D02*
X134107161Y-85133588D01*
D11*
X140442818Y-64245066D02*
X140474266Y-64276514D01*
X140474266Y-64276514D02*
X140505713Y-64370856D01*
X140505713Y-64370856D02*
X140505713Y-64433752D01*
X140505713Y-64433752D02*
X140474266Y-64528095D01*
X140474266Y-64528095D02*
X140411370Y-64590990D01*
X140411370Y-64590990D02*
X140348475Y-64622437D01*
X140348475Y-64622437D02*
X140222685Y-64653885D01*
X140222685Y-64653885D02*
X140128342Y-64653885D01*
X140128342Y-64653885D02*
X140002551Y-64622437D01*
X140002551Y-64622437D02*
X139939656Y-64590990D01*
X139939656Y-64590990D02*
X139876761Y-64528095D01*
X139876761Y-64528095D02*
X139845313Y-64433752D01*
X139845313Y-64433752D02*
X139845313Y-64370856D01*
X139845313Y-64370856D02*
X139876761Y-64276514D01*
X139876761Y-64276514D02*
X139908208Y-64245066D01*
X139845313Y-63647561D02*
X139845313Y-63962037D01*
X139845313Y-63962037D02*
X140159789Y-63993485D01*
X140159789Y-63993485D02*
X140128342Y-63962037D01*
X140128342Y-63962037D02*
X140096894Y-63899142D01*
X140096894Y-63899142D02*
X140096894Y-63741904D01*
X140096894Y-63741904D02*
X140128342Y-63679009D01*
X140128342Y-63679009D02*
X140159789Y-63647561D01*
X140159789Y-63647561D02*
X140222685Y-63616114D01*
X140222685Y-63616114D02*
X140379923Y-63616114D01*
X140379923Y-63616114D02*
X140442818Y-63647561D01*
X140442818Y-63647561D02*
X140474266Y-63679009D01*
X140474266Y-63679009D02*
X140505713Y-63741904D01*
X140505713Y-63741904D02*
X140505713Y-63899142D01*
X140505713Y-63899142D02*
X140474266Y-63962037D01*
X140474266Y-63962037D02*
X140442818Y-63993485D01*
X144061713Y-65575542D02*
X143747237Y-65795675D01*
X144061713Y-65952913D02*
X143401313Y-65952913D01*
X143401313Y-65952913D02*
X143401313Y-65701332D01*
X143401313Y-65701332D02*
X143432761Y-65638437D01*
X143432761Y-65638437D02*
X143464208Y-65606990D01*
X143464208Y-65606990D02*
X143527104Y-65575542D01*
X143527104Y-65575542D02*
X143621446Y-65575542D01*
X143621446Y-65575542D02*
X143684342Y-65606990D01*
X143684342Y-65606990D02*
X143715789Y-65638437D01*
X143715789Y-65638437D02*
X143747237Y-65701332D01*
X143747237Y-65701332D02*
X143747237Y-65952913D01*
X144061713Y-64946590D02*
X144061713Y-65323961D01*
X144061713Y-65135275D02*
X143401313Y-65135275D01*
X143401313Y-65135275D02*
X143495656Y-65198171D01*
X143495656Y-65198171D02*
X143558551Y-65261066D01*
X143558551Y-65261066D02*
X143589999Y-65323961D01*
X144061713Y-64632114D02*
X144061713Y-64506323D01*
X144061713Y-64506323D02*
X144030266Y-64443428D01*
X144030266Y-64443428D02*
X143998818Y-64411980D01*
X143998818Y-64411980D02*
X143904475Y-64349085D01*
X143904475Y-64349085D02*
X143778685Y-64317638D01*
X143778685Y-64317638D02*
X143527104Y-64317638D01*
X143527104Y-64317638D02*
X143464208Y-64349085D01*
X143464208Y-64349085D02*
X143432761Y-64380533D01*
X143432761Y-64380533D02*
X143401313Y-64443428D01*
X143401313Y-64443428D02*
X143401313Y-64569219D01*
X143401313Y-64569219D02*
X143432761Y-64632114D01*
X143432761Y-64632114D02*
X143464208Y-64663561D01*
X143464208Y-64663561D02*
X143527104Y-64695009D01*
X143527104Y-64695009D02*
X143684342Y-64695009D01*
X143684342Y-64695009D02*
X143747237Y-64663561D01*
X143747237Y-64663561D02*
X143778685Y-64632114D01*
X143778685Y-64632114D02*
X143810132Y-64569219D01*
X143810132Y-64569219D02*
X143810132Y-64443428D01*
X143810132Y-64443428D02*
X143778685Y-64380533D01*
X143778685Y-64380533D02*
X143747237Y-64349085D01*
X143747237Y-64349085D02*
X143684342Y-64317638D01*
X153764457Y-73119713D02*
X153544324Y-72805237D01*
X153387086Y-73119713D02*
X153387086Y-72459313D01*
X153387086Y-72459313D02*
X153638667Y-72459313D01*
X153638667Y-72459313D02*
X153701562Y-72490761D01*
X153701562Y-72490761D02*
X153733009Y-72522208D01*
X153733009Y-72522208D02*
X153764457Y-72585104D01*
X153764457Y-72585104D02*
X153764457Y-72679446D01*
X153764457Y-72679446D02*
X153733009Y-72742342D01*
X153733009Y-72742342D02*
X153701562Y-72773789D01*
X153701562Y-72773789D02*
X153638667Y-72805237D01*
X153638667Y-72805237D02*
X153387086Y-72805237D01*
X154393409Y-73119713D02*
X154016038Y-73119713D01*
X154204724Y-73119713D02*
X154204724Y-72459313D01*
X154204724Y-72459313D02*
X154141828Y-72553656D01*
X154141828Y-72553656D02*
X154078933Y-72616551D01*
X154078933Y-72616551D02*
X154016038Y-72647999D01*
X154959466Y-72679446D02*
X154959466Y-73119713D01*
X154802228Y-72427866D02*
X154644990Y-72899580D01*
X154644990Y-72899580D02*
X155053809Y-72899580D01*
X153666457Y-74211713D02*
X153446324Y-73897237D01*
X153289086Y-74211713D02*
X153289086Y-73551313D01*
X153289086Y-73551313D02*
X153540667Y-73551313D01*
X153540667Y-73551313D02*
X153603562Y-73582761D01*
X153603562Y-73582761D02*
X153635009Y-73614208D01*
X153635009Y-73614208D02*
X153666457Y-73677104D01*
X153666457Y-73677104D02*
X153666457Y-73771446D01*
X153666457Y-73771446D02*
X153635009Y-73834342D01*
X153635009Y-73834342D02*
X153603562Y-73865789D01*
X153603562Y-73865789D02*
X153540667Y-73897237D01*
X153540667Y-73897237D02*
X153289086Y-73897237D01*
X154295409Y-74211713D02*
X153918038Y-74211713D01*
X154106724Y-74211713D02*
X154106724Y-73551313D01*
X154106724Y-73551313D02*
X154043828Y-73645656D01*
X154043828Y-73645656D02*
X153980933Y-73708551D01*
X153980933Y-73708551D02*
X153918038Y-73739999D01*
X154924361Y-74211713D02*
X154546990Y-74211713D01*
X154735676Y-74211713D02*
X154735676Y-73551313D01*
X154735676Y-73551313D02*
X154672780Y-73645656D01*
X154672780Y-73645656D02*
X154609885Y-73708551D01*
X154609885Y-73708551D02*
X154546990Y-73739999D01*
X154018513Y-59927066D02*
X153704037Y-60147199D01*
X154018513Y-60304437D02*
X153358113Y-60304437D01*
X153358113Y-60304437D02*
X153358113Y-60052856D01*
X153358113Y-60052856D02*
X153389561Y-59989961D01*
X153389561Y-59989961D02*
X153421008Y-59958514D01*
X153421008Y-59958514D02*
X153483904Y-59927066D01*
X153483904Y-59927066D02*
X153578246Y-59927066D01*
X153578246Y-59927066D02*
X153641142Y-59958514D01*
X153641142Y-59958514D02*
X153672589Y-59989961D01*
X153672589Y-59989961D02*
X153704037Y-60052856D01*
X153704037Y-60052856D02*
X153704037Y-60304437D01*
X153358113Y-59706933D02*
X153358113Y-59266666D01*
X153358113Y-59266666D02*
X154018513Y-59549695D01*
X152392913Y-59927066D02*
X152078437Y-60147199D01*
X152392913Y-60304437D02*
X151732513Y-60304437D01*
X151732513Y-60304437D02*
X151732513Y-60052856D01*
X151732513Y-60052856D02*
X151763961Y-59989961D01*
X151763961Y-59989961D02*
X151795408Y-59958514D01*
X151795408Y-59958514D02*
X151858304Y-59927066D01*
X151858304Y-59927066D02*
X151952646Y-59927066D01*
X151952646Y-59927066D02*
X152015542Y-59958514D01*
X152015542Y-59958514D02*
X152046989Y-59989961D01*
X152046989Y-59989961D02*
X152078437Y-60052856D01*
X152078437Y-60052856D02*
X152078437Y-60304437D01*
X152015542Y-59549695D02*
X151984094Y-59612590D01*
X151984094Y-59612590D02*
X151952646Y-59644037D01*
X151952646Y-59644037D02*
X151889751Y-59675485D01*
X151889751Y-59675485D02*
X151858304Y-59675485D01*
X151858304Y-59675485D02*
X151795408Y-59644037D01*
X151795408Y-59644037D02*
X151763961Y-59612590D01*
X151763961Y-59612590D02*
X151732513Y-59549695D01*
X151732513Y-59549695D02*
X151732513Y-59423904D01*
X151732513Y-59423904D02*
X151763961Y-59361009D01*
X151763961Y-59361009D02*
X151795408Y-59329561D01*
X151795408Y-59329561D02*
X151858304Y-59298114D01*
X151858304Y-59298114D02*
X151889751Y-59298114D01*
X151889751Y-59298114D02*
X151952646Y-59329561D01*
X151952646Y-59329561D02*
X151984094Y-59361009D01*
X151984094Y-59361009D02*
X152015542Y-59423904D01*
X152015542Y-59423904D02*
X152015542Y-59549695D01*
X152015542Y-59549695D02*
X152046989Y-59612590D01*
X152046989Y-59612590D02*
X152078437Y-59644037D01*
X152078437Y-59644037D02*
X152141332Y-59675485D01*
X152141332Y-59675485D02*
X152267123Y-59675485D01*
X152267123Y-59675485D02*
X152330018Y-59644037D01*
X152330018Y-59644037D02*
X152361466Y-59612590D01*
X152361466Y-59612590D02*
X152392913Y-59549695D01*
X152392913Y-59549695D02*
X152392913Y-59423904D01*
X152392913Y-59423904D02*
X152361466Y-59361009D01*
X152361466Y-59361009D02*
X152330018Y-59329561D01*
X152330018Y-59329561D02*
X152267123Y-59298114D01*
X152267123Y-59298114D02*
X152141332Y-59298114D01*
X152141332Y-59298114D02*
X152078437Y-59329561D01*
X152078437Y-59329561D02*
X152046989Y-59361009D01*
X152046989Y-59361009D02*
X152015542Y-59423904D01*
X150130933Y-87737818D02*
X150099485Y-87769266D01*
X150099485Y-87769266D02*
X150005143Y-87800713D01*
X150005143Y-87800713D02*
X149942247Y-87800713D01*
X149942247Y-87800713D02*
X149847904Y-87769266D01*
X149847904Y-87769266D02*
X149785009Y-87706370D01*
X149785009Y-87706370D02*
X149753562Y-87643475D01*
X149753562Y-87643475D02*
X149722114Y-87517685D01*
X149722114Y-87517685D02*
X149722114Y-87423342D01*
X149722114Y-87423342D02*
X149753562Y-87297551D01*
X149753562Y-87297551D02*
X149785009Y-87234656D01*
X149785009Y-87234656D02*
X149847904Y-87171761D01*
X149847904Y-87171761D02*
X149942247Y-87140313D01*
X149942247Y-87140313D02*
X150005143Y-87140313D01*
X150005143Y-87140313D02*
X150099485Y-87171761D01*
X150099485Y-87171761D02*
X150130933Y-87203208D01*
X150759885Y-87800713D02*
X150382514Y-87800713D01*
X150571200Y-87800713D02*
X150571200Y-87140313D01*
X150571200Y-87140313D02*
X150508304Y-87234656D01*
X150508304Y-87234656D02*
X150445409Y-87297551D01*
X150445409Y-87297551D02*
X150382514Y-87328999D01*
X155542513Y-53003837D02*
X154882113Y-53003837D01*
X154882113Y-53003837D02*
X154882113Y-52846599D01*
X154882113Y-52846599D02*
X154913561Y-52752256D01*
X154913561Y-52752256D02*
X154976456Y-52689361D01*
X154976456Y-52689361D02*
X155039351Y-52657914D01*
X155039351Y-52657914D02*
X155165142Y-52626466D01*
X155165142Y-52626466D02*
X155259485Y-52626466D01*
X155259485Y-52626466D02*
X155385275Y-52657914D01*
X155385275Y-52657914D02*
X155448170Y-52689361D01*
X155448170Y-52689361D02*
X155511066Y-52752256D01*
X155511066Y-52752256D02*
X155542513Y-52846599D01*
X155542513Y-52846599D02*
X155542513Y-53003837D01*
X154945008Y-52374885D02*
X154913561Y-52343437D01*
X154913561Y-52343437D02*
X154882113Y-52280542D01*
X154882113Y-52280542D02*
X154882113Y-52123304D01*
X154882113Y-52123304D02*
X154913561Y-52060409D01*
X154913561Y-52060409D02*
X154945008Y-52028961D01*
X154945008Y-52028961D02*
X155007904Y-51997514D01*
X155007904Y-51997514D02*
X155070799Y-51997514D01*
X155070799Y-51997514D02*
X155165142Y-52028961D01*
X155165142Y-52028961D02*
X155542513Y-52406333D01*
X155542513Y-52406333D02*
X155542513Y-51997514D01*
X153666457Y-72179713D02*
X153446324Y-71865237D01*
X153289086Y-72179713D02*
X153289086Y-71519313D01*
X153289086Y-71519313D02*
X153540667Y-71519313D01*
X153540667Y-71519313D02*
X153603562Y-71550761D01*
X153603562Y-71550761D02*
X153635009Y-71582208D01*
X153635009Y-71582208D02*
X153666457Y-71645104D01*
X153666457Y-71645104D02*
X153666457Y-71739446D01*
X153666457Y-71739446D02*
X153635009Y-71802342D01*
X153635009Y-71802342D02*
X153603562Y-71833789D01*
X153603562Y-71833789D02*
X153540667Y-71865237D01*
X153540667Y-71865237D02*
X153289086Y-71865237D01*
X154295409Y-72179713D02*
X153918038Y-72179713D01*
X154106724Y-72179713D02*
X154106724Y-71519313D01*
X154106724Y-71519313D02*
X154043828Y-71613656D01*
X154043828Y-71613656D02*
X153980933Y-71676551D01*
X153980933Y-71676551D02*
X153918038Y-71707999D01*
X154892914Y-71519313D02*
X154578438Y-71519313D01*
X154578438Y-71519313D02*
X154546990Y-71833789D01*
X154546990Y-71833789D02*
X154578438Y-71802342D01*
X154578438Y-71802342D02*
X154641333Y-71770894D01*
X154641333Y-71770894D02*
X154798571Y-71770894D01*
X154798571Y-71770894D02*
X154861466Y-71802342D01*
X154861466Y-71802342D02*
X154892914Y-71833789D01*
X154892914Y-71833789D02*
X154924361Y-71896685D01*
X154924361Y-71896685D02*
X154924361Y-72053923D01*
X154924361Y-72053923D02*
X154892914Y-72116818D01*
X154892914Y-72116818D02*
X154861466Y-72148266D01*
X154861466Y-72148266D02*
X154798571Y-72179713D01*
X154798571Y-72179713D02*
X154641333Y-72179713D01*
X154641333Y-72179713D02*
X154578438Y-72148266D01*
X154578438Y-72148266D02*
X154546990Y-72116818D01*
X154829933Y-70465818D02*
X154798485Y-70497266D01*
X154798485Y-70497266D02*
X154704143Y-70528713D01*
X154704143Y-70528713D02*
X154641247Y-70528713D01*
X154641247Y-70528713D02*
X154546904Y-70497266D01*
X154546904Y-70497266D02*
X154484009Y-70434370D01*
X154484009Y-70434370D02*
X154452562Y-70371475D01*
X154452562Y-70371475D02*
X154421114Y-70245685D01*
X154421114Y-70245685D02*
X154421114Y-70151342D01*
X154421114Y-70151342D02*
X154452562Y-70025551D01*
X154452562Y-70025551D02*
X154484009Y-69962656D01*
X154484009Y-69962656D02*
X154546904Y-69899761D01*
X154546904Y-69899761D02*
X154641247Y-69868313D01*
X154641247Y-69868313D02*
X154704143Y-69868313D01*
X154704143Y-69868313D02*
X154798485Y-69899761D01*
X154798485Y-69899761D02*
X154829933Y-69931208D01*
X155395990Y-70088446D02*
X155395990Y-70528713D01*
X155238752Y-69836866D02*
X155081514Y-70308580D01*
X155081514Y-70308580D02*
X155490333Y-70308580D01*
X150919713Y-59927066D02*
X150605237Y-60147199D01*
X150919713Y-60304437D02*
X150259313Y-60304437D01*
X150259313Y-60304437D02*
X150259313Y-60052856D01*
X150259313Y-60052856D02*
X150290761Y-59989961D01*
X150290761Y-59989961D02*
X150322208Y-59958514D01*
X150322208Y-59958514D02*
X150385104Y-59927066D01*
X150385104Y-59927066D02*
X150479446Y-59927066D01*
X150479446Y-59927066D02*
X150542342Y-59958514D01*
X150542342Y-59958514D02*
X150573789Y-59989961D01*
X150573789Y-59989961D02*
X150605237Y-60052856D01*
X150605237Y-60052856D02*
X150605237Y-60304437D01*
X150919713Y-59612590D02*
X150919713Y-59486799D01*
X150919713Y-59486799D02*
X150888266Y-59423904D01*
X150888266Y-59423904D02*
X150856818Y-59392456D01*
X150856818Y-59392456D02*
X150762475Y-59329561D01*
X150762475Y-59329561D02*
X150636685Y-59298114D01*
X150636685Y-59298114D02*
X150385104Y-59298114D01*
X150385104Y-59298114D02*
X150322208Y-59329561D01*
X150322208Y-59329561D02*
X150290761Y-59361009D01*
X150290761Y-59361009D02*
X150259313Y-59423904D01*
X150259313Y-59423904D02*
X150259313Y-59549695D01*
X150259313Y-59549695D02*
X150290761Y-59612590D01*
X150290761Y-59612590D02*
X150322208Y-59644037D01*
X150322208Y-59644037D02*
X150385104Y-59675485D01*
X150385104Y-59675485D02*
X150542342Y-59675485D01*
X150542342Y-59675485D02*
X150605237Y-59644037D01*
X150605237Y-59644037D02*
X150636685Y-59612590D01*
X150636685Y-59612590D02*
X150668132Y-59549695D01*
X150668132Y-59549695D02*
X150668132Y-59423904D01*
X150668132Y-59423904D02*
X150636685Y-59361009D01*
X150636685Y-59361009D02*
X150605237Y-59329561D01*
X150605237Y-59329561D02*
X150542342Y-59298114D01*
X143553713Y-62086066D02*
X143239237Y-62306199D01*
X143553713Y-62463437D02*
X142893313Y-62463437D01*
X142893313Y-62463437D02*
X142893313Y-62211856D01*
X142893313Y-62211856D02*
X142924761Y-62148961D01*
X142924761Y-62148961D02*
X142956208Y-62117514D01*
X142956208Y-62117514D02*
X143019104Y-62086066D01*
X143019104Y-62086066D02*
X143113446Y-62086066D01*
X143113446Y-62086066D02*
X143176342Y-62117514D01*
X143176342Y-62117514D02*
X143207789Y-62148961D01*
X143207789Y-62148961D02*
X143239237Y-62211856D01*
X143239237Y-62211856D02*
X143239237Y-62463437D01*
X142893313Y-61865933D02*
X142893313Y-61457114D01*
X142893313Y-61457114D02*
X143144894Y-61677247D01*
X143144894Y-61677247D02*
X143144894Y-61582904D01*
X143144894Y-61582904D02*
X143176342Y-61520009D01*
X143176342Y-61520009D02*
X143207789Y-61488561D01*
X143207789Y-61488561D02*
X143270685Y-61457114D01*
X143270685Y-61457114D02*
X143427923Y-61457114D01*
X143427923Y-61457114D02*
X143490818Y-61488561D01*
X143490818Y-61488561D02*
X143522266Y-61520009D01*
X143522266Y-61520009D02*
X143553713Y-61582904D01*
X143553713Y-61582904D02*
X143553713Y-61771590D01*
X143553713Y-61771590D02*
X143522266Y-61834485D01*
X143522266Y-61834485D02*
X143490818Y-61865933D01*
X152356457Y-69195818D02*
X152325009Y-69227266D01*
X152325009Y-69227266D02*
X152230667Y-69258713D01*
X152230667Y-69258713D02*
X152167771Y-69258713D01*
X152167771Y-69258713D02*
X152073428Y-69227266D01*
X152073428Y-69227266D02*
X152010533Y-69164370D01*
X152010533Y-69164370D02*
X151979086Y-69101475D01*
X151979086Y-69101475D02*
X151947638Y-68975685D01*
X151947638Y-68975685D02*
X151947638Y-68881342D01*
X151947638Y-68881342D02*
X151979086Y-68755551D01*
X151979086Y-68755551D02*
X152010533Y-68692656D01*
X152010533Y-68692656D02*
X152073428Y-68629761D01*
X152073428Y-68629761D02*
X152167771Y-68598313D01*
X152167771Y-68598313D02*
X152230667Y-68598313D01*
X152230667Y-68598313D02*
X152325009Y-68629761D01*
X152325009Y-68629761D02*
X152356457Y-68661208D01*
X152985409Y-69258713D02*
X152608038Y-69258713D01*
X152796724Y-69258713D02*
X152796724Y-68598313D01*
X152796724Y-68598313D02*
X152733828Y-68692656D01*
X152733828Y-68692656D02*
X152670933Y-68755551D01*
X152670933Y-68755551D02*
X152608038Y-68786999D01*
X153582914Y-68598313D02*
X153268438Y-68598313D01*
X153268438Y-68598313D02*
X153236990Y-68912789D01*
X153236990Y-68912789D02*
X153268438Y-68881342D01*
X153268438Y-68881342D02*
X153331333Y-68849894D01*
X153331333Y-68849894D02*
X153488571Y-68849894D01*
X153488571Y-68849894D02*
X153551466Y-68881342D01*
X153551466Y-68881342D02*
X153582914Y-68912789D01*
X153582914Y-68912789D02*
X153614361Y-68975685D01*
X153614361Y-68975685D02*
X153614361Y-69132923D01*
X153614361Y-69132923D02*
X153582914Y-69195818D01*
X153582914Y-69195818D02*
X153551466Y-69227266D01*
X153551466Y-69227266D02*
X153488571Y-69258713D01*
X153488571Y-69258713D02*
X153331333Y-69258713D01*
X153331333Y-69258713D02*
X153268438Y-69227266D01*
X153268438Y-69227266D02*
X153236990Y-69195818D01*
X141832390Y-85870313D02*
X142272657Y-86530713D01*
X142272657Y-85870313D02*
X141832390Y-86530713D01*
X142870161Y-86530713D02*
X142492790Y-86530713D01*
X142681476Y-86530713D02*
X142681476Y-85870313D01*
X142681476Y-85870313D02*
X142618580Y-85964656D01*
X142618580Y-85964656D02*
X142555685Y-86027551D01*
X142555685Y-86027551D02*
X142492790Y-86058999D01*
X149840818Y-83422066D02*
X149872266Y-83453514D01*
X149872266Y-83453514D02*
X149903713Y-83547856D01*
X149903713Y-83547856D02*
X149903713Y-83610752D01*
X149903713Y-83610752D02*
X149872266Y-83705095D01*
X149872266Y-83705095D02*
X149809370Y-83767990D01*
X149809370Y-83767990D02*
X149746475Y-83799437D01*
X149746475Y-83799437D02*
X149620685Y-83830885D01*
X149620685Y-83830885D02*
X149526342Y-83830885D01*
X149526342Y-83830885D02*
X149400551Y-83799437D01*
X149400551Y-83799437D02*
X149337656Y-83767990D01*
X149337656Y-83767990D02*
X149274761Y-83705095D01*
X149274761Y-83705095D02*
X149243313Y-83610752D01*
X149243313Y-83610752D02*
X149243313Y-83547856D01*
X149243313Y-83547856D02*
X149274761Y-83453514D01*
X149274761Y-83453514D02*
X149306208Y-83422066D01*
X149306208Y-83170485D02*
X149274761Y-83139037D01*
X149274761Y-83139037D02*
X149243313Y-83076142D01*
X149243313Y-83076142D02*
X149243313Y-82918904D01*
X149243313Y-82918904D02*
X149274761Y-82856009D01*
X149274761Y-82856009D02*
X149306208Y-82824561D01*
X149306208Y-82824561D02*
X149369104Y-82793114D01*
X149369104Y-82793114D02*
X149431999Y-82793114D01*
X149431999Y-82793114D02*
X149526342Y-82824561D01*
X149526342Y-82824561D02*
X149903713Y-83201933D01*
X149903713Y-83201933D02*
X149903713Y-82793114D01*
X139807818Y-83549066D02*
X139839266Y-83580514D01*
X139839266Y-83580514D02*
X139870713Y-83674856D01*
X139870713Y-83674856D02*
X139870713Y-83737752D01*
X139870713Y-83737752D02*
X139839266Y-83832095D01*
X139839266Y-83832095D02*
X139776370Y-83894990D01*
X139776370Y-83894990D02*
X139713475Y-83926437D01*
X139713475Y-83926437D02*
X139587685Y-83957885D01*
X139587685Y-83957885D02*
X139493342Y-83957885D01*
X139493342Y-83957885D02*
X139367551Y-83926437D01*
X139367551Y-83926437D02*
X139304656Y-83894990D01*
X139304656Y-83894990D02*
X139241761Y-83832095D01*
X139241761Y-83832095D02*
X139210313Y-83737752D01*
X139210313Y-83737752D02*
X139210313Y-83674856D01*
X139210313Y-83674856D02*
X139241761Y-83580514D01*
X139241761Y-83580514D02*
X139273208Y-83549066D01*
X139493342Y-83171695D02*
X139461894Y-83234590D01*
X139461894Y-83234590D02*
X139430446Y-83266037D01*
X139430446Y-83266037D02*
X139367551Y-83297485D01*
X139367551Y-83297485D02*
X139336104Y-83297485D01*
X139336104Y-83297485D02*
X139273208Y-83266037D01*
X139273208Y-83266037D02*
X139241761Y-83234590D01*
X139241761Y-83234590D02*
X139210313Y-83171695D01*
X139210313Y-83171695D02*
X139210313Y-83045904D01*
X139210313Y-83045904D02*
X139241761Y-82983009D01*
X139241761Y-82983009D02*
X139273208Y-82951561D01*
X139273208Y-82951561D02*
X139336104Y-82920114D01*
X139336104Y-82920114D02*
X139367551Y-82920114D01*
X139367551Y-82920114D02*
X139430446Y-82951561D01*
X139430446Y-82951561D02*
X139461894Y-82983009D01*
X139461894Y-82983009D02*
X139493342Y-83045904D01*
X139493342Y-83045904D02*
X139493342Y-83171695D01*
X139493342Y-83171695D02*
X139524789Y-83234590D01*
X139524789Y-83234590D02*
X139556237Y-83266037D01*
X139556237Y-83266037D02*
X139619132Y-83297485D01*
X139619132Y-83297485D02*
X139744923Y-83297485D01*
X139744923Y-83297485D02*
X139807818Y-83266037D01*
X139807818Y-83266037D02*
X139839266Y-83234590D01*
X139839266Y-83234590D02*
X139870713Y-83171695D01*
X139870713Y-83171695D02*
X139870713Y-83045904D01*
X139870713Y-83045904D02*
X139839266Y-82983009D01*
X139839266Y-82983009D02*
X139807818Y-82951561D01*
X139807818Y-82951561D02*
X139744923Y-82920114D01*
X139744923Y-82920114D02*
X139619132Y-82920114D01*
X139619132Y-82920114D02*
X139556237Y-82951561D01*
X139556237Y-82951561D02*
X139524789Y-82983009D01*
X139524789Y-82983009D02*
X139493342Y-83045904D01*
X132076457Y-76497713D02*
X131856324Y-76183237D01*
X131699086Y-76497713D02*
X131699086Y-75837313D01*
X131699086Y-75837313D02*
X131950667Y-75837313D01*
X131950667Y-75837313D02*
X132013562Y-75868761D01*
X132013562Y-75868761D02*
X132045009Y-75900208D01*
X132045009Y-75900208D02*
X132076457Y-75963104D01*
X132076457Y-75963104D02*
X132076457Y-76057446D01*
X132076457Y-76057446D02*
X132045009Y-76120342D01*
X132045009Y-76120342D02*
X132013562Y-76151789D01*
X132013562Y-76151789D02*
X131950667Y-76183237D01*
X131950667Y-76183237D02*
X131699086Y-76183237D01*
X132705409Y-76497713D02*
X132328038Y-76497713D01*
X132516724Y-76497713D02*
X132516724Y-75837313D01*
X132516724Y-75837313D02*
X132453828Y-75931656D01*
X132453828Y-75931656D02*
X132390933Y-75994551D01*
X132390933Y-75994551D02*
X132328038Y-76025999D01*
X132925542Y-75837313D02*
X133334361Y-75837313D01*
X133334361Y-75837313D02*
X133114228Y-76088894D01*
X133114228Y-76088894D02*
X133208571Y-76088894D01*
X133208571Y-76088894D02*
X133271466Y-76120342D01*
X133271466Y-76120342D02*
X133302914Y-76151789D01*
X133302914Y-76151789D02*
X133334361Y-76214685D01*
X133334361Y-76214685D02*
X133334361Y-76371923D01*
X133334361Y-76371923D02*
X133302914Y-76434818D01*
X133302914Y-76434818D02*
X133271466Y-76466266D01*
X133271466Y-76466266D02*
X133208571Y-76497713D01*
X133208571Y-76497713D02*
X133019885Y-76497713D01*
X133019885Y-76497713D02*
X132956990Y-76466266D01*
X132956990Y-76466266D02*
X132925542Y-76434818D01*
X153984646Y-53003837D02*
X153324246Y-53003837D01*
X153324246Y-53003837D02*
X153324246Y-52846599D01*
X153324246Y-52846599D02*
X153355694Y-52752256D01*
X153355694Y-52752256D02*
X153418589Y-52689361D01*
X153418589Y-52689361D02*
X153481484Y-52657914D01*
X153481484Y-52657914D02*
X153607275Y-52626466D01*
X153607275Y-52626466D02*
X153701618Y-52626466D01*
X153701618Y-52626466D02*
X153827408Y-52657914D01*
X153827408Y-52657914D02*
X153890303Y-52689361D01*
X153890303Y-52689361D02*
X153953199Y-52752256D01*
X153953199Y-52752256D02*
X153984646Y-52846599D01*
X153984646Y-52846599D02*
X153984646Y-53003837D01*
X153324246Y-52406333D02*
X153324246Y-51997514D01*
X153324246Y-51997514D02*
X153575827Y-52217647D01*
X153575827Y-52217647D02*
X153575827Y-52123304D01*
X153575827Y-52123304D02*
X153607275Y-52060409D01*
X153607275Y-52060409D02*
X153638722Y-52028961D01*
X153638722Y-52028961D02*
X153701618Y-51997514D01*
X153701618Y-51997514D02*
X153858856Y-51997514D01*
X153858856Y-51997514D02*
X153921751Y-52028961D01*
X153921751Y-52028961D02*
X153953199Y-52060409D01*
X153953199Y-52060409D02*
X153984646Y-52123304D01*
X153984646Y-52123304D02*
X153984646Y-52311990D01*
X153984646Y-52311990D02*
X153953199Y-52374885D01*
X153953199Y-52374885D02*
X153921751Y-52406333D01*
D10*
X153412457Y-77958693D02*
X153381009Y-77990141D01*
X153381009Y-77990141D02*
X153286667Y-78021588D01*
X153286667Y-78021588D02*
X153223771Y-78021588D01*
X153223771Y-78021588D02*
X153129428Y-77990141D01*
X153129428Y-77990141D02*
X153066533Y-77927245D01*
X153066533Y-77927245D02*
X153035086Y-77864350D01*
X153035086Y-77864350D02*
X153003638Y-77738560D01*
X153003638Y-77738560D02*
X153003638Y-77644217D01*
X153003638Y-77644217D02*
X153035086Y-77518426D01*
X153035086Y-77518426D02*
X153066533Y-77455531D01*
X153066533Y-77455531D02*
X153129428Y-77392636D01*
X153129428Y-77392636D02*
X153223771Y-77361188D01*
X153223771Y-77361188D02*
X153286667Y-77361188D01*
X153286667Y-77361188D02*
X153381009Y-77392636D01*
X153381009Y-77392636D02*
X153412457Y-77424083D01*
X154041409Y-78021588D02*
X153664038Y-78021588D01*
X153852724Y-78021588D02*
X153852724Y-77361188D01*
X153852724Y-77361188D02*
X153789828Y-77455531D01*
X153789828Y-77455531D02*
X153726933Y-77518426D01*
X153726933Y-77518426D02*
X153664038Y-77549874D01*
X154292990Y-77424083D02*
X154324438Y-77392636D01*
X154324438Y-77392636D02*
X154387333Y-77361188D01*
X154387333Y-77361188D02*
X154544571Y-77361188D01*
X154544571Y-77361188D02*
X154607466Y-77392636D01*
X154607466Y-77392636D02*
X154638914Y-77424083D01*
X154638914Y-77424083D02*
X154670361Y-77486979D01*
X154670361Y-77486979D02*
X154670361Y-77549874D01*
X154670361Y-77549874D02*
X154638914Y-77644217D01*
X154638914Y-77644217D02*
X154261542Y-78021588D01*
X154261542Y-78021588D02*
X154670361Y-78021588D01*
D11*
X131655457Y-80371818D02*
X131624009Y-80403266D01*
X131624009Y-80403266D02*
X131529667Y-80434713D01*
X131529667Y-80434713D02*
X131466771Y-80434713D01*
X131466771Y-80434713D02*
X131372428Y-80403266D01*
X131372428Y-80403266D02*
X131309533Y-80340370D01*
X131309533Y-80340370D02*
X131278086Y-80277475D01*
X131278086Y-80277475D02*
X131246638Y-80151685D01*
X131246638Y-80151685D02*
X131246638Y-80057342D01*
X131246638Y-80057342D02*
X131278086Y-79931551D01*
X131278086Y-79931551D02*
X131309533Y-79868656D01*
X131309533Y-79868656D02*
X131372428Y-79805761D01*
X131372428Y-79805761D02*
X131466771Y-79774313D01*
X131466771Y-79774313D02*
X131529667Y-79774313D01*
X131529667Y-79774313D02*
X131624009Y-79805761D01*
X131624009Y-79805761D02*
X131655457Y-79837208D01*
X132284409Y-80434713D02*
X131907038Y-80434713D01*
X132095724Y-80434713D02*
X132095724Y-79774313D01*
X132095724Y-79774313D02*
X132032828Y-79868656D01*
X132032828Y-79868656D02*
X131969933Y-79931551D01*
X131969933Y-79931551D02*
X131907038Y-79962999D01*
X132850466Y-79774313D02*
X132724676Y-79774313D01*
X132724676Y-79774313D02*
X132661780Y-79805761D01*
X132661780Y-79805761D02*
X132630333Y-79837208D01*
X132630333Y-79837208D02*
X132567438Y-79931551D01*
X132567438Y-79931551D02*
X132535990Y-80057342D01*
X132535990Y-80057342D02*
X132535990Y-80308923D01*
X132535990Y-80308923D02*
X132567438Y-80371818D01*
X132567438Y-80371818D02*
X132598885Y-80403266D01*
X132598885Y-80403266D02*
X132661780Y-80434713D01*
X132661780Y-80434713D02*
X132787571Y-80434713D01*
X132787571Y-80434713D02*
X132850466Y-80403266D01*
X132850466Y-80403266D02*
X132881914Y-80371818D01*
X132881914Y-80371818D02*
X132913361Y-80308923D01*
X132913361Y-80308923D02*
X132913361Y-80151685D01*
X132913361Y-80151685D02*
X132881914Y-80088789D01*
X132881914Y-80088789D02*
X132850466Y-80057342D01*
X132850466Y-80057342D02*
X132787571Y-80025894D01*
X132787571Y-80025894D02*
X132661780Y-80025894D01*
X132661780Y-80025894D02*
X132598885Y-80057342D01*
X132598885Y-80057342D02*
X132567438Y-80088789D01*
X132567438Y-80088789D02*
X132535990Y-80151685D01*
X147300818Y-62654542D02*
X147332266Y-62685990D01*
X147332266Y-62685990D02*
X147363713Y-62780332D01*
X147363713Y-62780332D02*
X147363713Y-62843228D01*
X147363713Y-62843228D02*
X147332266Y-62937571D01*
X147332266Y-62937571D02*
X147269370Y-63000466D01*
X147269370Y-63000466D02*
X147206475Y-63031913D01*
X147206475Y-63031913D02*
X147080685Y-63063361D01*
X147080685Y-63063361D02*
X146986342Y-63063361D01*
X146986342Y-63063361D02*
X146860551Y-63031913D01*
X146860551Y-63031913D02*
X146797656Y-63000466D01*
X146797656Y-63000466D02*
X146734761Y-62937571D01*
X146734761Y-62937571D02*
X146703313Y-62843228D01*
X146703313Y-62843228D02*
X146703313Y-62780332D01*
X146703313Y-62780332D02*
X146734761Y-62685990D01*
X146734761Y-62685990D02*
X146766208Y-62654542D01*
X146766208Y-62402961D02*
X146734761Y-62371513D01*
X146734761Y-62371513D02*
X146703313Y-62308618D01*
X146703313Y-62308618D02*
X146703313Y-62151380D01*
X146703313Y-62151380D02*
X146734761Y-62088485D01*
X146734761Y-62088485D02*
X146766208Y-62057037D01*
X146766208Y-62057037D02*
X146829104Y-62025590D01*
X146829104Y-62025590D02*
X146891999Y-62025590D01*
X146891999Y-62025590D02*
X146986342Y-62057037D01*
X146986342Y-62057037D02*
X147363713Y-62434409D01*
X147363713Y-62434409D02*
X147363713Y-62025590D01*
X146703313Y-61805457D02*
X146703313Y-61396638D01*
X146703313Y-61396638D02*
X146954894Y-61616771D01*
X146954894Y-61616771D02*
X146954894Y-61522428D01*
X146954894Y-61522428D02*
X146986342Y-61459533D01*
X146986342Y-61459533D02*
X147017789Y-61428085D01*
X147017789Y-61428085D02*
X147080685Y-61396638D01*
X147080685Y-61396638D02*
X147237923Y-61396638D01*
X147237923Y-61396638D02*
X147300818Y-61428085D01*
X147300818Y-61428085D02*
X147332266Y-61459533D01*
X147332266Y-61459533D02*
X147363713Y-61522428D01*
X147363713Y-61522428D02*
X147363713Y-61711114D01*
X147363713Y-61711114D02*
X147332266Y-61774009D01*
X147332266Y-61774009D02*
X147300818Y-61805457D01*
X144669933Y-86213818D02*
X144638485Y-86245266D01*
X144638485Y-86245266D02*
X144544143Y-86276713D01*
X144544143Y-86276713D02*
X144481247Y-86276713D01*
X144481247Y-86276713D02*
X144386904Y-86245266D01*
X144386904Y-86245266D02*
X144324009Y-86182370D01*
X144324009Y-86182370D02*
X144292562Y-86119475D01*
X144292562Y-86119475D02*
X144261114Y-85993685D01*
X144261114Y-85993685D02*
X144261114Y-85899342D01*
X144261114Y-85899342D02*
X144292562Y-85773551D01*
X144292562Y-85773551D02*
X144324009Y-85710656D01*
X144324009Y-85710656D02*
X144386904Y-85647761D01*
X144386904Y-85647761D02*
X144481247Y-85616313D01*
X144481247Y-85616313D02*
X144544143Y-85616313D01*
X144544143Y-85616313D02*
X144638485Y-85647761D01*
X144638485Y-85647761D02*
X144669933Y-85679208D01*
X144890066Y-85616313D02*
X145330333Y-85616313D01*
X145330333Y-85616313D02*
X145047304Y-86276713D01*
X138854713Y-84311066D02*
X138540237Y-84531199D01*
X138854713Y-84688437D02*
X138194313Y-84688437D01*
X138194313Y-84688437D02*
X138194313Y-84436856D01*
X138194313Y-84436856D02*
X138225761Y-84373961D01*
X138225761Y-84373961D02*
X138257208Y-84342514D01*
X138257208Y-84342514D02*
X138320104Y-84311066D01*
X138320104Y-84311066D02*
X138414446Y-84311066D01*
X138414446Y-84311066D02*
X138477342Y-84342514D01*
X138477342Y-84342514D02*
X138508789Y-84373961D01*
X138508789Y-84373961D02*
X138540237Y-84436856D01*
X138540237Y-84436856D02*
X138540237Y-84688437D01*
X138854713Y-83682114D02*
X138854713Y-84059485D01*
X138854713Y-83870799D02*
X138194313Y-83870799D01*
X138194313Y-83870799D02*
X138288656Y-83933695D01*
X138288656Y-83933695D02*
X138351551Y-83996590D01*
X138351551Y-83996590D02*
X138382999Y-84059485D01*
X148761838Y-80663313D02*
X148761838Y-81197923D01*
X148761838Y-81197923D02*
X148793285Y-81260818D01*
X148793285Y-81260818D02*
X148824733Y-81292266D01*
X148824733Y-81292266D02*
X148887628Y-81323713D01*
X148887628Y-81323713D02*
X149013419Y-81323713D01*
X149013419Y-81323713D02*
X149076314Y-81292266D01*
X149076314Y-81292266D02*
X149107761Y-81260818D01*
X149107761Y-81260818D02*
X149139209Y-81197923D01*
X149139209Y-81197923D02*
X149139209Y-80663313D01*
X149799609Y-81323713D02*
X149422238Y-81323713D01*
X149610924Y-81323713D02*
X149610924Y-80663313D01*
X149610924Y-80663313D02*
X149548028Y-80757656D01*
X149548028Y-80757656D02*
X149485133Y-80820551D01*
X149485133Y-80820551D02*
X149422238Y-80851999D01*
X132076457Y-77513713D02*
X131856324Y-77199237D01*
X131699086Y-77513713D02*
X131699086Y-76853313D01*
X131699086Y-76853313D02*
X131950667Y-76853313D01*
X131950667Y-76853313D02*
X132013562Y-76884761D01*
X132013562Y-76884761D02*
X132045009Y-76916208D01*
X132045009Y-76916208D02*
X132076457Y-76979104D01*
X132076457Y-76979104D02*
X132076457Y-77073446D01*
X132076457Y-77073446D02*
X132045009Y-77136342D01*
X132045009Y-77136342D02*
X132013562Y-77167789D01*
X132013562Y-77167789D02*
X131950667Y-77199237D01*
X131950667Y-77199237D02*
X131699086Y-77199237D01*
X132328038Y-76916208D02*
X132359486Y-76884761D01*
X132359486Y-76884761D02*
X132422381Y-76853313D01*
X132422381Y-76853313D02*
X132579619Y-76853313D01*
X132579619Y-76853313D02*
X132642514Y-76884761D01*
X132642514Y-76884761D02*
X132673962Y-76916208D01*
X132673962Y-76916208D02*
X132705409Y-76979104D01*
X132705409Y-76979104D02*
X132705409Y-77041999D01*
X132705409Y-77041999D02*
X132673962Y-77136342D01*
X132673962Y-77136342D02*
X132296590Y-77513713D01*
X132296590Y-77513713D02*
X132705409Y-77513713D01*
X132956990Y-76916208D02*
X132988438Y-76884761D01*
X132988438Y-76884761D02*
X133051333Y-76853313D01*
X133051333Y-76853313D02*
X133208571Y-76853313D01*
X133208571Y-76853313D02*
X133271466Y-76884761D01*
X133271466Y-76884761D02*
X133302914Y-76916208D01*
X133302914Y-76916208D02*
X133334361Y-76979104D01*
X133334361Y-76979104D02*
X133334361Y-77041999D01*
X133334361Y-77041999D02*
X133302914Y-77136342D01*
X133302914Y-77136342D02*
X132925542Y-77513713D01*
X132925542Y-77513713D02*
X133334361Y-77513713D01*
X148379713Y-62654542D02*
X148065237Y-62874675D01*
X148379713Y-63031913D02*
X147719313Y-63031913D01*
X147719313Y-63031913D02*
X147719313Y-62780332D01*
X147719313Y-62780332D02*
X147750761Y-62717437D01*
X147750761Y-62717437D02*
X147782208Y-62685990D01*
X147782208Y-62685990D02*
X147845104Y-62654542D01*
X147845104Y-62654542D02*
X147939446Y-62654542D01*
X147939446Y-62654542D02*
X148002342Y-62685990D01*
X148002342Y-62685990D02*
X148033789Y-62717437D01*
X148033789Y-62717437D02*
X148065237Y-62780332D01*
X148065237Y-62780332D02*
X148065237Y-63031913D01*
X148379713Y-62025590D02*
X148379713Y-62402961D01*
X148379713Y-62214275D02*
X147719313Y-62214275D01*
X147719313Y-62214275D02*
X147813656Y-62277171D01*
X147813656Y-62277171D02*
X147876551Y-62340066D01*
X147876551Y-62340066D02*
X147907999Y-62402961D01*
X148002342Y-61648219D02*
X147970894Y-61711114D01*
X147970894Y-61711114D02*
X147939446Y-61742561D01*
X147939446Y-61742561D02*
X147876551Y-61774009D01*
X147876551Y-61774009D02*
X147845104Y-61774009D01*
X147845104Y-61774009D02*
X147782208Y-61742561D01*
X147782208Y-61742561D02*
X147750761Y-61711114D01*
X147750761Y-61711114D02*
X147719313Y-61648219D01*
X147719313Y-61648219D02*
X147719313Y-61522428D01*
X147719313Y-61522428D02*
X147750761Y-61459533D01*
X147750761Y-61459533D02*
X147782208Y-61428085D01*
X147782208Y-61428085D02*
X147845104Y-61396638D01*
X147845104Y-61396638D02*
X147876551Y-61396638D01*
X147876551Y-61396638D02*
X147939446Y-61428085D01*
X147939446Y-61428085D02*
X147970894Y-61459533D01*
X147970894Y-61459533D02*
X148002342Y-61522428D01*
X148002342Y-61522428D02*
X148002342Y-61648219D01*
X148002342Y-61648219D02*
X148033789Y-61711114D01*
X148033789Y-61711114D02*
X148065237Y-61742561D01*
X148065237Y-61742561D02*
X148128132Y-61774009D01*
X148128132Y-61774009D02*
X148253923Y-61774009D01*
X148253923Y-61774009D02*
X148316818Y-61742561D01*
X148316818Y-61742561D02*
X148348266Y-61711114D01*
X148348266Y-61711114D02*
X148379713Y-61648219D01*
X148379713Y-61648219D02*
X148379713Y-61522428D01*
X148379713Y-61522428D02*
X148348266Y-61459533D01*
X148348266Y-61459533D02*
X148316818Y-61428085D01*
X148316818Y-61428085D02*
X148253923Y-61396638D01*
X148253923Y-61396638D02*
X148128132Y-61396638D01*
X148128132Y-61396638D02*
X148065237Y-61428085D01*
X148065237Y-61428085D02*
X148033789Y-61459533D01*
X148033789Y-61459533D02*
X148002342Y-61522428D01*
X153701618Y-83422066D02*
X153733066Y-83453514D01*
X153733066Y-83453514D02*
X153764513Y-83547856D01*
X153764513Y-83547856D02*
X153764513Y-83610752D01*
X153764513Y-83610752D02*
X153733066Y-83705095D01*
X153733066Y-83705095D02*
X153670170Y-83767990D01*
X153670170Y-83767990D02*
X153607275Y-83799437D01*
X153607275Y-83799437D02*
X153481485Y-83830885D01*
X153481485Y-83830885D02*
X153387142Y-83830885D01*
X153387142Y-83830885D02*
X153261351Y-83799437D01*
X153261351Y-83799437D02*
X153198456Y-83767990D01*
X153198456Y-83767990D02*
X153135561Y-83705095D01*
X153135561Y-83705095D02*
X153104113Y-83610752D01*
X153104113Y-83610752D02*
X153104113Y-83547856D01*
X153104113Y-83547856D02*
X153135561Y-83453514D01*
X153135561Y-83453514D02*
X153167008Y-83422066D01*
X153764513Y-82793114D02*
X153764513Y-83170485D01*
X153764513Y-82981799D02*
X153104113Y-82981799D01*
X153104113Y-82981799D02*
X153198456Y-83044695D01*
X153198456Y-83044695D02*
X153261351Y-83107590D01*
X153261351Y-83107590D02*
X153292799Y-83170485D01*
X153104113Y-82572981D02*
X153104113Y-82132714D01*
X153104113Y-82132714D02*
X153764513Y-82415743D01*
X145585713Y-62654542D02*
X145271237Y-62874675D01*
X145585713Y-63031913D02*
X144925313Y-63031913D01*
X144925313Y-63031913D02*
X144925313Y-62780332D01*
X144925313Y-62780332D02*
X144956761Y-62717437D01*
X144956761Y-62717437D02*
X144988208Y-62685990D01*
X144988208Y-62685990D02*
X145051104Y-62654542D01*
X145051104Y-62654542D02*
X145145446Y-62654542D01*
X145145446Y-62654542D02*
X145208342Y-62685990D01*
X145208342Y-62685990D02*
X145239789Y-62717437D01*
X145239789Y-62717437D02*
X145271237Y-62780332D01*
X145271237Y-62780332D02*
X145271237Y-63031913D01*
X144988208Y-62402961D02*
X144956761Y-62371513D01*
X144956761Y-62371513D02*
X144925313Y-62308618D01*
X144925313Y-62308618D02*
X144925313Y-62151380D01*
X144925313Y-62151380D02*
X144956761Y-62088485D01*
X144956761Y-62088485D02*
X144988208Y-62057037D01*
X144988208Y-62057037D02*
X145051104Y-62025590D01*
X145051104Y-62025590D02*
X145113999Y-62025590D01*
X145113999Y-62025590D02*
X145208342Y-62057037D01*
X145208342Y-62057037D02*
X145585713Y-62434409D01*
X145585713Y-62434409D02*
X145585713Y-62025590D01*
X145145446Y-61459533D02*
X145585713Y-61459533D01*
X144893866Y-61616771D02*
X145365580Y-61774009D01*
X145365580Y-61774009D02*
X145365580Y-61365190D01*
X157259866Y-69647313D02*
X157259866Y-70119027D01*
X157259866Y-70119027D02*
X157228419Y-70213370D01*
X157228419Y-70213370D02*
X157165523Y-70276266D01*
X157165523Y-70276266D02*
X157071181Y-70307713D01*
X157071181Y-70307713D02*
X157008285Y-70307713D01*
X157920266Y-70307713D02*
X157542895Y-70307713D01*
X157731581Y-70307713D02*
X157731581Y-69647313D01*
X157731581Y-69647313D02*
X157668685Y-69741656D01*
X157668685Y-69741656D02*
X157605790Y-69804551D01*
X157605790Y-69804551D02*
X157542895Y-69835999D01*
X132211838Y-90696313D02*
X132211838Y-91230923D01*
X132211838Y-91230923D02*
X132243285Y-91293818D01*
X132243285Y-91293818D02*
X132274733Y-91325266D01*
X132274733Y-91325266D02*
X132337628Y-91356713D01*
X132337628Y-91356713D02*
X132463419Y-91356713D01*
X132463419Y-91356713D02*
X132526314Y-91325266D01*
X132526314Y-91325266D02*
X132557761Y-91293818D01*
X132557761Y-91293818D02*
X132589209Y-91230923D01*
X132589209Y-91230923D02*
X132589209Y-90696313D01*
X132840790Y-90696313D02*
X133249609Y-90696313D01*
X133249609Y-90696313D02*
X133029476Y-90947894D01*
X133029476Y-90947894D02*
X133123819Y-90947894D01*
X133123819Y-90947894D02*
X133186714Y-90979342D01*
X133186714Y-90979342D02*
X133218162Y-91010789D01*
X133218162Y-91010789D02*
X133249609Y-91073685D01*
X133249609Y-91073685D02*
X133249609Y-91230923D01*
X133249609Y-91230923D02*
X133218162Y-91293818D01*
X133218162Y-91293818D02*
X133186714Y-91325266D01*
X133186714Y-91325266D02*
X133123819Y-91356713D01*
X133123819Y-91356713D02*
X132935133Y-91356713D01*
X132935133Y-91356713D02*
X132872238Y-91325266D01*
X132872238Y-91325266D02*
X132840790Y-91293818D01*
X131528457Y-75100713D02*
X131308324Y-74786237D01*
X131151086Y-75100713D02*
X131151086Y-74440313D01*
X131151086Y-74440313D02*
X131402667Y-74440313D01*
X131402667Y-74440313D02*
X131465562Y-74471761D01*
X131465562Y-74471761D02*
X131497009Y-74503208D01*
X131497009Y-74503208D02*
X131528457Y-74566104D01*
X131528457Y-74566104D02*
X131528457Y-74660446D01*
X131528457Y-74660446D02*
X131497009Y-74723342D01*
X131497009Y-74723342D02*
X131465562Y-74754789D01*
X131465562Y-74754789D02*
X131402667Y-74786237D01*
X131402667Y-74786237D02*
X131151086Y-74786237D01*
X132157409Y-75100713D02*
X131780038Y-75100713D01*
X131968724Y-75100713D02*
X131968724Y-74440313D01*
X131968724Y-74440313D02*
X131905828Y-74534656D01*
X131905828Y-74534656D02*
X131842933Y-74597551D01*
X131842933Y-74597551D02*
X131780038Y-74628999D01*
X132408990Y-74503208D02*
X132440438Y-74471761D01*
X132440438Y-74471761D02*
X132503333Y-74440313D01*
X132503333Y-74440313D02*
X132660571Y-74440313D01*
X132660571Y-74440313D02*
X132723466Y-74471761D01*
X132723466Y-74471761D02*
X132754914Y-74503208D01*
X132754914Y-74503208D02*
X132786361Y-74566104D01*
X132786361Y-74566104D02*
X132786361Y-74628999D01*
X132786361Y-74628999D02*
X132754914Y-74723342D01*
X132754914Y-74723342D02*
X132377542Y-75100713D01*
X132377542Y-75100713D02*
X132786361Y-75100713D01*
D10*
X155198838Y-88791188D02*
X155198838Y-89325798D01*
X155198838Y-89325798D02*
X155230285Y-89388693D01*
X155230285Y-89388693D02*
X155261733Y-89420141D01*
X155261733Y-89420141D02*
X155324628Y-89451588D01*
X155324628Y-89451588D02*
X155450419Y-89451588D01*
X155450419Y-89451588D02*
X155513314Y-89420141D01*
X155513314Y-89420141D02*
X155544761Y-89388693D01*
X155544761Y-89388693D02*
X155576209Y-89325798D01*
X155576209Y-89325798D02*
X155576209Y-88791188D01*
X155859238Y-88854083D02*
X155890686Y-88822636D01*
X155890686Y-88822636D02*
X155953581Y-88791188D01*
X155953581Y-88791188D02*
X156110819Y-88791188D01*
X156110819Y-88791188D02*
X156173714Y-88822636D01*
X156173714Y-88822636D02*
X156205162Y-88854083D01*
X156205162Y-88854083D02*
X156236609Y-88916979D01*
X156236609Y-88916979D02*
X156236609Y-88979874D01*
X156236609Y-88979874D02*
X156205162Y-89074217D01*
X156205162Y-89074217D02*
X155827790Y-89451588D01*
X155827790Y-89451588D02*
X156236609Y-89451588D01*
D11*
X152426780Y-53003837D02*
X151766380Y-53003837D01*
X151766380Y-53003837D02*
X151766380Y-52846599D01*
X151766380Y-52846599D02*
X151797828Y-52752256D01*
X151797828Y-52752256D02*
X151860723Y-52689361D01*
X151860723Y-52689361D02*
X151923618Y-52657914D01*
X151923618Y-52657914D02*
X152049409Y-52626466D01*
X152049409Y-52626466D02*
X152143752Y-52626466D01*
X152143752Y-52626466D02*
X152269542Y-52657914D01*
X152269542Y-52657914D02*
X152332437Y-52689361D01*
X152332437Y-52689361D02*
X152395333Y-52752256D01*
X152395333Y-52752256D02*
X152426780Y-52846599D01*
X152426780Y-52846599D02*
X152426780Y-53003837D01*
X151986513Y-52060409D02*
X152426780Y-52060409D01*
X151734933Y-52217647D02*
X152206647Y-52374885D01*
X152206647Y-52374885D02*
X152206647Y-51966066D01*
X146347713Y-64499066D02*
X146033237Y-64719199D01*
X146347713Y-64876437D02*
X145687313Y-64876437D01*
X145687313Y-64876437D02*
X145687313Y-64624856D01*
X145687313Y-64624856D02*
X145718761Y-64561961D01*
X145718761Y-64561961D02*
X145750208Y-64530514D01*
X145750208Y-64530514D02*
X145813104Y-64499066D01*
X145813104Y-64499066D02*
X145907446Y-64499066D01*
X145907446Y-64499066D02*
X145970342Y-64530514D01*
X145970342Y-64530514D02*
X146001789Y-64561961D01*
X146001789Y-64561961D02*
X146033237Y-64624856D01*
X146033237Y-64624856D02*
X146033237Y-64876437D01*
X145750208Y-64247485D02*
X145718761Y-64216037D01*
X145718761Y-64216037D02*
X145687313Y-64153142D01*
X145687313Y-64153142D02*
X145687313Y-63995904D01*
X145687313Y-63995904D02*
X145718761Y-63933009D01*
X145718761Y-63933009D02*
X145750208Y-63901561D01*
X145750208Y-63901561D02*
X145813104Y-63870114D01*
X145813104Y-63870114D02*
X145875999Y-63870114D01*
X145875999Y-63870114D02*
X145970342Y-63901561D01*
X145970342Y-63901561D02*
X146347713Y-64278933D01*
X146347713Y-64278933D02*
X146347713Y-63870114D01*
X132076457Y-78974818D02*
X132045009Y-79006266D01*
X132045009Y-79006266D02*
X131950667Y-79037713D01*
X131950667Y-79037713D02*
X131887771Y-79037713D01*
X131887771Y-79037713D02*
X131793428Y-79006266D01*
X131793428Y-79006266D02*
X131730533Y-78943370D01*
X131730533Y-78943370D02*
X131699086Y-78880475D01*
X131699086Y-78880475D02*
X131667638Y-78754685D01*
X131667638Y-78754685D02*
X131667638Y-78660342D01*
X131667638Y-78660342D02*
X131699086Y-78534551D01*
X131699086Y-78534551D02*
X131730533Y-78471656D01*
X131730533Y-78471656D02*
X131793428Y-78408761D01*
X131793428Y-78408761D02*
X131887771Y-78377313D01*
X131887771Y-78377313D02*
X131950667Y-78377313D01*
X131950667Y-78377313D02*
X132045009Y-78408761D01*
X132045009Y-78408761D02*
X132076457Y-78440208D01*
X132705409Y-79037713D02*
X132328038Y-79037713D01*
X132516724Y-79037713D02*
X132516724Y-78377313D01*
X132516724Y-78377313D02*
X132453828Y-78471656D01*
X132453828Y-78471656D02*
X132390933Y-78534551D01*
X132390933Y-78534551D02*
X132328038Y-78565999D01*
X132925542Y-78377313D02*
X133334361Y-78377313D01*
X133334361Y-78377313D02*
X133114228Y-78628894D01*
X133114228Y-78628894D02*
X133208571Y-78628894D01*
X133208571Y-78628894D02*
X133271466Y-78660342D01*
X133271466Y-78660342D02*
X133302914Y-78691789D01*
X133302914Y-78691789D02*
X133334361Y-78754685D01*
X133334361Y-78754685D02*
X133334361Y-78911923D01*
X133334361Y-78911923D02*
X133302914Y-78974818D01*
X133302914Y-78974818D02*
X133271466Y-79006266D01*
X133271466Y-79006266D02*
X133208571Y-79037713D01*
X133208571Y-79037713D02*
X133019885Y-79037713D01*
X133019885Y-79037713D02*
X132956990Y-79006266D01*
X132956990Y-79006266D02*
X132925542Y-78974818D01*
X151213457Y-80498818D02*
X151182009Y-80530266D01*
X151182009Y-80530266D02*
X151087667Y-80561713D01*
X151087667Y-80561713D02*
X151024771Y-80561713D01*
X151024771Y-80561713D02*
X150930428Y-80530266D01*
X150930428Y-80530266D02*
X150867533Y-80467370D01*
X150867533Y-80467370D02*
X150836086Y-80404475D01*
X150836086Y-80404475D02*
X150804638Y-80278685D01*
X150804638Y-80278685D02*
X150804638Y-80184342D01*
X150804638Y-80184342D02*
X150836086Y-80058551D01*
X150836086Y-80058551D02*
X150867533Y-79995656D01*
X150867533Y-79995656D02*
X150930428Y-79932761D01*
X150930428Y-79932761D02*
X151024771Y-79901313D01*
X151024771Y-79901313D02*
X151087667Y-79901313D01*
X151087667Y-79901313D02*
X151182009Y-79932761D01*
X151182009Y-79932761D02*
X151213457Y-79964208D01*
X151842409Y-80561713D02*
X151465038Y-80561713D01*
X151653724Y-80561713D02*
X151653724Y-79901313D01*
X151653724Y-79901313D02*
X151590828Y-79995656D01*
X151590828Y-79995656D02*
X151527933Y-80058551D01*
X151527933Y-80058551D02*
X151465038Y-80089999D01*
X152219780Y-80184342D02*
X152156885Y-80152894D01*
X152156885Y-80152894D02*
X152125438Y-80121446D01*
X152125438Y-80121446D02*
X152093990Y-80058551D01*
X152093990Y-80058551D02*
X152093990Y-80027104D01*
X152093990Y-80027104D02*
X152125438Y-79964208D01*
X152125438Y-79964208D02*
X152156885Y-79932761D01*
X152156885Y-79932761D02*
X152219780Y-79901313D01*
X152219780Y-79901313D02*
X152345571Y-79901313D01*
X152345571Y-79901313D02*
X152408466Y-79932761D01*
X152408466Y-79932761D02*
X152439914Y-79964208D01*
X152439914Y-79964208D02*
X152471361Y-80027104D01*
X152471361Y-80027104D02*
X152471361Y-80058551D01*
X152471361Y-80058551D02*
X152439914Y-80121446D01*
X152439914Y-80121446D02*
X152408466Y-80152894D01*
X152408466Y-80152894D02*
X152345571Y-80184342D01*
X152345571Y-80184342D02*
X152219780Y-80184342D01*
X152219780Y-80184342D02*
X152156885Y-80215789D01*
X152156885Y-80215789D02*
X152125438Y-80247237D01*
X152125438Y-80247237D02*
X152093990Y-80310132D01*
X152093990Y-80310132D02*
X152093990Y-80435923D01*
X152093990Y-80435923D02*
X152125438Y-80498818D01*
X152125438Y-80498818D02*
X152156885Y-80530266D01*
X152156885Y-80530266D02*
X152219780Y-80561713D01*
X152219780Y-80561713D02*
X152345571Y-80561713D01*
X152345571Y-80561713D02*
X152408466Y-80530266D01*
X152408466Y-80530266D02*
X152439914Y-80498818D01*
X152439914Y-80498818D02*
X152471361Y-80435923D01*
X152471361Y-80435923D02*
X152471361Y-80310132D01*
X152471361Y-80310132D02*
X152439914Y-80247237D01*
X152439914Y-80247237D02*
X152408466Y-80215789D01*
X152408466Y-80215789D02*
X152345571Y-80184342D01*
X155593313Y-59927066D02*
X155278837Y-60147199D01*
X155593313Y-60304437D02*
X154932913Y-60304437D01*
X154932913Y-60304437D02*
X154932913Y-60052856D01*
X154932913Y-60052856D02*
X154964361Y-59989961D01*
X154964361Y-59989961D02*
X154995808Y-59958514D01*
X154995808Y-59958514D02*
X155058704Y-59927066D01*
X155058704Y-59927066D02*
X155153046Y-59927066D01*
X155153046Y-59927066D02*
X155215942Y-59958514D01*
X155215942Y-59958514D02*
X155247389Y-59989961D01*
X155247389Y-59989961D02*
X155278837Y-60052856D01*
X155278837Y-60052856D02*
X155278837Y-60304437D01*
X154932913Y-59361009D02*
X154932913Y-59486799D01*
X154932913Y-59486799D02*
X154964361Y-59549695D01*
X154964361Y-59549695D02*
X154995808Y-59581142D01*
X154995808Y-59581142D02*
X155090151Y-59644037D01*
X155090151Y-59644037D02*
X155215942Y-59675485D01*
X155215942Y-59675485D02*
X155467523Y-59675485D01*
X155467523Y-59675485D02*
X155530418Y-59644037D01*
X155530418Y-59644037D02*
X155561866Y-59612590D01*
X155561866Y-59612590D02*
X155593313Y-59549695D01*
X155593313Y-59549695D02*
X155593313Y-59423904D01*
X155593313Y-59423904D02*
X155561866Y-59361009D01*
X155561866Y-59361009D02*
X155530418Y-59329561D01*
X155530418Y-59329561D02*
X155467523Y-59298114D01*
X155467523Y-59298114D02*
X155310285Y-59298114D01*
X155310285Y-59298114D02*
X155247389Y-59329561D01*
X155247389Y-59329561D02*
X155215942Y-59361009D01*
X155215942Y-59361009D02*
X155184494Y-59423904D01*
X155184494Y-59423904D02*
X155184494Y-59549695D01*
X155184494Y-59549695D02*
X155215942Y-59612590D01*
X155215942Y-59612590D02*
X155247389Y-59644037D01*
X155247389Y-59644037D02*
X155310285Y-59675485D01*
X132290457Y-81895818D02*
X132259009Y-81927266D01*
X132259009Y-81927266D02*
X132164667Y-81958713D01*
X132164667Y-81958713D02*
X132101771Y-81958713D01*
X132101771Y-81958713D02*
X132007428Y-81927266D01*
X132007428Y-81927266D02*
X131944533Y-81864370D01*
X131944533Y-81864370D02*
X131913086Y-81801475D01*
X131913086Y-81801475D02*
X131881638Y-81675685D01*
X131881638Y-81675685D02*
X131881638Y-81581342D01*
X131881638Y-81581342D02*
X131913086Y-81455551D01*
X131913086Y-81455551D02*
X131944533Y-81392656D01*
X131944533Y-81392656D02*
X132007428Y-81329761D01*
X132007428Y-81329761D02*
X132101771Y-81298313D01*
X132101771Y-81298313D02*
X132164667Y-81298313D01*
X132164667Y-81298313D02*
X132259009Y-81329761D01*
X132259009Y-81329761D02*
X132290457Y-81361208D01*
X132919409Y-81958713D02*
X132542038Y-81958713D01*
X132730724Y-81958713D02*
X132730724Y-81298313D01*
X132730724Y-81298313D02*
X132667828Y-81392656D01*
X132667828Y-81392656D02*
X132604933Y-81455551D01*
X132604933Y-81455551D02*
X132542038Y-81486999D01*
X133548361Y-81958713D02*
X133170990Y-81958713D01*
X133359676Y-81958713D02*
X133359676Y-81298313D01*
X133359676Y-81298313D02*
X133296780Y-81392656D01*
X133296780Y-81392656D02*
X133233885Y-81455551D01*
X133233885Y-81455551D02*
X133170990Y-81486999D01*
D10*
X136227457Y-86721693D02*
X136196009Y-86753141D01*
X136196009Y-86753141D02*
X136101667Y-86784588D01*
X136101667Y-86784588D02*
X136038771Y-86784588D01*
X136038771Y-86784588D02*
X135944428Y-86753141D01*
X135944428Y-86753141D02*
X135881533Y-86690245D01*
X135881533Y-86690245D02*
X135850086Y-86627350D01*
X135850086Y-86627350D02*
X135818638Y-86501560D01*
X135818638Y-86501560D02*
X135818638Y-86407217D01*
X135818638Y-86407217D02*
X135850086Y-86281426D01*
X135850086Y-86281426D02*
X135881533Y-86218531D01*
X135881533Y-86218531D02*
X135944428Y-86155636D01*
X135944428Y-86155636D02*
X136038771Y-86124188D01*
X136038771Y-86124188D02*
X136101667Y-86124188D01*
X136101667Y-86124188D02*
X136196009Y-86155636D01*
X136196009Y-86155636D02*
X136227457Y-86187083D01*
X136479038Y-86187083D02*
X136510486Y-86155636D01*
X136510486Y-86155636D02*
X136573381Y-86124188D01*
X136573381Y-86124188D02*
X136730619Y-86124188D01*
X136730619Y-86124188D02*
X136793514Y-86155636D01*
X136793514Y-86155636D02*
X136824962Y-86187083D01*
X136824962Y-86187083D02*
X136856409Y-86249979D01*
X136856409Y-86249979D02*
X136856409Y-86312874D01*
X136856409Y-86312874D02*
X136824962Y-86407217D01*
X136824962Y-86407217D02*
X136447590Y-86784588D01*
X136447590Y-86784588D02*
X136856409Y-86784588D01*
X137485361Y-86784588D02*
X137107990Y-86784588D01*
X137296676Y-86784588D02*
X137296676Y-86124188D01*
X137296676Y-86124188D02*
X137233780Y-86218531D01*
X137233780Y-86218531D02*
X137170885Y-86281426D01*
X137170885Y-86281426D02*
X137107990Y-86312874D01*
D11*
X144569713Y-62086066D02*
X144255237Y-62306199D01*
X144569713Y-62463437D02*
X143909313Y-62463437D01*
X143909313Y-62463437D02*
X143909313Y-62211856D01*
X143909313Y-62211856D02*
X143940761Y-62148961D01*
X143940761Y-62148961D02*
X143972208Y-62117514D01*
X143972208Y-62117514D02*
X144035104Y-62086066D01*
X144035104Y-62086066D02*
X144129446Y-62086066D01*
X144129446Y-62086066D02*
X144192342Y-62117514D01*
X144192342Y-62117514D02*
X144223789Y-62148961D01*
X144223789Y-62148961D02*
X144255237Y-62211856D01*
X144255237Y-62211856D02*
X144255237Y-62463437D01*
X144129446Y-61520009D02*
X144569713Y-61520009D01*
X143877866Y-61677247D02*
X144349580Y-61834485D01*
X144349580Y-61834485D02*
X144349580Y-61425666D01*
X138918818Y-65194542D02*
X138950266Y-65225990D01*
X138950266Y-65225990D02*
X138981713Y-65320332D01*
X138981713Y-65320332D02*
X138981713Y-65383228D01*
X138981713Y-65383228D02*
X138950266Y-65477571D01*
X138950266Y-65477571D02*
X138887370Y-65540466D01*
X138887370Y-65540466D02*
X138824475Y-65571913D01*
X138824475Y-65571913D02*
X138698685Y-65603361D01*
X138698685Y-65603361D02*
X138604342Y-65603361D01*
X138604342Y-65603361D02*
X138478551Y-65571913D01*
X138478551Y-65571913D02*
X138415656Y-65540466D01*
X138415656Y-65540466D02*
X138352761Y-65477571D01*
X138352761Y-65477571D02*
X138321313Y-65383228D01*
X138321313Y-65383228D02*
X138321313Y-65320332D01*
X138321313Y-65320332D02*
X138352761Y-65225990D01*
X138352761Y-65225990D02*
X138384208Y-65194542D01*
X138981713Y-64565590D02*
X138981713Y-64942961D01*
X138981713Y-64754275D02*
X138321313Y-64754275D01*
X138321313Y-64754275D02*
X138415656Y-64817171D01*
X138415656Y-64817171D02*
X138478551Y-64880066D01*
X138478551Y-64880066D02*
X138509999Y-64942961D01*
X138541446Y-63999533D02*
X138981713Y-63999533D01*
X138289866Y-64156771D02*
X138761580Y-64314009D01*
X138761580Y-64314009D02*
X138761580Y-63905190D01*
D13*
%TO.C,J8*%
X155762000Y-62424000D02*
X149732000Y-62424000D01*
X153162000Y-67624000D02*
X148022000Y-67624000D01*
X148022000Y-63794000D02*
X148022000Y-67624000D01*
X153162000Y-65024000D02*
X153162000Y-67624000D01*
X155762000Y-62424000D02*
X155762000Y-65024000D01*
X155762000Y-65024000D02*
X153162000Y-65024000D01*
X155762000Y-66294000D02*
X155762000Y-67624000D01*
X155762000Y-67624000D02*
X154432000Y-67624000D01*
D14*
%TO.C,J9*%
X143527000Y-90788000D02*
X143527000Y-89408000D01*
X144907000Y-90788000D02*
X143527000Y-90788000D01*
X146177000Y-90788000D02*
X148827000Y-90788000D01*
X146177000Y-90788000D02*
X146177000Y-88028000D01*
X148827000Y-90788000D02*
X148827000Y-88028000D01*
X146177000Y-88028000D02*
X148827000Y-88028000D01*
%TO.C,D1*%
X136056000Y-90290000D02*
X137756000Y-90290000D01*
X136056000Y-90290000D02*
X136056000Y-87630000D01*
X137756000Y-90290000D02*
X137756000Y-87630000D01*
D13*
%TO.C,R16*%
X136780000Y-53112641D02*
X136780000Y-52805359D01*
X137540000Y-53112641D02*
X137540000Y-52805359D01*
%TO.C,C6*%
X132695836Y-71734000D02*
X132480164Y-71734000D01*
X132695836Y-71014000D02*
X132480164Y-71014000D01*
%TO.C,R21*%
X134593359Y-70994000D02*
X134900641Y-70994000D01*
X134593359Y-71754000D02*
X134900641Y-71754000D01*
D14*
%TO.C,SW1*%
X135974000Y-63416000D02*
X135574000Y-63416000D01*
X135974000Y-63416000D02*
X135974000Y-68156000D01*
X132574000Y-63416000D02*
X134634000Y-63416000D01*
X131234000Y-63416000D02*
X131634000Y-63416000D01*
X131234000Y-63416000D02*
X131234000Y-68156000D01*
X135974000Y-68156000D02*
X135574000Y-68156000D01*
X132574000Y-68156000D02*
X134634000Y-68156000D01*
X131234000Y-68156000D02*
X131634000Y-68156000D01*
%TO.C,SW2*%
X135974000Y-53637000D02*
X135574000Y-53637000D01*
X135974000Y-53637000D02*
X135974000Y-58377000D01*
X132574000Y-53637000D02*
X134634000Y-53637000D01*
X131234000Y-53637000D02*
X131634000Y-53637000D01*
X131234000Y-53637000D02*
X131234000Y-58377000D01*
X135974000Y-58377000D02*
X135574000Y-58377000D01*
X132574000Y-58377000D02*
X134634000Y-58377000D01*
X131234000Y-58377000D02*
X131634000Y-58377000D01*
D13*
%TO.C,Q1*%
X140637500Y-87020000D02*
X139987500Y-87020000D01*
X140637500Y-87020000D02*
X141287500Y-87020000D01*
X140637500Y-90140000D02*
X139987500Y-90140000D01*
X140637500Y-90140000D02*
X141287500Y-90140000D01*
X139475000Y-87070000D02*
X139235000Y-86740000D01*
X139715000Y-86740000D01*
X139475000Y-87070000D01*
G36*
X139475000Y-87070000D02*
G01*
X139235000Y-86740000D01*
X139715000Y-86740000D01*
X139475000Y-87070000D01*
G37*
D14*
%TO.C,D5*%
X149887000Y-53379000D02*
X149887000Y-55664000D01*
X151357000Y-53379000D02*
X149887000Y-53379000D01*
X151357000Y-55664000D02*
X151357000Y-53379000D01*
%TO.C,C22*%
X136673000Y-82657836D02*
X136673000Y-82442164D01*
X137393000Y-82657836D02*
X137393000Y-82442164D01*
D13*
%TO.C,R10*%
X133884641Y-72645000D02*
X133577359Y-72645000D01*
X133884641Y-73405000D02*
X133577359Y-73405000D01*
%TO.C,C19*%
X148738000Y-60090164D02*
X148738000Y-60305836D01*
X149458000Y-60090164D02*
X149458000Y-60305836D01*
%TO.C,J10*%
X139348000Y-54202000D02*
X139348000Y-55902000D01*
X148688000Y-54202000D02*
X148688000Y-55902000D01*
%TO.C,R23*%
X141860000Y-60044359D02*
X141860000Y-60351641D01*
X142620000Y-60044359D02*
X142620000Y-60351641D01*
D14*
%TO.C,X2*%
X134395000Y-82364000D02*
X134395000Y-85334000D01*
X136115000Y-82364000D02*
X134395000Y-82364000D01*
X136115000Y-85334000D02*
X136115000Y-82364000D01*
D13*
%TO.C,C5*%
X139571000Y-66434580D02*
X139571000Y-66153420D01*
X140591000Y-66434580D02*
X140591000Y-66153420D01*
%TO.C,R19*%
X142368000Y-65632359D02*
X142368000Y-65939641D01*
X143128000Y-65632359D02*
X143128000Y-65939641D01*
%TO.C,R14*%
X152212641Y-72518000D02*
X151905359Y-72518000D01*
X152212641Y-73278000D02*
X151905359Y-73278000D01*
%TO.C,R11*%
X151905359Y-73534000D02*
X152212641Y-73534000D01*
X151905359Y-74294000D02*
X152212641Y-74294000D01*
%TO.C,R7*%
X153340800Y-58359641D02*
X153340800Y-58052359D01*
X154100800Y-58359641D02*
X154100800Y-58052359D01*
%TO.C,R8*%
X151766000Y-58359641D02*
X151766000Y-58052359D01*
X152526000Y-58359641D02*
X152526000Y-58052359D01*
%TO.C,C1*%
X149731000Y-89627080D02*
X149731000Y-89345920D01*
X150751000Y-89627080D02*
X150751000Y-89345920D01*
D14*
%TO.C,D2*%
X154459000Y-53368200D02*
X154459000Y-55653200D01*
X155929000Y-53368200D02*
X154459000Y-53368200D01*
X155929000Y-55653200D02*
X155929000Y-53368200D01*
D13*
%TO.C,R15*%
X152212641Y-71502000D02*
X151905359Y-71502000D01*
X152212641Y-72262000D02*
X151905359Y-72262000D01*
%TO.C,C4*%
X152259420Y-69721000D02*
X152540580Y-69721000D01*
X152259420Y-70741000D02*
X152540580Y-70741000D01*
%TO.C,R9*%
X150191200Y-58359641D02*
X150191200Y-58052359D01*
X150951200Y-58359641D02*
X150951200Y-58052359D01*
%TO.C,R3*%
X142876000Y-60351641D02*
X142876000Y-60044359D01*
X143636000Y-60351641D02*
X143636000Y-60044359D01*
%TO.C,C15*%
X150681164Y-68601000D02*
X150896836Y-68601000D01*
X150681164Y-69321000D02*
X150896836Y-69321000D01*
%TO.C,X1*%
X142130000Y-85438000D02*
X142350000Y-85438000D01*
X142130000Y-83218000D02*
X142350000Y-83218000D01*
X141490000Y-85618000D02*
X140700000Y-85618000D01*
X140700000Y-84828000D02*
X140700000Y-85618000D01*
%TO.C,C2*%
X149096000Y-85484580D02*
X149096000Y-85203420D01*
X150116000Y-85484580D02*
X150116000Y-85203420D01*
%TO.C,C8*%
X139340000Y-84982164D02*
X139340000Y-85197836D01*
X140060000Y-84982164D02*
X140060000Y-85197836D01*
%TO.C,R13*%
X134379359Y-75820000D02*
X134686641Y-75820000D01*
X134379359Y-76580000D02*
X134686641Y-76580000D01*
D14*
%TO.C,D3*%
X152973800Y-53379000D02*
X152973800Y-55664000D01*
X154443800Y-53379000D02*
X152973800Y-53379000D01*
X154443800Y-55664000D02*
X154443800Y-53379000D01*
D13*
%TO.C,C12*%
X151697164Y-77364000D02*
X151912836Y-77364000D01*
X151697164Y-78084000D02*
X151912836Y-78084000D01*
%TO.C,C16*%
X134673580Y-79754000D02*
X134392420Y-79754000D01*
X134673580Y-80774000D02*
X134392420Y-80774000D01*
%TO.C,C23*%
X146706000Y-60305836D02*
X146706000Y-60090164D01*
X147426000Y-60305836D02*
X147426000Y-60090164D01*
%TO.C,C7*%
X144420000Y-84220164D02*
X144420000Y-84435836D01*
X145140000Y-84220164D02*
X145140000Y-84435836D01*
%TO.C,R1*%
X138304000Y-86005641D02*
X138304000Y-85698359D01*
X139064000Y-86005641D02*
X139064000Y-85698359D01*
%TO.C,U1*%
X138400000Y-69820000D02*
X139350000Y-69820000D01*
X138400000Y-70770000D02*
X138400000Y-69820000D01*
X138400000Y-79090000D02*
X138400000Y-80040000D01*
X138400000Y-80040000D02*
X139350000Y-80040000D01*
X148620000Y-69820000D02*
X147670000Y-69820000D01*
X148620000Y-70770000D02*
X148620000Y-69820000D01*
X148620000Y-79090000D02*
X148620000Y-80040000D01*
X148620000Y-80040000D02*
X147670000Y-80040000D01*
X139350000Y-80655000D02*
X138880000Y-80995000D01*
X138880000Y-80315000D01*
X139350000Y-80655000D01*
G36*
X139350000Y-80655000D02*
G01*
X138880000Y-80995000D01*
X138880000Y-80315000D01*
X139350000Y-80655000D01*
G37*
%TO.C,R22*%
X134686641Y-76836000D02*
X134379359Y-76836000D01*
X134686641Y-77596000D02*
X134379359Y-77596000D01*
%TO.C,R18*%
X147702000Y-60351641D02*
X147702000Y-60044359D01*
X148462000Y-60351641D02*
X148462000Y-60044359D01*
%TO.C,C17*%
X152906000Y-85203420D02*
X152906000Y-85484580D01*
X153926000Y-85203420D02*
X153926000Y-85484580D01*
%TO.C,R24*%
X144908000Y-60044359D02*
X144908000Y-60351641D01*
X145668000Y-60044359D02*
X145668000Y-60351641D01*
%TO.C,U3*%
X132044000Y-88392000D02*
X132044000Y-87592000D01*
X132044000Y-88392000D02*
X132044000Y-89192000D01*
X135164000Y-88392000D02*
X135164000Y-87592000D01*
X135164000Y-88392000D02*
X135164000Y-89192000D01*
X132094000Y-89692000D02*
X131764000Y-89932000D01*
X131764000Y-89452000D01*
X132094000Y-89692000D01*
G36*
X132094000Y-89692000D02*
G01*
X131764000Y-89932000D01*
X131764000Y-89452000D01*
X132094000Y-89692000D01*
G37*
%TO.C,R12*%
X133831359Y-74423000D02*
X134138641Y-74423000D01*
X133831359Y-75183000D02*
X134138641Y-75183000D01*
%TO.C,U2*%
X151729000Y-89408000D02*
X151729000Y-88758000D01*
X151729000Y-89408000D02*
X151729000Y-90058000D01*
X154849000Y-89408000D02*
X154849000Y-88758000D01*
X154849000Y-89408000D02*
X154849000Y-90058000D01*
X155129000Y-88485500D02*
X154799000Y-88245500D01*
X155129000Y-88005500D01*
X155129000Y-88485500D01*
G36*
X155129000Y-88485500D02*
G01*
X154799000Y-88245500D01*
X155129000Y-88005500D01*
X155129000Y-88485500D01*
G37*
D14*
%TO.C,D4*%
X151411000Y-53379000D02*
X151411000Y-55664000D01*
X152881000Y-53379000D02*
X151411000Y-53379000D01*
X152881000Y-55664000D02*
X152881000Y-53379000D01*
D13*
%TO.C,R2*%
X145670000Y-62891641D02*
X145670000Y-62584359D01*
X146430000Y-62891641D02*
X146430000Y-62584359D01*
%TO.C,C13*%
X134640836Y-78380000D02*
X134425164Y-78380000D01*
X134640836Y-79100000D02*
X134425164Y-79100000D01*
%TO.C,C18*%
X151530164Y-80920000D02*
X151745836Y-80920000D01*
X151530164Y-81640000D02*
X151745836Y-81640000D01*
%TO.C,R6*%
X154814000Y-58317641D02*
X154814000Y-58010359D01*
X155574000Y-58317641D02*
X155574000Y-58010359D01*
%TO.C,C11*%
X135108836Y-81301000D02*
X134893164Y-81301000D01*
X135108836Y-82021000D02*
X134893164Y-82021000D01*
D14*
%TO.C,C21*%
X136673000Y-84982164D02*
X136673000Y-85197836D01*
X137393000Y-84982164D02*
X137393000Y-85197836D01*
D13*
%TO.C,R4*%
X143892000Y-60351641D02*
X143892000Y-60044359D01*
X144652000Y-60351641D02*
X144652000Y-60044359D01*
%TO.C,C14*%
X138197000Y-66909836D02*
X138197000Y-66694164D01*
X138917000Y-66909836D02*
X138917000Y-66694164D01*
%TD*%
M02*
