%TF.GenerationSoftware,KiCad,Pcbnew,9.0.4*%
%TF.CreationDate,2025-09-10T14:26:53+01:00*%
%TF.ProjectId,MicroPython,4d696372-6f50-4797-9468-6f6e2e6b6963,rev?*%
%TF.SameCoordinates,Original*%
%TF.FileFunction,Soldermask,Bot*%
%TF.FilePolarity,Negative*%
%FSLAX46Y46*%
G04 Gerber Fmt 4.6, Leading zero omitted, Abs format (unit mm)*
G04 Created by KiCad (PCBNEW 9.0.4) date 2025-09-10 14:26:53*
%MOMM*%
%LPD*%
G01*
G04 APERTURE LIST*
%ADD10C,1.700000*%
%ADD11R,1.700000X1.700000*%
%ADD12O,1.000000X1.800000*%
%ADD13O,1.000000X2.100000*%
%ADD14C,0.650000*%
%TA.AperFunction,Profile*%
%ADD15C,0.230000*%
%TD*%
G04 APERTURE END LIST*
D10*
%TO.C,J9*%
X128270000Y-134112000D03*
X128270000Y-131572000D03*
X128270000Y-129032000D03*
X128270000Y-126492000D03*
X128270000Y-123952000D03*
X128270000Y-121412000D03*
X128270000Y-118872000D03*
X128270000Y-116332000D03*
X128270000Y-113792000D03*
X128270000Y-111252000D03*
X128270000Y-108712000D03*
X128270000Y-106172000D03*
X128270000Y-103632000D03*
X128270000Y-101092000D03*
X128270000Y-98552000D03*
D11*
X128270000Y-96012000D03*
%TD*%
D10*
%TO.C,J1*%
X156210000Y-134112000D03*
X156210000Y-131572000D03*
X156210000Y-129032000D03*
X156210000Y-126492000D03*
X156210000Y-123952000D03*
X156210000Y-121412000D03*
X156210000Y-118872000D03*
X156210000Y-116332000D03*
X156210000Y-113792000D03*
X156210000Y-111252000D03*
X156210000Y-108712000D03*
X156210000Y-106172000D03*
X156210000Y-103632000D03*
X156210000Y-101092000D03*
X156210000Y-98552000D03*
D11*
X156210000Y-96012000D03*
%TD*%
D12*
%TO.C,J10*%
X138428000Y-96931000D03*
D13*
X138428000Y-101111000D03*
D12*
X147068000Y-96931000D03*
D13*
X147068000Y-101111000D03*
D14*
X139858000Y-100611000D03*
X145638000Y-100611000D03*
%TD*%
D11*
%TO.C,J8*%
X152258000Y-111018000D03*
D10*
X152258000Y-108478000D03*
X149718000Y-111018000D03*
X149718000Y-108478000D03*
X147178000Y-111018000D03*
X147178000Y-108478000D03*
%TD*%
D15*
X125730000Y-94232000D02*
X158750000Y-94232000D01*
X158750000Y-136142000D01*
X125730000Y-136142000D01*
X125730000Y-94232000D01*
M02*
