%TF.GenerationSoftware,KiCad,Pcbnew,9.0.4*%
%TF.CreationDate,2025-09-10T14:27:09+01:00*%
%TF.ProjectId,MicroPython,4d696372-6f50-4797-9468-6f6e2e6b6963,rev?*%
%TF.SameCoordinates,Original*%
%TF.FileFunction,Plated,1,4,PTH,Mixed*%
%TF.FilePolarity,Positive*%
%FSLAX46Y46*%
G04 Gerber Fmt 4.6, Leading zero omitted, Abs format (unit mm)*
G04 Created by KiCad (PCBNEW 9.0.4) date 2025-09-10 14:27:09*
%MOMM*%
%LPD*%
G01*
G04 APERTURE LIST*
%TA.AperFunction,ViaDrill*%
%ADD10C,0.220000*%
%TD*%
G04 aperture for slot hole*
%TA.AperFunction,ComponentDrill*%
%ADD11C,0.600000*%
%TD*%
%TA.AperFunction,ComponentDrill*%
%ADD12C,1.000000*%
%TD*%
G04 APERTURE END LIST*
D10*
X129794000Y-104902000D03*
X129794000Y-112014000D03*
X129794000Y-117983000D03*
X129921000Y-102362000D03*
X129921000Y-120269000D03*
X129921000Y-130810000D03*
X130048000Y-124968000D03*
X130048000Y-134239000D03*
X130302000Y-114681000D03*
X131318000Y-95123000D03*
X131826000Y-128905000D03*
X131873440Y-124458000D03*
X132334000Y-100584000D03*
X132461000Y-97663000D03*
X132969000Y-113030000D03*
X133139431Y-121061573D03*
X134570000Y-120788666D03*
X134620000Y-121537000D03*
X134620000Y-123507000D03*
X134747000Y-125222000D03*
X135001000Y-100584000D03*
X135199832Y-108712000D03*
X135199832Y-118616000D03*
X135255000Y-119634000D03*
X135382000Y-112014000D03*
X135509000Y-107569000D03*
X135509000Y-116459000D03*
X135763000Y-103632000D03*
X135890000Y-102108000D03*
X135890000Y-114427000D03*
X136271000Y-127506000D03*
X136548720Y-112312720D03*
X136588500Y-115187000D03*
X136588500Y-117475000D03*
X136588500Y-133284500D03*
X136593022Y-101364106D03*
X137287000Y-128522000D03*
X137414000Y-131445000D03*
X137909210Y-124990958D03*
X138176000Y-123317000D03*
X138557000Y-110998000D03*
X138557000Y-125730000D03*
X138684000Y-107315000D03*
X138684000Y-119888000D03*
X138780000Y-119049000D03*
X139077797Y-130940660D03*
X139319000Y-134493000D03*
X139827000Y-123317000D03*
X140081000Y-103124000D03*
X140081000Y-105410000D03*
X140081000Y-108585000D03*
X140081000Y-121158000D03*
X140843000Y-126111000D03*
X141097000Y-107823000D03*
X141478000Y-110871000D03*
X141478000Y-111885000D03*
X141732000Y-96647000D03*
X141732000Y-98552000D03*
X141732000Y-120777000D03*
X142240000Y-129284000D03*
X142494000Y-115187000D03*
X142748000Y-132461000D03*
X143002000Y-125730000D03*
X143891000Y-106172000D03*
X143891000Y-111887000D03*
X144018000Y-115314000D03*
X144018000Y-118489000D03*
X144272000Y-109980000D03*
X144272000Y-113536000D03*
X144272000Y-114552000D03*
X144510583Y-95235447D03*
X144529617Y-119049000D03*
X144974638Y-108710383D03*
X145161000Y-109474000D03*
X145161000Y-119634000D03*
X145161000Y-132588000D03*
X145288000Y-120904000D03*
X145542000Y-124206000D03*
X145796000Y-98933000D03*
X145796000Y-105664000D03*
X146125000Y-120267000D03*
X146335750Y-121124250D03*
X146431000Y-118872000D03*
X146431000Y-122807000D03*
X146431000Y-124331000D03*
X146509481Y-131902481D03*
X146558000Y-125424534D03*
X146812000Y-130300000D03*
X146812000Y-131189000D03*
X146939000Y-103251000D03*
X146939000Y-128397000D03*
X147079000Y-133361000D03*
X147955000Y-126746000D03*
X147955000Y-127635000D03*
X147955000Y-129159000D03*
X147955000Y-134747000D03*
X148082000Y-105509000D03*
X149225000Y-127000000D03*
X149527885Y-120228716D03*
X149569961Y-119320493D03*
X149733000Y-112903000D03*
X149987000Y-122174000D03*
X150114000Y-114046000D03*
X150114000Y-125855000D03*
X150368000Y-97282000D03*
X151028681Y-122263533D03*
X151130000Y-127254000D03*
X151511000Y-125730000D03*
X151892000Y-99060000D03*
X151943988Y-118547201D03*
X152096000Y-120142000D03*
X152273000Y-127635000D03*
X152781000Y-101854000D03*
X152908000Y-121539000D03*
X153162000Y-107061000D03*
X153416000Y-94996000D03*
X153416000Y-112649000D03*
X153416000Y-117475000D03*
X153797000Y-127762000D03*
X154184563Y-103632000D03*
X154559000Y-123571000D03*
X154559000Y-125222000D03*
X154686000Y-97536000D03*
X154686000Y-119126000D03*
X154686000Y-134620000D03*
X154809563Y-106807000D03*
X154813000Y-117856000D03*
X154813000Y-127762000D03*
D11*
%TO.C,J10*%
X138428000Y-96531000D02*
X138428000Y-97331000D01*
X138428000Y-100561000D02*
X138428000Y-101661000D01*
X147068000Y-96531000D02*
X147068000Y-97331000D01*
X147068000Y-100561000D02*
X147068000Y-101661000D01*
D12*
%TO.C,J9*%
X128270000Y-96012000D03*
X128270000Y-98552000D03*
X128270000Y-101092000D03*
X128270000Y-103632000D03*
X128270000Y-106172000D03*
X128270000Y-108712000D03*
X128270000Y-111252000D03*
X128270000Y-113792000D03*
X128270000Y-116332000D03*
X128270000Y-118872000D03*
X128270000Y-121412000D03*
X128270000Y-123952000D03*
X128270000Y-126492000D03*
X128270000Y-129032000D03*
X128270000Y-131572000D03*
X128270000Y-134112000D03*
%TO.C,J8*%
X147178000Y-108478000D03*
X147178000Y-111018000D03*
X149718000Y-108478000D03*
X149718000Y-111018000D03*
X152258000Y-108478000D03*
X152258000Y-111018000D03*
%TO.C,J1*%
X156210000Y-96012000D03*
X156210000Y-98552000D03*
X156210000Y-101092000D03*
X156210000Y-103632000D03*
X156210000Y-106172000D03*
X156210000Y-108712000D03*
X156210000Y-111252000D03*
X156210000Y-113792000D03*
X156210000Y-116332000D03*
X156210000Y-118872000D03*
X156210000Y-121412000D03*
X156210000Y-123952000D03*
X156210000Y-126492000D03*
X156210000Y-129032000D03*
X156210000Y-131572000D03*
X156210000Y-134112000D03*
M02*
