%TF.GenerationSoftware,KiCad,Pcbnew,9.0.4*%
%TF.CreationDate,2025-09-04T16:16:01+01:00*%
%TF.ProjectId,MicroPython,4d696372-6f50-4797-9468-6f6e2e6b6963,rev?*%
%TF.SameCoordinates,Original*%
%TF.FileFunction,Soldermask,Bot*%
%TF.FilePolarity,Negative*%
%FSLAX46Y46*%
G04 Gerber Fmt 4.6, Leading zero omitted, Abs format (unit mm)*
G04 Created by KiCad (PCBNEW 9.0.4) date 2025-09-04 16:16:01*
%MOMM*%
%LPD*%
G01*
G04 APERTURE LIST*
%ADD10R,1.700000X1.700000*%
%ADD11C,1.700000*%
%ADD12C,0.650000*%
%ADD13O,1.000000X2.100000*%
%ADD14O,1.000000X1.800000*%
G04 APERTURE END LIST*
D10*
%TO.C,J8*%
X154432000Y-66294000D03*
D11*
X154432000Y-63754000D03*
X151892000Y-66294000D03*
X151892000Y-63754000D03*
X149352000Y-66294000D03*
X149352000Y-63754000D03*
%TD*%
D10*
%TO.C,J9*%
X144907000Y-89408000D03*
D11*
X147447000Y-89408000D03*
%TD*%
D12*
%TO.C,J10*%
X146908000Y-56707000D03*
X141128000Y-56707000D03*
D13*
X148338000Y-57207000D03*
D14*
X148338000Y-53027000D03*
D13*
X139698000Y-57207000D03*
D14*
X139698000Y-53027000D03*
%TD*%
D11*
%TO.C,J2*%
X129540000Y-90170000D03*
X129540000Y-87630000D03*
X129540000Y-85090000D03*
X129540000Y-82550000D03*
X129540000Y-80010000D03*
X129540000Y-77470000D03*
X129540000Y-74930000D03*
D10*
X129540000Y-72390000D03*
%TD*%
D11*
%TO.C,J7*%
X157480000Y-69850000D03*
X157480000Y-67310000D03*
X157480000Y-64770000D03*
X157480000Y-62230000D03*
X157480000Y-59690000D03*
X157480000Y-57150000D03*
X157480000Y-54610000D03*
D10*
X157480000Y-52070000D03*
%TD*%
D11*
%TO.C,J1*%
X157480000Y-90170000D03*
X157480000Y-87630000D03*
X157480000Y-85090000D03*
X157480000Y-82550000D03*
X157480000Y-80010000D03*
X157480000Y-77470000D03*
X157480000Y-74930000D03*
D10*
X157480000Y-72390000D03*
%TD*%
D11*
%TO.C,J6*%
X129540000Y-69850000D03*
X129540000Y-67310000D03*
X129540000Y-64770000D03*
X129540000Y-62230000D03*
X129540000Y-59690000D03*
X129540000Y-57150000D03*
X129540000Y-54610000D03*
D10*
X129540000Y-52070000D03*
%TD*%
M02*
