%TF.GenerationSoftware,KiCad,Pcbnew,9.0.4*%
%TF.CreationDate,2025-09-04T16:16:01+01:00*%
%TF.ProjectId,MicroPython,4d696372-6f50-4797-9468-6f6e2e6b6963,rev?*%
%TF.SameCoordinates,Original*%
%TF.FileFunction,Legend,Bot*%
%TF.FilePolarity,Positive*%
%FSLAX46Y46*%
G04 Gerber Fmt 4.6, Leading zero omitted, Abs format (unit mm)*
G04 Created by KiCad (PCBNEW 9.0.4) date 2025-09-04 16:16:01*
%MOMM*%
%LPD*%
G01*
G04 APERTURE LIST*
%ADD10C,0.150000*%
G04 APERTURE END LIST*
D10*
X144398190Y-87449819D02*
X144398190Y-86449819D01*
X144398190Y-86449819D02*
X144064857Y-87164104D01*
X144064857Y-87164104D02*
X143731524Y-86449819D01*
X143731524Y-86449819D02*
X143731524Y-87449819D01*
X143255333Y-87449819D02*
X143255333Y-86783152D01*
X143255333Y-86449819D02*
X143302952Y-86497438D01*
X143302952Y-86497438D02*
X143255333Y-86545057D01*
X143255333Y-86545057D02*
X143207714Y-86497438D01*
X143207714Y-86497438D02*
X143255333Y-86449819D01*
X143255333Y-86449819D02*
X143255333Y-86545057D01*
X142350572Y-87402200D02*
X142445810Y-87449819D01*
X142445810Y-87449819D02*
X142636286Y-87449819D01*
X142636286Y-87449819D02*
X142731524Y-87402200D01*
X142731524Y-87402200D02*
X142779143Y-87354580D01*
X142779143Y-87354580D02*
X142826762Y-87259342D01*
X142826762Y-87259342D02*
X142826762Y-86973628D01*
X142826762Y-86973628D02*
X142779143Y-86878390D01*
X142779143Y-86878390D02*
X142731524Y-86830771D01*
X142731524Y-86830771D02*
X142636286Y-86783152D01*
X142636286Y-86783152D02*
X142445810Y-86783152D01*
X142445810Y-86783152D02*
X142350572Y-86830771D01*
X141922000Y-87449819D02*
X141922000Y-86783152D01*
X141922000Y-86973628D02*
X141874381Y-86878390D01*
X141874381Y-86878390D02*
X141826762Y-86830771D01*
X141826762Y-86830771D02*
X141731524Y-86783152D01*
X141731524Y-86783152D02*
X141636286Y-86783152D01*
X141160095Y-87449819D02*
X141255333Y-87402200D01*
X141255333Y-87402200D02*
X141302952Y-87354580D01*
X141302952Y-87354580D02*
X141350571Y-87259342D01*
X141350571Y-87259342D02*
X141350571Y-86973628D01*
X141350571Y-86973628D02*
X141302952Y-86878390D01*
X141302952Y-86878390D02*
X141255333Y-86830771D01*
X141255333Y-86830771D02*
X141160095Y-86783152D01*
X141160095Y-86783152D02*
X141017238Y-86783152D01*
X141017238Y-86783152D02*
X140922000Y-86830771D01*
X140922000Y-86830771D02*
X140874381Y-86878390D01*
X140874381Y-86878390D02*
X140826762Y-86973628D01*
X140826762Y-86973628D02*
X140826762Y-87259342D01*
X140826762Y-87259342D02*
X140874381Y-87354580D01*
X140874381Y-87354580D02*
X140922000Y-87402200D01*
X140922000Y-87402200D02*
X141017238Y-87449819D01*
X141017238Y-87449819D02*
X141160095Y-87449819D01*
X140398190Y-87449819D02*
X140398190Y-86449819D01*
X140398190Y-86449819D02*
X140017238Y-86449819D01*
X140017238Y-86449819D02*
X139922000Y-86497438D01*
X139922000Y-86497438D02*
X139874381Y-86545057D01*
X139874381Y-86545057D02*
X139826762Y-86640295D01*
X139826762Y-86640295D02*
X139826762Y-86783152D01*
X139826762Y-86783152D02*
X139874381Y-86878390D01*
X139874381Y-86878390D02*
X139922000Y-86926009D01*
X139922000Y-86926009D02*
X140017238Y-86973628D01*
X140017238Y-86973628D02*
X140398190Y-86973628D01*
X139493428Y-86783152D02*
X139255333Y-87449819D01*
X139017238Y-86783152D02*
X139255333Y-87449819D01*
X139255333Y-87449819D02*
X139350571Y-87687914D01*
X139350571Y-87687914D02*
X139398190Y-87735533D01*
X139398190Y-87735533D02*
X139493428Y-87783152D01*
X138779142Y-86783152D02*
X138398190Y-86783152D01*
X138636285Y-86449819D02*
X138636285Y-87306961D01*
X138636285Y-87306961D02*
X138588666Y-87402200D01*
X138588666Y-87402200D02*
X138493428Y-87449819D01*
X138493428Y-87449819D02*
X138398190Y-87449819D01*
X138064856Y-87449819D02*
X138064856Y-86449819D01*
X137636285Y-87449819D02*
X137636285Y-86926009D01*
X137636285Y-86926009D02*
X137683904Y-86830771D01*
X137683904Y-86830771D02*
X137779142Y-86783152D01*
X137779142Y-86783152D02*
X137921999Y-86783152D01*
X137921999Y-86783152D02*
X138017237Y-86830771D01*
X138017237Y-86830771D02*
X138064856Y-86878390D01*
X137017237Y-87449819D02*
X137112475Y-87402200D01*
X137112475Y-87402200D02*
X137160094Y-87354580D01*
X137160094Y-87354580D02*
X137207713Y-87259342D01*
X137207713Y-87259342D02*
X137207713Y-86973628D01*
X137207713Y-86973628D02*
X137160094Y-86878390D01*
X137160094Y-86878390D02*
X137112475Y-86830771D01*
X137112475Y-86830771D02*
X137017237Y-86783152D01*
X137017237Y-86783152D02*
X136874380Y-86783152D01*
X136874380Y-86783152D02*
X136779142Y-86830771D01*
X136779142Y-86830771D02*
X136731523Y-86878390D01*
X136731523Y-86878390D02*
X136683904Y-86973628D01*
X136683904Y-86973628D02*
X136683904Y-87259342D01*
X136683904Y-87259342D02*
X136731523Y-87354580D01*
X136731523Y-87354580D02*
X136779142Y-87402200D01*
X136779142Y-87402200D02*
X136874380Y-87449819D01*
X136874380Y-87449819D02*
X137017237Y-87449819D01*
X136255332Y-86783152D02*
X136255332Y-87449819D01*
X136255332Y-86878390D02*
X136207713Y-86830771D01*
X136207713Y-86830771D02*
X136112475Y-86783152D01*
X136112475Y-86783152D02*
X135969618Y-86783152D01*
X135969618Y-86783152D02*
X135874380Y-86830771D01*
X135874380Y-86830771D02*
X135826761Y-86926009D01*
X135826761Y-86926009D02*
X135826761Y-87449819D01*
X134683903Y-86783152D02*
X134445808Y-87449819D01*
X134445808Y-87449819D02*
X134207713Y-86783152D01*
X133826760Y-87354580D02*
X133779141Y-87402200D01*
X133779141Y-87402200D02*
X133826760Y-87449819D01*
X133826760Y-87449819D02*
X133874379Y-87402200D01*
X133874379Y-87402200D02*
X133826760Y-87354580D01*
X133826760Y-87354580D02*
X133826760Y-87449819D01*
X132826761Y-87449819D02*
X133398189Y-87449819D01*
X133112475Y-87449819D02*
X133112475Y-86449819D01*
X133112475Y-86449819D02*
X133207713Y-86592676D01*
X133207713Y-86592676D02*
X133302951Y-86687914D01*
X133302951Y-86687914D02*
X133398189Y-86735533D01*
X132398189Y-87354580D02*
X132350570Y-87402200D01*
X132350570Y-87402200D02*
X132398189Y-87449819D01*
X132398189Y-87449819D02*
X132445808Y-87402200D01*
X132445808Y-87402200D02*
X132398189Y-87354580D01*
X132398189Y-87354580D02*
X132398189Y-87449819D01*
X131731523Y-86449819D02*
X131636285Y-86449819D01*
X131636285Y-86449819D02*
X131541047Y-86497438D01*
X131541047Y-86497438D02*
X131493428Y-86545057D01*
X131493428Y-86545057D02*
X131445809Y-86640295D01*
X131445809Y-86640295D02*
X131398190Y-86830771D01*
X131398190Y-86830771D02*
X131398190Y-87068866D01*
X131398190Y-87068866D02*
X131445809Y-87259342D01*
X131445809Y-87259342D02*
X131493428Y-87354580D01*
X131493428Y-87354580D02*
X131541047Y-87402200D01*
X131541047Y-87402200D02*
X131636285Y-87449819D01*
X131636285Y-87449819D02*
X131731523Y-87449819D01*
X131731523Y-87449819D02*
X131826761Y-87402200D01*
X131826761Y-87402200D02*
X131874380Y-87354580D01*
X131874380Y-87354580D02*
X131921999Y-87259342D01*
X131921999Y-87259342D02*
X131969618Y-87068866D01*
X131969618Y-87068866D02*
X131969618Y-86830771D01*
X131969618Y-86830771D02*
X131921999Y-86640295D01*
X131921999Y-86640295D02*
X131874380Y-86545057D01*
X131874380Y-86545057D02*
X131826761Y-86497438D01*
X131826761Y-86497438D02*
X131731523Y-86449819D01*
M02*
