%TF.GenerationSoftware,KiCad,Pcbnew,9.0.4*%
%TF.CreationDate,2025-09-11T17:12:04+01:00*%
%TF.ProjectId,OE PyBoard,4f452050-7942-46f6-9172-642e6b696361,rev?*%
%TF.SameCoordinates,Original*%
%TF.FileFunction,Copper,L4,Bot*%
%TF.FilePolarity,Positive*%
%FSLAX46Y46*%
G04 Gerber Fmt 4.6, Leading zero omitted, Abs format (unit mm)*
G04 Created by KiCad (PCBNEW 9.0.4) date 2025-09-11 17:12:04*
%MOMM*%
%LPD*%
G01*
G04 APERTURE LIST*
G04 Aperture macros list*
%AMFreePoly0*
4,1,23,0.500000,-0.750000,0.000000,-0.750000,0.000000,-0.745722,-0.065263,-0.745722,-0.191342,-0.711940,-0.304381,-0.646677,-0.396677,-0.554381,-0.461940,-0.441342,-0.495722,-0.315263,-0.495722,-0.250000,-0.500000,-0.250000,-0.500000,0.250000,-0.495722,0.250000,-0.495722,0.315263,-0.461940,0.441342,-0.396677,0.554381,-0.304381,0.646677,-0.191342,0.711940,-0.065263,0.745722,0.000000,0.745722,
0.000000,0.750000,0.500000,0.750000,0.500000,-0.750000,0.500000,-0.750000,$1*%
%AMFreePoly1*
4,1,23,0.000000,0.745722,0.065263,0.745722,0.191342,0.711940,0.304381,0.646677,0.396677,0.554381,0.461940,0.441342,0.495722,0.315263,0.495722,0.250000,0.500000,0.250000,0.500000,-0.250000,0.495722,-0.250000,0.495722,-0.315263,0.461940,-0.441342,0.396677,-0.554381,0.304381,-0.646677,0.191342,-0.711940,0.065263,-0.745722,0.000000,-0.745722,0.000000,-0.750000,-0.500000,-0.750000,
-0.500000,0.750000,0.000000,0.750000,0.000000,0.745722,0.000000,0.745722,$1*%
G04 Aperture macros list end*
%TA.AperFunction,SMDPad,CuDef*%
%ADD10FreePoly0,0.000000*%
%TD*%
%TA.AperFunction,SMDPad,CuDef*%
%ADD11FreePoly1,0.000000*%
%TD*%
%TA.AperFunction,ComponentPad*%
%ADD12C,1.700000*%
%TD*%
%TA.AperFunction,ComponentPad*%
%ADD13R,1.700000X1.700000*%
%TD*%
%TA.AperFunction,HeatsinkPad*%
%ADD14O,1.000000X1.800000*%
%TD*%
%TA.AperFunction,HeatsinkPad*%
%ADD15O,1.000000X2.100000*%
%TD*%
%TA.AperFunction,ViaPad*%
%ADD16C,0.550000*%
%TD*%
%TA.AperFunction,Conductor*%
%ADD17C,0.400000*%
%TD*%
%TA.AperFunction,Conductor*%
%ADD18C,0.220000*%
%TD*%
%TA.AperFunction,Conductor*%
%ADD19C,0.250000*%
%TD*%
%TA.AperFunction,Conductor*%
%ADD20C,0.450000*%
%TD*%
%TA.AperFunction,Conductor*%
%ADD21C,0.700000*%
%TD*%
%TA.AperFunction,Conductor*%
%ADD22C,0.230000*%
%TD*%
%TA.AperFunction,Profile*%
%ADD23C,0.230000*%
%TD*%
G04 APERTURE END LIST*
D10*
%TO.P,JP2,1,A*%
%TO.N,VBUS*%
X150734000Y-97739200D03*
D11*
%TO.P,JP2,2,B*%
%TO.N,V+*%
X152034000Y-97739200D03*
%TD*%
D12*
%TO.P,J7,16,Pin_16*%
%TO.N,/PA0-X1*%
X156210000Y-134112000D03*
%TO.P,J7,15,Pin_15*%
%TO.N,/PA1-X2*%
X156210000Y-131572000D03*
%TO.P,J7,14,Pin_14*%
%TO.N,/PA2-X3*%
X156210000Y-129032000D03*
%TO.P,J7,13,Pin_13*%
%TO.N,/PA3-X4*%
X156210000Y-126492000D03*
%TO.P,J7,12,Pin_12*%
%TO.N,/PA4-X5*%
X156210000Y-123952000D03*
%TO.P,J7,11,Pin_11*%
%TO.N,/PA5-X6*%
X156210000Y-121412000D03*
%TO.P,J7,10,Pin_10*%
%TO.N,/PA6-X7*%
X156210000Y-118872000D03*
%TO.P,J7,9,Pin_9*%
%TO.N,/PA7-X8*%
X156210000Y-116332000D03*
%TO.P,J7,8,Pin_8*%
%TO.N,/PB10-Y9*%
X156210000Y-113792000D03*
%TO.P,J7,7,Pin_7*%
%TO.N,/PB11-Y10*%
X156210000Y-111252000D03*
%TO.P,J7,6,Pin_6*%
%TO.N,/PB0-Y11*%
X156210000Y-108712000D03*
%TO.P,J7,5,Pin_5*%
%TO.N,/PB1-Y12*%
X156210000Y-106172000D03*
%TO.P,J7,4,Pin_4*%
%TO.N,/RST-SW*%
X156210000Y-103632000D03*
%TO.P,J7,3,Pin_3*%
%TO.N,GND*%
X156210000Y-101092000D03*
%TO.P,J7,2,Pin_2*%
%TO.N,+3V3*%
X156210000Y-98552000D03*
D13*
%TO.P,J7,1,Pin_1*%
%TO.N,V+*%
X156210000Y-96012000D03*
%TD*%
D12*
%TO.P,J6,16,Pin_16*%
%TO.N,V+*%
X128270000Y-134112000D03*
%TO.P,J6,15,Pin_15*%
%TO.N,+3V3*%
X128270000Y-131572000D03*
%TO.P,J6,14,Pin_14*%
%TO.N,GND*%
X128270000Y-129032000D03*
%TO.P,J6,13,Pin_13*%
%TO.N,/RST-SW*%
X128270000Y-126492000D03*
%TO.P,J6,12,Pin_12*%
%TO.N,/PC5-X12*%
X128270000Y-123952000D03*
%TO.P,J6,11,Pin_11*%
%TO.N,/PC4-X11*%
X128270000Y-121412000D03*
%TO.P,J6,10,Pin_10*%
%TO.N,/PB7-SDA-X10*%
X128270000Y-118872000D03*
%TO.P,J6,9,Pin_9*%
%TO.N,/PB6-SCL-X9*%
X128270000Y-116332000D03*
%TO.P,J6,8,Pin_8*%
%TO.N,/PB15-Y8*%
X128270000Y-113792000D03*
%TO.P,J6,7,Pin_7*%
%TO.N,/PB14-Y7*%
X128270000Y-111252000D03*
%TO.P,J6,6,Pin_6*%
%TO.N,/PB13-Y6*%
X128270000Y-108712000D03*
%TO.P,J6,5,Pin_5*%
%TO.N,/PB12-Y5*%
X128270000Y-106172000D03*
%TO.P,J6,4,Pin_4*%
%TO.N,/PB9-Y4*%
X128270000Y-103632000D03*
%TO.P,J6,3,Pin_3*%
%TO.N,/PB8-Y3*%
X128270000Y-101092000D03*
%TO.P,J6,2,Pin_2*%
%TO.N,/PC7-Y2*%
X128270000Y-98552000D03*
D13*
%TO.P,J6,1,Pin_1*%
%TO.N,/PC6-Y1*%
X128270000Y-96012000D03*
%TD*%
D12*
%TO.P,J4,6,Pin_6*%
%TO.N,/PA15-JTDI*%
X147178000Y-108478000D03*
%TO.P,J4,5,Pin_5*%
%TO.N,GND*%
X147178000Y-111018000D03*
%TO.P,J4,4,Pin_4*%
%TO.N,/PB6-JTDO*%
X149718000Y-108478000D03*
%TO.P,J4,3,Pin_3*%
%TO.N,/PB4-NJTRST*%
X149718000Y-111018000D03*
%TO.P,J4,2,Pin_2*%
%TO.N,/PA14-JTCK*%
X152258000Y-108478000D03*
D13*
%TO.P,J4,1,Pin_1*%
%TO.N,+3V3*%
X152258000Y-111018000D03*
%TD*%
D14*
%TO.P,J3,S1,SHIELD*%
%TO.N,Net-(J3-SHIELD)*%
X138428000Y-96931000D03*
D15*
X138428000Y-101111000D03*
D14*
X147068000Y-96931000D03*
D15*
X147068000Y-101111000D03*
%TD*%
D16*
%TO.N,GND*%
X143408400Y-105714800D03*
X143713200Y-98602800D03*
X129844800Y-97688400D03*
X135939803Y-102980065D03*
X132334000Y-107950000D03*
X154889200Y-130454400D03*
X151384000Y-116179600D03*
%TO.N,VBUS*%
X148219742Y-98615491D03*
%TO.N,/PB12-Y5*%
X144272000Y-109980000D03*
%TO.N,/PB14-Y7*%
X144272000Y-114552000D03*
%TO.N,/PB1-Y12*%
X145796000Y-105664000D03*
X146125000Y-120267000D03*
%TO.N,/PB9-Y4*%
X135678000Y-106085000D03*
X138277600Y-124788025D03*
%TO.N,/PA0-X1*%
X146509481Y-131902481D03*
%TO.N,/PB13-Y6*%
X144272000Y-113536000D03*
%TO.N,/PB7-SDA-X10*%
X134620000Y-123507000D03*
%TO.N,/PB11-Y10*%
X154813000Y-117856000D03*
X149569961Y-119320493D03*
%TO.N,/PA1-X2*%
X146812000Y-131189000D03*
%TO.N,/PA4-X5*%
X146431000Y-124331000D03*
%TO.N,/PC4-X11*%
X146431000Y-122807000D03*
%TO.N,/PC6-Y1*%
X144018000Y-115314000D03*
%TO.N,/PB15-Y8*%
X144018000Y-118489000D03*
%TO.N,/PA2-X3*%
X146812000Y-130300000D03*
%TO.N,/PB0-Y11*%
X154686000Y-119126000D03*
X146335750Y-121124250D03*
%TO.N,/VDDA*%
X148082000Y-105509000D03*
X147955000Y-126746000D03*
%TO.N,/PB6-SCL-X9*%
X133139431Y-121061573D03*
%TO.N,/PC5-X12*%
X145542000Y-124206000D03*
%TO.N,/RST-SW*%
X154809563Y-106807000D03*
X140081000Y-108585000D03*
X140843000Y-126111000D03*
X135199832Y-108712000D03*
%TO.N,/PB8-Y3*%
X136593022Y-101364106D03*
X138176000Y-123317000D03*
%TO.N,/PC7-Y2*%
X141732000Y-98552000D03*
X142494000Y-115187000D03*
%TO.N,/PB10-Y9*%
X149527885Y-120228716D03*
X150114000Y-114046000D03*
%TO.N,GND*%
X131960510Y-121062966D03*
X141732000Y-96647000D03*
X146558000Y-125424534D03*
X139827000Y-123317000D03*
X129794000Y-112014000D03*
X135509000Y-107569000D03*
X149553234Y-112839991D03*
X137718800Y-130911600D03*
X154482800Y-127254000D03*
X147624800Y-134518400D03*
X140081000Y-103124000D03*
X130500000Y-128250000D03*
X150215600Y-102717600D03*
X143499446Y-107500000D03*
X131318000Y-95123000D03*
X129794000Y-104902000D03*
X149225000Y-127000000D03*
X144974638Y-108710383D03*
X145288000Y-120904000D03*
X151250000Y-127075000D03*
X140081000Y-121158000D03*
X146431000Y-118872000D03*
X132969000Y-113030000D03*
X141097000Y-107823000D03*
X153416000Y-112649000D03*
X153162000Y-107061000D03*
X151647912Y-104421942D03*
X143891000Y-111887000D03*
X141478000Y-110871000D03*
X136500000Y-111000000D03*
X129794000Y-117983000D03*
X132069548Y-124458000D03*
X151511000Y-125730000D03*
X146939000Y-103251000D03*
X134315200Y-96875600D03*
X154736800Y-123342400D03*
X153354000Y-117500400D03*
X143002000Y-125730000D03*
X135890000Y-114427000D03*
X138684000Y-107315000D03*
X139077797Y-130940660D03*
X139430000Y-110570799D03*
X135509000Y-116459000D03*
X151028681Y-122263533D03*
X154736800Y-125577600D03*
X130454400Y-134569200D03*
X149250000Y-100000000D03*
X131500000Y-130000000D03*
X135255000Y-119634000D03*
X144510583Y-95235447D03*
X135001000Y-100584000D03*
X130048000Y-125250000D03*
X142798800Y-132559777D03*
X146939000Y-128397000D03*
X134747000Y-125222000D03*
X129921000Y-102362000D03*
X130454400Y-132232400D03*
X145161000Y-132588000D03*
X142240000Y-129284000D03*
X140081000Y-105410000D03*
X138557000Y-125730000D03*
X132334000Y-100584000D03*
X130302000Y-114681000D03*
X137287000Y-128522000D03*
X139903200Y-134366000D03*
X154686000Y-134620000D03*
X141732000Y-120777000D03*
X149453600Y-95402400D03*
%TO.N,+3V3*%
X136271000Y-127506000D03*
X136548720Y-112312720D03*
X150114000Y-125855000D03*
X135199832Y-118616000D03*
X152096000Y-120142000D03*
X136601200Y-133348000D03*
X154025600Y-103632000D03*
X141478000Y-111885000D03*
X136588500Y-117475000D03*
X147079000Y-133361000D03*
X136588500Y-115187000D03*
%TO.N,VBUS*%
X148303066Y-99334043D03*
%TO.N,/PA14-JTCK*%
X144529617Y-119049000D03*
X138780000Y-119049000D03*
X147955000Y-127635000D03*
X145161000Y-109474000D03*
%TO.N,/PB6-JTDO*%
X147955000Y-129159000D03*
%TO.N,/PB4-NJTRST*%
X152643999Y-121869757D03*
X149987000Y-122174000D03*
X153142500Y-127107500D03*
X134620000Y-121537000D03*
%TO.N,/PA15-JTDI*%
X152273000Y-127075000D03*
X145161000Y-119634000D03*
X151943988Y-118547201D03*
X138684000Y-119888000D03*
%TO.N,/PB3-SW1*%
X134570000Y-120788666D03*
X135890000Y-101949106D03*
%TD*%
D17*
%TO.N,Net-(J3-SHIELD)*%
X147068000Y-101111000D02*
X147068000Y-96931000D01*
X138428000Y-101111000D02*
X138428000Y-96931000D01*
D18*
%TO.N,/PB9-Y4*%
X137247000Y-107654000D02*
X135678000Y-106085000D01*
X137247000Y-124291000D02*
X137247000Y-107654000D01*
X138277600Y-124788025D02*
X137744025Y-124788025D01*
X137744025Y-124788025D02*
X137247000Y-124291000D01*
D19*
%TO.N,+3V3*%
X136588500Y-127823500D02*
X136271000Y-127506000D01*
X136588500Y-133335300D02*
X136588500Y-127823500D01*
X136601200Y-133348000D02*
X136588500Y-133335300D01*
D20*
X154025600Y-100228400D02*
X155704000Y-98550000D01*
X154025600Y-109250400D02*
X154025600Y-100228400D01*
X155704000Y-98550000D02*
X156210000Y-98550000D01*
X152258000Y-111018000D02*
X154025600Y-109250400D01*
D21*
%TO.N,V+*%
X154913174Y-96012000D02*
X156210000Y-96012000D01*
X153185974Y-97739200D02*
X154913174Y-96012000D01*
X152034000Y-97739200D02*
X153185974Y-97739200D01*
%TO.N,VBUS*%
X148696147Y-97739200D02*
X150734000Y-97739200D01*
X148303066Y-98132281D02*
X148696147Y-97739200D01*
X148303066Y-99334043D02*
X148303066Y-98132281D01*
D18*
%TO.N,/PB1-Y12*%
X145796000Y-105664000D02*
X145796000Y-119938000D01*
X145796000Y-119938000D02*
X146125000Y-120267000D01*
%TO.N,/PC6-Y1*%
X142621000Y-113917000D02*
X142621000Y-95885000D01*
X132078000Y-95504000D02*
X131572000Y-96010000D01*
X142240000Y-95504000D02*
X132078000Y-95504000D01*
X142621000Y-95885000D02*
X142240000Y-95504000D01*
X144018000Y-115314000D02*
X142621000Y-113917000D01*
X131572000Y-96010000D02*
X128270000Y-96010000D01*
D22*
%TO.N,/PB0-Y11*%
X154156531Y-110003469D02*
X155450000Y-108710000D01*
X154156531Y-118596531D02*
X154156531Y-110003469D01*
X155450000Y-108710000D02*
X156210000Y-108710000D01*
X154686000Y-119126000D02*
X154156531Y-118596531D01*
%TO.N,/VDDA*%
X148463000Y-105890000D02*
X148463000Y-119591653D01*
X148082000Y-105509000D02*
X148463000Y-105890000D01*
X148463000Y-119591653D02*
X147955000Y-120099653D01*
X147955000Y-120099653D02*
X147955000Y-126746000D01*
D18*
%TO.N,/RST-SW*%
X140843000Y-110538000D02*
X140843000Y-126111000D01*
X140081000Y-109776000D02*
X140843000Y-110538000D01*
X140081000Y-108585000D02*
X140081000Y-109776000D01*
%TO.N,/PB8-Y3*%
X137823063Y-107228871D02*
X137823063Y-122964063D01*
X136593022Y-105998830D02*
X137823063Y-107228871D01*
X137823063Y-122964063D02*
X138176000Y-123317000D01*
X136593022Y-101364106D02*
X136593022Y-105998830D01*
%TO.N,/PC7-Y2*%
X142113000Y-114806000D02*
X142494000Y-115187000D01*
X141732000Y-98552000D02*
X142113000Y-98933000D01*
X142113000Y-98933000D02*
X142113000Y-114806000D01*
D22*
%TO.N,GND*%
X147178000Y-111018000D02*
X147178000Y-112761000D01*
X147178000Y-112761000D02*
X147193000Y-112776000D01*
D20*
%TO.N,+3V3*%
X151750000Y-120488000D02*
X151750000Y-122885500D01*
X150114000Y-132967000D02*
X149720000Y-133361000D01*
X149720000Y-133361000D02*
X147079000Y-133361000D01*
X150114000Y-126236000D02*
X150114000Y-132967000D01*
D19*
X136271000Y-127506000D02*
X136588500Y-127188500D01*
D20*
X152096000Y-120142000D02*
X152654000Y-119584000D01*
X152654000Y-119584000D02*
X152654000Y-111414000D01*
X152096000Y-120142000D02*
X151750000Y-120488000D01*
D18*
X136548720Y-115147220D02*
X136588500Y-115187000D01*
X136548720Y-112312720D02*
X136548720Y-115147220D01*
D20*
X150114000Y-124521500D02*
X150114000Y-126236000D01*
X151750000Y-122885500D02*
X150114000Y-124521500D01*
D19*
X136588500Y-127188500D02*
X136588500Y-115187000D01*
D20*
X150114000Y-125855000D02*
X150114000Y-126236000D01*
D18*
%TO.N,/PB3-SW1*%
X135890000Y-101949106D02*
X135286894Y-101949106D01*
X134570000Y-102666000D02*
X134570000Y-120788666D01*
X135286894Y-101949106D02*
X134570000Y-102666000D01*
%TD*%
%TA.AperFunction,Conductor*%
%TO.N,GND*%
G36*
X155659992Y-94633817D02*
G01*
X155699588Y-94688317D01*
X155704915Y-94720646D01*
X155705915Y-94801146D01*
X155685895Y-94865468D01*
X155631891Y-94905739D01*
X155596923Y-94911500D01*
X155335326Y-94911500D01*
X155262260Y-94926034D01*
X155179399Y-94981399D01*
X155124034Y-95064260D01*
X155109500Y-95137326D01*
X155109500Y-95137327D01*
X155109500Y-95137329D01*
X155109500Y-95302500D01*
X155104165Y-95318919D01*
X155104165Y-95336183D01*
X155094017Y-95350149D01*
X155088683Y-95366569D01*
X155074716Y-95376716D01*
X155064569Y-95390683D01*
X155048149Y-95396017D01*
X155034183Y-95406165D01*
X155000500Y-95411500D01*
X154998924Y-95411500D01*
X154998908Y-95411499D01*
X154992232Y-95411499D01*
X154834117Y-95411499D01*
X154834115Y-95411499D01*
X154681389Y-95452423D01*
X154544460Y-95531478D01*
X152969164Y-97106775D01*
X152961327Y-97110767D01*
X152956158Y-97117883D01*
X152931882Y-97125770D01*
X152909140Y-97137358D01*
X152892089Y-97138700D01*
X152766946Y-97138700D01*
X152702877Y-97117883D01*
X152672549Y-97084200D01*
X152655369Y-97054443D01*
X152614765Y-97001527D01*
X152521673Y-96908435D01*
X152521671Y-96908433D01*
X152468760Y-96867832D01*
X152354747Y-96802007D01*
X152354745Y-96802006D01*
X152354743Y-96802005D01*
X152293123Y-96776481D01*
X152165956Y-96742406D01*
X152165951Y-96742405D01*
X152165953Y-96742405D01*
X152134279Y-96738235D01*
X152099826Y-96733700D01*
X151534000Y-96733700D01*
X151436224Y-96753149D01*
X151436219Y-96753150D01*
X151426305Y-96757257D01*
X151424630Y-96753213D01*
X151379607Y-96765861D01*
X151343051Y-96753983D01*
X151341695Y-96757257D01*
X151331780Y-96753150D01*
X151331776Y-96753149D01*
X151234000Y-96733700D01*
X150668174Y-96733700D01*
X150633720Y-96738235D01*
X150602047Y-96742405D01*
X150474877Y-96776481D01*
X150413252Y-96802007D01*
X150299239Y-96867832D01*
X150246328Y-96908433D01*
X150153233Y-97001528D01*
X150112633Y-97054439D01*
X150095451Y-97084200D01*
X150045389Y-97129276D01*
X150001054Y-97138700D01*
X148617088Y-97138700D01*
X148576166Y-97149664D01*
X148576166Y-97149665D01*
X148520264Y-97164644D01*
X148464362Y-97179623D01*
X148327430Y-97258679D01*
X148215626Y-97370483D01*
X148215627Y-97370484D01*
X148215625Y-97370486D01*
X148215624Y-97370486D01*
X147982522Y-97603587D01*
X147922499Y-97634170D01*
X147855963Y-97623632D01*
X147808328Y-97575997D01*
X147797790Y-97509460D01*
X147798543Y-97505247D01*
X147818499Y-97404923D01*
X147818500Y-97404915D01*
X147818500Y-96457085D01*
X147818500Y-96457082D01*
X147789658Y-96312087D01*
X147733084Y-96175505D01*
X147650951Y-96052584D01*
X147546416Y-95948049D01*
X147534096Y-95939817D01*
X147423496Y-95865916D01*
X147423491Y-95865914D01*
X147286915Y-95809343D01*
X147286916Y-95809343D01*
X147286913Y-95809342D01*
X147141918Y-95780500D01*
X146994082Y-95780500D01*
X146849087Y-95809342D01*
X146849085Y-95809342D01*
X146849084Y-95809343D01*
X146712508Y-95865914D01*
X146712503Y-95865916D01*
X146589586Y-95948047D01*
X146485047Y-96052586D01*
X146402916Y-96175503D01*
X146402914Y-96175508D01*
X146346343Y-96312084D01*
X146346342Y-96312087D01*
X146317500Y-96457082D01*
X146317500Y-97404918D01*
X146346342Y-97549913D01*
X146346343Y-97549915D01*
X146402914Y-97686491D01*
X146402916Y-97686496D01*
X146420348Y-97712584D01*
X146485049Y-97809416D01*
X146585576Y-97909943D01*
X146616158Y-97969965D01*
X146617500Y-97987016D01*
X146617500Y-99904984D01*
X146596683Y-99969053D01*
X146585580Y-99982052D01*
X146522772Y-100044861D01*
X146485047Y-100082586D01*
X146402916Y-100205503D01*
X146402914Y-100205508D01*
X146346343Y-100342084D01*
X146346339Y-100342096D01*
X146336626Y-100390928D01*
X146303710Y-100449704D01*
X146242532Y-100477907D01*
X146176461Y-100464764D01*
X146130733Y-100415295D01*
X146129019Y-100411376D01*
X146127689Y-100408167D01*
X146127688Y-100408166D01*
X146127688Y-100408164D01*
X146058505Y-100288335D01*
X145960665Y-100190495D01*
X145960662Y-100190493D01*
X145840835Y-100121311D01*
X145707183Y-100085500D01*
X145568817Y-100085500D01*
X145435164Y-100121311D01*
X145315337Y-100190493D01*
X145217493Y-100288337D01*
X145148311Y-100408164D01*
X145112500Y-100541817D01*
X145112500Y-100680182D01*
X145148311Y-100813835D01*
X145217493Y-100933662D01*
X145217495Y-100933665D01*
X145315335Y-101031505D01*
X145435164Y-101100688D01*
X145568817Y-101136500D01*
X145707183Y-101136500D01*
X145840836Y-101100688D01*
X145960665Y-101031505D01*
X146058505Y-100933665D01*
X146114103Y-100837365D01*
X146164165Y-100792289D01*
X146231162Y-100785247D01*
X146289502Y-100818929D01*
X146316903Y-100880471D01*
X146317500Y-100891865D01*
X146317500Y-101734918D01*
X146346342Y-101879913D01*
X146346343Y-101879915D01*
X146402914Y-102016491D01*
X146402916Y-102016496D01*
X146415495Y-102035321D01*
X146485049Y-102139416D01*
X146589584Y-102243951D01*
X146651044Y-102285017D01*
X146712503Y-102326083D01*
X146712504Y-102326083D01*
X146712505Y-102326084D01*
X146849087Y-102382658D01*
X146994082Y-102411500D01*
X146994086Y-102411500D01*
X147141914Y-102411500D01*
X147141918Y-102411500D01*
X147286913Y-102382658D01*
X147423495Y-102326084D01*
X147546416Y-102243951D01*
X147650951Y-102139416D01*
X147733084Y-102016495D01*
X147789658Y-101879913D01*
X147818500Y-101734918D01*
X147818500Y-100487082D01*
X147789658Y-100342087D01*
X147733084Y-100205505D01*
X147723053Y-100190493D01*
X147650952Y-100082586D01*
X147650951Y-100082584D01*
X147550423Y-99982056D01*
X147519842Y-99922035D01*
X147518500Y-99904984D01*
X147518500Y-99554093D01*
X147539317Y-99490024D01*
X147593817Y-99450428D01*
X147661183Y-99450428D01*
X147715683Y-99490024D01*
X147732786Y-99525882D01*
X147743488Y-99565826D01*
X147743489Y-99565827D01*
X147822546Y-99702759D01*
X147934350Y-99814563D01*
X148071282Y-99893620D01*
X148224009Y-99934543D01*
X148382123Y-99934543D01*
X148534850Y-99893620D01*
X148671782Y-99814563D01*
X148783586Y-99702759D01*
X148862643Y-99565827D01*
X148903566Y-99413100D01*
X148903566Y-98448700D01*
X148924383Y-98384631D01*
X148978883Y-98345035D01*
X149012566Y-98339700D01*
X150001054Y-98339700D01*
X150065123Y-98360517D01*
X150095450Y-98394199D01*
X150112631Y-98423957D01*
X150112633Y-98423960D01*
X150153233Y-98476871D01*
X150246328Y-98569966D01*
X150299239Y-98610567D01*
X150317625Y-98621182D01*
X150413257Y-98676395D01*
X150474877Y-98701919D01*
X150602044Y-98735994D01*
X150668174Y-98744700D01*
X150668179Y-98744700D01*
X151233996Y-98744700D01*
X151234000Y-98744700D01*
X151331776Y-98725251D01*
X151331778Y-98725249D01*
X151331781Y-98725249D01*
X151341698Y-98721142D01*
X151343381Y-98725207D01*
X151388182Y-98712529D01*
X151424924Y-98724467D01*
X151426302Y-98721142D01*
X151436218Y-98725249D01*
X151436222Y-98725249D01*
X151436224Y-98725251D01*
X151534000Y-98744700D01*
X151534003Y-98744700D01*
X152099821Y-98744700D01*
X152099826Y-98744700D01*
X152165956Y-98735994D01*
X152293123Y-98701919D01*
X152354743Y-98676395D01*
X152468757Y-98610569D01*
X152521673Y-98569965D01*
X152614765Y-98476873D01*
X152655369Y-98423957D01*
X152672549Y-98394199D01*
X152722611Y-98349124D01*
X152766946Y-98339700D01*
X153100225Y-98339700D01*
X153100241Y-98339701D01*
X153106917Y-98339701D01*
X153265029Y-98339701D01*
X153265031Y-98339701D01*
X153417759Y-98298777D01*
X153467873Y-98269842D01*
X153467877Y-98269840D01*
X153493668Y-98254949D01*
X153554690Y-98219720D01*
X153666494Y-98107916D01*
X153666494Y-98107914D01*
X153675463Y-98098946D01*
X153675466Y-98098941D01*
X154928511Y-96845897D01*
X154988534Y-96815315D01*
X155055070Y-96825853D01*
X155102705Y-96873488D01*
X155112490Y-96901708D01*
X155122937Y-96954225D01*
X155124034Y-96959740D01*
X155179399Y-97042601D01*
X155262260Y-97097966D01*
X155335326Y-97112500D01*
X155335330Y-97112500D01*
X155626972Y-97112500D01*
X155691041Y-97133317D01*
X155730637Y-97187817D01*
X155735964Y-97220146D01*
X155739298Y-97488560D01*
X155719278Y-97552882D01*
X155679793Y-97587033D01*
X155633211Y-97610768D01*
X155493074Y-97712584D01*
X155370584Y-97835074D01*
X155268765Y-97975216D01*
X155268763Y-97975219D01*
X155265329Y-97981959D01*
X155265284Y-97982048D01*
X155234738Y-98042000D01*
X155194000Y-98042000D01*
X155194000Y-98121953D01*
X155190127Y-98129555D01*
X155186205Y-98141623D01*
X155186203Y-98141629D01*
X155136598Y-98294294D01*
X155113788Y-98438312D01*
X155083205Y-98498335D01*
X153733636Y-99847905D01*
X153645103Y-99936437D01*
X153582505Y-100044861D01*
X153550100Y-100165797D01*
X153550100Y-103375383D01*
X153537577Y-103422124D01*
X153538645Y-103422567D01*
X153535911Y-103429166D01*
X153500100Y-103562817D01*
X153500100Y-103701182D01*
X153535912Y-103834836D01*
X153538646Y-103841437D01*
X153537575Y-103841880D01*
X153550100Y-103888616D01*
X153550100Y-107333000D01*
X153529283Y-107397069D01*
X153474783Y-107436665D01*
X153441100Y-107442000D01*
X152648076Y-107442000D01*
X152614393Y-107436665D01*
X152515704Y-107404598D01*
X152515705Y-107404598D01*
X152344612Y-107377500D01*
X152344611Y-107377500D01*
X152171389Y-107377500D01*
X152171387Y-107377500D01*
X152000295Y-107404598D01*
X151901607Y-107436665D01*
X151867924Y-107442000D01*
X150108076Y-107442000D01*
X150074393Y-107436665D01*
X149975704Y-107404598D01*
X149975705Y-107404598D01*
X149804612Y-107377500D01*
X149804611Y-107377500D01*
X149631389Y-107377500D01*
X149631387Y-107377500D01*
X149460295Y-107404598D01*
X149361607Y-107436665D01*
X149327924Y-107442000D01*
X148937500Y-107442000D01*
X148873431Y-107421183D01*
X148833835Y-107366683D01*
X148828500Y-107333000D01*
X148828500Y-105841883D01*
X148828499Y-105841877D01*
X148811253Y-105777516D01*
X148811243Y-105777478D01*
X148803592Y-105748922D01*
X148755473Y-105665577D01*
X148723099Y-105633203D01*
X148639425Y-105549528D01*
X148608842Y-105489505D01*
X148607500Y-105472454D01*
X148607500Y-105439817D01*
X148571688Y-105306164D01*
X148502506Y-105186337D01*
X148502505Y-105186335D01*
X148404665Y-105088495D01*
X148404662Y-105088493D01*
X148284835Y-105019311D01*
X148151183Y-104983500D01*
X148012817Y-104983500D01*
X147879164Y-105019311D01*
X147759337Y-105088493D01*
X147661493Y-105186337D01*
X147592311Y-105306164D01*
X147582887Y-105341337D01*
X147556500Y-105439817D01*
X147556500Y-105578183D01*
X147561090Y-105595312D01*
X147592311Y-105711835D01*
X147661493Y-105831662D01*
X147661495Y-105831665D01*
X147759335Y-105929505D01*
X147879164Y-105998688D01*
X148012817Y-106034500D01*
X148012818Y-106034500D01*
X148016711Y-106035543D01*
X148073209Y-106072233D01*
X148097351Y-106135124D01*
X148097500Y-106140829D01*
X148097500Y-107333000D01*
X148076683Y-107397069D01*
X148022183Y-107436665D01*
X147988500Y-107442000D01*
X147568076Y-107442000D01*
X147534393Y-107436665D01*
X147435704Y-107404598D01*
X147435705Y-107404598D01*
X147264612Y-107377500D01*
X147264611Y-107377500D01*
X147091389Y-107377500D01*
X147091387Y-107377500D01*
X146920295Y-107404598D01*
X146821607Y-107436665D01*
X146787924Y-107442000D01*
X146265500Y-107442000D01*
X146201431Y-107421183D01*
X146161835Y-107366683D01*
X146156500Y-107333000D01*
X146156500Y-106091819D01*
X146177317Y-106027750D01*
X146188419Y-106014750D01*
X146216505Y-105986665D01*
X146285688Y-105866836D01*
X146321500Y-105733183D01*
X146321500Y-105594817D01*
X146285688Y-105461164D01*
X146216505Y-105341335D01*
X146118665Y-105243495D01*
X146118662Y-105243493D01*
X145998835Y-105174311D01*
X145865183Y-105138500D01*
X145726817Y-105138500D01*
X145593164Y-105174311D01*
X145473337Y-105243493D01*
X145375493Y-105341337D01*
X145306311Y-105461164D01*
X145282635Y-105549528D01*
X145270500Y-105594817D01*
X145270500Y-105733183D01*
X145272850Y-105741953D01*
X145306311Y-105866835D01*
X145342494Y-105929506D01*
X145375495Y-105986665D01*
X145403576Y-106014746D01*
X145434158Y-106074768D01*
X145435500Y-106091819D01*
X145435500Y-108861462D01*
X145414683Y-108925531D01*
X145360183Y-108965127D01*
X145298290Y-108966748D01*
X145230184Y-108948500D01*
X145230183Y-108948500D01*
X145091817Y-108948500D01*
X144958164Y-108984311D01*
X144838337Y-109053493D01*
X144740493Y-109151337D01*
X144671311Y-109271164D01*
X144635499Y-109404818D01*
X144634982Y-109408749D01*
X144633760Y-109411309D01*
X144633651Y-109411718D01*
X144633575Y-109411697D01*
X144605977Y-109469551D01*
X144546774Y-109501693D01*
X144479985Y-109492897D01*
X144475944Y-109490770D01*
X144474836Y-109490312D01*
X144341183Y-109454500D01*
X144202817Y-109454500D01*
X144069164Y-109490311D01*
X143949337Y-109559493D01*
X143851493Y-109657337D01*
X143782311Y-109777164D01*
X143767417Y-109832752D01*
X143746500Y-109910817D01*
X143746500Y-110049183D01*
X143756095Y-110084994D01*
X143782311Y-110182835D01*
X143851493Y-110302662D01*
X143851495Y-110302665D01*
X143949335Y-110400505D01*
X144069164Y-110469688D01*
X144202817Y-110505500D01*
X144341183Y-110505500D01*
X144474836Y-110469688D01*
X144594665Y-110400505D01*
X144692505Y-110302665D01*
X144761688Y-110182836D01*
X144797500Y-110049183D01*
X144797500Y-110049175D01*
X144798016Y-110045261D01*
X144799236Y-110042701D01*
X144799349Y-110042282D01*
X144799426Y-110042302D01*
X144827014Y-109984456D01*
X144886214Y-109952308D01*
X144953004Y-109961098D01*
X144957051Y-109963227D01*
X144958160Y-109963685D01*
X144958164Y-109963688D01*
X145091817Y-109999500D01*
X145230183Y-109999500D01*
X145298289Y-109981251D01*
X145365562Y-109984777D01*
X145417915Y-110027171D01*
X145435500Y-110086537D01*
X145435500Y-119021462D01*
X145427977Y-119044615D01*
X145424715Y-119068735D01*
X145417783Y-119075987D01*
X145414683Y-119085531D01*
X145394988Y-119099839D01*
X145378172Y-119117436D01*
X145369354Y-119118463D01*
X145360183Y-119125127D01*
X145311891Y-119129479D01*
X145304999Y-119128546D01*
X145230183Y-119108500D01*
X145156776Y-119108500D01*
X145149508Y-119107517D01*
X145125446Y-119095935D01*
X145100048Y-119087683D01*
X145095609Y-119081573D01*
X145088808Y-119078300D01*
X145076150Y-119054790D01*
X145060452Y-119033183D01*
X145058757Y-119022485D01*
X145056873Y-119018985D01*
X145057485Y-119014454D01*
X145055117Y-118999500D01*
X145055117Y-118979817D01*
X145019305Y-118846164D01*
X144950122Y-118726335D01*
X144852282Y-118628495D01*
X144834748Y-118618372D01*
X144732453Y-118559312D01*
X144624288Y-118530329D01*
X144567791Y-118493639D01*
X144543649Y-118430747D01*
X144543500Y-118425043D01*
X144543500Y-118419817D01*
X144507688Y-118286164D01*
X144438506Y-118166337D01*
X144438505Y-118166335D01*
X144340665Y-118068495D01*
X144278469Y-118032586D01*
X144220835Y-117999311D01*
X144087183Y-117963500D01*
X143948817Y-117963500D01*
X143815164Y-117999311D01*
X143695337Y-118068493D01*
X143597493Y-118166337D01*
X143528311Y-118286164D01*
X143503184Y-118379942D01*
X143492500Y-118419817D01*
X143492500Y-118558183D01*
X143492803Y-118559312D01*
X143528311Y-118691835D01*
X143595680Y-118808522D01*
X143597495Y-118811665D01*
X143695335Y-118909505D01*
X143815164Y-118978688D01*
X143923328Y-119007670D01*
X143979826Y-119044360D01*
X144003968Y-119107251D01*
X144004117Y-119112956D01*
X144004117Y-119118183D01*
X144004192Y-119118463D01*
X144039928Y-119251835D01*
X144091922Y-119341891D01*
X144109112Y-119371665D01*
X144206952Y-119469505D01*
X144300177Y-119523328D01*
X144326781Y-119538688D01*
X144460434Y-119574500D01*
X144526500Y-119574500D01*
X144590569Y-119595317D01*
X144630165Y-119649817D01*
X144635500Y-119683500D01*
X144635500Y-119703183D01*
X144639031Y-119716360D01*
X144671311Y-119836835D01*
X144740493Y-119956662D01*
X144740495Y-119956665D01*
X144838335Y-120054505D01*
X144958164Y-120123688D01*
X145091817Y-120159500D01*
X145230183Y-120159500D01*
X145363836Y-120123688D01*
X145363842Y-120123684D01*
X145370437Y-120120954D01*
X145371232Y-120122873D01*
X145427646Y-120110876D01*
X145489191Y-120138269D01*
X145494830Y-120143725D01*
X145504027Y-120153288D01*
X145507528Y-120159352D01*
X145568337Y-120220161D01*
X145569065Y-120220918D01*
X145583329Y-120250318D01*
X145598158Y-120279422D01*
X145598295Y-120281164D01*
X145598471Y-120281527D01*
X145598368Y-120282099D01*
X145599500Y-120296473D01*
X145599500Y-120336182D01*
X145635311Y-120469835D01*
X145694634Y-120572586D01*
X145704495Y-120589665D01*
X145802335Y-120687505D01*
X145825492Y-120700874D01*
X145842018Y-120710416D01*
X145887094Y-120760479D01*
X145894136Y-120827475D01*
X145881915Y-120859312D01*
X145846062Y-120921411D01*
X145846062Y-120921413D01*
X145810250Y-121055067D01*
X145810250Y-121193432D01*
X145846061Y-121327085D01*
X145886305Y-121396790D01*
X145915245Y-121446915D01*
X146013085Y-121544755D01*
X146132914Y-121613938D01*
X146266567Y-121649750D01*
X146404933Y-121649750D01*
X146538586Y-121613938D01*
X146658415Y-121544755D01*
X146756255Y-121446915D01*
X146825438Y-121327086D01*
X146861250Y-121193433D01*
X146861250Y-121055067D01*
X146825438Y-120921414D01*
X146756255Y-120801585D01*
X146658415Y-120703745D01*
X146658412Y-120703743D01*
X146658411Y-120703742D01*
X146618730Y-120680832D01*
X146573654Y-120630770D01*
X146566613Y-120563773D01*
X146578835Y-120531936D01*
X146614686Y-120469840D01*
X146614686Y-120469839D01*
X146614688Y-120469836D01*
X146650500Y-120336183D01*
X146650500Y-120197817D01*
X146614688Y-120064164D01*
X146545505Y-119944335D01*
X146447665Y-119846495D01*
X146447662Y-119846493D01*
X146327835Y-119777311D01*
X146237289Y-119753050D01*
X146180791Y-119716360D01*
X146156649Y-119653469D01*
X146156500Y-119647764D01*
X146156500Y-111808479D01*
X146177317Y-111744410D01*
X146231817Y-111704814D01*
X146274054Y-111699815D01*
X146316096Y-111703124D01*
X146747269Y-111271950D01*
X146777901Y-111325007D01*
X146870993Y-111418099D01*
X146924045Y-111448729D01*
X146492874Y-111879901D01*
X146601474Y-111958802D01*
X146755751Y-112037411D01*
X146920411Y-112090913D01*
X147091428Y-112118000D01*
X147264572Y-112118000D01*
X147435588Y-112090913D01*
X147600248Y-112037411D01*
X147754529Y-111958801D01*
X147807332Y-111920438D01*
X147871400Y-111899621D01*
X147935469Y-111920438D01*
X147947563Y-111930646D01*
X147980400Y-111962719D01*
X147980400Y-112014000D01*
X148032900Y-112014000D01*
X148064663Y-112045025D01*
X148076800Y-112068169D01*
X148092165Y-112089317D01*
X148094014Y-112100993D01*
X148095950Y-112104684D01*
X148095301Y-112109117D01*
X148097500Y-112123000D01*
X148097500Y-119395108D01*
X148076683Y-119459177D01*
X148065575Y-119472183D01*
X147730578Y-119807180D01*
X147730577Y-119807179D01*
X147662526Y-119875231D01*
X147614407Y-119958575D01*
X147589500Y-120051534D01*
X147589500Y-126323180D01*
X147568683Y-126387249D01*
X147557576Y-126400253D01*
X147534495Y-126423334D01*
X147465311Y-126543164D01*
X147429500Y-126676817D01*
X147429500Y-126815182D01*
X147465311Y-126948835D01*
X147534493Y-127068662D01*
X147534495Y-127068665D01*
X147579257Y-127113427D01*
X147609839Y-127173449D01*
X147599301Y-127239985D01*
X147579258Y-127267571D01*
X147543666Y-127303164D01*
X147534493Y-127312337D01*
X147465311Y-127432164D01*
X147439631Y-127528006D01*
X147429500Y-127565817D01*
X147429500Y-127704183D01*
X147430747Y-127708836D01*
X147465311Y-127837835D01*
X147465312Y-127837836D01*
X147534495Y-127957665D01*
X147632335Y-128055505D01*
X147752164Y-128124688D01*
X147885817Y-128160500D01*
X148024183Y-128160500D01*
X148157836Y-128124688D01*
X148277665Y-128055505D01*
X148375505Y-127957665D01*
X148444688Y-127837836D01*
X148480500Y-127704183D01*
X148480500Y-127565817D01*
X148444688Y-127432164D01*
X148375505Y-127312335D01*
X148330742Y-127267572D01*
X148300161Y-127207551D01*
X148310699Y-127141015D01*
X148330741Y-127113428D01*
X148375505Y-127068665D01*
X148444688Y-126948836D01*
X148480500Y-126815183D01*
X148480500Y-126676817D01*
X148444688Y-126543164D01*
X148375505Y-126423335D01*
X148375504Y-126423334D01*
X148352424Y-126400253D01*
X148321842Y-126340229D01*
X148320500Y-126323180D01*
X148320500Y-122104817D01*
X149461500Y-122104817D01*
X149461500Y-122243183D01*
X149471095Y-122278994D01*
X149497311Y-122376835D01*
X149507947Y-122395257D01*
X149566495Y-122496665D01*
X149664335Y-122594505D01*
X149784164Y-122663688D01*
X149917817Y-122699500D01*
X150056183Y-122699500D01*
X150189836Y-122663688D01*
X150309665Y-122594505D01*
X150407505Y-122496665D01*
X150476688Y-122376836D01*
X150512500Y-122243183D01*
X150512500Y-122104817D01*
X150476688Y-121971164D01*
X150407505Y-121851335D01*
X150309665Y-121753495D01*
X150286007Y-121739836D01*
X150189835Y-121684311D01*
X150056183Y-121648500D01*
X149917817Y-121648500D01*
X149784164Y-121684311D01*
X149664337Y-121753493D01*
X149566493Y-121851337D01*
X149497311Y-121971164D01*
X149470134Y-122072593D01*
X149461500Y-122104817D01*
X148320500Y-122104817D01*
X148320500Y-120296197D01*
X148341317Y-120232128D01*
X148352419Y-120219128D01*
X148412014Y-120159533D01*
X149002385Y-120159533D01*
X149002385Y-120297898D01*
X149038196Y-120431551D01*
X149060300Y-120469836D01*
X149107380Y-120551381D01*
X149205220Y-120649221D01*
X149325049Y-120718404D01*
X149458702Y-120754216D01*
X149597068Y-120754216D01*
X149730721Y-120718404D01*
X149850550Y-120649221D01*
X149948390Y-120551381D01*
X150017573Y-120431552D01*
X150053385Y-120297899D01*
X150053385Y-120159533D01*
X150017573Y-120025880D01*
X149948390Y-119906051D01*
X149915053Y-119872714D01*
X149884472Y-119812693D01*
X149895010Y-119746157D01*
X149915053Y-119718570D01*
X149990466Y-119643158D01*
X150059649Y-119523329D01*
X150095461Y-119389676D01*
X150095461Y-119251310D01*
X150059649Y-119117657D01*
X149990466Y-118997828D01*
X149892626Y-118899988D01*
X149892623Y-118899986D01*
X149772796Y-118830804D01*
X149639144Y-118794993D01*
X149500778Y-118794993D01*
X149367125Y-118830804D01*
X149247298Y-118899986D01*
X149149454Y-118997830D01*
X149080272Y-119117657D01*
X149059500Y-119195182D01*
X149044461Y-119251310D01*
X149044461Y-119389676D01*
X149046500Y-119397285D01*
X149080272Y-119523328D01*
X149149454Y-119643155D01*
X149149456Y-119643158D01*
X149182791Y-119676493D01*
X149213373Y-119736515D01*
X149202835Y-119803051D01*
X149182790Y-119830640D01*
X149107379Y-119906050D01*
X149038196Y-120025880D01*
X149002385Y-120159533D01*
X148412014Y-120159533D01*
X148755472Y-119816076D01*
X148760609Y-119807180D01*
X148803592Y-119732731D01*
X148809304Y-119711414D01*
X148828500Y-119639773D01*
X148828500Y-119543534D01*
X148828500Y-113976817D01*
X149588500Y-113976817D01*
X149588500Y-114115183D01*
X149592871Y-114131495D01*
X149624311Y-114248835D01*
X149693493Y-114368662D01*
X149693495Y-114368665D01*
X149791335Y-114466505D01*
X149911164Y-114535688D01*
X150044817Y-114571500D01*
X150183183Y-114571500D01*
X150316836Y-114535688D01*
X150436665Y-114466505D01*
X150534505Y-114368665D01*
X150603688Y-114248836D01*
X150639500Y-114115183D01*
X150639500Y-113976817D01*
X150603688Y-113843164D01*
X150534505Y-113723335D01*
X150436665Y-113625495D01*
X150436591Y-113625452D01*
X150316835Y-113556311D01*
X150183183Y-113520500D01*
X150044817Y-113520500D01*
X149911164Y-113556311D01*
X149791337Y-113625493D01*
X149693493Y-113723337D01*
X149624311Y-113843164D01*
X149592589Y-113961556D01*
X149588500Y-113976817D01*
X148828500Y-113976817D01*
X148828500Y-112123000D01*
X148849317Y-112058931D01*
X148903817Y-112019335D01*
X148937500Y-112014000D01*
X149222533Y-112014000D01*
X149272016Y-112025879D01*
X149295555Y-112037873D01*
X149377927Y-112064637D01*
X149460295Y-112091401D01*
X149460297Y-112091401D01*
X149460299Y-112091402D01*
X149631389Y-112118500D01*
X149631390Y-112118500D01*
X149804610Y-112118500D01*
X149804611Y-112118500D01*
X149975701Y-112091402D01*
X150140445Y-112037873D01*
X150163983Y-112025879D01*
X150213467Y-112014000D01*
X151147649Y-112014000D01*
X151211718Y-112034817D01*
X151224724Y-112045925D01*
X151227396Y-112048597D01*
X151227399Y-112048601D01*
X151310260Y-112103966D01*
X151383326Y-112118500D01*
X152069500Y-112118500D01*
X152133569Y-112139317D01*
X152173165Y-112193817D01*
X152178500Y-112227500D01*
X152178500Y-117923949D01*
X152157683Y-117988018D01*
X152103183Y-118027614D01*
X152041290Y-118029235D01*
X152013172Y-118021701D01*
X152013171Y-118021701D01*
X151874805Y-118021701D01*
X151741152Y-118057512D01*
X151621325Y-118126694D01*
X151523481Y-118224538D01*
X151454299Y-118344365D01*
X151421200Y-118467898D01*
X151418488Y-118478018D01*
X151418488Y-118616384D01*
X151423828Y-118636312D01*
X151454299Y-118750036D01*
X151523481Y-118869863D01*
X151523483Y-118869866D01*
X151621323Y-118967706D01*
X151741152Y-119036889D01*
X151874805Y-119072701D01*
X152013172Y-119072701D01*
X152027972Y-119068735D01*
X152041288Y-119065167D01*
X152072213Y-119066787D01*
X152103183Y-119066787D01*
X152105589Y-119068535D01*
X152108560Y-119068691D01*
X152132622Y-119088175D01*
X152157683Y-119106383D01*
X152158602Y-119109213D01*
X152160914Y-119111085D01*
X152178500Y-119170452D01*
X152178500Y-119341891D01*
X152157683Y-119405960D01*
X152146574Y-119418966D01*
X151941223Y-119624316D01*
X151899319Y-119648512D01*
X151899761Y-119649579D01*
X151893167Y-119652309D01*
X151773337Y-119721493D01*
X151675493Y-119819337D01*
X151606309Y-119939167D01*
X151603579Y-119945761D01*
X151602512Y-119945319D01*
X151578316Y-119987223D01*
X151458036Y-120107504D01*
X151458036Y-120107505D01*
X151369503Y-120196037D01*
X151306905Y-120304461D01*
X151274500Y-120425397D01*
X151274500Y-122643391D01*
X151253683Y-122707460D01*
X151242575Y-122720466D01*
X149733503Y-124229537D01*
X149670905Y-124337961D01*
X149638500Y-124458897D01*
X149638500Y-125598383D01*
X149625977Y-125645124D01*
X149627045Y-125645567D01*
X149624311Y-125652166D01*
X149588500Y-125785817D01*
X149588500Y-125924182D01*
X149624312Y-126057836D01*
X149627046Y-126064437D01*
X149625975Y-126064880D01*
X149638500Y-126111616D01*
X149638500Y-132724891D01*
X149635782Y-132733255D01*
X149637158Y-132741942D01*
X149625570Y-132764684D01*
X149617683Y-132788960D01*
X149606575Y-132801966D01*
X149554966Y-132853575D01*
X149494942Y-132884158D01*
X149477891Y-132885500D01*
X147335617Y-132885500D01*
X147288880Y-132872976D01*
X147288437Y-132874046D01*
X147281836Y-132871312D01*
X147148183Y-132835500D01*
X147009817Y-132835500D01*
X146876164Y-132871311D01*
X146756337Y-132940493D01*
X146658493Y-133038337D01*
X146589311Y-133158164D01*
X146553500Y-133291817D01*
X146553500Y-133430182D01*
X146589311Y-133563835D01*
X146658493Y-133683662D01*
X146658495Y-133683665D01*
X146756335Y-133781505D01*
X146876164Y-133850688D01*
X147009817Y-133886500D01*
X147148183Y-133886500D01*
X147281836Y-133850688D01*
X147281842Y-133850684D01*
X147288437Y-133847954D01*
X147288880Y-133849023D01*
X147335617Y-133836500D01*
X149782599Y-133836500D01*
X149782601Y-133836500D01*
X149903536Y-133804095D01*
X150011964Y-133741495D01*
X150494495Y-133258964D01*
X150557095Y-133150536D01*
X150589500Y-133029601D01*
X150589500Y-132904399D01*
X150589500Y-127005817D01*
X151747500Y-127005817D01*
X151747500Y-127144182D01*
X151783311Y-127277835D01*
X151815413Y-127333437D01*
X151852495Y-127397665D01*
X151950335Y-127495505D01*
X152070164Y-127564688D01*
X152203817Y-127600500D01*
X152342183Y-127600500D01*
X152475836Y-127564688D01*
X152595665Y-127495505D01*
X152614425Y-127476744D01*
X152674445Y-127446161D01*
X152740982Y-127456698D01*
X152768573Y-127476744D01*
X152797830Y-127506000D01*
X152819835Y-127528005D01*
X152939664Y-127597188D01*
X153073317Y-127633000D01*
X153211683Y-127633000D01*
X153345336Y-127597188D01*
X153465165Y-127528005D01*
X153563005Y-127430165D01*
X153632188Y-127310336D01*
X153668000Y-127176683D01*
X153668000Y-127038317D01*
X153632188Y-126904664D01*
X153563005Y-126784835D01*
X153465165Y-126686995D01*
X153465162Y-126686993D01*
X153345335Y-126617811D01*
X153211683Y-126582000D01*
X153073317Y-126582000D01*
X152939664Y-126617811D01*
X152819834Y-126686995D01*
X152801073Y-126705756D01*
X152741049Y-126736338D01*
X152674513Y-126725799D01*
X152646926Y-126705755D01*
X152595665Y-126654495D01*
X152475835Y-126585311D01*
X152342183Y-126549500D01*
X152203817Y-126549500D01*
X152070164Y-126585311D01*
X151950337Y-126654493D01*
X151852493Y-126752337D01*
X151783311Y-126872164D01*
X151747500Y-127005817D01*
X150589500Y-127005817D01*
X150589500Y-126173399D01*
X150589500Y-126111616D01*
X150602024Y-126064880D01*
X150600954Y-126064437D01*
X150603684Y-126057842D01*
X150603688Y-126057836D01*
X150639500Y-125924183D01*
X150639500Y-125785817D01*
X150603688Y-125652164D01*
X150603685Y-125652158D01*
X150600955Y-125645567D01*
X150602022Y-125645124D01*
X150589500Y-125598383D01*
X150589500Y-124763609D01*
X150610317Y-124699540D01*
X150621425Y-124686534D01*
X151314953Y-123993006D01*
X152130495Y-123177464D01*
X152193095Y-123069036D01*
X152225500Y-122948101D01*
X152225500Y-122822899D01*
X152225500Y-122423725D01*
X152246317Y-122359656D01*
X152300817Y-122320060D01*
X152368183Y-122320060D01*
X152388998Y-122329327D01*
X152441163Y-122359445D01*
X152574816Y-122395257D01*
X152713182Y-122395257D01*
X152846835Y-122359445D01*
X152966664Y-122290262D01*
X153064504Y-122192422D01*
X153133687Y-122072593D01*
X153169499Y-121938940D01*
X153169499Y-121800574D01*
X153133687Y-121666921D01*
X153064504Y-121547092D01*
X152966664Y-121449252D01*
X152966661Y-121449250D01*
X152846834Y-121380068D01*
X152713182Y-121344257D01*
X152574816Y-121344257D01*
X152441163Y-121380068D01*
X152389000Y-121410185D01*
X152323106Y-121424191D01*
X152261564Y-121396790D01*
X152227882Y-121338450D01*
X152225500Y-121315788D01*
X152225500Y-120734895D01*
X152246317Y-120670826D01*
X152292794Y-120634189D01*
X152298821Y-120631691D01*
X152298836Y-120631688D01*
X152418665Y-120562505D01*
X152516505Y-120464665D01*
X152585688Y-120344836D01*
X152585689Y-120344831D01*
X152588422Y-120338235D01*
X152589493Y-120338678D01*
X152613681Y-120296776D01*
X153034495Y-119875964D01*
X153091451Y-119777312D01*
X153097094Y-119767538D01*
X153097095Y-119767536D01*
X153129500Y-119646601D01*
X153129500Y-119521399D01*
X153129500Y-112208376D01*
X153150317Y-112144307D01*
X153196793Y-112107671D01*
X153205736Y-112103966D01*
X153205740Y-112103966D01*
X153288601Y-112048601D01*
X153343966Y-111965740D01*
X153358500Y-111892674D01*
X153358500Y-111862650D01*
X153379317Y-111798581D01*
X153390425Y-111785575D01*
X153416000Y-111760000D01*
X153416000Y-110577609D01*
X153436817Y-110513540D01*
X153447925Y-110500534D01*
X153604956Y-110343503D01*
X153664980Y-110312920D01*
X153731516Y-110323458D01*
X153779151Y-110371093D01*
X153791031Y-110420578D01*
X153791031Y-118644649D01*
X153815938Y-118737608D01*
X153864056Y-118820950D01*
X153864058Y-118820953D01*
X154128576Y-119085471D01*
X154159158Y-119145493D01*
X154160500Y-119162544D01*
X154160500Y-119195182D01*
X154196311Y-119328835D01*
X154265493Y-119448662D01*
X154265495Y-119448665D01*
X154363335Y-119546505D01*
X154483164Y-119615688D01*
X154616817Y-119651500D01*
X154755183Y-119651500D01*
X154888836Y-119615688D01*
X155008665Y-119546505D01*
X155008669Y-119546500D01*
X155014330Y-119542158D01*
X155015335Y-119543468D01*
X155067949Y-119516661D01*
X155134485Y-119527199D01*
X155182120Y-119574834D01*
X155194000Y-119624319D01*
X155194000Y-120960371D01*
X155188665Y-120994054D01*
X155136598Y-121154295D01*
X155109500Y-121325387D01*
X155109500Y-121498612D01*
X155136598Y-121669704D01*
X155188665Y-121829946D01*
X155194000Y-121863629D01*
X155194000Y-123500371D01*
X155188665Y-123534054D01*
X155136598Y-123694295D01*
X155109500Y-123865387D01*
X155109500Y-124038612D01*
X155136598Y-124209704D01*
X155188665Y-124369946D01*
X155194000Y-124403629D01*
X155194000Y-126040371D01*
X155188665Y-126074054D01*
X155136598Y-126234295D01*
X155109500Y-126405387D01*
X155109500Y-126578612D01*
X155136598Y-126749704D01*
X155188665Y-126909946D01*
X155194000Y-126943629D01*
X155194000Y-128580371D01*
X155188665Y-128614054D01*
X155136598Y-128774295D01*
X155109500Y-128945387D01*
X155109500Y-129118612D01*
X155136598Y-129289704D01*
X155188665Y-129449946D01*
X155194000Y-129483629D01*
X155194000Y-131120371D01*
X155188665Y-131154054D01*
X155136598Y-131314295D01*
X155109500Y-131485387D01*
X155109500Y-131658612D01*
X155136598Y-131829704D01*
X155188665Y-131989946D01*
X155194000Y-132023629D01*
X155194000Y-133660371D01*
X155188665Y-133694054D01*
X155136598Y-133854295D01*
X155109500Y-134025387D01*
X155109500Y-134198612D01*
X155136598Y-134369704D01*
X155188665Y-134529946D01*
X155194000Y-134563629D01*
X155194000Y-135398000D01*
X155173183Y-135462069D01*
X155118683Y-135501665D01*
X155085000Y-135507000D01*
X128887000Y-135507000D01*
X128822931Y-135486183D01*
X128783335Y-135431683D01*
X128778000Y-135398000D01*
X128778000Y-135155076D01*
X128783936Y-135136803D01*
X128784643Y-135117606D01*
X128793375Y-135107754D01*
X128798817Y-135091007D01*
X128826216Y-135064598D01*
X128831663Y-135060938D01*
X128846788Y-135053232D01*
X128891635Y-135020648D01*
X128893312Y-135019522D01*
X128923869Y-135010821D01*
X128954096Y-135001000D01*
X129359197Y-135001000D01*
X129359198Y-135001000D01*
X129359198Y-134278546D01*
X129360540Y-134261494D01*
X129370500Y-134198611D01*
X129370500Y-134025389D01*
X129360540Y-133962503D01*
X129359198Y-133945452D01*
X129359198Y-131738546D01*
X129360540Y-131721494D01*
X129370500Y-131658611D01*
X129370500Y-131485389D01*
X129360540Y-131422503D01*
X129359198Y-131405452D01*
X129359198Y-130429001D01*
X129359198Y-130429000D01*
X128887000Y-130429000D01*
X128822931Y-130408183D01*
X128783335Y-130353683D01*
X128778000Y-130320000D01*
X128778000Y-130074515D01*
X128798817Y-130010446D01*
X128837516Y-129977395D01*
X128846517Y-129972808D01*
X128846527Y-129972802D01*
X128955124Y-129893902D01*
X128955124Y-129893901D01*
X128778000Y-129716776D01*
X128778000Y-129363223D01*
X129131901Y-129717124D01*
X129131902Y-129717124D01*
X129210801Y-129608529D01*
X129289411Y-129454248D01*
X129342913Y-129289588D01*
X129370000Y-129118572D01*
X129370000Y-128945427D01*
X129342913Y-128774411D01*
X129289411Y-128609751D01*
X129210802Y-128455474D01*
X129131901Y-128346874D01*
X128778000Y-128700775D01*
X128778000Y-128347220D01*
X128955124Y-128170096D01*
X128846521Y-128091194D01*
X128837510Y-128086602D01*
X128789878Y-128038965D01*
X128778000Y-127989485D01*
X128778000Y-127744000D01*
X128798817Y-127679931D01*
X128853317Y-127640335D01*
X128887000Y-127635000D01*
X129359197Y-127635000D01*
X129359198Y-127635000D01*
X129359198Y-126658546D01*
X129360540Y-126641494D01*
X129364291Y-126617811D01*
X129370500Y-126578611D01*
X129370500Y-126405389D01*
X129360540Y-126342503D01*
X129359198Y-126325452D01*
X129359198Y-124118546D01*
X129360540Y-124101494D01*
X129361327Y-124096526D01*
X129370500Y-124038611D01*
X129370500Y-123865389D01*
X129360540Y-123802503D01*
X129359198Y-123785452D01*
X129359198Y-123437817D01*
X134094500Y-123437817D01*
X134094500Y-123576182D01*
X134130311Y-123709835D01*
X134178921Y-123794030D01*
X134199495Y-123829665D01*
X134297335Y-123927505D01*
X134417164Y-123996688D01*
X134550817Y-124032500D01*
X134689183Y-124032500D01*
X134822836Y-123996688D01*
X134942665Y-123927505D01*
X135040505Y-123829665D01*
X135109688Y-123709836D01*
X135145500Y-123576183D01*
X135145500Y-123437817D01*
X135109688Y-123304164D01*
X135040505Y-123184335D01*
X134942665Y-123086495D01*
X134942662Y-123086493D01*
X134822835Y-123017311D01*
X134689183Y-122981500D01*
X134550817Y-122981500D01*
X134417164Y-123017311D01*
X134297337Y-123086493D01*
X134199493Y-123184337D01*
X134130311Y-123304164D01*
X134094500Y-123437817D01*
X129359198Y-123437817D01*
X129359198Y-121578546D01*
X129360540Y-121561494D01*
X129363191Y-121544756D01*
X129370500Y-121498611D01*
X129370500Y-121325389D01*
X129360540Y-121262503D01*
X129359198Y-121245452D01*
X129359198Y-120992390D01*
X132613931Y-120992390D01*
X132613931Y-121130755D01*
X132649742Y-121264408D01*
X132684950Y-121325390D01*
X132718926Y-121384238D01*
X132816766Y-121482078D01*
X132936595Y-121551261D01*
X133070248Y-121587073D01*
X133208614Y-121587073D01*
X133342267Y-121551261D01*
X133462096Y-121482078D01*
X133559936Y-121384238D01*
X133629119Y-121264409D01*
X133664931Y-121130756D01*
X133664931Y-120992390D01*
X133629119Y-120858737D01*
X133574834Y-120764713D01*
X133559937Y-120738910D01*
X133559936Y-120738908D01*
X133540511Y-120719483D01*
X134044500Y-120719483D01*
X134044500Y-120857848D01*
X134080311Y-120991501D01*
X134129972Y-121077516D01*
X134149495Y-121111331D01*
X134159755Y-121121591D01*
X134190337Y-121181613D01*
X134179799Y-121248149D01*
X134177076Y-121253163D01*
X134130312Y-121334161D01*
X134130312Y-121334163D01*
X134094500Y-121467817D01*
X134094500Y-121606182D01*
X134130311Y-121739835D01*
X134194687Y-121851337D01*
X134199495Y-121859665D01*
X134297335Y-121957505D01*
X134417164Y-122026688D01*
X134550817Y-122062500D01*
X134689183Y-122062500D01*
X134822836Y-122026688D01*
X134942665Y-121957505D01*
X135040505Y-121859665D01*
X135109688Y-121739836D01*
X135145500Y-121606183D01*
X135145500Y-121467817D01*
X135109688Y-121334164D01*
X135040505Y-121214335D01*
X135030243Y-121204073D01*
X134999662Y-121144052D01*
X135010200Y-121077516D01*
X135012923Y-121072501D01*
X135059688Y-120991502D01*
X135095500Y-120857849D01*
X135095500Y-120719483D01*
X135059688Y-120585830D01*
X134990505Y-120466001D01*
X134989165Y-120464661D01*
X134962424Y-120437919D01*
X134931842Y-120377896D01*
X134930500Y-120360846D01*
X134930500Y-119229921D01*
X134951317Y-119165852D01*
X135005817Y-119126256D01*
X135067707Y-119124635D01*
X135130649Y-119141500D01*
X135130651Y-119141500D01*
X135269015Y-119141500D01*
X135402668Y-119105688D01*
X135522497Y-119036505D01*
X135620337Y-118938665D01*
X135689520Y-118818836D01*
X135725332Y-118685183D01*
X135725332Y-118546817D01*
X135689520Y-118413164D01*
X135620337Y-118293335D01*
X135522497Y-118195495D01*
X135471994Y-118166337D01*
X135402667Y-118126311D01*
X135269015Y-118090500D01*
X135130649Y-118090500D01*
X135067711Y-118107364D01*
X135000437Y-118103838D01*
X134948085Y-118061443D01*
X134930500Y-118002078D01*
X134930500Y-109325921D01*
X134951317Y-109261852D01*
X135005817Y-109222256D01*
X135067707Y-109220635D01*
X135130649Y-109237500D01*
X135130651Y-109237500D01*
X135269015Y-109237500D01*
X135402668Y-109201688D01*
X135522497Y-109132505D01*
X135620337Y-109034665D01*
X135689520Y-108914836D01*
X135725332Y-108781183D01*
X135725332Y-108642817D01*
X135689520Y-108509164D01*
X135620337Y-108389335D01*
X135522497Y-108291495D01*
X135522494Y-108291493D01*
X135402667Y-108222311D01*
X135269015Y-108186500D01*
X135130649Y-108186500D01*
X135067711Y-108203364D01*
X135000437Y-108199838D01*
X134948085Y-108157443D01*
X134930500Y-108098078D01*
X134930500Y-102860474D01*
X134951317Y-102796405D01*
X134962425Y-102783399D01*
X135127285Y-102618539D01*
X135394701Y-102351122D01*
X135454723Y-102320541D01*
X135521259Y-102331079D01*
X135548845Y-102351121D01*
X135567335Y-102369611D01*
X135687164Y-102438794D01*
X135820817Y-102474606D01*
X135959181Y-102474606D01*
X135959183Y-102474606D01*
X136092836Y-102438794D01*
X136092839Y-102438791D01*
X136095310Y-102438130D01*
X136162584Y-102441656D01*
X136214937Y-102484050D01*
X136232522Y-102543416D01*
X136232522Y-105633203D01*
X136211705Y-105697272D01*
X136157205Y-105736868D01*
X136089839Y-105736868D01*
X136046449Y-105710279D01*
X136000665Y-105664495D01*
X136000662Y-105664493D01*
X135880835Y-105595311D01*
X135747183Y-105559500D01*
X135608817Y-105559500D01*
X135475164Y-105595311D01*
X135355337Y-105664493D01*
X135257493Y-105762337D01*
X135188311Y-105882164D01*
X135152500Y-106015817D01*
X135152500Y-106154182D01*
X135188311Y-106287835D01*
X135205330Y-106317312D01*
X135257495Y-106407665D01*
X135355335Y-106505505D01*
X135475164Y-106574688D01*
X135608817Y-106610500D01*
X135648526Y-106610500D01*
X135712595Y-106631317D01*
X135725601Y-106642425D01*
X136854575Y-107771399D01*
X136885158Y-107831423D01*
X136886500Y-107848474D01*
X136886500Y-111717138D01*
X136865683Y-111781207D01*
X136811183Y-111820803D01*
X136749289Y-111822424D01*
X136617903Y-111787220D01*
X136479537Y-111787220D01*
X136345884Y-111823031D01*
X136226057Y-111892213D01*
X136128213Y-111990057D01*
X136059031Y-112109884D01*
X136036542Y-112193817D01*
X136023220Y-112243537D01*
X136023220Y-112381903D01*
X136032815Y-112417714D01*
X136059031Y-112515555D01*
X136059032Y-112515556D01*
X136128215Y-112635385D01*
X136156296Y-112663466D01*
X136186878Y-112723488D01*
X136188220Y-112740539D01*
X136188220Y-114800976D01*
X136169947Y-114857213D01*
X136171567Y-114858148D01*
X136098811Y-114984164D01*
X136063659Y-115115358D01*
X136063000Y-115117817D01*
X136063000Y-115256183D01*
X136072595Y-115291994D01*
X136098811Y-115389835D01*
X136158134Y-115492586D01*
X136167995Y-115509665D01*
X136181076Y-115522746D01*
X136211658Y-115582768D01*
X136213000Y-115599819D01*
X136213000Y-117062180D01*
X136192183Y-117126249D01*
X136181077Y-117139253D01*
X136167993Y-117152336D01*
X136098811Y-117272164D01*
X136063000Y-117405817D01*
X136063000Y-117544182D01*
X136098811Y-117677835D01*
X136098812Y-117677836D01*
X136167995Y-117797665D01*
X136181076Y-117810746D01*
X136211658Y-117870768D01*
X136213000Y-117887819D01*
X136213000Y-126893864D01*
X136192183Y-126957933D01*
X136137683Y-126997529D01*
X136132212Y-126999150D01*
X136068163Y-127016312D01*
X135948337Y-127085493D01*
X135850493Y-127183337D01*
X135781311Y-127303164D01*
X135745500Y-127436817D01*
X135745500Y-127575182D01*
X135781311Y-127708835D01*
X135850493Y-127828662D01*
X135850495Y-127828665D01*
X135948335Y-127926505D01*
X136068164Y-127995688D01*
X136132211Y-128012849D01*
X136188708Y-128049539D01*
X136212851Y-128112430D01*
X136213000Y-128118135D01*
X136213000Y-132947880D01*
X136192183Y-133011949D01*
X136181082Y-133024948D01*
X136180694Y-133025335D01*
X136111511Y-133145164D01*
X136075700Y-133278817D01*
X136075700Y-133417182D01*
X136111511Y-133550835D01*
X136174752Y-133660371D01*
X136180695Y-133670665D01*
X136278535Y-133768505D01*
X136398364Y-133837688D01*
X136532017Y-133873500D01*
X136670383Y-133873500D01*
X136804036Y-133837688D01*
X136923865Y-133768505D01*
X137021705Y-133670665D01*
X137090888Y-133550836D01*
X137126700Y-133417183D01*
X137126700Y-133278817D01*
X137090888Y-133145164D01*
X137021705Y-133025335D01*
X137021318Y-133024948D01*
X136995924Y-132999553D01*
X136965342Y-132939530D01*
X136964000Y-132922480D01*
X136964000Y-131833298D01*
X145983981Y-131833298D01*
X145983981Y-131971663D01*
X146019792Y-132105316D01*
X146019793Y-132105317D01*
X146088976Y-132225146D01*
X146186816Y-132322986D01*
X146306645Y-132392169D01*
X146440298Y-132427981D01*
X146578664Y-132427981D01*
X146712317Y-132392169D01*
X146832146Y-132322986D01*
X146929986Y-132225146D01*
X146999169Y-132105317D01*
X147034981Y-131971664D01*
X147034981Y-131833298D01*
X147018051Y-131770114D01*
X147021576Y-131702845D01*
X147063971Y-131650491D01*
X147068796Y-131647533D01*
X147134665Y-131609505D01*
X147232505Y-131511665D01*
X147301688Y-131391836D01*
X147337500Y-131258183D01*
X147337500Y-131119817D01*
X147301688Y-130986164D01*
X147232505Y-130866335D01*
X147187742Y-130821572D01*
X147157161Y-130761551D01*
X147167699Y-130695015D01*
X147187741Y-130667428D01*
X147232505Y-130622665D01*
X147301688Y-130502836D01*
X147337500Y-130369183D01*
X147337500Y-130230817D01*
X147301688Y-130097164D01*
X147232505Y-129977335D01*
X147134665Y-129879495D01*
X147134662Y-129879493D01*
X147014835Y-129810311D01*
X146881183Y-129774500D01*
X146742817Y-129774500D01*
X146609164Y-129810311D01*
X146489337Y-129879493D01*
X146391493Y-129977337D01*
X146322311Y-130097164D01*
X146286500Y-130230817D01*
X146286500Y-130369182D01*
X146322311Y-130502835D01*
X146322312Y-130502836D01*
X146391495Y-130622665D01*
X146436257Y-130667427D01*
X146466839Y-130727449D01*
X146456301Y-130793985D01*
X146436258Y-130821571D01*
X146402758Y-130855072D01*
X146391493Y-130866337D01*
X146322311Y-130986164D01*
X146286500Y-131119817D01*
X146286500Y-131258183D01*
X146303428Y-131321364D01*
X146299902Y-131388638D01*
X146257506Y-131440990D01*
X146252642Y-131443971D01*
X146186818Y-131481974D01*
X146088974Y-131579818D01*
X146019792Y-131699645D01*
X145983981Y-131833298D01*
X136964000Y-131833298D01*
X136964000Y-129089817D01*
X147429500Y-129089817D01*
X147429500Y-129228182D01*
X147465311Y-129361835D01*
X147523168Y-129462046D01*
X147534495Y-129481665D01*
X147632335Y-129579505D01*
X147752164Y-129648688D01*
X147885817Y-129684500D01*
X148024183Y-129684500D01*
X148157836Y-129648688D01*
X148277665Y-129579505D01*
X148375505Y-129481665D01*
X148444688Y-129361836D01*
X148480500Y-129228183D01*
X148480500Y-129089817D01*
X148444688Y-128956164D01*
X148375505Y-128836335D01*
X148277665Y-128738495D01*
X148212332Y-128700775D01*
X148157835Y-128669311D01*
X148024183Y-128633500D01*
X147885817Y-128633500D01*
X147752164Y-128669311D01*
X147632337Y-128738493D01*
X147534493Y-128836337D01*
X147465311Y-128956164D01*
X147429500Y-129089817D01*
X136964000Y-129089817D01*
X136964000Y-127774064D01*
X136938411Y-127678563D01*
X136888975Y-127592937D01*
X136879113Y-127583075D01*
X136848529Y-127523055D01*
X136859065Y-127456518D01*
X136879111Y-127428926D01*
X136888975Y-127419063D01*
X136938411Y-127333437D01*
X136964000Y-127237936D01*
X136964000Y-127139064D01*
X136964000Y-124780973D01*
X136984817Y-124716904D01*
X137039317Y-124677308D01*
X137106683Y-124677308D01*
X137150072Y-124703896D01*
X137522673Y-125076497D01*
X137604877Y-125123958D01*
X137696564Y-125148525D01*
X137791486Y-125148525D01*
X137849780Y-125148525D01*
X137913849Y-125169342D01*
X137926853Y-125180449D01*
X137954934Y-125208529D01*
X137954935Y-125208530D01*
X138074764Y-125277713D01*
X138208417Y-125313525D01*
X138346783Y-125313525D01*
X138480436Y-125277713D01*
X138600265Y-125208530D01*
X138698105Y-125110690D01*
X138767288Y-124990861D01*
X138803100Y-124857208D01*
X138803100Y-124718842D01*
X138767288Y-124585189D01*
X138698105Y-124465360D01*
X138600265Y-124367520D01*
X138574913Y-124352883D01*
X138480435Y-124298336D01*
X138346783Y-124262525D01*
X138208417Y-124262525D01*
X138074763Y-124298337D01*
X138074761Y-124298337D01*
X137950281Y-124370205D01*
X137884387Y-124384211D01*
X137822846Y-124356810D01*
X137818707Y-124352883D01*
X137639425Y-124173601D01*
X137608842Y-124113577D01*
X137607500Y-124096526D01*
X137607500Y-123754819D01*
X137628317Y-123690750D01*
X137682817Y-123651154D01*
X137750183Y-123651154D01*
X137793572Y-123677742D01*
X137853335Y-123737505D01*
X137973164Y-123806688D01*
X138106817Y-123842500D01*
X138245183Y-123842500D01*
X138378836Y-123806688D01*
X138498665Y-123737505D01*
X138596505Y-123639665D01*
X138665688Y-123519836D01*
X138701500Y-123386183D01*
X138701500Y-123247817D01*
X138665688Y-123114164D01*
X138596505Y-122994335D01*
X138498665Y-122896495D01*
X138498662Y-122896493D01*
X138378835Y-122827311D01*
X138264352Y-122796636D01*
X138207854Y-122759946D01*
X138183712Y-122697055D01*
X138183563Y-122691350D01*
X138183563Y-120393125D01*
X138204380Y-120329056D01*
X138258880Y-120289460D01*
X138326246Y-120289460D01*
X138358926Y-120306655D01*
X138361328Y-120308498D01*
X138361335Y-120308505D01*
X138481164Y-120377688D01*
X138614817Y-120413500D01*
X138753183Y-120413500D01*
X138886836Y-120377688D01*
X139006665Y-120308505D01*
X139104505Y-120210665D01*
X139173688Y-120090836D01*
X139209500Y-119957183D01*
X139209500Y-119818817D01*
X139173688Y-119685164D01*
X139110573Y-119575846D01*
X139096568Y-119509955D01*
X139123968Y-119448413D01*
X139127877Y-119444292D01*
X139200505Y-119371665D01*
X139269688Y-119251836D01*
X139305500Y-119118183D01*
X139305500Y-118979817D01*
X139269688Y-118846164D01*
X139200505Y-118726335D01*
X139102665Y-118628495D01*
X139102662Y-118628493D01*
X138982835Y-118559311D01*
X138849183Y-118523500D01*
X138710817Y-118523500D01*
X138577164Y-118559311D01*
X138457337Y-118628493D01*
X138457335Y-118628494D01*
X138457335Y-118628495D01*
X138369635Y-118716194D01*
X138309614Y-118746776D01*
X138243078Y-118736238D01*
X138195443Y-118688603D01*
X138183563Y-118639118D01*
X138183563Y-107181410D01*
X138179362Y-107165733D01*
X138158996Y-107089723D01*
X138158995Y-107089722D01*
X138158996Y-107089722D01*
X138141623Y-107059633D01*
X138111535Y-107007519D01*
X138111532Y-107007516D01*
X138044415Y-106940398D01*
X138044415Y-106940399D01*
X136985447Y-105881431D01*
X136954864Y-105821407D01*
X136953522Y-105804356D01*
X136953522Y-101791925D01*
X136974339Y-101727856D01*
X136985441Y-101714856D01*
X137013527Y-101686771D01*
X137082710Y-101566942D01*
X137118522Y-101433289D01*
X137118522Y-101294923D01*
X137082710Y-101161270D01*
X137013527Y-101041441D01*
X136915687Y-100943601D01*
X136915684Y-100943599D01*
X136795857Y-100874417D01*
X136662205Y-100838606D01*
X136523839Y-100838606D01*
X136390186Y-100874417D01*
X136270359Y-100943599D01*
X136172515Y-101041443D01*
X136103333Y-101161270D01*
X136067522Y-101294923D01*
X136067522Y-101314606D01*
X136046705Y-101378675D01*
X135992205Y-101418271D01*
X135958522Y-101423606D01*
X135820817Y-101423606D01*
X135687164Y-101459417D01*
X135567334Y-101528601D01*
X135539253Y-101556682D01*
X135479230Y-101587264D01*
X135462180Y-101588606D01*
X135239433Y-101588606D01*
X135147745Y-101613173D01*
X135065543Y-101660633D01*
X134348648Y-102377528D01*
X134348647Y-102377527D01*
X134281530Y-102444645D01*
X134281528Y-102444648D01*
X134234067Y-102526851D01*
X134209500Y-102618539D01*
X134209500Y-120360846D01*
X134188683Y-120424915D01*
X134177576Y-120437919D01*
X134149495Y-120466000D01*
X134080311Y-120585830D01*
X134044500Y-120719483D01*
X133540511Y-120719483D01*
X133462096Y-120641068D01*
X133458570Y-120639032D01*
X133342266Y-120571884D01*
X133208614Y-120536073D01*
X133070248Y-120536073D01*
X132936595Y-120571884D01*
X132816768Y-120641066D01*
X132718924Y-120738910D01*
X132649742Y-120858737D01*
X132613931Y-120992390D01*
X129359198Y-120992390D01*
X129359198Y-119038546D01*
X129360540Y-119021494D01*
X129360545Y-119021462D01*
X129370500Y-118958611D01*
X129370500Y-118785389D01*
X129360540Y-118722503D01*
X129359198Y-118705452D01*
X129359198Y-116498546D01*
X129360540Y-116481494D01*
X129370500Y-116418611D01*
X129370500Y-116245389D01*
X129360540Y-116182503D01*
X129359198Y-116165452D01*
X129359198Y-113958546D01*
X129360540Y-113941494D01*
X129370500Y-113878611D01*
X129370500Y-113705389D01*
X129360540Y-113642503D01*
X129359198Y-113625452D01*
X129359198Y-111418546D01*
X129360540Y-111401494D01*
X129364301Y-111377748D01*
X129370500Y-111338611D01*
X129370500Y-111165389D01*
X129360540Y-111102503D01*
X129359198Y-111085452D01*
X129359198Y-108878546D01*
X129360540Y-108861494D01*
X129360545Y-108861462D01*
X129370500Y-108798611D01*
X129370500Y-108625389D01*
X129360540Y-108562503D01*
X129359198Y-108545452D01*
X129359198Y-106338546D01*
X129360540Y-106321494D01*
X129370500Y-106258611D01*
X129370500Y-106085389D01*
X129360540Y-106022503D01*
X129359198Y-106005452D01*
X129359198Y-103798546D01*
X129360540Y-103781494D01*
X129370500Y-103718611D01*
X129370500Y-103545389D01*
X129360540Y-103482503D01*
X129359198Y-103465452D01*
X129359198Y-101258546D01*
X129360540Y-101241494D01*
X129370500Y-101178611D01*
X129370500Y-101005389D01*
X129360540Y-100942503D01*
X129359198Y-100925452D01*
X129359198Y-98718546D01*
X129360540Y-98701494D01*
X129363204Y-98684674D01*
X129370500Y-98638611D01*
X129370500Y-98465389D01*
X129360540Y-98402503D01*
X129359198Y-98385452D01*
X129359198Y-96954225D01*
X129361293Y-96932959D01*
X129366171Y-96908435D01*
X129370500Y-96886674D01*
X129370500Y-96479500D01*
X129391317Y-96415431D01*
X129445817Y-96375835D01*
X129479500Y-96370500D01*
X131619461Y-96370500D01*
X131711148Y-96345933D01*
X131793352Y-96298472D01*
X132195399Y-95896425D01*
X132255423Y-95865842D01*
X132272474Y-95864500D01*
X137769984Y-95864500D01*
X137834053Y-95885317D01*
X137873649Y-95939817D01*
X137873649Y-96007183D01*
X137848393Y-96048397D01*
X137848448Y-96048442D01*
X137848124Y-96048836D01*
X137847060Y-96050572D01*
X137845049Y-96052584D01*
X137845047Y-96052586D01*
X137762916Y-96175503D01*
X137762914Y-96175508D01*
X137706343Y-96312084D01*
X137706342Y-96312087D01*
X137677500Y-96457082D01*
X137677500Y-97404918D01*
X137706342Y-97549913D01*
X137706343Y-97549915D01*
X137762914Y-97686491D01*
X137762916Y-97686496D01*
X137780348Y-97712584D01*
X137845049Y-97809416D01*
X137945576Y-97909943D01*
X137976158Y-97969965D01*
X137977500Y-97987016D01*
X137977500Y-99904984D01*
X137956683Y-99969053D01*
X137945580Y-99982052D01*
X137882772Y-100044861D01*
X137845047Y-100082586D01*
X137762916Y-100205503D01*
X137762914Y-100205508D01*
X137706343Y-100342084D01*
X137706342Y-100342087D01*
X137677500Y-100487082D01*
X137677500Y-101734918D01*
X137706342Y-101879913D01*
X137706343Y-101879915D01*
X137762914Y-102016491D01*
X137762916Y-102016496D01*
X137775495Y-102035321D01*
X137845049Y-102139416D01*
X137949584Y-102243951D01*
X138011044Y-102285017D01*
X138072503Y-102326083D01*
X138072504Y-102326083D01*
X138072505Y-102326084D01*
X138209087Y-102382658D01*
X138354082Y-102411500D01*
X138354086Y-102411500D01*
X138501914Y-102411500D01*
X138501918Y-102411500D01*
X138646913Y-102382658D01*
X138783495Y-102326084D01*
X138906416Y-102243951D01*
X139010951Y-102139416D01*
X139093084Y-102016495D01*
X139149658Y-101879913D01*
X139178500Y-101734918D01*
X139178500Y-100891865D01*
X139199317Y-100827796D01*
X139253817Y-100788200D01*
X139321183Y-100788200D01*
X139375683Y-100827796D01*
X139381897Y-100837366D01*
X139437492Y-100933661D01*
X139437493Y-100933662D01*
X139437495Y-100933665D01*
X139535335Y-101031505D01*
X139655164Y-101100688D01*
X139788817Y-101136500D01*
X139927183Y-101136500D01*
X140060836Y-101100688D01*
X140180665Y-101031505D01*
X140278505Y-100933665D01*
X140347688Y-100813836D01*
X140383500Y-100680183D01*
X140383500Y-100541817D01*
X140347688Y-100408164D01*
X140278505Y-100288335D01*
X140180665Y-100190495D01*
X140180662Y-100190493D01*
X140060835Y-100121311D01*
X139927183Y-100085500D01*
X139788817Y-100085500D01*
X139655164Y-100121311D01*
X139535337Y-100190493D01*
X139437493Y-100288337D01*
X139368310Y-100408166D01*
X139366977Y-100411385D01*
X139365358Y-100413279D01*
X139364740Y-100414351D01*
X139364541Y-100414236D01*
X139323221Y-100462605D01*
X139257715Y-100478325D01*
X139195480Y-100452539D01*
X139160287Y-100395097D01*
X139159381Y-100390970D01*
X139149658Y-100342087D01*
X139093084Y-100205505D01*
X139083053Y-100190493D01*
X139010952Y-100082586D01*
X139010951Y-100082584D01*
X138910423Y-99982056D01*
X138879842Y-99922035D01*
X138878500Y-99904984D01*
X138878500Y-97987016D01*
X138899317Y-97922947D01*
X138910419Y-97909947D01*
X139010951Y-97809416D01*
X139093084Y-97686495D01*
X139149658Y-97549913D01*
X139178500Y-97404918D01*
X139178500Y-96457082D01*
X139149658Y-96312087D01*
X139093084Y-96175505D01*
X139010951Y-96052584D01*
X139008939Y-96050572D01*
X139008349Y-96049413D01*
X139007552Y-96048442D01*
X139007765Y-96048267D01*
X138978358Y-95990551D01*
X138988896Y-95924015D01*
X139036531Y-95876380D01*
X139086016Y-95864500D01*
X142045526Y-95864500D01*
X142053890Y-95867217D01*
X142062577Y-95865842D01*
X142085319Y-95877429D01*
X142109595Y-95885317D01*
X142122601Y-95896425D01*
X142228575Y-96002399D01*
X142259158Y-96062423D01*
X142260500Y-96079474D01*
X142260500Y-98074181D01*
X142239683Y-98138250D01*
X142185183Y-98177846D01*
X142117817Y-98177846D01*
X142074427Y-98151257D01*
X142054665Y-98131495D01*
X142013820Y-98107913D01*
X141934835Y-98062311D01*
X141801183Y-98026500D01*
X141662817Y-98026500D01*
X141529164Y-98062311D01*
X141409337Y-98131493D01*
X141311493Y-98229337D01*
X141242311Y-98349164D01*
X141206500Y-98482817D01*
X141206500Y-98621182D01*
X141242311Y-98754835D01*
X141242312Y-98754836D01*
X141311495Y-98874665D01*
X141409335Y-98972505D01*
X141409337Y-98972506D01*
X141529164Y-99041688D01*
X141669718Y-99079349D01*
X141668956Y-99082190D01*
X141718516Y-99105817D01*
X141750671Y-99165013D01*
X141752500Y-99184897D01*
X141752500Y-111272462D01*
X141731683Y-111336531D01*
X141677183Y-111376127D01*
X141615290Y-111377748D01*
X141547184Y-111359500D01*
X141547183Y-111359500D01*
X141408817Y-111359500D01*
X141408816Y-111359500D01*
X141340710Y-111377748D01*
X141273437Y-111374222D01*
X141221084Y-111331826D01*
X141203500Y-111272462D01*
X141203500Y-110490539D01*
X141184754Y-110420578D01*
X141178933Y-110398852D01*
X141178932Y-110398851D01*
X141178933Y-110398851D01*
X141152495Y-110353061D01*
X141131472Y-110316648D01*
X141117486Y-110302662D01*
X141064352Y-110249527D01*
X141064352Y-110249528D01*
X140473425Y-109658601D01*
X140442842Y-109598577D01*
X140441500Y-109581526D01*
X140441500Y-109012819D01*
X140462317Y-108948750D01*
X140473419Y-108935750D01*
X140501505Y-108907665D01*
X140570688Y-108787836D01*
X140606500Y-108654183D01*
X140606500Y-108515817D01*
X140570688Y-108382164D01*
X140501505Y-108262335D01*
X140403665Y-108164495D01*
X140391451Y-108157443D01*
X140283835Y-108095311D01*
X140150183Y-108059500D01*
X140011817Y-108059500D01*
X139878164Y-108095311D01*
X139758337Y-108164493D01*
X139660493Y-108262337D01*
X139591311Y-108382164D01*
X139555500Y-108515817D01*
X139555500Y-108654182D01*
X139591311Y-108787835D01*
X139633838Y-108861494D01*
X139660495Y-108907665D01*
X139688576Y-108935746D01*
X139719158Y-108995768D01*
X139720500Y-109012819D01*
X139720500Y-109728539D01*
X139720500Y-109823461D01*
X139739536Y-109894505D01*
X139745067Y-109915148D01*
X139745066Y-109915148D01*
X139773091Y-109963687D01*
X139792528Y-109997352D01*
X140450576Y-110655400D01*
X140481158Y-110715422D01*
X140482500Y-110732473D01*
X140482500Y-125683180D01*
X140461683Y-125747249D01*
X140450576Y-125760253D01*
X140422495Y-125788334D01*
X140353311Y-125908164D01*
X140317500Y-126041817D01*
X140317500Y-126180182D01*
X140353311Y-126313835D01*
X140406170Y-126405389D01*
X140422495Y-126433665D01*
X140520335Y-126531505D01*
X140640164Y-126600688D01*
X140773817Y-126636500D01*
X140912183Y-126636500D01*
X141045836Y-126600688D01*
X141165665Y-126531505D01*
X141263505Y-126433665D01*
X141332688Y-126313836D01*
X141368500Y-126180183D01*
X141368500Y-126041817D01*
X141332688Y-125908164D01*
X141263505Y-125788335D01*
X141250242Y-125775072D01*
X141235424Y-125760253D01*
X141204842Y-125700230D01*
X141203500Y-125683180D01*
X141203500Y-124136817D01*
X145016500Y-124136817D01*
X145016500Y-124275182D01*
X145052311Y-124408835D01*
X145084946Y-124465360D01*
X145121495Y-124528665D01*
X145219335Y-124626505D01*
X145339164Y-124695688D01*
X145472817Y-124731500D01*
X145611183Y-124731500D01*
X145744836Y-124695688D01*
X145864665Y-124626505D01*
X145864665Y-124626504D01*
X145868498Y-124624292D01*
X145934392Y-124610286D01*
X145995933Y-124637686D01*
X146009471Y-124652330D01*
X146010493Y-124653662D01*
X146010495Y-124653665D01*
X146108335Y-124751505D01*
X146228164Y-124820688D01*
X146361817Y-124856500D01*
X146500183Y-124856500D01*
X146633836Y-124820688D01*
X146753665Y-124751505D01*
X146851505Y-124653665D01*
X146920688Y-124533836D01*
X146956500Y-124400183D01*
X146956500Y-124261817D01*
X146920688Y-124128164D01*
X146851505Y-124008335D01*
X146753665Y-123910495D01*
X146753662Y-123910493D01*
X146633835Y-123841311D01*
X146500183Y-123805500D01*
X146361817Y-123805500D01*
X146228163Y-123841312D01*
X146228161Y-123841312D01*
X146104500Y-123912707D01*
X146038606Y-123926713D01*
X145977065Y-123899312D01*
X145963527Y-123884667D01*
X145962507Y-123883338D01*
X145962506Y-123883337D01*
X145962505Y-123883335D01*
X145864665Y-123785495D01*
X145864591Y-123785452D01*
X145744835Y-123716311D01*
X145611183Y-123680500D01*
X145472817Y-123680500D01*
X145339164Y-123716311D01*
X145219337Y-123785493D01*
X145121493Y-123883337D01*
X145052311Y-124003164D01*
X145016500Y-124136817D01*
X141203500Y-124136817D01*
X141203500Y-122737817D01*
X145905500Y-122737817D01*
X145905500Y-122876182D01*
X145941311Y-123009835D01*
X146010493Y-123129662D01*
X146010495Y-123129665D01*
X146108335Y-123227505D01*
X146228164Y-123296688D01*
X146361817Y-123332500D01*
X146500183Y-123332500D01*
X146633836Y-123296688D01*
X146753665Y-123227505D01*
X146851505Y-123129665D01*
X146920688Y-123009836D01*
X146956500Y-122876183D01*
X146956500Y-122737817D01*
X146920688Y-122604164D01*
X146851505Y-122484335D01*
X146753665Y-122386495D01*
X146753662Y-122386493D01*
X146633835Y-122317311D01*
X146500183Y-122281500D01*
X146361817Y-122281500D01*
X146228164Y-122317311D01*
X146108337Y-122386493D01*
X146010493Y-122484337D01*
X145941311Y-122604164D01*
X145905500Y-122737817D01*
X141203500Y-122737817D01*
X141203500Y-112497537D01*
X141224317Y-112433468D01*
X141278817Y-112393872D01*
X141340710Y-112392251D01*
X141408817Y-112410500D01*
X141547183Y-112410500D01*
X141615289Y-112392251D01*
X141682562Y-112395777D01*
X141734915Y-112438171D01*
X141752500Y-112497537D01*
X141752500Y-114758539D01*
X141752500Y-114853461D01*
X141777067Y-114945148D01*
X141777066Y-114945148D01*
X141806272Y-114995732D01*
X141824528Y-115027352D01*
X141936576Y-115139400D01*
X141967158Y-115199422D01*
X141968500Y-115216473D01*
X141968500Y-115256183D01*
X141978095Y-115291994D01*
X142004311Y-115389835D01*
X142063634Y-115492586D01*
X142073495Y-115509665D01*
X142171335Y-115607505D01*
X142291164Y-115676688D01*
X142424817Y-115712500D01*
X142563183Y-115712500D01*
X142696836Y-115676688D01*
X142816665Y-115607505D01*
X142914505Y-115509665D01*
X142983688Y-115389836D01*
X143019500Y-115256183D01*
X143019500Y-115117817D01*
X143017726Y-115111196D01*
X143021252Y-115043924D01*
X143063646Y-114991571D01*
X143128716Y-114974135D01*
X143191608Y-114998277D01*
X143200087Y-115005911D01*
X143460575Y-115266399D01*
X143491158Y-115326423D01*
X143492500Y-115343474D01*
X143492500Y-115383183D01*
X143494283Y-115389836D01*
X143528311Y-115516835D01*
X143580660Y-115607506D01*
X143597495Y-115636665D01*
X143695335Y-115734505D01*
X143815164Y-115803688D01*
X143948817Y-115839500D01*
X144087183Y-115839500D01*
X144220836Y-115803688D01*
X144340665Y-115734505D01*
X144438505Y-115636665D01*
X144507688Y-115516836D01*
X144543500Y-115383183D01*
X144543500Y-115244817D01*
X144508812Y-115115358D01*
X144512338Y-115048085D01*
X144554733Y-114995732D01*
X144559580Y-114992761D01*
X144594665Y-114972505D01*
X144692505Y-114874665D01*
X144761688Y-114754836D01*
X144797500Y-114621183D01*
X144797500Y-114482817D01*
X144761688Y-114349164D01*
X144692505Y-114229335D01*
X144594665Y-114131495D01*
X144594662Y-114131493D01*
X144594659Y-114131490D01*
X144593336Y-114130475D01*
X144592659Y-114129490D01*
X144589613Y-114126444D01*
X144590177Y-114125879D01*
X144555180Y-114074958D01*
X144556943Y-114007615D01*
X144590073Y-113962016D01*
X144589613Y-113961556D01*
X144592517Y-113958651D01*
X144593336Y-113957525D01*
X144594659Y-113956509D01*
X144594660Y-113956507D01*
X144594665Y-113956505D01*
X144692505Y-113858665D01*
X144761688Y-113738836D01*
X144797500Y-113605183D01*
X144797500Y-113466817D01*
X144761688Y-113333164D01*
X144692505Y-113213335D01*
X144594665Y-113115495D01*
X144594662Y-113115493D01*
X144474835Y-113046311D01*
X144341183Y-113010500D01*
X144202817Y-113010500D01*
X144069164Y-113046311D01*
X143949337Y-113115493D01*
X143851493Y-113213337D01*
X143782311Y-113333164D01*
X143746500Y-113466817D01*
X143746500Y-113605183D01*
X143756095Y-113640994D01*
X143782311Y-113738835D01*
X143851493Y-113858662D01*
X143851495Y-113858665D01*
X143949335Y-113956505D01*
X143949337Y-113956506D01*
X143949340Y-113956509D01*
X143950669Y-113957529D01*
X143951347Y-113958516D01*
X143954387Y-113961556D01*
X143953823Y-113962119D01*
X143988822Y-114013050D01*
X143987053Y-114080392D01*
X143953928Y-114125985D01*
X143954387Y-114126444D01*
X143951489Y-114129341D01*
X143950669Y-114130471D01*
X143949340Y-114131490D01*
X143851493Y-114229337D01*
X143782308Y-114349169D01*
X143780496Y-114353545D01*
X143736740Y-114404766D01*
X143671234Y-114420486D01*
X143608999Y-114394700D01*
X143602722Y-114388898D01*
X143013425Y-113799601D01*
X142982842Y-113739577D01*
X142981500Y-113722526D01*
X142981500Y-95837539D01*
X142973945Y-95809342D01*
X142956933Y-95745852D01*
X142956932Y-95745851D01*
X142956933Y-95745851D01*
X142939560Y-95715762D01*
X142909472Y-95663648D01*
X142893982Y-95648158D01*
X142842352Y-95596527D01*
X142842352Y-95596528D01*
X142461352Y-95215528D01*
X142379148Y-95168067D01*
X142287461Y-95143500D01*
X132125461Y-95143500D01*
X132030539Y-95143500D01*
X131938851Y-95168067D01*
X131856649Y-95215527D01*
X131454601Y-95617575D01*
X131394577Y-95648158D01*
X131377526Y-95649500D01*
X129479500Y-95649500D01*
X129415431Y-95628683D01*
X129375835Y-95574183D01*
X129370500Y-95540500D01*
X129370500Y-95137329D01*
X129370500Y-95137326D01*
X129361292Y-95091034D01*
X129359198Y-95069770D01*
X129359198Y-94722000D01*
X129380015Y-94657931D01*
X129434515Y-94618335D01*
X129468198Y-94613000D01*
X155595923Y-94613000D01*
X155659992Y-94633817D01*
G37*
%TD.AperFunction*%
%TA.AperFunction,Conductor*%
G36*
X146461099Y-110002817D02*
G01*
X146500695Y-110057317D01*
X146500695Y-110124683D01*
X146494696Y-110132938D01*
X146492874Y-110156096D01*
X146924047Y-110587270D01*
X146870993Y-110617901D01*
X146777901Y-110710993D01*
X146747269Y-110764047D01*
X146316095Y-110332873D01*
X146274053Y-110336183D01*
X146208548Y-110320457D01*
X146164797Y-110269232D01*
X146156500Y-110227519D01*
X146156500Y-110091000D01*
X146177317Y-110026931D01*
X146231817Y-109987335D01*
X146265500Y-109982000D01*
X146397030Y-109982000D01*
X146461099Y-110002817D01*
G37*
%TD.AperFunction*%
%TA.AperFunction,Conductor*%
G36*
X155136215Y-99896759D02*
G01*
X155163805Y-99916804D01*
X155194000Y-99946999D01*
X155194000Y-99947000D01*
X155194001Y-99947000D01*
X155580215Y-99947000D01*
X155644284Y-99967817D01*
X155683880Y-100022317D01*
X155683880Y-100089683D01*
X155644284Y-100144183D01*
X155636950Y-100148687D01*
X155637120Y-100148963D01*
X155633475Y-100151195D01*
X155524874Y-100230096D01*
X155776481Y-100481703D01*
X155780872Y-100835271D01*
X155779269Y-100838047D01*
X155348096Y-100406874D01*
X155269193Y-100515478D01*
X155190588Y-100669751D01*
X155137086Y-100834411D01*
X155110000Y-101005427D01*
X155110000Y-101178572D01*
X155137086Y-101349588D01*
X155190588Y-101514248D01*
X155269196Y-101668524D01*
X155348096Y-101777124D01*
X155779268Y-101345950D01*
X155787391Y-101360019D01*
X155791457Y-101687317D01*
X155524874Y-101953901D01*
X155636940Y-102035321D01*
X155635716Y-102037005D01*
X155674393Y-102082310D01*
X155679664Y-102149469D01*
X155644453Y-102206900D01*
X155582209Y-102232666D01*
X155573681Y-102233000D01*
X155194000Y-102233000D01*
X155194000Y-102233001D01*
X155194000Y-103180371D01*
X155188665Y-103214054D01*
X155136598Y-103374295D01*
X155109500Y-103545387D01*
X155109500Y-103718612D01*
X155136598Y-103889704D01*
X155188665Y-104049946D01*
X155194000Y-104083629D01*
X155194000Y-105720371D01*
X155188665Y-105754054D01*
X155136598Y-105914295D01*
X155109500Y-106085387D01*
X155109500Y-106201278D01*
X155088683Y-106265347D01*
X155034183Y-106304943D01*
X154972290Y-106306564D01*
X154878747Y-106281500D01*
X154878746Y-106281500D01*
X154740380Y-106281500D01*
X154638311Y-106308849D01*
X154571038Y-106305323D01*
X154518685Y-106262928D01*
X154501100Y-106203563D01*
X154501100Y-103888616D01*
X154513624Y-103841880D01*
X154512554Y-103841437D01*
X154515284Y-103834842D01*
X154515288Y-103834836D01*
X154551100Y-103701183D01*
X154551100Y-103562817D01*
X154515288Y-103429164D01*
X154515285Y-103429158D01*
X154512555Y-103422567D01*
X154513622Y-103422124D01*
X154501100Y-103375383D01*
X154501100Y-100470509D01*
X154521917Y-100406440D01*
X154533025Y-100393434D01*
X155009655Y-99916804D01*
X155069679Y-99886221D01*
X155136215Y-99896759D01*
G37*
%TD.AperFunction*%
%TD*%
D23*
X125730000Y-94232000D02*
X158750000Y-94232000D01*
X158750000Y-136142000D01*
X125730000Y-136142000D01*
X125730000Y-94232000D01*
M02*
