%TF.GenerationSoftware,KiCad,Pcbnew,9.0.4*%
%TF.CreationDate,2025-09-11T17:12:07+01:00*%
%TF.ProjectId,OE PyBoard,4f452050-7942-46f6-9172-642e6b696361,rev?*%
%TF.SameCoordinates,Original*%
%TF.FileFunction,Plated,1,4,PTH,Mixed*%
%TF.FilePolarity,Positive*%
%FSLAX46Y46*%
G04 Gerber Fmt 4.6, Leading zero omitted, Abs format (unit mm)*
G04 Created by KiCad (PCBNEW 9.0.4) date 2025-09-11 17:12:07*
%MOMM*%
%LPD*%
G01*
G04 APERTURE LIST*
%TA.AperFunction,ViaDrill*%
%ADD10C,0.220000*%
%TD*%
G04 aperture for slot hole*
%TA.AperFunction,ComponentDrill*%
%ADD11C,0.600000*%
%TD*%
%TA.AperFunction,ComponentDrill*%
%ADD12C,1.000000*%
%TD*%
G04 APERTURE END LIST*
D10*
X129794000Y-104902000D03*
X129794000Y-112014000D03*
X129794000Y-117983000D03*
X129844800Y-97688400D03*
X129921000Y-102362000D03*
X130048000Y-125250000D03*
X130302000Y-114681000D03*
X130454400Y-132232400D03*
X130454400Y-134569200D03*
X130500000Y-128250000D03*
X131318000Y-95123000D03*
X131500000Y-130000000D03*
X131960510Y-121062966D03*
X132069548Y-124458000D03*
X132334000Y-100584000D03*
X132334000Y-107950000D03*
X132969000Y-113030000D03*
X133139431Y-121061573D03*
X134315200Y-96875600D03*
X134570000Y-120788666D03*
X134620000Y-121537000D03*
X134620000Y-123507000D03*
X134747000Y-125222000D03*
X135001000Y-100584000D03*
X135199832Y-108712000D03*
X135199832Y-118616000D03*
X135255000Y-119634000D03*
X135509000Y-107569000D03*
X135509000Y-116459000D03*
X135678000Y-106085000D03*
X135890000Y-101949106D03*
X135890000Y-114427000D03*
X135939803Y-102980065D03*
X136271000Y-127506000D03*
X136500000Y-111000000D03*
X136548720Y-112312720D03*
X136588500Y-115187000D03*
X136588500Y-117475000D03*
X136593022Y-101364106D03*
X136601200Y-133348000D03*
X137287000Y-128522000D03*
X137718800Y-130911600D03*
X138176000Y-123317000D03*
X138277600Y-124788025D03*
X138557000Y-125730000D03*
X138684000Y-107315000D03*
X138684000Y-119888000D03*
X138780000Y-119049000D03*
X139077797Y-130940660D03*
X139430000Y-110570799D03*
X139827000Y-123317000D03*
X139903200Y-134366000D03*
X140081000Y-103124000D03*
X140081000Y-105410000D03*
X140081000Y-108585000D03*
X140081000Y-121158000D03*
X140843000Y-126111000D03*
X141097000Y-107823000D03*
X141478000Y-110871000D03*
X141478000Y-111885000D03*
X141732000Y-96647000D03*
X141732000Y-98552000D03*
X141732000Y-120777000D03*
X142240000Y-129284000D03*
X142494000Y-115187000D03*
X142798800Y-132559777D03*
X143002000Y-125730000D03*
X143408400Y-105714800D03*
X143499446Y-107500000D03*
X143713200Y-98602800D03*
X143891000Y-111887000D03*
X144018000Y-115314000D03*
X144018000Y-118489000D03*
X144272000Y-109980000D03*
X144272000Y-113536000D03*
X144272000Y-114552000D03*
X144510583Y-95235447D03*
X144529617Y-119049000D03*
X144974638Y-108710383D03*
X145161000Y-109474000D03*
X145161000Y-119634000D03*
X145161000Y-132588000D03*
X145288000Y-120904000D03*
X145542000Y-124206000D03*
X145796000Y-105664000D03*
X146125000Y-120267000D03*
X146335750Y-121124250D03*
X146431000Y-118872000D03*
X146431000Y-122807000D03*
X146431000Y-124331000D03*
X146509481Y-131902481D03*
X146558000Y-125424534D03*
X146812000Y-130300000D03*
X146812000Y-131189000D03*
X146939000Y-103251000D03*
X146939000Y-128397000D03*
X147079000Y-133361000D03*
X147624800Y-134518400D03*
X147955000Y-126746000D03*
X147955000Y-127635000D03*
X147955000Y-129159000D03*
X148082000Y-105509000D03*
X148219742Y-98615491D03*
X148303066Y-99334043D03*
X149225000Y-127000000D03*
X149250000Y-100000000D03*
X149453600Y-95402400D03*
X149527885Y-120228716D03*
X149553234Y-112839991D03*
X149569961Y-119320493D03*
X149987000Y-122174000D03*
X150114000Y-114046000D03*
X150114000Y-125855000D03*
X150215600Y-102717600D03*
X151028681Y-122263533D03*
X151250000Y-127075000D03*
X151384000Y-116179600D03*
X151511000Y-125730000D03*
X151647912Y-104421942D03*
X151943988Y-118547201D03*
X152096000Y-120142000D03*
X152273000Y-127075000D03*
X152643999Y-121869757D03*
X153142500Y-127107500D03*
X153162000Y-107061000D03*
X153354000Y-117500400D03*
X153416000Y-112649000D03*
X154025600Y-103632000D03*
X154482800Y-127254000D03*
X154686000Y-119126000D03*
X154686000Y-134620000D03*
X154736800Y-123342400D03*
X154736800Y-125577600D03*
X154809563Y-106807000D03*
X154813000Y-117856000D03*
X154889200Y-130454400D03*
D11*
%TO.C,J3*%
X138428000Y-96531000D02*
X138428000Y-97331000D01*
X138428000Y-100561000D02*
X138428000Y-101661000D01*
X147068000Y-96531000D02*
X147068000Y-97331000D01*
X147068000Y-100561000D02*
X147068000Y-101661000D01*
D12*
%TO.C,J6*%
X128270000Y-96012000D03*
X128270000Y-98552000D03*
X128270000Y-101092000D03*
X128270000Y-103632000D03*
X128270000Y-106172000D03*
X128270000Y-108712000D03*
X128270000Y-111252000D03*
X128270000Y-113792000D03*
X128270000Y-116332000D03*
X128270000Y-118872000D03*
X128270000Y-121412000D03*
X128270000Y-123952000D03*
X128270000Y-126492000D03*
X128270000Y-129032000D03*
X128270000Y-131572000D03*
X128270000Y-134112000D03*
%TO.C,J4*%
X147178000Y-108478000D03*
X147178000Y-111018000D03*
X149718000Y-108478000D03*
X149718000Y-111018000D03*
X152258000Y-108478000D03*
X152258000Y-111018000D03*
%TO.C,J7*%
X156210000Y-96012000D03*
X156210000Y-98552000D03*
X156210000Y-101092000D03*
X156210000Y-103632000D03*
X156210000Y-106172000D03*
X156210000Y-108712000D03*
X156210000Y-111252000D03*
X156210000Y-113792000D03*
X156210000Y-116332000D03*
X156210000Y-118872000D03*
X156210000Y-121412000D03*
X156210000Y-123952000D03*
X156210000Y-126492000D03*
X156210000Y-129032000D03*
X156210000Y-131572000D03*
X156210000Y-134112000D03*
M02*
