%TF.GenerationSoftware,KiCad,Pcbnew,9.0.4*%
%TF.CreationDate,2025-09-11T17:12:04+01:00*%
%TF.ProjectId,OE PyBoard,4f452050-7942-46f6-9172-642e6b696361,rev?*%
%TF.SameCoordinates,Original*%
%TF.FileFunction,Legend,Bot*%
%TF.FilePolarity,Positive*%
%FSLAX46Y46*%
G04 Gerber Fmt 4.6, Leading zero omitted, Abs format (unit mm)*
G04 Created by KiCad (PCBNEW 9.0.4) date 2025-09-11 17:12:04*
%MOMM*%
%LPD*%
G01*
G04 APERTURE LIST*
G04 Aperture macros list*
%AMFreePoly0*
4,1,23,0.500000,-0.750000,0.000000,-0.750000,0.000000,-0.745722,-0.065263,-0.745722,-0.191342,-0.711940,-0.304381,-0.646677,-0.396677,-0.554381,-0.461940,-0.441342,-0.495722,-0.315263,-0.495722,-0.250000,-0.500000,-0.250000,-0.500000,0.250000,-0.495722,0.250000,-0.495722,0.315263,-0.461940,0.441342,-0.396677,0.554381,-0.304381,0.646677,-0.191342,0.711940,-0.065263,0.745722,0.000000,0.745722,
0.000000,0.750000,0.500000,0.750000,0.500000,-0.750000,0.500000,-0.750000,$1*%
%AMFreePoly1*
4,1,23,0.000000,0.745722,0.065263,0.745722,0.191342,0.711940,0.304381,0.646677,0.396677,0.554381,0.461940,0.441342,0.495722,0.315263,0.495722,0.250000,0.500000,0.250000,0.500000,-0.250000,0.495722,-0.250000,0.495722,-0.315263,0.461940,-0.441342,0.396677,-0.554381,0.304381,-0.646677,0.191342,-0.711940,0.065263,-0.745722,0.000000,-0.745722,0.000000,-0.750000,-0.500000,-0.750000,
-0.500000,0.750000,0.000000,0.750000,0.000000,0.745722,0.000000,0.745722,$1*%
G04 Aperture macros list end*
%ADD10C,0.100000*%
%ADD11FreePoly0,0.000000*%
%ADD12FreePoly1,0.000000*%
%ADD13C,1.700000*%
%ADD14R,1.700000X1.700000*%
%ADD15O,1.000000X1.800000*%
%ADD16O,1.000000X2.100000*%
%ADD17C,0.650000*%
%TA.AperFunction,Profile*%
%ADD18C,0.230000*%
%TD*%
G04 APERTURE END LIST*
D10*
%TO.C,JP2*%
X149984000Y-97439200D02*
X149984000Y-98039200D01*
X150684000Y-98739200D02*
X152084000Y-98739200D01*
X152084000Y-96739200D02*
X150684000Y-96739200D01*
X152784000Y-98039200D02*
X152784000Y-97439200D01*
X149984000Y-97439200D02*
G75*
G02*
X150684000Y-96739200I699999J1D01*
G01*
X150684000Y-98739200D02*
G75*
G02*
X149984000Y-98039200I-1J699999D01*
G01*
X152084000Y-96739200D02*
G75*
G02*
X152784000Y-97439200I0J-700000D01*
G01*
X152784000Y-98039200D02*
G75*
G02*
X152084000Y-98739200I-700000J0D01*
G01*
%TO.C,REF\u002A\u002A*%
X146707850Y-117743622D02*
X146707846Y-117768670D01*
X146707820Y-117914179D01*
X146707780Y-118046495D01*
X146707719Y-118166264D01*
X146707630Y-118274130D01*
X146707506Y-118370736D01*
X146707339Y-118456727D01*
X146707123Y-118532747D01*
X146706850Y-118599439D01*
X146706514Y-118657448D01*
X146706106Y-118707418D01*
X146705620Y-118749993D01*
X146705049Y-118785817D01*
X146704386Y-118815533D01*
X146703623Y-118839787D01*
X146702753Y-118859222D01*
X146701770Y-118874482D01*
X146700665Y-118886211D01*
X146699432Y-118895053D01*
X146698064Y-118901652D01*
X146696554Y-118906653D01*
X146694893Y-118910699D01*
X146682176Y-118933716D01*
X146662946Y-118954435D01*
X146634814Y-118972281D01*
X146634561Y-118972413D01*
X146610722Y-118979896D01*
X146579845Y-118983222D01*
X146548186Y-118982159D01*
X146521999Y-118976474D01*
X146496353Y-118961873D01*
X146469627Y-118935846D01*
X146449374Y-118903729D01*
X146446805Y-118897652D01*
X146444196Y-118889321D01*
X146442063Y-118878647D01*
X146440356Y-118864343D01*
X146439028Y-118845118D01*
X146438030Y-118819686D01*
X146437314Y-118786755D01*
X146436833Y-118745039D01*
X146436538Y-118693249D01*
X146436380Y-118630095D01*
X146436312Y-118554289D01*
X146436159Y-118232731D01*
X146277583Y-118229272D01*
X146277353Y-118229267D01*
X146217168Y-118227670D01*
X146168457Y-118225499D01*
X146128766Y-118222312D01*
X146095636Y-118217667D01*
X146066611Y-118211123D01*
X146039234Y-118202238D01*
X146011050Y-118190570D01*
X145979600Y-118175676D01*
X145913595Y-118137310D01*
X145849149Y-118085086D01*
X145794726Y-118023264D01*
X145750605Y-117952168D01*
X145717061Y-117872115D01*
X145700786Y-117823323D01*
X145700786Y-117363279D01*
X145700786Y-117154982D01*
X145969848Y-117154982D01*
X145969993Y-117216728D01*
X145970280Y-117290118D01*
X145970677Y-117376301D01*
X145972630Y-117788471D01*
X145989802Y-117823323D01*
X146002354Y-117845127D01*
X146033956Y-117883993D01*
X146072426Y-117916568D01*
X146113699Y-117939056D01*
X146125271Y-117943324D01*
X146140487Y-117947773D01*
X146157765Y-117951077D01*
X146179481Y-117953479D01*
X146208009Y-117955226D01*
X146245727Y-117956561D01*
X146295009Y-117957729D01*
X146436159Y-117960676D01*
X146436159Y-117366984D01*
X146436159Y-116773291D01*
X146288039Y-116775530D01*
X146245253Y-116776209D01*
X146206229Y-116777050D01*
X146177015Y-116778184D01*
X146155385Y-116779870D01*
X146139112Y-116782365D01*
X146125970Y-116785928D01*
X146113731Y-116790816D01*
X146100169Y-116797288D01*
X146078366Y-116809814D01*
X146038843Y-116842234D01*
X146005915Y-116882069D01*
X145983249Y-116925307D01*
X145983220Y-116925387D01*
X145980189Y-116933833D01*
X145977621Y-116942443D01*
X145975482Y-116952365D01*
X145973740Y-116964746D01*
X145972364Y-116980735D01*
X145971322Y-117001481D01*
X145970581Y-117028130D01*
X145970110Y-117061831D01*
X145969876Y-117103732D01*
X145969848Y-117154982D01*
X145700786Y-117154982D01*
X145700786Y-116903235D01*
X145720414Y-116847472D01*
X145726606Y-116830744D01*
X145763274Y-116754606D01*
X145810447Y-116686726D01*
X145867130Y-116628013D01*
X145932326Y-116579376D01*
X146005037Y-116541722D01*
X146084266Y-116515962D01*
X146087320Y-116515242D01*
X146104111Y-116511576D01*
X146120819Y-116508678D01*
X146139195Y-116506476D01*
X146160992Y-116504899D01*
X146187965Y-116503877D01*
X146221864Y-116503339D01*
X146264444Y-116503214D01*
X146317457Y-116503432D01*
X146382657Y-116503921D01*
X146621918Y-116505924D01*
X146650175Y-116524633D01*
X146673474Y-116545159D01*
X146693218Y-116573883D01*
X146708003Y-116604426D01*
X146707901Y-117366984D01*
X146707850Y-117743622D01*
G36*
X146707850Y-117743622D02*
G01*
X146707846Y-117768670D01*
X146707820Y-117914179D01*
X146707780Y-118046495D01*
X146707719Y-118166264D01*
X146707630Y-118274130D01*
X146707506Y-118370736D01*
X146707339Y-118456727D01*
X146707123Y-118532747D01*
X146706850Y-118599439D01*
X146706514Y-118657448D01*
X146706106Y-118707418D01*
X146705620Y-118749993D01*
X146705049Y-118785817D01*
X146704386Y-118815533D01*
X146703623Y-118839787D01*
X146702753Y-118859222D01*
X146701770Y-118874482D01*
X146700665Y-118886211D01*
X146699432Y-118895053D01*
X146698064Y-118901652D01*
X146696554Y-118906653D01*
X146694893Y-118910699D01*
X146682176Y-118933716D01*
X146662946Y-118954435D01*
X146634814Y-118972281D01*
X146634561Y-118972413D01*
X146610722Y-118979896D01*
X146579845Y-118983222D01*
X146548186Y-118982159D01*
X146521999Y-118976474D01*
X146496353Y-118961873D01*
X146469627Y-118935846D01*
X146449374Y-118903729D01*
X146446805Y-118897652D01*
X146444196Y-118889321D01*
X146442063Y-118878647D01*
X146440356Y-118864343D01*
X146439028Y-118845118D01*
X146438030Y-118819686D01*
X146437314Y-118786755D01*
X146436833Y-118745039D01*
X146436538Y-118693249D01*
X146436380Y-118630095D01*
X146436312Y-118554289D01*
X146436159Y-118232731D01*
X146277583Y-118229272D01*
X146277353Y-118229267D01*
X146217168Y-118227670D01*
X146168457Y-118225499D01*
X146128766Y-118222312D01*
X146095636Y-118217667D01*
X146066611Y-118211123D01*
X146039234Y-118202238D01*
X146011050Y-118190570D01*
X145979600Y-118175676D01*
X145913595Y-118137310D01*
X145849149Y-118085086D01*
X145794726Y-118023264D01*
X145750605Y-117952168D01*
X145717061Y-117872115D01*
X145700786Y-117823323D01*
X145700786Y-117363279D01*
X145700786Y-117154982D01*
X145969848Y-117154982D01*
X145969993Y-117216728D01*
X145970280Y-117290118D01*
X145970677Y-117376301D01*
X145972630Y-117788471D01*
X145989802Y-117823323D01*
X146002354Y-117845127D01*
X146033956Y-117883993D01*
X146072426Y-117916568D01*
X146113699Y-117939056D01*
X146125271Y-117943324D01*
X146140487Y-117947773D01*
X146157765Y-117951077D01*
X146179481Y-117953479D01*
X146208009Y-117955226D01*
X146245727Y-117956561D01*
X146295009Y-117957729D01*
X146436159Y-117960676D01*
X146436159Y-117366984D01*
X146436159Y-116773291D01*
X146288039Y-116775530D01*
X146245253Y-116776209D01*
X146206229Y-116777050D01*
X146177015Y-116778184D01*
X146155385Y-116779870D01*
X146139112Y-116782365D01*
X146125970Y-116785928D01*
X146113731Y-116790816D01*
X146100169Y-116797288D01*
X146078366Y-116809814D01*
X146038843Y-116842234D01*
X146005915Y-116882069D01*
X145983249Y-116925307D01*
X145983220Y-116925387D01*
X145980189Y-116933833D01*
X145977621Y-116942443D01*
X145975482Y-116952365D01*
X145973740Y-116964746D01*
X145972364Y-116980735D01*
X145971322Y-117001481D01*
X145970581Y-117028130D01*
X145970110Y-117061831D01*
X145969876Y-117103732D01*
X145969848Y-117154982D01*
X145700786Y-117154982D01*
X145700786Y-116903235D01*
X145720414Y-116847472D01*
X145726606Y-116830744D01*
X145763274Y-116754606D01*
X145810447Y-116686726D01*
X145867130Y-116628013D01*
X145932326Y-116579376D01*
X146005037Y-116541722D01*
X146084266Y-116515962D01*
X146087320Y-116515242D01*
X146104111Y-116511576D01*
X146120819Y-116508678D01*
X146139195Y-116506476D01*
X146160992Y-116504899D01*
X146187965Y-116503877D01*
X146221864Y-116503339D01*
X146264444Y-116503214D01*
X146317457Y-116503432D01*
X146382657Y-116503921D01*
X146621918Y-116505924D01*
X146650175Y-116524633D01*
X146673474Y-116545159D01*
X146693218Y-116573883D01*
X146708003Y-116604426D01*
X146707901Y-117366984D01*
X146707850Y-117743622D01*
G37*
X137033004Y-116491831D02*
X137082566Y-116498502D01*
X137123755Y-116508818D01*
X137128968Y-116510635D01*
X137200791Y-116543261D01*
X137267341Y-116587513D01*
X137326171Y-116641498D01*
X137374837Y-116703321D01*
X137387754Y-116724244D01*
X137420204Y-116793348D01*
X137440505Y-116866265D01*
X137448835Y-116941209D01*
X137445372Y-117016396D01*
X137430292Y-117090040D01*
X137403773Y-117160356D01*
X137365993Y-117225559D01*
X137317130Y-117283865D01*
X137310668Y-117289756D01*
X137291321Y-117305594D01*
X137263112Y-117327446D01*
X137227688Y-117354083D01*
X137186695Y-117384274D01*
X137141776Y-117416787D01*
X137094578Y-117450391D01*
X137066685Y-117470160D01*
X137020919Y-117502933D01*
X136978529Y-117533692D01*
X136941128Y-117561246D01*
X136910326Y-117584404D01*
X136887735Y-117601972D01*
X136874969Y-117612760D01*
X136871163Y-117616511D01*
X136841198Y-117656320D01*
X136821921Y-117702468D01*
X136813848Y-117752017D01*
X136817495Y-117802029D01*
X136833378Y-117849566D01*
X136846073Y-117872107D01*
X136879898Y-117912724D01*
X136921829Y-117943097D01*
X136970034Y-117962076D01*
X137022685Y-117968512D01*
X137039914Y-117967956D01*
X137080774Y-117961598D01*
X137117787Y-117947125D01*
X137153013Y-117923261D01*
X137188516Y-117888725D01*
X137226357Y-117842239D01*
X137247775Y-117821385D01*
X137279814Y-117805455D01*
X137316104Y-117798942D01*
X137353632Y-117801575D01*
X137389380Y-117813086D01*
X137420332Y-117833204D01*
X137443473Y-117861660D01*
X137448431Y-117871125D01*
X137461211Y-117910062D01*
X137461388Y-117949625D01*
X137448800Y-117991208D01*
X137423287Y-118036203D01*
X137383887Y-118085679D01*
X137327063Y-118137726D01*
X137261165Y-118181216D01*
X137187979Y-118215001D01*
X137109290Y-118237932D01*
X137098708Y-118239542D01*
X137072384Y-118241490D01*
X137039658Y-118242292D01*
X137005259Y-118241772D01*
X136949517Y-118237127D01*
X136877486Y-118221642D01*
X136811094Y-118194892D01*
X136748287Y-118155989D01*
X136687010Y-118104043D01*
X136644730Y-118058160D01*
X136599633Y-117992112D01*
X136566996Y-117920762D01*
X136547181Y-117845193D01*
X136540548Y-117766493D01*
X136547461Y-117685745D01*
X136566369Y-117606537D01*
X136596577Y-117532170D01*
X136637745Y-117465951D01*
X136690186Y-117407268D01*
X136690508Y-117406964D01*
X136707122Y-117392764D01*
X136733238Y-117372196D01*
X136766908Y-117346718D01*
X136806181Y-117317785D01*
X136849106Y-117286851D01*
X136893733Y-117255373D01*
X136950090Y-117216032D01*
X136998825Y-117181849D01*
X137038311Y-117153825D01*
X137069670Y-117131044D01*
X137094028Y-117112589D01*
X137112506Y-117097543D01*
X137126231Y-117084989D01*
X137136324Y-117074010D01*
X137143909Y-117063690D01*
X137150112Y-117053113D01*
X137156054Y-117041360D01*
X137162998Y-117025519D01*
X137175077Y-116976875D01*
X137174375Y-116928513D01*
X137161616Y-116882389D01*
X137137526Y-116840464D01*
X137102829Y-116804694D01*
X137058249Y-116777038D01*
X137018400Y-116764062D01*
X136968536Y-116761274D01*
X136914166Y-116771548D01*
X136912657Y-116771998D01*
X136898186Y-116776877D01*
X136885188Y-116783052D01*
X136871885Y-116792053D01*
X136856499Y-116805410D01*
X136837251Y-116824653D01*
X136812362Y-116851312D01*
X136780053Y-116886916D01*
X136767501Y-116898977D01*
X136735604Y-116917687D01*
X136700632Y-116925335D01*
X136664837Y-116922864D01*
X136630473Y-116911216D01*
X136599794Y-116891333D01*
X136575054Y-116864160D01*
X136558507Y-116830638D01*
X136552406Y-116791709D01*
X136553225Y-116777670D01*
X136564119Y-116736930D01*
X136586451Y-116694974D01*
X136618651Y-116653242D01*
X136659146Y-116613173D01*
X136706365Y-116576208D01*
X136758735Y-116543787D01*
X136814685Y-116517350D01*
X136872642Y-116498337D01*
X136884148Y-116495777D01*
X136928788Y-116490260D01*
X136980075Y-116489014D01*
X137033004Y-116491831D01*
G36*
X137033004Y-116491831D02*
G01*
X137082566Y-116498502D01*
X137123755Y-116508818D01*
X137128968Y-116510635D01*
X137200791Y-116543261D01*
X137267341Y-116587513D01*
X137326171Y-116641498D01*
X137374837Y-116703321D01*
X137387754Y-116724244D01*
X137420204Y-116793348D01*
X137440505Y-116866265D01*
X137448835Y-116941209D01*
X137445372Y-117016396D01*
X137430292Y-117090040D01*
X137403773Y-117160356D01*
X137365993Y-117225559D01*
X137317130Y-117283865D01*
X137310668Y-117289756D01*
X137291321Y-117305594D01*
X137263112Y-117327446D01*
X137227688Y-117354083D01*
X137186695Y-117384274D01*
X137141776Y-117416787D01*
X137094578Y-117450391D01*
X137066685Y-117470160D01*
X137020919Y-117502933D01*
X136978529Y-117533692D01*
X136941128Y-117561246D01*
X136910326Y-117584404D01*
X136887735Y-117601972D01*
X136874969Y-117612760D01*
X136871163Y-117616511D01*
X136841198Y-117656320D01*
X136821921Y-117702468D01*
X136813848Y-117752017D01*
X136817495Y-117802029D01*
X136833378Y-117849566D01*
X136846073Y-117872107D01*
X136879898Y-117912724D01*
X136921829Y-117943097D01*
X136970034Y-117962076D01*
X137022685Y-117968512D01*
X137039914Y-117967956D01*
X137080774Y-117961598D01*
X137117787Y-117947125D01*
X137153013Y-117923261D01*
X137188516Y-117888725D01*
X137226357Y-117842239D01*
X137247775Y-117821385D01*
X137279814Y-117805455D01*
X137316104Y-117798942D01*
X137353632Y-117801575D01*
X137389380Y-117813086D01*
X137420332Y-117833204D01*
X137443473Y-117861660D01*
X137448431Y-117871125D01*
X137461211Y-117910062D01*
X137461388Y-117949625D01*
X137448800Y-117991208D01*
X137423287Y-118036203D01*
X137383887Y-118085679D01*
X137327063Y-118137726D01*
X137261165Y-118181216D01*
X137187979Y-118215001D01*
X137109290Y-118237932D01*
X137098708Y-118239542D01*
X137072384Y-118241490D01*
X137039658Y-118242292D01*
X137005259Y-118241772D01*
X136949517Y-118237127D01*
X136877486Y-118221642D01*
X136811094Y-118194892D01*
X136748287Y-118155989D01*
X136687010Y-118104043D01*
X136644730Y-118058160D01*
X136599633Y-117992112D01*
X136566996Y-117920762D01*
X136547181Y-117845193D01*
X136540548Y-117766493D01*
X136547461Y-117685745D01*
X136566369Y-117606537D01*
X136596577Y-117532170D01*
X136637745Y-117465951D01*
X136690186Y-117407268D01*
X136690508Y-117406964D01*
X136707122Y-117392764D01*
X136733238Y-117372196D01*
X136766908Y-117346718D01*
X136806181Y-117317785D01*
X136849106Y-117286851D01*
X136893733Y-117255373D01*
X136950090Y-117216032D01*
X136998825Y-117181849D01*
X137038311Y-117153825D01*
X137069670Y-117131044D01*
X137094028Y-117112589D01*
X137112506Y-117097543D01*
X137126231Y-117084989D01*
X137136324Y-117074010D01*
X137143909Y-117063690D01*
X137150112Y-117053113D01*
X137156054Y-117041360D01*
X137162998Y-117025519D01*
X137175077Y-116976875D01*
X137174375Y-116928513D01*
X137161616Y-116882389D01*
X137137526Y-116840464D01*
X137102829Y-116804694D01*
X137058249Y-116777038D01*
X137018400Y-116764062D01*
X136968536Y-116761274D01*
X136914166Y-116771548D01*
X136912657Y-116771998D01*
X136898186Y-116776877D01*
X136885188Y-116783052D01*
X136871885Y-116792053D01*
X136856499Y-116805410D01*
X136837251Y-116824653D01*
X136812362Y-116851312D01*
X136780053Y-116886916D01*
X136767501Y-116898977D01*
X136735604Y-116917687D01*
X136700632Y-116925335D01*
X136664837Y-116922864D01*
X136630473Y-116911216D01*
X136599794Y-116891333D01*
X136575054Y-116864160D01*
X136558507Y-116830638D01*
X136552406Y-116791709D01*
X136553225Y-116777670D01*
X136564119Y-116736930D01*
X136586451Y-116694974D01*
X136618651Y-116653242D01*
X136659146Y-116613173D01*
X136706365Y-116576208D01*
X136758735Y-116543787D01*
X136814685Y-116517350D01*
X136872642Y-116498337D01*
X136884148Y-116495777D01*
X136928788Y-116490260D01*
X136980075Y-116489014D01*
X137033004Y-116491831D01*
G37*
X147989070Y-117338575D02*
X147989413Y-117413605D01*
X147989703Y-117494601D01*
X147989824Y-117563702D01*
X147989756Y-117622038D01*
X147989477Y-117670741D01*
X147988968Y-117710939D01*
X147988206Y-117743763D01*
X147987172Y-117770345D01*
X147985844Y-117791813D01*
X147984202Y-117809299D01*
X147982225Y-117823933D01*
X147979892Y-117836845D01*
X147972107Y-117869641D01*
X147944198Y-117946747D01*
X147904841Y-118017387D01*
X147855163Y-118080450D01*
X147796293Y-118134825D01*
X147729359Y-118179401D01*
X147655489Y-118213067D01*
X147575813Y-118234712D01*
X147538664Y-118240174D01*
X147456758Y-118242530D01*
X147375753Y-118232041D01*
X147297885Y-118209094D01*
X147225386Y-118174077D01*
X147182178Y-118144623D01*
X147126217Y-118094436D01*
X147076358Y-118035711D01*
X147035102Y-117971505D01*
X147004957Y-117904877D01*
X147000196Y-117890940D01*
X146994260Y-117871112D01*
X146989215Y-117850136D01*
X146985001Y-117826851D01*
X146981558Y-117800093D01*
X146978824Y-117768699D01*
X146976739Y-117731506D01*
X146975242Y-117687352D01*
X146974271Y-117635074D01*
X146973767Y-117573508D01*
X146973668Y-117501491D01*
X146973913Y-117417862D01*
X146974409Y-117327478D01*
X147244755Y-117327478D01*
X147244797Y-117395418D01*
X147245042Y-117462669D01*
X147245488Y-117527574D01*
X147246133Y-117588477D01*
X147246977Y-117643722D01*
X147248016Y-117691652D01*
X147249250Y-117730611D01*
X147250677Y-117758943D01*
X147252295Y-117774993D01*
X147252692Y-117777113D01*
X147269933Y-117832548D01*
X147298626Y-117880414D01*
X147338023Y-117919745D01*
X147387375Y-117949577D01*
X147403350Y-117956075D01*
X147454103Y-117967886D01*
X147506980Y-117968715D01*
X147558172Y-117958761D01*
X147603869Y-117938226D01*
X147604845Y-117937616D01*
X147633312Y-117915239D01*
X147661641Y-117885560D01*
X147685824Y-117853287D01*
X147701855Y-117823126D01*
X147703967Y-117817341D01*
X147706419Y-117809080D01*
X147708487Y-117799165D01*
X147710205Y-117786477D01*
X147711604Y-117769902D01*
X147712716Y-117748320D01*
X147713575Y-117720617D01*
X147714213Y-117685674D01*
X147714662Y-117642375D01*
X147714955Y-117589603D01*
X147715124Y-117526241D01*
X147715202Y-117451172D01*
X147715220Y-117363279D01*
X147715220Y-116938087D01*
X147696852Y-116898913D01*
X147671076Y-116854763D01*
X147633214Y-116813379D01*
X147587388Y-116783204D01*
X147577621Y-116778542D01*
X147558236Y-116770826D01*
X147538893Y-116766375D01*
X147514937Y-116764338D01*
X147481713Y-116763861D01*
X147465518Y-116763949D01*
X147437282Y-116765002D01*
X147416605Y-116767895D01*
X147399087Y-116773434D01*
X147380325Y-116782425D01*
X147334026Y-116813222D01*
X147295043Y-116854450D01*
X147267359Y-116903598D01*
X147251496Y-116959943D01*
X147250269Y-116971707D01*
X147248847Y-116998101D01*
X147247639Y-117035399D01*
X147246644Y-117081944D01*
X147245860Y-117136081D01*
X147245284Y-117196153D01*
X147244916Y-117260504D01*
X147244755Y-117327478D01*
X146974409Y-117327478D01*
X146974442Y-117321457D01*
X146974777Y-117269327D01*
X146975317Y-117191455D01*
X146975866Y-117125611D01*
X146976468Y-117070589D01*
X146977170Y-117025187D01*
X146978018Y-116988202D01*
X146979058Y-116958431D01*
X146980335Y-116934669D01*
X146981895Y-116915715D01*
X146983784Y-116900363D01*
X146986048Y-116887412D01*
X146988733Y-116875658D01*
X146991885Y-116863897D01*
X146995763Y-116850667D01*
X147026549Y-116772593D01*
X147068079Y-116702201D01*
X147119250Y-116640341D01*
X147178958Y-116587856D01*
X147246099Y-116545595D01*
X147319570Y-116514404D01*
X147398267Y-116495130D01*
X147481085Y-116488619D01*
X147559568Y-116493642D01*
X147637217Y-116510259D01*
X147708621Y-116538920D01*
X147774837Y-116580060D01*
X147836924Y-116634110D01*
X147873390Y-116673282D01*
X147912798Y-116725047D01*
X147943475Y-116779437D01*
X147967996Y-116840502D01*
X147986909Y-116896265D01*
X147987113Y-116938087D01*
X147989070Y-117338575D01*
G36*
X147989070Y-117338575D02*
G01*
X147989413Y-117413605D01*
X147989703Y-117494601D01*
X147989824Y-117563702D01*
X147989756Y-117622038D01*
X147989477Y-117670741D01*
X147988968Y-117710939D01*
X147988206Y-117743763D01*
X147987172Y-117770345D01*
X147985844Y-117791813D01*
X147984202Y-117809299D01*
X147982225Y-117823933D01*
X147979892Y-117836845D01*
X147972107Y-117869641D01*
X147944198Y-117946747D01*
X147904841Y-118017387D01*
X147855163Y-118080450D01*
X147796293Y-118134825D01*
X147729359Y-118179401D01*
X147655489Y-118213067D01*
X147575813Y-118234712D01*
X147538664Y-118240174D01*
X147456758Y-118242530D01*
X147375753Y-118232041D01*
X147297885Y-118209094D01*
X147225386Y-118174077D01*
X147182178Y-118144623D01*
X147126217Y-118094436D01*
X147076358Y-118035711D01*
X147035102Y-117971505D01*
X147004957Y-117904877D01*
X147000196Y-117890940D01*
X146994260Y-117871112D01*
X146989215Y-117850136D01*
X146985001Y-117826851D01*
X146981558Y-117800093D01*
X146978824Y-117768699D01*
X146976739Y-117731506D01*
X146975242Y-117687352D01*
X146974271Y-117635074D01*
X146973767Y-117573508D01*
X146973668Y-117501491D01*
X146973913Y-117417862D01*
X146974409Y-117327478D01*
X147244755Y-117327478D01*
X147244797Y-117395418D01*
X147245042Y-117462669D01*
X147245488Y-117527574D01*
X147246133Y-117588477D01*
X147246977Y-117643722D01*
X147248016Y-117691652D01*
X147249250Y-117730611D01*
X147250677Y-117758943D01*
X147252295Y-117774993D01*
X147252692Y-117777113D01*
X147269933Y-117832548D01*
X147298626Y-117880414D01*
X147338023Y-117919745D01*
X147387375Y-117949577D01*
X147403350Y-117956075D01*
X147454103Y-117967886D01*
X147506980Y-117968715D01*
X147558172Y-117958761D01*
X147603869Y-117938226D01*
X147604845Y-117937616D01*
X147633312Y-117915239D01*
X147661641Y-117885560D01*
X147685824Y-117853287D01*
X147701855Y-117823126D01*
X147703967Y-117817341D01*
X147706419Y-117809080D01*
X147708487Y-117799165D01*
X147710205Y-117786477D01*
X147711604Y-117769902D01*
X147712716Y-117748320D01*
X147713575Y-117720617D01*
X147714213Y-117685674D01*
X147714662Y-117642375D01*
X147714955Y-117589603D01*
X147715124Y-117526241D01*
X147715202Y-117451172D01*
X147715220Y-117363279D01*
X147715220Y-116938087D01*
X147696852Y-116898913D01*
X147671076Y-116854763D01*
X147633214Y-116813379D01*
X147587388Y-116783204D01*
X147577621Y-116778542D01*
X147558236Y-116770826D01*
X147538893Y-116766375D01*
X147514937Y-116764338D01*
X147481713Y-116763861D01*
X147465518Y-116763949D01*
X147437282Y-116765002D01*
X147416605Y-116767895D01*
X147399087Y-116773434D01*
X147380325Y-116782425D01*
X147334026Y-116813222D01*
X147295043Y-116854450D01*
X147267359Y-116903598D01*
X147251496Y-116959943D01*
X147250269Y-116971707D01*
X147248847Y-116998101D01*
X147247639Y-117035399D01*
X147246644Y-117081944D01*
X147245860Y-117136081D01*
X147245284Y-117196153D01*
X147244916Y-117260504D01*
X147244755Y-117327478D01*
X146974409Y-117327478D01*
X146974442Y-117321457D01*
X146974777Y-117269327D01*
X146975317Y-117191455D01*
X146975866Y-117125611D01*
X146976468Y-117070589D01*
X146977170Y-117025187D01*
X146978018Y-116988202D01*
X146979058Y-116958431D01*
X146980335Y-116934669D01*
X146981895Y-116915715D01*
X146983784Y-116900363D01*
X146986048Y-116887412D01*
X146988733Y-116875658D01*
X146991885Y-116863897D01*
X146995763Y-116850667D01*
X147026549Y-116772593D01*
X147068079Y-116702201D01*
X147119250Y-116640341D01*
X147178958Y-116587856D01*
X147246099Y-116545595D01*
X147319570Y-116514404D01*
X147398267Y-116495130D01*
X147481085Y-116488619D01*
X147559568Y-116493642D01*
X147637217Y-116510259D01*
X147708621Y-116538920D01*
X147774837Y-116580060D01*
X147836924Y-116634110D01*
X147873390Y-116673282D01*
X147912798Y-116725047D01*
X147943475Y-116779437D01*
X147967996Y-116840502D01*
X147986909Y-116896265D01*
X147987113Y-116938087D01*
X147989070Y-117338575D01*
G37*
X139788675Y-115749713D02*
X139822634Y-115765787D01*
X139851607Y-115791858D01*
X139873230Y-115827928D01*
X139873978Y-115830002D01*
X139875320Y-115835595D01*
X139876539Y-115843822D01*
X139877639Y-115855312D01*
X139878627Y-115870691D01*
X139879509Y-115890589D01*
X139880290Y-115915634D01*
X139880975Y-115946454D01*
X139881571Y-115983676D01*
X139882084Y-116027930D01*
X139882518Y-116079843D01*
X139882881Y-116140043D01*
X139883176Y-116209159D01*
X139883411Y-116287818D01*
X139883591Y-116376649D01*
X139883722Y-116476281D01*
X139883809Y-116587340D01*
X139883858Y-116710456D01*
X139883875Y-116846256D01*
X139883865Y-116995368D01*
X139883860Y-117030655D01*
X139883834Y-117175403D01*
X139883793Y-117307001D01*
X139883731Y-117426094D01*
X139883641Y-117533324D01*
X139883516Y-117629336D01*
X139883348Y-117714773D01*
X139883130Y-117790279D01*
X139882855Y-117856496D01*
X139882516Y-117914068D01*
X139882106Y-117963640D01*
X139881618Y-118005853D01*
X139881044Y-118041352D01*
X139880377Y-118070780D01*
X139879610Y-118094781D01*
X139878736Y-118113998D01*
X139877748Y-118129074D01*
X139876639Y-118140654D01*
X139875401Y-118149379D01*
X139874027Y-118155895D01*
X139872511Y-118160844D01*
X139870844Y-118164870D01*
X139859858Y-118184850D01*
X139832279Y-118215130D01*
X139795807Y-118234862D01*
X139758346Y-118243013D01*
X139717234Y-118240271D01*
X139679780Y-118225739D01*
X139648342Y-118200381D01*
X139625276Y-118165159D01*
X139624837Y-118164176D01*
X139622769Y-118158826D01*
X139620944Y-118152230D01*
X139619347Y-118143543D01*
X139617963Y-118131917D01*
X139616776Y-118116506D01*
X139615771Y-118096464D01*
X139614933Y-118070944D01*
X139614245Y-118039101D01*
X139613693Y-118000088D01*
X139613261Y-117953058D01*
X139612934Y-117897165D01*
X139612696Y-117831564D01*
X139612532Y-117755407D01*
X139612426Y-117667848D01*
X139612363Y-117568041D01*
X139612327Y-117455140D01*
X139612174Y-116773291D01*
X139464054Y-116775530D01*
X139448160Y-116775776D01*
X139402006Y-116776643D01*
X139366948Y-116777712D01*
X139340787Y-116779204D01*
X139321320Y-116781337D01*
X139306348Y-116784332D01*
X139293669Y-116788408D01*
X139281082Y-116793785D01*
X139272055Y-116798254D01*
X139231631Y-116825787D01*
X139195254Y-116862160D01*
X139167227Y-116903235D01*
X139148645Y-116938087D01*
X139145160Y-117541023D01*
X139141675Y-118143959D01*
X139122515Y-118176551D01*
X139100611Y-118203919D01*
X139068648Y-118227126D01*
X139032331Y-118240952D01*
X138995575Y-118243339D01*
X138954256Y-118233291D01*
X138918614Y-118211754D01*
X138890742Y-118178733D01*
X138869831Y-118145065D01*
X138867796Y-117590368D01*
X138867792Y-117589133D01*
X138867431Y-117477765D01*
X138867239Y-117379369D01*
X138867253Y-117292987D01*
X138867513Y-117217660D01*
X138868055Y-117152431D01*
X138868918Y-117096342D01*
X138870140Y-117048434D01*
X138871758Y-117007749D01*
X138873812Y-116973329D01*
X138876339Y-116944217D01*
X138879376Y-116919453D01*
X138882963Y-116898080D01*
X138887137Y-116879140D01*
X138891936Y-116861674D01*
X138897398Y-116844725D01*
X138924025Y-116781127D01*
X138966746Y-116710907D01*
X139020162Y-116648787D01*
X139083393Y-116595614D01*
X139155557Y-116552234D01*
X139235775Y-116519494D01*
X139242993Y-116517337D01*
X139259557Y-116513622D01*
X139280211Y-116510707D01*
X139306928Y-116508447D01*
X139341675Y-116506696D01*
X139386424Y-116505308D01*
X139443143Y-116504137D01*
X139612174Y-116501173D01*
X139612174Y-116177460D01*
X139612213Y-116110929D01*
X139612381Y-116044349D01*
X139612716Y-115989431D01*
X139613258Y-115944941D01*
X139614043Y-115909645D01*
X139615111Y-115882311D01*
X139616498Y-115861706D01*
X139618244Y-115846595D01*
X139620386Y-115835747D01*
X139622962Y-115827928D01*
X139626884Y-115819306D01*
X139650291Y-115785392D01*
X139680539Y-115761476D01*
X139715263Y-115747557D01*
X139752096Y-115743636D01*
X139788675Y-115749713D01*
G36*
X139788675Y-115749713D02*
G01*
X139822634Y-115765787D01*
X139851607Y-115791858D01*
X139873230Y-115827928D01*
X139873978Y-115830002D01*
X139875320Y-115835595D01*
X139876539Y-115843822D01*
X139877639Y-115855312D01*
X139878627Y-115870691D01*
X139879509Y-115890589D01*
X139880290Y-115915634D01*
X139880975Y-115946454D01*
X139881571Y-115983676D01*
X139882084Y-116027930D01*
X139882518Y-116079843D01*
X139882881Y-116140043D01*
X139883176Y-116209159D01*
X139883411Y-116287818D01*
X139883591Y-116376649D01*
X139883722Y-116476281D01*
X139883809Y-116587340D01*
X139883858Y-116710456D01*
X139883875Y-116846256D01*
X139883865Y-116995368D01*
X139883860Y-117030655D01*
X139883834Y-117175403D01*
X139883793Y-117307001D01*
X139883731Y-117426094D01*
X139883641Y-117533324D01*
X139883516Y-117629336D01*
X139883348Y-117714773D01*
X139883130Y-117790279D01*
X139882855Y-117856496D01*
X139882516Y-117914068D01*
X139882106Y-117963640D01*
X139881618Y-118005853D01*
X139881044Y-118041352D01*
X139880377Y-118070780D01*
X139879610Y-118094781D01*
X139878736Y-118113998D01*
X139877748Y-118129074D01*
X139876639Y-118140654D01*
X139875401Y-118149379D01*
X139874027Y-118155895D01*
X139872511Y-118160844D01*
X139870844Y-118164870D01*
X139859858Y-118184850D01*
X139832279Y-118215130D01*
X139795807Y-118234862D01*
X139758346Y-118243013D01*
X139717234Y-118240271D01*
X139679780Y-118225739D01*
X139648342Y-118200381D01*
X139625276Y-118165159D01*
X139624837Y-118164176D01*
X139622769Y-118158826D01*
X139620944Y-118152230D01*
X139619347Y-118143543D01*
X139617963Y-118131917D01*
X139616776Y-118116506D01*
X139615771Y-118096464D01*
X139614933Y-118070944D01*
X139614245Y-118039101D01*
X139613693Y-118000088D01*
X139613261Y-117953058D01*
X139612934Y-117897165D01*
X139612696Y-117831564D01*
X139612532Y-117755407D01*
X139612426Y-117667848D01*
X139612363Y-117568041D01*
X139612327Y-117455140D01*
X139612174Y-116773291D01*
X139464054Y-116775530D01*
X139448160Y-116775776D01*
X139402006Y-116776643D01*
X139366948Y-116777712D01*
X139340787Y-116779204D01*
X139321320Y-116781337D01*
X139306348Y-116784332D01*
X139293669Y-116788408D01*
X139281082Y-116793785D01*
X139272055Y-116798254D01*
X139231631Y-116825787D01*
X139195254Y-116862160D01*
X139167227Y-116903235D01*
X139148645Y-116938087D01*
X139145160Y-117541023D01*
X139141675Y-118143959D01*
X139122515Y-118176551D01*
X139100611Y-118203919D01*
X139068648Y-118227126D01*
X139032331Y-118240952D01*
X138995575Y-118243339D01*
X138954256Y-118233291D01*
X138918614Y-118211754D01*
X138890742Y-118178733D01*
X138869831Y-118145065D01*
X138867796Y-117590368D01*
X138867792Y-117589133D01*
X138867431Y-117477765D01*
X138867239Y-117379369D01*
X138867253Y-117292987D01*
X138867513Y-117217660D01*
X138868055Y-117152431D01*
X138868918Y-117096342D01*
X138870140Y-117048434D01*
X138871758Y-117007749D01*
X138873812Y-116973329D01*
X138876339Y-116944217D01*
X138879376Y-116919453D01*
X138882963Y-116898080D01*
X138887137Y-116879140D01*
X138891936Y-116861674D01*
X138897398Y-116844725D01*
X138924025Y-116781127D01*
X138966746Y-116710907D01*
X139020162Y-116648787D01*
X139083393Y-116595614D01*
X139155557Y-116552234D01*
X139235775Y-116519494D01*
X139242993Y-116517337D01*
X139259557Y-116513622D01*
X139280211Y-116510707D01*
X139306928Y-116508447D01*
X139341675Y-116506696D01*
X139386424Y-116505308D01*
X139443143Y-116504137D01*
X139612174Y-116501173D01*
X139612174Y-116177460D01*
X139612213Y-116110929D01*
X139612381Y-116044349D01*
X139612716Y-115989431D01*
X139613258Y-115944941D01*
X139614043Y-115909645D01*
X139615111Y-115882311D01*
X139616498Y-115861706D01*
X139618244Y-115846595D01*
X139620386Y-115835747D01*
X139622962Y-115827928D01*
X139626884Y-115819306D01*
X139650291Y-115785392D01*
X139680539Y-115761476D01*
X139715263Y-115747557D01*
X139752096Y-115743636D01*
X139788675Y-115749713D01*
G37*
X143895984Y-116503891D02*
X144133499Y-116505924D01*
X144162463Y-116525101D01*
X144170051Y-116530695D01*
X144190629Y-116550786D01*
X144205594Y-116572047D01*
X144205895Y-116572638D01*
X144208059Y-116577153D01*
X144209982Y-116582204D01*
X144211678Y-116588580D01*
X144213157Y-116597070D01*
X144214433Y-116608461D01*
X144215516Y-116623542D01*
X144216420Y-116643102D01*
X144217155Y-116667930D01*
X144217735Y-116698813D01*
X144218171Y-116736540D01*
X144218476Y-116781901D01*
X144218660Y-116835682D01*
X144218737Y-116898673D01*
X144218719Y-116971662D01*
X144218617Y-117055438D01*
X144218443Y-117150789D01*
X144218210Y-117258504D01*
X144217930Y-117379371D01*
X144216098Y-118158925D01*
X144198672Y-118184670D01*
X144193423Y-118191499D01*
X144172035Y-118211596D01*
X144146395Y-118228246D01*
X144140955Y-118230880D01*
X144100981Y-118242212D01*
X144060758Y-118241124D01*
X144023005Y-118228467D01*
X143990441Y-118205090D01*
X143965786Y-118171841D01*
X143965708Y-118171691D01*
X143963317Y-118166905D01*
X143961203Y-118161700D01*
X143959345Y-118155230D01*
X143957724Y-118146650D01*
X143956321Y-118135116D01*
X143955115Y-118119782D01*
X143954089Y-118099803D01*
X143953222Y-118074334D01*
X143952495Y-118042529D01*
X143951888Y-118003545D01*
X143951382Y-117956536D01*
X143950958Y-117900656D01*
X143950596Y-117835061D01*
X143950277Y-117758906D01*
X143949981Y-117671345D01*
X143949689Y-117571533D01*
X143949381Y-117458626D01*
X143947538Y-116773294D01*
X143799518Y-116775531D01*
X143757981Y-116776190D01*
X143718649Y-116777031D01*
X143689192Y-116778160D01*
X143667386Y-116779832D01*
X143651006Y-116782305D01*
X143637828Y-116785833D01*
X143625626Y-116790672D01*
X143612176Y-116797080D01*
X143602065Y-116802433D01*
X143560982Y-116832142D01*
X143525294Y-116870275D01*
X143499272Y-116912466D01*
X143499206Y-116912610D01*
X143496579Y-116918487D01*
X143494272Y-116924624D01*
X143492260Y-116931932D01*
X143490514Y-116941322D01*
X143489009Y-116953709D01*
X143487718Y-116970002D01*
X143486614Y-116991116D01*
X143485671Y-117017960D01*
X143484863Y-117051449D01*
X143484161Y-117092493D01*
X143483541Y-117142005D01*
X143482976Y-117200898D01*
X143482438Y-117270082D01*
X143481901Y-117350471D01*
X143481339Y-117442975D01*
X143480725Y-117548509D01*
X143477240Y-118151960D01*
X143458541Y-118180211D01*
X143439479Y-118203644D01*
X143406059Y-118228432D01*
X143368266Y-118241563D01*
X143328490Y-118242715D01*
X143289121Y-118231570D01*
X143252552Y-118207806D01*
X143250662Y-118206163D01*
X143243384Y-118199971D01*
X143237002Y-118194149D01*
X143231457Y-118187802D01*
X143226692Y-118180036D01*
X143222648Y-118169957D01*
X143219265Y-118156669D01*
X143216487Y-118139280D01*
X143214253Y-118116893D01*
X143212505Y-118088616D01*
X143211185Y-118053553D01*
X143210235Y-118010810D01*
X143209595Y-117959493D01*
X143209207Y-117898707D01*
X143209012Y-117827559D01*
X143208952Y-117745152D01*
X143208968Y-117650594D01*
X143209002Y-117542989D01*
X143209008Y-117510247D01*
X143209029Y-117404083D01*
X143209102Y-117310632D01*
X143209291Y-117228938D01*
X143209662Y-117158047D01*
X143210279Y-117097002D01*
X143211207Y-117044848D01*
X143212512Y-117000630D01*
X143214257Y-116963393D01*
X143216509Y-116932180D01*
X143219332Y-116906038D01*
X143222790Y-116884010D01*
X143226949Y-116865140D01*
X143231874Y-116848474D01*
X143237630Y-116833057D01*
X143244281Y-116817932D01*
X143251893Y-116802144D01*
X143260530Y-116784739D01*
X143264018Y-116777811D01*
X143308305Y-116705928D01*
X143362360Y-116643858D01*
X143425777Y-116592000D01*
X143498151Y-116550752D01*
X143501845Y-116549033D01*
X143528700Y-116537043D01*
X143553652Y-116527267D01*
X143578463Y-116519498D01*
X143604892Y-116513529D01*
X143634698Y-116509151D01*
X143669641Y-116506159D01*
X143711481Y-116504344D01*
X143761979Y-116503499D01*
X143822893Y-116503417D01*
X143895984Y-116503891D01*
G36*
X143895984Y-116503891D02*
G01*
X144133499Y-116505924D01*
X144162463Y-116525101D01*
X144170051Y-116530695D01*
X144190629Y-116550786D01*
X144205594Y-116572047D01*
X144205895Y-116572638D01*
X144208059Y-116577153D01*
X144209982Y-116582204D01*
X144211678Y-116588580D01*
X144213157Y-116597070D01*
X144214433Y-116608461D01*
X144215516Y-116623542D01*
X144216420Y-116643102D01*
X144217155Y-116667930D01*
X144217735Y-116698813D01*
X144218171Y-116736540D01*
X144218476Y-116781901D01*
X144218660Y-116835682D01*
X144218737Y-116898673D01*
X144218719Y-116971662D01*
X144218617Y-117055438D01*
X144218443Y-117150789D01*
X144218210Y-117258504D01*
X144217930Y-117379371D01*
X144216098Y-118158925D01*
X144198672Y-118184670D01*
X144193423Y-118191499D01*
X144172035Y-118211596D01*
X144146395Y-118228246D01*
X144140955Y-118230880D01*
X144100981Y-118242212D01*
X144060758Y-118241124D01*
X144023005Y-118228467D01*
X143990441Y-118205090D01*
X143965786Y-118171841D01*
X143965708Y-118171691D01*
X143963317Y-118166905D01*
X143961203Y-118161700D01*
X143959345Y-118155230D01*
X143957724Y-118146650D01*
X143956321Y-118135116D01*
X143955115Y-118119782D01*
X143954089Y-118099803D01*
X143953222Y-118074334D01*
X143952495Y-118042529D01*
X143951888Y-118003545D01*
X143951382Y-117956536D01*
X143950958Y-117900656D01*
X143950596Y-117835061D01*
X143950277Y-117758906D01*
X143949981Y-117671345D01*
X143949689Y-117571533D01*
X143949381Y-117458626D01*
X143947538Y-116773294D01*
X143799518Y-116775531D01*
X143757981Y-116776190D01*
X143718649Y-116777031D01*
X143689192Y-116778160D01*
X143667386Y-116779832D01*
X143651006Y-116782305D01*
X143637828Y-116785833D01*
X143625626Y-116790672D01*
X143612176Y-116797080D01*
X143602065Y-116802433D01*
X143560982Y-116832142D01*
X143525294Y-116870275D01*
X143499272Y-116912466D01*
X143499206Y-116912610D01*
X143496579Y-116918487D01*
X143494272Y-116924624D01*
X143492260Y-116931932D01*
X143490514Y-116941322D01*
X143489009Y-116953709D01*
X143487718Y-116970002D01*
X143486614Y-116991116D01*
X143485671Y-117017960D01*
X143484863Y-117051449D01*
X143484161Y-117092493D01*
X143483541Y-117142005D01*
X143482976Y-117200898D01*
X143482438Y-117270082D01*
X143481901Y-117350471D01*
X143481339Y-117442975D01*
X143480725Y-117548509D01*
X143477240Y-118151960D01*
X143458541Y-118180211D01*
X143439479Y-118203644D01*
X143406059Y-118228432D01*
X143368266Y-118241563D01*
X143328490Y-118242715D01*
X143289121Y-118231570D01*
X143252552Y-118207806D01*
X143250662Y-118206163D01*
X143243384Y-118199971D01*
X143237002Y-118194149D01*
X143231457Y-118187802D01*
X143226692Y-118180036D01*
X143222648Y-118169957D01*
X143219265Y-118156669D01*
X143216487Y-118139280D01*
X143214253Y-118116893D01*
X143212505Y-118088616D01*
X143211185Y-118053553D01*
X143210235Y-118010810D01*
X143209595Y-117959493D01*
X143209207Y-117898707D01*
X143209012Y-117827559D01*
X143208952Y-117745152D01*
X143208968Y-117650594D01*
X143209002Y-117542989D01*
X143209008Y-117510247D01*
X143209029Y-117404083D01*
X143209102Y-117310632D01*
X143209291Y-117228938D01*
X143209662Y-117158047D01*
X143210279Y-117097002D01*
X143211207Y-117044848D01*
X143212512Y-117000630D01*
X143214257Y-116963393D01*
X143216509Y-116932180D01*
X143219332Y-116906038D01*
X143222790Y-116884010D01*
X143226949Y-116865140D01*
X143231874Y-116848474D01*
X143237630Y-116833057D01*
X143244281Y-116817932D01*
X143251893Y-116802144D01*
X143260530Y-116784739D01*
X143264018Y-116777811D01*
X143308305Y-116705928D01*
X143362360Y-116643858D01*
X143425777Y-116592000D01*
X143498151Y-116550752D01*
X143501845Y-116549033D01*
X143528700Y-116537043D01*
X143553652Y-116527267D01*
X143578463Y-116519498D01*
X143604892Y-116513529D01*
X143634698Y-116509151D01*
X143669641Y-116506159D01*
X143711481Y-116504344D01*
X143761979Y-116503499D01*
X143822893Y-116503417D01*
X143895984Y-116503891D01*
G37*
X137710490Y-116490291D02*
X137747429Y-116500521D01*
X137779788Y-116517939D01*
X137803365Y-116541487D01*
X137804266Y-116543188D01*
X137809623Y-116556985D01*
X137818526Y-116582751D01*
X137830643Y-116619433D01*
X137845641Y-116665974D01*
X137863186Y-116721320D01*
X137882946Y-116784415D01*
X137904587Y-116854203D01*
X137927777Y-116929629D01*
X137952182Y-117009638D01*
X137977470Y-117093175D01*
X137986904Y-117124425D01*
X138011572Y-117205797D01*
X138035036Y-117282723D01*
X138056985Y-117354212D01*
X138077111Y-117419273D01*
X138095103Y-117476919D01*
X138110651Y-117526157D01*
X138123445Y-117565999D01*
X138133175Y-117595454D01*
X138139532Y-117613533D01*
X138142204Y-117619246D01*
X138142480Y-117618703D01*
X138146018Y-117608436D01*
X138153135Y-117586070D01*
X138163518Y-117552632D01*
X138176855Y-117509150D01*
X138192834Y-117456653D01*
X138211143Y-117396168D01*
X138231470Y-117328725D01*
X138253501Y-117255350D01*
X138276926Y-117177072D01*
X138301431Y-117094920D01*
X138306333Y-117078471D01*
X138330856Y-116996463D01*
X138354397Y-116918207D01*
X138376625Y-116844771D01*
X138397211Y-116777224D01*
X138415825Y-116716635D01*
X138432139Y-116664072D01*
X138445821Y-116620603D01*
X138456543Y-116587299D01*
X138463976Y-116565227D01*
X138467789Y-116555456D01*
X138471676Y-116549568D01*
X138487264Y-116531270D01*
X138506022Y-116513839D01*
X138515452Y-116506630D01*
X138532037Y-116497335D01*
X138551439Y-116492378D01*
X138579211Y-116489945D01*
X138602614Y-116489208D01*
X138622222Y-116490958D01*
X138638736Y-116496814D01*
X138657973Y-116508118D01*
X138667067Y-116514538D01*
X138695095Y-116543841D01*
X138713397Y-116579533D01*
X138719886Y-116617908D01*
X138718483Y-116625812D01*
X138713286Y-116646850D01*
X138704476Y-116679749D01*
X138692285Y-116723702D01*
X138676947Y-116777903D01*
X138658693Y-116841546D01*
X138637756Y-116913824D01*
X138614370Y-116993932D01*
X138588767Y-117081062D01*
X138561179Y-117174408D01*
X138531840Y-117273164D01*
X138500981Y-117376523D01*
X138282158Y-118107714D01*
X138350558Y-118335708D01*
X138362210Y-118374280D01*
X138378539Y-118427434D01*
X138393813Y-118476144D01*
X138407454Y-118518624D01*
X138418888Y-118553088D01*
X138427539Y-118577749D01*
X138432830Y-118590823D01*
X138438308Y-118600879D01*
X138470757Y-118643411D01*
X138513016Y-118676477D01*
X138564292Y-118699576D01*
X138623795Y-118712205D01*
X138627814Y-118712688D01*
X138658272Y-118717763D01*
X138685923Y-118724520D01*
X138705218Y-118731634D01*
X138713804Y-118736586D01*
X138742703Y-118762708D01*
X138763195Y-118797522D01*
X138773271Y-118837891D01*
X138772285Y-118871749D01*
X138760130Y-118910594D01*
X138737469Y-118943832D01*
X138705929Y-118968314D01*
X138691927Y-118975324D01*
X138677453Y-118980344D01*
X138660721Y-118982763D01*
X138637849Y-118983103D01*
X138604957Y-118981885D01*
X138559479Y-118977836D01*
X138480650Y-118960602D01*
X138406977Y-118930520D01*
X138338118Y-118887434D01*
X138273732Y-118831189D01*
X138263482Y-118820922D01*
X138253090Y-118810463D01*
X138243479Y-118800326D01*
X138234421Y-118789862D01*
X138225686Y-118778418D01*
X138217046Y-118765345D01*
X138208271Y-118749991D01*
X138199132Y-118731705D01*
X138189400Y-118709836D01*
X138178847Y-118683734D01*
X138167243Y-118652748D01*
X138154359Y-118616226D01*
X138139966Y-118573518D01*
X138123835Y-118523973D01*
X138105736Y-118466940D01*
X138085442Y-118401769D01*
X138062723Y-118327807D01*
X138037349Y-118244405D01*
X138009093Y-118150912D01*
X137977724Y-118046676D01*
X137943013Y-117931046D01*
X137904733Y-117803373D01*
X137862653Y-117663004D01*
X137855201Y-117638148D01*
X137820934Y-117523779D01*
X137787785Y-117413018D01*
X137755974Y-117306614D01*
X137725726Y-117205318D01*
X137697262Y-117109877D01*
X137670805Y-117021042D01*
X137646579Y-116939563D01*
X137624805Y-116866188D01*
X137605706Y-116801667D01*
X137589505Y-116746750D01*
X137576425Y-116702187D01*
X137566688Y-116668726D01*
X137560518Y-116647117D01*
X137558136Y-116638109D01*
X137557083Y-116619935D01*
X137563953Y-116584787D01*
X137580352Y-116550230D01*
X137604166Y-116520191D01*
X137633280Y-116498598D01*
X137639694Y-116495641D01*
X137673178Y-116488312D01*
X137710490Y-116490291D01*
G36*
X137710490Y-116490291D02*
G01*
X137747429Y-116500521D01*
X137779788Y-116517939D01*
X137803365Y-116541487D01*
X137804266Y-116543188D01*
X137809623Y-116556985D01*
X137818526Y-116582751D01*
X137830643Y-116619433D01*
X137845641Y-116665974D01*
X137863186Y-116721320D01*
X137882946Y-116784415D01*
X137904587Y-116854203D01*
X137927777Y-116929629D01*
X137952182Y-117009638D01*
X137977470Y-117093175D01*
X137986904Y-117124425D01*
X138011572Y-117205797D01*
X138035036Y-117282723D01*
X138056985Y-117354212D01*
X138077111Y-117419273D01*
X138095103Y-117476919D01*
X138110651Y-117526157D01*
X138123445Y-117565999D01*
X138133175Y-117595454D01*
X138139532Y-117613533D01*
X138142204Y-117619246D01*
X138142480Y-117618703D01*
X138146018Y-117608436D01*
X138153135Y-117586070D01*
X138163518Y-117552632D01*
X138176855Y-117509150D01*
X138192834Y-117456653D01*
X138211143Y-117396168D01*
X138231470Y-117328725D01*
X138253501Y-117255350D01*
X138276926Y-117177072D01*
X138301431Y-117094920D01*
X138306333Y-117078471D01*
X138330856Y-116996463D01*
X138354397Y-116918207D01*
X138376625Y-116844771D01*
X138397211Y-116777224D01*
X138415825Y-116716635D01*
X138432139Y-116664072D01*
X138445821Y-116620603D01*
X138456543Y-116587299D01*
X138463976Y-116565227D01*
X138467789Y-116555456D01*
X138471676Y-116549568D01*
X138487264Y-116531270D01*
X138506022Y-116513839D01*
X138515452Y-116506630D01*
X138532037Y-116497335D01*
X138551439Y-116492378D01*
X138579211Y-116489945D01*
X138602614Y-116489208D01*
X138622222Y-116490958D01*
X138638736Y-116496814D01*
X138657973Y-116508118D01*
X138667067Y-116514538D01*
X138695095Y-116543841D01*
X138713397Y-116579533D01*
X138719886Y-116617908D01*
X138718483Y-116625812D01*
X138713286Y-116646850D01*
X138704476Y-116679749D01*
X138692285Y-116723702D01*
X138676947Y-116777903D01*
X138658693Y-116841546D01*
X138637756Y-116913824D01*
X138614370Y-116993932D01*
X138588767Y-117081062D01*
X138561179Y-117174408D01*
X138531840Y-117273164D01*
X138500981Y-117376523D01*
X138282158Y-118107714D01*
X138350558Y-118335708D01*
X138362210Y-118374280D01*
X138378539Y-118427434D01*
X138393813Y-118476144D01*
X138407454Y-118518624D01*
X138418888Y-118553088D01*
X138427539Y-118577749D01*
X138432830Y-118590823D01*
X138438308Y-118600879D01*
X138470757Y-118643411D01*
X138513016Y-118676477D01*
X138564292Y-118699576D01*
X138623795Y-118712205D01*
X138627814Y-118712688D01*
X138658272Y-118717763D01*
X138685923Y-118724520D01*
X138705218Y-118731634D01*
X138713804Y-118736586D01*
X138742703Y-118762708D01*
X138763195Y-118797522D01*
X138773271Y-118837891D01*
X138772285Y-118871749D01*
X138760130Y-118910594D01*
X138737469Y-118943832D01*
X138705929Y-118968314D01*
X138691927Y-118975324D01*
X138677453Y-118980344D01*
X138660721Y-118982763D01*
X138637849Y-118983103D01*
X138604957Y-118981885D01*
X138559479Y-118977836D01*
X138480650Y-118960602D01*
X138406977Y-118930520D01*
X138338118Y-118887434D01*
X138273732Y-118831189D01*
X138263482Y-118820922D01*
X138253090Y-118810463D01*
X138243479Y-118800326D01*
X138234421Y-118789862D01*
X138225686Y-118778418D01*
X138217046Y-118765345D01*
X138208271Y-118749991D01*
X138199132Y-118731705D01*
X138189400Y-118709836D01*
X138178847Y-118683734D01*
X138167243Y-118652748D01*
X138154359Y-118616226D01*
X138139966Y-118573518D01*
X138123835Y-118523973D01*
X138105736Y-118466940D01*
X138085442Y-118401769D01*
X138062723Y-118327807D01*
X138037349Y-118244405D01*
X138009093Y-118150912D01*
X137977724Y-118046676D01*
X137943013Y-117931046D01*
X137904733Y-117803373D01*
X137862653Y-117663004D01*
X137855201Y-117638148D01*
X137820934Y-117523779D01*
X137787785Y-117413018D01*
X137755974Y-117306614D01*
X137725726Y-117205318D01*
X137697262Y-117109877D01*
X137670805Y-117021042D01*
X137646579Y-116939563D01*
X137624805Y-116866188D01*
X137605706Y-116801667D01*
X137589505Y-116746750D01*
X137576425Y-116702187D01*
X137566688Y-116668726D01*
X137560518Y-116647117D01*
X137558136Y-116638109D01*
X137557083Y-116619935D01*
X137563953Y-116584787D01*
X137580352Y-116550230D01*
X137604166Y-116520191D01*
X137633280Y-116498598D01*
X137639694Y-116495641D01*
X137673178Y-116488312D01*
X137710490Y-116490291D01*
G37*
X141166349Y-117462647D02*
X141166387Y-117596731D01*
X141166412Y-117744110D01*
X141166565Y-118877741D01*
X141147298Y-118914621D01*
X141139005Y-118929206D01*
X141120849Y-118951601D01*
X141097410Y-118967694D01*
X141081237Y-118975021D01*
X141040916Y-118984061D01*
X141000881Y-118981561D01*
X140963849Y-118968316D01*
X140932538Y-118945123D01*
X140909666Y-118912774D01*
X140907619Y-118908459D01*
X140904476Y-118900915D01*
X140901891Y-118892358D01*
X140899807Y-118881497D01*
X140898172Y-118867039D01*
X140896931Y-118847690D01*
X140896030Y-118822158D01*
X140895414Y-118789149D01*
X140895029Y-118747372D01*
X140894822Y-118695532D01*
X140894737Y-118632338D01*
X140894721Y-118556495D01*
X140894721Y-118231089D01*
X140767512Y-118230951D01*
X140713935Y-118230504D01*
X140657429Y-118228717D01*
X140610128Y-118225311D01*
X140569428Y-118220012D01*
X140532724Y-118212548D01*
X140497410Y-118202645D01*
X140446600Y-118182688D01*
X140381217Y-118145375D01*
X140320463Y-118097652D01*
X140266474Y-118041520D01*
X140221384Y-117978982D01*
X140187329Y-117912038D01*
X140185650Y-117907880D01*
X140178086Y-117888129D01*
X140171608Y-117868647D01*
X140166143Y-117848250D01*
X140161614Y-117825754D01*
X140157945Y-117799974D01*
X140155063Y-117769728D01*
X140152892Y-117733830D01*
X140151356Y-117691096D01*
X140150381Y-117640344D01*
X140149891Y-117580388D01*
X140149811Y-117510044D01*
X140150065Y-117428129D01*
X140150579Y-117333459D01*
X140150662Y-117319871D01*
X140151201Y-117232532D01*
X140151688Y-117166416D01*
X140421463Y-117166416D01*
X140421502Y-117227515D01*
X140421740Y-117300195D01*
X140422151Y-117385637D01*
X140424221Y-117774530D01*
X140442589Y-117813704D01*
X140471673Y-117862408D01*
X140510277Y-117902260D01*
X140558994Y-117933038D01*
X140605137Y-117955760D01*
X140744701Y-117958154D01*
X140752585Y-117958280D01*
X140794700Y-117958657D01*
X140831638Y-117958498D01*
X140861209Y-117957848D01*
X140881224Y-117956751D01*
X140889493Y-117955249D01*
X140890023Y-117951683D01*
X140890794Y-117935377D01*
X140891521Y-117906841D01*
X140892197Y-117867103D01*
X140892812Y-117817190D01*
X140893358Y-117758131D01*
X140893824Y-117690954D01*
X140894203Y-117616686D01*
X140894485Y-117536356D01*
X140894660Y-117450992D01*
X140894721Y-117361621D01*
X140894721Y-116773291D01*
X140746601Y-116775530D01*
X140710960Y-116776094D01*
X140670017Y-116776941D01*
X140639244Y-116778052D01*
X140616420Y-116779671D01*
X140599320Y-116782045D01*
X140585723Y-116785420D01*
X140573405Y-116790041D01*
X140560143Y-116796155D01*
X140524043Y-116816898D01*
X140482347Y-116853542D01*
X140451451Y-116898978D01*
X140431135Y-116953474D01*
X140428811Y-116963948D01*
X140426773Y-116976995D01*
X140425105Y-116993369D01*
X140423783Y-117014249D01*
X140422783Y-117040815D01*
X140422079Y-117074245D01*
X140421647Y-117115719D01*
X140421463Y-117166416D01*
X140151688Y-117166416D01*
X140151752Y-117157731D01*
X140152429Y-117094242D01*
X140153344Y-117040839D01*
X140154610Y-116996295D01*
X140156340Y-116959384D01*
X140158647Y-116928879D01*
X140161643Y-116903555D01*
X140165442Y-116882183D01*
X140170155Y-116863540D01*
X140175897Y-116846397D01*
X140182780Y-116829528D01*
X140190916Y-116811708D01*
X140200419Y-116791709D01*
X140237834Y-116725319D01*
X140288967Y-116660504D01*
X140349898Y-116605590D01*
X140420563Y-116560636D01*
X140500895Y-116525699D01*
X140556658Y-116506112D01*
X140800386Y-116503783D01*
X140846880Y-116503420D01*
X140902097Y-116503210D01*
X140952289Y-116503259D01*
X140995673Y-116503553D01*
X141030467Y-116504079D01*
X141054887Y-116504824D01*
X141067151Y-116505775D01*
X141085318Y-116512138D01*
X141111886Y-116529846D01*
X141135996Y-116554523D01*
X141153565Y-116582538D01*
X141153624Y-116582668D01*
X141155269Y-116586783D01*
X141156765Y-116591929D01*
X141158119Y-116598751D01*
X141159339Y-116607896D01*
X141160432Y-116620009D01*
X141161404Y-116635734D01*
X141162263Y-116655718D01*
X141163017Y-116680606D01*
X141163671Y-116711044D01*
X141164234Y-116747676D01*
X141164712Y-116791149D01*
X141165112Y-116842108D01*
X141165443Y-116901199D01*
X141165710Y-116969066D01*
X141165921Y-117046355D01*
X141166083Y-117133713D01*
X141166204Y-117231784D01*
X141166290Y-117341214D01*
X141166300Y-117361621D01*
X141166349Y-117462647D01*
G36*
X141166349Y-117462647D02*
G01*
X141166387Y-117596731D01*
X141166412Y-117744110D01*
X141166565Y-118877741D01*
X141147298Y-118914621D01*
X141139005Y-118929206D01*
X141120849Y-118951601D01*
X141097410Y-118967694D01*
X141081237Y-118975021D01*
X141040916Y-118984061D01*
X141000881Y-118981561D01*
X140963849Y-118968316D01*
X140932538Y-118945123D01*
X140909666Y-118912774D01*
X140907619Y-118908459D01*
X140904476Y-118900915D01*
X140901891Y-118892358D01*
X140899807Y-118881497D01*
X140898172Y-118867039D01*
X140896931Y-118847690D01*
X140896030Y-118822158D01*
X140895414Y-118789149D01*
X140895029Y-118747372D01*
X140894822Y-118695532D01*
X140894737Y-118632338D01*
X140894721Y-118556495D01*
X140894721Y-118231089D01*
X140767512Y-118230951D01*
X140713935Y-118230504D01*
X140657429Y-118228717D01*
X140610128Y-118225311D01*
X140569428Y-118220012D01*
X140532724Y-118212548D01*
X140497410Y-118202645D01*
X140446600Y-118182688D01*
X140381217Y-118145375D01*
X140320463Y-118097652D01*
X140266474Y-118041520D01*
X140221384Y-117978982D01*
X140187329Y-117912038D01*
X140185650Y-117907880D01*
X140178086Y-117888129D01*
X140171608Y-117868647D01*
X140166143Y-117848250D01*
X140161614Y-117825754D01*
X140157945Y-117799974D01*
X140155063Y-117769728D01*
X140152892Y-117733830D01*
X140151356Y-117691096D01*
X140150381Y-117640344D01*
X140149891Y-117580388D01*
X140149811Y-117510044D01*
X140150065Y-117428129D01*
X140150579Y-117333459D01*
X140150662Y-117319871D01*
X140151201Y-117232532D01*
X140151688Y-117166416D01*
X140421463Y-117166416D01*
X140421502Y-117227515D01*
X140421740Y-117300195D01*
X140422151Y-117385637D01*
X140424221Y-117774530D01*
X140442589Y-117813704D01*
X140471673Y-117862408D01*
X140510277Y-117902260D01*
X140558994Y-117933038D01*
X140605137Y-117955760D01*
X140744701Y-117958154D01*
X140752585Y-117958280D01*
X140794700Y-117958657D01*
X140831638Y-117958498D01*
X140861209Y-117957848D01*
X140881224Y-117956751D01*
X140889493Y-117955249D01*
X140890023Y-117951683D01*
X140890794Y-117935377D01*
X140891521Y-117906841D01*
X140892197Y-117867103D01*
X140892812Y-117817190D01*
X140893358Y-117758131D01*
X140893824Y-117690954D01*
X140894203Y-117616686D01*
X140894485Y-117536356D01*
X140894660Y-117450992D01*
X140894721Y-117361621D01*
X140894721Y-116773291D01*
X140746601Y-116775530D01*
X140710960Y-116776094D01*
X140670017Y-116776941D01*
X140639244Y-116778052D01*
X140616420Y-116779671D01*
X140599320Y-116782045D01*
X140585723Y-116785420D01*
X140573405Y-116790041D01*
X140560143Y-116796155D01*
X140524043Y-116816898D01*
X140482347Y-116853542D01*
X140451451Y-116898978D01*
X140431135Y-116953474D01*
X140428811Y-116963948D01*
X140426773Y-116976995D01*
X140425105Y-116993369D01*
X140423783Y-117014249D01*
X140422783Y-117040815D01*
X140422079Y-117074245D01*
X140421647Y-117115719D01*
X140421463Y-117166416D01*
X140151688Y-117166416D01*
X140151752Y-117157731D01*
X140152429Y-117094242D01*
X140153344Y-117040839D01*
X140154610Y-116996295D01*
X140156340Y-116959384D01*
X140158647Y-116928879D01*
X140161643Y-116903555D01*
X140165442Y-116882183D01*
X140170155Y-116863540D01*
X140175897Y-116846397D01*
X140182780Y-116829528D01*
X140190916Y-116811708D01*
X140200419Y-116791709D01*
X140237834Y-116725319D01*
X140288967Y-116660504D01*
X140349898Y-116605590D01*
X140420563Y-116560636D01*
X140500895Y-116525699D01*
X140556658Y-116506112D01*
X140800386Y-116503783D01*
X140846880Y-116503420D01*
X140902097Y-116503210D01*
X140952289Y-116503259D01*
X140995673Y-116503553D01*
X141030467Y-116504079D01*
X141054887Y-116504824D01*
X141067151Y-116505775D01*
X141085318Y-116512138D01*
X141111886Y-116529846D01*
X141135996Y-116554523D01*
X141153565Y-116582538D01*
X141153624Y-116582668D01*
X141155269Y-116586783D01*
X141156765Y-116591929D01*
X141158119Y-116598751D01*
X141159339Y-116607896D01*
X141160432Y-116620009D01*
X141161404Y-116635734D01*
X141162263Y-116655718D01*
X141163017Y-116680606D01*
X141163671Y-116711044D01*
X141164234Y-116747676D01*
X141164712Y-116791149D01*
X141165112Y-116842108D01*
X141165443Y-116901199D01*
X141165710Y-116969066D01*
X141165921Y-117046355D01*
X141166083Y-117133713D01*
X141166204Y-117231784D01*
X141166290Y-117341214D01*
X141166300Y-117361621D01*
X141166349Y-117462647D01*
G37*
X142414242Y-117276736D02*
X142414260Y-117366764D01*
X142414256Y-117429735D01*
X142414190Y-117516440D01*
X142413963Y-117591091D01*
X142413478Y-117654832D01*
X142412636Y-117708810D01*
X142411338Y-117754171D01*
X142409484Y-117792060D01*
X142406977Y-117823623D01*
X142403718Y-117850005D01*
X142399608Y-117872353D01*
X142394549Y-117891813D01*
X142388441Y-117909529D01*
X142381186Y-117926647D01*
X142372685Y-117944314D01*
X142362840Y-117963675D01*
X142351248Y-117985904D01*
X142334102Y-118016179D01*
X142317519Y-118040742D01*
X142298362Y-118064053D01*
X142273488Y-118090571D01*
X142269104Y-118095017D01*
X142209364Y-118145434D01*
X142140870Y-118186910D01*
X142066484Y-118217970D01*
X141989068Y-118237140D01*
X141956300Y-118241227D01*
X141881360Y-118241918D01*
X141806112Y-118231585D01*
X141733023Y-118211025D01*
X141664562Y-118181033D01*
X141603195Y-118142406D01*
X141551392Y-118095940D01*
X141530569Y-118068596D01*
X141513613Y-118029765D01*
X141509307Y-117990476D01*
X141517475Y-117952641D01*
X141537939Y-117918172D01*
X141570522Y-117888982D01*
X141575758Y-117885596D01*
X141615709Y-117868026D01*
X141656380Y-117864296D01*
X141697214Y-117874375D01*
X141737657Y-117898233D01*
X141748802Y-117906758D01*
X141776227Y-117927240D01*
X141796873Y-117941377D01*
X141813799Y-117950974D01*
X141830062Y-117957837D01*
X141848721Y-117963770D01*
X141852852Y-117964923D01*
X141904596Y-117971922D01*
X141956645Y-117966466D01*
X142006584Y-117949645D01*
X142051993Y-117922546D01*
X142090456Y-117886257D01*
X142119554Y-117841868D01*
X142125656Y-117829113D01*
X142130541Y-117817043D01*
X142134125Y-117804148D01*
X142136653Y-117788244D01*
X142138373Y-117767143D01*
X142139533Y-117738661D01*
X142140380Y-117700610D01*
X142141160Y-117650806D01*
X142143390Y-117499201D01*
X141824467Y-117499201D01*
X141793086Y-117499199D01*
X141723210Y-117499159D01*
X141665449Y-117499024D01*
X141618495Y-117498738D01*
X141581040Y-117498248D01*
X141551777Y-117497497D01*
X141529398Y-117496429D01*
X141512595Y-117494991D01*
X141500062Y-117493125D01*
X141490490Y-117490778D01*
X141482573Y-117487893D01*
X141475002Y-117484416D01*
X141449149Y-117467181D01*
X141425751Y-117441373D01*
X141407042Y-117413116D01*
X141405487Y-117227357D01*
X141674410Y-117227357D01*
X141908900Y-117227357D01*
X142143390Y-117227357D01*
X142141160Y-117075751D01*
X142140460Y-117030718D01*
X142139626Y-116991500D01*
X142138513Y-116962176D01*
X142136883Y-116940611D01*
X142134500Y-116924664D01*
X142131127Y-116912198D01*
X142126525Y-116901075D01*
X142120458Y-116889156D01*
X142118508Y-116885533D01*
X142086607Y-116840207D01*
X142047485Y-116805110D01*
X142003008Y-116780231D01*
X141955041Y-116765560D01*
X141905450Y-116761088D01*
X141856099Y-116766805D01*
X141808854Y-116782701D01*
X141765580Y-116808767D01*
X141728142Y-116844992D01*
X141698406Y-116891367D01*
X141692773Y-116903088D01*
X141687670Y-116915381D01*
X141683930Y-116928253D01*
X141681295Y-116943931D01*
X141679507Y-116964642D01*
X141678309Y-116992612D01*
X141677442Y-117030068D01*
X141676648Y-117079237D01*
X141674410Y-117227357D01*
X141405487Y-117227357D01*
X141405039Y-117173855D01*
X141404905Y-117157589D01*
X141404470Y-117095450D01*
X141404320Y-117045087D01*
X141404527Y-117004739D01*
X141405162Y-116972650D01*
X141406299Y-116947062D01*
X141408008Y-116926218D01*
X141410363Y-116908358D01*
X141413434Y-116891726D01*
X141417293Y-116874564D01*
X141425354Y-116844649D01*
X141455247Y-116768491D01*
X141496151Y-116699582D01*
X141546924Y-116638816D01*
X141606426Y-116587091D01*
X141673516Y-116545300D01*
X141747053Y-116514341D01*
X141825898Y-116495108D01*
X141908908Y-116488498D01*
X141929843Y-116488900D01*
X142012836Y-116498651D01*
X142091061Y-116520818D01*
X142163446Y-116554571D01*
X142228918Y-116599083D01*
X142286408Y-116653525D01*
X142334842Y-116717071D01*
X142373151Y-116788892D01*
X142400262Y-116868160D01*
X142400465Y-116868955D01*
X142403273Y-116880584D01*
X142405673Y-116892478D01*
X142407697Y-116905778D01*
X142409376Y-116921622D01*
X142410742Y-116941150D01*
X142411828Y-116965502D01*
X142412665Y-116995818D01*
X142413285Y-117033237D01*
X142413722Y-117078899D01*
X142414005Y-117133942D01*
X142414168Y-117199508D01*
X142414195Y-117227357D01*
X142414242Y-117276736D01*
G36*
X142414242Y-117276736D02*
G01*
X142414260Y-117366764D01*
X142414256Y-117429735D01*
X142414190Y-117516440D01*
X142413963Y-117591091D01*
X142413478Y-117654832D01*
X142412636Y-117708810D01*
X142411338Y-117754171D01*
X142409484Y-117792060D01*
X142406977Y-117823623D01*
X142403718Y-117850005D01*
X142399608Y-117872353D01*
X142394549Y-117891813D01*
X142388441Y-117909529D01*
X142381186Y-117926647D01*
X142372685Y-117944314D01*
X142362840Y-117963675D01*
X142351248Y-117985904D01*
X142334102Y-118016179D01*
X142317519Y-118040742D01*
X142298362Y-118064053D01*
X142273488Y-118090571D01*
X142269104Y-118095017D01*
X142209364Y-118145434D01*
X142140870Y-118186910D01*
X142066484Y-118217970D01*
X141989068Y-118237140D01*
X141956300Y-118241227D01*
X141881360Y-118241918D01*
X141806112Y-118231585D01*
X141733023Y-118211025D01*
X141664562Y-118181033D01*
X141603195Y-118142406D01*
X141551392Y-118095940D01*
X141530569Y-118068596D01*
X141513613Y-118029765D01*
X141509307Y-117990476D01*
X141517475Y-117952641D01*
X141537939Y-117918172D01*
X141570522Y-117888982D01*
X141575758Y-117885596D01*
X141615709Y-117868026D01*
X141656380Y-117864296D01*
X141697214Y-117874375D01*
X141737657Y-117898233D01*
X141748802Y-117906758D01*
X141776227Y-117927240D01*
X141796873Y-117941377D01*
X141813799Y-117950974D01*
X141830062Y-117957837D01*
X141848721Y-117963770D01*
X141852852Y-117964923D01*
X141904596Y-117971922D01*
X141956645Y-117966466D01*
X142006584Y-117949645D01*
X142051993Y-117922546D01*
X142090456Y-117886257D01*
X142119554Y-117841868D01*
X142125656Y-117829113D01*
X142130541Y-117817043D01*
X142134125Y-117804148D01*
X142136653Y-117788244D01*
X142138373Y-117767143D01*
X142139533Y-117738661D01*
X142140380Y-117700610D01*
X142141160Y-117650806D01*
X142143390Y-117499201D01*
X141824467Y-117499201D01*
X141793086Y-117499199D01*
X141723210Y-117499159D01*
X141665449Y-117499024D01*
X141618495Y-117498738D01*
X141581040Y-117498248D01*
X141551777Y-117497497D01*
X141529398Y-117496429D01*
X141512595Y-117494991D01*
X141500062Y-117493125D01*
X141490490Y-117490778D01*
X141482573Y-117487893D01*
X141475002Y-117484416D01*
X141449149Y-117467181D01*
X141425751Y-117441373D01*
X141407042Y-117413116D01*
X141405487Y-117227357D01*
X141674410Y-117227357D01*
X141908900Y-117227357D01*
X142143390Y-117227357D01*
X142141160Y-117075751D01*
X142140460Y-117030718D01*
X142139626Y-116991500D01*
X142138513Y-116962176D01*
X142136883Y-116940611D01*
X142134500Y-116924664D01*
X142131127Y-116912198D01*
X142126525Y-116901075D01*
X142120458Y-116889156D01*
X142118508Y-116885533D01*
X142086607Y-116840207D01*
X142047485Y-116805110D01*
X142003008Y-116780231D01*
X141955041Y-116765560D01*
X141905450Y-116761088D01*
X141856099Y-116766805D01*
X141808854Y-116782701D01*
X141765580Y-116808767D01*
X141728142Y-116844992D01*
X141698406Y-116891367D01*
X141692773Y-116903088D01*
X141687670Y-116915381D01*
X141683930Y-116928253D01*
X141681295Y-116943931D01*
X141679507Y-116964642D01*
X141678309Y-116992612D01*
X141677442Y-117030068D01*
X141676648Y-117079237D01*
X141674410Y-117227357D01*
X141405487Y-117227357D01*
X141405039Y-117173855D01*
X141404905Y-117157589D01*
X141404470Y-117095450D01*
X141404320Y-117045087D01*
X141404527Y-117004739D01*
X141405162Y-116972650D01*
X141406299Y-116947062D01*
X141408008Y-116926218D01*
X141410363Y-116908358D01*
X141413434Y-116891726D01*
X141417293Y-116874564D01*
X141425354Y-116844649D01*
X141455247Y-116768491D01*
X141496151Y-116699582D01*
X141546924Y-116638816D01*
X141606426Y-116587091D01*
X141673516Y-116545300D01*
X141747053Y-116514341D01*
X141825898Y-116495108D01*
X141908908Y-116488498D01*
X141929843Y-116488900D01*
X142012836Y-116498651D01*
X142091061Y-116520818D01*
X142163446Y-116554571D01*
X142228918Y-116599083D01*
X142286408Y-116653525D01*
X142334842Y-116717071D01*
X142373151Y-116788892D01*
X142400262Y-116868160D01*
X142400465Y-116868955D01*
X142403273Y-116880584D01*
X142405673Y-116892478D01*
X142407697Y-116905778D01*
X142409376Y-116921622D01*
X142410742Y-116941150D01*
X142411828Y-116965502D01*
X142412665Y-116995818D01*
X142413285Y-117033237D01*
X142413722Y-117078899D01*
X142414005Y-117133942D01*
X142414168Y-117199508D01*
X142414195Y-117227357D01*
X142414242Y-117276736D01*
G37*
X145470753Y-117273397D02*
X145470764Y-117366764D01*
X145470759Y-117408878D01*
X145470703Y-117494349D01*
X145470563Y-117567468D01*
X145470311Y-117629338D01*
X145469920Y-117681059D01*
X145469364Y-117723733D01*
X145468614Y-117758462D01*
X145467643Y-117786347D01*
X145466425Y-117808489D01*
X145464932Y-117825990D01*
X145463136Y-117839951D01*
X145461011Y-117851474D01*
X145458530Y-117861660D01*
X145457687Y-117864720D01*
X145440527Y-117913791D01*
X145416510Y-117966278D01*
X145388528Y-118016435D01*
X145359473Y-118058515D01*
X145320749Y-118101017D01*
X145260908Y-118149779D01*
X145192561Y-118189751D01*
X145117811Y-118219751D01*
X145038765Y-118238597D01*
X145010896Y-118241409D01*
X144965675Y-118241868D01*
X144916398Y-118238858D01*
X144868377Y-118232748D01*
X144826924Y-118223905D01*
X144781256Y-118208990D01*
X144716161Y-118178420D01*
X144652433Y-118136395D01*
X144615712Y-118105176D01*
X144588540Y-118072240D01*
X144573034Y-118038239D01*
X144568112Y-118001445D01*
X144568205Y-117995148D01*
X144574588Y-117954528D01*
X144591928Y-117921135D01*
X144621505Y-117892356D01*
X144641393Y-117879543D01*
X144680835Y-117865621D01*
X144721446Y-117865017D01*
X144761640Y-117877633D01*
X144799828Y-117903371D01*
X144812349Y-117913624D01*
X144840988Y-117933919D01*
X144868764Y-117950414D01*
X144870790Y-117951454D01*
X144891571Y-117960962D01*
X144910843Y-117966446D01*
X144933744Y-117968914D01*
X144965412Y-117969374D01*
X145013266Y-117965716D01*
X145059105Y-117952712D01*
X145099806Y-117928892D01*
X145138667Y-117892798D01*
X145153754Y-117875578D01*
X145168937Y-117855156D01*
X145180320Y-117834122D01*
X145188438Y-117810257D01*
X145193824Y-117781340D01*
X145197010Y-117745154D01*
X145198531Y-117699478D01*
X145198919Y-117642093D01*
X145198919Y-117502686D01*
X144871312Y-117499201D01*
X144795779Y-117498308D01*
X144723937Y-117497221D01*
X144664601Y-117496015D01*
X144617012Y-117494663D01*
X144580413Y-117493139D01*
X144554046Y-117491416D01*
X144537153Y-117489468D01*
X144528978Y-117487269D01*
X144518690Y-117480229D01*
X144495467Y-117457184D01*
X144475556Y-117428748D01*
X144463277Y-117400618D01*
X144461540Y-117390917D01*
X144459532Y-117366424D01*
X144458212Y-117329564D01*
X144457573Y-117279946D01*
X144457607Y-117217181D01*
X144458306Y-117140880D01*
X144458651Y-117113641D01*
X144458771Y-117105718D01*
X144728420Y-117105718D01*
X144728420Y-117227357D01*
X144966021Y-117227357D01*
X145203623Y-117227357D01*
X145201271Y-117082548D01*
X145198919Y-116937738D01*
X145175973Y-116891155D01*
X145150011Y-116848873D01*
X145112262Y-116810325D01*
X145063946Y-116780014D01*
X145063095Y-116779595D01*
X145044377Y-116771734D01*
X145024744Y-116766975D01*
X144999866Y-116764611D01*
X144965412Y-116763936D01*
X144936112Y-116764155D01*
X144912773Y-116765643D01*
X144894568Y-116769408D01*
X144876867Y-116776449D01*
X144855045Y-116787764D01*
X144824182Y-116807575D01*
X144784048Y-116845170D01*
X144754532Y-116889294D01*
X144750662Y-116897644D01*
X144742032Y-116923135D01*
X144735726Y-116954751D01*
X144731511Y-116994430D01*
X144729154Y-117044107D01*
X144728420Y-117105718D01*
X144458771Y-117105718D01*
X144459620Y-117049765D01*
X144460883Y-116997271D01*
X144462721Y-116954300D01*
X144465416Y-116918990D01*
X144469248Y-116889481D01*
X144474500Y-116863913D01*
X144481453Y-116840424D01*
X144490387Y-116817153D01*
X144501585Y-116792242D01*
X144515328Y-116763828D01*
X144534206Y-116729023D01*
X144581287Y-116663233D01*
X144638293Y-116606368D01*
X144703997Y-116559379D01*
X144777176Y-116523217D01*
X144856604Y-116498834D01*
X144861026Y-116497893D01*
X144910267Y-116491178D01*
X144965497Y-116489176D01*
X145021876Y-116491690D01*
X145074562Y-116498523D01*
X145118713Y-116509479D01*
X145142948Y-116518294D01*
X145219702Y-116555211D01*
X145288146Y-116602594D01*
X145347354Y-116659594D01*
X145396397Y-116725359D01*
X145434350Y-116799039D01*
X145437574Y-116806817D01*
X145444216Y-116823238D01*
X145449907Y-116838701D01*
X145454721Y-116854354D01*
X145458730Y-116871342D01*
X145462009Y-116890811D01*
X145464630Y-116913907D01*
X145466668Y-116941776D01*
X145468196Y-116975564D01*
X145469286Y-117016417D01*
X145470014Y-117065480D01*
X145470452Y-117123901D01*
X145470674Y-117192825D01*
X145470708Y-117227357D01*
X145470753Y-117273397D01*
G36*
X145470753Y-117273397D02*
G01*
X145470764Y-117366764D01*
X145470759Y-117408878D01*
X145470703Y-117494349D01*
X145470563Y-117567468D01*
X145470311Y-117629338D01*
X145469920Y-117681059D01*
X145469364Y-117723733D01*
X145468614Y-117758462D01*
X145467643Y-117786347D01*
X145466425Y-117808489D01*
X145464932Y-117825990D01*
X145463136Y-117839951D01*
X145461011Y-117851474D01*
X145458530Y-117861660D01*
X145457687Y-117864720D01*
X145440527Y-117913791D01*
X145416510Y-117966278D01*
X145388528Y-118016435D01*
X145359473Y-118058515D01*
X145320749Y-118101017D01*
X145260908Y-118149779D01*
X145192561Y-118189751D01*
X145117811Y-118219751D01*
X145038765Y-118238597D01*
X145010896Y-118241409D01*
X144965675Y-118241868D01*
X144916398Y-118238858D01*
X144868377Y-118232748D01*
X144826924Y-118223905D01*
X144781256Y-118208990D01*
X144716161Y-118178420D01*
X144652433Y-118136395D01*
X144615712Y-118105176D01*
X144588540Y-118072240D01*
X144573034Y-118038239D01*
X144568112Y-118001445D01*
X144568205Y-117995148D01*
X144574588Y-117954528D01*
X144591928Y-117921135D01*
X144621505Y-117892356D01*
X144641393Y-117879543D01*
X144680835Y-117865621D01*
X144721446Y-117865017D01*
X144761640Y-117877633D01*
X144799828Y-117903371D01*
X144812349Y-117913624D01*
X144840988Y-117933919D01*
X144868764Y-117950414D01*
X144870790Y-117951454D01*
X144891571Y-117960962D01*
X144910843Y-117966446D01*
X144933744Y-117968914D01*
X144965412Y-117969374D01*
X145013266Y-117965716D01*
X145059105Y-117952712D01*
X145099806Y-117928892D01*
X145138667Y-117892798D01*
X145153754Y-117875578D01*
X145168937Y-117855156D01*
X145180320Y-117834122D01*
X145188438Y-117810257D01*
X145193824Y-117781340D01*
X145197010Y-117745154D01*
X145198531Y-117699478D01*
X145198919Y-117642093D01*
X145198919Y-117502686D01*
X144871312Y-117499201D01*
X144795779Y-117498308D01*
X144723937Y-117497221D01*
X144664601Y-117496015D01*
X144617012Y-117494663D01*
X144580413Y-117493139D01*
X144554046Y-117491416D01*
X144537153Y-117489468D01*
X144528978Y-117487269D01*
X144518690Y-117480229D01*
X144495467Y-117457184D01*
X144475556Y-117428748D01*
X144463277Y-117400618D01*
X144461540Y-117390917D01*
X144459532Y-117366424D01*
X144458212Y-117329564D01*
X144457573Y-117279946D01*
X144457607Y-117217181D01*
X144458306Y-117140880D01*
X144458651Y-117113641D01*
X144458771Y-117105718D01*
X144728420Y-117105718D01*
X144728420Y-117227357D01*
X144966021Y-117227357D01*
X145203623Y-117227357D01*
X145201271Y-117082548D01*
X145198919Y-116937738D01*
X145175973Y-116891155D01*
X145150011Y-116848873D01*
X145112262Y-116810325D01*
X145063946Y-116780014D01*
X145063095Y-116779595D01*
X145044377Y-116771734D01*
X145024744Y-116766975D01*
X144999866Y-116764611D01*
X144965412Y-116763936D01*
X144936112Y-116764155D01*
X144912773Y-116765643D01*
X144894568Y-116769408D01*
X144876867Y-116776449D01*
X144855045Y-116787764D01*
X144824182Y-116807575D01*
X144784048Y-116845170D01*
X144754532Y-116889294D01*
X144750662Y-116897644D01*
X144742032Y-116923135D01*
X144735726Y-116954751D01*
X144731511Y-116994430D01*
X144729154Y-117044107D01*
X144728420Y-117105718D01*
X144458771Y-117105718D01*
X144459620Y-117049765D01*
X144460883Y-116997271D01*
X144462721Y-116954300D01*
X144465416Y-116918990D01*
X144469248Y-116889481D01*
X144474500Y-116863913D01*
X144481453Y-116840424D01*
X144490387Y-116817153D01*
X144501585Y-116792242D01*
X144515328Y-116763828D01*
X144534206Y-116729023D01*
X144581287Y-116663233D01*
X144638293Y-116606368D01*
X144703997Y-116559379D01*
X144777176Y-116523217D01*
X144856604Y-116498834D01*
X144861026Y-116497893D01*
X144910267Y-116491178D01*
X144965497Y-116489176D01*
X145021876Y-116491690D01*
X145074562Y-116498523D01*
X145118713Y-116509479D01*
X145142948Y-116518294D01*
X145219702Y-116555211D01*
X145288146Y-116602594D01*
X145347354Y-116659594D01*
X145396397Y-116725359D01*
X145434350Y-116799039D01*
X145437574Y-116806817D01*
X145444216Y-116823238D01*
X145449907Y-116838701D01*
X145454721Y-116854354D01*
X145458730Y-116871342D01*
X145462009Y-116890811D01*
X145464630Y-116913907D01*
X145466668Y-116941776D01*
X145468196Y-116975564D01*
X145469286Y-117016417D01*
X145470014Y-117065480D01*
X145470452Y-117123901D01*
X145470674Y-117192825D01*
X145470708Y-117227357D01*
X145470753Y-117273397D01*
G37*
X141854645Y-113680056D02*
X141848728Y-113712079D01*
X141845169Y-113731952D01*
X141844114Y-113738907D01*
X141844128Y-113738910D01*
X141850236Y-113734825D01*
X141866923Y-113722941D01*
X141893565Y-113703717D01*
X141929538Y-113677607D01*
X141974218Y-113645069D01*
X142026981Y-113606558D01*
X142087203Y-113562533D01*
X142154260Y-113513448D01*
X142227527Y-113459760D01*
X142306382Y-113401927D01*
X142390200Y-113340403D01*
X142478357Y-113275647D01*
X142570229Y-113208113D01*
X142665193Y-113138259D01*
X142759429Y-113068955D01*
X142852118Y-113000863D01*
X142941378Y-112935364D01*
X143026560Y-112872931D01*
X143107014Y-112814039D01*
X143182092Y-112759160D01*
X143251144Y-112708768D01*
X143313520Y-112663336D01*
X143368572Y-112623337D01*
X143415650Y-112589245D01*
X143454105Y-112561533D01*
X143483287Y-112540675D01*
X143502548Y-112527144D01*
X143511239Y-112521413D01*
X143513208Y-112520400D01*
X143555380Y-112506392D01*
X143602478Y-112503276D01*
X143650567Y-112511336D01*
X143667452Y-112517019D01*
X143684890Y-112525522D01*
X143703313Y-112538143D01*
X143725593Y-112556881D01*
X143754600Y-112583733D01*
X143762185Y-112590864D01*
X143781263Y-112608673D01*
X143809562Y-112635013D01*
X143846490Y-112669333D01*
X143891453Y-112711083D01*
X143943859Y-112759713D01*
X144003114Y-112814674D01*
X144068626Y-112875416D01*
X144139802Y-112941389D01*
X144216048Y-113012043D01*
X144296771Y-113086828D01*
X144381378Y-113165195D01*
X144469277Y-113246593D01*
X144559873Y-113330473D01*
X144652575Y-113416285D01*
X144749469Y-113505952D01*
X144851047Y-113599942D01*
X144943266Y-113685295D01*
X145026575Y-113762469D01*
X145101426Y-113831922D01*
X145168269Y-113894114D01*
X145227555Y-113949503D01*
X145279735Y-113998548D01*
X145325260Y-114041707D01*
X145364580Y-114079439D01*
X145398147Y-114112202D01*
X145426411Y-114140455D01*
X145431548Y-114145765D01*
X145449824Y-114164656D01*
X145468835Y-114185265D01*
X145483896Y-114202739D01*
X145495457Y-114217538D01*
X145503971Y-114230119D01*
X145509886Y-114240942D01*
X145513654Y-114250464D01*
X145515726Y-114259145D01*
X145516553Y-114267444D01*
X145516586Y-114275818D01*
X145516275Y-114284726D01*
X145516071Y-114294627D01*
X145512315Y-114335796D01*
X145496565Y-114383437D01*
X145468969Y-114424143D01*
X145430005Y-114457255D01*
X145380149Y-114482116D01*
X145377987Y-114482966D01*
X145363874Y-114488705D01*
X145337727Y-114499437D01*
X145300142Y-114514914D01*
X145251717Y-114534888D01*
X145193051Y-114559112D01*
X145124739Y-114587339D01*
X145074987Y-114607907D01*
X145047382Y-114619319D01*
X144961575Y-114654806D01*
X144867918Y-114693552D01*
X144767007Y-114735309D01*
X144659441Y-114779829D01*
X144545817Y-114826866D01*
X144426733Y-114876170D01*
X144302786Y-114927495D01*
X144174575Y-114980592D01*
X144042697Y-115035214D01*
X143907751Y-115091113D01*
X143770332Y-115148042D01*
X143631041Y-115205753D01*
X143490473Y-115263998D01*
X143349228Y-115322529D01*
X143207902Y-115381098D01*
X143067094Y-115439459D01*
X142927401Y-115497363D01*
X142789421Y-115554563D01*
X142653751Y-115610810D01*
X142520990Y-115665857D01*
X142391735Y-115719457D01*
X142266585Y-115771361D01*
X142146135Y-115821323D01*
X142030986Y-115869093D01*
X141921733Y-115914426D01*
X141818976Y-115957072D01*
X141723311Y-115996784D01*
X141635337Y-116033315D01*
X141555651Y-116066416D01*
X141484851Y-116095840D01*
X141423534Y-116121340D01*
X141372300Y-116142667D01*
X141331744Y-116159574D01*
X141302465Y-116171813D01*
X141285061Y-116179137D01*
X141244056Y-116191307D01*
X141196118Y-116193844D01*
X141149606Y-116184966D01*
X141107002Y-116165504D01*
X141070789Y-116136291D01*
X141043448Y-116098158D01*
X141041821Y-116094564D01*
X141035221Y-116076616D01*
X141025332Y-116046902D01*
X141012487Y-116006562D01*
X140997017Y-115956740D01*
X140979254Y-115898576D01*
X140959528Y-115833212D01*
X140938173Y-115761791D01*
X140915518Y-115685454D01*
X140891896Y-115605342D01*
X140879636Y-115563521D01*
X141763366Y-115563521D01*
X141763446Y-115568192D01*
X141768397Y-115566460D01*
X141785468Y-115559746D01*
X141813909Y-115548281D01*
X141852939Y-115532391D01*
X141901773Y-115512399D01*
X141959630Y-115488633D01*
X142025728Y-115461415D01*
X142099284Y-115431073D01*
X142179517Y-115397930D01*
X142265643Y-115362313D01*
X142356880Y-115324546D01*
X142452446Y-115284954D01*
X142551560Y-115243863D01*
X142653437Y-115201598D01*
X142757297Y-115158483D01*
X142862356Y-115114845D01*
X142967833Y-115071008D01*
X143072945Y-115027297D01*
X143176910Y-114984037D01*
X143278945Y-114941555D01*
X143378268Y-114900174D01*
X143474098Y-114860220D01*
X143565650Y-114822019D01*
X143652144Y-114785895D01*
X143732797Y-114752173D01*
X143806826Y-114721179D01*
X143873450Y-114693237D01*
X143931886Y-114668674D01*
X143981351Y-114647814D01*
X144021063Y-114630982D01*
X144050240Y-114618503D01*
X144068100Y-114610703D01*
X144073860Y-114607907D01*
X144068796Y-114607989D01*
X144051420Y-114609152D01*
X144023572Y-114611341D01*
X143987161Y-114614382D01*
X143944094Y-114618105D01*
X143896276Y-114622336D01*
X143845616Y-114626903D01*
X143794021Y-114631634D01*
X143743398Y-114636357D01*
X143695654Y-114640900D01*
X143652695Y-114645090D01*
X143616430Y-114648755D01*
X143588766Y-114651723D01*
X143580462Y-114652565D01*
X143558649Y-114654674D01*
X143524889Y-114657890D01*
X143480233Y-114662114D01*
X143425734Y-114667249D01*
X143362444Y-114673194D01*
X143291417Y-114679852D01*
X143213704Y-114687122D01*
X143130358Y-114694907D01*
X143042432Y-114703107D01*
X142950978Y-114711624D01*
X142944025Y-114712271D01*
X142836027Y-114722360D01*
X142741071Y-114731312D01*
X142658361Y-114739216D01*
X142587099Y-114746158D01*
X142526490Y-114752227D01*
X142475737Y-114757509D01*
X142434043Y-114762092D01*
X142400612Y-114766062D01*
X142374648Y-114769509D01*
X142355354Y-114772519D01*
X142341933Y-114775178D01*
X142333589Y-114777576D01*
X142329525Y-114779798D01*
X142328403Y-114781012D01*
X142319025Y-114792763D01*
X142302302Y-114814911D01*
X142300009Y-114818011D01*
X142278803Y-114846675D01*
X142249101Y-114887270D01*
X142213766Y-114935914D01*
X142173370Y-114991824D01*
X142128485Y-115054216D01*
X142079681Y-115122307D01*
X142075945Y-115127523D01*
X142059812Y-115149990D01*
X142037831Y-115180546D01*
X142011745Y-115216773D01*
X141983293Y-115256252D01*
X141954216Y-115296566D01*
X141945135Y-115309154D01*
X141915807Y-115349847D01*
X141887482Y-115389199D01*
X141861951Y-115424720D01*
X141841004Y-115453920D01*
X141826431Y-115474311D01*
X141822435Y-115479914D01*
X141803856Y-115505766D01*
X141786805Y-115529210D01*
X141774541Y-115545757D01*
X141770366Y-115551530D01*
X141763366Y-115563521D01*
X140879636Y-115563521D01*
X140867639Y-115522599D01*
X140843077Y-115438365D01*
X140818542Y-115353782D01*
X140794367Y-115269992D01*
X140770882Y-115188137D01*
X140748418Y-115109358D01*
X140727308Y-115034798D01*
X140707884Y-114965599D01*
X140690475Y-114902901D01*
X140686544Y-114888532D01*
X141084652Y-114888532D01*
X141084769Y-114889870D01*
X141087609Y-114901705D01*
X141093627Y-114924156D01*
X141102287Y-114955278D01*
X141113050Y-114993130D01*
X141125379Y-115035769D01*
X141130654Y-115053831D01*
X141142722Y-115094841D01*
X141153283Y-115130302D01*
X141161747Y-115158253D01*
X141167522Y-115176732D01*
X141170017Y-115183779D01*
X141170478Y-115183903D01*
X141172057Y-115181038D01*
X141173430Y-115176218D01*
X141566670Y-115176218D01*
X141568183Y-115174855D01*
X141576684Y-115164306D01*
X141591769Y-115144472D01*
X141612453Y-115116679D01*
X141637754Y-115082251D01*
X141666687Y-115042516D01*
X141698270Y-114998799D01*
X141715806Y-114974410D01*
X141745858Y-114932488D01*
X141772543Y-114895104D01*
X141794902Y-114863612D01*
X141811976Y-114839364D01*
X141822805Y-114823713D01*
X141826432Y-114818011D01*
X141826310Y-114817962D01*
X141818108Y-114818249D01*
X141799395Y-114819753D01*
X141773219Y-114822162D01*
X141742628Y-114825163D01*
X141710670Y-114828445D01*
X141680395Y-114831695D01*
X141654851Y-114834600D01*
X141637085Y-114836848D01*
X141630147Y-114838126D01*
X141629180Y-114842056D01*
X141625855Y-114857945D01*
X141622194Y-114876135D01*
X141620558Y-114884266D01*
X141613664Y-114919134D01*
X141605546Y-114960666D01*
X141596581Y-115006978D01*
X141590029Y-115041271D01*
X141581986Y-115084297D01*
X141575296Y-115121191D01*
X141570290Y-115150068D01*
X141567304Y-115169039D01*
X141566670Y-115176218D01*
X141173430Y-115176218D01*
X141174472Y-115172558D01*
X141178008Y-115157116D01*
X141182948Y-115133361D01*
X141189578Y-115099946D01*
X141198182Y-115055521D01*
X141209044Y-114998738D01*
X141215329Y-114965015D01*
X141221488Y-114930141D01*
X141226041Y-114902206D01*
X141228623Y-114883455D01*
X141228872Y-114876135D01*
X141225484Y-114875814D01*
X141211064Y-114876317D01*
X141188707Y-114877776D01*
X141162037Y-114879882D01*
X141134674Y-114882321D01*
X141110242Y-114884783D01*
X141092360Y-114886957D01*
X141084652Y-114888532D01*
X140686544Y-114888532D01*
X140675415Y-114847847D01*
X140663034Y-114801579D01*
X140653665Y-114765238D01*
X140647638Y-114739967D01*
X140645286Y-114726906D01*
X140645045Y-114722698D01*
X140645184Y-114694593D01*
X140650067Y-114670756D01*
X140661201Y-114643262D01*
X140665023Y-114634383D01*
X140674033Y-114612733D01*
X140687696Y-114579545D01*
X140705721Y-114535538D01*
X140727818Y-114481430D01*
X140740568Y-114450149D01*
X141705639Y-114450149D01*
X141706435Y-114450122D01*
X141717459Y-114449205D01*
X141740089Y-114447155D01*
X141772607Y-114444132D01*
X141813293Y-114440297D01*
X141860428Y-114435810D01*
X141912293Y-114430833D01*
X141955043Y-114426601D01*
X142012282Y-114420484D01*
X142058795Y-114414906D01*
X142093785Y-114409975D01*
X142116457Y-114405794D01*
X142126017Y-114402470D01*
X142129627Y-114397824D01*
X142140947Y-114382531D01*
X142159199Y-114357569D01*
X142161340Y-114354625D01*
X142634264Y-114354625D01*
X142635620Y-114360473D01*
X142649098Y-114361701D01*
X142654686Y-114361272D01*
X142673692Y-114359597D01*
X142704932Y-114356747D01*
X142747457Y-114352813D01*
X142800313Y-114347883D01*
X142862549Y-114342047D01*
X142933214Y-114335394D01*
X143011355Y-114328015D01*
X143096022Y-114319998D01*
X143186262Y-114311432D01*
X143281123Y-114302409D01*
X143379655Y-114293016D01*
X143380721Y-114292914D01*
X143489672Y-114282522D01*
X143602158Y-114271804D01*
X143716438Y-114260924D01*
X143830772Y-114250048D01*
X143943417Y-114239341D01*
X144052632Y-114228969D01*
X144156677Y-114219096D01*
X144253809Y-114209889D01*
X144342288Y-114201513D01*
X144420372Y-114194133D01*
X144486320Y-114187914D01*
X144543069Y-114182519D01*
X144612388Y-114175779D01*
X144676387Y-114169391D01*
X144733842Y-114163484D01*
X144783529Y-114158191D01*
X144824227Y-114153641D01*
X144854710Y-114149966D01*
X144873758Y-114147297D01*
X144880145Y-114145765D01*
X144876307Y-114141870D01*
X144862842Y-114129013D01*
X144840293Y-114107763D01*
X144809281Y-114078697D01*
X144770427Y-114042394D01*
X144724354Y-113999433D01*
X144671684Y-113950393D01*
X144613037Y-113895853D01*
X144549037Y-113836392D01*
X144480304Y-113772588D01*
X144407460Y-113705020D01*
X144331128Y-113634267D01*
X144251928Y-113560909D01*
X144195969Y-113509107D01*
X144106469Y-113426325D01*
X144026380Y-113352354D01*
X143955209Y-113286751D01*
X143892461Y-113229070D01*
X143837639Y-113178867D01*
X143790251Y-113135699D01*
X143749800Y-113099120D01*
X143715792Y-113068686D01*
X143687732Y-113043953D01*
X143665126Y-113024477D01*
X143647477Y-113009813D01*
X143634292Y-112999517D01*
X143625075Y-112993144D01*
X143619332Y-112990249D01*
X143616568Y-112990390D01*
X143614932Y-112992488D01*
X143605936Y-113004668D01*
X143589741Y-113026871D01*
X143566959Y-113058245D01*
X143538205Y-113097939D01*
X143504090Y-113145102D01*
X143465227Y-113198883D01*
X143422229Y-113258432D01*
X143375709Y-113322897D01*
X143326280Y-113391428D01*
X143274555Y-113463172D01*
X143221146Y-113537280D01*
X143196707Y-113571202D01*
X143166666Y-113612901D01*
X143111729Y-113689182D01*
X143056946Y-113765274D01*
X143002931Y-113840326D01*
X142950297Y-113913485D01*
X142899656Y-113983902D01*
X142851621Y-114050726D01*
X142806806Y-114113105D01*
X142765822Y-114170188D01*
X142729283Y-114221125D01*
X142697801Y-114265064D01*
X142671990Y-114301154D01*
X142652463Y-114328545D01*
X142639831Y-114346386D01*
X142634708Y-114353825D01*
X142634264Y-114354625D01*
X142161340Y-114354625D01*
X142183714Y-114323862D01*
X142213825Y-114282331D01*
X142248863Y-114233900D01*
X142288161Y-114179491D01*
X142331050Y-114120027D01*
X142376863Y-114056430D01*
X142424930Y-113989623D01*
X142463184Y-113936433D01*
X142509520Y-113872023D01*
X142553062Y-113811519D01*
X142593142Y-113755846D01*
X142629092Y-113705931D01*
X142660245Y-113662702D01*
X142685933Y-113627086D01*
X142705488Y-113600008D01*
X142718242Y-113582397D01*
X142723527Y-113575179D01*
X142723893Y-113574710D01*
X142725502Y-113572617D01*
X142726339Y-113571202D01*
X142725750Y-113570937D01*
X142723081Y-113572296D01*
X142717679Y-113575754D01*
X142708889Y-113581783D01*
X142696058Y-113590858D01*
X142678533Y-113603452D01*
X142655659Y-113620039D01*
X142626782Y-113641093D01*
X142591250Y-113667088D01*
X142548407Y-113698497D01*
X142497601Y-113735794D01*
X142438177Y-113779453D01*
X142369482Y-113829947D01*
X142290862Y-113887750D01*
X142201664Y-113953337D01*
X141734649Y-114296725D01*
X141719580Y-114373196D01*
X141714292Y-114400440D01*
X141709498Y-114426081D01*
X141706447Y-114443570D01*
X141705639Y-114450149D01*
X140740568Y-114450149D01*
X140753695Y-114417942D01*
X140783062Y-114345792D01*
X140815626Y-114265700D01*
X140851098Y-114178385D01*
X140856930Y-114164020D01*
X141265487Y-114164020D01*
X141269397Y-114162337D01*
X141282522Y-114153964D01*
X141302536Y-114140108D01*
X141327041Y-114122391D01*
X141386446Y-114078653D01*
X141423991Y-113884277D01*
X141425424Y-113876860D01*
X141435163Y-113826460D01*
X141444089Y-113780309D01*
X141451834Y-113740296D01*
X141458033Y-113708308D01*
X141462321Y-113686233D01*
X141464333Y-113675959D01*
X141464314Y-113675572D01*
X141461093Y-113681942D01*
X141453325Y-113699594D01*
X141441552Y-113727238D01*
X141426316Y-113763586D01*
X141408156Y-113807349D01*
X141387616Y-113857238D01*
X141365235Y-113911963D01*
X141359990Y-113924838D01*
X141337827Y-113979467D01*
X141317627Y-114029614D01*
X141299944Y-114073875D01*
X141285334Y-114110849D01*
X141274351Y-114139132D01*
X141267551Y-114157324D01*
X141265487Y-114164020D01*
X140856930Y-114164020D01*
X140889187Y-114084566D01*
X140929600Y-113984964D01*
X140972048Y-113880296D01*
X141016238Y-113771283D01*
X141061881Y-113658644D01*
X141108685Y-113543097D01*
X141156359Y-113425363D01*
X141204612Y-113306160D01*
X141253153Y-113186209D01*
X141301691Y-113066227D01*
X141349935Y-112946936D01*
X141397593Y-112829053D01*
X141444376Y-112713298D01*
X141489991Y-112600390D01*
X141534148Y-112491050D01*
X141576556Y-112385995D01*
X141616923Y-112285946D01*
X141654959Y-112191622D01*
X141690373Y-112103741D01*
X141722874Y-112023024D01*
X141752170Y-111950190D01*
X141777971Y-111885957D01*
X141799985Y-111831046D01*
X141817921Y-111786175D01*
X141831489Y-111752064D01*
X141840398Y-111729433D01*
X141844356Y-111718999D01*
X141853337Y-111697011D01*
X141880704Y-111655281D01*
X141917422Y-111622473D01*
X141961521Y-111600114D01*
X142011035Y-111589729D01*
X142051561Y-111590919D01*
X142098401Y-111603744D01*
X142139805Y-111627927D01*
X142174170Y-111662169D01*
X142199894Y-111705168D01*
X142215374Y-111755622D01*
X142215479Y-111759352D01*
X142214202Y-111772785D01*
X142211022Y-111795423D01*
X142205873Y-111827638D01*
X142198684Y-111869804D01*
X142189388Y-111922291D01*
X142177917Y-111985473D01*
X142164201Y-112059722D01*
X142148172Y-112145409D01*
X142129762Y-112242907D01*
X142108903Y-112352589D01*
X142085525Y-112474826D01*
X142059561Y-112609990D01*
X142030942Y-112758455D01*
X142011234Y-112860611D01*
X141989800Y-112971876D01*
X141969258Y-113078674D01*
X141949757Y-113180237D01*
X141931441Y-113275796D01*
X141914457Y-113364584D01*
X141898951Y-113445832D01*
X141885071Y-113518771D01*
X141872962Y-113582634D01*
X141862771Y-113636652D01*
X141855412Y-113675959D01*
X141854645Y-113680056D01*
G36*
X141854645Y-113680056D02*
G01*
X141848728Y-113712079D01*
X141845169Y-113731952D01*
X141844114Y-113738907D01*
X141844128Y-113738910D01*
X141850236Y-113734825D01*
X141866923Y-113722941D01*
X141893565Y-113703717D01*
X141929538Y-113677607D01*
X141974218Y-113645069D01*
X142026981Y-113606558D01*
X142087203Y-113562533D01*
X142154260Y-113513448D01*
X142227527Y-113459760D01*
X142306382Y-113401927D01*
X142390200Y-113340403D01*
X142478357Y-113275647D01*
X142570229Y-113208113D01*
X142665193Y-113138259D01*
X142759429Y-113068955D01*
X142852118Y-113000863D01*
X142941378Y-112935364D01*
X143026560Y-112872931D01*
X143107014Y-112814039D01*
X143182092Y-112759160D01*
X143251144Y-112708768D01*
X143313520Y-112663336D01*
X143368572Y-112623337D01*
X143415650Y-112589245D01*
X143454105Y-112561533D01*
X143483287Y-112540675D01*
X143502548Y-112527144D01*
X143511239Y-112521413D01*
X143513208Y-112520400D01*
X143555380Y-112506392D01*
X143602478Y-112503276D01*
X143650567Y-112511336D01*
X143667452Y-112517019D01*
X143684890Y-112525522D01*
X143703313Y-112538143D01*
X143725593Y-112556881D01*
X143754600Y-112583733D01*
X143762185Y-112590864D01*
X143781263Y-112608673D01*
X143809562Y-112635013D01*
X143846490Y-112669333D01*
X143891453Y-112711083D01*
X143943859Y-112759713D01*
X144003114Y-112814674D01*
X144068626Y-112875416D01*
X144139802Y-112941389D01*
X144216048Y-113012043D01*
X144296771Y-113086828D01*
X144381378Y-113165195D01*
X144469277Y-113246593D01*
X144559873Y-113330473D01*
X144652575Y-113416285D01*
X144749469Y-113505952D01*
X144851047Y-113599942D01*
X144943266Y-113685295D01*
X145026575Y-113762469D01*
X145101426Y-113831922D01*
X145168269Y-113894114D01*
X145227555Y-113949503D01*
X145279735Y-113998548D01*
X145325260Y-114041707D01*
X145364580Y-114079439D01*
X145398147Y-114112202D01*
X145426411Y-114140455D01*
X145431548Y-114145765D01*
X145449824Y-114164656D01*
X145468835Y-114185265D01*
X145483896Y-114202739D01*
X145495457Y-114217538D01*
X145503971Y-114230119D01*
X145509886Y-114240942D01*
X145513654Y-114250464D01*
X145515726Y-114259145D01*
X145516553Y-114267444D01*
X145516586Y-114275818D01*
X145516275Y-114284726D01*
X145516071Y-114294627D01*
X145512315Y-114335796D01*
X145496565Y-114383437D01*
X145468969Y-114424143D01*
X145430005Y-114457255D01*
X145380149Y-114482116D01*
X145377987Y-114482966D01*
X145363874Y-114488705D01*
X145337727Y-114499437D01*
X145300142Y-114514914D01*
X145251717Y-114534888D01*
X145193051Y-114559112D01*
X145124739Y-114587339D01*
X145074987Y-114607907D01*
X145047382Y-114619319D01*
X144961575Y-114654806D01*
X144867918Y-114693552D01*
X144767007Y-114735309D01*
X144659441Y-114779829D01*
X144545817Y-114826866D01*
X144426733Y-114876170D01*
X144302786Y-114927495D01*
X144174575Y-114980592D01*
X144042697Y-115035214D01*
X143907751Y-115091113D01*
X143770332Y-115148042D01*
X143631041Y-115205753D01*
X143490473Y-115263998D01*
X143349228Y-115322529D01*
X143207902Y-115381098D01*
X143067094Y-115439459D01*
X142927401Y-115497363D01*
X142789421Y-115554563D01*
X142653751Y-115610810D01*
X142520990Y-115665857D01*
X142391735Y-115719457D01*
X142266585Y-115771361D01*
X142146135Y-115821323D01*
X142030986Y-115869093D01*
X141921733Y-115914426D01*
X141818976Y-115957072D01*
X141723311Y-115996784D01*
X141635337Y-116033315D01*
X141555651Y-116066416D01*
X141484851Y-116095840D01*
X141423534Y-116121340D01*
X141372300Y-116142667D01*
X141331744Y-116159574D01*
X141302465Y-116171813D01*
X141285061Y-116179137D01*
X141244056Y-116191307D01*
X141196118Y-116193844D01*
X141149606Y-116184966D01*
X141107002Y-116165504D01*
X141070789Y-116136291D01*
X141043448Y-116098158D01*
X141041821Y-116094564D01*
X141035221Y-116076616D01*
X141025332Y-116046902D01*
X141012487Y-116006562D01*
X140997017Y-115956740D01*
X140979254Y-115898576D01*
X140959528Y-115833212D01*
X140938173Y-115761791D01*
X140915518Y-115685454D01*
X140891896Y-115605342D01*
X140879636Y-115563521D01*
X141763366Y-115563521D01*
X141763446Y-115568192D01*
X141768397Y-115566460D01*
X141785468Y-115559746D01*
X141813909Y-115548281D01*
X141852939Y-115532391D01*
X141901773Y-115512399D01*
X141959630Y-115488633D01*
X142025728Y-115461415D01*
X142099284Y-115431073D01*
X142179517Y-115397930D01*
X142265643Y-115362313D01*
X142356880Y-115324546D01*
X142452446Y-115284954D01*
X142551560Y-115243863D01*
X142653437Y-115201598D01*
X142757297Y-115158483D01*
X142862356Y-115114845D01*
X142967833Y-115071008D01*
X143072945Y-115027297D01*
X143176910Y-114984037D01*
X143278945Y-114941555D01*
X143378268Y-114900174D01*
X143474098Y-114860220D01*
X143565650Y-114822019D01*
X143652144Y-114785895D01*
X143732797Y-114752173D01*
X143806826Y-114721179D01*
X143873450Y-114693237D01*
X143931886Y-114668674D01*
X143981351Y-114647814D01*
X144021063Y-114630982D01*
X144050240Y-114618503D01*
X144068100Y-114610703D01*
X144073860Y-114607907D01*
X144068796Y-114607989D01*
X144051420Y-114609152D01*
X144023572Y-114611341D01*
X143987161Y-114614382D01*
X143944094Y-114618105D01*
X143896276Y-114622336D01*
X143845616Y-114626903D01*
X143794021Y-114631634D01*
X143743398Y-114636357D01*
X143695654Y-114640900D01*
X143652695Y-114645090D01*
X143616430Y-114648755D01*
X143588766Y-114651723D01*
X143580462Y-114652565D01*
X143558649Y-114654674D01*
X143524889Y-114657890D01*
X143480233Y-114662114D01*
X143425734Y-114667249D01*
X143362444Y-114673194D01*
X143291417Y-114679852D01*
X143213704Y-114687122D01*
X143130358Y-114694907D01*
X143042432Y-114703107D01*
X142950978Y-114711624D01*
X142944025Y-114712271D01*
X142836027Y-114722360D01*
X142741071Y-114731312D01*
X142658361Y-114739216D01*
X142587099Y-114746158D01*
X142526490Y-114752227D01*
X142475737Y-114757509D01*
X142434043Y-114762092D01*
X142400612Y-114766062D01*
X142374648Y-114769509D01*
X142355354Y-114772519D01*
X142341933Y-114775178D01*
X142333589Y-114777576D01*
X142329525Y-114779798D01*
X142328403Y-114781012D01*
X142319025Y-114792763D01*
X142302302Y-114814911D01*
X142300009Y-114818011D01*
X142278803Y-114846675D01*
X142249101Y-114887270D01*
X142213766Y-114935914D01*
X142173370Y-114991824D01*
X142128485Y-115054216D01*
X142079681Y-115122307D01*
X142075945Y-115127523D01*
X142059812Y-115149990D01*
X142037831Y-115180546D01*
X142011745Y-115216773D01*
X141983293Y-115256252D01*
X141954216Y-115296566D01*
X141945135Y-115309154D01*
X141915807Y-115349847D01*
X141887482Y-115389199D01*
X141861951Y-115424720D01*
X141841004Y-115453920D01*
X141826431Y-115474311D01*
X141822435Y-115479914D01*
X141803856Y-115505766D01*
X141786805Y-115529210D01*
X141774541Y-115545757D01*
X141770366Y-115551530D01*
X141763366Y-115563521D01*
X140879636Y-115563521D01*
X140867639Y-115522599D01*
X140843077Y-115438365D01*
X140818542Y-115353782D01*
X140794367Y-115269992D01*
X140770882Y-115188137D01*
X140748418Y-115109358D01*
X140727308Y-115034798D01*
X140707884Y-114965599D01*
X140690475Y-114902901D01*
X140686544Y-114888532D01*
X141084652Y-114888532D01*
X141084769Y-114889870D01*
X141087609Y-114901705D01*
X141093627Y-114924156D01*
X141102287Y-114955278D01*
X141113050Y-114993130D01*
X141125379Y-115035769D01*
X141130654Y-115053831D01*
X141142722Y-115094841D01*
X141153283Y-115130302D01*
X141161747Y-115158253D01*
X141167522Y-115176732D01*
X141170017Y-115183779D01*
X141170478Y-115183903D01*
X141172057Y-115181038D01*
X141173430Y-115176218D01*
X141566670Y-115176218D01*
X141568183Y-115174855D01*
X141576684Y-115164306D01*
X141591769Y-115144472D01*
X141612453Y-115116679D01*
X141637754Y-115082251D01*
X141666687Y-115042516D01*
X141698270Y-114998799D01*
X141715806Y-114974410D01*
X141745858Y-114932488D01*
X141772543Y-114895104D01*
X141794902Y-114863612D01*
X141811976Y-114839364D01*
X141822805Y-114823713D01*
X141826432Y-114818011D01*
X141826310Y-114817962D01*
X141818108Y-114818249D01*
X141799395Y-114819753D01*
X141773219Y-114822162D01*
X141742628Y-114825163D01*
X141710670Y-114828445D01*
X141680395Y-114831695D01*
X141654851Y-114834600D01*
X141637085Y-114836848D01*
X141630147Y-114838126D01*
X141629180Y-114842056D01*
X141625855Y-114857945D01*
X141622194Y-114876135D01*
X141620558Y-114884266D01*
X141613664Y-114919134D01*
X141605546Y-114960666D01*
X141596581Y-115006978D01*
X141590029Y-115041271D01*
X141581986Y-115084297D01*
X141575296Y-115121191D01*
X141570290Y-115150068D01*
X141567304Y-115169039D01*
X141566670Y-115176218D01*
X141173430Y-115176218D01*
X141174472Y-115172558D01*
X141178008Y-115157116D01*
X141182948Y-115133361D01*
X141189578Y-115099946D01*
X141198182Y-115055521D01*
X141209044Y-114998738D01*
X141215329Y-114965015D01*
X141221488Y-114930141D01*
X141226041Y-114902206D01*
X141228623Y-114883455D01*
X141228872Y-114876135D01*
X141225484Y-114875814D01*
X141211064Y-114876317D01*
X141188707Y-114877776D01*
X141162037Y-114879882D01*
X141134674Y-114882321D01*
X141110242Y-114884783D01*
X141092360Y-114886957D01*
X141084652Y-114888532D01*
X140686544Y-114888532D01*
X140675415Y-114847847D01*
X140663034Y-114801579D01*
X140653665Y-114765238D01*
X140647638Y-114739967D01*
X140645286Y-114726906D01*
X140645045Y-114722698D01*
X140645184Y-114694593D01*
X140650067Y-114670756D01*
X140661201Y-114643262D01*
X140665023Y-114634383D01*
X140674033Y-114612733D01*
X140687696Y-114579545D01*
X140705721Y-114535538D01*
X140727818Y-114481430D01*
X140740568Y-114450149D01*
X141705639Y-114450149D01*
X141706435Y-114450122D01*
X141717459Y-114449205D01*
X141740089Y-114447155D01*
X141772607Y-114444132D01*
X141813293Y-114440297D01*
X141860428Y-114435810D01*
X141912293Y-114430833D01*
X141955043Y-114426601D01*
X142012282Y-114420484D01*
X142058795Y-114414906D01*
X142093785Y-114409975D01*
X142116457Y-114405794D01*
X142126017Y-114402470D01*
X142129627Y-114397824D01*
X142140947Y-114382531D01*
X142159199Y-114357569D01*
X142161340Y-114354625D01*
X142634264Y-114354625D01*
X142635620Y-114360473D01*
X142649098Y-114361701D01*
X142654686Y-114361272D01*
X142673692Y-114359597D01*
X142704932Y-114356747D01*
X142747457Y-114352813D01*
X142800313Y-114347883D01*
X142862549Y-114342047D01*
X142933214Y-114335394D01*
X143011355Y-114328015D01*
X143096022Y-114319998D01*
X143186262Y-114311432D01*
X143281123Y-114302409D01*
X143379655Y-114293016D01*
X143380721Y-114292914D01*
X143489672Y-114282522D01*
X143602158Y-114271804D01*
X143716438Y-114260924D01*
X143830772Y-114250048D01*
X143943417Y-114239341D01*
X144052632Y-114228969D01*
X144156677Y-114219096D01*
X144253809Y-114209889D01*
X144342288Y-114201513D01*
X144420372Y-114194133D01*
X144486320Y-114187914D01*
X144543069Y-114182519D01*
X144612388Y-114175779D01*
X144676387Y-114169391D01*
X144733842Y-114163484D01*
X144783529Y-114158191D01*
X144824227Y-114153641D01*
X144854710Y-114149966D01*
X144873758Y-114147297D01*
X144880145Y-114145765D01*
X144876307Y-114141870D01*
X144862842Y-114129013D01*
X144840293Y-114107763D01*
X144809281Y-114078697D01*
X144770427Y-114042394D01*
X144724354Y-113999433D01*
X144671684Y-113950393D01*
X144613037Y-113895853D01*
X144549037Y-113836392D01*
X144480304Y-113772588D01*
X144407460Y-113705020D01*
X144331128Y-113634267D01*
X144251928Y-113560909D01*
X144195969Y-113509107D01*
X144106469Y-113426325D01*
X144026380Y-113352354D01*
X143955209Y-113286751D01*
X143892461Y-113229070D01*
X143837639Y-113178867D01*
X143790251Y-113135699D01*
X143749800Y-113099120D01*
X143715792Y-113068686D01*
X143687732Y-113043953D01*
X143665126Y-113024477D01*
X143647477Y-113009813D01*
X143634292Y-112999517D01*
X143625075Y-112993144D01*
X143619332Y-112990249D01*
X143616568Y-112990390D01*
X143614932Y-112992488D01*
X143605936Y-113004668D01*
X143589741Y-113026871D01*
X143566959Y-113058245D01*
X143538205Y-113097939D01*
X143504090Y-113145102D01*
X143465227Y-113198883D01*
X143422229Y-113258432D01*
X143375709Y-113322897D01*
X143326280Y-113391428D01*
X143274555Y-113463172D01*
X143221146Y-113537280D01*
X143196707Y-113571202D01*
X143166666Y-113612901D01*
X143111729Y-113689182D01*
X143056946Y-113765274D01*
X143002931Y-113840326D01*
X142950297Y-113913485D01*
X142899656Y-113983902D01*
X142851621Y-114050726D01*
X142806806Y-114113105D01*
X142765822Y-114170188D01*
X142729283Y-114221125D01*
X142697801Y-114265064D01*
X142671990Y-114301154D01*
X142652463Y-114328545D01*
X142639831Y-114346386D01*
X142634708Y-114353825D01*
X142634264Y-114354625D01*
X142161340Y-114354625D01*
X142183714Y-114323862D01*
X142213825Y-114282331D01*
X142248863Y-114233900D01*
X142288161Y-114179491D01*
X142331050Y-114120027D01*
X142376863Y-114056430D01*
X142424930Y-113989623D01*
X142463184Y-113936433D01*
X142509520Y-113872023D01*
X142553062Y-113811519D01*
X142593142Y-113755846D01*
X142629092Y-113705931D01*
X142660245Y-113662702D01*
X142685933Y-113627086D01*
X142705488Y-113600008D01*
X142718242Y-113582397D01*
X142723527Y-113575179D01*
X142723893Y-113574710D01*
X142725502Y-113572617D01*
X142726339Y-113571202D01*
X142725750Y-113570937D01*
X142723081Y-113572296D01*
X142717679Y-113575754D01*
X142708889Y-113581783D01*
X142696058Y-113590858D01*
X142678533Y-113603452D01*
X142655659Y-113620039D01*
X142626782Y-113641093D01*
X142591250Y-113667088D01*
X142548407Y-113698497D01*
X142497601Y-113735794D01*
X142438177Y-113779453D01*
X142369482Y-113829947D01*
X142290862Y-113887750D01*
X142201664Y-113953337D01*
X141734649Y-114296725D01*
X141719580Y-114373196D01*
X141714292Y-114400440D01*
X141709498Y-114426081D01*
X141706447Y-114443570D01*
X141705639Y-114450149D01*
X140740568Y-114450149D01*
X140753695Y-114417942D01*
X140783062Y-114345792D01*
X140815626Y-114265700D01*
X140851098Y-114178385D01*
X140856930Y-114164020D01*
X141265487Y-114164020D01*
X141269397Y-114162337D01*
X141282522Y-114153964D01*
X141302536Y-114140108D01*
X141327041Y-114122391D01*
X141386446Y-114078653D01*
X141423991Y-113884277D01*
X141425424Y-113876860D01*
X141435163Y-113826460D01*
X141444089Y-113780309D01*
X141451834Y-113740296D01*
X141458033Y-113708308D01*
X141462321Y-113686233D01*
X141464333Y-113675959D01*
X141464314Y-113675572D01*
X141461093Y-113681942D01*
X141453325Y-113699594D01*
X141441552Y-113727238D01*
X141426316Y-113763586D01*
X141408156Y-113807349D01*
X141387616Y-113857238D01*
X141365235Y-113911963D01*
X141359990Y-113924838D01*
X141337827Y-113979467D01*
X141317627Y-114029614D01*
X141299944Y-114073875D01*
X141285334Y-114110849D01*
X141274351Y-114139132D01*
X141267551Y-114157324D01*
X141265487Y-114164020D01*
X140856930Y-114164020D01*
X140889187Y-114084566D01*
X140929600Y-113984964D01*
X140972048Y-113880296D01*
X141016238Y-113771283D01*
X141061881Y-113658644D01*
X141108685Y-113543097D01*
X141156359Y-113425363D01*
X141204612Y-113306160D01*
X141253153Y-113186209D01*
X141301691Y-113066227D01*
X141349935Y-112946936D01*
X141397593Y-112829053D01*
X141444376Y-112713298D01*
X141489991Y-112600390D01*
X141534148Y-112491050D01*
X141576556Y-112385995D01*
X141616923Y-112285946D01*
X141654959Y-112191622D01*
X141690373Y-112103741D01*
X141722874Y-112023024D01*
X141752170Y-111950190D01*
X141777971Y-111885957D01*
X141799985Y-111831046D01*
X141817921Y-111786175D01*
X141831489Y-111752064D01*
X141840398Y-111729433D01*
X141844356Y-111718999D01*
X141853337Y-111697011D01*
X141880704Y-111655281D01*
X141917422Y-111622473D01*
X141961521Y-111600114D01*
X142011035Y-111589729D01*
X142051561Y-111590919D01*
X142098401Y-111603744D01*
X142139805Y-111627927D01*
X142174170Y-111662169D01*
X142199894Y-111705168D01*
X142215374Y-111755622D01*
X142215479Y-111759352D01*
X142214202Y-111772785D01*
X142211022Y-111795423D01*
X142205873Y-111827638D01*
X142198684Y-111869804D01*
X142189388Y-111922291D01*
X142177917Y-111985473D01*
X142164201Y-112059722D01*
X142148172Y-112145409D01*
X142129762Y-112242907D01*
X142108903Y-112352589D01*
X142085525Y-112474826D01*
X142059561Y-112609990D01*
X142030942Y-112758455D01*
X142011234Y-112860611D01*
X141989800Y-112971876D01*
X141969258Y-113078674D01*
X141949757Y-113180237D01*
X141931441Y-113275796D01*
X141914457Y-113364584D01*
X141898951Y-113445832D01*
X141885071Y-113518771D01*
X141872962Y-113582634D01*
X141862771Y-113636652D01*
X141855412Y-113675959D01*
X141854645Y-113680056D01*
G37*
%TD*%
%LPC*%
%TO.C,JP2*%
X151234000Y-98489200D02*
X151534000Y-98489200D01*
X151534000Y-96989200D01*
X151234000Y-96989200D01*
X151234000Y-98489200D01*
G36*
X151234000Y-98489200D02*
G01*
X151534000Y-98489200D01*
X151534000Y-96989200D01*
X151234000Y-96989200D01*
X151234000Y-98489200D01*
G37*
%TD*%
D11*
%TO.C,JP2*%
X150734000Y-97739200D03*
D12*
X152034000Y-97739200D03*
%TD*%
D13*
%TO.C,J7*%
X156210000Y-134112000D03*
X156210000Y-131572000D03*
X156210000Y-129032000D03*
X156210000Y-126492000D03*
X156210000Y-123952000D03*
X156210000Y-121412000D03*
X156210000Y-118872000D03*
X156210000Y-116332000D03*
X156210000Y-113792000D03*
X156210000Y-111252000D03*
X156210000Y-108712000D03*
X156210000Y-106172000D03*
X156210000Y-103632000D03*
X156210000Y-101092000D03*
X156210000Y-98552000D03*
D14*
X156210000Y-96012000D03*
%TD*%
D13*
%TO.C,J6*%
X128270000Y-134112000D03*
X128270000Y-131572000D03*
X128270000Y-129032000D03*
X128270000Y-126492000D03*
X128270000Y-123952000D03*
X128270000Y-121412000D03*
X128270000Y-118872000D03*
X128270000Y-116332000D03*
X128270000Y-113792000D03*
X128270000Y-111252000D03*
X128270000Y-108712000D03*
X128270000Y-106172000D03*
X128270000Y-103632000D03*
X128270000Y-101092000D03*
X128270000Y-98552000D03*
D14*
X128270000Y-96012000D03*
%TD*%
D13*
%TO.C,J4*%
X147178000Y-108478000D03*
X147178000Y-111018000D03*
X149718000Y-108478000D03*
X149718000Y-111018000D03*
X152258000Y-108478000D03*
D14*
X152258000Y-111018000D03*
%TD*%
D15*
%TO.C,J3*%
X138428000Y-96931000D03*
D16*
X138428000Y-101111000D03*
D15*
X147068000Y-96931000D03*
D16*
X147068000Y-101111000D03*
D17*
X139858000Y-100611000D03*
X145638000Y-100611000D03*
%TD*%
%LPD*%
D18*
X125730000Y-94232000D02*
X158750000Y-94232000D01*
X158750000Y-136142000D01*
X125730000Y-136142000D01*
X125730000Y-94232000D01*
M02*
