%TF.GenerationSoftware,KiCad,Pcbnew,9.0.4*%
%TF.CreationDate,2025-09-11T17:12:04+01:00*%
%TF.ProjectId,OE PyBoard,4f452050-7942-46f6-9172-642e6b696361,rev?*%
%TF.SameCoordinates,Original*%
%TF.FileFunction,Copper,L2,Inr*%
%TF.FilePolarity,Positive*%
%FSLAX46Y46*%
G04 Gerber Fmt 4.6, Leading zero omitted, Abs format (unit mm)*
G04 Created by KiCad (PCBNEW 9.0.4) date 2025-09-11 17:12:04*
%MOMM*%
%LPD*%
G01*
G04 APERTURE LIST*
%TA.AperFunction,ComponentPad*%
%ADD10C,1.700000*%
%TD*%
%TA.AperFunction,ComponentPad*%
%ADD11R,1.700000X1.700000*%
%TD*%
%TA.AperFunction,HeatsinkPad*%
%ADD12O,1.000000X1.800000*%
%TD*%
%TA.AperFunction,HeatsinkPad*%
%ADD13O,1.000000X2.100000*%
%TD*%
%TA.AperFunction,ViaPad*%
%ADD14C,0.550000*%
%TD*%
%TA.AperFunction,Conductor*%
%ADD15C,0.230000*%
%TD*%
%TA.AperFunction,Conductor*%
%ADD16C,0.220000*%
%TD*%
%TA.AperFunction,Conductor*%
%ADD17C,0.210000*%
%TD*%
%TA.AperFunction,Profile*%
%ADD18C,0.230000*%
%TD*%
G04 APERTURE END LIST*
D10*
%TO.N,/PA0-X1*%
%TO.C,J7*%
X156210000Y-134112000D03*
%TO.N,/PA1-X2*%
X156210000Y-131572000D03*
%TO.N,/PA2-X3*%
X156210000Y-129032000D03*
%TO.N,/PA3-X4*%
X156210000Y-126492000D03*
%TO.N,/PA4-X5*%
X156210000Y-123952000D03*
%TO.N,/PA5-X6*%
X156210000Y-121412000D03*
%TO.N,/PA6-X7*%
X156210000Y-118872000D03*
%TO.N,/PA7-X8*%
X156210000Y-116332000D03*
%TO.N,/PB10-Y9*%
X156210000Y-113792000D03*
%TO.N,/PB11-Y10*%
X156210000Y-111252000D03*
%TO.N,/PB0-Y11*%
X156210000Y-108712000D03*
%TO.N,/PB1-Y12*%
X156210000Y-106172000D03*
%TO.N,/RST-SW*%
X156210000Y-103632000D03*
%TO.N,GND*%
X156210000Y-101092000D03*
%TO.N,+3V3*%
X156210000Y-98552000D03*
D11*
%TO.N,V+*%
X156210000Y-96012000D03*
%TD*%
D10*
%TO.N,V+*%
%TO.C,J6*%
X128270000Y-134112000D03*
%TO.N,+3V3*%
X128270000Y-131572000D03*
%TO.N,GND*%
X128270000Y-129032000D03*
%TO.N,/RST-SW*%
X128270000Y-126492000D03*
%TO.N,/PC5-X12*%
X128270000Y-123952000D03*
%TO.N,/PC4-X11*%
X128270000Y-121412000D03*
%TO.N,/PB7-SDA-X10*%
X128270000Y-118872000D03*
%TO.N,/PB6-SCL-X9*%
X128270000Y-116332000D03*
%TO.N,/PB15-Y8*%
X128270000Y-113792000D03*
%TO.N,/PB14-Y7*%
X128270000Y-111252000D03*
%TO.N,/PB13-Y6*%
X128270000Y-108712000D03*
%TO.N,/PB12-Y5*%
X128270000Y-106172000D03*
%TO.N,/PB9-Y4*%
X128270000Y-103632000D03*
%TO.N,/PB8-Y3*%
X128270000Y-101092000D03*
%TO.N,/PC7-Y2*%
X128270000Y-98552000D03*
D11*
%TO.N,/PC6-Y1*%
X128270000Y-96012000D03*
%TD*%
D10*
%TO.N,/PA15-JTDI*%
%TO.C,J4*%
X147178000Y-108478000D03*
%TO.N,GND*%
X147178000Y-111018000D03*
%TO.N,/PB6-JTDO*%
X149718000Y-108478000D03*
%TO.N,/PB4-NJTRST*%
X149718000Y-111018000D03*
%TO.N,/PA14-JTCK*%
X152258000Y-108478000D03*
D11*
%TO.N,+3V3*%
X152258000Y-111018000D03*
%TD*%
D12*
%TO.N,Net-(J3-SHIELD)*%
%TO.C,J3*%
X138428000Y-96931000D03*
D13*
X138428000Y-101111000D03*
D12*
X147068000Y-96931000D03*
D13*
X147068000Y-101111000D03*
%TD*%
D14*
%TO.N,GND*%
X143408400Y-105714800D03*
X143713200Y-98602800D03*
X129844800Y-97688400D03*
X135939803Y-102980065D03*
X132334000Y-107950000D03*
X154889200Y-130454400D03*
X151384000Y-116179600D03*
%TO.N,VBUS*%
X148219742Y-98615491D03*
%TO.N,/PB12-Y5*%
X144272000Y-109980000D03*
%TO.N,/PB14-Y7*%
X144272000Y-114552000D03*
%TO.N,/PB1-Y12*%
X145796000Y-105664000D03*
X146125000Y-120267000D03*
%TO.N,/PB9-Y4*%
X135678000Y-106085000D03*
X138277600Y-124788025D03*
%TO.N,/PA0-X1*%
X146509481Y-131902481D03*
%TO.N,/PB13-Y6*%
X144272000Y-113536000D03*
%TO.N,/PB7-SDA-X10*%
X134620000Y-123507000D03*
%TO.N,/PB11-Y10*%
X154813000Y-117856000D03*
X149569961Y-119320493D03*
%TO.N,/PA1-X2*%
X146812000Y-131189000D03*
%TO.N,/PA4-X5*%
X146431000Y-124331000D03*
%TO.N,/PC4-X11*%
X146431000Y-122807000D03*
%TO.N,/PC6-Y1*%
X144018000Y-115314000D03*
%TO.N,/PB15-Y8*%
X144018000Y-118489000D03*
%TO.N,/PA2-X3*%
X146812000Y-130300000D03*
%TO.N,/PB0-Y11*%
X154686000Y-119126000D03*
X146335750Y-121124250D03*
%TO.N,/VDDA*%
X148082000Y-105509000D03*
X147955000Y-126746000D03*
%TO.N,/PB6-SCL-X9*%
X133139431Y-121061573D03*
%TO.N,/PC5-X12*%
X145542000Y-124206000D03*
%TO.N,/RST-SW*%
X154809563Y-106807000D03*
X140081000Y-108585000D03*
X140843000Y-126111000D03*
X135199832Y-108712000D03*
%TO.N,/PB8-Y3*%
X136593022Y-101364106D03*
X138176000Y-123317000D03*
%TO.N,/PC7-Y2*%
X141732000Y-98552000D03*
X142494000Y-115187000D03*
%TO.N,/PB10-Y9*%
X149527885Y-120228716D03*
X150114000Y-114046000D03*
%TO.N,GND*%
X131960510Y-121062966D03*
X141732000Y-96647000D03*
X146558000Y-125424534D03*
X139827000Y-123317000D03*
X129794000Y-112014000D03*
X135509000Y-107569000D03*
X149553234Y-112839991D03*
X137718800Y-130911600D03*
X154482800Y-127254000D03*
X147624800Y-134518400D03*
X140081000Y-103124000D03*
X130500000Y-128250000D03*
X150215600Y-102717600D03*
X143499446Y-107500000D03*
X131318000Y-95123000D03*
X129794000Y-104902000D03*
X149225000Y-127000000D03*
X144974638Y-108710383D03*
X145288000Y-120904000D03*
X151250000Y-127075000D03*
X140081000Y-121158000D03*
X146431000Y-118872000D03*
X132969000Y-113030000D03*
X141097000Y-107823000D03*
X153416000Y-112649000D03*
X153162000Y-107061000D03*
X151647912Y-104421942D03*
X143891000Y-111887000D03*
X141478000Y-110871000D03*
X136500000Y-111000000D03*
X129794000Y-117983000D03*
X132069548Y-124458000D03*
X151511000Y-125730000D03*
X146939000Y-103251000D03*
X134315200Y-96875600D03*
X154736800Y-123342400D03*
X153354000Y-117500400D03*
X143002000Y-125730000D03*
X135890000Y-114427000D03*
X138684000Y-107315000D03*
X139077797Y-130940660D03*
X139430000Y-110570799D03*
X135509000Y-116459000D03*
X151028681Y-122263533D03*
X154736800Y-125577600D03*
X130454400Y-134569200D03*
X149250000Y-100000000D03*
X131500000Y-130000000D03*
X135255000Y-119634000D03*
X144510583Y-95235447D03*
X135001000Y-100584000D03*
X130048000Y-125250000D03*
X142798800Y-132559777D03*
X146939000Y-128397000D03*
X134747000Y-125222000D03*
X129921000Y-102362000D03*
X130454400Y-132232400D03*
X145161000Y-132588000D03*
X142240000Y-129284000D03*
X140081000Y-105410000D03*
X138557000Y-125730000D03*
X132334000Y-100584000D03*
X130302000Y-114681000D03*
X137287000Y-128522000D03*
X139903200Y-134366000D03*
X154686000Y-134620000D03*
X141732000Y-120777000D03*
X149453600Y-95402400D03*
%TO.N,+3V3*%
X136271000Y-127506000D03*
X136548720Y-112312720D03*
X150114000Y-125855000D03*
X135199832Y-118616000D03*
X152096000Y-120142000D03*
X136601200Y-133348000D03*
X154025600Y-103632000D03*
X141478000Y-111885000D03*
X136588500Y-117475000D03*
X147079000Y-133361000D03*
X136588500Y-115187000D03*
%TO.N,VBUS*%
X148303066Y-99334043D03*
%TO.N,/PA14-JTCK*%
X144529617Y-119049000D03*
X138780000Y-119049000D03*
X147955000Y-127635000D03*
X145161000Y-109474000D03*
%TO.N,/PB6-JTDO*%
X147955000Y-129159000D03*
%TO.N,/PB4-NJTRST*%
X152643999Y-121869757D03*
X149987000Y-122174000D03*
X153142500Y-127107500D03*
X134620000Y-121537000D03*
%TO.N,/PA15-JTDI*%
X152273000Y-127075000D03*
X145161000Y-119634000D03*
X151943988Y-118547201D03*
X138684000Y-119888000D03*
%TO.N,/PB3-SW1*%
X134570000Y-120788666D03*
X135890000Y-101949106D03*
%TD*%
D15*
%TO.N,GND*%
X147178000Y-112329200D02*
X147218400Y-112369600D01*
X147178000Y-111018000D02*
X147178000Y-112329200D01*
D16*
%TO.N,/PB7-SDA-X10*%
X134620000Y-123507000D02*
X133985000Y-122872000D01*
X133985000Y-119634000D02*
X133221000Y-118870000D01*
X133221000Y-118870000D02*
X128270000Y-118870000D01*
X133985000Y-122872000D02*
X133985000Y-119634000D01*
D15*
%TO.N,/PB11-Y10*%
X154813000Y-112647000D02*
X156210000Y-111250000D01*
X154813000Y-117856000D02*
X154813000Y-112647000D01*
D16*
%TO.N,/PB10-Y9*%
X149527885Y-120228716D02*
X150122601Y-119634000D01*
X150122601Y-119634000D02*
X150122601Y-119596583D01*
X150155961Y-119563223D02*
X150155961Y-114087961D01*
X150155961Y-114087961D02*
X150114000Y-114046000D01*
X150122601Y-119596583D02*
X150155961Y-119563223D01*
D15*
%TO.N,/PA14-JTCK*%
X144526000Y-126873000D02*
X145288000Y-127635000D01*
X144526000Y-119684000D02*
X144526000Y-126873000D01*
X145288000Y-127635000D02*
X147955000Y-127635000D01*
X145161000Y-118417617D02*
X144529617Y-119049000D01*
X145161000Y-109474000D02*
X145161000Y-118417617D01*
X144529617Y-119680383D02*
X144526000Y-119684000D01*
X144529617Y-119049000D02*
X144529617Y-119680383D01*
%TO.N,/PB6-JTDO*%
X148425064Y-113291064D02*
X148425064Y-109770936D01*
X148590000Y-128524000D02*
X148590000Y-116840000D01*
X147955000Y-129159000D02*
X148590000Y-128524000D01*
X148425064Y-109770936D02*
X149718000Y-108478000D01*
X148590000Y-116840000D02*
X149053000Y-116377000D01*
X149053000Y-113919000D02*
X148425064Y-113291064D01*
X149053000Y-116377000D02*
X149053000Y-113919000D01*
D17*
%TO.N,/PB4-NJTRST*%
X150695000Y-111995000D02*
X149718000Y-111018000D01*
X149987000Y-122174000D02*
X150695000Y-121466000D01*
D15*
X152908000Y-122133758D02*
X152908000Y-126873000D01*
D17*
X150695000Y-121466000D02*
X150695000Y-111995000D01*
D15*
X152643999Y-121869757D02*
X152908000Y-122133758D01*
X152908000Y-126873000D02*
X153142500Y-127107500D01*
D17*
%TO.N,/PA15-JTDI*%
X145161000Y-119634000D02*
X145792000Y-119003000D01*
D16*
X151511000Y-118980189D02*
X151943988Y-118547201D01*
X152273000Y-122523000D02*
X151511000Y-121761000D01*
X152273000Y-127075000D02*
X152273000Y-122523000D01*
D17*
X145792000Y-119003000D02*
X145792000Y-109864000D01*
X145792000Y-109864000D02*
X147178000Y-108478000D01*
D16*
X151511000Y-121761000D02*
X151511000Y-118980189D01*
%TD*%
%TA.AperFunction,Conductor*%
%TO.N,GND*%
G36*
X146777901Y-111325007D02*
G01*
X146870993Y-111418099D01*
X146924045Y-111448729D01*
X146492874Y-111879901D01*
X146601474Y-111958802D01*
X146755751Y-112037411D01*
X146920411Y-112090913D01*
X147091428Y-112118000D01*
X147264572Y-112118000D01*
X147435588Y-112090913D01*
X147600248Y-112037411D01*
X147754529Y-111958801D01*
X147807332Y-111920438D01*
X147871400Y-111899621D01*
X147935469Y-111920438D01*
X147961027Y-111946588D01*
X147980400Y-111974578D01*
X147980400Y-112014000D01*
X148007684Y-112014000D01*
X148040191Y-112060967D01*
X148044798Y-112076336D01*
X148054229Y-112089317D01*
X148059564Y-112123000D01*
X148059564Y-113339182D01*
X148084471Y-113432141D01*
X148132589Y-113515483D01*
X148132591Y-113515486D01*
X148655576Y-114038471D01*
X148686158Y-114098493D01*
X148687500Y-114115544D01*
X148687500Y-116180455D01*
X148666683Y-116244524D01*
X148655575Y-116257530D01*
X148365578Y-116547527D01*
X148365577Y-116547526D01*
X148297526Y-116615578D01*
X148249407Y-116698922D01*
X148224500Y-116791881D01*
X148224500Y-126132123D01*
X148203683Y-126196192D01*
X148149183Y-126235788D01*
X148087289Y-126237409D01*
X148024183Y-126220500D01*
X147885817Y-126220500D01*
X147752164Y-126256311D01*
X147632337Y-126325493D01*
X147534493Y-126423337D01*
X147465311Y-126543164D01*
X147429500Y-126676817D01*
X147429500Y-126815182D01*
X147465311Y-126948835D01*
X147534493Y-127068662D01*
X147534495Y-127068665D01*
X147549257Y-127083427D01*
X147579839Y-127143449D01*
X147569301Y-127209985D01*
X147521666Y-127257620D01*
X147472181Y-127269500D01*
X145484545Y-127269500D01*
X145420476Y-127248683D01*
X145407470Y-127237575D01*
X144923425Y-126753530D01*
X144892842Y-126693506D01*
X144891500Y-126676455D01*
X144891500Y-124537095D01*
X144912317Y-124473026D01*
X144966817Y-124433430D01*
X145034183Y-124433430D01*
X145088683Y-124473026D01*
X145094897Y-124482596D01*
X145121492Y-124528661D01*
X145121493Y-124528662D01*
X145121495Y-124528665D01*
X145219335Y-124626505D01*
X145339164Y-124695688D01*
X145472817Y-124731500D01*
X145611183Y-124731500D01*
X145744836Y-124695688D01*
X145864665Y-124626505D01*
X145864665Y-124626504D01*
X145868498Y-124624292D01*
X145934392Y-124610286D01*
X145995933Y-124637686D01*
X146009471Y-124652330D01*
X146010493Y-124653662D01*
X146010495Y-124653665D01*
X146108335Y-124751505D01*
X146228164Y-124820688D01*
X146361817Y-124856500D01*
X146500183Y-124856500D01*
X146633836Y-124820688D01*
X146753665Y-124751505D01*
X146851505Y-124653665D01*
X146920688Y-124533836D01*
X146956500Y-124400183D01*
X146956500Y-124261817D01*
X146920688Y-124128164D01*
X146851505Y-124008335D01*
X146753665Y-123910495D01*
X146753662Y-123910493D01*
X146633835Y-123841311D01*
X146500183Y-123805500D01*
X146361817Y-123805500D01*
X146228163Y-123841312D01*
X146228161Y-123841312D01*
X146104500Y-123912707D01*
X146038606Y-123926713D01*
X145977065Y-123899312D01*
X145963527Y-123884667D01*
X145962507Y-123883338D01*
X145962506Y-123883337D01*
X145962505Y-123883335D01*
X145864665Y-123785495D01*
X145864591Y-123785452D01*
X145744835Y-123716311D01*
X145611183Y-123680500D01*
X145472817Y-123680500D01*
X145339164Y-123716311D01*
X145219337Y-123785493D01*
X145121493Y-123883337D01*
X145094897Y-123929404D01*
X145044834Y-123974480D01*
X144977838Y-123981522D01*
X144919497Y-123947839D01*
X144892097Y-123886298D01*
X144891500Y-123874904D01*
X144891500Y-122737817D01*
X145905500Y-122737817D01*
X145905500Y-122876182D01*
X145941311Y-123009835D01*
X146010493Y-123129662D01*
X146010495Y-123129665D01*
X146108335Y-123227505D01*
X146228164Y-123296688D01*
X146361817Y-123332500D01*
X146500183Y-123332500D01*
X146633836Y-123296688D01*
X146753665Y-123227505D01*
X146851505Y-123129665D01*
X146920688Y-123009836D01*
X146956500Y-122876183D01*
X146956500Y-122737817D01*
X146920688Y-122604164D01*
X146851505Y-122484335D01*
X146753665Y-122386495D01*
X146753662Y-122386493D01*
X146633835Y-122317311D01*
X146500183Y-122281500D01*
X146361817Y-122281500D01*
X146228164Y-122317311D01*
X146108337Y-122386493D01*
X146010493Y-122484337D01*
X145941311Y-122604164D01*
X145905500Y-122737817D01*
X144891500Y-122737817D01*
X144891500Y-120247876D01*
X144912317Y-120183807D01*
X144966817Y-120144211D01*
X145028708Y-120142590D01*
X145091817Y-120159500D01*
X145091819Y-120159500D01*
X145230183Y-120159500D01*
X145363836Y-120123688D01*
X145438233Y-120080734D01*
X145504126Y-120066728D01*
X145565668Y-120094128D01*
X145599351Y-120152468D01*
X145598364Y-120190461D01*
X145600432Y-120190734D01*
X145599500Y-120197813D01*
X145599500Y-120336182D01*
X145635311Y-120469835D01*
X145702281Y-120585830D01*
X145704495Y-120589665D01*
X145802335Y-120687505D01*
X145825492Y-120700874D01*
X145842018Y-120710416D01*
X145887094Y-120760479D01*
X145894136Y-120827475D01*
X145881915Y-120859312D01*
X145846062Y-120921411D01*
X145846062Y-120921413D01*
X145810250Y-121055067D01*
X145810250Y-121193432D01*
X145846061Y-121327085D01*
X145899242Y-121419197D01*
X145915245Y-121446915D01*
X146013085Y-121544755D01*
X146132914Y-121613938D01*
X146266567Y-121649750D01*
X146404933Y-121649750D01*
X146538586Y-121613938D01*
X146658415Y-121544755D01*
X146756255Y-121446915D01*
X146825438Y-121327086D01*
X146861250Y-121193433D01*
X146861250Y-121055067D01*
X146825438Y-120921414D01*
X146756255Y-120801585D01*
X146658415Y-120703745D01*
X146658412Y-120703743D01*
X146658411Y-120703742D01*
X146618730Y-120680832D01*
X146573654Y-120630770D01*
X146566613Y-120563773D01*
X146578835Y-120531936D01*
X146614686Y-120469840D01*
X146614686Y-120469839D01*
X146614688Y-120469836D01*
X146650500Y-120336183D01*
X146650500Y-120197817D01*
X146614688Y-120064164D01*
X146545505Y-119944335D01*
X146447665Y-119846495D01*
X146447662Y-119846493D01*
X146327835Y-119777311D01*
X146194183Y-119741500D01*
X146055817Y-119741500D01*
X145922163Y-119777312D01*
X145922161Y-119777312D01*
X145847765Y-119820265D01*
X145781872Y-119834271D01*
X145720330Y-119806870D01*
X145686648Y-119748530D01*
X145684322Y-119722364D01*
X145684725Y-119709803D01*
X145686500Y-119703183D01*
X145686500Y-119654639D01*
X145686556Y-119652898D01*
X145697424Y-119622778D01*
X145707317Y-119592333D01*
X145709211Y-119590114D01*
X145709422Y-119589532D01*
X145710105Y-119589068D01*
X145718419Y-119579333D01*
X146076471Y-119221282D01*
X146123274Y-119140218D01*
X146147500Y-119049803D01*
X146147500Y-118956197D01*
X146147500Y-111806539D01*
X146168317Y-111742470D01*
X146222817Y-111702874D01*
X146265711Y-111702874D01*
X146266002Y-111699182D01*
X146316096Y-111703124D01*
X146747269Y-111271950D01*
X146777901Y-111325007D01*
G37*
%TD.AperFunction*%
%TA.AperFunction,Conductor*%
G36*
X149272016Y-112025879D02*
G01*
X149295555Y-112037873D01*
X149368708Y-112061642D01*
X149460295Y-112091401D01*
X149460297Y-112091401D01*
X149460299Y-112091402D01*
X149631389Y-112118500D01*
X149631390Y-112118500D01*
X149804610Y-112118500D01*
X149804611Y-112118500D01*
X149975701Y-112091402D01*
X150022069Y-112076336D01*
X150144518Y-112036550D01*
X150144873Y-112037645D01*
X150169611Y-112035692D01*
X150198866Y-112031059D01*
X150202814Y-112033070D01*
X150207235Y-112032722D01*
X150258890Y-112061642D01*
X150307575Y-112110327D01*
X150338158Y-112170351D01*
X150339500Y-112187402D01*
X150339500Y-113420333D01*
X150318683Y-113484402D01*
X150264183Y-113523998D01*
X150202291Y-113525619D01*
X150183185Y-113520500D01*
X150183183Y-113520500D01*
X150044817Y-113520500D01*
X149911164Y-113556311D01*
X149791337Y-113625493D01*
X149693493Y-113723337D01*
X149624311Y-113843164D01*
X149622977Y-113848145D01*
X149586284Y-113904641D01*
X149523392Y-113928780D01*
X149458322Y-113911341D01*
X149415930Y-113858987D01*
X149412406Y-113848139D01*
X149393592Y-113777923D01*
X149393592Y-113777922D01*
X149345473Y-113694578D01*
X149277422Y-113626526D01*
X149277422Y-113626527D01*
X148822489Y-113171594D01*
X148791906Y-113111570D01*
X148790564Y-113094519D01*
X148790564Y-112123000D01*
X148811381Y-112058931D01*
X148865881Y-112019335D01*
X148899564Y-112014000D01*
X149222533Y-112014000D01*
X149272016Y-112025879D01*
G37*
%TD.AperFunction*%
%TA.AperFunction,Conductor*%
G36*
X146421671Y-109990006D02*
G01*
X146447235Y-109994250D01*
X146453121Y-110000225D01*
X146461099Y-110002817D01*
X146476329Y-110023779D01*
X146494514Y-110042237D01*
X146495764Y-110050530D01*
X146500695Y-110057317D01*
X146500695Y-110083230D01*
X146504558Y-110108850D01*
X146500695Y-110116294D01*
X146500695Y-110124683D01*
X146494696Y-110132938D01*
X146492874Y-110156096D01*
X146924047Y-110587270D01*
X146870993Y-110617901D01*
X146777901Y-110710993D01*
X146747269Y-110764047D01*
X146316096Y-110332874D01*
X146275018Y-110336107D01*
X146272752Y-110337241D01*
X146268848Y-110336592D01*
X146266002Y-110336817D01*
X146265946Y-110336111D01*
X146206295Y-110326209D01*
X146159016Y-110278222D01*
X146147500Y-110229459D01*
X146147500Y-110091000D01*
X146168317Y-110026931D01*
X146222817Y-109987335D01*
X146256500Y-109982000D01*
X146397030Y-109982000D01*
X146421671Y-109990006D01*
G37*
%TD.AperFunction*%
%TA.AperFunction,Conductor*%
G36*
X155659992Y-94633817D02*
G01*
X155699588Y-94688317D01*
X155704915Y-94720646D01*
X155705915Y-94801146D01*
X155685895Y-94865468D01*
X155631891Y-94905739D01*
X155596923Y-94911500D01*
X155335326Y-94911500D01*
X155262260Y-94926034D01*
X155179399Y-94981399D01*
X155124034Y-95064260D01*
X155109500Y-95137326D01*
X155109500Y-96886674D01*
X155124034Y-96959740D01*
X155179399Y-97042601D01*
X155262260Y-97097966D01*
X155335326Y-97112500D01*
X155335330Y-97112500D01*
X155626972Y-97112500D01*
X155691041Y-97133317D01*
X155730637Y-97187817D01*
X155735964Y-97220146D01*
X155739298Y-97488560D01*
X155719278Y-97552882D01*
X155679793Y-97587033D01*
X155633211Y-97610768D01*
X155493074Y-97712584D01*
X155370584Y-97835074D01*
X155268765Y-97975216D01*
X155268763Y-97975219D01*
X155265329Y-97981959D01*
X155265284Y-97982048D01*
X155234738Y-98042000D01*
X155194000Y-98042000D01*
X155194000Y-98121953D01*
X155190127Y-98129555D01*
X155186205Y-98141623D01*
X155186203Y-98141629D01*
X155136598Y-98294295D01*
X155109500Y-98465387D01*
X155109500Y-98638612D01*
X155136598Y-98809704D01*
X155188665Y-98969946D01*
X155194000Y-99003629D01*
X155194000Y-99947000D01*
X155194001Y-99947000D01*
X155580215Y-99947000D01*
X155644284Y-99967817D01*
X155683880Y-100022317D01*
X155683880Y-100089683D01*
X155644284Y-100144183D01*
X155636950Y-100148687D01*
X155637120Y-100148963D01*
X155633475Y-100151195D01*
X155524874Y-100230096D01*
X155776481Y-100481703D01*
X155780872Y-100835271D01*
X155779269Y-100838047D01*
X155348096Y-100406874D01*
X155269193Y-100515478D01*
X155190588Y-100669751D01*
X155137086Y-100834411D01*
X155110000Y-101005427D01*
X155110000Y-101178572D01*
X155137086Y-101349588D01*
X155190588Y-101514248D01*
X155269196Y-101668524D01*
X155348096Y-101777124D01*
X155779268Y-101345950D01*
X155787391Y-101360019D01*
X155791457Y-101687317D01*
X155524874Y-101953901D01*
X155636940Y-102035321D01*
X155635716Y-102037005D01*
X155674393Y-102082310D01*
X155679664Y-102149469D01*
X155644453Y-102206900D01*
X155582209Y-102232666D01*
X155573681Y-102233000D01*
X155194000Y-102233000D01*
X155194000Y-102233001D01*
X155194000Y-103180371D01*
X155188665Y-103214054D01*
X155136598Y-103374295D01*
X155109500Y-103545387D01*
X155109500Y-103718612D01*
X155136598Y-103889704D01*
X155188665Y-104049946D01*
X155194000Y-104083629D01*
X155194000Y-105720371D01*
X155188665Y-105754054D01*
X155136598Y-105914295D01*
X155109500Y-106085387D01*
X155109500Y-106201278D01*
X155088683Y-106265347D01*
X155034183Y-106304943D01*
X154972290Y-106306564D01*
X154878747Y-106281500D01*
X154878746Y-106281500D01*
X154740380Y-106281500D01*
X154606727Y-106317311D01*
X154486900Y-106386493D01*
X154389056Y-106484337D01*
X154319874Y-106604164D01*
X154284063Y-106737817D01*
X154284063Y-106876182D01*
X154319874Y-107009835D01*
X154319875Y-107009836D01*
X154389058Y-107129665D01*
X154486898Y-107227505D01*
X154606727Y-107296688D01*
X154740380Y-107332500D01*
X154878746Y-107332500D01*
X155012399Y-107296688D01*
X155030499Y-107286237D01*
X155096393Y-107272231D01*
X155157934Y-107299631D01*
X155191618Y-107357971D01*
X155194000Y-107380634D01*
X155194000Y-108260371D01*
X155188665Y-108294054D01*
X155136598Y-108454295D01*
X155109500Y-108625387D01*
X155109500Y-108798612D01*
X155136598Y-108969704D01*
X155188665Y-109129946D01*
X155194000Y-109163629D01*
X155194000Y-110800371D01*
X155188665Y-110834054D01*
X155136598Y-110994295D01*
X155109500Y-111165387D01*
X155109500Y-111338612D01*
X155136598Y-111509704D01*
X155188665Y-111669946D01*
X155194000Y-111703629D01*
X155194000Y-111703954D01*
X155173183Y-111768023D01*
X155162075Y-111781029D01*
X154588578Y-112354527D01*
X154588577Y-112354526D01*
X154520526Y-112422578D01*
X154472407Y-112505922D01*
X154447500Y-112598881D01*
X154447500Y-117433180D01*
X154426683Y-117497249D01*
X154415576Y-117510253D01*
X154392495Y-117533334D01*
X154323311Y-117653164D01*
X154287500Y-117786817D01*
X154287500Y-117925182D01*
X154323311Y-118058835D01*
X154385376Y-118166335D01*
X154392495Y-118178665D01*
X154490335Y-118276505D01*
X154610164Y-118345688D01*
X154743817Y-118381500D01*
X154882183Y-118381500D01*
X155015836Y-118345688D01*
X155025999Y-118339820D01*
X155053452Y-118333983D01*
X155080119Y-118325216D01*
X155085924Y-118327079D01*
X155091889Y-118325812D01*
X155117533Y-118337227D01*
X155144260Y-118345808D01*
X155147861Y-118350728D01*
X155153432Y-118353208D01*
X155167470Y-118377520D01*
X155184047Y-118400169D01*
X155184057Y-118406246D01*
X155187118Y-118411547D01*
X155184284Y-118467534D01*
X155184182Y-118467849D01*
X155136598Y-118614299D01*
X155136045Y-118617785D01*
X155133665Y-118625201D01*
X155116237Y-118649364D01*
X155100671Y-118674767D01*
X155096744Y-118676393D01*
X155094259Y-118679840D01*
X155065955Y-118689145D01*
X155038432Y-118700546D01*
X155034197Y-118699587D01*
X155030264Y-118700881D01*
X155007224Y-118693484D01*
X154975382Y-118686279D01*
X154888835Y-118636311D01*
X154755183Y-118600500D01*
X154616817Y-118600500D01*
X154483164Y-118636311D01*
X154363337Y-118705493D01*
X154265493Y-118803337D01*
X154196311Y-118923164D01*
X154160500Y-119056817D01*
X154160500Y-119195182D01*
X154196311Y-119328835D01*
X154265493Y-119448662D01*
X154265495Y-119448665D01*
X154363335Y-119546505D01*
X154483164Y-119615688D01*
X154616817Y-119651500D01*
X154755183Y-119651500D01*
X154888836Y-119615688D01*
X155008665Y-119546505D01*
X155008669Y-119546500D01*
X155014330Y-119542158D01*
X155015335Y-119543468D01*
X155067949Y-119516661D01*
X155134485Y-119527199D01*
X155182120Y-119574834D01*
X155194000Y-119624319D01*
X155194000Y-120960371D01*
X155188665Y-120994054D01*
X155136598Y-121154295D01*
X155109500Y-121325387D01*
X155109500Y-121498612D01*
X155136598Y-121669704D01*
X155188665Y-121829946D01*
X155194000Y-121863629D01*
X155194000Y-123500371D01*
X155188665Y-123534054D01*
X155136598Y-123694295D01*
X155109500Y-123865387D01*
X155109500Y-124038612D01*
X155136598Y-124209704D01*
X155188665Y-124369946D01*
X155194000Y-124403629D01*
X155194000Y-126040371D01*
X155188665Y-126074054D01*
X155136598Y-126234295D01*
X155109500Y-126405387D01*
X155109500Y-126578612D01*
X155136598Y-126749704D01*
X155188665Y-126909946D01*
X155194000Y-126943629D01*
X155194000Y-128580371D01*
X155188665Y-128614054D01*
X155136598Y-128774295D01*
X155109500Y-128945387D01*
X155109500Y-129118612D01*
X155136598Y-129289704D01*
X155188665Y-129449946D01*
X155194000Y-129483629D01*
X155194000Y-131120371D01*
X155188665Y-131154054D01*
X155136598Y-131314295D01*
X155109500Y-131485387D01*
X155109500Y-131658612D01*
X155136598Y-131829704D01*
X155188665Y-131989946D01*
X155194000Y-132023629D01*
X155194000Y-133660371D01*
X155188665Y-133694054D01*
X155136598Y-133854295D01*
X155109500Y-134025387D01*
X155109500Y-134198612D01*
X155136598Y-134369704D01*
X155188665Y-134529946D01*
X155194000Y-134563629D01*
X155194000Y-135398000D01*
X155173183Y-135462069D01*
X155118683Y-135501665D01*
X155085000Y-135507000D01*
X128887000Y-135507000D01*
X128822931Y-135486183D01*
X128783335Y-135431683D01*
X128778000Y-135398000D01*
X128778000Y-135155076D01*
X128783936Y-135136803D01*
X128784643Y-135117606D01*
X128793375Y-135107754D01*
X128798817Y-135091007D01*
X128826216Y-135064598D01*
X128831663Y-135060938D01*
X128846788Y-135053232D01*
X128891635Y-135020648D01*
X128893312Y-135019522D01*
X128923869Y-135010821D01*
X128954096Y-135001000D01*
X129359197Y-135001000D01*
X129359198Y-135001000D01*
X129359198Y-134278546D01*
X129360540Y-134261494D01*
X129370500Y-134198611D01*
X129370500Y-134025389D01*
X129360540Y-133962503D01*
X129359198Y-133945452D01*
X129359198Y-133278817D01*
X136075700Y-133278817D01*
X136075700Y-133417182D01*
X136111511Y-133550835D01*
X136174752Y-133660371D01*
X136180695Y-133670665D01*
X136278535Y-133768505D01*
X136398364Y-133837688D01*
X136532017Y-133873500D01*
X136670383Y-133873500D01*
X136804036Y-133837688D01*
X136923865Y-133768505D01*
X137021705Y-133670665D01*
X137090888Y-133550836D01*
X137126700Y-133417183D01*
X137126700Y-133291817D01*
X146553500Y-133291817D01*
X146553500Y-133430182D01*
X146589311Y-133563835D01*
X146658493Y-133683662D01*
X146658495Y-133683665D01*
X146756335Y-133781505D01*
X146876164Y-133850688D01*
X147009817Y-133886500D01*
X147148183Y-133886500D01*
X147281836Y-133850688D01*
X147401665Y-133781505D01*
X147499505Y-133683665D01*
X147568688Y-133563836D01*
X147604500Y-133430183D01*
X147604500Y-133291817D01*
X147568688Y-133158164D01*
X147499505Y-133038335D01*
X147401665Y-132940495D01*
X147401662Y-132940493D01*
X147281835Y-132871311D01*
X147148183Y-132835500D01*
X147009817Y-132835500D01*
X146876164Y-132871311D01*
X146756337Y-132940493D01*
X146658493Y-133038337D01*
X146589311Y-133158164D01*
X146553500Y-133291817D01*
X137126700Y-133291817D01*
X137126700Y-133278817D01*
X137090888Y-133145164D01*
X137021705Y-133025335D01*
X136923865Y-132927495D01*
X136826553Y-132871312D01*
X136804035Y-132858311D01*
X136670383Y-132822500D01*
X136532017Y-132822500D01*
X136398364Y-132858311D01*
X136278537Y-132927493D01*
X136180693Y-133025337D01*
X136111511Y-133145164D01*
X136075700Y-133278817D01*
X129359198Y-133278817D01*
X129359198Y-132713000D01*
X139446000Y-132713000D01*
X139446001Y-132713000D01*
X142493999Y-132713000D01*
X142494000Y-132713000D01*
X142494000Y-131833298D01*
X145983981Y-131833298D01*
X145983981Y-131971663D01*
X146019792Y-132105316D01*
X146019793Y-132105317D01*
X146088976Y-132225146D01*
X146186816Y-132322986D01*
X146306645Y-132392169D01*
X146440298Y-132427981D01*
X146578664Y-132427981D01*
X146712317Y-132392169D01*
X146832146Y-132322986D01*
X146929986Y-132225146D01*
X146999169Y-132105317D01*
X147034981Y-131971664D01*
X147034981Y-131833298D01*
X147018051Y-131770114D01*
X147021576Y-131702845D01*
X147063971Y-131650491D01*
X147068796Y-131647533D01*
X147134665Y-131609505D01*
X147232505Y-131511665D01*
X147301688Y-131391836D01*
X147337500Y-131258183D01*
X147337500Y-131119817D01*
X147301688Y-130986164D01*
X147232505Y-130866335D01*
X147187742Y-130821572D01*
X147157161Y-130761551D01*
X147167699Y-130695015D01*
X147187741Y-130667428D01*
X147232505Y-130622665D01*
X147301688Y-130502836D01*
X147337500Y-130369183D01*
X147337500Y-130230817D01*
X147301688Y-130097164D01*
X147232505Y-129977335D01*
X147134665Y-129879495D01*
X147134662Y-129879493D01*
X147014835Y-129810311D01*
X146881183Y-129774500D01*
X146742817Y-129774500D01*
X146609164Y-129810311D01*
X146489337Y-129879493D01*
X146391493Y-129977337D01*
X146322311Y-130097164D01*
X146286500Y-130230817D01*
X146286500Y-130369182D01*
X146322311Y-130502835D01*
X146322312Y-130502836D01*
X146391495Y-130622665D01*
X146436257Y-130667427D01*
X146466839Y-130727449D01*
X146456301Y-130793985D01*
X146436258Y-130821571D01*
X146402758Y-130855072D01*
X146391493Y-130866337D01*
X146322311Y-130986164D01*
X146286500Y-131119817D01*
X146286500Y-131258183D01*
X146303428Y-131321364D01*
X146299902Y-131388638D01*
X146257506Y-131440990D01*
X146252642Y-131443971D01*
X146186818Y-131481974D01*
X146088974Y-131579818D01*
X146019792Y-131699645D01*
X145983981Y-131833298D01*
X142494000Y-131833298D01*
X142494000Y-130300000D01*
X139446000Y-130300000D01*
X139446000Y-132713000D01*
X129359198Y-132713000D01*
X129359198Y-131951000D01*
X133223000Y-131951000D01*
X133223001Y-131951000D01*
X135000999Y-131951000D01*
X135001000Y-131951000D01*
X135001000Y-130300000D01*
X133223000Y-130300000D01*
X133223000Y-131951000D01*
X129359198Y-131951000D01*
X129359198Y-131738546D01*
X129360540Y-131721494D01*
X129370500Y-131658611D01*
X129370500Y-131485389D01*
X129360540Y-131422503D01*
X129359198Y-131405452D01*
X129359198Y-130429001D01*
X129359198Y-130429000D01*
X128887000Y-130429000D01*
X128870580Y-130423665D01*
X128853317Y-130423665D01*
X128839350Y-130413517D01*
X128822931Y-130408183D01*
X128812783Y-130394216D01*
X128798817Y-130384069D01*
X128793482Y-130367649D01*
X128783335Y-130353683D01*
X128778000Y-130320000D01*
X128778000Y-130074515D01*
X128798817Y-130010446D01*
X128837516Y-129977395D01*
X128846517Y-129972808D01*
X128846527Y-129972802D01*
X128955124Y-129893902D01*
X128955124Y-129893901D01*
X128778000Y-129716776D01*
X128778000Y-129363223D01*
X129131901Y-129717124D01*
X129131902Y-129717124D01*
X129210801Y-129608529D01*
X129289411Y-129454248D01*
X129342913Y-129289588D01*
X129370000Y-129118572D01*
X129370000Y-128945427D01*
X129342913Y-128774411D01*
X129289411Y-128609751D01*
X129210802Y-128455474D01*
X129131901Y-128346874D01*
X128778000Y-128700775D01*
X128778000Y-128347220D01*
X128955124Y-128170096D01*
X128846521Y-128091194D01*
X128837510Y-128086602D01*
X128789878Y-128038965D01*
X128778000Y-127989485D01*
X128778000Y-127744000D01*
X128798817Y-127679931D01*
X128853317Y-127640335D01*
X128887000Y-127635000D01*
X129359197Y-127635000D01*
X129359198Y-127635000D01*
X129359198Y-127436817D01*
X135745500Y-127436817D01*
X135745500Y-127575182D01*
X135781311Y-127708835D01*
X135850493Y-127828662D01*
X135850495Y-127828665D01*
X135948335Y-127926505D01*
X136068164Y-127995688D01*
X136201817Y-128031500D01*
X136340183Y-128031500D01*
X136473836Y-127995688D01*
X136593665Y-127926505D01*
X136691505Y-127828665D01*
X136760688Y-127708836D01*
X136796500Y-127575183D01*
X136796500Y-127436817D01*
X136760688Y-127303164D01*
X136691505Y-127183335D01*
X136593665Y-127085495D01*
X136590080Y-127083425D01*
X136473835Y-127016311D01*
X136340183Y-126980500D01*
X136201817Y-126980500D01*
X136068164Y-127016311D01*
X135948337Y-127085493D01*
X135850493Y-127183337D01*
X135781311Y-127303164D01*
X135745500Y-127436817D01*
X129359198Y-127436817D01*
X129359198Y-126658546D01*
X129360540Y-126641494D01*
X129364590Y-126615924D01*
X129370500Y-126578611D01*
X129370500Y-126405389D01*
X129360540Y-126342503D01*
X129359198Y-126325452D01*
X129359198Y-126041817D01*
X140317500Y-126041817D01*
X140317500Y-126180182D01*
X140353311Y-126313835D01*
X140406170Y-126405389D01*
X140422495Y-126433665D01*
X140520335Y-126531505D01*
X140640164Y-126600688D01*
X140773817Y-126636500D01*
X140912183Y-126636500D01*
X141045836Y-126600688D01*
X141165665Y-126531505D01*
X141263505Y-126433665D01*
X141332688Y-126313836D01*
X141368500Y-126180183D01*
X141368500Y-126041817D01*
X141332688Y-125908164D01*
X141263505Y-125788335D01*
X141165665Y-125690495D01*
X141165662Y-125690493D01*
X141045835Y-125621311D01*
X140912183Y-125585500D01*
X140773817Y-125585500D01*
X140640164Y-125621311D01*
X140520337Y-125690493D01*
X140422493Y-125788337D01*
X140353311Y-125908164D01*
X140317500Y-126041817D01*
X129359198Y-126041817D01*
X129359198Y-124718842D01*
X137752100Y-124718842D01*
X137752100Y-124857207D01*
X137787911Y-124990860D01*
X137787912Y-124990861D01*
X137857095Y-125110690D01*
X137954935Y-125208530D01*
X138074764Y-125277713D01*
X138208417Y-125313525D01*
X138346783Y-125313525D01*
X138480436Y-125277713D01*
X138600265Y-125208530D01*
X138698105Y-125110690D01*
X138767288Y-124990861D01*
X138803100Y-124857208D01*
X138803100Y-124718842D01*
X138767288Y-124585189D01*
X138698105Y-124465360D01*
X138600265Y-124367520D01*
X138600262Y-124367518D01*
X138480435Y-124298336D01*
X138346783Y-124262525D01*
X138208417Y-124262525D01*
X138074764Y-124298336D01*
X137954937Y-124367518D01*
X137857093Y-124465362D01*
X137787911Y-124585189D01*
X137752100Y-124718842D01*
X129359198Y-124718842D01*
X129359198Y-124118546D01*
X129360540Y-124101494D01*
X129370500Y-124038611D01*
X129370500Y-123865389D01*
X129360540Y-123802503D01*
X129359198Y-123785452D01*
X129359198Y-121578546D01*
X129360540Y-121561494D01*
X129363191Y-121544756D01*
X129370500Y-121498611D01*
X129370500Y-121325389D01*
X129360540Y-121262503D01*
X129359198Y-121245452D01*
X129359198Y-119339500D01*
X129380015Y-119275431D01*
X129434515Y-119235835D01*
X129468198Y-119230500D01*
X133026526Y-119230500D01*
X133090595Y-119251317D01*
X133103601Y-119262425D01*
X133592575Y-119751399D01*
X133623158Y-119811423D01*
X133624500Y-119828474D01*
X133624500Y-120546038D01*
X133603683Y-120610107D01*
X133549183Y-120649703D01*
X133481817Y-120649703D01*
X133461000Y-120640435D01*
X133342266Y-120571884D01*
X133208614Y-120536073D01*
X133070248Y-120536073D01*
X132936595Y-120571884D01*
X132816768Y-120641066D01*
X132718924Y-120738910D01*
X132649742Y-120858737D01*
X132613931Y-120992390D01*
X132613931Y-121130755D01*
X132649742Y-121264408D01*
X132716518Y-121380068D01*
X132718926Y-121384238D01*
X132816766Y-121482078D01*
X132936595Y-121551261D01*
X133070248Y-121587073D01*
X133208614Y-121587073D01*
X133342267Y-121551261D01*
X133461002Y-121482709D01*
X133526893Y-121468704D01*
X133588435Y-121496104D01*
X133622118Y-121554444D01*
X133624500Y-121577107D01*
X133624500Y-122919460D01*
X133649067Y-123011148D01*
X133649066Y-123011148D01*
X133690168Y-123082336D01*
X133696528Y-123093352D01*
X134062576Y-123459400D01*
X134093158Y-123519422D01*
X134094500Y-123536473D01*
X134094500Y-123576182D01*
X134130311Y-123709835D01*
X134178921Y-123794030D01*
X134199495Y-123829665D01*
X134297335Y-123927505D01*
X134417164Y-123996688D01*
X134550817Y-124032500D01*
X134689183Y-124032500D01*
X134822836Y-123996688D01*
X134942665Y-123927505D01*
X135040505Y-123829665D01*
X135109688Y-123709836D01*
X135145500Y-123576183D01*
X135145500Y-123437817D01*
X135109688Y-123304164D01*
X135077156Y-123247817D01*
X137650500Y-123247817D01*
X137650500Y-123386182D01*
X137686311Y-123519835D01*
X137755493Y-123639662D01*
X137755495Y-123639665D01*
X137853335Y-123737505D01*
X137973164Y-123806688D01*
X138106817Y-123842500D01*
X138245183Y-123842500D01*
X138378836Y-123806688D01*
X138498665Y-123737505D01*
X138596505Y-123639665D01*
X138665688Y-123519836D01*
X138701500Y-123386183D01*
X138701500Y-123247817D01*
X138665688Y-123114164D01*
X138596505Y-122994335D01*
X138498665Y-122896495D01*
X138498662Y-122896493D01*
X138378835Y-122827311D01*
X138245183Y-122791500D01*
X138106817Y-122791500D01*
X137973164Y-122827311D01*
X137853337Y-122896493D01*
X137755493Y-122994337D01*
X137686311Y-123114164D01*
X137650500Y-123247817D01*
X135077156Y-123247817D01*
X135040505Y-123184335D01*
X134942665Y-123086495D01*
X134942662Y-123086493D01*
X134822835Y-123017311D01*
X134689183Y-122981500D01*
X134649474Y-122981500D01*
X134585405Y-122960683D01*
X134572399Y-122949575D01*
X134377425Y-122754601D01*
X134346842Y-122694577D01*
X134345500Y-122677526D01*
X134345500Y-122149537D01*
X134366317Y-122085468D01*
X134420817Y-122045872D01*
X134482710Y-122044251D01*
X134550817Y-122062500D01*
X134689183Y-122062500D01*
X134822836Y-122026688D01*
X134942665Y-121957505D01*
X135040505Y-121859665D01*
X135109688Y-121739836D01*
X135145500Y-121606183D01*
X135145500Y-121467817D01*
X135109688Y-121334164D01*
X135040505Y-121214335D01*
X135030243Y-121204073D01*
X134999662Y-121144052D01*
X135010200Y-121077516D01*
X135012923Y-121072501D01*
X135059688Y-120991502D01*
X135095500Y-120857849D01*
X135095500Y-120719483D01*
X135059688Y-120585830D01*
X134990505Y-120466001D01*
X134892665Y-120368161D01*
X134852265Y-120344836D01*
X134772835Y-120298977D01*
X134639183Y-120263166D01*
X134500817Y-120263166D01*
X134482709Y-120268018D01*
X134415436Y-120264490D01*
X134363084Y-120222095D01*
X134345500Y-120162731D01*
X134345500Y-119818817D01*
X138158500Y-119818817D01*
X138158500Y-119957182D01*
X138194311Y-120090835D01*
X138251607Y-120190075D01*
X138263495Y-120210665D01*
X138361335Y-120308505D01*
X138481164Y-120377688D01*
X138614817Y-120413500D01*
X138753183Y-120413500D01*
X138886836Y-120377688D01*
X139006665Y-120308505D01*
X139104505Y-120210665D01*
X139173688Y-120090836D01*
X139209500Y-119957183D01*
X139209500Y-119818817D01*
X139173688Y-119685164D01*
X139110573Y-119575846D01*
X139096568Y-119509955D01*
X139123968Y-119448413D01*
X139127877Y-119444292D01*
X139200505Y-119371665D01*
X139269688Y-119251836D01*
X139305500Y-119118183D01*
X139305500Y-118979817D01*
X139269688Y-118846164D01*
X139200505Y-118726335D01*
X139102665Y-118628495D01*
X139082319Y-118616748D01*
X138982835Y-118559311D01*
X138849183Y-118523500D01*
X138710817Y-118523500D01*
X138577164Y-118559311D01*
X138457337Y-118628493D01*
X138359493Y-118726337D01*
X138290311Y-118846164D01*
X138260829Y-118956197D01*
X138254500Y-118979817D01*
X138254500Y-119118183D01*
X138257536Y-119129513D01*
X138290311Y-119251835D01*
X138353425Y-119361152D01*
X138367431Y-119427046D01*
X138340030Y-119488588D01*
X138336103Y-119492726D01*
X138263494Y-119565334D01*
X138194311Y-119685164D01*
X138158500Y-119818817D01*
X134345500Y-119818817D01*
X134345500Y-119586539D01*
X134342364Y-119574834D01*
X134320933Y-119494852D01*
X134320932Y-119494851D01*
X134320933Y-119494851D01*
X134297790Y-119454768D01*
X134273472Y-119412648D01*
X134250500Y-119389676D01*
X134206352Y-119345527D01*
X134206352Y-119345528D01*
X133442352Y-118581528D01*
X133382231Y-118546817D01*
X134674332Y-118546817D01*
X134674332Y-118685183D01*
X134678538Y-118700881D01*
X134710143Y-118818835D01*
X134774031Y-118929492D01*
X134779327Y-118938665D01*
X134877167Y-119036505D01*
X134996996Y-119105688D01*
X135130649Y-119141500D01*
X135269015Y-119141500D01*
X135402668Y-119105688D01*
X135522497Y-119036505D01*
X135620337Y-118938665D01*
X135689520Y-118818836D01*
X135725332Y-118685183D01*
X135725332Y-118546817D01*
X135689520Y-118413164D01*
X135620337Y-118293335D01*
X135522497Y-118195495D01*
X135522494Y-118195493D01*
X135402667Y-118126311D01*
X135269015Y-118090500D01*
X135130649Y-118090500D01*
X134996996Y-118126311D01*
X134877169Y-118195493D01*
X134779325Y-118293337D01*
X134710143Y-118413164D01*
X134681994Y-118518221D01*
X134674332Y-118546817D01*
X133382231Y-118546817D01*
X133360148Y-118534067D01*
X133268461Y-118509500D01*
X129468198Y-118509500D01*
X129404129Y-118488683D01*
X129364533Y-118434183D01*
X129359198Y-118400500D01*
X129359198Y-117405817D01*
X136063000Y-117405817D01*
X136063000Y-117544182D01*
X136098811Y-117677835D01*
X136098812Y-117677836D01*
X136167995Y-117797665D01*
X136265835Y-117895505D01*
X136385664Y-117964688D01*
X136519317Y-118000500D01*
X136657683Y-118000500D01*
X136791336Y-117964688D01*
X136911165Y-117895505D01*
X137009005Y-117797665D01*
X137078188Y-117677836D01*
X137114000Y-117544183D01*
X137114000Y-117405817D01*
X137078188Y-117272164D01*
X137009005Y-117152335D01*
X136911165Y-117054495D01*
X136880073Y-117036544D01*
X136791335Y-116985311D01*
X136657683Y-116949500D01*
X136519317Y-116949500D01*
X136385664Y-116985311D01*
X136265837Y-117054493D01*
X136167993Y-117152337D01*
X136098811Y-117272164D01*
X136063000Y-117405817D01*
X129359198Y-117405817D01*
X129359198Y-116498546D01*
X129360540Y-116481494D01*
X129370500Y-116418611D01*
X129370500Y-116245389D01*
X129360540Y-116182503D01*
X129359198Y-116165452D01*
X129359198Y-115117817D01*
X136063000Y-115117817D01*
X136063000Y-115256182D01*
X136098811Y-115389835D01*
X136158134Y-115492586D01*
X136167995Y-115509665D01*
X136265835Y-115607505D01*
X136385664Y-115676688D01*
X136519317Y-115712500D01*
X136657683Y-115712500D01*
X136791336Y-115676688D01*
X136911165Y-115607505D01*
X137009005Y-115509665D01*
X137078188Y-115389836D01*
X137114000Y-115256183D01*
X137114000Y-115117817D01*
X141968500Y-115117817D01*
X141968500Y-115256182D01*
X142004311Y-115389835D01*
X142063634Y-115492586D01*
X142073495Y-115509665D01*
X142171335Y-115607505D01*
X142291164Y-115676688D01*
X142424817Y-115712500D01*
X142563183Y-115712500D01*
X142696836Y-115676688D01*
X142816665Y-115607505D01*
X142914505Y-115509665D01*
X142983688Y-115389836D01*
X143019500Y-115256183D01*
X143019500Y-115244817D01*
X143492500Y-115244817D01*
X143492500Y-115383183D01*
X143494283Y-115389836D01*
X143528311Y-115516835D01*
X143580660Y-115607506D01*
X143597495Y-115636665D01*
X143695335Y-115734505D01*
X143815164Y-115803688D01*
X143948817Y-115839500D01*
X144087183Y-115839500D01*
X144220836Y-115803688D01*
X144340665Y-115734505D01*
X144438505Y-115636665D01*
X144507688Y-115516836D01*
X144543500Y-115383183D01*
X144543500Y-115244817D01*
X144508812Y-115115358D01*
X144510439Y-115084307D01*
X144510517Y-115053206D01*
X144512176Y-115051161D01*
X144512338Y-115048085D01*
X144550249Y-114998805D01*
X144554764Y-114995541D01*
X144594665Y-114972505D01*
X144615588Y-114951581D01*
X144622651Y-114946477D01*
X144646821Y-114938689D01*
X144669449Y-114927161D01*
X144678270Y-114928558D01*
X144686772Y-114925819D01*
X144710903Y-114933726D01*
X144735985Y-114937699D01*
X144742300Y-114944014D01*
X144750788Y-114946796D01*
X144765662Y-114967376D01*
X144783620Y-114985334D01*
X144786096Y-114995649D01*
X144790249Y-115001395D01*
X144790220Y-115012827D01*
X144795500Y-115034819D01*
X144795500Y-118221071D01*
X144774683Y-118285140D01*
X144763574Y-118298146D01*
X144697791Y-118363928D01*
X144637768Y-118394511D01*
X144571231Y-118383972D01*
X144523597Y-118336337D01*
X144515433Y-118315071D01*
X144507688Y-118286164D01*
X144502111Y-118276505D01*
X144438506Y-118166337D01*
X144438505Y-118166335D01*
X144340665Y-118068495D01*
X144340662Y-118068493D01*
X144220835Y-117999311D01*
X144087183Y-117963500D01*
X143948817Y-117963500D01*
X143815164Y-117999311D01*
X143695337Y-118068493D01*
X143597493Y-118166337D01*
X143528311Y-118286164D01*
X143497676Y-118400500D01*
X143492500Y-118419817D01*
X143492500Y-118558183D01*
X143492803Y-118559312D01*
X143528311Y-118691835D01*
X143592687Y-118803337D01*
X143597495Y-118811665D01*
X143695335Y-118909505D01*
X143815164Y-118978688D01*
X143923328Y-119007670D01*
X143979826Y-119044360D01*
X144003968Y-119107251D01*
X144004117Y-119112956D01*
X144004117Y-119118183D01*
X144007153Y-119129513D01*
X144039928Y-119251835D01*
X144094021Y-119345527D01*
X144109112Y-119371665D01*
X144132193Y-119394746D01*
X144136184Y-119402580D01*
X144143300Y-119407750D01*
X144151187Y-119432025D01*
X144162775Y-119454768D01*
X144164117Y-119471819D01*
X144164117Y-119608032D01*
X144161383Y-119628791D01*
X144161432Y-119628798D01*
X144160500Y-119635877D01*
X144160500Y-119635881D01*
X144160500Y-126824881D01*
X144160500Y-126921119D01*
X144166531Y-126943629D01*
X144185407Y-127014077D01*
X144226641Y-127085495D01*
X144233527Y-127097422D01*
X144995527Y-127859422D01*
X144995526Y-127859422D01*
X145062610Y-127926505D01*
X145063578Y-127927473D01*
X145146922Y-127975592D01*
X145239881Y-128000500D01*
X147532181Y-128000500D01*
X147596250Y-128021317D01*
X147609249Y-128032419D01*
X147632335Y-128055505D01*
X147752164Y-128124688D01*
X147885817Y-128160500D01*
X148024181Y-128160500D01*
X148024183Y-128160500D01*
X148087291Y-128143590D01*
X148118224Y-128145211D01*
X148149183Y-128145211D01*
X148151589Y-128146959D01*
X148154561Y-128147115D01*
X148178626Y-128166602D01*
X148203683Y-128184807D01*
X148204602Y-128187637D01*
X148206915Y-128189510D01*
X148224500Y-128248876D01*
X148224500Y-128327455D01*
X148203683Y-128391524D01*
X148192575Y-128404530D01*
X147995530Y-128601575D01*
X147935506Y-128632158D01*
X147918455Y-128633500D01*
X147885817Y-128633500D01*
X147752164Y-128669311D01*
X147632337Y-128738493D01*
X147534493Y-128836337D01*
X147465311Y-128956164D01*
X147429500Y-129089817D01*
X147429500Y-129228182D01*
X147465311Y-129361835D01*
X147523168Y-129462046D01*
X147534495Y-129481665D01*
X147632335Y-129579505D01*
X147752164Y-129648688D01*
X147885817Y-129684500D01*
X148024183Y-129684500D01*
X148157836Y-129648688D01*
X148277665Y-129579505D01*
X148375505Y-129481665D01*
X148444688Y-129361836D01*
X148480500Y-129228183D01*
X148480500Y-129195544D01*
X148501317Y-129131475D01*
X148512419Y-129118475D01*
X148882473Y-128748422D01*
X148888204Y-128738495D01*
X148930592Y-128665078D01*
X148955500Y-128572119D01*
X148955500Y-125785817D01*
X149588500Y-125785817D01*
X149588500Y-125924182D01*
X149624311Y-126057835D01*
X149624312Y-126057836D01*
X149693495Y-126177665D01*
X149791335Y-126275505D01*
X149911164Y-126344688D01*
X150044817Y-126380500D01*
X150183183Y-126380500D01*
X150316836Y-126344688D01*
X150436665Y-126275505D01*
X150534505Y-126177665D01*
X150603688Y-126057836D01*
X150639500Y-125924183D01*
X150639500Y-125785817D01*
X150603688Y-125652164D01*
X150534505Y-125532335D01*
X150436665Y-125434495D01*
X150436662Y-125434493D01*
X150316835Y-125365311D01*
X150183183Y-125329500D01*
X150044817Y-125329500D01*
X149911164Y-125365311D01*
X149791337Y-125434493D01*
X149693493Y-125532337D01*
X149624311Y-125652164D01*
X149588500Y-125785817D01*
X148955500Y-125785817D01*
X148955500Y-120662649D01*
X148976317Y-120598581D01*
X149030817Y-120558985D01*
X149098183Y-120558985D01*
X149141572Y-120585573D01*
X149205220Y-120649221D01*
X149325049Y-120718404D01*
X149458702Y-120754216D01*
X149597068Y-120754216D01*
X149730721Y-120718404D01*
X149850550Y-120649221D01*
X149948390Y-120551381D01*
X150017573Y-120431552D01*
X150053385Y-120297899D01*
X150053385Y-120258190D01*
X150056102Y-120249825D01*
X150054727Y-120241139D01*
X150066314Y-120218396D01*
X150074202Y-120194121D01*
X150085310Y-120181115D01*
X150153425Y-120113000D01*
X150213449Y-120082417D01*
X150279985Y-120092955D01*
X150327620Y-120140590D01*
X150339500Y-120190075D01*
X150339500Y-121273597D01*
X150318683Y-121337666D01*
X150307575Y-121350672D01*
X150041672Y-121616575D01*
X149981648Y-121647158D01*
X149964597Y-121648500D01*
X149917817Y-121648500D01*
X149784164Y-121684311D01*
X149664337Y-121753493D01*
X149566493Y-121851337D01*
X149497311Y-121971164D01*
X149466639Y-122085639D01*
X149461500Y-122104817D01*
X149461500Y-122243183D01*
X149471095Y-122278994D01*
X149497311Y-122376835D01*
X149559376Y-122484335D01*
X149566495Y-122496665D01*
X149664335Y-122594505D01*
X149784164Y-122663688D01*
X149917817Y-122699500D01*
X150056183Y-122699500D01*
X150189836Y-122663688D01*
X150309665Y-122594505D01*
X150407505Y-122496665D01*
X150476688Y-122376836D01*
X150512500Y-122243183D01*
X150512500Y-122196402D01*
X150533317Y-122132333D01*
X150544419Y-122119333D01*
X150964427Y-121699325D01*
X151024449Y-121668744D01*
X151090985Y-121679282D01*
X151138620Y-121726917D01*
X151150500Y-121776402D01*
X151150500Y-121808461D01*
X151163955Y-121858675D01*
X151175067Y-121900148D01*
X151175066Y-121900148D01*
X151208182Y-121957505D01*
X151222528Y-121982352D01*
X151880576Y-122640400D01*
X151911158Y-122700422D01*
X151912500Y-122717473D01*
X151912500Y-126647180D01*
X151891683Y-126711249D01*
X151880576Y-126724253D01*
X151852495Y-126752334D01*
X151783311Y-126872164D01*
X151747500Y-127005817D01*
X151747500Y-127144182D01*
X151783311Y-127277835D01*
X151814245Y-127331414D01*
X151852495Y-127397665D01*
X151950335Y-127495505D01*
X152070164Y-127564688D01*
X152203817Y-127600500D01*
X152342183Y-127600500D01*
X152475836Y-127564688D01*
X152595665Y-127495505D01*
X152614425Y-127476744D01*
X152674445Y-127446161D01*
X152740982Y-127456698D01*
X152768573Y-127476744D01*
X152819834Y-127528004D01*
X152819835Y-127528005D01*
X152939664Y-127597188D01*
X153073317Y-127633000D01*
X153211683Y-127633000D01*
X153345336Y-127597188D01*
X153465165Y-127528005D01*
X153563005Y-127430165D01*
X153632188Y-127310336D01*
X153668000Y-127176683D01*
X153668000Y-127038317D01*
X153632188Y-126904664D01*
X153563005Y-126784835D01*
X153465165Y-126686995D01*
X153345336Y-126617812D01*
X153345335Y-126617811D01*
X153345332Y-126617810D01*
X153340780Y-126615924D01*
X153289558Y-126572170D01*
X153273500Y-126515224D01*
X153273500Y-122085639D01*
X153248592Y-121992680D01*
X153228284Y-121957506D01*
X153200473Y-121909336D01*
X153200472Y-121909335D01*
X153196126Y-121903671D01*
X153197509Y-121902609D01*
X153170839Y-121850250D01*
X153169499Y-121833212D01*
X153169499Y-121800574D01*
X153133687Y-121666921D01*
X153087587Y-121587073D01*
X153064504Y-121547092D01*
X152966664Y-121449252D01*
X152966661Y-121449250D01*
X152846834Y-121380068D01*
X152713182Y-121344257D01*
X152574816Y-121344257D01*
X152441163Y-121380068D01*
X152321336Y-121449250D01*
X152223492Y-121547094D01*
X152154310Y-121666922D01*
X152151577Y-121673521D01*
X152149487Y-121672655D01*
X152148739Y-121673806D01*
X152146918Y-121685309D01*
X152130802Y-121701424D01*
X152118390Y-121720536D01*
X152107518Y-121724708D01*
X152099283Y-121732944D01*
X152076773Y-121736509D01*
X152055498Y-121744675D01*
X152044248Y-121741660D01*
X152032747Y-121743482D01*
X152012442Y-121733136D01*
X151990428Y-121727237D01*
X151972723Y-121712899D01*
X151903425Y-121643601D01*
X151872842Y-121583577D01*
X151871500Y-121566526D01*
X151871500Y-120767934D01*
X151892317Y-120703865D01*
X151946817Y-120664269D01*
X152008713Y-120662649D01*
X152012742Y-120663728D01*
X152026816Y-120667500D01*
X152026817Y-120667500D01*
X152165183Y-120667500D01*
X152298836Y-120631688D01*
X152418665Y-120562505D01*
X152516505Y-120464665D01*
X152585688Y-120344836D01*
X152621500Y-120211183D01*
X152621500Y-120072817D01*
X152585688Y-119939164D01*
X152516505Y-119819335D01*
X152418665Y-119721495D01*
X152418662Y-119721493D01*
X152298835Y-119652311D01*
X152165183Y-119616500D01*
X152026817Y-119616500D01*
X152008709Y-119621352D01*
X151941436Y-119617824D01*
X151889084Y-119575429D01*
X151871500Y-119516065D01*
X151871500Y-119181701D01*
X151892317Y-119117632D01*
X151946817Y-119078036D01*
X151980500Y-119072701D01*
X152013171Y-119072701D01*
X152146824Y-119036889D01*
X152266653Y-118967706D01*
X152364493Y-118869866D01*
X152433676Y-118750037D01*
X152469488Y-118616384D01*
X152469488Y-118478018D01*
X152433676Y-118344365D01*
X152364493Y-118224536D01*
X152266653Y-118126696D01*
X152265988Y-118126312D01*
X152146823Y-118057512D01*
X152013171Y-118021701D01*
X151874805Y-118021701D01*
X151741152Y-118057512D01*
X151621325Y-118126694D01*
X151523481Y-118224538D01*
X151454299Y-118344365D01*
X151418488Y-118478018D01*
X151418488Y-118517727D01*
X151415770Y-118526091D01*
X151417146Y-118534778D01*
X151405558Y-118557520D01*
X151397671Y-118581796D01*
X151386563Y-118594802D01*
X151236575Y-118744790D01*
X151176551Y-118775373D01*
X151110015Y-118764835D01*
X151062380Y-118717200D01*
X151050500Y-118667715D01*
X151050500Y-112134325D01*
X151071317Y-112070256D01*
X151125817Y-112030660D01*
X151193183Y-112030660D01*
X151220057Y-112043695D01*
X151227398Y-112048600D01*
X151227399Y-112048601D01*
X151246917Y-112061642D01*
X151310258Y-112103965D01*
X151310260Y-112103966D01*
X151383326Y-112118500D01*
X151383330Y-112118500D01*
X153132670Y-112118500D01*
X153132674Y-112118500D01*
X153205740Y-112103966D01*
X153288601Y-112048601D01*
X153343966Y-111965740D01*
X153358500Y-111892674D01*
X153358500Y-111862650D01*
X153379317Y-111798581D01*
X153390425Y-111785575D01*
X153416000Y-111760000D01*
X153416000Y-107442001D01*
X153416000Y-107442000D01*
X153415999Y-107442000D01*
X152648076Y-107442000D01*
X152614393Y-107436665D01*
X152515704Y-107404598D01*
X152515705Y-107404598D01*
X152344612Y-107377500D01*
X152344611Y-107377500D01*
X152171389Y-107377500D01*
X152171387Y-107377500D01*
X152000295Y-107404598D01*
X151901607Y-107436665D01*
X151867924Y-107442000D01*
X150108076Y-107442000D01*
X150074393Y-107436665D01*
X149975704Y-107404598D01*
X149975705Y-107404598D01*
X149804612Y-107377500D01*
X149804611Y-107377500D01*
X149631389Y-107377500D01*
X149631387Y-107377500D01*
X149460295Y-107404598D01*
X149361607Y-107436665D01*
X149327924Y-107442000D01*
X147568076Y-107442000D01*
X147534393Y-107436665D01*
X147435704Y-107404598D01*
X147435705Y-107404598D01*
X147264612Y-107377500D01*
X147264611Y-107377500D01*
X147091389Y-107377500D01*
X147091387Y-107377500D01*
X146920295Y-107404598D01*
X146821607Y-107436665D01*
X146787924Y-107442000D01*
X145923000Y-107442000D01*
X145923000Y-107442001D01*
X145923000Y-109185097D01*
X145920282Y-109193461D01*
X145921658Y-109202149D01*
X145910070Y-109224889D01*
X145902183Y-109249166D01*
X145891074Y-109262172D01*
X145833084Y-109320161D01*
X145773060Y-109350744D01*
X145706524Y-109340205D01*
X145658890Y-109292570D01*
X145650725Y-109271301D01*
X145650688Y-109271165D01*
X145650688Y-109271164D01*
X145581505Y-109151335D01*
X145483665Y-109053495D01*
X145483662Y-109053493D01*
X145363835Y-108984311D01*
X145230183Y-108948500D01*
X145091817Y-108948500D01*
X144958164Y-108984311D01*
X144838337Y-109053493D01*
X144740493Y-109151337D01*
X144671311Y-109271164D01*
X144635499Y-109404818D01*
X144634982Y-109408749D01*
X144633760Y-109411309D01*
X144633651Y-109411718D01*
X144633575Y-109411697D01*
X144605977Y-109469551D01*
X144546774Y-109501693D01*
X144479985Y-109492897D01*
X144475944Y-109490770D01*
X144474836Y-109490312D01*
X144341183Y-109454500D01*
X144202817Y-109454500D01*
X144069164Y-109490311D01*
X143949337Y-109559493D01*
X143851493Y-109657337D01*
X143782311Y-109777164D01*
X143767417Y-109832752D01*
X143746500Y-109910817D01*
X143746500Y-110049183D01*
X143755623Y-110083230D01*
X143782311Y-110182835D01*
X143837383Y-110278222D01*
X143851495Y-110302665D01*
X143949335Y-110400505D01*
X144069164Y-110469688D01*
X144202817Y-110505500D01*
X144341183Y-110505500D01*
X144474836Y-110469688D01*
X144594665Y-110400505D01*
X144609427Y-110385742D01*
X144669449Y-110355161D01*
X144735985Y-110365699D01*
X144783620Y-110413334D01*
X144795500Y-110462819D01*
X144795500Y-113053181D01*
X144774683Y-113117250D01*
X144720183Y-113156846D01*
X144652817Y-113156846D01*
X144609427Y-113130257D01*
X144594665Y-113115495D01*
X144587867Y-113111570D01*
X144474835Y-113046311D01*
X144341183Y-113010500D01*
X144202817Y-113010500D01*
X144069164Y-113046311D01*
X143949337Y-113115493D01*
X143851493Y-113213337D01*
X143782311Y-113333164D01*
X143762973Y-113405338D01*
X143746500Y-113466817D01*
X143746500Y-113605183D01*
X143756095Y-113640994D01*
X143782311Y-113738835D01*
X143845418Y-113848139D01*
X143851495Y-113858665D01*
X143949335Y-113956505D01*
X143949337Y-113956506D01*
X143949340Y-113956509D01*
X143950669Y-113957529D01*
X143951347Y-113958516D01*
X143954387Y-113961556D01*
X143953823Y-113962119D01*
X143988822Y-114013050D01*
X143987053Y-114080392D01*
X143953928Y-114125985D01*
X143954387Y-114126444D01*
X143951489Y-114129341D01*
X143950669Y-114130471D01*
X143949340Y-114131490D01*
X143851493Y-114229337D01*
X143782311Y-114349164D01*
X143746500Y-114482817D01*
X143746500Y-114621183D01*
X143781187Y-114750642D01*
X143777661Y-114817915D01*
X143735266Y-114870268D01*
X143730402Y-114873248D01*
X143695338Y-114893492D01*
X143597493Y-114991337D01*
X143528311Y-115111164D01*
X143492500Y-115244817D01*
X143019500Y-115244817D01*
X143019500Y-115117817D01*
X142983688Y-114984164D01*
X142914505Y-114864335D01*
X142816665Y-114766495D01*
X142789207Y-114750642D01*
X142696835Y-114697311D01*
X142563183Y-114661500D01*
X142424817Y-114661500D01*
X142291164Y-114697311D01*
X142171337Y-114766493D01*
X142073493Y-114864337D01*
X142004311Y-114984164D01*
X141968500Y-115117817D01*
X137114000Y-115117817D01*
X137078188Y-114984164D01*
X137009005Y-114864335D01*
X136911165Y-114766495D01*
X136883707Y-114750642D01*
X136791335Y-114697311D01*
X136657683Y-114661500D01*
X136519317Y-114661500D01*
X136385664Y-114697311D01*
X136265837Y-114766493D01*
X136167993Y-114864337D01*
X136098811Y-114984164D01*
X136063000Y-115117817D01*
X129359198Y-115117817D01*
X129359198Y-113958546D01*
X129360540Y-113941494D01*
X129362554Y-113928780D01*
X129370500Y-113878611D01*
X129370500Y-113705389D01*
X129360540Y-113642503D01*
X129359198Y-113625452D01*
X129359198Y-112243537D01*
X136023220Y-112243537D01*
X136023220Y-112381903D01*
X136032815Y-112417714D01*
X136059031Y-112515555D01*
X136059032Y-112515556D01*
X136128215Y-112635385D01*
X136226055Y-112733225D01*
X136345884Y-112802408D01*
X136479537Y-112838220D01*
X136617903Y-112838220D01*
X136751556Y-112802408D01*
X136871385Y-112733225D01*
X136969225Y-112635385D01*
X137038408Y-112515556D01*
X137074220Y-112381903D01*
X137074220Y-112243537D01*
X137038408Y-112109884D01*
X136969225Y-111990055D01*
X136871385Y-111892215D01*
X136871382Y-111892213D01*
X136751555Y-111823031D01*
X136724631Y-111815817D01*
X140952500Y-111815817D01*
X140952500Y-111954183D01*
X140955597Y-111965740D01*
X140988311Y-112087835D01*
X141035952Y-112170351D01*
X141057495Y-112207665D01*
X141155335Y-112305505D01*
X141275164Y-112374688D01*
X141408817Y-112410500D01*
X141547183Y-112410500D01*
X141680836Y-112374688D01*
X141800665Y-112305505D01*
X141898505Y-112207665D01*
X141967688Y-112087836D01*
X142003500Y-111954183D01*
X142003500Y-111815817D01*
X141967688Y-111682164D01*
X141898505Y-111562335D01*
X141800665Y-111464495D01*
X141721079Y-111418546D01*
X141680835Y-111395311D01*
X141547183Y-111359500D01*
X141408817Y-111359500D01*
X141275164Y-111395311D01*
X141155337Y-111464493D01*
X141057493Y-111562337D01*
X140988311Y-111682164D01*
X140967456Y-111760000D01*
X140952500Y-111815817D01*
X136724631Y-111815817D01*
X136617903Y-111787220D01*
X136479537Y-111787220D01*
X136345884Y-111823031D01*
X136226057Y-111892213D01*
X136128213Y-111990057D01*
X136059031Y-112109884D01*
X136032832Y-112207665D01*
X136023220Y-112243537D01*
X129359198Y-112243537D01*
X129359198Y-111418546D01*
X129360540Y-111401494D01*
X129361519Y-111395312D01*
X129370500Y-111338611D01*
X129370500Y-111165389D01*
X129360540Y-111102503D01*
X129359198Y-111085452D01*
X129359198Y-108878546D01*
X129360540Y-108861494D01*
X129370500Y-108798611D01*
X129370500Y-108642817D01*
X134674332Y-108642817D01*
X134674332Y-108781183D01*
X134676115Y-108787836D01*
X134710143Y-108914835D01*
X134762492Y-109005506D01*
X134779327Y-109034665D01*
X134877167Y-109132505D01*
X134996996Y-109201688D01*
X135130649Y-109237500D01*
X135269015Y-109237500D01*
X135402668Y-109201688D01*
X135522497Y-109132505D01*
X135620337Y-109034665D01*
X135689520Y-108914836D01*
X135725332Y-108781183D01*
X135725332Y-108642817D01*
X135702874Y-108559001D01*
X135696948Y-108536884D01*
X135693959Y-108525732D01*
X135691303Y-108515817D01*
X139555500Y-108515817D01*
X139555500Y-108654182D01*
X139591311Y-108787835D01*
X139591312Y-108787836D01*
X139660495Y-108907665D01*
X139758335Y-109005505D01*
X139878164Y-109074688D01*
X140011817Y-109110500D01*
X140150183Y-109110500D01*
X140283836Y-109074688D01*
X140403665Y-109005505D01*
X140501505Y-108907665D01*
X140570688Y-108787836D01*
X140606500Y-108654183D01*
X140606500Y-108515817D01*
X140570688Y-108382164D01*
X140501505Y-108262335D01*
X140403665Y-108164495D01*
X140403662Y-108164493D01*
X140283835Y-108095311D01*
X140150183Y-108059500D01*
X140011817Y-108059500D01*
X139878164Y-108095311D01*
X139758337Y-108164493D01*
X139660493Y-108262337D01*
X139591311Y-108382164D01*
X139555500Y-108515817D01*
X135691303Y-108515817D01*
X135689520Y-108509164D01*
X135620337Y-108389335D01*
X135522497Y-108291495D01*
X135471994Y-108262337D01*
X135402667Y-108222311D01*
X135269015Y-108186500D01*
X135130649Y-108186500D01*
X134996996Y-108222311D01*
X134877169Y-108291493D01*
X134779325Y-108389337D01*
X134710143Y-108509164D01*
X134696790Y-108559001D01*
X134674332Y-108642817D01*
X129370500Y-108642817D01*
X129370500Y-108625389D01*
X129360261Y-108560743D01*
X129360043Y-108559001D01*
X129360199Y-108558182D01*
X129359198Y-108545452D01*
X129359198Y-106338546D01*
X129360540Y-106321494D01*
X129370500Y-106258611D01*
X129370500Y-106085389D01*
X129360538Y-106022495D01*
X129360013Y-106015817D01*
X135152500Y-106015817D01*
X135152500Y-106154182D01*
X135188311Y-106287835D01*
X135257493Y-106407662D01*
X135257495Y-106407665D01*
X135355335Y-106505505D01*
X135475164Y-106574688D01*
X135608817Y-106610500D01*
X135747183Y-106610500D01*
X135880836Y-106574688D01*
X136000665Y-106505505D01*
X136098505Y-106407665D01*
X136167688Y-106287836D01*
X136203500Y-106154183D01*
X136203500Y-106015817D01*
X136167688Y-105882164D01*
X136098505Y-105762335D01*
X136000665Y-105664495D01*
X136000662Y-105664493D01*
X135880835Y-105595311D01*
X135878991Y-105594817D01*
X145270500Y-105594817D01*
X145270500Y-105733182D01*
X145306311Y-105866835D01*
X145342494Y-105929506D01*
X145375495Y-105986665D01*
X145473335Y-106084505D01*
X145593164Y-106153688D01*
X145726817Y-106189500D01*
X145865183Y-106189500D01*
X145998836Y-106153688D01*
X146118665Y-106084505D01*
X146216505Y-105986665D01*
X146285688Y-105866836D01*
X146321500Y-105733183D01*
X146321500Y-105594817D01*
X146285688Y-105461164D01*
X146273363Y-105439817D01*
X147556500Y-105439817D01*
X147556500Y-105578183D01*
X147561090Y-105595312D01*
X147592311Y-105711835D01*
X147661493Y-105831662D01*
X147661495Y-105831665D01*
X147759335Y-105929505D01*
X147879164Y-105998688D01*
X148012817Y-106034500D01*
X148151183Y-106034500D01*
X148284836Y-105998688D01*
X148404665Y-105929505D01*
X148502505Y-105831665D01*
X148571688Y-105711836D01*
X148607500Y-105578183D01*
X148607500Y-105439817D01*
X148571688Y-105306164D01*
X148502505Y-105186335D01*
X148404665Y-105088495D01*
X148404662Y-105088493D01*
X148284835Y-105019311D01*
X148151183Y-104983500D01*
X148012817Y-104983500D01*
X147879164Y-105019311D01*
X147759337Y-105088493D01*
X147661493Y-105186337D01*
X147592311Y-105306164D01*
X147582887Y-105341337D01*
X147556500Y-105439817D01*
X146273363Y-105439817D01*
X146216505Y-105341335D01*
X146118665Y-105243495D01*
X146118662Y-105243493D01*
X145998835Y-105174311D01*
X145865183Y-105138500D01*
X145726817Y-105138500D01*
X145593164Y-105174311D01*
X145473337Y-105243493D01*
X145375493Y-105341337D01*
X145306311Y-105461164D01*
X145270500Y-105594817D01*
X135878991Y-105594817D01*
X135747183Y-105559500D01*
X135608817Y-105559500D01*
X135475164Y-105595311D01*
X135355337Y-105664493D01*
X135257493Y-105762337D01*
X135188311Y-105882164D01*
X135152500Y-106015817D01*
X129360013Y-106015817D01*
X129359198Y-106005452D01*
X129359198Y-103798546D01*
X129360540Y-103781494D01*
X129370500Y-103718611D01*
X129370500Y-103562817D01*
X153500100Y-103562817D01*
X153500100Y-103701182D01*
X153535911Y-103834835D01*
X153535912Y-103834836D01*
X153605095Y-103954665D01*
X153702935Y-104052505D01*
X153822764Y-104121688D01*
X153956417Y-104157500D01*
X154094783Y-104157500D01*
X154228436Y-104121688D01*
X154348265Y-104052505D01*
X154446105Y-103954665D01*
X154515288Y-103834836D01*
X154551100Y-103701183D01*
X154551100Y-103562817D01*
X154515288Y-103429164D01*
X154446105Y-103309335D01*
X154348265Y-103211495D01*
X154331738Y-103201953D01*
X154228435Y-103142311D01*
X154094783Y-103106500D01*
X153956417Y-103106500D01*
X153822764Y-103142311D01*
X153702937Y-103211493D01*
X153605093Y-103309337D01*
X153535911Y-103429164D01*
X153500100Y-103562817D01*
X129370500Y-103562817D01*
X129370500Y-103545389D01*
X129360261Y-103480743D01*
X129360043Y-103479001D01*
X129360199Y-103478182D01*
X129359198Y-103465452D01*
X129359198Y-101879923D01*
X135364500Y-101879923D01*
X135364500Y-102018288D01*
X135400311Y-102151941D01*
X135469493Y-102271768D01*
X135469495Y-102271771D01*
X135567335Y-102369611D01*
X135687164Y-102438794D01*
X135820817Y-102474606D01*
X135959183Y-102474606D01*
X136092836Y-102438794D01*
X136212665Y-102369611D01*
X136310505Y-102271771D01*
X136379688Y-102151942D01*
X136415500Y-102018289D01*
X136415500Y-101998606D01*
X136436317Y-101934537D01*
X136490817Y-101894941D01*
X136524500Y-101889606D01*
X136662205Y-101889606D01*
X136795858Y-101853794D01*
X136915687Y-101784611D01*
X137013527Y-101686771D01*
X137082710Y-101566942D01*
X137118522Y-101433289D01*
X137118522Y-101294923D01*
X137082710Y-101161270D01*
X137013527Y-101041441D01*
X136915687Y-100943601D01*
X136915684Y-100943599D01*
X136795857Y-100874417D01*
X136662205Y-100838606D01*
X136523839Y-100838606D01*
X136390186Y-100874417D01*
X136270359Y-100943599D01*
X136172515Y-101041443D01*
X136103333Y-101161270D01*
X136067522Y-101294923D01*
X136067522Y-101314606D01*
X136046705Y-101378675D01*
X135992205Y-101418271D01*
X135958522Y-101423606D01*
X135820817Y-101423606D01*
X135687164Y-101459417D01*
X135567337Y-101528599D01*
X135469493Y-101626443D01*
X135400311Y-101746270D01*
X135364500Y-101879923D01*
X129359198Y-101879923D01*
X129359198Y-101258546D01*
X129360540Y-101241494D01*
X129370500Y-101178611D01*
X129370500Y-101005389D01*
X129360540Y-100942503D01*
X129359198Y-100925452D01*
X129359198Y-100487082D01*
X137677500Y-100487082D01*
X137677500Y-101734918D01*
X137706342Y-101879913D01*
X137706343Y-101879915D01*
X137762914Y-102016491D01*
X137762916Y-102016496D01*
X137775495Y-102035321D01*
X137845049Y-102139416D01*
X137949584Y-102243951D01*
X137991215Y-102271768D01*
X138072503Y-102326083D01*
X138072504Y-102326083D01*
X138072505Y-102326084D01*
X138209087Y-102382658D01*
X138354082Y-102411500D01*
X138354086Y-102411500D01*
X138501914Y-102411500D01*
X138501918Y-102411500D01*
X138646913Y-102382658D01*
X138783495Y-102326084D01*
X138906416Y-102243951D01*
X139010951Y-102139416D01*
X139093084Y-102016495D01*
X139149658Y-101879913D01*
X139178500Y-101734918D01*
X139178500Y-100891865D01*
X139199317Y-100827796D01*
X139253817Y-100788200D01*
X139321183Y-100788200D01*
X139375683Y-100827796D01*
X139381897Y-100837366D01*
X139437492Y-100933661D01*
X139437493Y-100933662D01*
X139437495Y-100933665D01*
X139535335Y-101031505D01*
X139655164Y-101100688D01*
X139788817Y-101136500D01*
X139927183Y-101136500D01*
X140060836Y-101100688D01*
X140180665Y-101031505D01*
X140278505Y-100933665D01*
X140347688Y-100813836D01*
X140383500Y-100680183D01*
X140383500Y-100541817D01*
X145112500Y-100541817D01*
X145112500Y-100680182D01*
X145148311Y-100813835D01*
X145217493Y-100933662D01*
X145217495Y-100933665D01*
X145315335Y-101031505D01*
X145435164Y-101100688D01*
X145568817Y-101136500D01*
X145707183Y-101136500D01*
X145840836Y-101100688D01*
X145960665Y-101031505D01*
X146058505Y-100933665D01*
X146114103Y-100837365D01*
X146164165Y-100792289D01*
X146231162Y-100785247D01*
X146289502Y-100818929D01*
X146316903Y-100880471D01*
X146317500Y-100891865D01*
X146317500Y-101734918D01*
X146346342Y-101879913D01*
X146346343Y-101879915D01*
X146402914Y-102016491D01*
X146402916Y-102016496D01*
X146415495Y-102035321D01*
X146485049Y-102139416D01*
X146589584Y-102243951D01*
X146631215Y-102271768D01*
X146712503Y-102326083D01*
X146712504Y-102326083D01*
X146712505Y-102326084D01*
X146849087Y-102382658D01*
X146994082Y-102411500D01*
X146994086Y-102411500D01*
X147141914Y-102411500D01*
X147141918Y-102411500D01*
X147286913Y-102382658D01*
X147423495Y-102326084D01*
X147546416Y-102243951D01*
X147650951Y-102139416D01*
X147733084Y-102016495D01*
X147789658Y-101879913D01*
X147818500Y-101734918D01*
X147818500Y-100487082D01*
X147789658Y-100342087D01*
X147733084Y-100205505D01*
X147723053Y-100190493D01*
X147650952Y-100082586D01*
X147650951Y-100082584D01*
X147546416Y-99978049D01*
X147499948Y-99947000D01*
X147423496Y-99895916D01*
X147423491Y-99895914D01*
X147286915Y-99839343D01*
X147286916Y-99839343D01*
X147286913Y-99839342D01*
X147141918Y-99810500D01*
X146994082Y-99810500D01*
X146849087Y-99839342D01*
X146849085Y-99839342D01*
X146849084Y-99839343D01*
X146712508Y-99895914D01*
X146712503Y-99895916D01*
X146589586Y-99978047D01*
X146485047Y-100082586D01*
X146402916Y-100205503D01*
X146402914Y-100205508D01*
X146346343Y-100342084D01*
X146346339Y-100342096D01*
X146336626Y-100390928D01*
X146303710Y-100449704D01*
X146242532Y-100477907D01*
X146176461Y-100464764D01*
X146130733Y-100415295D01*
X146129019Y-100411376D01*
X146127689Y-100408167D01*
X146127688Y-100408166D01*
X146127688Y-100408164D01*
X146058505Y-100288335D01*
X145960665Y-100190495D01*
X145960662Y-100190493D01*
X145840835Y-100121311D01*
X145707183Y-100085500D01*
X145568817Y-100085500D01*
X145435164Y-100121311D01*
X145315337Y-100190493D01*
X145217493Y-100288337D01*
X145148311Y-100408164D01*
X145112500Y-100541817D01*
X140383500Y-100541817D01*
X140347688Y-100408164D01*
X140278505Y-100288335D01*
X140180665Y-100190495D01*
X140180662Y-100190493D01*
X140060835Y-100121311D01*
X139927183Y-100085500D01*
X139788817Y-100085500D01*
X139655164Y-100121311D01*
X139535337Y-100190493D01*
X139437493Y-100288337D01*
X139368310Y-100408166D01*
X139366977Y-100411385D01*
X139365358Y-100413279D01*
X139364740Y-100414351D01*
X139364541Y-100414236D01*
X139323221Y-100462605D01*
X139257715Y-100478325D01*
X139195480Y-100452539D01*
X139160287Y-100395097D01*
X139159381Y-100390970D01*
X139149658Y-100342087D01*
X139093084Y-100205505D01*
X139083053Y-100190493D01*
X139010952Y-100082586D01*
X139010951Y-100082584D01*
X138906416Y-99978049D01*
X138859948Y-99947000D01*
X138783496Y-99895916D01*
X138783491Y-99895914D01*
X138646915Y-99839343D01*
X138646916Y-99839343D01*
X138646913Y-99839342D01*
X138501918Y-99810500D01*
X138354082Y-99810500D01*
X138209087Y-99839342D01*
X138209085Y-99839342D01*
X138209084Y-99839343D01*
X138072508Y-99895914D01*
X138072503Y-99895916D01*
X137949586Y-99978047D01*
X137845047Y-100082586D01*
X137762916Y-100205503D01*
X137762914Y-100205508D01*
X137706343Y-100342084D01*
X137706342Y-100342087D01*
X137677500Y-100487082D01*
X129359198Y-100487082D01*
X129359198Y-98718546D01*
X129360540Y-98701494D01*
X129363204Y-98684673D01*
X129370500Y-98638611D01*
X129370500Y-98482817D01*
X141206500Y-98482817D01*
X141206500Y-98621182D01*
X141242311Y-98754835D01*
X141278968Y-98818327D01*
X141311495Y-98874665D01*
X141409335Y-98972505D01*
X141529164Y-99041688D01*
X141662817Y-99077500D01*
X141801183Y-99077500D01*
X141934836Y-99041688D01*
X142054665Y-98972505D01*
X142152505Y-98874665D01*
X142221688Y-98754836D01*
X142257500Y-98621183D01*
X142257500Y-98546308D01*
X147694242Y-98546308D01*
X147694242Y-98684673D01*
X147730053Y-98818326D01*
X147795030Y-98930869D01*
X147799237Y-98938156D01*
X147819723Y-98958642D01*
X147850305Y-99018664D01*
X147839767Y-99085200D01*
X147837045Y-99090213D01*
X147813378Y-99131207D01*
X147813377Y-99131209D01*
X147777566Y-99264860D01*
X147777566Y-99403225D01*
X147813377Y-99536878D01*
X147813378Y-99536879D01*
X147882561Y-99656708D01*
X147980401Y-99754548D01*
X148100230Y-99823731D01*
X148233883Y-99859543D01*
X148372249Y-99859543D01*
X148505902Y-99823731D01*
X148625731Y-99754548D01*
X148723571Y-99656708D01*
X148792754Y-99536879D01*
X148828566Y-99403226D01*
X148828566Y-99264860D01*
X148792754Y-99131207D01*
X148723571Y-99011378D01*
X148703083Y-98990890D01*
X148672502Y-98930869D01*
X148683040Y-98864333D01*
X148685764Y-98859317D01*
X148709430Y-98818327D01*
X148745242Y-98684674D01*
X148745242Y-98546308D01*
X148709430Y-98412655D01*
X148640247Y-98292826D01*
X148542407Y-98194986D01*
X148449990Y-98141629D01*
X148422577Y-98125802D01*
X148288925Y-98089991D01*
X148150559Y-98089991D01*
X148016906Y-98125802D01*
X147897079Y-98194984D01*
X147799235Y-98292828D01*
X147730053Y-98412655D01*
X147694242Y-98546308D01*
X142257500Y-98546308D01*
X142257500Y-98482817D01*
X142221688Y-98349164D01*
X142152505Y-98229335D01*
X142054665Y-98131495D01*
X142051305Y-98129555D01*
X141934835Y-98062311D01*
X141801183Y-98026500D01*
X141662817Y-98026500D01*
X141529164Y-98062311D01*
X141409337Y-98131493D01*
X141311493Y-98229337D01*
X141242311Y-98349164D01*
X141206500Y-98482817D01*
X129370500Y-98482817D01*
X129370500Y-98465389D01*
X129360261Y-98400743D01*
X129360043Y-98399001D01*
X129360199Y-98398182D01*
X129359198Y-98385452D01*
X129359198Y-96954225D01*
X129361293Y-96932959D01*
X129370499Y-96886677D01*
X129370500Y-96886674D01*
X129370500Y-96457082D01*
X137677500Y-96457082D01*
X137677500Y-97404918D01*
X137706342Y-97549913D01*
X137706343Y-97549915D01*
X137762914Y-97686491D01*
X137762916Y-97686496D01*
X137780348Y-97712584D01*
X137845049Y-97809416D01*
X137949584Y-97913951D01*
X138011044Y-97955017D01*
X138072503Y-97996083D01*
X138072504Y-97996083D01*
X138072505Y-97996084D01*
X138209087Y-98052658D01*
X138354082Y-98081500D01*
X138354086Y-98081500D01*
X138501914Y-98081500D01*
X138501918Y-98081500D01*
X138646913Y-98052658D01*
X138783495Y-97996084D01*
X138906416Y-97913951D01*
X139010951Y-97809416D01*
X139093084Y-97686495D01*
X139149658Y-97549913D01*
X139178500Y-97404918D01*
X139178500Y-96457082D01*
X146317500Y-96457082D01*
X146317500Y-97404918D01*
X146346342Y-97549913D01*
X146346343Y-97549915D01*
X146402914Y-97686491D01*
X146402916Y-97686496D01*
X146420348Y-97712584D01*
X146485049Y-97809416D01*
X146589584Y-97913951D01*
X146651044Y-97955017D01*
X146712503Y-97996083D01*
X146712504Y-97996083D01*
X146712505Y-97996084D01*
X146849087Y-98052658D01*
X146994082Y-98081500D01*
X146994086Y-98081500D01*
X147141914Y-98081500D01*
X147141918Y-98081500D01*
X147286913Y-98052658D01*
X147423495Y-97996084D01*
X147546416Y-97913951D01*
X147650951Y-97809416D01*
X147733084Y-97686495D01*
X147789658Y-97549913D01*
X147818500Y-97404918D01*
X147818500Y-96457082D01*
X147789658Y-96312087D01*
X147733084Y-96175505D01*
X147650951Y-96052584D01*
X147546416Y-95948049D01*
X147545585Y-95947493D01*
X147423496Y-95865916D01*
X147423491Y-95865914D01*
X147286915Y-95809343D01*
X147286916Y-95809343D01*
X147286913Y-95809342D01*
X147141918Y-95780500D01*
X146994082Y-95780500D01*
X146849087Y-95809342D01*
X146849085Y-95809342D01*
X146849084Y-95809343D01*
X146712508Y-95865914D01*
X146712503Y-95865916D01*
X146589586Y-95948047D01*
X146485047Y-96052586D01*
X146402916Y-96175503D01*
X146402914Y-96175508D01*
X146346343Y-96312084D01*
X146346342Y-96312087D01*
X146317500Y-96457082D01*
X139178500Y-96457082D01*
X139149658Y-96312087D01*
X139093084Y-96175505D01*
X139010951Y-96052584D01*
X138906416Y-95948049D01*
X138905585Y-95947493D01*
X138783496Y-95865916D01*
X138783491Y-95865914D01*
X138646915Y-95809343D01*
X138646916Y-95809343D01*
X138646913Y-95809342D01*
X138501918Y-95780500D01*
X138354082Y-95780500D01*
X138209087Y-95809342D01*
X138209085Y-95809342D01*
X138209084Y-95809343D01*
X138072508Y-95865914D01*
X138072503Y-95865916D01*
X137949586Y-95948047D01*
X137845047Y-96052586D01*
X137762916Y-96175503D01*
X137762914Y-96175508D01*
X137706343Y-96312084D01*
X137706342Y-96312087D01*
X137677500Y-96457082D01*
X129370500Y-96457082D01*
X129370500Y-95137326D01*
X129361292Y-95091034D01*
X129359198Y-95069770D01*
X129359198Y-94722000D01*
X129380015Y-94657931D01*
X129434515Y-94618335D01*
X129468198Y-94613000D01*
X155595923Y-94613000D01*
X155659992Y-94633817D01*
G37*
%TD.AperFunction*%
%TD*%
D18*
X125730000Y-94232000D02*
X158750000Y-94232000D01*
X158750000Y-136142000D01*
X125730000Y-136142000D01*
X125730000Y-94232000D01*
M02*
